<?xml version="1.0" standalone="no"?>
<!DOCTYPE svg PUBLIC "-//W3C//DTD SVG 1.1//EN" "http://www.w3.org/Graphics/SVG/1.1/DTD/svg11.dtd" >
<svg xmlns="http://www.w3.org/2000/svg" xmlns:xlink="http://www.w3.org/1999/xlink" version="1.1">
<metadata></metadata>
<defs>
<font id="noto_sans_cjk_jpbold" horiz-adv-x="1000" >
<font-face units-per-em="1000" ascent="800" descent="-200" />
<missing-glyph horiz-adv-x="227" />
<glyph unicode=" "  horiz-adv-x="227" />
<glyph unicode="&#x09;" horiz-adv-x="227" />
<glyph unicode="&#xa0;" horiz-adv-x="227" />
<glyph unicode="!" horiz-adv-x="370" d="M94 82q0 41 26 68.5t65 27.5t65.5 -27.5t26.5 -68.5t-26.5 -68.5t-65.5 -27.5t-65 27.5t-26 68.5zM111 760h148l-5 -139l-21 -369h-96l-21 369z" />
<glyph unicode="#" horiz-adv-x="589" d="M39 217v95h97l17 137h-91v96h103l25 192h85l-23 -192h126l25 192h85l-22 -192h89v-96h-101l-17 -137h95v-95h-106l-26 -217h-88l26 217h-125l-27 -217h-87l26 217h-86zM223 312h126l17 137h-126z" />
<glyph unicode="$" horiz-adv-x="589" d="M48 75l65 99q87 -68 165 -68q102 0 102 88q0 37 -31.5 65.5t-76 50.5t-89 47t-76 68t-31.5 101q0 81 45.5 135t124.5 69v116h99v-114q91 -13 166 -91l-74 -84q-64 59 -128 59q-92 0 -92 -83q0 -34 31.5 -59.5t76 -46t89 -45.5t76 -70.5t31.5 -107.5q0 -83 -45.5 -139.5 t-130.5 -72.5v-116h-99v112q-117 14 -198 87z" />
<glyph unicode="%" horiz-adv-x="962" d="M32 521q0 109 49.5 171t130.5 62t131 -62t50 -171q0 -110 -50 -173t-131 -63t-130.5 63t-49.5 173zM136 521q0 -78 21 -115.5t55 -37.5q35 0 56 37.5t21 115.5q0 77 -21 113.5t-56 36.5q-76 0 -76 -150zM237 -14l402 768h87l-403 -768h-86zM570 222q0 110 49.5 172 t130.5 62t131 -62.5t50 -171.5t-50.5 -172.5t-130.5 -63.5t-130 63.5t-50 172.5zM673 222q0 -78 21 -115t56 -37t56 37t21 115q0 77 -21 114t-56 37t-56 -37t-21 -114z" />
<glyph unicode="&#x26;" horiz-adv-x="739" d="M30 196q0 71 37 120t102 90q-47 88 -47 160q0 79 53.5 133.5t140.5 54.5q79 0 125.5 -44t46.5 -117q0 -35 -12.5 -66t-38.5 -58.5t-48.5 -46t-59.5 -43.5q66 -82 160 -154q62 83 91 188h133q-42 -142 -125 -254q76 -43 131 -53l-36 -120q-93 21 -184 78q-99 -78 -227 -78 q-112 0 -177 60t-65 150zM170 205q0 -47 33.5 -76.5t86.5 -29.5q52 0 108 37q-96 79 -167 173q-61 -53 -61 -104zM244 566q0 -43 27 -99q50 30 76.5 59t26.5 66q0 64 -56 64q-33 0 -53.5 -24.5t-20.5 -65.5z" />
<glyph unicode="'" horiz-adv-x="325" d="M87 780h150l-5 -139l-29 -215h-82l-29 215z" />
<glyph unicode="(" horiz-adv-x="378" d="M85 316q0 273 149 517l92 -39q-122 -212 -122 -478q0 -267 122 -479l-92 -39q-149 246 -149 518z" />
<glyph unicode=")" horiz-adv-x="378" d="M52 -163q122 212 122 479q0 266 -122 478l91 39q150 -243 150 -517q0 -273 -150 -518z" />
<glyph unicode="*" horiz-adv-x="506" d="M49 631l24 74l128 -29l13 132h79l12 -132l128 29l24 -74l-120 -53l67 -114l-63 -46l-88 100l-88 -100l-63 46l66 114z" />
<glyph unicode="+" horiz-adv-x="589" d="M38 322v104h202v213h109v-213h202v-104h-202v-213h-109v213h-202z" />
<glyph unicode="," horiz-adv-x="325" d="M53 -133q58 22 89 57.5t31 79.5h-9q-38 0 -65 23.5t-27 63.5q0 39 27.5 63t67.5 24q51 0 78.5 -38t27.5 -107q0 -88 -49.5 -152t-139.5 -94z" />
<glyph unicode="-" horiz-adv-x="370" d="M49 234v105h273v-105h-273z" />
<glyph unicode="." horiz-adv-x="325" d="M71 82q0 41 26 68.5t65 27.5q40 0 66 -27.5t26 -68.5t-26 -68.5t-66 -27.5q-39 0 -65 27.5t-26 68.5z" />
<glyph unicode="/" horiz-adv-x="388" d="M14 -182l248 987h98l-248 -987h-98z" />
<glyph unicode="0" horiz-adv-x="589" d="M44 373q0 187 67 284t184 97q116 0 183 -97t67 -284t-67.5 -287t-182.5 -100q-116 0 -183.5 100t-67.5 287zM183 373q0 -272 112 -272q111 0 111 272q0 267 -111 267q-112 0 -112 -267z" />
<glyph unicode="1" horiz-adv-x="589" d="M82 0v119h159v468h-134v91q103 20 172 62h109v-621h139v-119h-445z" />
<glyph unicode="2" horiz-adv-x="589" d="M36 642q54 57 108.5 84.5t126.5 27.5q105 0 169 -62.5t64 -165.5q0 -169 -246 -410q74 8 120 8h161v-124h-496v85q161 144 240.5 248t79.5 185q0 56 -29.5 88t-81.5 32q-67 0 -136 -76z" />
<glyph unicode="3" horiz-adv-x="589" d="M26 89l69 93q78 -76 165 -76q57 0 91.5 27t34.5 76q0 59 -45 88.5t-159 29.5v106q180 0 180 113q0 44 -26 68t-73 25q-69 -1 -140 -66l-75 90q104 91 222 91q109 0 174.5 -51.5t65.5 -145.5q0 -120 -124 -169v-5q66 -18 107 -65t41 -117q0 -99 -75 -157t-185 -58 q-157 0 -248 103z" />
<glyph unicode="4" horiz-adv-x="589" d="M21 192v100l276 448h176v-436h88v-112h-88v-192h-137v192h-315zM164 304h172v151q0 24 6 153h-4q-29 -63 -59 -120z" />
<glyph unicode="5" horiz-adv-x="589" d="M26 87l68 94q77 -75 163 -75q59 0 95 36t36 100t-34 99t-91 35q-32 0 -54.5 -8.5t-56.5 -30.5l-67 44l20 359h396v-123h-269l-14 -157q44 21 89 21q99 0 163.5 -60t64.5 -175q0 -119 -75.5 -189.5t-183.5 -70.5q-149 0 -250 101z" />
<glyph unicode="6" horiz-adv-x="589" d="M50 360q0 195 82 294.5t204 99.5q119 0 201 -84l-78 -88q-20 23 -51.5 38.5t-62.5 15.5q-69 0 -113 -59t-48 -190q29 36 72 57.5t80 21.5q97 0 154.5 -59t57.5 -174q0 -111 -67 -179t-165 -68q-114 0 -190 94.5t-76 279.5zM187 284q19 -187 126 -187q43 0 71.5 35.5 t28.5 100.5q0 64 -28 96.5t-77 32.5q-70 0 -121 -78z" />
<glyph unicode="7" horiz-adv-x="589" d="M50 617v123h492v-89q-64 -78 -103 -147.5t-60.5 -150.5t-30 -156t-13.5 -197h-149q10 200 52 337t145 280h-333z" />
<glyph unicode="8" horiz-adv-x="589" d="M47 184q0 125 127 193v5q-98 70 -98 176q0 88 62.5 141.5t160.5 53.5t156.5 -54t58.5 -143q0 -51 -27 -95.5t-68 -73.5v-5q124 -67 124 -198q0 -85 -69 -141.5t-180 -56.5q-106 0 -176.5 56t-70.5 142zM174 200q0 -49 35.5 -79.5t88.5 -30.5q48 0 78 26t30 73 q0 53 -39 83t-125 65q-68 -54 -68 -137zM206 558q0 -48 34 -78t101 -57q53 56 53 124q0 46 -26 74.5t-72 28.5q-39 0 -64.5 -24.5t-25.5 -67.5z" />
<glyph unicode="9" horiz-adv-x="589" d="M40 507q0 111 67.5 179t165.5 68q114 0 190 -92.5t76 -274.5q0 -198 -82 -299.5t-202 -101.5q-121 0 -203 84l77 88q21 -23 53 -37.5t64 -14.5q68 0 111 59t47 190q-28 -37 -70.5 -59t-81.5 -22q-96 0 -154 59.5t-58 173.5zM175 507q0 -64 28 -96t77 -32q72 0 122 79 q-18 185 -127 185q-43 0 -71.5 -35.5t-28.5 -100.5z" />
<glyph unicode=":" horiz-adv-x="325" d="M71 82q0 41 26 68.5t65 27.5q40 0 66 -27.5t26 -68.5t-26 -68.5t-66 -27.5q-39 0 -65 27.5t-26 68.5zM71 461q0 41 26 68.5t65 27.5q40 0 66 -27.5t26 -68.5t-26 -68t-66 -27q-39 0 -65 27t-26 68z" />
<glyph unicode=";" horiz-adv-x="325" d="M53 -133q58 22 89 57.5t31 79.5h-9q-38 0 -65 23.5t-27 63.5q0 39 27.5 63t67.5 24q51 0 78.5 -38t27.5 -107q0 -88 -49.5 -152t-139.5 -94zM71 461q0 41 26 68.5t65 27.5q40 0 66 -27.5t26 -68.5t-26 -68t-66 -27q-39 0 -65 27t-26 68z" />
<glyph unicode="&#x3c;" horiz-adv-x="589" d="M38 324v104l513 198v-121l-210 -72l-153 -54v-5l153 -54l210 -72v-122z" />
<glyph unicode="=" horiz-adv-x="589" d="M38 192v105h513v-105h-513zM38 451v105h513v-105h-513z" />
<glyph unicode="&#x3e;" horiz-adv-x="589" d="M38 126v122l211 72l153 54v5l-153 54l-211 72v121l513 -198v-104z" />
<glyph unicode="?" horiz-adv-x="514" d="M46 673q88 100 210 100q94 0 151 -48.5t57 -141.5q0 -39 -18 -74.5t-42.5 -63.5l-49 -56t-39 -63t-10.5 -74h-128q-8 55 13 104.5t51 80.5t56 68t26 68q0 38 -23 60t-62 22q-57 0 -111 -56zM150 82q0 41 26 68.5t65 27.5q40 0 66 -27.5t26 -68.5t-26 -68.5t-66 -27.5 q-39 0 -65 27.5t-26 68.5z" />
<glyph unicode="@" horiz-adv-x="1007" d="M56 232q0 115 40 213t108.5 165t160 104.5t192.5 37.5q179 0 286.5 -110t107.5 -286q0 -74 -22.5 -134.5t-59.5 -97.5t-80.5 -57t-87.5 -20q-49 0 -84 22.5t-43 63.5h-2q-25 -34 -63.5 -55t-73.5 -21q-65 0 -105.5 45.5t-40.5 122.5q0 104 66 189t160 85q60 0 87 -56h2 l16 47h91l-49 -244q-26 -107 54 -107q55 0 97.5 59.5t42.5 152.5q0 136 -78 223t-233 87q-74 0 -143.5 -30.5t-124.5 -84.5t-88 -135t-33 -175q0 -160 95 -247.5t239 -87.5q93 0 175 46l33 -82q-98 -55 -220 -55q-86 0 -161.5 26.5t-134 77.5t-92.5 133t-34 185zM400 233 q0 -41 18 -62t48 -21q38 0 83 56l29 160q-22 37 -59 37q-51 0 -85 -55t-34 -115z" />
<glyph unicode="A" horiz-adv-x="641" d="M-4 0l237 740h174l238 -740h-155l-52 190h-240l-52 -190h-150zM230 305h176l-22 81q-13 44 -35.5 130.5t-29.5 111.5h-4q-28 -120 -63 -242z" />
<glyph unicode="B" horiz-adv-x="681" d="M91 0v740h245q268 0 268 -182q0 -53 -27.5 -98.5t-73.5 -61.5v-5q63 -15 101 -59t38 -116q0 -107 -79 -162.5t-208 -55.5h-264zM239 114h103q156 0 156 113q0 102 -156 102h-103v-215zM239 439h86q135 0 135 97q0 48 -32.5 69.5t-100.5 21.5h-88v-188z" />
<glyph unicode="C" horiz-adv-x="657" d="M54 367q0 177 99 282t245 105q126 0 217 -95l-78 -94q-64 62 -136 62q-86 0 -141 -69t-55 -186q0 -120 52.5 -189t140.5 -69q85 0 153 73l78 -92q-94 -109 -236 -109q-146 0 -242.5 101t-96.5 280z" />
<glyph unicode="D" horiz-adv-x="714" d="M91 0v740h203q174 0 270 -92t96 -275t-95.5 -278t-262.5 -95h-211zM239 119h46q224 0 224 254q0 249 -224 249h-46v-503z" />
<glyph unicode="E" horiz-adv-x="615" d="M91 0v740h454v-123h-306v-171h260v-124h-260v-198h317v-124h-465z" />
<glyph unicode="F" horiz-adv-x="585" d="M91 0v740h456v-123h-308v-193h263v-124h-263v-300h-148z" />
<glyph unicode="G" horiz-adv-x="717" d="M54 367q0 178 101 282.5t254 104.5q136 0 229 -95l-79 -94q-64 62 -145 62q-94 0 -151.5 -68.5t-57.5 -186.5q0 -123 56 -190.5t163 -67.5q60 0 93 28v146h-131v121h263v-334q-40 -39 -103 -64t-137 -25q-157 0 -256 100.5t-99 280.5z" />
<glyph unicode="H" horiz-adv-x="757" d="M91 0v740h148v-291h280v291h147v-740h-147v320h-280v-320h-148z" />
<glyph unicode="I" horiz-adv-x="330" d="M91 0v740h148v-740h-148z" />
<glyph unicode="J" horiz-adv-x="568" d="M22 116l102 75q41 -77 110 -77q50 0 74.5 31.5t24.5 105.5v489h148v-501q0 -111 -57.5 -182t-171.5 -71q-154 0 -230 130z" />
<glyph unicode="K" horiz-adv-x="686" d="M91 0v740h148v-321h3l245 321h163l-226 -291l266 -449h-163l-191 332l-97 -124v-208h-148z" />
<glyph unicode="L" horiz-adv-x="577" d="M91 0v740h148v-616h300v-124h-448z" />
<glyph unicode="M" horiz-adv-x="854" d="M91 0v740h164l126 -346q3 -9 45 -143h5q7 22 21.5 70t23.5 73l123 346h164v-740h-135v309q0 63 18 243h-4l-60 -174l-114 -311h-85l-115 311l-59 174h-4q19 -190 19 -243v-309h-133z" />
<glyph unicode="N" horiz-adv-x="749" d="M91 0v740h151l215 -394l74 -160h5q-19 183 -19 259v295h140v-740h-150l-214 396l-75 159h-5q18 -206 18 -258v-297h-140z" />
<glyph unicode="O" horiz-adv-x="770" d="M54 373q0 178 91 279.5t240 101.5t240 -102t91 -279q0 -178 -91 -282.5t-240 -104.5t-240 104.5t-91 282.5zM205 373q0 -119 49 -189t131 -70t131 70t49 189t-48.5 186.5t-131.5 67.5t-131.5 -67.5t-48.5 -186.5z" />
<glyph unicode="P" horiz-adv-x="667" d="M91 0v740h243q290 0 290 -232q0 -121 -79.5 -183t-206.5 -62h-99v-263h-148zM239 380h89q151 0 151 128q0 62 -38.5 88.5t-117.5 26.5h-84v-243z" />
<glyph unicode="Q" horiz-adv-x="770" d="M54 373q0 178 91 279.5t240 101.5t240 -102t91 -279q0 -149 -65.5 -248t-177.5 -128q48 -79 168 -79q45 0 81 12l26 -109q-46 -22 -124 -22q-109 0 -188 52.5t-119 140.5q-120 23 -191.5 124t-71.5 257zM205 373q0 -124 48.5 -195t131.5 -71t131.5 71t48.5 195 q0 119 -48.5 186.5t-131.5 67.5t-131.5 -67.5t-48.5 -186.5z" />
<glyph unicode="R" horiz-adv-x="682" d="M91 0v740h258q278 0 278 -224q0 -158 -141 -213l173 -303h-165l-152 280h-103v-280h-148zM239 397h96q147 0 147 119q0 58 -36.5 82.5t-110.5 24.5h-96v-226z" />
<glyph unicode="S" horiz-adv-x="624" d="M42 94l85 102q89 -82 188 -82q57 0 87.5 22.5t30.5 62.5q0 20 -6.5 34t-26 27t-32 18.5t-46.5 20.5l-99 42q-150 62 -150 199q0 92 72 153t184 61q65 0 126 -25t106 -70l-75 -93q-74 61 -157 61q-49 0 -78 -21t-29 -57q0 -15 7 -28.5t14.5 -21t27.5 -18t29.5 -14.5 t37.5 -15l97 -41q72 -30 110.5 -77.5t38.5 -123.5q0 -94 -74 -159t-198 -65q-157 0 -270 108z" />
<glyph unicode="T" horiz-adv-x="625" d="M30 617v123h566v-123h-210v-617h-148v617h-208z" />
<glyph unicode="U" horiz-adv-x="748" d="M87 333v407h148v-420q0 -111 35.5 -158.5t104.5 -47.5q70 0 107 48t37 158v420h142v-407q0 -347 -286 -347q-288 0 -288 347z" />
<glyph unicode="V" horiz-adv-x="618" d="M-5 740h155l98 -360q11 -38 30 -116.5t32 -122.5h5q11 40 31 118.5t32 120.5l96 360h150l-227 -740h-176z" />
<glyph unicode="W" horiz-adv-x="915" d="M18 740h151l59 -361q5 -35 16.5 -114.5t17.5 -121.5h4q22 114 47 236l86 361h126l86 -361q9 -45 26.5 -133.5t20.5 -102.5h5q18 133 33 236l58 361h141l-137 -740h-184l-83 366q-20 98 -32 171h-4q-21 -119 -32 -171l-81 -366h-181z" />
<glyph unicode="X" horiz-adv-x="627" d="M14 0l208 382l-195 358h164l74 -152q9 -18 26.5 -56.5t28.5 -60.5h5q27 68 49 117l70 152h156l-195 -365l208 -375h-164l-83 164q-10 20 -29 60.5t-29 61.5h-4q-31 -74 -54 -122l-79 -164h-157z" />
<glyph unicode="Y" horiz-adv-x="581" d="M-6 740h157l74 -180q38 -100 64 -164h4q63 156 66 164l74 180h154l-223 -469v-271h-148v271z" />
<glyph unicode="Z" horiz-adv-x="613" d="M43 0v89l345 528h-312v123h493v-88l-344 -528h348v-124h-530z" />
<glyph unicode="[" horiz-adv-x="378" d="M101 -173v976h229v-78h-119v-818h119v-80h-229z" />
<glyph unicode="\" horiz-adv-x="388" d="M28 805h97l249 -987h-98z" />
<glyph unicode="]" horiz-adv-x="378" d="M48 -93h119v818h-119v78h229v-976h-229v80z" />
<glyph unicode="^" horiz-adv-x="589" d="M60 313l174 447h121l175 -447h-122l-59 161l-52 153h-5l-52 -153l-58 -161h-122z" />
<glyph unicode="_" horiz-adv-x="567" d="M14 -69h540v-86h-540v86z" />
<glyph unicode="`" horiz-adv-x="626" d="M110 826l101 98l171 -203l-73 -71z" />
<glyph unicode="a" horiz-adv-x="591" d="M51 152q0 90 76.5 139.5t245.5 67.5q-4 97 -95 97q-62 0 -154 -53l-53 97q119 74 234 74q106 0 160.5 -62.5t54.5 -184.5v-327h-120l-11 60h-3q-86 -74 -169 -74q-74 0 -120 47t-46 119zM191 164q0 -63 74 -63q53 0 108 55v113q-182 -24 -182 -105z" />
<glyph unicode="b" horiz-adv-x="644" d="M79 0v798h146v-201l-3 -90q74 67 155 67q103 0 162 -77.5t59 -206.5q0 -139 -70.5 -221.5t-167.5 -82.5q-79 0 -150 73h-3l-13 -59h-115zM225 149q47 -42 102 -42q54 0 87 46t33 134q0 166 -111 166q-53 0 -111 -58v-246z" />
<glyph unicode="c" horiz-adv-x="527" d="M44 279q0 135 83.5 215t202.5 80q90 0 163 -62l-70 -95q-43 37 -86 37q-64 0 -103.5 -48t-39.5 -127q0 -78 39 -125.5t100 -47.5q55 0 109 45l58 -97q-77 -68 -183 -68q-119 0 -196 79t-77 214z" />
<glyph unicode="d" horiz-adv-x="644" d="M47 279q0 132 70 213.5t165 81.5q76 0 142 -61l-6 88v197h147v-798h-119l-12 58h-3q-74 -72 -155 -72q-105 0 -167 78.5t-62 214.5zM198 281q0 -174 116 -174q60 0 104 58v246q-46 42 -104 42q-50 0 -83 -45.5t-33 -126.5z" />
<glyph unicode="e" horiz-adv-x="581" d="M44 279q0 131 78 213t183 82q112 0 173 -74t61 -194q0 -44 -7 -67h-345q9 -68 50 -104t105 -36t126 39l50 -90q-90 -62 -196 -62q-120 0 -199 79t-79 214zM185 336h228q0 59 -26.5 91.5t-79.5 32.5q-46 0 -80 -32.5t-42 -91.5z" />
<glyph unicode="f" horiz-adv-x="372" d="M29 444v109l75 6v46q0 94 47.5 150.5t147.5 56.5q56 0 106 -20l-27 -108q-33 12 -59 12q-68 0 -68 -88v-48h105v-116h-105v-444h-147v444h-75z" />
<glyph unicode="g" horiz-adv-x="597" d="M42 -99q0 71 80 116v5q-51 33 -51 94q0 60 62 105v4q-31 23 -52.5 61.5t-21.5 84.5q0 95 66 149t160 54q44 0 84 -14h202v-108h-96q26 -33 26 -85q0 -91 -61 -140.5t-155 -49.5q-33 0 -72 13q-24 -20 -24 -48q0 -23 20 -34.5t68 -11.5h95q208 0 208 -140 q0 -86 -83 -142.5t-221 -56.5q-104 0 -169 36.5t-65 107.5zM164 -76q0 -35 36 -54.5t98 -19.5t102 23.5t40 57.5q0 29 -22.5 39.5t-70.5 10.5h-68q-46 0 -78 8q-37 -30 -37 -65zM197 371q0 -48 25 -75.5t63 -27.5t62.5 27.5t24.5 75.5t-24 75.5t-63 27.5t-63.5 -27.5 t-24.5 -75.5z" />
<glyph unicode="h" horiz-adv-x="640" d="M79 0v798h146v-201l-6 -105q88 82 176 82q173 0 173 -225v-349h-147v331q0 64 -18.5 90.5t-60.5 26.5q-32 0 -57 -14.5t-60 -48.5v-385h-146z" />
<glyph unicode="i" horiz-adv-x="304" d="M65 730q0 36 24.5 58t63.5 22q38 0 62.5 -22t24.5 -58q0 -34 -24.5 -57t-62.5 -23t-63 22.5t-25 57.5zM79 0v560h146v-560h-146z" />
<glyph unicode="j" horiz-adv-x="305" d="M-54 -214l26 109q24 -8 46 -8q35 0 48.5 23t13.5 72v578h147v-574q0 -215 -187 -215q-53 0 -94 15zM66 730q0 36 24.5 58t63.5 22q38 0 63 -22t25 -58q0 -34 -25 -57t-63 -23t-63 22.5t-25 57.5z" />
<glyph unicode="k" horiz-adv-x="605" d="M79 0v798h143v-480h4l194 242h160l-194 -229l212 -331h-159l-136 232l-81 -92v-140h-143z" />
<glyph unicode="l" horiz-adv-x="315" d="M79 157v641h146v-648q0 -44 30 -44q10 0 20 2l18 -109q-32 -13 -76 -13q-138 0 -138 171z" />
<glyph unicode="m" horiz-adv-x="964" d="M79 0v560h120l10 -75h4q85 89 172 89q111 0 154 -98q44 47 86 72.5t92 25.5q87 0 130.5 -58.5t43.5 -166.5v-349h-147v331q0 63 -18.5 90t-59.5 27q-48 0 -108 -63v-385h-147v331q0 63 -18.5 90t-59.5 27q-48 0 -108 -63v-385h-146z" />
<glyph unicode="n" horiz-adv-x="641" d="M79 0v560h120l10 -74h4q90 88 182 88q173 0 173 -225v-349h-147v331q0 64 -18.5 90.5t-60.5 26.5q-32 0 -57 -14.5t-60 -48.5v-385h-146z" />
<glyph unicode="o" horiz-adv-x="626" d="M44 279q0 135 79 215t190 80t190 -80t79 -215q0 -133 -79.5 -213t-189.5 -80t-189.5 80t-79.5 213zM194 279q0 -80 31.5 -126.5t87.5 -46.5t87.5 46.5t31.5 126.5q0 81 -31.5 128t-87.5 47t-87.5 -47t-31.5 -128z" />
<glyph unicode="p" horiz-adv-x="644" d="M79 -215v775h120l10 -58h4q85 72 165 72q103 0 161.5 -77.5t58.5 -207.5q0 -138 -70.5 -220.5t-167.5 -82.5q-72 0 -139 61l4 -92v-170h-146zM225 149q49 -42 102 -42q54 0 87 46t33 134q0 166 -111 166q-53 0 -111 -58v-246z" />
<glyph unicode="q" horiz-adv-x="644" d="M47 279q0 132 70 213.5t165 81.5q86 0 152 -69h4l12 55h115v-775h-147v178l6 90q-65 -67 -148 -67q-105 0 -167 78.5t-62 214.5zM198 281q0 -174 116 -174q60 0 104 58v246q-46 42 -104 42q-50 0 -83 -45.5t-33 -126.5z" />
<glyph unicode="r" horiz-adv-x="436" d="M79 0v560h120l10 -99h4q30 54 72.5 83.5t86.5 29.5q37 0 66 -12l-26 -127q-28 9 -58 9q-37 0 -72 -26.5t-57 -83.5v-334h-146z" />
<glyph unicode="s" horiz-adv-x="495" d="M26 65l67 92q78 -61 150 -61q81 0 81 59q0 14 -7.5 25.5t-25 21.5t-31.5 16t-40 16q-9 3 -13 5q-31 12 -54.5 24.5t-48 31.5t-37.5 46.5t-13 60.5q0 76 57 124t151 48q98 0 191 -69l-66 -89q-69 48 -121 48q-36 0 -55 -14.5t-19 -39.5q0 -7 1.5 -13t6 -11t8.5 -9.5t12 -9 t14 -7.5t16.5 -7.5t17 -6.5t19.5 -7t19 -7q34 -13 56.5 -24.5t48 -31t38.5 -48t13 -65.5q0 -77 -58.5 -127t-164.5 -50q-55 0 -113 22t-100 57z" />
<glyph unicode="t" horiz-adv-x="420" d="M21 444v109l86 7l17 150h123v-150h138v-116h-138v-248q0 -94 76 -94q25 0 55 12l24 -107q-63 -21 -118 -21q-184 0 -184 210v248h-79z" />
<glyph unicode="u" horiz-adv-x="637" d="M73 210v350h147v-331q0 -64 18.5 -90.5t59.5 -26.5q34 0 59.5 16t54.5 54v378h147v-560h-120l-11 80h-4q-79 -94 -179 -94q-172 0 -172 224z" />
<glyph unicode="v" horiz-adv-x="576" d="M14 560h148l82 -279q8 -32 24.5 -93.5t20.5 -76.5h5q12 50 45 170l82 279h141l-187 -560h-170z" />
<glyph unicode="w" horiz-adv-x="863" d="M27 560h147l61 -277q6 -30 15 -86.5t13 -76.5h4q25 126 35 163l67 277h131l70 -277q8 -32 20 -90.5t15 -72.5h5q4 20 13 76.5t15 86.5l61 277h136l-138 -560h-173l-59 244q-9 40 -32 163h-5q-28 -149 -31 -163l-57 -244h-168z" />
<glyph unicode="x" horiz-adv-x="562" d="M16 0l175 292l-164 268h158l56 -100q25 -48 50 -94h4q7 15 20.5 47t20.5 47l47 100h152l-164 -285l175 -275h-158l-62 102q-6 11 -17 31.5t-20 37t-17 30.5h-5q-7 -14 -47 -99l-52 -102h-152z" />
<glyph unicode="y" horiz-adv-x="574" d="M14 560h148l89 -260q1 -4 47 -158h5q6 26 19.5 79t20.5 79l77 260h141l-199 -577q-39 -106 -92 -157t-142 -51q-42 0 -77 11l27 113q23 -7 39 -7q77 0 105 85l10 33z" />
<glyph unicode="z" horiz-adv-x="511" d="M41 0v79l250 365h-222v116h406v-79l-251 -365h259v-116h-442z" />
<glyph unicode="{" horiz-adv-x="378" d="M36 272v87q52 1 74.5 25t22.5 60t-5 97.5t-5 102.5q0 89 33 124t109 35h65v-78h-23q-38 0 -51.5 -18.5t-13.5 -68.5q0 -30 2.5 -92t2.5 -98q0 -61 -19 -90.5t-61 -39.5v-5q42 -10 61 -40t19 -90q0 -37 -2.5 -98.5t-2.5 -91.5q0 -50 13 -68t52 -18h23v-80h-65 q-76 0 -109 35t-33 124q0 41 5 102.5t5 97.5t-22.5 60.5t-74.5 25.5z" />
<glyph unicode="|" horiz-adv-x="296" d="M100 -283v1134h96v-1134h-96z" />
<glyph unicode="}" horiz-adv-x="378" d="M48 -93h23q38 0 51.5 18t13.5 68q0 30 -2.5 91.5t-2.5 98.5q0 60 19 90t61 40v5q-42 10 -61 39.5t-19 90.5q0 36 2.5 98t2.5 92q0 50 -13.5 68.5t-51.5 18.5h-23v78h65q76 0 109 -35t33 -124q0 -41 -5.5 -102.5t-5.5 -97.5q0 -35 23 -59.5t74 -25.5v-87q-51 -1 -74 -25.5 t-23 -60.5t5.5 -97.5t5.5 -102.5q0 -89 -33 -124t-109 -35h-65v80z" />
<glyph unicode="~" horiz-adv-x="589" d="M35 358q72 113 163 113q39 0 75 -22t66 -44t55 -22q47 0 83 65l77 -58q-71 -112 -162 -112q-40 0 -75.5 22t-66 44t-55.5 22q-47 0 -83 -66z" />
<glyph unicode="&#xa7;" d="M245 372q0 38 22.5 75.5t64.5 61.5q-19 16 -31.5 44t-12.5 57q0 80 66.5 127t172.5 47q102 0 178 -38l-26 -93q-66 36 -156 36q-50 0 -79 -18.5t-29 -45.5q0 -30 31 -48.5t99 -38.5q103 -30 156 -73t53 -119q0 -86 -74 -140q47 -38 47 -104q0 -88 -73.5 -134.5 t-170.5 -46.5q-130 0 -204 50l31 93q79 -48 172 -48q52 0 82.5 19.5t30.5 52.5q0 30 -29.5 50.5t-102.5 43.5q-107 33 -162.5 75t-55.5 115zM360 398q0 -29 24.5 -51t85.5 -42q115 -40 134 -50q35 22 35 68q0 37 -38 62t-108 47.5t-91 33.5q-42 -27 -42 -68z" />
<glyph unicode="&#xa8;" horiz-adv-x="626" d="M119 725q0 32 21 53.5t53 21.5q33 0 54 -21.5t21 -53.5q0 -31 -21 -52.5t-54 -21.5q-32 0 -53 21.5t-21 52.5zM358 725q0 32 21 53.5t54 21.5q32 0 53 -21.5t21 -53.5q0 -31 -21 -52.5t-53 -21.5q-33 0 -54 21.5t-21 52.5z" />
<glyph unicode="&#xad;" horiz-adv-x="370" d="M49 234v105h273v-105h-273z" />
<glyph unicode="&#xb0;" horiz-adv-x="404" d="M45 619q0 69 45.5 114t111.5 45q67 0 112.5 -45t45.5 -114t-45.5 -113.5t-112.5 -44.5q-66 0 -111.5 44.5t-45.5 113.5zM124 619q0 -38 22 -61.5t56 -23.5q35 0 57 23.5t22 61.5t-22 62t-57 24t-56.5 -24t-21.5 -62z" />
<glyph unicode="&#xb1;" d="M145 9v102h718v-102h-718zM145 458v101h304v253h102v-253h304v-101h-304v-253h-102v253h-304z" />
<glyph unicode="&#xb4;" horiz-adv-x="626" d="M244 721l171 203l100 -98l-198 -176z" />
<glyph unicode="&#xb6;" d="M236 515q-1 39 7.5 74t31 69.5t58.5 59.5t94.5 40.5t133.5 15.5q98 0 150 -11v-819h-94v737h-81v-737h-94v356h-7q-28 0 -60 13t-63.5 37.5t-53 68t-22.5 96.5z" />
<glyph unicode="&#xd7;" d="M172 123l257 257l-257 257l72 72l257 -257l257 257l72 -72l-257 -257l257 -257l-72 -72l-257 257l-257 -257z" />
<glyph unicode="&#xf7;" d="M145 328v102h710v-102h-710zM413 127q0 36 25.5 61.5t61.5 25.5t61.5 -25.5t25.5 -61.5q0 -35 -25.5 -61t-61.5 -26t-61.5 26t-25.5 61zM413 631q0 35 25.5 61t61.5 26t61.5 -26t25.5 -61q0 -36 -25.5 -61.5t-61.5 -25.5t-61.5 25.5t-25.5 61.5z" />
<glyph unicode="&#x391;" horiz-adv-x="641" d="M-4 0l237 740h174l238 -740h-155l-52 190h-240l-52 -190h-150zM230 305h176l-22 81q-13 44 -35.5 130.5t-29.5 111.5h-4q-28 -120 -63 -242z" />
<glyph unicode="&#x392;" horiz-adv-x="681" d="M91 0v740h245q268 0 268 -182q0 -53 -27.5 -98.5t-73.5 -61.5v-5q63 -15 101 -59t38 -116q0 -107 -79 -162.5t-208 -55.5h-264zM239 114h103q156 0 156 113q0 102 -156 102h-103v-215zM239 439h86q135 0 135 97q0 48 -32.5 69.5t-100.5 21.5h-88v-188z" />
<glyph unicode="&#x393;" horiz-adv-x="584" d="M91 0v740h456v-123h-308v-617h-148z" />
<glyph unicode="&#x394;" horiz-adv-x="710" d="M37 0v89l230 651h176l230 -651v-89h-636zM196 124h315l-89 275l-68 225h-4l-67 -225z" />
<glyph unicode="&#x395;" horiz-adv-x="615" d="M91 0v740h454v-123h-306v-171h260v-124h-260v-198h317v-124h-465z" />
<glyph unicode="&#x396;" horiz-adv-x="613" d="M43 0v89l345 528h-312v123h493v-88l-344 -528h348v-124h-530z" />
<glyph unicode="&#x397;" horiz-adv-x="757" d="M91 0v740h148v-291h280v291h147v-740h-147v320h-280v-320h-148z" />
<glyph unicode="&#x398;" horiz-adv-x="770" d="M54 373q0 178 91 279.5t240 101.5t240 -102t91 -279q0 -178 -91 -282.5t-240 -104.5t-240 104.5t-91 282.5zM205 373q0 -119 49 -189t131 -70t131 70t49 189t-48.5 186.5t-131.5 67.5t-131.5 -67.5t-48.5 -186.5zM270 320v129h231v-129h-231z" />
<glyph unicode="&#x399;" horiz-adv-x="330" d="M91 0v740h148v-740h-148z" />
<glyph unicode="&#x39a;" horiz-adv-x="686" d="M91 0v740h148v-321h3l245 321h163l-226 -291l266 -449h-163l-191 332l-97 -124v-208h-148z" />
<glyph unicode="&#x39b;" horiz-adv-x="618" d="M-5 0l225 740h177l227 -740h-156l-97 361q-12 42 -31.5 120t-31.5 119h-5q-14 -47 -34 -128t-28 -111l-96 -361h-150z" />
<glyph unicode="&#x39c;" horiz-adv-x="854" d="M91 0v740h164l126 -346q3 -9 45 -143h5q7 22 21.5 70t23.5 73l123 346h164v-740h-135v309q0 63 18 243h-4l-60 -174l-114 -311h-85l-115 311l-59 174h-4q19 -190 19 -243v-309h-133z" />
<glyph unicode="&#x39d;" horiz-adv-x="749" d="M91 0v740h151l215 -394l74 -160h5q-19 183 -19 259v295h140v-740h-150l-214 396l-75 159h-5q18 -206 18 -258v-297h-140z" />
<glyph unicode="&#x39e;" horiz-adv-x="636" d="M59 0v124h519v-124h-519zM70 617v123h496v-123h-496zM138 322v124h360v-124h-360z" />
<glyph unicode="&#x39f;" horiz-adv-x="770" d="M54 373q0 178 91 279.5t240 101.5t240 -102t91 -279q0 -178 -91 -282.5t-240 -104.5t-240 104.5t-91 282.5zM205 373q0 -119 49 -189t131 -70t131 70t49 189t-48.5 186.5t-131.5 67.5t-131.5 -67.5t-48.5 -186.5z" />
<glyph unicode="&#x3a0;" horiz-adv-x="746" d="M91 0v740h564v-740h-147v617h-269v-617h-148z" />
<glyph unicode="&#x3a1;" horiz-adv-x="667" d="M91 0v740h243q290 0 290 -232q0 -121 -79.5 -183t-206.5 -62h-99v-263h-148zM239 380h89q151 0 151 128q0 62 -38.5 88.5t-117.5 26.5h-84v-243z" />
<glyph unicode="&#x3a3;" horiz-adv-x="620" d="M45 0v89l236 286l-232 277v88h499v-123h-315l196 -239l-200 -254h351v-124h-535z" />
<glyph unicode="&#x3a4;" horiz-adv-x="625" d="M30 617v123h566v-123h-210v-617h-148v617h-208z" />
<glyph unicode="&#x3a5;" horiz-adv-x="581" d="M-6 740h157l74 -180q38 -100 64 -164h4q63 156 66 164l74 180h154l-223 -469v-271h-148v271z" />
<glyph unicode="&#x3a6;" horiz-adv-x="850" d="M54 373q0 131 82.5 207.5t223.5 86.5v99h131v-99q141 -11 222.5 -87t81.5 -207t-82 -209t-222 -88v-101h-131v100q-140 11 -223 89t-83 209zM194 373q0 -77 45 -127t121 -59v368q-77 -9 -121.5 -57.5t-44.5 -124.5zM491 187q75 10 119.5 59.5t44.5 126.5t-44 125t-120 57 v-368z" />
<glyph unicode="&#x3a7;" horiz-adv-x="627" d="M14 0l208 382l-195 358h164l74 -152q9 -18 26.5 -56.5t28.5 -60.5h5q27 68 49 117l70 152h156l-195 -365l208 -375h-164l-83 164q-10 20 -29 60.5t-29 61.5h-4q-31 -74 -54 -122l-79 -164h-157z" />
<glyph unicode="&#x3a8;" horiz-adv-x="837" d="M62 558v182h144v-173q0 -97 35.5 -142t107.5 -52v367h138v-367q72 7 107 52t35 142v173h145v-182q0 -282 -287 -301v-257h-138v257q-287 19 -287 301z" />
<glyph unicode="&#x3a9;" horiz-adv-x="797" d="M51 0v119h131v4q-48 49 -81.5 120.5t-33.5 160.5q0 155 91 252.5t240 97.5t240.5 -97.5t91.5 -252.5q0 -89 -33.5 -160.5t-81.5 -120.5v-4h131v-119h-292v107q124 108 124 283q0 105 -48.5 171t-131.5 66t-131.5 -66t-48.5 -171q0 -174 125 -283v-107h-292z" />
<glyph unicode="&#x3b1;" horiz-adv-x="664" d="M44 275q0 136 72.5 217.5t174.5 81.5q110 0 159 -121h4l20 107h144q-4 -20 -18 -82t-20.5 -94.5t-16 -81t-13.5 -83.5t-4 -61q0 -52 55 -52q19 0 37 7l18 -109q-34 -18 -91 -18q-115 0 -135 99h-4q-58 -99 -160 -99q-101 0 -161.5 77t-60.5 212zM194 277q0 -84 28 -127 t78 -43q42 0 77 40t39 95l7 99q-35 112 -111 112q-48 0 -83 -45.5t-35 -130.5z" />
<glyph unicode="&#x3b2;" horiz-adv-x="670" d="M78 -201v737q0 124 63.5 200t188.5 76q99 0 167.5 -52.5t68.5 -151.5q0 -111 -99 -174v-5q70 -13 115 -69t45 -136q0 -113 -66.5 -175.5t-156.5 -62.5q-115 0 -189 79q3 -52 6.5 -143.5t4.5 -122.5h-148zM215 180q57 -73 148 -73q51 0 85.5 33.5t34.5 93.5 q0 53 -30.5 86.5t-87.5 33.5q-23 0 -49 -7l-19 108q128 22 128 140q0 48 -27.5 74.5t-66.5 26.5q-53 0 -81 -44.5t-30 -126.5q-5 -144 -5 -345z" />
<glyph unicode="&#x3b3;" horiz-adv-x="589" d="M1 540l149 34q42 -63 86.5 -175.5t72.5 -231.5h5q96 189 109 393h146q-25 -151 -70.5 -268.5t-147.5 -279.5q14 -88 14 -213h-152q7 56 7 150q0 115 -65.5 292t-153.5 299z" />
<glyph unicode="&#x3b4;" horiz-adv-x="616" d="M49 243q0 86 51 147t132 94q-127 92 -127 194q0 57 51.5 95.5t148.5 38.5q110 0 245 -45l-33 -110q-129 45 -213 45q-62 0 -62 -37q0 -13 7.5 -26t25.5 -29t32.5 -27t46 -33t48.5 -34q84 -61 125.5 -119.5t41.5 -144.5q0 -120 -70 -193t-191 -73q-108 0 -183.5 70 t-75.5 187zM189 245q0 -64 35.5 -101.5t87.5 -37.5q54 0 84.5 37t30.5 109q0 87 -97 163q-66 -17 -103.5 -60t-37.5 -110z" />
<glyph unicode="&#x3b5;" horiz-adv-x="528" d="M44 158q0 105 111 134v5q-41 14 -63.5 47.5t-22.5 71.5q0 77 67 117.5t166 40.5q102 0 190 -59l-55 -95q-58 40 -128 40q-43 0 -69.5 -17t-26.5 -47q0 -60 92 -60q11 0 76 5v-107q-80 5 -94 5q-99 0 -99 -67q0 -34 32.5 -53.5t93.5 -19.5q72 0 132 47l59 -93 q-91 -67 -206 -67q-111 0 -183 45.5t-72 126.5z" />
<glyph unicode="&#x3b6;" horiz-adv-x="515" d="M49 257q0 103 79.5 223t199.5 211q-15 -1 -66.5 -2t-99 -2.5t-78.5 -4.5v116h406v-116h-6q-111 -69 -198 -196.5t-87 -220.5q0 -75 32.5 -109.5t110.5 -49.5q85 -17 121 -48t36 -92q0 -32 -17 -80t-50 -97l-115 39q21 28 30 40.5t16 28.5t7 30q0 24 -22 36.5t-91 27.5 q-44 10 -78 26t-65 45.5t-48 78.5t-17 116z" />
<glyph unicode="&#x3b7;" horiz-adv-x="631" d="M68 560h131l10 -103h4q85 117 184 117q161 0 161 -225v-550h-148q10 354 10 532q0 65 -16 91t-56 26q-34 0 -61.5 -21.5t-61.5 -71.5v-355h-146v393q0 92 -11 167z" />
<glyph unicode="&#x3b8;" horiz-adv-x="615" d="M58 401q0 202 66.5 306.5t182.5 104.5t182.5 -104.5t66.5 -306.5q0 -205 -66 -310t-183 -105q-116 0 -182.5 105t-66.5 310zM201 353q8 -247 106 -247q47 0 74.5 55.5t31.5 191.5h-212zM201 452h212q-4 133 -32 187t-74 54q-98 0 -106 -241z" />
<glyph unicode="&#x3b9;" horiz-adv-x="329" d="M79 159v401h148q-1 -35 -5.5 -191t-4.5 -217q0 -25 11 -35.5t34 -10.5q16 0 34 6l18 -108q-40 -18 -90 -18q-79 0 -112 44.5t-33 128.5z" />
<glyph unicode="&#x3ba;" horiz-adv-x="603" d="M67 560h144q11 -43 11 -137v-123h4q153 245 321 274l11 -138q-81 -19 -173 -104q43 -84 105 -176.5t119 -155.5l-165 -12q-75 94 -153 247l-20 -23q-54 -58 -54 -180v-32h-138v393q0 99 -12 167z" />
<glyph unicode="&#x3bb;" horiz-adv-x="608" d="M16 0l241 565l-4 17q-13 52 -42 79.5t-68 27.5q-37 0 -78 -19l-33 119q56 23 128 23q92 0 148 -56.5t93 -180.5l202 -575h-157l-121 401h-5l-146 -413z" />
<glyph unicode="&#x3bc;" horiz-adv-x="664" d="M79 -201v761h146v-331q0 -62 18.5 -89.5t59.5 -27.5q33 0 59 18.5t51 64.5v365h148q-1 -35 -5.5 -191t-4.5 -217q0 -46 48 -46q17 0 35 6l17 -108q-38 -18 -89 -18q-110 0 -133 98h-3q-47 -93 -130 -93q-54 0 -80 34q1 -113 11 -226h-148z" />
<glyph unicode="&#x3bd;" horiz-adv-x="578" d="M1 540l149 34q46 -76 89.5 -199.5t63.5 -224.5h5q86 194 104 410h146q-26 -153 -73 -282t-135 -278h-140q-51 300 -209 540z" />
<glyph unicode="&#x3be;" horiz-adv-x="521" d="M23 682v116h471v-116h-132q-49 0 -81 -29.5t-32 -79.5q0 -46 32.5 -79.5t77.5 -33.5t81 10v-117q-37 9 -89 9q-63 0 -106.5 -36t-43.5 -94q0 -61 35 -85.5t119 -40.5q87 -17 118.5 -47t31.5 -93q0 -31 -17.5 -79.5t-50.5 -97.5l-115 39q21 28 30 40.5t16 28.5t7 30 q0 24 -23 37t-90 27q-100 20 -156 70t-56 149q0 72 46 129.5t113 79.5v4q-50 20 -78.5 60.5t-28.5 93.5q0 76 60 114q-80 -3 -139 -9z" />
<glyph unicode="&#x3bf;" horiz-adv-x="622" d="M44 279q0 135 78 215t189 80t189 -80t78 -215q0 -134 -78 -213.5t-189 -79.5t-189 79.5t-78 213.5zM194 279q0 -81 30 -127t87 -46t86.5 46t29.5 127q0 82 -29.5 128.5t-86.5 46.5t-87 -46.5t-30 -128.5z" />
<glyph unicode="&#x3c0;" horiz-adv-x="705" d="M21 443v110l83 7h575v-117h-108q-7 -106 -7 -286q0 -28 12 -39.5t39 -11.5q8 0 42 4l18 -108q-42 -16 -95 -16q-154 0 -154 178q0 18 2 121.5t3 157.5h-149q0 -163 -29 -451l-148 8q40 227 40 443h-124z" />
<glyph unicode="&#x3c1;" horiz-adv-x="639" d="M74 -201v474q0 148 72.5 224.5t189.5 76.5q121 0 188.5 -75.5t67.5 -209.5q0 -138 -69 -220.5t-163 -82.5q-91 0 -148 68q9 -197 10 -255h-148zM213 160q47 -53 114 -53q50 0 82.5 46.5t32.5 133.5q0 166 -111 166q-52 0 -85 -46t-33 -124v-123z" />
<glyph unicode="&#x3c3;" horiz-adv-x="642" d="M44 274q0 137 78 211.5t190 74.5h317v-122q-82 9 -165 12v-5q45 -25 70 -75.5t25 -118.5q0 -122 -71 -193.5t-183 -71.5t-186.5 76.5t-74.5 211.5zM194 274q0 -79 30.5 -123.5t82.5 -44.5q51 0 81.5 42.5t30.5 116.5t-30 124.5t-82 50.5q-53 0 -83 -41t-30 -125z" />
<glyph unicode="&#x3c4;" horiz-adv-x="548" d="M30 444v109l82 7h407v-116h-175q-5 -131 -5 -287q0 -51 44 -51q29 0 61 8l19 -110q-58 -18 -117 -18q-78 0 -111.5 45.5t-33.5 132.5v280h-171z" />
<glyph unicode="&#x3c5;" horiz-adv-x="596" d="M53 560h142q11 -48 11 -137q0 -22 -3.5 -98.5t-3.5 -115.5q0 -51 26 -77t67 -26q105 0 105 177q0 123 -40 258l142 33q45 -149 45 -284q0 -144 -66 -224t-186 -80q-115 0 -173 62t-58 173q0 28 2 85.5t2 86.5q0 100 -12 167z" />
<glyph unicode="&#x3c6;" horiz-adv-x="819" d="M44 280q0 129 87 206t211 83v141h135v-141q124 -6 211 -83t87 -206t-87.5 -206.5t-210.5 -83.5v-191h-135v192q-124 6 -211 83t-87 206zM194 280q0 -81 41 -128.5t107 -50.5v358q-66 -3 -107 -50t-41 -129zM477 101q66 3 107 50.5t41 128.5q0 83 -40 129.5t-108 49.5 v-358z" />
<glyph unicode="&#x3c7;" horiz-adv-x="583" d="M10 -201l215 388l-215 353l145 34l141 -258h4l111 244h153l-194 -370l227 -372l-145 -32l-152 283h-4l-135 -283z" />
<glyph unicode="&#x3c8;" horiz-adv-x="833" d="M55 560h142q10 -49 10 -137q0 -25 -1 -88t-1 -82q0 -67 34 -108.5t108 -42.5v608h135v-608q75 2 112 50.5t37 155.5q0 108 -39 233l142 33q44 -135 44 -260q0 -156 -76 -240.5t-220 -87.5v-187h-135v187q-145 3 -213 79t-68 199v129q0 100 -11 167z" />
<glyph unicode="&#x3c9;" horiz-adv-x="833" d="M49 279q0 72 25 151t66 144l137 -54q-89 -142 -89 -269q0 -68 21 -106.5t59 -38.5q81 0 81 113q0 58 -13 150h156q-12 -110 -12 -150q0 -113 76 -113q36 0 58 43.5t22 124.5q0 73 -16.5 127t-59.5 122l134 51q89 -141 89 -291q0 -143 -54 -220t-153 -77q-118 0 -159 105 h-4q-43 -105 -152 -105q-98 0 -155 76t-57 217z" />
<glyph unicode="&#x401;" horiz-adv-x="615" d="M91 0v740h454v-123h-306v-171h260v-124h-260v-198h317v-124h-465zM130 872q0 31 20.5 51.5t52.5 20.5q31 0 52 -20.5t21 -51.5q0 -32 -21 -52.5t-52 -20.5q-32 0 -52.5 20.5t-20.5 52.5zM377 872q0 31 20.5 51.5t52.5 20.5q31 0 51.5 -20.5t20.5 -51.5q0 -32 -20.5 -52.5 t-51.5 -20.5q-32 0 -52.5 20.5t-20.5 52.5z" />
<glyph unicode="&#x410;" horiz-adv-x="641" d="M-4 0l237 740h174l238 -740h-155l-52 190h-240l-52 -190h-150zM230 305h176l-22 81q-13 44 -35.5 130.5t-29.5 111.5h-4q-28 -120 -63 -242z" />
<glyph unicode="&#x411;" horiz-adv-x="675" d="M91 0v740h493v-123h-345v-171h113q127 0 203.5 -51t76.5 -163q0 -118 -75 -175t-201 -57h-265zM239 114h100q149 0 149 116q0 56 -37.5 81t-112.5 25h-99v-222z" />
<glyph unicode="&#x412;" horiz-adv-x="681" d="M91 0v740h245q268 0 268 -182q0 -53 -27.5 -98.5t-73.5 -61.5v-5q63 -15 101 -59t38 -116q0 -107 -79 -162.5t-208 -55.5h-264zM239 114h103q156 0 156 113q0 102 -156 102h-103v-215zM239 439h86q135 0 135 97q0 48 -32.5 69.5t-100.5 21.5h-88v-188z" />
<glyph unicode="&#x413;" horiz-adv-x="584" d="M91 0v740h456v-123h-308v-617h-148z" />
<glyph unicode="&#x414;" horiz-adv-x="750" d="M19 32v92h34q59 22 105 259q21 113 63 357h422v-616h88v-92l-13 -245h-131v213h-424v-213h-131zM211 124h285v493h-162q-6 -36 -14 -83.5t-14.5 -87t-14.5 -83.5q-31 -159 -80 -239z" />
<glyph unicode="&#x415;" horiz-adv-x="615" d="M91 0v740h454v-123h-306v-171h260v-124h-260v-198h317v-124h-465z" />
<glyph unicode="&#x416;" horiz-adv-x="965" d="M3 0l218 392l-68 150q-21 43 -40 58.5t-46 15.5q-16 0 -31 -5l-24 134q19 9 55 9q63 0 107 -29.5t81 -104.5l82 -176h75v296h140v-296h75l83 176q37 75 81 104.5t107 29.5q36 0 55 -9l-24 -134q-14 5 -31 5q-27 0 -46.5 -15.5t-39.5 -58.5l-68 -150l218 -392h-159 l-166 325h-85v-325h-140v325h-84l-165 -325h-160z" />
<glyph unicode="&#x417;" horiz-adv-x="637" d="M42 90l78 101q83 -77 191 -77q63 0 102.5 29.5t39.5 82.5q0 103 -153 103h-94v110h72q139 0 139 96q0 46 -31.5 69t-84.5 23q-83 0 -158 -61l-75 98q99 90 238 90q121 0 188 -52t67 -144q0 -56 -25.5 -98.5t-72.5 -63.5v-5q60 -14 97.5 -61t37.5 -114q0 -108 -80 -169 t-205 -61q-163 0 -271 104z" />
<glyph unicode="&#x418;" horiz-adv-x="761" d="M91 0v740h146v-295q0 -50 -19 -259h5l75 159l216 395h156v-740h-146v297q0 68 19 258h-5l-75 -158l-216 -397h-156z" />
<glyph unicode="&#x419;" horiz-adv-x="761" d="M91 0v740h146v-295q0 -50 -19 -259h5l75 159l216 395h156v-740h-146v297q0 68 19 258h-5l-75 -158l-216 -397h-156zM192 956h124q5 -80 69 -80q66 0 69 80h124q-9 -154 -193 -154q-186 0 -193 154z" />
<glyph unicode="&#x41a;" horiz-adv-x="693" d="M91 0v740h148v-296h94l98 176q43 75 85.5 104.5t103.5 29.5q36 0 55 -9l-25 -134q-14 5 -30 5q-26 0 -44 -15t-43 -59l-84 -148l244 -394h-155l-205 325h-94v-325h-148z" />
<glyph unicode="&#x41b;" horiz-adv-x="737" d="M-8 -3l27 133q17 -5 32 -5q32 0 53.5 34.5t45.5 147.5q12 60 81 433h415v-740h-147v617h-154q-31 -176 -59 -325q-34 -177 -81 -241.5t-133 -64.5q-50 0 -80 11z" />
<glyph unicode="&#x41c;" horiz-adv-x="854" d="M91 0v740h164l126 -346q3 -9 45 -143h5q7 22 21.5 70t23.5 73l123 346h164v-740h-135v309q0 63 18 243h-4l-60 -174l-114 -311h-85l-115 311l-59 174h-4q19 -190 19 -243v-309h-133z" />
<glyph unicode="&#x41d;" horiz-adv-x="757" d="M91 0v740h148v-291h280v291h147v-740h-147v320h-280v-320h-148z" />
<glyph unicode="&#x41e;" horiz-adv-x="770" d="M54 373q0 178 91 279.5t240 101.5t240 -102t91 -279q0 -178 -91 -282.5t-240 -104.5t-240 104.5t-91 282.5zM205 373q0 -119 49 -189t131 -70t131 70t49 189t-48.5 186.5t-131.5 67.5t-131.5 -67.5t-48.5 -186.5z" />
<glyph unicode="&#x41f;" horiz-adv-x="746" d="M91 0v740h564v-740h-147v617h-269v-617h-148z" />
<glyph unicode="&#x420;" horiz-adv-x="667" d="M91 0v740h243q290 0 290 -232q0 -121 -79.5 -183t-206.5 -62h-99v-263h-148zM239 380h89q151 0 151 128q0 62 -38.5 88.5t-117.5 26.5h-84v-243z" />
<glyph unicode="&#x421;" horiz-adv-x="657" d="M54 367q0 177 99 282t245 105q126 0 217 -95l-78 -94q-64 62 -136 62q-86 0 -141 -69t-55 -186q0 -120 52.5 -189t140.5 -69q85 0 153 73l78 -92q-94 -109 -236 -109q-146 0 -242.5 101t-96.5 280z" />
<glyph unicode="&#x422;" horiz-adv-x="625" d="M30 617v123h566v-123h-210v-617h-148v617h-208z" />
<glyph unicode="&#x423;" horiz-adv-x="616" d="M3 740h155l101 -246l60 -169h5l57 169l92 246h148l-233 -581q-34 -85 -85.5 -129t-130.5 -44q-50 0 -89 14l28 128q26 -8 53 -8q55 0 78 41l12 28z" />
<glyph unicode="&#x424;" horiz-adv-x="856" d="M52 373q0 132 82 203t230 78v100h128v-100q149 -7 231 -78t82 -203t-82.5 -204.5t-230.5 -80.5v-102h-128v102q-148 8 -230 80.5t-82 204.5zM190 373q0 -81 45.5 -125.5t128.5 -49.5v347q-83 -5 -128.5 -48t-45.5 -124zM492 198q83 5 129 49.5t46 125.5t-45.5 124 t-129.5 48v-347z" />
<glyph unicode="&#x425;" horiz-adv-x="627" d="M14 0l208 382l-195 358h164l74 -152q9 -18 26.5 -56.5t28.5 -60.5h5q27 68 49 117l70 152h156l-195 -365l208 -375h-164l-83 164q-10 20 -29 60.5t-29 61.5h-4q-31 -74 -54 -122l-79 -164h-157z" />
<glyph unicode="&#x426;" horiz-adv-x="751" d="M91 0v740h148v-616h258v616h147v-616h88v-92l-13 -245h-131v213h-497z" />
<glyph unicode="&#x427;" horiz-adv-x="704" d="M71 562v178h144v-178q0 -79 35.5 -111.5t112.5 -32.5q53 0 103 8v314h147v-740h-147v309q-51 -9 -118 -9q-136 0 -206.5 61.5t-70.5 200.5z" />
<glyph unicode="&#x428;" horiz-adv-x="1019" d="M91 0v740h144v-616h204v616h141v-616h203v616h144v-740h-836z" />
<glyph unicode="&#x429;" horiz-adv-x="1034" d="M91 0v740h144v-616h204v616h141v-616h203v616h144v-616h89v-92l-13 -245h-132v213h-780z" />
<glyph unicode="&#x42a;" horiz-adv-x="825" d="M30 617v123h370v-278h91q127 0 208.5 -56.5t81.5 -166.5q0 -124 -77 -181.5t-207 -57.5h-245v617h-222zM400 117h87q150 0 150 119q0 108 -156 108h-81v-227z" />
<glyph unicode="&#x42b;" horiz-adv-x="950" d="M91 0v740h148v-278h84q132 0 209 -55t77 -168q0 -124 -77.5 -181.5t-210.5 -57.5h-230zM239 117h72q153 0 153 119q0 108 -155 108h-70v-227zM712 0v740h147v-740h-147z" />
<glyph unicode="&#x42c;" horiz-adv-x="675" d="M91 0v740h148v-278h106q132 0 209 -55t77 -168q0 -124 -77.5 -181.5t-210.5 -57.5h-252zM239 117h94q154 0 154 119q0 108 -155 108h-93v-227z" />
<glyph unicode="&#x42d;" horiz-adv-x="657" d="M28 95l78 92q73 -73 164 -73q166 0 185 208h-273v124h270q-25 181 -185 181q-78 0 -148 -62l-78 94q43 41 104.5 68t129.5 27q147 0 237.5 -99.5t90.5 -287.5q0 -186 -92.5 -283.5t-237.5 -97.5t-245 109z" />
<glyph unicode="&#x42e;" horiz-adv-x="1065" d="M91 0v740h148v-291h139q18 145 100 225t212 80q147 0 233.5 -101.5t86.5 -279.5q0 -179 -87 -283t-233 -104q-134 0 -217.5 89t-96.5 245h-137v-320h-148zM520 373q0 -120 45 -189.5t125 -69.5t124.5 69.5t44.5 189.5t-44 187t-125 67t-125.5 -67t-44.5 -187z" />
<glyph unicode="&#x42f;" horiz-adv-x="688" d="M16 0l195 300q-149 54 -149 216q0 224 278 224h258v-740h-148v280h-97l-168 -280h-169zM207 516q0 -119 147 -119h96v226h-96q-75 0 -111 -24.5t-36 -82.5z" />
<glyph unicode="&#x430;" horiz-adv-x="591" d="M51 152q0 90 76.5 139.5t245.5 67.5q-4 97 -95 97q-62 0 -154 -53l-53 97q119 74 234 74q106 0 160.5 -62.5t54.5 -184.5v-327h-120l-11 60h-3q-86 -74 -169 -74q-74 0 -120 47t-46 119zM191 164q0 -63 74 -63q53 0 108 55v113q-182 -24 -182 -105z" />
<glyph unicode="&#x431;" horiz-adv-x="631" d="M51 347q0 102 17.5 177t46 122t75.5 78.5t96 46t118 24.5q81 11 129 33l28 -128q-35 -28 -127 -41q-35 -5 -52 -7.5t-42.5 -7.5t-37.5 -10t-29.5 -13t-25.5 -17.5t-18.5 -23.5t-15.5 -32t-9.5 -40t-7.5 -51q65 77 169 77q95 0 156.5 -69t61.5 -191q0 -129 -73.5 -208.5 t-184.5 -79.5q-131 0 -202.5 94.5t-71.5 266.5zM191 313q0 -102 34 -154.5t98 -52.5q51 0 80 45t29 123q0 151 -110 151q-76 0 -131 -79v-33z" />
<glyph unicode="&#x432;" horiz-adv-x="593" d="M79 0v560h232q220 0 220 -146q0 -41 -24 -72.5t-70 -44.5v-5q116 -27 116 -131q0 -81 -63.5 -121t-166.5 -40h-244zM222 99h92q96 0 96 71q0 31 -25 50t-74 19h-89v-140zM222 336h77q91 0 91 62q0 63 -89 63h-79v-125z" />
<glyph unicode="&#x433;" horiz-adv-x="483" d="M79 0v560h375v-116h-229v-444h-146z" />
<glyph unicode="&#x434;" horiz-adv-x="647" d="M15 20v96h33q24 13 39.5 56.5t29.5 157.5l27 230h399v-444h87v-96l-14 -215h-126v195h-334v-195h-126zM194 116h202v328h-136l-16 -146q-13 -114 -50 -182z" />
<glyph unicode="&#x435;" horiz-adv-x="581" d="M44 279q0 131 78 213t183 82q112 0 173 -74t61 -194q0 -44 -7 -67h-345q9 -68 50 -104t105 -36t126 39l50 -90q-90 -62 -196 -62q-120 0 -199 79t-79 214zM185 336h228q0 59 -26.5 91.5t-79.5 32.5q-46 0 -80 -32.5t-42 -91.5z" />
<glyph unicode="&#x436;" horiz-adv-x="839" d="M10 0l177 290l-35 82q-15 36 -32.5 49t-41.5 13q-6 0 -20 -4l-24 136q21 8 42 8q59 0 99 -26.5t70 -92.5l49 -108h60v213h130v-213h59l51 108q30 66 69.5 92.5t98.5 26.5q23 0 42 -8l-23 -136q-14 4 -21 4q-23 0 -40.5 -13t-32.5 -49l-35 -81l177 -291h-157l-124 231h-64 v-231h-130v231h-63l-124 -231h-157z" />
<glyph unicode="&#x437;" horiz-adv-x="534" d="M34 54l58 93q66 -48 144 -48q49 0 81.5 20t32.5 53q0 67 -102 67h-86v97h75q93 0 93 64q0 60 -91 60q-77 0 -138 -40l-56 94q88 60 203 60q95 0 159.5 -40.5t64.5 -117.5q0 -38 -23 -71.5t-67 -47.5v-5q112 -28 112 -134q0 -79 -72.5 -125.5t-171.5 -46.5q-125 0 -216 68 z" />
<glyph unicode="&#x438;" horiz-adv-x="655" d="M79 0v560h142v-177q0 -21 -13 -200h4q64 111 67 117l164 260h134v-560h-142v176q0 49 13 201h-4q-50 -87 -67 -118l-164 -259h-134z" />
<glyph unicode="&#x439;" horiz-adv-x="655" d="M79 0v560h142v-177q0 -21 -13 -200h4q64 111 67 117l164 260h134v-560h-142v176q0 49 13 201h-4q-50 -87 -67 -118l-164 -259h-134zM142 832h115q2 -51 19 -77t57 -26t56.5 26t18.5 77h115q-2 -84 -49 -133t-141 -49q-93 0 -140.5 49t-50.5 133z" />
<glyph unicode="&#x43a;" horiz-adv-x="605" d="M79 0v560h146v-213h71l51 108q31 69 70 94t99 25q23 0 42 -8l-24 -136q-12 4 -20 4q-24 0 -41 -12.5t-33 -49.5l-34 -77l189 -295h-160l-136 231h-74v-231h-146z" />
<glyph unicode="&#x43b;" horiz-adv-x="637" d="M8 -2l25 132q20 -5 27 -5q52 0 65 94q1 12 39 341h395v-560h-147v444h-132q-21 -184 -33 -265q-26 -193 -177 -193q-34 0 -62 12z" />
<glyph unicode="&#x43c;" horiz-adv-x="740" d="M79 0v560h167l82 -211q5 -15 20 -59.5t22 -68.5h5q37 109 43 128l77 211h167v-560h-131v173q0 63 16 228h-5q-9 -27 -28.5 -79t-25.5 -71l-76 -201h-83l-78 201q-8 23 -27 75t-27 75h-5q16 -198 16 -228v-173h-129z" />
<glyph unicode="&#x43d;" horiz-adv-x="654" d="M79 0v560h146v-209h204v209h147v-560h-147v223h-204v-223h-146z" />
<glyph unicode="&#x43e;" horiz-adv-x="626" d="M44 279q0 135 79 215t190 80t190 -80t79 -215q0 -133 -79.5 -213t-189.5 -80t-189.5 80t-79.5 213zM194 279q0 -80 31.5 -126.5t87.5 -46.5t87.5 46.5t31.5 126.5q0 81 -31.5 128t-87.5 47t-87.5 -47t-31.5 -128z" />
<glyph unicode="&#x43f;" horiz-adv-x="645" d="M79 0v560h487v-560h-147v444h-194v-444h-146z" />
<glyph unicode="&#x440;" horiz-adv-x="644" d="M79 -215v775h120l10 -58h4q85 72 165 72q103 0 161.5 -77.5t58.5 -207.5q0 -138 -70.5 -220.5t-167.5 -82.5q-72 0 -139 61l4 -92v-170h-146zM225 149q49 -42 102 -42q54 0 87 46t33 134q0 166 -111 166q-53 0 -111 -58v-246z" />
<glyph unicode="&#x441;" horiz-adv-x="527" d="M44 279q0 135 83.5 215t202.5 80q90 0 163 -62l-70 -95q-43 37 -86 37q-64 0 -103.5 -48t-39.5 -127q0 -78 39 -125.5t100 -47.5q55 0 109 45l58 -97q-77 -68 -183 -68q-119 0 -196 79t-77 214z" />
<glyph unicode="&#x442;" horiz-adv-x="548" d="M30 444v116h489v-116h-172v-444h-146v444h-171z" />
<glyph unicode="&#x443;" horiz-adv-x="574" d="M14 560h148l89 -260q1 -4 47 -158h5q6 26 19.5 79t20.5 79l77 260h141l-199 -577q-39 -106 -92 -157t-142 -51q-42 0 -77 11l27 113q23 -7 39 -7q77 0 105 85l10 33z" />
<glyph unicode="&#x444;" horiz-adv-x="869" d="M47 279q0 132 63.5 213.5t150.5 81.5q55 0 107 -34l-5 82v176h143v-176l-5 -86q62 38 117 38q95 0 150 -77.5t55 -207.5q0 -138 -64 -220.5t-154 -82.5q-53 0 -104 34l5 -82v-153h-143v153l5 84q-57 -36 -107 -36q-98 0 -156 78.5t-58 214.5zM198 281q0 -174 100 -174 q41 0 70 29v291q-31 26 -74 26q-42 0 -69 -45.5t-27 -126.5zM501 133q31 -26 71 -26q45 0 72.5 46t27.5 134q0 166 -96 166q-39 0 -75 -28v-292z" />
<glyph unicode="&#x445;" horiz-adv-x="562" d="M16 0l175 292l-164 268h158l56 -100q25 -48 50 -94h4q7 15 20.5 47t20.5 47l47 100h152l-164 -285l175 -275h-158l-62 102q-6 11 -17 31.5t-20 37t-17 30.5h-5q-7 -14 -47 -99l-52 -102h-152z" />
<glyph unicode="&#x446;" horiz-adv-x="662" d="M79 0v560h146v-444h188v444h147v-444h87v-96l-14 -215h-126v195h-428z" />
<glyph unicode="&#x447;" horiz-adv-x="612" d="M58 400v160h147v-160q0 -49 26.5 -72t84.5 -23q36 0 70 9v246h147v-560h-147v199q-48 -9 -101 -9q-227 0 -227 210z" />
<glyph unicode="&#x448;" horiz-adv-x="895" d="M79 0v560h145v-444h153v444h140v-444h153v444h146v-560h-737z" />
<glyph unicode="&#x449;" horiz-adv-x="918" d="M79 0v560h145v-444h153v444h140v-444h153v444h146v-444h86v-96l-13 -215h-126v195h-684z" />
<glyph unicode="&#x44a;" horiz-adv-x="699" d="M30 444v116h322v-187h69q109 0 172 -44t63 -140q0 -189 -235 -189h-215v444h-176zM352 112h61q102 0 102 78q0 75 -102 75h-61v-153z" />
<glyph unicode="&#x44b;" horiz-adv-x="819" d="M79 0v560h146v-187h52q108 0 171.5 -44t63.5 -140q0 -99 -63.5 -144t-171.5 -45h-198zM225 112h43q103 0 103 78q0 75 -103 75h-43v-153zM593 0v560h147v-560h-147z" />
<glyph unicode="&#x44c;" horiz-adv-x="578" d="M79 0v560h146v-187h75q109 0 172 -44t63 -140q0 -189 -235 -189h-221zM225 112h67q102 0 102 78q0 75 -102 75h-67v-153z" />
<glyph unicode="&#x44d;" horiz-adv-x="527" d="M25 54l55 87q49 -42 115 -42q131 0 148 140h-209v97h207q-21 124 -139 124q-57 0 -104 -37l-64 85q70 66 177 66q119 0 195.5 -76t76.5 -219q0 -142 -75.5 -217.5t-197.5 -75.5q-114 0 -185 68z" />
<glyph unicode="&#x44e;" horiz-adv-x="868" d="M79 0v560h146v-211h97q18 105 86 165t165 60q108 0 180 -79.5t72 -215.5q0 -135 -72 -214t-180 -79q-100 0 -168.5 63t-84.5 172h-95v-221h-146zM453 279q0 -79 30 -126t82 -47q53 0 81 46.5t28 126.5q0 81 -28 128t-81 47q-52 0 -82 -47.5t-30 -127.5z" />
<glyph unicode="&#x44f;" horiz-adv-x="608" d="M22 0l155 220q-105 49 -105 159q0 181 230 181h228v-560h-147v192h-75l-122 -192h-164zM217 375q0 -38 27 -59.5t77 -21.5h62v157h-62q-104 0 -104 -76z" />
<glyph unicode="&#x451;" horiz-adv-x="581" d="M44 279q0 131 78 213t183 82q112 0 173 -74t61 -194q0 -44 -7 -67h-345q9 -68 50 -104t105 -36t126 39l50 -90q-90 -62 -196 -62q-120 0 -199 79t-79 214zM110 725q0 32 21.5 53.5t53.5 21.5t53 -21.5t21 -53.5q0 -31 -21 -52.5t-53 -21.5t-53.5 21.5t-21.5 52.5z M185 336h228q0 59 -26.5 91.5t-79.5 32.5q-46 0 -80 -32.5t-42 -91.5zM350 725q0 32 21 53.5t53 21.5q33 0 54 -21.5t21 -53.5q0 -31 -21 -52.5t-54 -21.5q-32 0 -53 21.5t-21 52.5z" />
<glyph unicode="&#x2000;" horiz-adv-x="489" />
<glyph unicode="&#x2001;" horiz-adv-x="978" />
<glyph unicode="&#x2002;" horiz-adv-x="489" />
<glyph unicode="&#x2003;" horiz-adv-x="978" />
<glyph unicode="&#x2004;" horiz-adv-x="326" />
<glyph unicode="&#x2005;" horiz-adv-x="244" />
<glyph unicode="&#x2006;" horiz-adv-x="163" />
<glyph unicode="&#x2007;" horiz-adv-x="163" />
<glyph unicode="&#x2008;" horiz-adv-x="122" />
<glyph unicode="&#x2009;" horiz-adv-x="195" />
<glyph unicode="&#x200a;" horiz-adv-x="54" />
<glyph unicode="&#x2010;" d="M375 357v46h250v-46h-250z" />
<glyph unicode="&#x2011;" horiz-adv-x="370" d="M49 234v105h273v-105h-273z" />
<glyph unicode="&#x2012;" horiz-adv-x="370" d="M49 234v105h273v-105h-273z" />
<glyph unicode="&#x2013;" horiz-adv-x="597" d="M49 234v105h500v-105h-500z" />
<glyph unicode="&#x2014;" horiz-adv-x="1097" d="M49 234v105h1000v-105h-1000z" />
<glyph unicode="&#x2015;" d="M74 357v46h852v-46h-852z" />
<glyph unicode="&#x2018;" horiz-adv-x="325" d="M63 547q0 154 150 232l34 -65q-97 -53 -98 -142q4 1 11 1q33 0 56.5 -21t23.5 -56q0 -38 -22.5 -61t-57.5 -23q-47 0 -72 35t-25 100z" />
<glyph unicode="&#x2019;" horiz-adv-x="325" d="M78 488q49 28 72.5 61.5t24.5 81.5q-3 -1 -10 -1q-33 0 -56.5 21t-23.5 56q0 38 22 61t58 23q47 0 72 -35.5t25 -100.5q0 -155 -151 -231z" />
<glyph unicode="&#x201c;" horiz-adv-x="575" d="M63 547q0 154 150 232l34 -65q-97 -53 -98 -142q4 1 11 1q33 0 56.5 -21t23.5 -56q0 -38 -22.5 -61t-57.5 -23q-47 0 -72 35t-25 100zM313 547q0 154 150 232l34 -65q-97 -53 -98 -142q4 1 11 1q33 0 56.5 -21t23.5 -56q0 -38 -22.5 -61t-57.5 -23q-47 0 -72 35t-25 100z " />
<glyph unicode="&#x201d;" horiz-adv-x="575" d="M78 488q49 28 72.5 61.5t24.5 81.5q-3 -1 -10 -1q-33 0 -56.5 21t-23.5 56q0 38 22 61t58 23q47 0 72 -35.5t25 -100.5q0 -155 -151 -231zM328 488q49 28 72.5 61.5t24.5 81.5q-3 -1 -10 -1q-33 0 -56.5 21t-23.5 56q0 38 22 61t58 23q47 0 72 -35.5t25 -100.5 q0 -155 -151 -231z" />
<glyph unicode="&#x2020;" d="M252 432v117l192 -10l-11 233h134l-11 -233l192 10v-117l-192 10l11 -499h-134l11 499z" />
<glyph unicode="&#x2021;" d="M252 154v117l192 -10v196l-192 -10v117l192 -9l-11 217h134l-11 -217l192 9v-117l-192 10l1 -196l191 10v-117l-192 10l11 -221h-134l11 221z" />
<glyph unicode="&#x2025;" d="M169 380q0 34 23.5 57.5t57.5 23.5t57.5 -23.5t23.5 -57.5t-23.5 -57.5t-57.5 -23.5t-57.5 23.5t-23.5 57.5zM669 380q0 34 23.5 57.5t57.5 23.5t57.5 -23.5t23.5 -57.5t-23.5 -57.5t-57.5 -23.5t-57.5 23.5t-23.5 57.5z" />
<glyph unicode="&#x2026;" d="M86 380q0 34 23.5 57.5t57.5 23.5t57.5 -23.5t23.5 -57.5t-23.5 -57.5t-57.5 -23.5t-57.5 23.5t-23.5 57.5zM419 380q0 34 23.5 57.5t57.5 23.5t57.5 -23.5t23.5 -57.5t-23.5 -57.5t-57.5 -23.5t-57.5 23.5t-23.5 57.5zM752 380q0 34 23.5 57.5t57.5 23.5t57.5 -23.5 t23.5 -57.5t-23.5 -57.5t-57.5 -23.5t-57.5 23.5t-23.5 57.5z" />
<glyph unicode="&#x202f;" horiz-adv-x="195" />
<glyph unicode="&#x2030;" d="M30 524q0 97 36 163.5t98 65.5q46 0 75.5 -36t40.5 -84t11 -106q0 -111 -37.5 -169t-90.5 -58q-46 0 -77 34t-43.5 82.5t-12.5 107.5zM113 527q0 -159 49 -159q26 0 36 40t10 116q0 77 -10 119.5t-38 41.5q-47 0 -47 -158zM116 -14l392 769h67l-392 -769h-67zM401 218 q0 98 36 164t98 65q46 0 75.5 -36t40.5 -84t11 -106q0 -111 -37.5 -169t-90.5 -58q-45 0 -76.5 34t-44 83t-12.5 107zM484 221q0 -159 49 -159q27 0 36.5 40.5t9.5 116.5t-10 118.5t-38 41.5q-47 0 -47 -158zM709 218q0 98 36 164t98 65q46 0 75.5 -36t40.5 -84t11 -106 q0 -111 -37.5 -169t-90.5 -58q-45 0 -76.5 34t-44 83t-12.5 107zM792 221q0 -78 10.5 -118.5t38.5 -40.5q27 0 36.5 40.5t9.5 116.5t-10 118.5t-38 41.5q-47 0 -47 -158z" />
<glyph unicode="&#x2032;" horiz-adv-x="325" d="M93 460l23 320l146 -1l-24 -132l-49 -188z" />
<glyph unicode="&#x2033;" horiz-adv-x="575" d="M93 460l23 320l146 -1l-24 -132l-49 -188zM343 460l22 320l147 -1l-24 -132l-49 -188z" />
<glyph unicode="&#x203b;" d="M140 49l331 331l-330 330l29 29l330 -330l330 330l29 -29l-330 -330l330 -330l-29 -29l-330 330l-331 -331zM140 380q0 31 22 53t53 22t53 -22t22 -53t-22 -53t-53 -22t-53 22t-22 53zM425 95q0 31 22 53t53 22t53 -22t22 -53t-22 -53t-53 -22t-53 22t-22 53zM425 665 q0 31 22 53t53 22t53 -22t22 -53t-22 -53t-53 -22t-53 22t-22 53zM710 380q0 31 22 53t53 22t53 -22t22 -53t-22 -53t-53 -22t-53 22t-22 53z" />
<glyph unicode="&#x205f;" horiz-adv-x="244" />
<glyph unicode="&#x2103;" d="M28 621q0 69 46 114t113 45q66 0 112 -45t46 -114t-46 -114t-112 -45q-67 0 -113 45t-46 114zM108 621q0 -38 22 -62t57 -24t57 24t22 62t-22 62t-57 24t-57 -24t-22 -62zM402 367q0 179 99.5 284t247.5 105q125 0 216 -95l-82 -92q-58 58 -132 58q-87 0 -142 -68.5 t-55 -185.5q0 -120 52.5 -189t140.5 -69q83 0 148 70l83 -90q-92 -109 -233 -109q-150 0 -246.5 101t-96.5 280z" />
<glyph unicode="&#x212b;" d="M174 0l229 714q-70 40 -70 122q0 64 45.5 103t118.5 39t118.5 -39t45.5 -103q0 -79 -66 -119l231 -717h-157l-52 190h-239l-52 -190h-152zM410 305h176l-22 82q-13 43 -35 128t-30 113h-5q-38 -159 -62 -241zM423 828q0 -37 20.5 -57.5t53.5 -20.5q32 0 53 21t21 57 q0 34 -21.5 55.5t-52.5 21.5q-32 0 -53 -21.5t-21 -55.5z" />
<glyph unicode="&#x2190;" d="M35 380q69 45 139.5 109t121.5 129l90 -50q-63 -86 -133 -137h707v-102h-707q70 -51 133 -137l-90 -50q-51 65 -121.5 129t-139.5 109z" />
<glyph unicode="&#x2191;" d="M262 584q65 51 129 121.5t109 139.5q45 -69 109 -139.5t129 -121.5l-50 -90q-86 63 -137 133v-707h-102v707q-51 -70 -137 -133z" />
<glyph unicode="&#x2192;" d="M40 329v102h707q-70 51 -133 137l90 50q51 -65 121.5 -129t139.5 -109q-69 -45 -139.5 -109t-121.5 -129l-90 50q63 86 133 137h-707z" />
<glyph unicode="&#x2193;" d="M262 176l50 90q86 -63 137 -133v707h102v-707q51 70 137 133l50 -90q-65 -51 -129 -121.5t-109 -139.5q-45 69 -109 139.5t-129 121.5z" />
<glyph unicode="&#x21d2;" d="M40 190v101h676q49 54 96 88q-47 34 -96 88h-676v101h589q-44 53 -75 107l87 50q60 -98 152.5 -192.5t184.5 -153.5q-92 -59 -184.5 -153.5t-152.5 -192.5l-87 50q31 54 75 107h-589z" />
<glyph unicode="&#x21d4;" d="M22 379q79 59 159 153.5t133 192.5l88 -50q-29 -57 -68 -107h332q-39 50 -68 107l88 50q53 -98 133 -192.5t159 -153.5q-79 -59 -159 -153.5t-133 -192.5l-88 50q29 57 68 107h-332q39 -50 68 -107l-88 -50q-53 98 -133 192.5t-159 153.5zM173 379q41 -33 85 -88h484 q44 55 85 88q-41 33 -85 88h-484q-44 -55 -85 -88z" />
<glyph unicode="&#x2200;" d="M110 725l90 47l121 -232h358l121 232l90 -47l-388 -741h-4zM374 438l124 -239h4l124 239h-252z" />
<glyph unicode="&#x2202;" d="M195 227q0 116 80.5 191.5t184.5 75.5q135 0 214 -110h2q10 47 10 93q0 89 -41.5 138.5t-114.5 49.5q-88 0 -158 -74l-72 86q112 92 246 92q113 0 189 -78.5t76 -217.5q0 -62 -13 -126.5t-42 -129t-70.5 -115t-104.5 -82t-138 -31.5q-118 0 -183 66.5t-65 171.5zM316 234 q0 -61 36 -97.5t93 -36.5q134 0 188 160q-18 65 -62.5 99t-99.5 34q-61 0 -108 -43.5t-47 -115.5z" />
<glyph unicode="&#x2203;" d="M189 11v101h517v217h-517v102h517v215h-517v101h619v-736h-619z" />
<glyph unicode="&#x2207;" d="M140 638v89h720v-89l-269 -651h-182zM304 603l107 -275l83 -225h5l83 225l110 275h-388z" />
<glyph unicode="&#x2208;" d="M121 379q0 137 96 229t237 92h417v-101h-417q-84 0 -145.5 -47t-78.5 -122h641v-102h-641q17 -75 78.5 -122t145.5 -47h417v-101h-417q-141 0 -237 92t-96 229z" />
<glyph unicode="&#x220b;" d="M129 58v101h417q84 0 145.5 47t78.5 122h-641v102h641q-17 75 -78.5 122t-145.5 47h-417v101h417q141 0 237 -92t96 -229t-96 -229t-237 -92h-417z" />
<glyph unicode="&#x221a;" d="M28 112l145 203l97 -248l283 813h447v-47h-413l-322 -925h-32l-109 278l-68 -95z" />
<glyph unicode="&#x221d;" d="M28 379q0 98 64 154t146 56q144 0 262 -132q119 132 262 132q51 0 96 -17l-38 -94q-25 9 -56 9q-107 0 -197 -108q90 -108 197 -108q30 0 56 9l38 -94q-42 -16 -96 -16q-144 0 -262 131q-117 -131 -262 -131q-82 0 -146 55.5t-64 153.5zM130 379q0 -48 30.5 -78t75.5 -30 q106 0 198 108q-92 108 -198 108q-45 0 -75.5 -30t-30.5 -78z" />
<glyph unicode="&#x221e;" d="M28 379q0 98 64 154t146 56q144 0 262 -132q119 132 262 132q82 0 145.5 -56t63.5 -154t-63.5 -153.5t-145.5 -55.5q-144 0 -262 131q-117 -131 -262 -131q-82 0 -146 55.5t-64 153.5zM130 379q0 -48 30.5 -78t75.5 -30q106 0 198 108q-92 108 -198 108q-45 0 -75.5 -30 t-30.5 -78zM567 379q90 -108 197 -108q45 0 75.5 30t30.5 78t-30.5 78t-75.5 30q-107 0 -197 -108z" />
<glyph unicode="&#x2220;" d="M96 29v4l656 659l72 -72l-488 -487v-3h551v-101h-791z" />
<glyph unicode="&#x2225;" d="M190 137l319 636l90 -46l-317 -635zM401 33l317 634l92 -45l-319 -635z" />
<glyph unicode="&#x2227;" d="M110 38l388 740h4l388 -740l-90 -48l-298 573h-4l-298 -573z" />
<glyph unicode="&#x2228;" d="M110 720l90 48l298 -573h4l298 573l90 -48l-388 -740h-4z" />
<glyph unicode="&#x2229;" d="M179 8v417q0 141 92 237t229 96t229 -96t92 -237v-417h-101v417q0 99 -63 165.5t-157 66.5t-157 -66.5t-63 -165.5v-417h-101z" />
<glyph unicode="&#x222a;" d="M179 333v417h101v-417q0 -98 63 -164.5t157 -66.5t157 66.5t63 164.5v417h101v-417q0 -141 -92 -237t-229 -96t-229 96t-92 237z" />
<glyph unicode="&#x222b;" d="M305 -85l11 115q20 -4 41 -4q43 0 62 34.5t19 127.5v407q0 257 193 257q29 0 64 -7l-11 -115q-20 4 -41 4q-43 0 -62 -34.5t-19 -127.5v-407q0 -257 -193 -257q-29 0 -64 7z" />
<glyph unicode="&#x222c;" d="M107 -85l11 115q20 -4 42 -4q42 0 61 34.5t19 127.5v407q0 257 193 257q29 0 64 -7l-11 -115q-20 4 -41 4q-43 0 -61.5 -34t-18.5 -128v-407q0 -257 -194 -257q-29 0 -64 7zM503 -85l11 115q20 -4 41 -4q43 0 61.5 34t18.5 128v407q0 257 194 257q29 0 64 -7l-11 -115 q-20 4 -42 4q-42 0 -61 -34.5t-19 -127.5v-407q0 -257 -193 -257q-29 0 -64 7z" />
<glyph unicode="&#x2234;" d="M169 154q0 35 25.5 61t61.5 26q35 0 61 -26t26 -61q0 -36 -26 -61.5t-61 -25.5q-36 0 -61.5 25.5t-25.5 61.5zM413 604q0 36 25.5 61.5t61.5 25.5t61.5 -25.5t25.5 -61.5q0 -35 -25.5 -61t-61.5 -26t-61.5 26t-25.5 61zM658 154q0 35 25.5 61t60.5 26q36 0 61.5 -26 t25.5 -61q0 -36 -25.5 -61.5t-61.5 -25.5q-35 0 -60.5 25.5t-25.5 61.5z" />
<glyph unicode="&#x2235;" d="M169 604q0 36 25.5 61.5t61.5 25.5q35 0 61 -25.5t26 -61.5q0 -35 -26 -61t-61 -26q-36 0 -61.5 26t-25.5 61zM413 154q0 35 25.5 61t61.5 26t61.5 -26t25.5 -61q0 -36 -25.5 -61.5t-61.5 -25.5t-61.5 25.5t-25.5 61.5zM658 604q0 36 25.5 61.5t60.5 25.5 q36 0 61.5 -25.5t25.5 -61.5q0 -35 -25.5 -61t-61.5 -26q-35 0 -60.5 26t-25.5 61z" />
<glyph unicode="&#x223d;" d="M28 379q0 99 64.5 154.5t149.5 55.5q51 0 96 -17l-38 -94q-26 9 -60 9q-49 0 -79.5 -29t-30.5 -79q0 -48 30.5 -78t75.5 -30q71 0 122.5 37.5t105.5 106.5q64 81 134.5 127.5t163.5 46.5q82 0 145.5 -56t63.5 -154q0 -99 -64 -154t-149 -55q-55 0 -96 16l38 94 q25 -9 60 -9q49 0 79.5 29t30.5 79q0 48 -30.5 78t-75.5 30q-71 0 -122.5 -37.5t-106.5 -107.5q-63 -80 -133 -126t-164 -46q-82 0 -146 55.5t-64 153.5z" />
<glyph unicode="&#x2252;" d="M145 239v86h710v-86h-710zM145 433v86h710v-86h-710zM236 673q0 36 25.5 61.5t61.5 25.5q35 0 60.5 -25.5t25.5 -61.5q0 -35 -25.5 -60.5t-60.5 -25.5q-36 0 -61.5 25.5t-25.5 60.5zM591 85q0 35 25.5 60.5t60.5 25.5q36 0 61.5 -25.5t25.5 -60.5q0 -36 -25.5 -61.5 t-61.5 -25.5q-35 0 -60.5 25.5t-25.5 61.5z" />
<glyph unicode="&#x2260;" d="M145 212v102h277l47 129h-324v101h361l67 186l96 -35l-55 -151h241v-101h-278l-47 -129h325v-102h-362l-66 -184l-96 35l55 149h-241z" />
<glyph unicode="&#x2261;" d="M145 113v94h710v-94h-710zM145 332v94h710v-94h-710zM145 551v94h710v-94h-710z" />
<glyph unicode="&#x2266;" d="M101 565v3l752 284l35 -96l-498 -188v-3l498 -189l-35 -95zM129 42h742v-94h-742v94zM129 135v94h742v-94h-742z" />
<glyph unicode="&#x2267;" d="M112 376l498 189v3l-498 188l35 96l752 -284v-3l-752 -284zM129 42h742v-94h-742v94zM129 135v94h742v-94h-742z" />
<glyph unicode="&#x226a;" d="M32 377v4l555 388l49 -71l-456 -317v-4l456 -317l-49 -71zM363 377v4l555 388l49 -71l-455 -317v-4l455 -317l-49 -71z" />
<glyph unicode="&#x226b;" d="M33 60l455 317v4l-455 317l49 71l555 -388v-4l-555 -388zM364 60l456 317v4l-456 317l49 71l555 -388v-4l-555 -388z" />
<glyph unicode="&#x2282;" d="M121 379q0 137 96 229t237 92h417v-101h-417q-98 0 -164.5 -63t-66.5 -157t66.5 -157t164.5 -63h417v-101h-417q-141 0 -237 92t-96 229z" />
<glyph unicode="&#x2283;" d="M129 58v101h417q99 0 165.5 63t66.5 157t-66.5 157t-165.5 63h-417v101h417q141 0 237 -92t96 -229t-96 -229t-237 -92h-417z" />
<glyph unicode="&#x2286;" d="M121 497q0 114 81 193t204 79h465v-102h-464q-82 0 -133 -49t-51 -121q0 -71 51.5 -120.5t132.5 -49.5h464v-101h-465q-123 0 -204 79t-81 192zM129 -11v102h742v-102h-742z" />
<glyph unicode="&#x2287;" d="M129 -11v102h742v-102h-742zM129 226v101h465q81 0 132.5 49.5t51.5 120.5q0 72 -51.5 121t-132.5 49h-465v102h465q123 0 204 -79t81 -193q0 -113 -81 -192t-204 -79h-465z" />
<glyph unicode="&#x22a5;" d="M95 30v102h354v605h102v-605h354v-102h-810z" />
<glyph unicode="&#x2312;" d="M20 654q195 197 480 197t480 -197l-42 -96q-192 180 -438 180t-438 -180z" />
<glyph unicode="&#x2500;" d="M0 360v40h1000v-40h-1000z" />
<glyph unicode="&#x2501;" d="M0 320v120h1000v-120h-1000z" />
<glyph unicode="&#x2502;" d="M480 -120v1000h40v-1000h-40z" />
<glyph unicode="&#x2503;" d="M440 -120v1000h120v-1000h-120z" />
<glyph unicode="&#x250c;" d="M480 -120v520h520v-40h-480v-480h-40z" />
<glyph unicode="&#x250f;" d="M440 -120v560h560v-120h-440v-440h-120z" />
<glyph unicode="&#x2510;" d="M0 360v40h520v-520h-40v480h-480z" />
<glyph unicode="&#x2513;" d="M0 320v120h560v-560h-120v440h-440z" />
<glyph unicode="&#x2514;" d="M480 360v520h40v-480h480v-40h-520z" />
<glyph unicode="&#x2517;" d="M440 320v560h120v-440h440v-120h-560z" />
<glyph unicode="&#x2518;" d="M0 360v40h480v480h40v-520h-520z" />
<glyph unicode="&#x251b;" d="M0 320v120h440v440h120v-560h-560z" />
<glyph unicode="&#x251c;" d="M480 -120v1000h40v-480h480v-40h-480v-480h-40z" />
<glyph unicode="&#x251d;" d="M480 -120v1000h40v-440h480v-120h-480v-440h-40z" />
<glyph unicode="&#x2520;" d="M440 -120v1000h120v-480h440v-40h-440v-480h-120z" />
<glyph unicode="&#x2523;" d="M440 -120v1000h120v-440h440v-120h-440v-440h-120z" />
<glyph unicode="&#x2524;" d="M0 360v40h480v480h40v-1000h-40v480h-480z" />
<glyph unicode="&#x2525;" d="M0 320v120h480v440h40v-1000h-40v440h-480z" />
<glyph unicode="&#x2528;" d="M0 360v40h440v480h120v-1000h-120v480h-440z" />
<glyph unicode="&#x252b;" d="M0 320v120h440v440h120v-1000h-120v440h-440z" />
<glyph unicode="&#x252c;" d="M0 360v40h1000v-40h-480v-480h-40v480h-480z" />
<glyph unicode="&#x252f;" d="M0 320v120h1000v-120h-480v-440h-40v440h-480z" />
<glyph unicode="&#x2530;" d="M0 360v40h1000v-40h-440v-480h-120v480h-440z" />
<glyph unicode="&#x2533;" d="M0 320v120h1000v-120h-440v-440h-120v440h-440z" />
<glyph unicode="&#x2534;" d="M0 360v40h480v480h40v-480h480v-40h-1000z" />
<glyph unicode="&#x2537;" d="M0 320v120h480v440h40v-440h480v-120h-1000z" />
<glyph unicode="&#x2538;" d="M0 360v40h440v480h120v-480h440v-40h-1000z" />
<glyph unicode="&#x253b;" d="M0 320v120h440v440h120v-440h440v-120h-1000z" />
<glyph unicode="&#x253c;" d="M0 360v40h480v480h40v-480h480v-40h-480v-480h-40v480h-480z" />
<glyph unicode="&#x253f;" d="M0 320v120h480v440h40v-440h480v-120h-480v-440h-40v440h-480z" />
<glyph unicode="&#x2542;" d="M0 360v40h440v480h120v-480h440v-40h-440v-480h-120v480h-440z" />
<glyph unicode="&#x254b;" d="M0 320v120h440v440h120v-440h440v-120h-440v-440h-120v440h-440z" />
<glyph unicode="&#x25a0;" d="M100 -20v800h800v-800h-800z" />
<glyph unicode="&#x25a1;" d="M100 -20v800h800v-800h-800zM144 24h712v712h-712v-712z" />
<glyph unicode="&#x25b2;" d="M30 12l470 814l470 -814h-940z" />
<glyph unicode="&#x25b3;" d="M30 12l470 814l470 -814h-940zM106 56h788l-394 682z" />
<glyph unicode="&#x25bc;" d="M30 748h940l-470 -814z" />
<glyph unicode="&#x25bd;" d="M30 748h940l-470 -814zM106 704l394 -682l394 682h-788z" />
<glyph unicode="&#x25c6;" d="M12 380l488 488l488 -488l-488 -488z" />
<glyph unicode="&#x25c7;" d="M12 380l488 488l488 -488l-488 -488zM75 380l425 -426l426 426l-426 426z" />
<glyph unicode="&#x25cb;" d="M50 380q0 122 60 226t164 164t226 60t226 -60t164 -164t60 -226t-60 -226t-164 -164t-226 -60t-226 60t-164 164t-60 226zM94 380q0 -168 119 -287t287 -119t287 119t119 287t-119 287t-287 119t-287 -119t-119 -287z" />
<glyph unicode="&#x25ce;" d="M50 380q0 122 60 226t164 164t226 60t226 -60t164 -164t60 -226t-60 -226t-164 -164t-226 -60t-226 60t-164 164t-60 226zM94 380q0 -168 119 -287t287 -119t287 119t119 287t-119 287t-287 119t-287 -119t-119 -287zM206 380q0 122 86 208t208 86t208 -86t86 -208 t-86 -208t-208 -86t-208 86t-86 208zM243 380q0 -106 75.5 -181.5t181.5 -75.5t181.5 75.5t75.5 181.5t-75.5 181.5t-181.5 75.5t-181.5 -75.5t-75.5 -181.5z" />
<glyph unicode="&#x25cf;" d="M50 380q0 122 60 226t164 164t226 60t226 -60t164 -164t60 -226t-60 -226t-164 -164t-226 -60t-226 60t-164 164t-60 226z" />
<glyph unicode="&#x25ef;" d="M28 380q0 195 138.5 333.5t333.5 138.5t333.5 -138.5t138.5 -333.5t-138.5 -333.5t-333.5 -138.5t-333.5 138.5t-138.5 333.5zM65 380q0 -180 127.5 -307.5t307.5 -127.5t307.5 127.5t127.5 307.5t-127.5 307.5t-307.5 127.5t-307.5 -127.5t-127.5 -307.5z" />
<glyph unicode="&#x2605;" d="M38 480v6h349l110 335h6l110 -335h349v-6l-282 -205l111 -337l-4 -2l-287 208l-287 -208l-4 2l111 337z" />
<glyph unicode="&#x2606;" d="M36 476l3 10h348l108 335h10l108 -335h348l3 -10l-284 -201l113 -335l-7 -6l-286 210l-286 -210l-7 6l113 335zM145 447l99 -64l128 -91l-50 -146l-46 -116l2 -2l99 81l123 90l123 -90l99 -81l2 2l-46 116l-50 146l128 91l99 64v2l-117 -7h-157l-51 154l-29 112h-2 l-30 -112l-50 -154h-157l-117 7v-2z" />
<glyph unicode="&#x2640;" d="M176 180v102h273v82q-79 17 -129.5 80t-50.5 145q0 96 67.5 163.5t163.5 67.5t163.5 -67.5t67.5 -163.5q0 -82 -50.5 -145t-129.5 -80v-82h273v-102h-273v-240h-102v240h-273zM370 589q0 -54 38.5 -92t91.5 -38q54 0 92 38t38 92q0 53 -38 91t-92 38q-53 0 -91.5 -38 t-38.5 -91z" />
<glyph unicode="&#x2642;" d="M112 223q0 96 67.5 163.5t163.5 67.5q66 0 121 -35l238 238h-215v101h391v-391h-101v222l-241 -240q38 -59 38 -126q0 -96 -67.5 -163.5t-163.5 -67.5t-163.5 67.5t-67.5 163.5zM213 223q0 -54 38 -92t92 -38q53 0 91.5 38t38.5 92q0 53 -38.5 91.5t-91.5 38.5 q-54 0 -92 -38.5t-38 -91.5z" />
<glyph unicode="&#x266a;" d="M250 -6q0 52 55 95t118 43q39 0 63 -13v721h25q0 -119 116 -220q129 -112 129 -225q0 -109 -84 -244h-26q63 132 63 210q0 86 -52 149.5t-131 81.5v-502q0 -75 -54.5 -122.5t-128.5 -47.5q-37 0 -65 19.5t-28 54.5z" />
<glyph unicode="&#x266d;" d="M344 -68v897h40v-502q36 63 92.5 101t123.5 38q64 0 105.5 -38t41.5 -94q0 -57 -27 -103t-73 -80.5t-95 -65t-106 -71t-93 -82.5h-9zM384 2q25 29 72 73.5t75.5 73t52 73.5t23.5 92q0 84 -70 84q-36 0 -76.5 -31.5t-76.5 -91.5v-273z" />
<glyph unicode="&#x266f;" d="M242 131v113l136 20v203l-136 -21v113l136 21v219h40v-213l158 23v219h39v-213l136 21v-114l-136 -20v-202l136 20v-113l-136 -21v-227h-39v221l-158 -23v-228h-40v222zM418 270l158 24v202l-158 -23v-203z" />
<glyph unicode="&#x3001;" d="M40 152l104 90q51 -42 114.5 -106t103.5 -113l-107 -92q-99 121 -215 221z" />
<glyph unicode="&#x3002;" d="M32 86q0 67 47.5 114.5t113.5 47.5q67 0 114.5 -47.5t47.5 -114.5t-47.5 -114.5t-114.5 -47.5q-66 0 -113.5 47.5t-47.5 114.5zM104 86q0 -37 26.5 -63t62.5 -26q38 0 64 26t26 63q0 38 -26.5 64t-63.5 26q-36 0 -62.5 -26.5t-26.5 -63.5z" />
<glyph unicode="&#x3003;" d="M193 147l165 472l138 -61l-227 -445zM503 147l164 472l139 -61l-227 -445z" />
<glyph unicode="&#x3005;" d="M82 258q105 94 186.5 243t122.5 298l133 -30q-31 -90 -62 -162h294l22 5l92 -49q-67 -191 -202 -384q79 -52 119 -92l-83 -114q-54 58 -162 128t-215 119l74 100q74 -32 156 -75q79 110 136 243h-286q-98 -190 -210 -297q-53 39 -115 67z" />
<glyph unicode="&#x3006;" d="M134 277l122 18q3 -31 6 -86t4 -68q27 36 94.5 123t103.5 134q-116 85 -215 136l92 109q120 -73 209 -134q189 242 230 295l116 -74q-92 -104 -239 -296q129 -93 221 -169l-99 -122q-66 68 -210 177q-91 -119 -209 -277q-35 -48 -90 -131l-120 39q6 44 6 65 q-2 148 -22 261z" />
<glyph unicode="&#x3007;" d="M41 380q0 190 134.5 324.5t324.5 134.5t324.5 -134.5t134.5 -324.5t-134.5 -324.5t-324.5 -134.5t-324.5 134.5t-134.5 324.5zM164 380q0 -139 98.5 -237.5t237.5 -98.5t237.5 98.5t98.5 237.5t-98.5 237.5t-237.5 98.5t-237.5 -98.5t-98.5 -237.5z" />
<glyph unicode="&#x3008;" d="M560 380l287 472l99 -43l-261 -429l261 -429l-99 -43z" />
<glyph unicode="&#x3009;" d="M54 -49l261 429l-261 429l99 43l287 -472l-287 -472z" />
<glyph unicode="&#x300a;" d="M518 380l199 472l83 -26l-189 -446l189 -446l-83 -26zM691 380l198 472l84 -26l-190 -446l190 -446l-84 -26z" />
<glyph unicode="&#x300b;" d="M27 -66l190 446l-190 446l84 26l198 -472l-198 -472zM200 -66l189 446l-189 446l83 26l199 -472l-199 -472z" />
<glyph unicode="&#x300c;" d="M641 213v639h331v-108h-213v-531h-118z" />
<glyph unicode="&#x300d;" d="M28 16h213v531h119v-639h-332v108z" />
<glyph unicode="&#x300e;" d="M600 191v661h372v-178h-180v-483h-192zM644 235h105v483h179v90h-284v-573z" />
<glyph unicode="&#x300f;" d="M28 86h180v483h192v-661h-372v178zM72 42v-90h284v573h-105v-483h-179z" />
<glyph unicode="&#x3010;" d="M660 -92v944h312v-5q-87 -75 -142.5 -197.5t-55.5 -269.5t55.5 -269.5t142.5 -197.5v-5h-312z" />
<glyph unicode="&#x3011;" d="M28 -87q87 75 142.5 197.5t55.5 269.5t-55.5 269.5t-142.5 197.5v5h312v-944h-312v5z" />
<glyph unicode="&#x3012;" d="M165 397v106h670v-106h-278v-387h-114v387h-278zM165 620v106h670v-106h-670z" />
<glyph unicode="&#x3013;" d="M100 -20v300h800v-300h-800zM100 480v300h800v-300h-800z" />
<glyph unicode="&#x3014;" d="M693 46v668l234 150l48 -79l-172 -110v-590l172 -110l-48 -79z" />
<glyph unicode="&#x3015;" d="M25 -25l172 110v590l-172 110l48 79l234 -150v-668l-234 -150z" />
<glyph unicode="&#x3041;" d="M166 115q0 81 57 155t143 116q1 38 7 99h-24q-59 0 -145 7l-3 101q84 -12 148 -12h34l5 45q4 28 2 50l121 -2q-3 -10 -12 -47q0 -2 -8 -43q154 8 276 36l1 -102q-123 -21 -290 -29q-1 -7 -2.5 -20.5t-2.5 -24.5t-1 -21q60 13 116 13h14q6 26 8 45l103 -25q-3 -7 -13 -37 q75 -24 118 -79t43 -128q0 -93 -65.5 -164.5t-207.5 -96.5l-60 94q112 13 166.5 61.5t54.5 115.5q0 77 -80 109q-61 -156 -170 -245q6 -22 18 -62l-103 -30q-6 20 -10 31q-64 -31 -119 -31q-54 0 -86.5 28.5t-32.5 92.5zM269 135q0 -37 37 -37q34 0 76 24q-14 76 -17 159 q-42 -30 -69 -69.5t-27 -76.5zM468 329q0 -68 8 -130q61 63 97 147q-53 -1 -105 -17z" />
<glyph unicode="&#x3042;" d="M95 136q0 93 69 184.5t174 140.5q6 84 10 124h-32q-37 0 -175 6l-4 115q91 -13 183 -13h38l6 53q4 38 3 59l130 -3q-8 -23 -14 -53q-4 -18 -10 -53q186 6 336 42l1 -114q-137 -25 -352 -36q-6 -58 -7 -89q77 18 148 18h17q7 37 9 59l122 -28q-6 -14 -18 -51 q88 -29 139.5 -93t51.5 -150q0 -55 -17.5 -103t-54 -91t-101.5 -74t-153 -44l-66 104q135 15 202 75t67 139q0 46 -26.5 83t-75.5 56q-78 -192 -209 -300q7 -26 23 -74l-114 -34q-11 33 -13 40q-80 -40 -153 -40q-59 0 -96.5 36.5t-37.5 108.5zM212 160q0 -48 46 -48 q43 0 99 32q-18 103 -21 198q-55 -37 -89.5 -88.5t-34.5 -93.5zM447 392q0 -87 11 -164q81 81 125 188q-71 -1 -136 -22v-2z" />
<glyph unicode="&#x3043;" d="M176 580l136 -1q-9 -48 -9 -98q0 -149 7 -206q9 -79 30 -125.5t50 -46.5q26 0 48.5 52t35.5 115l93 -107q-39 -107 -80 -154t-99 -47q-70 0 -123 67.5t-71 223.5q-11 90 -11 243q0 56 -7 84zM606 522l115 38q62 -74 105 -202.5t51 -227.5l-122 -47q-12 118 -48 243.5 t-101 195.5z" />
<glyph unicode="&#x3044;" d="M110 714l152 -2q-12 -60 -12 -120q-2 -117 6 -210q23 -240 106 -240q32 0 59.5 59.5t45.5 134.5l100 -120q-48 -126 -97.5 -179.5t-110.5 -53.5q-87 0 -149 87.5t-82 276.5q-11 111 -11 267q0 65 -7 100zM631 649l126 42q68 -83 120 -234.5t61 -271.5l-131 -50 q-13 141 -57.5 285.5t-118.5 228.5z" />
<glyph unicode="&#x3045;" d="M221 407q38 1 82 11q185 39 257 39q105 0 167 -54t62 -150q0 -126 -102.5 -210.5t-294.5 -113.5l-63 112q336 39 336 213q0 43 -31 70t-87 27q-88 0 -217 -42q-38 -12 -75 -29zM325 549l17 106q167 -32 378 -38l-18 -109q-74 4 -193.5 16.5t-183.5 24.5z" />
<glyph unicode="&#x3046;" d="M148 506q52 5 108 17q7 2 38.5 9t47 10t47.5 9t55 9t53 5.5t58 2.5q120 0 193.5 -65t73.5 -179q0 -154 -128.5 -253t-342.5 -129l-72 124q403 46 403 263q0 51 -38 85t-105 33q-22 0 -45 -1.5t-46 -5.5t-39.5 -7t-40 -9t-32 -8.5t-31.5 -9.5t-24 -7q-17 -5 -52 -18 t-44 -16zM274 685l20 120q82 -18 222 -31.5t223 -13.5l-20 -122q-292 20 -445 47z" />
<glyph unicode="&#x3047;" d="M175 9q17 13 47 41q233 225 287 287q-12 -1 -52 -4t-76.5 -5.5t-55.5 -4.5q-31 -3 -77 -11l-10 124q34 -4 80 -2q273 13 298 16q28 4 45 10l63 -71q-5 -4 -24.5 -18t-26.5 -20q-87 -75 -132 -124q18 -2 34 -11q30 -10 45 -59q4 -10 11.5 -35.5t10.5 -35.5q13 -32 56 -32 q83 0 157 17l-7 -118q-59 -11 -167 -11q-61 0 -91.5 17.5t-43.5 51.5q-6 13 -13.5 42t-10.5 36q-14 46 -44 46q-18 0 -54 -36q-62 -64 -141 -165zM335 548l17 105q101 -25 345 -43l-16 -106q-212 19 -346 44z" />
<glyph unicode="&#x3048;" d="M104 29q36 28 69 61q14 14 86 86.5t145 146.5t113 116q-78 -3 -245 -18q-41 -4 -85 -12l-12 137q35 -3 95 -3q45 0 172 7t182 14q33 4 56 12l73 -83q-7 -5 -65 -50q-118 -102 -161 -149q21 0 37 -8q40 -13 61 -67q4 -12 13 -44.5t14 -45.5q13 -46 70 -46q109 0 194 17 l-8 -130q-72 -14 -194 -14q-73 0 -112 19t-57 66q-4 10 -29 100q-16 48 -53 48q-26 0 -64 -40q-88 -88 -177 -202zM295 693l19 115q187 -35 404 -48l-16 -117q-229 20 -407 50z" />
<glyph unicode="&#x3049;" d="M152 92q0 56 53 109t133 89v111q-15 -1 -45 -1q-53 0 -118 6l-1 115q68 -9 119 -9q30 0 46 1v49q0 45 -5 75h125q-6 -40 -8 -75l-2 -40q90 12 148 28l1 -111q-73 -17 -152 -27q-1 -30 -1 -86q81 19 152 19q102 0 166.5 -51.5t64.5 -136.5q0 -78 -49.5 -133t-154.5 -76 q-13 -3 -93 -10l-38 116q61 0 95 6q52 8 86.5 33.5t34.5 65.5q0 42 -30.5 64.5t-84.5 22.5q-80 0 -148 -20q4 -136 4 -165q0 -126 -95 -126q-65 0 -134 47.5t-69 109.5zM262 98q0 -15 19.5 -30t36.5 -15q25 0 25 33q0 35 -3 98q-78 -44 -78 -86zM640 481l53 94 q127 -62 204 -118l-59 -97q-25 23 -90 61.5t-108 59.5z" />
<glyph unicode="&#x304a;" d="M84 143q0 63 63 125t159 104q-1 23 -1 69v83q-38 -2 -53 -2q-84 0 -138 5l-2 120q66 -8 137 -8q17 0 57 2q1 35 1 81q0 45 -7 87h136q-4 -36 -8 -86q-1 -29 -3 -71q103 14 182 37l3 -124q-71 -16 -189 -31q-1 -30 -1 -89v-35q102 26 190 26q117 0 194.5 -59t77.5 -158 q0 -190 -218 -244q-56 -12 -130 -16l-46 127q81 0 122 7q64 11 104 43.5t40 83.5q0 49 -40 77.5t-106 28.5q-89 0 -186 -27q1 -30 2 -73.5t2 -72t1 -43.5q0 -87 -28 -121t-81 -34q-79 0 -156.5 57t-77.5 131zM207 147q0 -21 25.5 -39.5t46.5 -18.5q32 0 32 43q0 44 -3 122 q-46 -23 -73.5 -52t-27.5 -55zM664 605l55 97q59 -29 132 -70.5t111 -68.5l-60 -102q-32 28 -108 73t-130 71z" />
<glyph unicode="&#x304b;" d="M61 584q26 -2 105 0q47 2 128 8q22 122 21 210l147 -15q-12 -52 -18 -82q-2 -13 -5.5 -30t-8 -38t-6.5 -34q66 4 83 4q179 0 179 -189q0 -246 -56 -361q-24 -50 -64 -70.5t-99 -20.5q-60 0 -118 14l-22 131q73 -21 121 -21q54 0 74 43q41 81 41 271q0 55 -22.5 72.5 t-74.5 17.5q-12 0 -68 -4q-88 -348 -201 -529l-130 52q119 160 200 463q-56 -6 -85 -11q-51 -5 -110 -15zM684 644l120 50q42 -60 95 -175.5t78 -192.5l-125 -59q-21 90 -69.5 202.5t-98.5 174.5z" />
<glyph unicode="&#x304c;" d="M54 577q26 -2 105 0q47 2 128 8q22 122 21 210l147 -15q-5 -19 -17 -82q-2 -12 -9.5 -47t-11.5 -55q66 4 83 4q179 0 179 -189q0 -246 -56 -361q-24 -50 -63.5 -70.5t-99.5 -20.5t-118 14l-22 131q73 -21 122 -21q53 0 74 43q40 81 40 271q0 55 -22.5 72.5t-73.5 17.5 q-12 0 -68 -4q-91 -352 -202 -529l-129 52q122 165 199 463q-56 -6 -85 -11q-51 -5 -110 -15zM678 631l92 39q-46 87 -68 118l79 33q30 -44 80 -137l-51 -22q41 -65 89 -169.5t72 -175.5l-126 -59q-21 90 -69 200.5t-98 172.5zM820 833l79 33q47 -66 81 -136l-79 -35 q-46 91 -81 138z" />
<glyph unicode="&#x304d;" d="M154 504q220 -21 395 -2l-17 39l-24 56q-165 -14 -341 4l-6 113q172 -18 300 -11v1q-21 43 -48 85l141 27q10 -42 31 -99q105 17 190 46l21 -111q-90 -26 -170 -40l19 -43l23 -50q103 20 177 49l24 -112q-52 -19 -153 -40q48 -101 82 -165l-59 -75q-112 20 -216 33l11 95 q23 -3 61 -6.5t44 -4.5l-45 103q-204 -23 -435 -6zM167 146q0 54 24 135l123 -11q-24 -55 -24 -96q0 -104 173 -104q152 0 262 22l-4 -127q-116 -19 -255 -19q-143 0 -221 50t-78 150z" />
<glyph unicode="&#x304e;" d="M114 495q221 -21 395 -2l-16 38q-5 11 -14 31.5t-11 25.5q-164 -14 -340 4l-7 113q171 -18 300 -11v1q-26 52 -48 85l142 27q10 -42 31 -99q84 13 153 37l21 -111q-61 -19 -133 -31l19 -43l22 -50q101 20 178 49l23 -112q-52 -19 -153 -40q48 -101 82 -165l-59 -75 q-115 21 -216 33l11 94q20 -2 56 -5.5t50 -4.5q-18 40 -45 103q-205 -23 -436 -6zM127 137q0 58 25 135l122 -11q-23 -57 -23 -96q0 -104 172 -104q154 0 262 22l-4 -127q-116 -19 -254 -19q-143 0 -221.5 50t-78.5 150zM699 786l74 31q46 -67 79 -135l-75 -34 q-39 83 -78 138zM810 829l73 33q48 -66 84 -132l-75 -36q-38 76 -82 135z" />
<glyph unicode="&#x304f;" d="M182 389q3 47 78 110q221 181 280 239q55 53 76 83l116 -103q-27 -20 -87 -67q-10 -8 -116 -92t-145 -118q-40 -34 -39.5 -50.5t41.5 -51.5q19 -17 98.5 -81.5t150 -125t114.5 -102.5l-115 -106q-16 18 -46.5 50t-40.5 42q-60 63 -296 263q-72 63 -69 110z" />
<glyph unicode="&#x3050;" d="M165.5 389q2.5 47 78.5 110q208 168 280 239q59 57 76 83l117 -103q-19 -13 -50.5 -37.5t-37.5 -29.5q-4 -3 -112.5 -89.5t-147.5 -120.5q-40 -34 -39.5 -50.5t40.5 -51.5q12 -10 97 -79.5t153.5 -128.5t112.5 -101l-115 -106q-12 14 -26.5 29.5t-32.5 34t-27 28.5 q-54 56 -296 263q-73 63 -70.5 110zM575 546l80 32q24 -34 84 -148l-82 -35q-63 122 -82 151zM694 592l82 34q22 -31 85 -148l-81 -34q-65 119 -86 148z" />
<glyph unicode="&#x3051;" d="M97 309q0 192 33 395q6 34 6 86l147 -15q-18 -54 -23 -80q-64 -293 -33 -440q6 13 21.5 54t24.5 60l63 -39q-42 -123 -67 -242q-7 -26 -7 -48q0 -3 3 -41l-111 -11q-21 59 -39 149t-18 172zM385 473v126q70 -10 150 -10q36 0 112 2q-2 87 -5 133q-4 45 -11 68h145 q-3 -14 -5 -67q-1 -22 -1 -127q90 6 149 18l-1 -129q-58 -7 -147 -12v-41q0 -79 -3.5 -131t-15.5 -110t-35 -99.5t-63 -83.5t-98 -79l-115 90q75 34 116 79q55 57 73.5 129.5t18.5 204.5v36q-74 -2 -111 -2q-30 0 -153 5z" />
<glyph unicode="&#x3052;" d="M80 291q0 179 33 385q4 24 6 85l147 -14q-14 -39 -24 -81q-63 -288 -33 -429q3 8 20.5 50.5t26.5 63.5l62 -39q-42 -123 -67 -242q-6 -30 -6 -48q0 -13 2 -41l-110 -11q-21 56 -39 147t-18 174zM367 446v126q77 -11 151 -11q31 0 101 2q-2 85 -5 133q-4 44 -11 68h144 q-3 -24 -5 -68v-126q103 9 159 19l-1 -130q-60 -7 -157 -12v-31q0 -79 -3.5 -131t-16 -109.5t-35.5 -99.5t-63 -84t-98 -79l-114 90q75 34 116 79q54 57 73 130t19 205v25q-68 -2 -101 -2q-53 0 -153 6zM761 780l68 21q35 -75 53 -140l-69 -23q-31 99 -52 142zM864 812 l68 21q32 -65 55 -139l-68 -22q-35 99 -55 140z" />
<glyph unicode="&#x3053;" d="M154 174q0 51 20 143l130 -12q-17 -68 -17 -100q0 -50 50 -79.5t153 -29.5q205 0 348 39l1 -139q-139 -34 -344 -34q-169 0 -255 54.5t-86 157.5zM220 593v132q111 -12 270 -12q154 0 287 14v-133q-166 -12 -286 -12q-123 0 -271 11z" />
<glyph unicode="&#x3054;" d="M133 164q0 53 19 143l130 -12q-16 -64 -16 -100q0 -50 49.5 -79.5t152.5 -29.5q205 0 348 39l1 -140q-142 -33 -344 -33q-169 0 -254.5 54.5t-85.5 157.5zM199 583v132q109 -12 269 -12q139 0 280 13q-25 46 -43 72l79 32q40 -59 80 -137l-81 -35q-4 7 -13.5 25.5 t-14.5 29.5v-119q-166 -12 -286 -12q-123 0 -270 11zM823 833l79 32q45 -61 81 -136l-79 -34q-44 87 -81 138z" />
<glyph unicode="&#x3055;" d="M144 656q204 -26 370 -10q-11 22 -21 47q-24 53 -49 95l140 27q20 -61 58 -151q101 19 194 50l23 -125q-80 -22 -168 -40q67 -140 128 -253l-70 -75q-103 21 -225 36l11 102q6 -1 52.5 -5.5t64.5 -5.5q-8 16 -25.5 52t-33 69t-28.5 60q-181 -19 -417 0zM162 162 q0 63 28 163l128 -11q-27 -72 -27 -118q0 -59 39 -90t138 -31q64 0 118.5 5t76 9t75.5 15l-3 -131q-132 -24 -267 -24q-149 0 -227.5 54.5t-78.5 158.5z" />
<glyph unicode="&#x3056;" d="M128 648q204 -26 370 -10l-21 47q-27 60 -49 95l141 27q18 -60 57 -151q72 14 138 33q-35 69 -62 107l79 33q44 -65 79 -137l-34 -15l18 -96q-82 -23 -168 -40q61 -131 127 -253l-70 -74q-89 18 -225 35l11 102q102 -9 117 -10q-10 21 -40.5 83.5t-45.5 96.5 q-183 -19 -418 0zM146 154q0 63 28 163l129 -10q-28 -71 -28 -119q0 -59 39 -89.5t138 -30.5q20 0 39.5 0.5t34.5 1t32 2t27.5 2.5t26.5 3t23 3t23.5 4t21 3.5t22 4t20.5 4.5l-3 -131q-132 -24 -267 -24q-149 0 -227.5 54.5t-78.5 158.5zM821 839l79 33q45 -65 81 -136 l-79 -35q-44 87 -81 138z" />
<glyph unicode="&#x3057;" d="M213 792l160 -2q-11 -68 -13 -132q-12 -254 -12 -451q0 -132 136 -132q206 0 339 202l90 -111q-27 -40 -63.5 -76t-89.5 -71.5t-125 -57t-152 -21.5q-127 0 -197 58.5t-70 181.5q0 72 5 256.5t5 221.5q0 78 -13 134z" />
<glyph unicode="&#x3058;" d="M197 786l160 -1q-11 -68 -13 -132q-12 -257 -12 -451q0 -133 136 -133q206 0 339 202l90 -110q-27 -40 -63.5 -76t-89.5 -72t-125 -57t-152 -21q-127 0 -197 58.5t-70 181.5q0 72 5 256.5t5 221.5q0 77 -13 133zM527 670l87 37q60 -90 94 -161l-90 -39q-43 95 -91 163z M662 722l86 39q64 -88 97 -156l-87 -42q-47 93 -96 159z" />
<glyph unicode="&#x3059;" d="M92 680q67 0 234.5 3.5t191.5 3.5q0 23 -1 30q-4 67 -9 86h144q-3 -13 -7 -85q0 -4 -0.5 -14t-0.5 -16h102h115h70l-1 -117q-100 5 -287 5q1 -50 1 -147q37 -55 37 -137q0 -52 -16.5 -102t-51.5 -100.5t-99 -92.5t-151 -66l-105 106q170 36 242 113q-23 -5 -45 -5 q-65 0 -118 49t-53 133q0 82 57.5 133.5t140.5 51.5q21 0 39 -3l-1 66q-213 -3 -425 -15zM403 329q0 -33 22.5 -53.5t53.5 -20.5q35 0 54.5 28.5t10.5 88.5q-20 35 -65 35q-31 0 -53.5 -20.5t-22.5 -57.5z" />
<glyph unicode="&#x305a;" d="M63 666q67 0 234 3.5t193 3.5q0 7 -0.5 17t-0.5 13q-7 72 -10 86h144q-3 -13 -7 -85q0 -4 -0.5 -14t-0.5 -16h121q-37 72 -65 113l82 34q38 -54 70 -117l-69 -30h56.5h56.5h35l-1 -118q-120 6 -287 6q1 -50 1 -147q37 -55 37 -137q0 -52 -16.5 -102.5t-51 -100.5t-99 -92 t-150.5 -66l-106 106q172 36 242 113q-23 -5 -45 -5q-64 0 -117.5 48.5t-53.5 132.5q0 83 57.5 134.5t140.5 51.5q21 0 40 -3l-1 66q-214 -3 -426 -15zM374 315q0 -33 23 -54t54 -21q34 0 53.5 29t10.5 90q-21 34 -65 34q-30 0 -53 -20.5t-23 -57.5zM804 816l83 34 q45 -67 71 -117l-84 -35q-34 69 -70 118z" />
<glyph unicode="&#x305b;" d="M42 529q49 0 124 6l75 7v100q0 54 -8 110h140q-6 -50 -6 -103q0 -56 -1 -95q158 15 270 25v112q0 48 -7 90h134q-3 -17 -6 -85q-1 -52 -3 -107q57 4 75 5q88 6 95 7v-122q-27 2 -96 -1q-58 -3 -76 -4q-6 -151 -15 -198q-7 -38 -26.5 -51.5t-59.5 -13.5q-61 0 -149 15 l3 109q62 -12 91 -12q16 0 22.5 4.5t8.5 18.5q5 35 7 119q-137 -11 -269 -25q-2 -182 0 -224q1 -41 5 -60t20.5 -35t47 -20t87.5 -4q159 0 296 26l-5 -136q-134 -16 -282 -16q-97 0 -153.5 10t-87.5 39.5t-40 67.5t-11 108q-1 42 -1 231l-67 -7q-12 -2 -119 -18z" />
<glyph unicode="&#x305c;" d="M23 513q49 0 124 6l75 7v100q0 55 -8 109h140q-6 -48 -6 -102q0 -56 -1 -95q157 15 270 25v111q0 47 -7 91h134q-3 -17 -6 -85q-1 -52 -3 -107q57 4 75 5q9 1 28.5 2t36.5 2.5t30 2.5v-122q-10 1 -48.5 0t-47.5 -1q-58 -3 -76 -4q-6 -152 -15 -199q-7 -38 -26.5 -51.5 t-59.5 -13.5q-56 0 -149 16l3 109q62 -12 91 -12q16 0 22.5 4t8.5 18q5 37 7 120q-98 -8 -269 -26q-2 -181 0 -223q1 -42 5 -61t20.5 -34.5t46.5 -19.5t88 -4q154 0 296 25l-5 -136q-153 -16 -282 -16q-97 0 -153.5 10t-87.5 39.5t-40 67.5t-11 109q-1 42 -1 230l-67 -7 q-53 -7 -119 -17zM756 743l68 22q36 -80 52 -137l-69 -23q-34 103 -51 138zM859 778l68 21q31 -64 54 -136l-68 -22q-33 96 -54 137z" />
<glyph unicode="&#x305d;" d="M93 413q15 1 173 20q106 69 279 225q-12 -1 -95.5 -6t-106.5 -7q-14 -1 -46 -4.5t-43 -4.5l-6 127q41 -4 94 -4q35 0 140.5 5.5t147.5 10.5q40 4 69 12l78 -91q-70 -49 -77 -55q-37 -29 -120.5 -97.5t-115.5 -93.5q228 24 417 24v-117q-162 10 -254 -2 q-70 -10 -118.5 -54.5t-48.5 -103.5q0 -55 39 -82.5t111 -36.5q75 -8 151 -2l-26 -130q-193 -8 -297.5 50t-104.5 180q0 43 21 85.5t51 70.5q-133 -10 -300 -39z" />
<glyph unicode="&#x305e;" d="M63 413q15 1 173 20q106 69 279 225q-12 -1 -95.5 -6t-106.5 -7q-14 -1 -46 -4.5t-43 -4.5l-6 127q41 -4 94 -4q35 0 140.5 5.5t147.5 10.5q40 4 69 12l78 -91q-70 -49 -77 -55q-37 -29 -120.5 -97.5t-115.5 -93.5q228 24 416 24l1 -117q-162 10 -254 -2 q-70 -10 -118.5 -54.5t-48.5 -103.5q0 -55 39 -82.5t111 -36.5q75 -8 151 -2l-26 -130q-193 -8 -297.5 50t-104.5 180q0 43 21 85.5t51 70.5q-133 -10 -300 -39zM669 609l74 32q34 -51 68 -119l-76 -33q-32 70 -66 120zM780 652l73 34q46 -63 72 -117l-74 -34 q-38 74 -71 117z" />
<glyph unicode="&#x305f;" d="M93 1q42 71 91.5 202.5t79.5 243.5q7 26 21 82q-46 -2 -65 -2q-50 0 -120 4l-3 124q68 -8 125 -8q43 0 88 3q6 33 9 57q8 57 4 100l151 -12q-3 -12 -7 -29.5t-8 -37t-6 -26.5l-8 -38q87 14 166 33v-125q-88 -19 -192 -32q-16 -75 -30 -127q-28 -110 -73 -242.5 t-84 -215.5zM455 126q0 49 17 132l119 -11q-14 -49 -14 -83q0 -36 28.5 -55.5t102.5 -19.5q97 0 206 20l-5 -127q-112 -14 -202 -14q-124 0 -188 41t-64 117zM533 379v117q110 10 190 10q87 0 174 -9l-3 -119q-98 12 -170 12q-106 0 -191 -11z" />
<glyph unicode="&#x3060;" d="M63 -11q42 72 91.5 203.5t79.5 242.5q19 71 21 83q-46 -2 -65 -2q-50 0 -120 4l-3 123q59 -7 125 -7q43 0 88 3q5 27 9 56q8 57 4 101l151 -12q-4 -17 -12 -54.5t-9 -39.5l-8 -37q81 12 166 32v-124q-84 -20 -192 -33q-16 -75 -30 -127q-28 -109 -73 -241t-84 -217z M425 114q0 51 17 132l119 -10q-14 -51 -14 -83q0 -36 28.5 -56t102.5 -20q88 0 206 20l-5 -127q-112 -14 -202 -14q-124 0 -188 41t-64 117zM503 368v116q92 10 190 10q97 0 174 -8l-3 -120q-106 13 -170 13q-94 0 -191 -11zM685 725l79 33q44 -65 79 -137l-80 -35 q-45 93 -78 139zM803 771l79 32q47 -66 81 -136l-79 -34q-44 87 -81 138z" />
<glyph unicode="&#x3061;" d="M108 556v123q103 -17 194 -19q1 6 3 19.5t3 20.5q6 55 5 100l140 -6q-5 -15 -23 -101l-6 -30q199 11 366 47l2 -120q-208 -32 -393 -42q-22 -103 -45 -171q113 62 246 62q120 0 193 -58.5t73 -153.5q0 -162 -142.5 -228.5t-391.5 -40.5l-35 128q84 -14 160 -14t139 14 t100 49t37 88q0 46 -39.5 77.5t-108.5 31.5q-86 0 -158 -30.5t-116 -86.5q-9 -10 -28 -43l-117 42q63 122 113 332q-84 1 -171 10z" />
<glyph unicode="&#x3062;" d="M71 535v123q103 -18 192 -19q3 13 8 50q7 57 4 100l141 -6q-5 -15 -23 -101l-8 -40q194 9 354 44l2 -119q-188 -31 -381 -40q-23 -101 -43 -161q113 62 246 62q120 0 193.5 -58.5t73.5 -153.5q0 -162 -143 -228.5t-392 -40.5l-35 128q84 -14 160 -14t139 14t100 49t37 88 q0 47 -39 78t-109 31q-86 0 -158 -30.5t-116 -86.5q-14 -17 -28 -43l-117 42q60 116 110 322q-83 1 -168 10zM699 788l80 32q36 -53 79 -137l-80 -34q-57 108 -79 139zM818 833l79 32q41 -59 81 -136l-79 -34q-44 87 -81 138z" />
<glyph unicode="&#x3063;" d="M147 425q56 10 105 26q5 1 40 12t56 17t60.5 16.5t69 16.5t65 10.5t64.5 4.5q118 0 189.5 -65.5t71.5 -177.5q0 -137 -120 -222t-352 -99l-52 123q117 3 202.5 24t138 66t52.5 110q0 56 -39 91t-103 35q-118 0 -397 -118z" />
<glyph unicode="&#x3064;" d="M59 548q50 8 121 30q6 2 57 18t86 25.5t88 23t102 20.5t90 7q139 0 229.5 -76.5t90.5 -209.5q0 -168 -150 -270t-413 -116l-57 132q139 3 243.5 30t169.5 85t65 141q0 72 -48 118t-135 46q-161 0 -483 -144z" />
<glyph unicode="&#x3065;" d="M41 533q35 6 122 30q3 1 38.5 12.5t54 17t58.5 17t69.5 18.5t66.5 14.5t71 11t64 3.5q139 0 229.5 -76t90.5 -210q0 -168 -150 -270t-413 -115l-57 132q103 2 188 18.5t151 46.5t102.5 79t36.5 112q0 72 -48 118t-135 46q-150 0 -483 -144zM690 771l79 33q38 -54 80 -138 l-80 -34q-51 100 -79 139zM809 817l79 32q41 -59 81 -136l-80 -34q-40 81 -80 138z" />
<glyph unicode="&#x3066;" d="M76 686q63 2 97 5q28 3 427 38q138 11 280 17l1 -128q-134 0 -191 -13q-88 -24 -148.5 -106t-60.5 -171q0 -59 26 -103t72 -70t101 -39.5t121 -17.5l-46 -137q-80 5 -151 29t-128.5 65.5t-91 104.5t-33.5 141q0 98 44 179.5t102 125.5q-295 -31 -409 -56z" />
<glyph unicode="&#x3067;" d="M73 684q65 2 97 5q36 3 101 9t161 14.5t166 14.5q141 11 280 17l1 -128q-134 0 -191 -13q-88 -24 -148.5 -105.5t-60.5 -171.5q0 -78 46.5 -130t115 -74t158.5 -26l-46 -137q-80 5 -151 29t-128.5 65t-91 104.5t-33.5 141.5q0 99 44 180.5t102 124.5q-292 -31 -409 -56z M666 489l74 31q54 -80 80 -136l-76 -34q-37 81 -78 139zM779 532l73 34q50 -70 84 -133l-75 -36q-36 71 -82 135z" />
<glyph unicode="&#x3068;" d="M162 187q0 140 164 261q-60 112 -139 295l125 51q47 -128 124 -274q48 28 129.5 72t84.5 45q67 40 91 60l69 -115q-40 -24 -98 -53q-214 -107 -276 -147q-138 -90 -138 -180q0 -109 206 -109q166 0 324 36l-2 -143q-144 -24 -318 -24q-346 0 -346 225z" />
<glyph unicode="&#x3069;" d="M143 173q0 139 164 260q-58 108 -138 295l125 51q47 -128 124 -274q40 24 105 59t84 46q60 34 91 59l62 -116q-47 -28 -98 -53q-11 -6 -64.5 -32.5t-96.5 -50.5t-84 -50q-137 -90 -137 -180q0 -109 206 -109q165 0 323 36l-2 -142q-140 -25 -318 -25q-346 0 -346 226z M696 765l79 32q37 -53 80 -137l-81 -34q-43 89 -78 139zM814 810l80 33q46 -68 80 -137l-79 -34q-44 87 -81 138z" />
<glyph unicode="&#x306a;" d="M69 186q56 69 111 166t91 184q-17 -1 -51 -1q-60 0 -124 3l-9 116q60 -7 132 -7q44 0 89 3q24 95 27 166l137 -14q-29 -117 -34 -135q70 12 133 31l3 -115q-81 -22 -172 -34q-36 -105 -94.5 -222.5t-117.5 -201.5zM304 105q0 75 59 123.5t160 48.5q25 0 67 -4 q0 5 -11 221h125q-2 -31 0 -127q2 -65 6 -125q110 -41 205 -127l-66 -106q-76 70 -134 105v-9q0 -75 -45.5 -119.5t-145.5 -44.5q-97 0 -158.5 42.5t-61.5 121.5zM421 117q0 -28 22.5 -45t62.5 -17q89 0 89 92v19q-43 10 -80 10q-43 0 -68.5 -16.5t-25.5 -42.5zM636 582 l64 98q54 -24 130.5 -65.5t113.5 -68.5l-70 -105q-41 33 -113 75.5t-125 65.5z" />
<glyph unicode="&#x306b;" d="M106 286q0 42 3 88.5t8.5 94t10 79.5t11.5 76.5t8 53.5q10 70 10 97l139 -12q-10 -25 -24 -88q-15 -69 -31.5 -183t-16.5 -180q0 -36 4 -64q8 21 25 58.5t19 41.5l62 -48q-57 -169 -71 -243q-6 -28 -6 -46q1 -6 1.5 -20t0.5 -21l-114 -8q-39 135 -39 324zM397 156 q0 51 17 129l114 -11q-12 -48 -12 -83q0 -70 138 -70q124 0 248 26l3 -134q-107 -20 -256 -20q-126 0 -189 42.5t-63 120.5zM448 698q97 -12 218.5 -11t207.5 11v-128q-211 -19 -425 0z" />
<glyph unicode="&#x306c;" d="M57 167q0 153 90 273q18 24 30 37q-9 24 -24 69q-29 85 -42 116l118 49q12 -68 39 -149q95 70 206 92q2 18 4 52q1 55 -2 89l138 -4q-4 -20 -8.5 -53t-4.5 -36l-4 -38q132 -6 216.5 -90.5t84.5 -220.5q0 -89 -18 -164q53 -40 98 -93l-74 -94q-35 43 -69 78 q-67 -106 -189 -106q-78 0 -124.5 38t-46.5 107q0 60 47.5 107t120.5 47q62 0 122 -21q9 46 9 98q0 97 -51.5 151t-140.5 57q-18 -109 -46 -197q-31 -93 -80.5 -175t-117 -137.5t-132.5 -55.5q-64 0 -106.5 46t-42.5 128zM171 189q0 -27 11.5 -46.5t31.5 -19.5q40 0 96 69 q-26 39 -55 95q-15 30 -30 66q-54 -89 -54 -164zM309 455q11 -28 28 -63q17 -39 46 -87q22 43 37 87q22 68 38 149q-83 -25 -149 -86zM583 132q0 -22 15 -34.5t43 -12.5q57 0 94 70q-46 23 -88 23q-29 0 -46.5 -13.5t-17.5 -32.5z" />
<glyph unicode="&#x306d;" d="M46 173q117 142 212 283l4 69q-23 -3 -87 -11t-93 -12l-12 127q42 -2 86 1t114 13q4 74 4 76q0 64 -4 88l145 -4q-10 -45 -22 -141l37 -47q-14 -18 -51 -75l-1 -10q163 143 288 143q105 0 165 -81t60 -217q0 -93 -11 -158q48 -35 102 -92l-64 -103q-34 42 -73 76 q-57 -120 -196 -120q-87 0 -141 40.5t-54 120.5q0 68 53.5 111.5t142.5 43.5q62 0 114 -18q5 55 5 108q0 80 -34 128t-91 48q-116 0 -276 -178q-3 -50 -3 -94q0 -164 6 -257q0 -8 1.5 -21.5t3 -30.5t2.5 -24h-136q3 32 3 73q1 40 2 108.5t2 109.5q-74 -111 -125 -183z M562 144q0 -54 80 -54q66 0 98 80q-53 24 -100 24q-33 0 -55.5 -13.5t-22.5 -36.5z" />
<glyph unicode="&#x306e;" d="M67 316q0 84 35.5 162t96 135.5t145.5 92t179 34.5q180 0 290 -110.5t110 -276.5q0 -159 -96.5 -262.5t-281.5 -131.5l-74 117q53 7 92 16q100 24 162.5 92.5t62.5 172.5t-54.5 174.5t-152.5 87.5q-27 -164 -59 -269q-45 -154 -109.5 -238t-143.5 -84q-83 0 -142.5 82.5 t-59.5 205.5zM196 329q0 -70 23 -109.5t54 -39.5q62 0 121 196q33 106 53 240q-115 -24 -183 -110.5t-68 -176.5z" />
<glyph unicode="&#x306f;" d="M98 271q0 153 41 413q9 63 9 97l138 -12q-10 -25 -24 -88q-13 -58 -30 -186.5t-17 -196.5q0 -37 4 -64q9 23 44 101l61 -49q-56 -161 -71 -236q-6 -30 -5 -46q0 -27 1 -41l-112 -8q-39 135 -39 316zM358 121q0 76 60 123t160 47q38 0 65 -4q-6 117 -7 203q-24 -1 -71 -1 q-85 0 -173 6v118q86 -9 173 -9q47 0 70 1q0 19 -0.5 44t-1 41t-0.5 25q0 25 -6 65h142q-4 -27 -6 -64q-3 -66 -3 -103q94 10 153 23v-123q-78 -11 -154 -17q2 -89 11 -242q96 -39 191 -128l-67 -104q-62 58 -120 99q-5 -75 -51.5 -118.5t-142.5 -43.5q-103 0 -162.5 42.5 t-59.5 119.5zM474 134q0 -29 25.5 -43.5t66.5 -14.5q44 0 63 22.5t19 67.5v17q-41 11 -80 11q-42 0 -68 -16t-26 -44z" />
<glyph unicode="&#x3070;" d="M70 259q0 130 41 413q9 62 10 97l137 -11q-10 -24 -24 -89q-13 -58 -30 -186.5t-17 -196.5q0 -36 4 -64q8 21 24.5 58t19.5 44l62 -49q-56 -164 -72 -236q-5 -23 -5 -46q0 -28 1 -42l-111 -7q-40 130 -40 315zM331 109q0 77 59.5 124t160.5 47q37 0 64 -4q-6 118 -7 202 q-12 0 -35.5 -0.5t-34.5 -0.5q-86 0 -173 6l-1 119q85 -9 174 -9q46 0 69 1q0 27 -0.5 64.5t-0.5 44.5q0 32 -7 65h142q-4 -27 -6 -63q-3 -66 -3 -103q79 7 153 23v-124q-61 -9 -154 -16q2 -89 11 -242q94 -39 192 -128l-67 -105q-64 60 -121 99q-5 -75 -51.5 -118.5 t-142.5 -43.5q-103 0 -162 42.5t-59 119.5zM446 123q0 -29 25.5 -43.5t67.5 -14.5q44 0 62.5 22t18.5 68v17q-41 11 -79 11q-42 0 -68.5 -16.5t-26.5 -43.5zM757 790l68 21q29 -59 53 -136l-70 -24q-32 102 -51 139zM860 822l68 21q28 -58 55 -136l-69 -22q-33 96 -54 137z " />
<glyph unicode="&#x3071;" d="M70 259q0 130 41 413q9 62 10 97l137 -11q-10 -24 -24 -89q-13 -58 -30 -186.5t-17 -196.5q0 -36 4 -64q8 21 24.5 58t19.5 44l62 -49q-56 -164 -72 -236q-5 -23 -5 -46q0 -28 1 -42l-111 -7q-40 130 -40 315zM331 109q0 77 59.5 124t160.5 47q37 0 64 -4q-6 118 -7 202 q-12 0 -35.5 -0.5t-34.5 -0.5q-86 0 -173 6l-1 119q85 -9 174 -9q46 0 69 1q0 27 -0.5 64.5t-0.5 44.5q0 32 -7 65h142q-4 -27 -6 -63q-3 -66 -3 -103q79 7 153 23v-124q-61 -9 -154 -16q2 -89 11 -242q94 -39 192 -128l-67 -105q-64 60 -121 99q-5 -75 -51.5 -118.5 t-142.5 -43.5q-103 0 -162 42.5t-59 119.5zM446 123q0 -29 25.5 -43.5t67.5 -14.5q44 0 62.5 22t18.5 68v17q-41 11 -79 11q-42 0 -68.5 -16.5t-26.5 -43.5zM769 752q0 45 31.5 76.5t76.5 31.5t76.5 -31.5t31.5 -76.5t-31.5 -76t-76.5 -31t-76.5 31t-31.5 76zM828 752 q0 -20 14 -34t35 -14q20 0 34.5 14t14.5 34q0 21 -14.5 35t-34.5 14q-21 0 -35 -14.5t-14 -34.5z" />
<glyph unicode="&#x3072;" d="M93 702q27 0 56 3q80 6 183.5 23.5t151.5 33.5l37 -110q-44 -19 -49 -22q-66 -51 -135.5 -167t-69.5 -228q0 -78 44 -118.5t113 -40.5q148 0 214 163t7 428q-14 38 -21 58l120 37q54 -250 213 -410l-92 -99q-49 63 -90 134q3 -88 -16.5 -166t-61.5 -141.5t-114 -100.5 t-165 -37q-125 0 -201.5 75t-76.5 201q0 105 45.5 210t110.5 179q-67 -9 -128 -21q-10 -2 -28.5 -6.5t-29.5 -6.5z" />
<glyph unicode="&#x3073;" d="M69 686q28 0 57 3q81 6 184.5 23.5t150.5 34.5l37 -111q-33 -12 -49 -22q-66 -51 -135.5 -167t-69.5 -227q0 -79 44 -119.5t113 -40.5q148 0 214 163t7 428q-14 38 -21 58l120 37q54 -249 213 -410l-93 -98q-46 59 -89 132q3 -87 -16.5 -165.5t-61.5 -141.5t-114 -100 t-165 -37q-125 0 -201.5 75t-76.5 201q0 105 45.5 210t110.5 179q-67 -9 -128 -21q-42 -9 -58 -13zM739 781l75 23q40 -90 58 -144l-75 -25q-33 98 -58 146zM849 817l72 25q30 -58 62 -144l-75 -25q-33 94 -59 144z" />
<glyph unicode="&#x3074;" d="M69 686q28 0 57 3q81 6 184.5 23.5t150.5 34.5l37 -111q-33 -12 -49 -22q-66 -51 -135.5 -167t-69.5 -227q0 -79 44 -119.5t113 -40.5q148 0 214 163t7 428q-14 38 -21 58l120 37q54 -249 213 -410l-92 -98q-51 66 -90 133q3 -70 -8.5 -134t-39 -121t-69 -99 t-103.5 -66.5t-137 -24.5q-125 0 -201.5 75t-76.5 201q0 105 45.5 210t110.5 179q-67 -9 -128 -21q-42 -9 -58 -13zM756 723q0 48 34 81.5t82 33.5t82 -33.5t34 -81.5t-34 -82t-82 -34t-82 34t-34 82zM818 723q0 -23 15.5 -39t38.5 -16t39 16t16 39q0 22 -16 38t-39 16 q-22 0 -38 -15.5t-16 -38.5z" />
<glyph unicode="&#x3075;" d="M33 119q64 34 135.5 89.5t116.5 104.5l75 -97q-110 -118 -251 -204zM300 104q84 -23 153 -23q85 0 85 64q0 41 -36 97t-77 97q-45 43 -91 78l97 81q17 -17 45 -44.5t36 -35.5q83 -84 123.5 -152t40.5 -135q0 -92 -55 -132t-142 -40q-85 0 -160 14zM333 702l73 93 q169 -64 255 -119l30 -78q-101 -82 -142 -110l-80 72q52 39 61 46q-78 53 -197 96zM692 354l108 57q45 -56 95.5 -151.5t73.5 -167.5l-120 -64q-20 78 -64.5 172t-92.5 154z" />
<glyph unicode="&#x3076;" d="M19 112q63 33 135 89t117 105l75 -98q-112 -118 -252 -204zM286 97q81 -24 153 -24q85 0 85 65q0 41 -36.5 97t-76.5 96q-48 46 -92 78l98 82q15 -15 41.5 -41t38.5 -39q83 -84 123.5 -152.5t40.5 -134.5q0 -92 -55 -132t-142 -40q-86 0 -159 14zM318 695l74 92 q157 -57 255 -118l30 -78q-93 -76 -142 -111l-81 73q23 15 62 46q-79 53 -198 96zM678 347l108 57q45 -55 95 -151.5t73 -167.5l-120 -64q-18 76 -63 170t-93 156zM701 648l79 32q36 -51 80 -137l-80 -35q-51 100 -79 140zM820 693l79 32q41 -59 81 -136l-80 -34 q-37 77 -80 138z" />
<glyph unicode="&#x3077;" d="M19 112q63 33 135 89t117 105l75 -98q-112 -118 -252 -204zM286 97q81 -24 153 -24q85 0 85 65q0 41 -36.5 97t-76.5 96q-48 46 -92 78l98 82q15 -15 41.5 -41t38.5 -39q83 -84 123.5 -152.5t40.5 -134.5q0 -92 -55 -132t-142 -40q-86 0 -159 14zM318 695l74 92 q157 -57 255 -118l30 -78q-93 -76 -142 -111l-81 73q23 15 62 46q-79 53 -198 96zM678 347l108 57q45 -55 95 -151.5t73 -167.5l-120 -64q-18 76 -63 170t-93 156zM736 615q0 49 35 84.5t85 35.5t85 -35.5t35 -84.5t-35 -84t-85 -35t-85 35t-35 84zM798 615q0 -23 17 -40 t41 -17t41 17t17 40q0 24 -17 41.5t-41 17.5t-41 -17.5t-17 -41.5z" />
<glyph unicode="&#x3078;" d="M42 300q44 36 83 78q26 27 94.5 111.5t89.5 108.5q102 117 206 16q38 -38 112 -124.5t93 -107.5q132 -145 242 -243l-102 -117q-92 87 -219 236q-28 33 -92.5 112t-89.5 107q-27 28 -43 26.5t-39 -29.5q-23 -29 -83 -110t-69 -94q-13 -18 -34.5 -51t-28.5 -43z" />
<glyph unicode="&#x3079;" d="M34 283q42 32 84 77q26 27 94.5 112t88.5 109q102 116 206 15q39 -39 115.5 -128t89.5 -104q140 -150 242 -242l-103 -117q-71 66 -217 240q-21 25 -88 106.5t-94 111.5q-27 28 -44 26.5t-39 -29.5q-19 -25 -153 -203q-13 -18 -34 -52.5t-29 -45.5zM622 653l87 36 q60 -90 95 -160l-90 -39q-49 102 -92 163zM757 704l86 40q54 -72 98 -156l-87 -42q-48 92 -97 158z" />
<glyph unicode="&#x307a;" d="M34 283q42 32 84 77q26 27 94.5 112t88.5 109q102 116 206 15q39 -39 115.5 -128t89.5 -104q140 -150 242 -242l-103 -117q-71 66 -217 240q-21 25 -88 106.5t-94 111.5q-27 28 -44 26.5t-39 -29.5q-19 -25 -153 -203q-13 -18 -34 -52.5t-29 -45.5zM652 603q0 54 37.5 92 t92.5 38q54 0 92 -38t38 -92q0 -55 -38 -92.5t-92 -37.5q-55 0 -92.5 37.5t-37.5 92.5zM718 603q0 -26 18.5 -45t45.5 -19q26 0 44.5 19t18.5 45t-18.5 44.5t-44.5 18.5q-27 0 -45.5 -18.5t-18.5 -44.5z" />
<glyph unicode="&#x307b;" d="M96 271q0 138 40 414q9 61 9 97l138 -12q-9 -27 -23 -88q-13 -57 -29.5 -186.5t-16.5 -197.5q0 -40 4 -67q8 20 24.5 56.5t20.5 47.5l62 -49q-55 -158 -72 -236q-5 -23 -5 -46q0 -27 1 -41l-113 -8q-40 131 -40 316zM365 121q0 68 53.5 112t150.5 44q37 0 65 -4 q-4 74 -5 117q-110 -3 -225 3v115q116 -9 224 -6v124q-121 -2 -209 3v110q243 -19 471 13v-110q-63 -7 -147 -12v-123q67 3 168 15v-115q-64 -8 -167 -13q1 -60 7 -148q106 -38 203 -125l-65 -108q-64 65 -133 108v-10q0 -69 -45 -108t-138 -39q-91 0 -149.5 40t-58.5 117z M478 130q0 -27 21 -41.5t58 -14.5q81 0 81 77v23q-36 10 -73 10q-41 0 -64 -14.5t-23 -39.5z" />
<glyph unicode="&#x307c;" d="M70 257q0 145 39 414q9 60 10 97l138 -12q-10 -25 -24 -88q-13 -56 -29 -185.5t-16 -198.5q0 -47 4 -67q1 2 44 104l62 -49q-56 -161 -71 -236q-6 -28 -6 -46q0 -13 2 -41l-114 -8q-39 128 -39 316zM339 107q0 68 53 112t150 44q37 0 65 -4q-4 74 -5 117q-132 -2 -224 3 l-1 115q116 -9 224 -6v123q-101 -2 -209 4v110q206 -15 394 4q-16 42 -25 60l68 21q35 -74 53 -137l-58 -19v-29q-49 -6 -107 -9v-123q67 3 168 15v-115q-66 -8 -167 -13q1 -58 7 -149q106 -37 203 -124l-65 -108q-68 68 -133 108v-10q0 -69 -45.5 -108t-138.5 -39 q-91 0 -149 40t-58 117zM451 116q0 -27 21 -41.5t58 -14.5q81 0 81 77v23q-36 10 -73 10q-41 0 -64 -14.5t-23 -39.5zM865 820l68 22q31 -64 54 -136l-68 -23q-31 91 -54 137z" />
<glyph unicode="&#x307d;" d="M70 257q0 145 39 414q9 60 10 97l138 -12q-10 -25 -24 -88q-13 -56 -29 -185.5t-16 -198.5q0 -47 4 -67q1 2 44 104l62 -49q-56 -161 -71 -236q-6 -28 -6 -46q0 -13 2 -41l-114 -8q-39 128 -39 316zM339 107q0 68 53 112t150 44q37 0 65 -4q-4 74 -5 117q-132 -2 -224 3 l-1 115q116 -9 224 -6v123q-99 -2 -209 4v110q211 -17 390 4q-5 17 -5 33q0 45 31.5 76.5t76.5 31.5q44 0 76 -32t32 -76q0 -45 -32 -76.5t-76 -31.5q-36 0 -65 21v-51q-51 -6 -103 -9v-122q67 3 168 15v-115q-66 -8 -167 -13q1 -58 7 -149q106 -37 203 -124l-65 -108 q-68 68 -133 108v-10q0 -69 -45.5 -108t-138.5 -39q-91 0 -149 40t-58 117zM451 116q0 -27 21 -41.5t58 -14.5q81 0 81 77v23q-36 10 -73 10q-41 0 -64 -14.5t-23 -39.5zM836 762q0 -21 14 -35t35 -14q20 0 34.5 14t14.5 35q0 20 -14.5 34.5t-34.5 14.5q-21 0 -35 -14.5 t-14 -34.5z" />
<glyph unicode="&#x307e;" d="M166 112q0 76 66 123t179 47q31 0 61 -3q-2 28 -4 90h-51q-131 0 -238 13l1 117q93 -18 239 -18h47v103h-47q-120 0 -215 15l-1 113q98 -19 215 -19h49v45q0 44 -5 68h135q-6 -38 -7 -70l-1 -39q104 4 236 24l3 -114q-161 -15 -240 -19l-1 -103q115 5 264 23v-117 q-146 -16 -262 -20q5 -84 7 -115q150 -43 277 -150l-71 -111q-94 89 -200 137q1 -13 1 -35q0 -67 -50 -108.5t-145 -41.5q-118 0 -180 43t-62 122zM287 119q0 -28 26.5 -44.5t76.5 -16.5q43 0 65 16.5t22 56.5q0 25 -1 42q-46 7 -81 7q-51 0 -79.5 -17t-28.5 -44z" />
<glyph unicode="&#x307f;" d="M55 184q0 115 94.5 194t243.5 86q68 156 79 178q-104 -3 -169 -7q-35 -2 -81 -9l-5 128q35 -4 82 -4q116 0 208 8q38 3 67 15l79 -62q-23 -25 -33 -42q-27 -43 -97 -212q104 -16 213 -64q1 12 3 34q4 70 -1 108l130 -15q-7 -117 -19 -184q37 -21 106 -66l-57 -137 q-44 39 -85 69q-34 -86 -94 -151.5t-157 -116.5l-106 86q191 81 252 249q-117 64 -232 80q-79 -181 -115 -238q-57 -87 -154 -87q-67 0 -109.5 43t-42.5 117zM172 204q0 -21 11 -34t26 -13q28 0 52 34q25 37 81 159q-79 -12 -124.5 -54.5t-45.5 -91.5z" />
<glyph unicode="&#x3080;" d="M83 687q96 -14 160 -14h29v8q0 84 -10 125h139q-9 -52 -9 -124q94 13 176 35v-120q-78 -18 -176 -28v-128q29 -40 29 -100q0 -106 -53 -169v-39q0 -35 23 -49.5t105 -14.5q90 0 152 18q72 23 72 100q0 68 -7 122l137 -42q0 -95 -1 -116q-5 -72 -35.5 -113.5t-111.5 -66.5 q-66 -21 -215 -21q-66 0 -113 8.5t-71 21t-37.5 33.5t-16 37t-2.5 42v21q-5 -1 -16 -1q-60 0 -103 44.5t-43 133.5q0 88 51.5 146.5t131.5 58.5h4v66h-20q-64 0 -162 9zM189 299q0 -31 16 -49.5t39 -18.5q32 0 47.5 29t15.5 75q0 28 -13 44.5t-34 16.5q-30 0 -50.5 -27 t-20.5 -70zM650 632l84 83q44 -28 109 -87t101 -102l-90 -92q-41 50 -101.5 109t-102.5 89z" />
<glyph unicode="&#x3081;" d="M69 212q0 85 39.5 169t106.5 144q-16 46 -26 80q-16 52 -40 103l130 40q8 -44 22 -94q9 -33 18 -61q104 54 224 59q3 11 10 48q9 51 7 94l137 -13q-5 -16 -13.5 -56t-9.5 -44l-9 -38q118 -27 189 -116t71 -218q0 -152 -97.5 -244.5t-259.5 -116.5l-76 114 q154 13 228.5 83t74.5 171q0 82 -42.5 140t-117.5 78q-60 -204 -134 -315q30 -35 54 -59l-99 -79q-24 26 -34 39q-52 -56 -97 -81t-98 -25q-65 0 -111.5 53t-46.5 145zM186 222q0 -37 14.5 -58t41.5 -21q48 0 108 75q-46 72 -92 190q-72 -86 -72 -186zM355 485 q36 -99 70 -157q49 88 88 212q-84 -10 -158 -55z" />
<glyph unicode="&#x3082;" d="M88 310l7 120q83 -28 195 -39q3 23 8.5 68.5t8.5 66.5q-111 11 -197 35l7 115q80 -27 203 -37q3 19 8 79q4 54 2 88l139 -8q-11 -51 -17 -88q-2 -9 -5.5 -34.5t-5.5 -40.5q112 2 182 12l-4 -118q-89 -9 -193 -9q-10 -73 -17 -135h7q88 0 199 12l-3 -118q-101 -9 -175 -9 h-40q-4 -58 -4 -72q0 -61 37.5 -93.5t110.5 -32.5q101 0 157.5 40.5t56.5 104.5q0 95 -102 192l139 30q96 -122 96 -238q0 -114 -95.5 -185.5t-255.5 -71.5q-123 0 -194.5 57t-71.5 176q0 28 7 100q-112 11 -190 33z" />
<glyph unicode="&#x3083;" d="M98 346q60 16 88 27q22 9 70 29q-16 34 -34 64q-26 44 -48 69l124 47q18 -33 30 -58l38 -76q196 82 281 82q101 0 155 -52t54 -124q0 -94 -53.5 -146.5t-161.5 -52.5q-66 0 -124 25l3 114q57 -26 112 -26q50 0 76 23t26 62q0 27 -24 46.5t-67 19.5q-73 0 -231 -69 q11 -24 25 -57q57 -130 123 -346l-125 -30q-36 150 -108 328q-7 17 -23 55q-34 -16 -85.5 -42t-64.5 -32zM393 596l87 64q59 -39 110 -94l-90 -65q-51 55 -107 95z" />
<glyph unicode="&#x3084;" d="M43 451q65 15 98 32q29 11 89 37q-29 58 -44 84q-24 43 -58 87l128 49q32 -64 40 -77q27 -52 46 -94q226 100 341 100q112 0 179 -59.5t67 -148.5q0 -104 -66.5 -165t-180.5 -61q-78 0 -152 28l3 124q76 -33 136 -33q58 0 93.5 29.5t35.5 81.5q0 40 -31.5 66t-86.5 26 q-96 0 -291 -90l28 -61q85 -200 156 -431l-137 -35q-61 245 -133 411l-26 61q-27 -13 -89.5 -45t-86.5 -43zM384 766l91 64q72 -54 132 -114l-94 -68q-86 86 -129 118z" />
<glyph unicode="&#x3085;" d="M173 281q0 109 20 255q3 24 1 50l128 -10q-9 -25 -15 -52q-24 -98 -25 -160q38 63 98 104.5t129 57.5q-2 22 -8 48q-4 20 -15 55l122 2q8 -46 13 -95q115 -6 180.5 -70.5t65.5 -162.5q0 -114 -70.5 -189t-200.5 -75q-13 0 -19 1q-42 -78 -110 -128l-108 62q63 39 102 99 q-74 41 -111 117l63 91q40 -75 92 -103q17 68 17 157q0 47 -3 90q-88 -23 -145.5 -89t-69.5 -139q-4 -19 -4 -39q4 -63 10 -86l-107 -14q-30 95 -30 223zM619 157q131 13 131 145q0 113 -119 130q4 -47 4 -108q0 -95 -16 -167z" />
<glyph unicode="&#x3086;" d="M111 381q0 37 3 84t6.5 79t8.5 75.5t6 53.5q5 33 3 59l135 -11q-11 -34 -19 -60q-29 -122 -26 -207q96 169 279 211q-8 55 -11 67q-12 56 -17 69l130 3q11 -65 18 -127q133 -6 213 -85t80 -198q0 -133 -83 -216t-237 -83q-12 0 -18 1q-48 -103 -136 -167l-120 70 q81 45 130 130q-96 47 -142 141l71 90q47 -91 114 -123q22 82 22 192q0 45 -4 129q-109 -28 -179 -114.5t-87 -177.5q-4 -23 -4 -48q0 -41 12 -97l-113 -15q-35 117 -35 275zM623 218q82 7 127 53.5t45 120.5q0 70 -39.5 118t-118.5 57q5 -75 5 -139q0 -116 -19 -210z" />
<glyph unicode="&#x3087;" d="M182 81q0 72 59.5 114.5t166.5 42.5q13 0 39 -2q-5 140 -5 159v140q0 62 -8 98h134q-8 -38 -8 -97v-46q135 4 228 14l3 -110q-83 -8 -231 -12q0 -25 7 -170q134 -44 241 -143l-68 -107q-85 85 -166 129v-25q0 -62 -40.5 -101t-132.5 -39q-95 0 -157 40t-62 115zM296 87 q0 -22 24.5 -36.5t65.5 -14.5q66 0 66 70v29q-32 5 -59 5q-97 0 -97 -53z" />
<glyph unicode="&#x3088;" d="M110 126q0 81 69.5 133t200.5 52q30 0 59 -3q-7 180 -7 214q0 77 -2 161q-2 81 -10 116h149q-5 -35 -9 -116v-72q182 5 276 15l5 -118q-98 -9 -281 -14q3 -98 11 -211q177 -53 301 -170l-76 -118q-102 102 -219 155q1 -13 1 -34q0 -75 -48 -123t-163 -48 q-116 0 -186.5 43t-70.5 138zM238 132q0 -67 119 -67q47 0 67 22t20 72q0 21 -1 34q-45 7 -82 7q-58 0 -90.5 -18t-32.5 -50z" />
<glyph unicode="&#x3089;" d="M159 208q38 196 49 413l134 -18q-18 -76 -37 -231q130 94 291 94q126 0 200.5 -66.5t74.5 -160.5q0 -71 -29.5 -126.5t-92.5 -96.5t-173 -57.5t-260 -3.5l-38 130q216 -31 335 14t119 143q0 48 -41.5 79.5t-106.5 31.5q-84 0 -155.5 -30t-117.5 -86q-27 -33 -37 -58z M304 682l32 120q65 -20 193.5 -44.5t202.5 -32.5l-30 -122q-70 9 -202 35.5t-196 43.5z" />
<glyph unicode="&#x308a;" d="M191 385q0 127 28 317q6 42 8 104l136 -6q-29 -100 -40 -205q41 66 104.5 113t140.5 47q106 0 175.5 -96.5t69.5 -256.5q0 -382 -434 -462l-75 115q71 11 124 26t102 41.5t80 63t49.5 91t18.5 124.5q0 114 -35.5 176t-97.5 62q-83 0 -151.5 -101t-72.5 -205 q-2 -52 5 -105l-123 -8q-12 91 -12 165z" />
<glyph unicode="&#x308b;" d="M92 271q36 29 128 106t120 100q10 8 94 77.5t113 94.5q-129 -3 -239 -11q-44 -2 -81 -8l-4 129q47 -5 90 -5q208 0 320 10q51 4 76 10l64 -88q-36 -22 -69 -45q-15 -10 -219 -175q40 11 93 11q127 0 211.5 -70.5t84.5 -178.5q0 -123 -93 -201.5t-265 -78.5 q-105 0 -173.5 44.5t-68.5 117.5q0 62 50.5 108t127.5 46q88 0 143.5 -47.5t67.5 -121.5q81 43 81 135q0 66 -58.5 107.5t-146.5 41.5q-106 0 -187 -50t-170 -151zM391 122q0 -28 28 -45t72 -17q31 0 58 3q-5 48 -31 77t-66 29q-27 0 -44 -14t-17 -33z" />
<glyph unicode="&#x308c;" d="M46 173q117 142 212 283l4 69q-23 -3 -87 -11t-93 -12l-12 127q42 -2 86 1t114 13q4 74 4 76q0 64 -4 88l145 -4q-10 -45 -22 -141l37 -47q-14 -18 -51 -75q0 -7 -2 -21q169 147 288 147q76 0 116 -40.5t40 -105.5q0 -52 -16.5 -176t-16.5 -175q0 -43 38 -43q59 0 127 70 l17 -139q-78 -75 -186 -75q-56 0 -90 40t-34 110q0 56 17.5 178t17.5 165q0 73 -66 73q-51 0 -122.5 -52.5t-139.5 -127.5q-2 -56 -2 -80q0 -164 6 -257q0 -8 1.5 -21.5t3 -30.5t2.5 -24h-136q3 32 3 73q1 40 2 108.5t2 109.5q-123 -181 -125 -183z" />
<glyph unicode="&#x308d;" d="M89 263q67 62 236 207t200 174q-31 -1 -114 -5.5t-98 -5.5q-34 -3 -78 -9l-5 129q42 -5 77 -5q199 0 315 7q45 4 71 11l66 -87q-20 -11 -55 -33q-147 -106 -227 -175q45 14 100 14q129 0 211.5 -67.5t82.5 -171.5q0 -152 -130.5 -233.5t-388.5 -60.5l-36 129 q198 -26 308.5 18.5t110.5 146.5q0 59 -51 96t-134 37q-61 0 -114.5 -17t-101 -52.5t-78 -65t-75.5 -79.5z" />
<glyph unicode="&#x308e;" d="M135 136q32 35 89 110t92 128l3 44q-101 -14 -155 -26l-10 104q39 0 66 3q48 4 106 14q1 17 2.5 42t1.5 29q3 37 -2 72l125 -3q-8 -37 -20 -133l27 -31q-16 -22 -36 -49l-2 -19q115 80 225 80q105 0 170 -63t65 -160q0 -258 -310 -313l-55 108q249 34 249 208 q0 47 -36 81.5t-99 34.5q-105 0 -217 -95q-1 -20 -1 -56q0 -108 8 -231q0 -15 5 -60h-122q3 51 3 58q1 48 3 191q-102 -156 -107 -163z" />
<glyph unicode="&#x308f;" d="M46 173q117 142 212 283l4 69q-23 -3 -87 -11t-93 -12l-12 127q42 -2 86 1t114 13q4 74 4 76q0 64 -4 88l145 -4q-10 -45 -22 -141l37 -47q-14 -18 -51 -75q-1 -5 -1 -14.5t-1 -14.5q137 103 291 103q116 0 194.5 -74.5t78.5 -192.5q0 -295 -371 -369l-59 120 q298 46 298 252q0 60 -44.5 103.5t-116.5 43.5q-144 0 -281 -127q-2 -56 -2 -82q0 -164 6 -257q0 -8 1.5 -21.5t3 -30.5t2.5 -24h-136q3 32 3 73q1 40 2 108.5t2 109.5q-74 -111 -125 -183z" />
<glyph unicode="&#x3090;" d="M73 131q0 143 103.5 265t259.5 163q17 55 30 107q-79 -1 -258 -17l-7 122q37 -4 71 -4q113 -3 208 5q40 5 67 14l75 -57q-25 -42 -37 -76q-3 -10 -12 -37t-13 -40h4q152 0 247 -88t95 -227q0 -133 -74.5 -222t-216.5 -89q-81 0 -132 39t-51 108q0 61 45.5 104t113.5 43 q116 0 166 -94q25 50 25 114q0 93 -59.5 150t-159.5 57q-12 0 -38 -2l-43 -129q-76 -218 -150 -302q-48 -54 -133 -54q-51 0 -88.5 39.5t-37.5 107.5zM185 165q0 -20 9 -31.5t22 -11.5q27 0 47 26q57 74 127 270l5 16q-95 -46 -152.5 -128t-57.5 -141zM534 107 q0 -22 19.5 -36.5t49.5 -14.5q40 0 73 14q-19 84 -85 84q-24 0 -40.5 -12.5t-16.5 -34.5z" />
<glyph unicode="&#x3091;" d="M49 5q173 180 278 268q-44 33 -44 85q0 50 48.5 82.5t115.5 32.5q69 0 110 -28.5t41 -71.5q0 -20 -10 -42q53 12 85 39t32 64q0 44 -46.5 73.5t-114.5 29.5q-101 0 -176 -36q-84 -40 -191 -133l-75 92q171 110 378 227q-224 -12 -243 -14l-5 103q51 -3 88 -3q205 0 283 8 q34 2 71 13l67 -87q-41 -11 -106 -39.5t-117 -57.5q30 5 71 5q107 -1 174 -52.5t67 -126.5q0 -70 -45.5 -119.5t-115 -71t-155.5 -21.5q-33 0 -68 5q-32 -24 -73 -56q77 2 122 -79q35 49 86 77t106 28q85 0 150 -57t105 -151l-127 -48q-48 150 -139 150q-37 0 -67 -26.5 t-48 -71.5q-9 -25 -9 -43l-128 1q-4 32 -7 45q-25 89 -97 89q-43 0 -80.5 -37.5t-82.5 -106.5zM382 369q0 -35 76 -43q34 20 34 45q0 15 -15 24t-39 9q-22 0 -39 -9.5t-17 -25.5z" />
<glyph unicode="&#x3092;" d="M75 313q152 141 218 272h-12q-91 0 -167 7v116q69 -11 174 -11h48q18 69 20 113l130 -11q-12 -59 -24 -98q173 9 280 29l-1 -116q-126 -19 -323 -26q-26 -58 -57 -100q40 20 112 20q99 0 132 -77q5 3 134 59q19 8 109 51l50 -115q-41 -10 -118 -42q-95 -37 -161 -67 q1 -32 2.5 -98.5t1.5 -74.5h-119q2 27 4 118q-113 -62 -113 -128q0 -40 34 -55t110 -15q141 0 281 29l-4 -129q-132 -16 -280 -16q-272 0 -272 165q0 45 19.5 85.5t55.5 73t73 56.5t85 49q-22 34 -69 34q-40 0 -82.5 -19.5t-72.5 -48.5q-28 -28 -92 -109z" />
<glyph unicode="&#x3093;" d="M59 0q48 131 163.5 370t170.5 338q4 9 13.5 27t18.5 36.5t17 37.5l141 -57q-2 -3 -32 -46q-34 -50 -173 -296q53 30 113 30q55 0 87.5 -34t35.5 -96q0 -9 0.5 -75t4.5 -90q4 -54 63 -54t101.5 65.5t65.5 168.5l107 -87q-84 -283 -296 -283q-77 0 -119 40t-45 98 q-2 28 -3.5 92t-2.5 82q-5 55 -58 55q-48 0 -88.5 -41.5t-69.5 -107.5q-30 -65 -75 -220z" />
<glyph unicode="&#x309b;" d="M10 766l86 34q33 -45 97 -165l-89 -37q-70 133 -94 168zM140 815l87 37q40 -57 98 -165l-88 -37q-63 121 -97 165z" />
<glyph unicode="&#x309c;" d="M29 708q0 49 34.5 84t83.5 35t84 -35t35 -84t-35 -84t-84 -35t-83.5 35t-34.5 84zM88 708q0 -24 17.5 -42t41.5 -18t41.5 18t17.5 42t-17.5 41t-41.5 17t-41.5 -17t-17.5 -41z" />
<glyph unicode="&#x309d;" d="M297 583l111 81q91 -83 206 -208.5t164 -193.5l-33 -103q-90 -31 -320 -124l-63 123q37 14 135.5 52.5t106.5 41.5q-36 56 -134 160.5t-173 170.5z" />
<glyph unicode="&#x309e;" d="M259 562l110 82q92 -84 207 -209.5t164 -193.5l-33 -103q-105 -36 -320 -123l-63 123q36 13 138 53t104 41q-37 56 -135 161t-172 169zM512 685l84 34q29 -41 91 -153l-87 -36q-73 133 -88 155zM646 727l86 35q48 -70 91 -153l-86 -36q-60 113 -91 154z" />
<glyph unicode="&#x30a1;" d="M166 438v129q50 -8 104 -8h464q59 0 81 7l74 -67q-18 -19 -30 -40q-34 -54 -92.5 -127t-106.5 -110l-100 70q41 28 83 73t61 79h-434q-48 0 -104 -6zM200 -12q43 17 81 43q79 54 106.5 121t27.5 171q0 34 -7 71h138q-5 -155 -21 -221q-36 -154 -179 -246q-19 -12 -40 -24 z" />
<glyph unicode="&#x30a2;" d="M113 613v139q63 -10 122 -10h539q74 0 101 9l80 -74q-27 -32 -39 -52q-42 -70 -107.5 -148t-133.5 -126l-103 83q56 34 109.5 90t74.5 96h-521q-40 0 -122 -7zM153 39q56 19 105 55q90 62 120.5 143t30.5 215q0 45 -7 90h145q0 -51 -0.5 -81.5t-3 -76.5t-7.5 -75.5 t-15 -69.5t-24 -68t-35 -61.5t-48 -60t-63.5 -54t-81.5 -51.5z" />
<glyph unicode="&#x30a3;" d="M104 284q91 19 189.5 58t163.5 77q78 46 149 103t108 105l100 -93q-77 -85 -225 -181v-333q0 -85 7 -108h-148q5 33 5 108v257q-156 -75 -282 -109z" />
<glyph unicode="&#x30a4;" d="M62 401q249 54 455 181q77 48 148 109.5t113 116.5l107 -97q-124 -124 -265 -215v-409q0 -99 9 -131h-158q7 42 7 131v328q-179 -91 -344 -136z" />
<glyph unicode="&#x30a5;" d="M166 518q45 -5 96 -5h171v53q0 34 -7 74h140q-5 -42 -5 -74v-53h139q50 0 70 7l87 -46q-9 -25 -15 -68q-9 -56 -32.5 -128t-52.5 -124q-48 -88 -141 -152.5t-209 -92.5l-99 113q69 11 122 32q128 47 192 138q65 92 75 205h-405v-117q0 -36 3 -60h-127q4 40 4 67v152 q0 19 -6 79z" />
<glyph unicode="&#x30a6;" d="M110 310q5 42 5 84v173q0 56 -5 86q44 -5 102 -5h214v77q0 43 -8 92h154q-7 -60 -7 -92v-77h174q52 0 83 11l87 -53q-9 -24 -20 -80q-29 -164 -93 -283q-59 -110 -166 -187.5t-242 -112.5l-104 120q75 13 141 39q147 55 227 171q67 96 89 257h-496v-146q0 -44 3 -74h-138 z" />
<glyph unicode="&#x30a7;" d="M146 -27v131q52 -6 82 -6h204v322h-156q-35 0 -79 -4v126q28 -5 79 -5h458q38 0 78 5v-126q-50 4 -78 4h-171v-322h217q16 0 76 6v-131q-26 5 -76 5h-552q-48 0 -82 -5z" />
<glyph unicode="&#x30a8;" d="M75 20v145q41 -8 98 -8h254v408h-193q-45 0 -95 -4v137q39 -6 95 -6h544q36 0 94 6v-137q-60 4 -94 4h-211v-408h265q43 0 93 8v-145q-35 5 -93 5h-659q-57 0 -98 -5z" />
<glyph unicode="&#x30a9;" d="M149 96q103 48 199.5 122.5t150.5 146.5h-214q-36 0 -94 -4v123q48 -6 91 -6h272q0 23 -2 61q-2 40 -8 83h129q-4 -32 -4 -83l1 -61h118q30 0 81 6v-121q-46 2 -76 2h-120q6 -227 7 -357q1 -39 -26 -63.5t-71 -24.5q-80 0 -155 5l-8 114q62 -9 115 -9q26 0 26 31 q0 46 -2 198q-53 -68 -144.5 -142.5t-178.5 -120.5z" />
<glyph unicode="&#x30aa;" d="M60 159q140 66 258 161.5t182 185.5h-273q-44 0 -114 -4v133q51 -7 111 -7h331q-1 39 -3 72q-4 60 -10 101h142q-6 -46 -6 -101l1 -72h125q56 0 104 8v-133q-96 3 -97 3h-129q8 -412 9 -448q1 -49 -27.5 -75t-84.5 -26q-89 0 -174 6l-11 130q68 -12 133 -12q35 0 35 42 q0 167 -2 270q-68 -89 -180 -182.5t-228 -155.5z" />
<glyph unicode="&#x30ab;" d="M83 49q76 42 131 98q132 131 165 356h-132q-89 0 -132 -4v131q74 -7 132 -7h143q2 56 2 87q0 50 -7 92h147q-3 -26 -6 -89q-2 -60 -4 -90h188q32 0 76 7l86 -42q-7 -40 -7 -53q-14 -383 -59 -489q-33 -77 -129 -77q-68 0 -166 8l-15 134q76 -14 140 -14q41 0 57 35 q20 43 31 158.5t11 212.5h-225q-27 -195 -101 -323t-210 -225z" />
<glyph unicode="&#x30ac;" d="M63 39q78 43 131 97q132 131 165 357h-132q-78 0 -132 -5v132q59 -7 132 -7h143q2 56 2 87q0 50 -7 92h147q-3 -27 -6 -90q-2 -58 -4 -89h188q41 0 76 7l86 -43q-7 -37 -7 -52q-14 -384 -59 -490q-33 -76 -129 -76q-68 0 -166 8l-15 133q86 -14 140 -14q41 0 57 36 q20 43 31 158.5t11 212.5h-225q-27 -196 -101 -323.5t-210 -224.5zM690 768l79 32q33 -48 79 -137l-80 -34q-43 89 -78 139zM808 813l79 33q45 -65 81 -136l-80 -35q-37 77 -80 138z" />
<glyph unicode="&#x30ad;" d="M91 587q51 2 93 7q67 8 198 29q-5 24 -11 54.5t-7 36.5q-6 28 -20 76l141 23q0 -2 4 -33t7 -45q1 -10 16 -92q178 29 197 33q62 12 94 21l24 -131q-6 -1 -92 -12l-200 -32l31 -159q192 32 217 37q72 15 102 24l26 -132q-20 -2 -105 -15q-63 -11 -217 -35q9 -47 21.5 -108 t14.5 -72q8 -33 26 -98l-144 -26q-12 92 -14 101q-6 37 -34 182q-179 -30 -239 -41q-68 -13 -100 -21l-28 134q23 1 104 11q3 0 240 38l-30 160q-53 -8 -123.5 -20t-72.5 -12q-53 -11 -92 -21z" />
<glyph unicode="&#x30ae;" d="M76 569q58 4 93 7q67 8 198 29q-5 24 -11 54.5t-7 36.5q-7 32 -20 76l141 23q0 -2 4 -33t7 -45q3 -25 17 -92q184 31 196 33l57 12q-40 79 -69 121l79 33q40 -60 80 -137l-50 -22l21 -117q-6 -1 -92 -12l-200 -32l31 -159q192 32 217 37q54 11 102 24l26 -132 q-20 -2 -105 -15q-63 -10 -217 -35q8 -43 20.5 -104.5t15.5 -75.5q8 -33 26 -98l-144 -25q-13 96 -14 101q-7 40 -34 181q-179 -30 -239 -41q-81 -15 -99 -20l-29 133q23 1 104 11q3 0 240 38l-30 160q-53 -8 -123.5 -20t-72.5 -12q-53 -11 -92 -21zM800 836l79 33 q40 -56 81 -136l-79 -35q-44 87 -81 138z" />
<glyph unicode="&#x30af;" d="M70 401q194 118 312 322q31 51 45 105l146 -48q-26 -38 -61 -102l-3 -5h201q48 0 87 12l102 -63q-22 -38 -33 -72q-57 -189 -174 -334q-74 -90 -170.5 -158.5t-233.5 -123.5l-118 106q143 43 236.5 103.5t166.5 143.5q49 56 89 135t53 138h-281q-113 -147 -252 -242z" />
<glyph unicode="&#x30b0;" d="M39 379q197 118 312 321q29 46 45 105l147 -48q-31 -45 -62 -102l-3 -5h201q49 0 87 12l7 -4q-43 85 -73 129l79 32q33 -48 79 -137l-74 -31l85 -52q-22 -38 -33 -71q-57 -190 -175 -334q-147 -181 -403 -283l-118 106q143 43 236 103.5t167 144.5q49 55 89 134t53 138 h-282q-111 -147 -252 -242zM818 832l79 32q41 -59 81 -136l-80 -34q-40 83 -80 138z" />
<glyph unicode="&#x30b1;" d="M42 369q89 66 173 206q31 51 58 136q18 50 21 103l154 -31q-9 -19 -32 -81q-26 -68 -28 -73h431q65 0 104 7v-137q-37 4 -104 4h-140q-26 -384 -303 -558l-135 90q59 24 95 56q183 140 204 412h-211q-74 -134 -161 -210z" />
<glyph unicode="&#x30b2;" d="M33 345q88 67 173 206q33 57 58 137q18 50 21 102l154 -30q-13 -29 -32 -82q-22 -58 -28 -72h431q66 0 104 7v-137q-49 4 -104 4h-140q-26 -384 -303 -558l-135 90q56 23 95 56q183 140 204 412h-211q-73 -133 -162 -210zM692 776l80 32q33 -48 79 -137l-80 -34 q-49 96 -79 139zM811 821l79 33q48 -70 80 -136l-79 -35q-43 86 -80 138z" />
<glyph unicode="&#x30b3;" d="M144 24v143q70 -6 125 -6h461v414h-449q-68 0 -124 -4v139q56 -6 124 -6h503q54 0 88 2q-3 -69 -3 -92v-518q0 -58 4 -118h-145q1 16 1 52h-456q-63 0 -129 -6z" />
<glyph unicode="&#x30b4;" d="M121 -8v143q68 -6 124 -6h462v414h-450q-68 0 -124 -4v139q57 -6 124 -6h482q-34 72 -74 129l82 34q43 -62 78 -134l-69 -29h5q53 0 87 2q-3 -69 -3 -92v-518q0 -68 5 -118h-145q1 16 1 52h-457q-62 0 -128 -6zM799 833l83 34q38 -55 80 -132l-83 -36q-52 96 -80 134z " />
<glyph unicode="&#x30b5;" d="M58 471v136q54 -9 108 -9h85v99q0 33 -6 90h142q-6 -38 -6 -91v-98h237v105q0 53 -6 93h142q-6 -60 -6 -93v-105h74q72 0 110 7v-133q-33 3 -110 3h-74v-33q0 -98 -13.5 -169.5t-46.5 -135.5t-92.5 -112.5t-148.5 -87.5l-107 101q102 35 159.5 79.5t88 121.5t30.5 198v38 h-237v-136q0 -25 4 -105h-140q6 40 6 105v136h-85q-64 0 -108 -4z" />
<glyph unicode="&#x30b6;" d="M41 456v136q60 -10 108 -10h85v100q0 33 -6 90h142q-6 -57 -6 -91v-99h237v106q0 54 -6 92h143q-7 -47 -7 -92v-106h74q67 0 110 8v-133q-33 3 -109 3h-75v-33q0 -197 -63.5 -313t-237.5 -193l-107 101q152 53 215 137.5t63 262.5v38h-237v-136q0 -25 4 -105h-140 q6 40 6 105v136h-85q-64 0 -108 -4zM750 756l67 22q35 -74 53 -137l-69 -22q-33 99 -51 137zM852 788l68 22q30 -64 55 -136l-69 -22q-29 90 -54 136z" />
<glyph unicode="&#x30b7;" d="M82 453l73 111q118 -64 228 -141l-73 -112q-145 99 -228 142zM123 82q195 33 341 112q126 70 227 168.5t162 206.5l77 -136q-144 -213 -398 -359q-74 -42 -169 -76.5t-165 -47.5zM236 682l73 110q113 -63 228 -143l-75 -111q-127 89 -226 144z" />
<glyph unicode="&#x30b8;" d="M69 449l72 110q117 -62 229 -141l-73 -112q-125 87 -228 143zM110 77q197 33 340 113q127 71 228 169t161 206l77 -136q-139 -209 -397 -360q-74 -41 -169.5 -75.5t-164.5 -47.5zM223 677l72 110q101 -55 228 -143l-74 -110q-120 84 -226 143zM646 733l83 35 q53 -76 92 -155l-87 -37q-43 93 -88 157zM782 781l85 35q43 -55 94 -149l-85 -38q-40 80 -94 152z" />
<glyph unicode="&#x30b9;" d="M76 66q114 43 224 122.5t186 164.5q50 57 91.5 124.5t57.5 120.5h-339q-19 0 -43 -1.5t-46.5 -3.5t-28.5 -2v142q47 -7 118 -7h352q67 0 104 13l82 -61q-19 -26 -35 -62q-67 -155 -157 -275q70 -61 150.5 -144t128.5 -142l-114 -99q-94 130 -252 283q-176 -186 -376 -281 z" />
<glyph unicode="&#x30ba;" d="M56 42q114 42 223.5 121.5t186.5 165.5q50 57 91.5 124.5t57.5 120.5h-339q-19 0 -43 -1.5t-46.5 -3.5t-28.5 -2v142q47 -7 118 -7h353q69 0 103 12l12 -9q-30 57 -55 94l79 33q43 -62 80 -137l-57 -24l23 -17q-22 -34 -35 -63q-66 -152 -157 -274q70 -61 150.5 -144 t128.5 -142l-114 -100q-98 135 -252 283q-180 -188 -376 -280zM815 834l79 33q40 -56 81 -136l-79 -34q-45 87 -81 137z" />
<glyph unicode="&#x30bb;" d="M48 493q65 8 234 39v143q0 66 -8 114h149q-9 -54 -9 -114v-118q203 37 331 66q48 12 71 24l96 -75q-27 -42 -33 -54q-37 -70 -97 -156t-110 -135l-110 65q46 41 91.5 100t68.5 102q-13 -2 -58 -11l-117.5 -23.5l-132.5 -26.5v-265q0 -49 24 -66.5t103 -17.5q144 0 316 33 l-4 -135q-152 -22 -310 -22q-85 0 -137 10t-79 33t-36 52.5t-9 77.5v273q-167 -34 -210 -44z" />
<glyph unicode="&#x30bc;" d="M34 474q65 8 234 39v142q0 67 -8 115h149q-9 -54 -9 -115v-117q204 38 330 66q49 12 71 24l96 -75q-22 -35 -32 -54q-37 -70 -97 -156t-110 -135l-110 65q46 41 90.5 99.5t68.5 102.5q-14 -3 -57 -11.5t-119.5 -23.5t-130.5 -26v-265q0 -49 24 -66.5t103 -17.5 q144 0 316 33l-4 -135q-152 -22 -311 -22q-84 0 -136 10t-79 33t-36 52.5t-9 77.5v273q-167 -34 -210 -44zM694 785l80 33q36 -53 79 -137l-80 -35q-51 100 -79 139zM813 830l79 33q48 -70 80 -136l-79 -35q-43 86 -80 138z" />
<glyph unicode="&#x30bd;" d="M95 682l128 66q70 -98 173 -293l-132 -75q-84 182 -169 302zM244 59q216 89 342 271q82 119 118 302q15 69 13 121l162 -23q-8 -27 -30 -116q-46 -209 -139 -351q-130 -201 -347 -307z" />
<glyph unicode="&#x30be;" d="M78 656l129 66q73 -106 172 -293l-132 -75q-84 182 -169 302zM227 33q97 41 174.5 98.5t122.5 110t79 117.5t48 108.5t26 94.5q17 77 15 118l57 -11q-35 75 -77 132l83 34q43 -62 78 -134l-79 -33l96 -19q-14 -45 -29 -106q-17 -67 -36.5 -122.5t-57 -127t-85.5 -130.5 t-124 -121.5t-171 -111.5zM807 833l83 34q38 -55 80 -132l-83 -36q-52 96 -80 134z" />
<glyph unicode="&#x30bf;" d="M59 401q198 122 319 332q31 49 45 105l145 -45q-22 -32 -62 -102l-1 -1h205q52 0 87 11l102 -63q-20 -34 -33 -71q-49 -144 -138 -274q52 -32 96 -64l-91 -117q-33 29 -93 71q-152 -166 -369 -249l-116 101q220 67 373 224q-98 63 -187 114l85 95q83 -42 188 -105 q80 115 104 213h-287q-120 -160 -264 -258z" />
<glyph unicode="&#x30c0;" d="M36 377q195 120 318 332q30 48 45 105l145 -45q-26 -38 -61 -102l-1 -1h205q45 0 79 9q-37 71 -66 114l79 32q33 -48 79 -137l-56 -24l73 -45q-20 -37 -33 -72q-45 -140 -138 -273q72 -47 96 -64l-90 -118q-25 22 -93 71q-155 -167 -369 -249l-116 101q221 67 372 224 q-93 61 -186 114l84 95q83 -42 188 -105q80 115 104 213h-287q-120 -159 -263 -258zM818 834l79 32q45 -64 81 -136l-80 -34q-40 83 -80 138z" />
<glyph unicode="&#x30c1;" d="M78 350v129q54 -6 92 -6h282v142q-93 -8 -268 -13l-31 116q196 -5 341 16q175 24 252 60l82 -110q-19 -5 -45 -11.5t-32 -7.5q-68 -18 -168 -33v-159h252q25 0 91 6v-129q-54 4 -88 4h-259q-24 -273 -256 -411l-127 86q222 102 251 325h-275q-42 0 -94 -4z" />
<glyph unicode="&#x30c2;" d="M54 338v129q54 -6 92 -6h281v142q-94 -8 -267 -13l-32 116q203 -5 342 16q177 25 252 60l82 -110q-19 -5 -45 -11.5t-32 -7.5q-65 -17 -168 -33v-159h252q34 0 91 5v-128q-41 3 -88 3h-259q-26 -273 -256 -411l-127 86q221 103 250 325h-275q-54 0 -93 -3zM710 607l74 31 q41 -59 71 -122l-75 -33q-40 82 -70 124zM822 648l73 34q38 -54 75 -120l-74 -35q-37 71 -74 121z" />
<glyph unicode="&#x30c3;" d="M153 499l120 43q43 -87 93 -228l-122 -46q-14 46 -44 123t-47 108zM274 15q88 23 180.5 79t151.5 130q51 63 85 155.5t42 187.5l141 -45q-10 -28 -24 -73q-45 -175 -136 -293q-67 -86 -155 -149.5t-180 -98.5zM386 556l119 39q49 -112 82 -219l-120 -42q-9 37 -35.5 110 t-45.5 112z" />
<glyph unicode="&#x30c4;" d="M67 673l128 44q24 -48 61.5 -139t54.5 -141l-129 -47q-15 50 -54.5 146.5t-60.5 136.5zM231 64q109 31 215.5 98.5t179.5 159.5q59 75 100.5 193t53.5 227l149 -43q-13 -33 -25 -78q-61 -236 -168 -376q-77 -101 -179.5 -176t-213.5 -117zM348 738l125 41q19 -38 55 -129 t50 -139l-126 -44q-15 49 -48.5 137.5t-55.5 133.5z" />
<glyph unicode="&#x30c5;" d="M51 643l128 45q76 -163 116 -280l-129 -47q-17 53 -56 149t-59 133zM215 35q109 31 215.5 98.5t179.5 159.5q107 135 144 358l146 -34q-1 -1 -25 -78q-56 -191 -155 -323q-76 -101 -179.5 -176.5t-213.5 -116.5zM332 709l125 41q19 -37 54.5 -128t50.5 -140l-126 -44 q-15 49 -48.5 137.5t-55.5 133.5zM678 802l83 34q39 -57 78 -134l-83 -35q-39 81 -78 135zM813 834l83 34q41 -59 80 -133l-83 -35q-52 96 -80 134z" />
<glyph unicode="&#x30c6;" d="M85 380v131q60 -6 96 -6h655q50 0 91 6v-130q-38 3 -91 3h-241q-9 -149 -64 -257q-27 -53 -81.5 -106t-119.5 -86l-117 85q52 20 101 59t80 84q55 84 62 221h-275q-40 0 -96 -4zM202 638v129q45 -7 106 -7h402q60 0 108 7v-129q-70 4 -108 4h-401q-47 0 -107 -4z" />
<glyph unicode="&#x30c7;" d="M72 368v131q45 -6 96 -6h655q52 0 91 6v-130q-38 3 -91 3h-241q-9 -149 -64 -257q-27 -53 -81.5 -106t-119.5 -86l-117 85q53 20 102 59t79 84q55 84 62 221h-275q-40 0 -96 -4zM188 626v129q51 -8 107 -8h327q54 0 108 8v-129q-51 3 -108 3h-327q-62 0 -107 -3zM710 791 l80 33q36 -53 79 -137l-80 -35q-49 96 -79 139zM829 836l79 33q48 -70 80 -136l-79 -35q-43 86 -80 138z" />
<glyph unicode="&#x30c8;" d="M304 -43q10 65 10 139v574q0 71 -10 121h156q-9 -79 -9 -121v-147q101 -29 225 -75t193 -80l-57 -138q-139 73 -361 149v-283q0 -49 9 -139h-156z" />
<glyph unicode="&#x30c9;" d="M273 -58q10 65 10 139v575q0 70 -10 121h156q-9 -79 -9 -121v-146q102 -31 226 -77t192 -79l-56 -139q-145 77 -362 149v-283q0 -57 10 -139h-157zM598 708l84 36q59 -89 91 -151l-87 -39q-41 89 -88 154zM730 760l83 39q62 -86 94 -148l-84 -41q-39 78 -93 150z" />
<glyph unicode="&#x30ca;" d="M87 433v138q70 -7 111 -7h260v110q0 72 -13 117h159q-8 -41 -8 -118v-109h225q46 0 109 6v-136q-84 4 -110 4h-225q-5 -163 -68.5 -282.5t-216.5 -211.5l-124 92q139 63 202 164.5t69 237.5h-255q-38 0 -115 -5z" />
<glyph unicode="&#x30cb;" d="M86 37v153q91 -7 125 -7h574q51 0 110 7v-153q-53 6 -110 6h-574q-51 0 -125 -6zM170 534v145q54 -6 117 -6h414q55 0 111 6v-145q-9 0 -32 1.5t-43 2t-36 0.5h-413q-50 0 -118 -4z" />
<glyph unicode="&#x30cc;" d="M102 46q214 68 359 205q-143 102 -247 159l82 98q118 -63 254 -155q84 121 116 246h-365q-13 0 -129 -4v135q68 -7 129 -7h379q38 0 75 15l95 -71q-17 -28 -31 -67q-68 -197 -157 -325q117 -86 188 -150l-93 -111q-73 70 -182 154q-74 -76 -169.5 -137t-193.5 -97z" />
<glyph unicode="&#x30cd;" d="M55 237q225 50 408 167q117 76 168 150h-362q-78 0 -130 -5v131q44 -7 128 -7h173v52q0 55 -6 92h143q-6 -48 -6 -92v-52h120q49 0 83 10l82 -81q-35 -35 -77 -83q-97 -110 -210 -196q0 -42 -0.5 -132.5t-0.5 -119.5q0 -56 7 -128h-144q8 56 8 128v171 q-129 -68 -307 -123zM632 268l83 96q139 -75 240 -145l-84 -110q-112 89 -239 159z" />
<glyph unicode="&#x30ce;" d="M109 80q114 39 212.5 108t167.5 152q68 83 117.5 200t71.5 232l156 -40q-8 -16 -44 -112q-89 -243 -188 -367q-70 -87 -170 -166.5t-209 -123.5z" />
<glyph unicode="&#x30cf;" d="M50 52q97 129 155 278q77 191 95 380l146 -31q-16 -58 -24 -99q-31 -158 -85 -301q-59 -159 -147 -286zM554 680l133 43q74 -140 148 -328q65 -170 116 -349l-148 -48q-48 201 -104 353q-68 188 -145 329z" />
<glyph unicode="&#x30d0;" d="M36 33q98 127 156 278q77 192 95 380l146 -30q-14 -45 -24 -100q-30 -151 -85 -301q-60 -161 -148 -286zM541 661l133 43q77 -145 147 -328q62 -156 117 -349l-148 -48q-47 198 -104 353q-70 193 -145 329zM701 765l79 33q36 -53 79 -137l-80 -35q-54 105 -78 139z M819 810l79 33q45 -65 81 -136l-80 -35q-37 77 -80 138z" />
<glyph unicode="&#x30d1;" d="M36 33q98 127 156 278q77 192 95 380l146 -30q-14 -45 -24 -100q-30 -151 -85 -301q-60 -161 -148 -286zM541 661l133 43q80 -152 147 -328q62 -156 117 -349l-148 -48q-47 198 -104 353q-70 193 -145 329zM739 719q0 49 35.5 84.5t84.5 35.5t84.5 -35.5t35.5 -84.5 t-35.5 -84t-84.5 -35t-84.5 35t-35.5 84zM801 719q0 -23 17 -40t41 -17t41 17t17 40q0 24 -17 41t-41 17t-41 -17t-17 -41z" />
<glyph unicode="&#x30d2;" d="M198 788h148q-7 -43 -7 -104v-189q202 51 349 112q59 25 109 54l54 -126l-117 -48q-172 -66 -395 -123v-185q0 -31 14.5 -43.5t49.5 -19.5q45 -6 116 -6q85 0 187.5 9.5t160.5 25.5v-146q-141 -21 -356 -21q-100 0 -168 11q-137 25 -137 150v545q0 54 -8 104z" />
<glyph unicode="&#x30d3;" d="M159 767h148q-8 -50 -8 -104v-189q203 50 346 111q58 22 109 54l54 -127q-96 -39 -117 -47q-170 -67 -392 -122v-185q0 -31 14.5 -43.5t50.5 -19.5q45 -6 116 -6q84 0 187 9.5t161 25.5v-146q-141 -21 -356 -21q-94 0 -168 12q-137 24 -137 149v545q0 54 -8 104zM659 777 l79 33q40 -60 80 -137l-81 -34q-44 90 -78 138zM777 823l79 32q37 -51 81 -136l-79 -34q-44 87 -81 138z" />
<glyph unicode="&#x30d4;" d="M159 767h148q-8 -50 -8 -104v-189q203 50 346 111q49 18 96 46q-29 34 -29 79q0 50 35 85t84 35t84.5 -35t35.5 -85t-35.5 -85t-84.5 -35q-36 0 -64 19l41 -97q-96 -39 -117 -47q-170 -67 -392 -122v-185q0 -31 14.5 -43.5t50.5 -19.5q45 -6 116 -6q84 0 187 9.5 t161 25.5v-146q-141 -21 -356 -21q-94 0 -168 12q-137 24 -137 149v545q0 54 -8 104zM774 710q0 -24 17 -41t40 -17q24 0 41 17t17 41t-17 41t-41 17q-23 0 -40 -17t-17 -41z" />
<glyph unicode="&#x30d5;" d="M130 588v141q80 -8 120 -8h462q48 0 79 8l98 -63q-12 -27 -22 -70q-56 -238 -150 -364q-147 -195 -402 -276l-109 120q251 58 392 234q91 115 117 282h-466q-67 0 -119 -4z" />
<glyph unicode="&#x30d6;" d="M104 577v141q58 -8 119 -8h463q29 0 47 2q-28 54 -56 97l82 34q41 -60 77 -132l-37 -16l63 -41q-6 -12 -22 -69q-56 -240 -150 -364q-146 -194 -402 -276l-109 119q140 33 232.5 92t159.5 143q46 58 76 134t42 148h-466q-67 0 -119 -4zM816 834l83 34q38 -55 80 -132 l-83 -36q-52 96 -80 134z" />
<glyph unicode="&#x30d7;" d="M104 577v141q58 -8 119 -8h463q28 0 57 4q-2 12 -2 19q0 49 35.5 84.5t84.5 35.5t84 -35.5t35 -84.5t-35 -84t-84 -35q-9 0 -13 1l-8 -30q-56 -240 -150 -364q-146 -194 -402 -276l-109 119q140 33 232.5 92t159.5 143q46 58 76 134t42 148h-466q-67 0 -119 -4zM803 733 q0 -23 17 -40t41 -17q23 0 40 17t17 40q0 24 -17 41t-40 17q-24 0 -41 -17t-17 -41z" />
<glyph unicode="&#x30d8;" d="M43 302q30 24 82 76q30 31 192 226q46 53 90 56t106 -48q71 -60 204 -203q187 -201 246 -269l-107 -117q-69 89 -214 259q-132 155 -183 198q-26 23 -43 22t-38 -28q-23 -29 -80 -107t-71 -96l-64 -93z" />
<glyph unicode="&#x30d9;" d="M36 284q36 30 82 76q27 27 192 226q46 54 90 57t106 -48q76 -65 204 -203q215 -234 246 -270l-107 -116q-105 134 -214 262q-123 147 -184 198q-26 23 -42.5 22t-38.5 -28q-17 -22 -44.5 -59t-61 -82.5t-46.5 -62.5q-27 -36 -64 -93zM622 657l87 36q62 -93 94 -160 l-90 -39q-46 99 -91 163zM757 709l86 39q59 -81 97 -156l-87 -42q-47 93 -96 159z" />
<glyph unicode="&#x30da;" d="M36 284q36 30 82 76q27 27 192 226q46 54 90 57t106 -48q76 -65 204 -203q215 -234 246 -270l-107 -116q-105 134 -214 262q-123 147 -184 198q-26 23 -42.5 22t-38.5 -28q-17 -22 -44.5 -59t-61 -82.5t-46.5 -62.5q-27 -36 -64 -93zM657 612q0 54 37.5 92t91.5 38 t92 -38t38 -92t-38 -91.5t-92 -37.5t-91.5 37.5t-37.5 91.5zM723 612q0 -26 18.5 -44.5t44.5 -18.5t45 18.5t19 44.5t-19 45t-45 19t-44.5 -19t-18.5 -45z" />
<glyph unicode="&#x30db;" d="M52 166q50 47 103.5 120.5t84.5 137.5l114 -53q-33 -65 -92 -149t-101 -130zM99 509v132q70 -7 96 -7h254v80q0 42 -8 87h148q-9 -42 -9 -88v-79h232q52 0 99 7v-131q-47 3 -98 3h-233v-465q0 -45 -26.5 -69.5t-78.5 -24.5q-87 0 -162 9l-12 123q58 -11 111 -11 q19 0 27 8t9 28q1 37 1 401v1h-254q-59 0 -96 -4zM674 368l109 59q37 -46 88 -125.5t83 -137.5l-117 -64q-84 166 -163 268z" />
<glyph unicode="&#x30dc;" d="M40 154q50 48 103.5 121.5t84.5 136.5l113 -53q-34 -65 -92.5 -149.5t-100.5 -129.5zM86 497v133q60 -8 97 -8h254v80q0 49 -9 87h148q-9 -63 -9 -87v-80h233q52 0 98 7v-131q-46 3 -97 3h-234v-465q0 -94 -104 -94q-87 0 -163 9l-12 124q64 -12 111 -12q19 0 27.5 8 t9.5 28q1 37 1 401v1h-254q-60 0 -97 -4zM662 356l109 59q37 -46 88 -125.5t83 -137.5l-118 -64q-85 170 -162 268zM686 776l79 33q44 -65 76 -131l-80 -34q-45 89 -75 132zM816 805l79 32q39 -54 78 -129l-79 -35q-41 81 -78 132z" />
<glyph unicode="&#x30dd;" d="M40 154q50 48 103.5 121.5t84.5 136.5l113 -53q-34 -65 -92.5 -149.5t-100.5 -129.5zM86 497v133q60 -8 97 -8h254v80q0 49 -9 87h148q-9 -63 -9 -87v-80h233q52 0 98 7v-131q-46 3 -97 3h-234v-465q0 -94 -104 -94q-87 0 -163 9l-12 124q64 -12 111 -12q19 0 27.5 8 t9.5 28q1 37 1 401v1h-254q-60 0 -97 -4zM662 356l109 59q37 -46 88 -125.5t83 -137.5l-118 -64q-85 170 -162 268zM714 750q0 48 34 81.5t82 33.5t81.5 -33.5t33.5 -81.5t-33.5 -82t-81.5 -34t-82 34t-34 82zM775 750q0 -23 16 -39t39 -16q22 0 38 16t16 39q0 22 -16 38 t-38 16q-23 0 -39 -15.5t-16 -38.5z" />
<glyph unicode="&#x30de;" d="M90 570v140q58 -9 115 -9h555q60 0 93 11l100 -82q-30 -34 -34 -42q-59 -96 -150.5 -203.5t-190.5 -187.5q87 -87 155 -169l-117 -93q-63 84 -191 216q-45 45 -110.5 103t-109.5 89l106 85q69 -52 169 -139q80 64 148 142.5t106 145.5h-529q-41 0 -115 -7z" />
<glyph unicode="&#x30df;" d="M138 102l50 126q134 -20 325.5 -66t290.5 -84l-55 -125q-94 39 -284.5 84t-326.5 65zM193 393l46 121q122 -21 279 -56.5t244 -65.5l-49 -125q-82 31 -240.5 69t-279.5 57zM238 665l47 118q106 -13 281 -50t264 -68l-51 -125q-85 32 -259 71.5t-282 53.5z" />
<glyph unicode="&#x30e0;" d="M62 143q77 0 110 1l27 1q40 101 93.5 267t79.5 259q18 66 24 115l159 -32q-19 -41 -43 -111q-129 -394 -163 -486q165 16 365 40q-59 122 -105 183l125 51q52 -79 118 -204.5t101 -211.5l-135 -60q-25 66 -47 118q-218 -25 -592 -64q-14 -2 -47 -6t-47 -6z" />
<glyph unicode="&#x30e1;" d="M96 52q228 111 380 295q-151 119 -268 189l86 103q134 -84 264 -180q61 96 110 237q14 38 24 92l153 -54q-18 -31 -41 -89q-57 -153 -135 -272q133 -109 238 -220l-103 -115q-95 111 -221 220q-161 -194 -372 -309z" />
<glyph unicode="&#x30e2;" d="M106 317v131q70 -5 109 -5h163v170h-109q-53 0 -97 -3v125q72 -5 97 -5h481q52 0 90 5v-125q-78 3 -90 3h-235v-170h302q45 0 97 4l1 -128q-28 3 -95 3h-305v-153q0 -41 26.5 -58t87.5 -17q118 0 258 14l-9 -135q-130 -8 -272 -8q-130 0 -179 41t-49 123v193h-163 q-34 0 -109 -5z" />
<glyph unicode="&#x30e3;" d="M132 410q54 5 92 12q34 5 96 17q-15 58 -26 93q-10 36 -28 71l134 32q4 -24 16 -76l27 -97q254 48 306 60q29 5 51 16l80 -57q-32 -67 -96.5 -162t-116.5 -151l-110 55q38 34 82.5 88.5t64.5 91.5q-3 -1 -42.5 -9t-90 -18.5t-98.5 -20.5q87 -315 96 -343q2 -6 7.5 -23.5 t10.5 -33.5t9 -25l-136 -33q-5 40 -18 87q-20 72 -92 346q-31 -7 -75.5 -16.5t-71.5 -15t-40 -8.5z" />
<glyph unicode="&#x30e4;" d="M48 548q58 6 113 13q54 10 116 21q-9 31 -32 113q-19 63 -34 88l147 33q8 -50 19 -89q2 -8 14 -50.5t20 -69.5q338 66 378 75q29 4 59 18l92 -66q-34 -74 -110.5 -185t-140.5 -183l-129 61q51 43 104.5 109t81.5 114q-48 -8 -302 -61q95 -350 118 -425q28 -84 32 -94 l-149 -34q-13 71 -22 101q-8 27 -25.5 92.5t-45 168t-43.5 163.5q-136 -28 -226 -48z" />
<glyph unicode="&#x30e5;" d="M141 -16v130q45 -5 99 -5h324q35 215 39 283h-270q-27 0 -100 -5v132q52 -6 99 -6h256q55 0 75 11l96 -47q-3 -9 -10 -42q-15 -111 -49 -326h64q63 0 98 4v-129q-60 3 -95 3h-527q-42 0 -99 -3z" />
<glyph unicode="&#x30e6;" d="M71 36v145q51 -8 99 -8h413q54 307 56 386h-345q-65 0 -113 -4v141q64 -8 112 -8h316q61 0 93 13l104 -52q-8 -27 -10 -45q-21 -162 -67 -431h108q24 0 93 8v-145q-35 5 -93 5h-667q-56 0 -99 -5z" />
<glyph unicode="&#x30e7;" d="M202 -38v123q34 -4 87 -4h378v133h-319q-63 0 -109 -2v118q39 -3 109 -3h319v121h-330q-76 0 -124 -4v121q43 -5 124 -5h378q45 0 77 2q-1 -13 -1 -67v-502q0 -8 0.5 -33.5t0.5 -34.5h-126q1 9 1 40h-379q-35 0 -86 -3z" />
<glyph unicode="&#x30e8;" d="M144 9v133q40 -4 103 -4h466v177h-391q-76 0 -132 -2v128q55 -5 132 -5h391v163h-405q-58 0 -151 -3v130q55 -5 151 -5h455q47 0 87 2q-1 -16 -1 -81v-604q0 -11 0.5 -38t0.5 -37h-138q0 31 1 50h-467q-60 0 -102 -4z" />
<glyph unicode="&#x30e9;" d="M131 398v130q63 -6 116 -6h495q50 0 73 10l89 -55q-11 -21 -19 -42q-53 -172 -148 -277q-140 -155 -357 -216l-100 113q221 45 347 175q70 72 103 173h-483q-63 0 -116 -5zM223 638v129q35 -5 104 -5h385q73 0 108 5v-129q-40 3 -110 3h-383q-61 0 -104 -3z" />
<glyph unicode="&#x30ea;" d="M194 266q0 6 1.5 23t2.5 34.5t1 30.5v337q0 47 -4 76h147q-3 -33 -3 -76v-338q0 -53 3 -87h-148zM335 54q162 37 245 126q49 54 65 118.5t16 187.5v190q0 58 -6 100h148q-4 -56 -4 -100v-198q0 -152 -28 -237t-88 -152q-87 -96 -243 -145z" />
<glyph unicode="&#x30eb;" d="M40 37q119 84 170 239q29 89 29 396q0 55 -9 91h147q-7 -28 -7 -90q0 -318 -30 -430q-45 -169 -178 -287zM503 22q8 38 8 74v583q0 62 -8 86h149q-7 -21 -7 -87v-523q63 27 130.5 84t116.5 127l77 -110q-60 -77 -155 -152.5t-184 -120.5q-16 -8 -44 -30z" />
<glyph unicode="&#x30ec;" d="M195 40q13 27 13 65v542q0 62 -11 113h157q-10 -63 -10 -113v-519q130 37 276 127.5t238 202.5l71 -113q-195 -234 -580 -360q-39 -14 -60 -27z" />
<glyph unicode="&#x30ed;" d="M125 -17q3 15 3 140v489q0 69 -2 97q82 -2 106 -2h550q63 0 99 2q-2 -30 -2 -97v-490q0 -17 0.5 -51t1 -60.5t0.5 -27.5h-138l1 55h-482l1 -55h-138zM262 165h483v415h-483v-415z" />
<glyph unicode="&#x30ee;" d="M171 239q5 43 5 73v173q0 29 -4 71q39 -3 103 -3h413q53 0 79 7l90 -57q-13 -20 -19 -58q-44 -237 -118 -329q-112 -145 -308 -218l-104 106q189 49 289 172q81 97 98 261h-390v-125q0 -32 3 -73h-137z" />
<glyph unicode="&#x30ef;" d="M110 351q5 52 5 82v211q0 39 -5 84q64 -4 122 -4h478q59 0 95 7l97 -61q-8 -20 -18 -67q-14 -79 -22.5 -121t-34.5 -118t-62 -132q-126 -198 -379 -287l-112 114q110 27 211 89.5t157 151.5q74 120 91 300h-480v-167q0 -50 4 -82h-147z" />
<glyph unicode="&#x30f0;" d="M82 149v133q45 -7 98 -7h97v246h-61q-65 0 -99 -4v130q37 -7 99 -7h377v72q0 17 -4 78h136q-3 -62 -3 -78v-72h88q48 0 93 7v-130q-29 4 -93 4h-88v-246h111q32 0 93 7v-133q-28 4 -93 4h-111v-111q0 -38 4 -95h-137q4 55 4 93v113h-413q-65 0 -98 -4zM403 275h190v246 h-190v-246z" />
<glyph unicode="&#x30f1;" d="M75 12v146q46 -7 101 -7h239v249q0 81 -5 115h149q-6 -49 -6 -116v-248h286q33 0 96 7v-146q-50 5 -96 5h-663q-43 0 -101 -5zM129 579v136q59 -7 109 -7h533q42 0 77 11l83 -57q-20 -30 -26 -42q-30 -63 -89 -142.5t-113 -128.5l-110 73q94 75 145 162h-490z" />
<glyph unicode="&#x30f2;" d="M146 605v137q81 -9 114 -9h453q59 0 91 10l100 -63q-11 -24 -16 -45q-54 -262 -121 -371q-71 -110 -172.5 -189.5t-256.5 -134.5l-104 110q129 31 235 97.5t168 156.5q13 21 26 46h-389q-54 0 -102 -4v126q50 -5 97 -5h439q16 56 30 144h-477q-61 0 -115 -6z" />
<glyph unicode="&#x30f3;" d="M116 94q215 30 383 131q123 73 218.5 178t145.5 211l78 -141q-58 -103 -155 -201t-215 -169q-179 -108 -371 -141zM147 660l94 100q55 -37 135.5 -102.5t122.5 -108.5l-102 -105q-40 43 -118 110.5t-132 105.5z" />
<glyph unicode="&#x30f4;" d="M88 297q4 33 4 84v174q0 61 -4 85q45 -4 102 -4h213v76q0 42 -7 92h154q-8 -57 -8 -92v-76h175q53 0 83 10l86 -53q-7 -22 -19 -79q-32 -171 -94 -284q-58 -109 -165.5 -186.5t-242.5 -113.5l-104 120q77 14 142 40q146 55 227 170q67 99 88 258h-496v-147q0 -47 4 -74 h-138zM681 796l79 32q33 -48 79 -137l-80 -34q-52 101 -78 139zM807 832l79 33q48 -70 80 -136l-79 -34q-47 92 -80 137z" />
<glyph unicode="&#x30f5;" d="M138 9q56 27 106 73q117 109 143 289h-113q-55 0 -106 -3v121q57 -5 105 -5h125q1 22 1 69q0 45 -5 77h133q-3 -21 -6 -74q-1 -38 -3 -72h157q29 0 61 5l78 -37q-6 -28 -6 -43q-7 -310 -52 -412q-27 -61 -114 -61q-20 0 -140 6l-13 122q80 -12 117 -12q35 0 48 27 q16 35 25 122.5t9 169.5h-181q-22 -154 -83 -259.5t-179 -187.5z" />
<glyph unicode="&#x30f6;" d="M97 256q82 62 152 170q36 55 56 128q10 34 14 73l140 -29q-23 -58 -23 -59q-16 -40 -27 -64h366q55 0 88 5v-122q-40 4 -88 4h-122q-25 -317 -257 -460l-124 83q50 22 90 53q144 118 165 324h-175q-70 -114 -138 -174z" />
<glyph unicode="&#x30fb;" d="M372 380q0 52 38 90t90 38t90 -38t38 -90t-38 -90t-90 -38t-90 38t-38 90z" />
<glyph unicode="&#x30fc;" d="M92 306v157q72 -6 161 -6h537q39 0 117 6v-157q-7 0 -30 1.5t-45.5 2.5t-41.5 1h-537q-99 0 -161 -5z" />
<glyph unicode="&#x30fd;" d="M261 517l115 89q88 -74 212 -206t188 -222l-122 -97q-64 99 -179.5 227t-213.5 209z" />
<glyph unicode="&#x30fe;" d="M236 510l115 90q88 -75 212 -207t188 -222l-122 -97q-64 100 -179.5 228t-213.5 208zM513 657l84 34q36 -50 91 -153l-87 -36q-66 123 -88 155zM647 699l86 36q44 -63 91 -153l-86 -36q-58 109 -91 153z" />
<glyph unicode="&#x4e00;" d="M41 325v129h920v-129h-920z" />
<glyph unicode="&#x4e01;" d="M56 647v124h889v-124h-344v-565q0 -61 -16.5 -92t-57.5 -47q-64 -24 -245 -24q-13 64 -58 140q133 -7 200 -4q19 1 27 7t8 22v563h-403z" />
<glyph unicode="&#x4e03;" d="M44 466l281 43v317h131v-298l490 76l20 -123l-510 -76v-265q0 -50 13 -63.5t62 -13.5h200q49 0 64.5 38t24.5 169q55 -41 122 -57q-12 -153 -53 -211t-149 -58h-219q-113 0 -154.5 41t-41.5 156v244l-261 -39z" />
<glyph unicode="&#x4e07;" d="M22 11q42 23 77 53t60.5 59t46 68t33.5 70.5t23 78t15.5 77.5t9 83t4.5 80t3 82h-233v117h879v-117h-520q-4 -109 -9 -162h449q-1 -38 -3 -53q-11 -233 -26.5 -336t-44.5 -136q-36 -42 -107 -50q-51 -7 -174 -1q-5 62 -42 117q69 -6 167 -6q32 0 47 13q38 36 53 337h-333 q-26 -155 -92.5 -273.5t-196.5 -196.5q-31 55 -86 96z" />
<glyph unicode="&#x4e08;" d="M54 28q194 40 301 114q-120 128 -185 350l113 27q49 -183 160 -294q80 106 93 326h-477v116h481q0 106 1 163h131q0 -59 -2 -163h272v-116h-276q-9 -133 -36 -231t-86 -173q152 -92 409 -119q-39 -39 -72 -114q-270 35 -429 144q-121 -89 -329 -136q-9 25 -29 56t-40 50z " />
<glyph unicode="&#x4e09;" d="M65 -27v122h868v-122h-868zM121 631v120h758v-120h-758zM190 311v121h610v-121h-610z" />
<glyph unicode="&#x4e0a;" d="M46 -38v120h358v753h128v-286h353v-121h-353v-346h423v-120h-909z" />
<glyph unicode="&#x4e0b;" d="M55 654v120h891v-120h-402v-157l20 23q241 -121 341 -202l-88 -109q-83 73 -273 182v-475h-128v738h-361z" />
<glyph unicode="&#x4e0d;" d="M35 265q131 61 244.5 167t186.5 226h-399v122h867v-122h-311q-23 -42 -58 -92v-104l74 62q250 -180 333 -271l-101 -91q-84 101 -306 271v-518h-130v488q-149 -159 -318 -246q-35 60 -82 108z" />
<glyph unicode="&#x4e0e;" d="M51 168v114h599q5 38 10 106h-346l-10 -42l-126 10q58 216 98 492l124 -11q-4 -23 -20 -116h463v-114h-484q-14 -74 -22 -109h453q-2 -36 -4 -51q-8 -93 -15 -165h181v-114h-195q-24 -159 -66 -204q-37 -41 -105 -48q-51 -5 -170 0q-4 62 -42 119q80 -7 165 -7 q33 0 49 14q27 23 46 126h-583z" />
<glyph unicode="&#x4e11;" d="M46 328v118h248q17 134 25 229h-183v116h661q-6 -160 -17 -345h174v-118h-181q-16 -224 -20 -271h191v-114h-888v114h181q24 136 42 271h-233zM360 57h268q12 122 23 271h-252q-23 -174 -39 -271zM415 446h243q5 70 11 229h-228q-9 -87 -26 -229z" />
<glyph unicode="&#x4e14;" d="M52 -46v116h150v724h616v-724h133v-116h-899zM320 70h373v130h-373v-130zM320 315h373v128h-373v-128zM320 553h373v126h-373v-126z" />
<glyph unicode="&#x4e16;" d="M40 492v115h142v210h123v-210h136v232h120v-232h134v222h120v-222h148v-115h-148v-308h-120v40h-134v-41h-120v309h-136v-401h624v-115h-624v-63h-123v579h-142zM561 335h134v157h-134v-157z" />
<glyph unicode="&#x4e18;" d="M43 -49v116h152v700l109 -22q282 38 445 95l90 -103q-211 -63 -522 -100v-132h586v-116h-177v-322h232v-116h-915zM317 67h287v322h-287v-322z" />
<glyph unicode="&#x4e19;" d="M64 671v117h869v-117h-371v-119h348v-499q0 -48 -13 -74.5t-46 -39.5q-45 -20 -196 -20q-9 60 -39 117q39 -2 148 -2q14 0 19.5 4.5t5.5 17.5v384h-233q-5 -30 -12 -56q178 -122 239 -187l-81 -94q-61 72 -201 175q-64 -117 -206 -196q-31 46 -82 86v-253h-119v637h338 v119h-368zM213 178q183 89 212 262h-212v-262z" />
<glyph unicode="&#x4e1e;" d="M26 208q77 42 138.5 112t96.5 159h-199v104h248l21 5l75 -34q-38 -149 -114 -259t-175 -171q-14 19 -42.5 45t-48.5 39zM69 -51v105h862v-105h-862zM182 707v104h519l25 6l79 -61q-89 -97 -188 -171q23 -51 58 -104q101 77 163 148l107 -78q-122 -94 -209 -150 q108 -119 243 -173q-47 -42 -84 -104q-209 103 -334 348v-266q0 -44 -11.5 -67t-40.5 -36q-47 -18 -181 -18q-6 50 -36 106q89 -3 128 -1q13 0 18 4t5 15v421h70q44 34 87 77h-418z" />
<glyph unicode="&#x4e21;" d="M52 664v115h898v-115h-397v-95h355v-537q0 -43 -11 -66t-39 -36q-45 -20 -170 -18q-8 50 -39 104q34 -2 72.5 -2.5t47.5 0.5q13 0 17.5 4.5t4.5 15.5v425h-238v-247h73v193h105v-345h-105v49h-259v-70h-99v366h99v-193h70v247h-229v-548h-116v658h345v95h-385z" />
<glyph unicode="&#x4e26;" d="M52 -50v123h282v480h-263v117h203q-31 76 -72 135l106 41q62 -84 89 -160l-38 -16h244q55 83 91 178l133 -35q-55 -94 -90 -143h192v-117h-263v-480h284v-123h-898zM111 450l107 28q70 -157 88 -305l-115 -29q-4 62 -27 147.5t-53 158.5zM451 73h96v480h-96v-480z M682 173q60 143 93 312l129 -29q-67 -211 -114 -311z" />
<glyph unicode="&#x4e2d;" d="M90 170v504h345v173h126v-173h351v-499h-125v50h-226v-312h-126v312h-225v-55h-120zM210 342h225v215h-225v-215zM561 342h226v215h-226v-215z" />
<glyph unicode="&#x4e32;" d="M94 27v351h339v60h-298v297h298v111h129v-111h307v-297h-307v-60h351v-350h-130v39h-221v-154h-129v154h-215v-40h-124zM218 173h215v97h-215v-97zM258 542h175v90h-175v-90zM562 173h221v97h-221v-97zM562 542h177v90h-177v-90z" />
<glyph unicode="&#x4e38;" d="M25 8q180 88 256 253q-88 62 -163 108l81 83q69 -40 122 -74q15 61 23 143h-262v118h269q2 67 2 205h128q-2 -171 -4 -205h293v-546q0 -32 4 -40.5t19 -8.5h54q16 0 21.5 33.5t7.5 146.5q46 -36 112 -54q-8 -137 -35 -189.5t-95 -52.5h-87q-71 0 -97.5 34.5t-26.5 130.5 v428h-177q-11 -122 -39 -216q98 -69 153 -124l-90 -97q-45 49 -110 99q-88 -175 -272 -271q-32 55 -87 96z" />
<glyph unicode="&#x4e39;" d="M28 -4q124 107 150 311h-128v114h136v384h641v-384h124v-114h-124v-256q0 -51 -13.5 -78t-47.5 -41q-46 -20 -216 -20q-8 54 -41 116q54 -4 168 -4q17 1 23.5 7t6.5 22v254h-409q-30 -266 -180 -394q-14 18 -42.5 44.5t-47.5 38.5zM306 421h401v274h-401v-239v-35z M369 603l84 66q116 -87 177 -156l-90 -75q-42 56 -171 165z" />
<glyph unicode="&#x4e3b;" d="M55 -56v117h380v193h-285v115h285v173h-338v116h400q-51 50 -150 122l98 68q130 -84 192 -151l-53 -39h317v-116h-335v-173h287v-115h-287v-193h384v-117h-895z" />
<glyph unicode="&#x4e43;" d="M27 11q64 50 110 116.5t70.5 127.5t38 135t17 124t3.5 111v47h-185v117h643q-12 -139 -26 -258h249q-1 -39 -2 -56q-14 -242 -32 -352.5t-50 -147.5q-38 -43 -112 -51q-52 -7 -177 -1q-6 66 -45 123q73 -7 174 -7q35 0 49 14q22 19 37 104.5t26 258.5h-132 q-11 -69 -11 -71l-125 9q25 142 39 318h-197v-49q0 -492 -271 -713q-15 23 -43 54.5t-48 46.5z" />
<glyph unicode="&#x4e45;" d="M25 384q98 74 173 195t117 267l131 -29q-17 -56 -45 -121h204l23 6l87 -40q-35 -140 -96 -266q52 -126 144 -224.5t212 -148.5q-48 -41 -87 -107q-214 103 -342 353q-161 -242 -417 -357q-46 72 -93 107q183 73 317.5 214.5t201.5 342.5h-210q-92 -174 -213 -281 q-45 47 -107 89z" />
<glyph unicode="&#x4e4b;" d="M23 -13q53 61 103.5 155.5t79.5 181.5l120 -44q-15 -36 -28 -64q17 -33 42 -61q107 76 210.5 182t174.5 209h-629v116h341v184h122v-184h248l24 6l90 -56q-83 -140 -212 -281.5t-266 -245.5q95 -38 268 -38q87 -2 258 1q-27 -41 -41 -117h-225q-166 0 -276.5 36 t-183.5 132q-57 -115 -103 -185z" />
<glyph unicode="&#x4e4d;" d="M33 436q74 71 140.5 181.5t108.5 229.5l125 -32q-21 -57 -55 -128h597v-117h-448v-110h386v-114h-386v-112h406v-116h-406v-205h-126v657h-84q-77 -132 -148 -209q-33 31 -110 75z" />
<glyph unicode="&#x4e4e;" d="M48 260v123h398v288q-156 -12 -312 -15q-3 50 -29 108q455 16 713 77l58 -109q-116 -28 -301 -48v-301h378v-123h-378v-199q0 -55 -15 -83t-51 -42q-57 -22 -223 -22q-15 66 -51 124q73 -4 179 -4q18 1 25 7t7 21v198h-398zM144 602l102 37q69 -116 89 -200l-109 -42 q-17 82 -82 205zM666 437q58 107 92 224l129 -41q-85 -165 -122 -219z" />
<glyph unicode="&#x4e4f;" d="M33 -6q46 46 91.5 120t74.5 143l111 -38l-21 -42q16 -27 35 -46q99 55 195 131.5t164 154.5h-562v113h316v146q-155 -13 -321 -16q-7 54 -29 106q466 13 723 75l91 -99q-143 -34 -343 -55v-157h218l22 6l89 -58q-78 -111 -198.5 -220.5t-252.5 -190.5q87 -27 244 -27 q159 -3 294 3q-27 -42 -40 -114h-261q-164 0 -268 30.5t-173 113.5q-45 -81 -95 -149z" />
<glyph unicode="&#x4e57;" d="M35 23q89 24 176 68t149 96h-263v101h126v72h-167v103h167v70h-110v101h324v54q-143 -10 -303 -13q-3 50 -27 101q448 13 692 66l77 -97q-141 -30 -320 -47v-64h335v-101h-117v-70h171v-103h-171v-72h136v-101h-272q134 -108 329 -157q-50 -45 -87 -109q-182 61 -324 192 v-198h-119v198q-137 -126 -321 -191q-33 55 -81 101zM339 288h98v72h-98v-72zM339 463h98v70h-98v-70zM556 288h101v72h-101v-72zM556 463h101v70h-101v-70z" />
<glyph unicode="&#x4e59;" d="M84 135q0 30 6 52.5t30.5 63t73 90t135.5 127.5t215 181h-446v124h624l29 7l84 -63q-7 -7 -21 -15q-204 -156 -331 -260.5t-182.5 -162t-71 -83.5t-15.5 -50q0 -66 121 -66h402q50 0 70 41t25 170q54 -29 121 -45q-12 -172 -62 -231t-170 -59h-375q-131 0 -196.5 47 t-65.5 132z" />
<glyph unicode="&#x4e5d;" d="M25 9q75 38 128.5 88.5t86 112t49.5 126.5t25 147h-239v120h246q2 73 2 231h130q0 -132 -4 -231h297v-511q0 -32 4.5 -40.5t22.5 -8.5h68q18 0 23.5 28t8.5 124q43 -34 112 -52q-8 -123 -36.5 -169t-96.5 -46h-101q-74 0 -101.5 34t-27.5 130v391h-181 q-10 -97 -29.5 -175t-56.5 -153t-98 -135.5t-146 -106.5q-13 23 -38 51t-48 45z" />
<glyph unicode="&#x4e5e;" d="M32 517q75 57 142.5 145.5t108.5 184.5l125 -39q-19 -41 -43 -83h571v-117h-645q-76 -107 -156 -178q-55 55 -103 87zM145 85q0 29 8 50t38 56.5t99 84.5t180 115h-256v114h475l26 4l87 -63q-9 -9 -23 -17q-138 -72 -234 -126.5t-148.5 -87.5t-81 -57.5t-35.5 -36 t-7 -24.5q0 -41 89 -41h396q41 0 57 25t20 107q46 -27 115 -42q-12 -126 -55 -167.5t-149 -41.5h-373q-114 0 -171 39t-57 109z" />
<glyph unicode="&#x4e5f;" d="M26 452l171 54v271h117v-234l154 48v254h118v-216l181 56l13 9l24 16l84 -36l-5 -22q-5 -293 -29 -362q-24 -72 -82 -88q-54 -14 -126 -10q-4 62 -27 109q28 -3 84 -3q17 0 27 9t19 34q13 44 16 228l-179 -57v-375h-118v338l-154 -49v-302q0 -55 19.5 -69.5t92.5 -14.5 h303q66 0 87 28.5t32 128.5q52 -32 111 -45q-15 -128 -59 -173.5t-163 -45.5h-312q-133 0 -180.5 39.5t-47.5 153.5v263l-140 -44z" />
<glyph unicode="&#x4e71;" d="M32 465v106h212v118q-82 -12 -165 -18q-9 45 -34 94q273 29 418 79l86 -93q-63 -20 -189 -44v-136h202v-106h-202v-132h173v-388h-116v22h-229v-32h-111v398h167v132h-212zM188 72h229v157h-229v-157zM592 95v735h118v-736q0 -39 6 -50t27 -11h80q21 0 28 35t11 148 q54 -39 108 -50q-9 -137 -37.5 -190.5t-99.5 -53.5h-109q-76 0 -104 36.5t-28 136.5z" />
<glyph unicode="&#x4e73;" d="M31 262q31 2 99.5 6.5t102.5 6.5v73h32q23 20 55 56h-245v105h329l-51 21q55 84 89 178l108 -41q-66 -116 -97 -160l63 -55q-93 -92 -165 -150v-18l187 14v-108q-119 -12 -187 -17v-143q0 -42 -10 -65t-38 -36q-40 -18 -153 -18q-8 51 -38 108q42 -1 103 -1q18 1 18 15 v131q-91 -8 -190 -15zM34 784q273 18 430 60l71 -98q-181 -46 -472 -59q-5 47 -29 97zM42 653l90 24q31 -63 47 -138l-94 -27q-8 60 -43 141zM210 679l95 13q24 -72 28 -140l-100 -16q-2 63 -23 143zM575 97v729h124v-730q0 -40 6.5 -51.5t28.5 -11.5h86q23 0 30 37t12 158 q54 -41 111 -55q-9 -143 -37.5 -198.5t-104.5 -55.5h-117q-81 0 -110 38t-29 140z" />
<glyph unicode="&#x4e7e;" d="M37 76v106h178v58h-144v354h144v56h-166v104h166v93h115v-93h165v-104h-165v-56h152v-26q80 103 119 278l118 -23q-15 -61 -36 -120h277v-110h-323q-30 -61 -63 -106h240l26 2l77 -31q-7 -16 -12 -22q-116 -137 -176.5 -217t-73.5 -106.5t-13 -46.5q0 -27 47 -27h144 q22 0 30.5 23.5t10.5 108.5q43 -24 101 -37q-8 -126 -39.5 -168t-105.5 -42h-142q-167 0 -167 124q0 31 8.5 58t52 96.5t128.5 178.5h-156v80l-7 -8q-20 22 -65 59v-272h-152v-58h172v-106h-172v-163h-115v163h-178zM176 325h196v52h-196v-52zM176 457h196v51h-196v-51z" />
<glyph unicode="&#x4e80;" d="M44 640q173 82 251 211l126 -24q-16 -24 -24 -35h182l16 4l77 -49q-16 -29 -54 -80h215v-284h-281v-33h332v-250q40 -21 83 -31q-9 -88 -41 -120t-117 -32h-202q-96 0 -132.5 27.5t-39.5 101.5h-201v-53h-114v357h315v33h-272v193q-3 -2 -34 -20q-15 21 -40 46.5 t-45 37.5zM234 121h201v42h-201v-42zM234 231h201v44h-201v-44zM275 450h160v43h-160v-43zM275 557h160v42h-160v-42zM285 667h205q16 19 29 41h-192q-28 -28 -42 -41zM552 121h216v42h-216v-42zM552 231h216v44h-216v-44zM552 450h163v43h-163v-43zM552 557h163v42h-163 v-42zM553 46q1 -27 14.5 -36t52.5 -9h179q26 0 39 9.5t20 35.5h-305z" />
<glyph unicode="&#x4e86;" d="M103 660v117h682l29 8l93 -69q-70 -86 -160.5 -170.5t-177.5 -138.5v-355q0 -52 -14.5 -79t-51.5 -40q-56 -20 -217 -20q-10 53 -47 122q105 -6 175 -3q17 0 23 4.5t6 17.5v453h67q90 64 173 153h-580z" />
<glyph unicode="&#x4e88;" d="M49 354v113h455q-111 47 -219 87l59 90q148 -53 157 -56q69 43 127 94h-483v109h598l27 7l85 -67q-103 -103 -231 -190q73 -29 86 -35l-24 -39h158l22 8l97 -42q-78 -163 -160 -261l-102 59q41 56 78 123h-211v-311q0 -48 -13.5 -73t-48.5 -37q-49 -18 -197 -18 q-10 57 -43 114q59 -2 153 -2q14 1 19.5 5t5.5 15v307h-395z" />
<glyph unicode="&#x4e89;" d="M36 309v108h398v70h-247v46q-26 -20 -58 -41q-14 20 -40 44.5t-47 38.5q94 54 164 126t110 146l128 -24q-21 -35 -38 -58h216l20 5l85 -59q-37 -53 -101 -120h232v-174h108v-108h-108v-225h-120v43h-183v-85q0 -48 -12.5 -72.5t-44.5 -37.5q-48 -20 -189 -20 q-9 50 -43 114q59 -3 143 -3q14 1 19.5 5.5t5.5 15.5v83h-285v108h285v74h-398zM256 591h224q30 30 62 72h-216q-28 -33 -70 -72zM555 235h183v74h-183v-74zM555 417h183v70h-183v-70z" />
<glyph unicode="&#x4e8b;" d="M40 191v91h396v43h-296v80h296v44h-271v198h271v41h-373v94h373v65h121v-65h382v-94h-382v-41h284v-198h-284v-44h301v-123h104v-91h-104v-174h-121v41h-180v-31q0 -44 -11.5 -65.5t-41.5 -34.5q-43 -17 -177 -17q-10 45 -39 94q48 -2 123 -2q14 1 19.5 6.5t5.5 18.5v31 h-304v86h304v47h-396zM279 524h157v48h-157v-48zM557 144h180v47h-180v-47zM557 282h180v43h-180v-43zM557 524h162v48h-162v-48z" />
<glyph unicode="&#x4e8c;" d="M56 -4v137h888v-137h-888zM139 579v131h722v-131h-722z" />
<glyph unicode="&#x4e91;" d="M51 370v124h900v-124h-466q-59 -147 -127 -277q305 11 367 13q-56 82 -109 145l115 56q68 -75 130.5 -166t95.5 -162l-123 -67q-18 44 -40 81q-278 -16 -712 -35l-8 126q18 0 67.5 1.5t78.5 2.5q63 128 110 282h-279zM163 660v123h684v-123h-684z" />
<glyph unicode="&#x4e92;" d="M48 -46v111h543q10 57 21 131h-297l-12 -47l-131 9q72 248 118 525h-211v111h850v-111h-509q-7 -37 -23 -113h387q-32 -310 -63 -505h235v-111h-908zM340 303h287q6 47 19 161h-271q-16 -82 -35 -161z" />
<glyph unicode="&#x4e94;" d="M56 -40v118h213q27 107 59 270h-181v117h203q15 79 30 174h-266v117h769v-117h-370q-7 -40 -32 -174h311v-387h156v-118h-892zM402 78h266v270h-209q-28 -141 -57 -270z" />
<glyph unicode="&#x4e95;" d="M52 225v121h212q4 52 4 118v73h-187v120h187v186h126v-186h221v188h127v-188h182v-120h-182v-191h208v-121h-208v-313h-127v313h-240q-42 -208 -204 -321q-18 21 -50 47.5t-57 39.5q136 90 177 234h-189zM391 346h224v191h-221v-74q0 -59 -3 -117z" />
<glyph unicode="&#x4e98;" d="M53 -53v109h898v-109h-898zM83 682v110h845v-110h-845zM202 129v485h608v-485h-608zM320 234h366v90h-366v-90zM320 421h366v88h-366v-88z" />
<glyph unicode="&#x4e99;" d="M48 -45v109h561q31 185 54 428h-285q-45 -217 -81 -352l-133 7q67 229 123 535h-212v110h853v-110h-512l-17 -87h398q-24 -261 -63 -531h219v-109h-905zM343 213l70 83q120 -58 181 -113l-76 -92q-52 53 -175 122zM389 388l66 80q106 -45 169 -97l-71 -89 q-50 50 -164 106z" />
<glyph unicode="&#x4e9b;" d="M35 406l55 5v334h110v-324l57 6v419h118v-150h124v-106h-124v-152l132 14l3 -108q-50 -6 -463 -56zM49 52h902v-119h-902v119zM164 146v114h680v-114h-680zM539 475v371h119v-174q102 36 181 78l89 -94q-113 -49 -270 -92v-89q0 -29 7 -36.5t35 -7.5h107q24 0 32 21.5 t12 97.5q39 -29 107 -46q-10 -106 -39.5 -145t-100.5 -39h-134q-86 0 -115.5 32.5t-29.5 122.5z" />
<glyph unicode="&#x4e9c;" d="M41 -51v107h283v141h-100v-26h-114v407h214v108h-257v108h868v-108h-276v-108h225v-406h-119v25h-106v-141h301v-107h-919zM224 302h100v172h-100v-172zM439 56h105v141h-105v-141zM439 302h105v172h-105v-172zM439 578h105v108h-105v-108zM659 302h106v172h-106v-172z " />
<glyph unicode="&#x4ea1;" d="M46 538v120h389v188h122v-188h398v-120h-676v-386q0 -50 21 -70t80 -20h357q100 0 170 12q4 -64 15 -120q-42 -9 -189 -9h-339q-130 0 -184.5 45.5t-54.5 166.5v381h-109z" />
<glyph unicode="&#x4ea4;" d="M33 23q234 45 377 144q-81 94 -138 230l114 34q43 -107 115 -185q77 82 117 191l128 -37q-58 -138 -153 -234q147 -104 376 -140q-19 -20 -42 -53.5t-35 -59.5q-242 46 -394 169q-155 -113 -390 -171q-23 51 -75 112zM45 407q73 36 142 90.5t111 110.5l123 -48 q-51 -67 -126.5 -133t-149.5 -112q-50 55 -100 92zM59 616v116h378v116h122v-116h383v-116h-246q182 -124 259 -210l-106 -82q-67 86 -254 223l95 69h-631z" />
<glyph unicode="&#x4ea5;" d="M42 28q538 104 736 393l113 -64q-81 -111 -194 -196q160 -91 248 -158l-118 -89q-78 67 -246 171q-193 -110 -469 -172q-23 58 -70 115zM54 625v112h380v110h124v-110h388v-112h-427l27 -12q-97 -97 -187 -169q41 -26 76 -55q143 86 221 195l109 -57q-204 -268 -637 -393 q-29 60 -73 107q136 33 254 84q-85 69 -203 140l91 79q35 -19 70 -41q65 58 119 122h-332z" />
<glyph unicode="&#x4ea6;" d="M19 202q52 48 93.5 123.5t62.5 160.5l125 -27q-59 -205 -173 -329q-42 37 -108 72zM57 573v118h384v156h123v-156h379v-118h-255v-520q0 -50 -11.5 -77t-42.5 -41q-47 -22 -183 -22q-6 54 -38 124q51 -3 128 -3q22 1 22 20v519h-96v-100q0 -49 -3 -91.5t-11.5 -96 t-26.5 -102t-44.5 -98.5t-69 -97t-97.5 -86q-14 21 -41.5 48t-49.5 42q58 40 100.5 90.5t65.5 97.5t36.5 103.5t17 99t3.5 92.5v98h-290zM709 446l109 47q122 -191 156 -326l-120 -55q-28 138 -145 334z" />
<glyph unicode="&#x4ea8;" d="M55 662v102h379v83h124v-83h387v-102h-890zM94 251v100h693l27 5l82 -72q-151 -97 -331 -162v-92q0 -46 -15 -69.5t-53 -34.5q-54 -16 -217 -14q-10 48 -42 107q119 -6 174 -3q16 1 22 5t6 14v174h93q57 22 96 42h-535zM195 400v219h618v-219h-618zM315 478h372v63h-372 v-63z" />
<glyph unicode="&#x4eab;" d="M51 94v101h384v42h56q53 18 98 38h-440v93h601l27 5l74 -65q-110 -66 -237 -113h335v-101h-388v-73q0 -44 -14.5 -65t-50.5 -32q-46 -13 -199 -13q-12 48 -41 98q58 -3 153 -3q15 1 20.5 5t5.5 15v68h-384zM65 673v100h369v74h124v-74h376v-100h-869zM180 408v220h647 v-220h-647zM299 490h402v57h-402v-57z" />
<glyph unicode="&#x4eac;" d="M31 18q50 36 97 89.5t72 102.5l122 -39q-39 -62 -91 -122.5t-103 -99.5q-45 38 -97 69zM59 638v113h375v96h126v-96h380v-113h-881zM173 249v319h661v-319h-274v-211q0 -47 -11.5 -71t-43.5 -36q-47 -18 -183 -18q-9 55 -38 114q100 -4 130 -2q14 1 18 4t4 13v207h-263z M292 351h416v115h-416v-115zM669 158l109 52q127 -127 181 -211l-117 -59q-53 90 -173 218z" />
<glyph unicode="&#x4ead;" d="M56 673v98h378v77h124v-77h388v-98h-890zM57 172v210h884v-210h-111v120h-667v-120h-106zM190 419v215h624v-215h-624zM206 147v96h587v-96h-221v-114q0 -47 -15 -70.5t-53 -35.5q-51 -14 -211 -14q-9 47 -41 108q41 -2 97 -2.5t67 0.5q16 1 21.5 4.5t5.5 14.5v109h-237z M309 497h378v59h-378v-59z" />
<glyph unicode="&#x4eae;" d="M32 13q88 13 140.5 32t80 52t36.5 67t13 95h124q-5 -79 -18.5 -129t-48 -96.5t-99.5 -75.5t-167 -48q-7 23 -25.5 53.5t-35.5 49.5zM56 673v98h378v77h124v-77h388v-98h-890zM57 170v205h883v-205h-110v115h-667v-115h-106zM190 416v217h624v-217h-624zM309 495h378v60 h-378v-60zM545 56v200h129v-199q0 -23 7 -28.5t33 -5.5h93q23 0 30 18.5t10 84.5q37 -28 110 -46q-9 -95 -38 -129t-99 -34h-127q-88 0 -118 29.5t-30 109.5z" />
<glyph unicode="&#x4eba;" d="M25 17q58 32 107.5 73.5t85.5 82t66 92t49.5 93t34.5 97t23 91.5t13.5 88t7 75.5t3.5 66.5t2 48h136l-3 -57q2 -37 6.5 -75.5t17.5 -101t31.5 -119.5t52 -124.5t76 -124t106.5 -110t141 -89.5q-58 -44 -92 -101q-284 141 -394 502q-101 -338 -370 -502q-32 48 -100 95z " />
<glyph unicode="&#x4ec0;" d="M27 464q70 70 131.5 171t98.5 209l113 -36q-46 -117 -87 -191v-702h-117v516q-43 -57 -75 -90q-9 23 -29.5 62.5t-34.5 60.5zM332 400v117h257v315h124v-315h246v-117h-246v-487h-124v487h-257z" />
<glyph unicode="&#x4ec1;" d="M19 458q74 68 140.5 171t107.5 214l119 -38q-42 -106 -98 -203v-687h-120v508q-39 -51 -79 -91q-27 63 -70 126zM347 -27v127h619v-127h-619zM402 561v127h525v-127h-525z" />
<glyph unicode="&#x4ec7;" d="M21 469q67 69 126.5 169t95.5 206l112 -35q-41 -109 -93 -207v-688h-118v503q-22 -31 -58 -70q-33 77 -65 122zM267 -1q98 82 139 205.5t50 306.5h-142v116h146q1 68 1 217h120q0 -148 -2 -217h231v-545q0 -35 4 -39q4 -5 15 -5h23q11 0 16 4q7 6 10 32q3 57 3 119 q42 -35 94 -51q-2 -95 -14 -142q-10 -37 -38 -56q-25 -16 -65 -16h-64q-48 0 -76 27q-16 16 -22.5 41t-6.5 83v432h-114q-12 -213 -60.5 -360t-160.5 -243q-14 24 -39.5 51t-47.5 40z" />
<glyph unicode="&#x4eca;" d="M26 475q122 67 234 173.5t171 204.5h119q80 -115 195 -213.5t232 -153.5q-37 -37 -78 -104q-97 57 -189 134v-83h-424v80q-85 -73 -185 -133q-25 47 -75 95zM150 225v113h573l21 5l95 -28q-68 -170 -183 -405l-126 35q73 143 133 280h-513zM320 543h358 q-117 103 -182 194q-68 -98 -176 -194z" />
<glyph unicode="&#x4ecb;" d="M26 473q126 60 235.5 166t165.5 210h127q76 -124 188.5 -219t235.5 -143q-34 -35 -78 -109q-121 62 -232.5 158t-171.5 192q-58 -96 -165.5 -192t-231.5 -161q-30 59 -73 98zM71 -2q62 37 103 82t59 95.5t24 90.5t6 91v121h123v-124q0 -63 -7 -113.5t-27.5 -112 t-66.5 -116.5t-115 -99q-15 19 -45 44.5t-54 40.5zM607 -86v569h124v-569h-124z" />
<glyph unicode="&#x4ecf;" d="M14 456q76 70 143.5 172.5t109.5 213.5l118 -38q-41 -103 -99 -204v-685h-118v511q-45 -57 -85 -95q-31 75 -69 125zM307 87l89 7q49 158 93 356t66 366l137 -21q-67 -364 -173 -691q21 2 124.5 11t159.5 14q-42 127 -97 252l111 42q131 -276 167 -460l-124 -51 q-7 45 -23 105q-156 -17 -505 -53z" />
<glyph unicode="&#x4ed4;" d="M14 456q76 71 144 173.5t109 212.5l118 -38q-40 -100 -99 -203v-686h-118v511q-45 -57 -85 -95q-31 75 -69 125zM326 308v115h269v137h54q57 48 108 107h-359v111h450l23 6l80 -56q-100 -141 -236 -250v-55h259v-115h-259v-257q0 -51 -13 -77.5t-46 -39.5 q-47 -22 -200 -22q-8 57 -40 121q42 -2 153 -2q14 0 20 4.5t6 16.5v256h-269z" />
<glyph unicode="&#x4ed5;" d="M19 460q76 70 144 172.5t110 212.5l116 -37q-40 -101 -103 -209v-685h-118v513q-33 -42 -80 -89q-28 68 -69 122zM328 429v116h265v282h122v-282h253v-116h-253v-364h236v-114h-598v114h240v364h-265z" />
<glyph unicode="&#x4ed6;" d="M16 469q68 68 129.5 168.5t98.5 206.5l110 -36q-39 -101 -93 -201v-692h-118v509q-31 -42 -63 -75q-29 71 -64 120zM271 453l121 47v236h118v-189l97 37v259h111v-215l101 38l15 12l22 15l81 -31l-4 -18q-2 -284 -9 -338q-7 -69 -56 -90q-36 -16 -113 -14q-4 68 -26 109 q44 -2 61 -2q20 0 25 23q6 25 7 215l-104 -41v-356h-111v312l-97 -38v-320q0 -45 13 -57t61 -12h203q43 0 57 25.5t21 111.5q46 -30 108 -46q-12 -114 -48 -156t-129 -42h-221q-107 0 -145 36.5t-38 139.5v273l-75 -29z" />
<glyph unicode="&#x4ed8;" d="M28 460q72 69 135.5 170.5t103.5 211.5l118 -38q-45 -111 -95 -202v-687h-122v501q-32 -40 -70 -80q-32 72 -70 124zM351 512v120h381v204h124v-204h110v-120h-110v-454q0 -57 -15 -84.5t-51 -41.5q-56 -22 -234 -20q-12 60 -46 118q53 -2 114.5 -2.5t73.5 0.5 q19 0 26.5 6.5t7.5 23.5v454h-381zM396 391l106 49q114 -185 137 -231l-114 -58q-29 72 -129 240z" />
<glyph unicode="&#x4ed9;" d="M15 471q71 68 136 168t105 206l110 -36q-43 -105 -93 -193v-700h-113v528q-37 -48 -83 -94q-30 76 -62 121zM352 -56v643h111v-458h113v685h117v-685h119v458h115v-641h-115v72h-349v-74h-111z" />
<glyph unicode="&#x4edd;" d="M29 435q122 69 230.5 183.5t162.5 220.5h132q76 -127 186.5 -231.5t228.5 -160.5q-36 -37 -84 -115q-114 69 -222.5 173t-168.5 201q-98 -163 -280 -304h565v-122h-216v-215h327v-122h-784v122h326v215h-220v120q-56 -42 -102 -70q-28 54 -81 105z" />
<glyph unicode="&#x4ee3;" d="M12 449q82 70 155 174t118 216l114 -37q-41 -95 -93 -184v-703h-124v525q-56 -70 -104 -112q-26 65 -66 121zM341 512l202 27q-12 155 -16 293h121q3 -158 13 -277l285 37l17 -112l-290 -40q46 -366 161 -380q11 -1 19.5 16t14 51.5t9.5 91.5q24 -28 97 -68 q-31 -242 -135 -236q-122 12 -189 140.5t-95 368.5l-197 -27zM715 785l89 55q101 -92 144 -161l-96 -62q-37 70 -137 168z" />
<glyph unicode="&#x4ee4;" d="M24 483q122 64 234.5 166.5t171.5 197.5h121q81 -112 195.5 -206.5t232.5 -146.5q-36 -37 -80 -106q-98 56 -191 131v-73h-416v74q-88 -73 -191 -133q-34 58 -77 96zM128 252v107h722v-256q0 -43 -12 -68t-42 -39q-48 -19 -174 -19q-10 56 -42 115q25 -1 126 -1 q13 0 17.5 3t4.5 12v146h-240v-339h-126v339h-234zM331 553h336q-110 95 -171 177q-62 -86 -165 -177z" />
<glyph unicode="&#x4ee5;" d="M29 153q73 25 133 49l-20 584l124 5l18 -541q80 34 151 62l27 -117q-178 -80 -393 -169zM290 17q94 36 165.5 88t121.5 117t84.5 153.5t54 187.5t31.5 227l131 -12q-33 -322 -122 -508q166 -172 222 -257l-102 -99q-46 81 -187 241q-110 -156 -304 -243q-13 19 -43 52.5 t-52 52.5zM352 675l108 54q48 -54 91.5 -120.5t66.5 -119.5l-117 -62q-19 51 -61 121.5t-88 126.5z" />
<glyph unicode="&#x4eee;" d="M15 475q72 66 136.5 165t104.5 205l111 -37q-40 -99 -94 -193v-700h-113v530q-41 -52 -82 -94q-28 73 -63 124zM287 -15q37 52 61.5 119t35 141.5t13.5 131.5t3 129v291h545v-113h-427v-146h326l20 3l73 -27q-42 -231 -150 -386q85 -76 194 -115q-45 -40 -80 -102 q-109 46 -192 124q-77 -77 -179 -125q-13 23 -37 53t-42 43q102 42 180 117q-69 92 -119 222q-23 -287 -130 -435q-16 17 -46 41.5t-49 33.5zM598 428q39 -120 110 -213q61 89 94 213h-204z" />
<glyph unicode="&#x4ef0;" d="M11 471q68 67 130 167t102 207l108 -34q-35 -94 -92 -197v-698h-112v524q-27 -37 -75 -89q-8 23 -27.5 62t-33.5 58zM285 158q38 9 70 18v558l46 -13q90 62 141 125l110 -65q-80 -69 -187 -131v-444q110 32 117 34l18 -107q-158 -50 -270 -82zM604 -87v827h341v-539 q0 -81 -40 -105q-34 -21 -133 -21q-5 57 -29 114q31 -1 74 -1q14 0 14 16v432h-115v-723h-112z" />
<glyph unicode="&#x4ef2;" d="M21 470q67 68 126.5 168t95.5 206l112 -35q-41 -108 -97 -215v-681h-113v504q-19 -25 -59 -71q-26 68 -65 124zM330 171v476h241v187h119v-187h250v-469h-118v52h-132v-317h-119v317h-129v-59h-112zM442 340h129v196h-129v-196zM690 340h132v196h-132v-196z" />
<glyph unicode="&#x4ef6;" d="M22 469q66 68 125.5 168t96.5 206l113 -36q-43 -113 -98 -213v-680h-113v503q-40 -50 -60 -72q-23 62 -64 124zM300 465q77 112 118 327l115 -24q-10 -51 -29 -115h83v181h120v-181h209v-116h-209v-172h256v-116h-256v-336h-120v336h-270v116h270v172h-122 q-27 -73 -62 -129q-39 28 -103 57z" />
<glyph unicode="&#x4efb;" d="M17 459q75 69 142 172t108 213l118 -37q-19 -48 -35 -80q322 41 501 106l87 -100q-99 -33 -226 -57v-244h250v-115h-250v-256h240v-114h-592v114h231v256h-271v115h271v222q-80 -14 -208 -29q-7 41 -34 99q-26 -58 -62 -120v-690h-119v512q-47 -59 -81 -92 q-25 61 -70 125z" />
<glyph unicode="&#x4f01;" d="M20 476q125 64 237.5 169.5t171.5 205.5h122q80 -118 195.5 -214.5t236.5 -148.5q-38 -39 -80 -107q-117 65 -230.5 163t-177.5 190q-62 -93 -170 -189t-230 -165q-28 51 -75 96zM75 48h109v347h117v-347h142v519h125v-214h268v-105h-268v-200h358v-108h-851v108z" />
<glyph unicode="&#x4f0a;" d="M14 471q72 67 136.5 167t105.5 206l110 -35q-40 -99 -93 -194v-700h-113v529q-47 -60 -83 -94q-27 69 -63 121zM301 -1q156 69 205 221h-143v110h163q3 42 3 82v35h-217v110h217v116h-157v110h531v-226h61v-110h-61v-275h-115v48h-161q-51 -211 -245 -311q-32 49 -81 90z M644 330h144v117h-141v-36q0 -39 -3 -81zM647 557h141v116h-141v-116z" />
<glyph unicode="&#x4f0d;" d="M12 464q68 69 130 170.5t101 209.5l109 -35q-35 -92 -78 -174v-722h-116v532q-42 -58 -86 -104q-7 21 -26.5 61t-33.5 62zM324 -50v110h119q24 130 49 291h-126v110h142q17 114 26 202h-168v111h558v-111h-268q-27 -198 -28 -202h256v-401h89v-110h-649zM564 60h200v291 h-152q-28 -188 -48 -291z" />
<glyph unicode="&#x4f0e;" d="M13 468q71 69 134 169.5t103 207.5l109 -35q-38 -97 -86 -184v-712h-115v532q-37 -49 -84 -98q-25 66 -61 120zM298 14q143 35 255 105q-85 90 -144 221l84 25h-149v108h241v124h-253v110h253v135h120v-135h260v-110h-260v-124h128l20 4l79 -38q-58 -186 -193 -321 q108 -68 245 -99q-44 -43 -78 -108q-151 41 -264 127q-116 -81 -270 -127q-11 22 -33.5 54t-40.5 49zM519 365q47 -100 128 -175q83 76 129 175h-257z" />
<glyph unicode="&#x4f0f;" d="M23 467q69 69 130 170.5t98 209.5l114 -35q-44 -116 -94 -207v-692h-119v504q-31 -40 -64 -76q-23 63 -65 126zM304 -10q209 174 243 462h-229v118h236v275h121v-275h275v-118h-261q82 -313 280 -433q-50 -40 -89 -104q-156 110 -246 354q-61 -214 -232 -358 q-34 38 -98 79zM724 776l90 51q82 -106 112 -171l-98 -57q-24 59 -104 177z" />
<glyph unicode="&#x4f10;" d="M25 463q73 70 138 172.5t104 211.5l115 -36q-41 -104 -93 -198v-698h-121v514q-38 -48 -75 -87q-9 23 -31 62t-37 59zM309 52q148 53 275 150q-32 118 -51 276l-206 -21l-11 113l206 19q-9 109 -11 247h125q-2 -125 7 -235l294 29l10 -111l-293 -30q11 -86 33 -193 q82 88 126 181l115 -41q-75 -146 -204 -267q49 -135 104 -135q34 0 42 180q44 -44 104 -66q-14 -139 -47.5 -187.5t-107.5 -48.5q-116 0 -193 174q-110 -82 -239 -137q-34 59 -78 103zM673 777l78 65q8 -7 50 -40t67 -54.5t41 -37.5l-82 -73q-38 42 -154 140z" />
<glyph unicode="&#x4f11;" d="M14 458q76 69 143.5 171t109.5 213l118 -38q-45 -112 -103 -211v-466q72 59 137 155.5t110 206.5h-207v116h254v226h118v-226h261v-116h-209q96 -238 239 -362q-52 -38 -89 -95q-114 112 -202 318v-437h-118v417q-91 -190 -213 -303q-33 46 -81 88v-200h-117v508 q-47 -58 -82 -90q-29 69 -69 125z" />
<glyph unicode="&#x4f1a;" d="M28 511q123 54 234 148t170 187h124q78 -108 190 -191t233 -126q-31 -32 -77 -109q-87 41 -168 97v-79h-467v73q-79 -56 -169 -100q-26 55 -70 100zM90 245v110h827v-110h-448q-31 -64 -92 -177q101 3 301 11q-51 59 -98 102l105 55q67 -59 130.5 -130t98.5 -127 l-111 -67q-13 25 -40 62q-38 -2 -652 -31l-16 116l151 5q44 92 76 181h-232zM316 547h375q-124 93 -192 185q-67 -95 -183 -185z" />
<glyph unicode="&#x4f1d;" d="M15 471q71 68 136 168t105 206l110 -36q-43 -105 -93 -193v-700h-113v528q-37 -48 -83 -94q-30 76 -62 121zM316 68q39 3 97 6q52 126 92 295h-182v115h647v-115h-328q-52 -160 -105 -286q92 7 254 20q-38 76 -79 139l105 44q55 -80 101.5 -168.5t63.5 -153.5l-116 -51 q-8 37 -26 81q-370 -35 -503 -45zM396 665v114h523v-114h-523z" />
<glyph unicode="&#x4f2f;" d="M24 421q77 71 137.5 183t94.5 240l113 -26q-37 -128 -92 -242v-664h-118v472q-30 -39 -63 -72q-36 65 -72 109zM370 -85v755h156q33 97 48 177l141 -22q-30 -80 -63 -155h249v-748h-124v41h-288v-48h-119zM489 82h288v180h-288v-180zM489 379h288v178h-288v-178z" />
<glyph unicode="&#x4f34;" d="M15 471q71 68 136 168t105 206l110 -36q-43 -105 -93 -193v-700h-113v528q-37 -48 -83 -94q-30 76 -62 121zM319 178v110h263v135h-223v110h223v301h120v-301h227v-110h-227v-135h267v-110h-267v-265h-120v265h-263zM355 760l100 37q64 -114 84 -207l-107 -43 q-16 92 -77 213zM744 590q55 109 83 215l121 -42q-66 -139 -107 -212z" />
<glyph unicode="&#x4f36;" d="M15 471q71 68 136 168t105 206l110 -36q-43 -105 -93 -193v-700h-113v528q-37 -48 -83 -94q-30 76 -62 121zM274 533q86 52 166.5 139t123.5 168h113q60 -93 143 -174t165 -123q-30 -36 -69 -108q-56 37 -107 82v-59h-358v61q-52 -48 -112 -86q-28 60 -65 100zM338 265 v108h574v-255q0 -43 -10.5 -67t-38.5 -36q-40 -19 -161 -19q-8 51 -37 110q76 -3 110 -1q12 1 15.5 3.5t3.5 11.5v145h-170v-351h-118v351h-168zM497 563h263q-81 79 -134 160q-50 -79 -129 -160z" />
<glyph unicode="&#x4f38;" d="M12 469q68 68 128.5 168t98.5 207l113 -36q-38 -101 -96 -206v-687h-113v511q-33 -43 -68 -80q-28 74 -63 123zM326 140v550h248v153h117v-153h257v-540h-116v40h-141v-276h-117v276h-137v-50h-111zM437 298h137v91h-137v-91zM437 492h137v90h-137v-90zM691 298h141v91 h-141v-91zM691 492h141v90h-141v-90z" />
<glyph unicode="&#x4f3a;" d="M16 469q67 69 127 169t96 206l108 -36q-38 -103 -92 -205v-688h-115v505q-27 -35 -62 -75q-8 23 -27.5 63t-34.5 61zM337 518v103h425v-103h-425zM351 690v107h585v-742q0 -50 -12 -77.5t-42 -42.5q-46 -22 -189 -22q-9 62 -39 122q42 -3 138 -3q14 1 19.5 6t5.5 18v634 h-466zM362 44v404h357v-336h-248v-68h-109zM471 212h138v136h-138v-136z" />
<glyph unicode="&#x4f3c;" d="M12 469q68 68 128.5 168t98.5 207l113 -36q-38 -101 -96 -206v-687h-113v511q-33 -43 -68 -80q-28 74 -63 123zM282 191q36 11 101 34l-6 564l116 1l5 -525q21 8 64.5 24t65.5 24l22 -104q-140 -62 -320 -135zM391 9q85 27 149 65t109.5 90.5t75.5 113.5t48 145t26 173 t11 209l121 -3q-7 -204 -32 -347t-78 -248q132 -158 162 -210l-95 -85q-39 71 -133 191q-101 -125 -288 -197q-9 18 -33 50.5t-43 52.5zM533 681l99 41q81 -135 108 -232l-108 -47q-24 99 -99 238z" />
<glyph unicode="&#x4f3d;" d="M19 462q58 71 109 173.5t83 212.5l101 -31q-34 -106 -72 -191v-712h-107v512q-32 -48 -60 -83q-17 59 -54 119zM243 -12q62 88 86 220.5t28 336.5h-74v105h75q1 59 1 188h105q0 -128 -1 -188h168q0 -37 -1 -52q-5 -346 -11.5 -467.5t-26.5 -151.5q-21 -38 -66 -48 q-25 -6 -99 -4q-2 53 -28 107q29 -3 70 -3q20 0 30 18q12 20 17 124t9 372h-64q-6 -229 -35.5 -382t-101.5 -255q-13 20 -37.5 44t-43.5 36zM660 -62v796h284v-788h-105v83h-78v-91h-101zM761 134h78v496h-78v-496z" />
<glyph unicode="&#x4f43;" d="M13 469q68 68 129.5 168t98.5 206l109 -35q-37 -104 -100 -216v-677h-114v503q-20 -26 -60 -70q-22 61 -63 121zM350 -86v874h576v-866h-119v53h-344v-61h-113zM463 90h112v237h-112v-237zM463 442h112v231h-112v-231zM691 90h116v237h-116v-237zM691 442h116v231h-116 v-231z" />
<glyph unicode="&#x4f46;" d="M19 471q70 67 132.5 166.5t101.5 205.5l115 -37q-41 -107 -98 -207v-685h-117v507q-37 -46 -69 -80q-27 74 -65 130zM319 -54v111h651v-111h-651zM389 155v628h509v-628h-509zM512 265h256v152h-256v-152zM512 527h256v146h-256v-146z" />
<glyph unicode="&#x4f4d;" d="M15 475q72 66 136.5 165t104.5 205l111 -37q-40 -99 -94 -193v-699h-113v529q-41 -52 -82 -94q-28 73 -63 124zM325 -45v112h328q70 219 96 448l130 -21q-47 -235 -111 -427h203v-112h-646zM345 554v113h235v167h120v-167h250v-113h-605zM414 490l107 19q59 -219 71 -385 l-118 -25q-2 73 -19 184.5t-41 206.5z" />
<glyph unicode="&#x4f4e;" d="M12 469q68 68 128.5 168t98.5 207l113 -36q-38 -101 -96 -206v-687h-113v511q-33 -43 -68 -80q-28 74 -63 123zM298 185q11 1 64 8v566l77 -25q258 34 399 84l88 -91q-82 -26 -175 -44q0 -88 6 -172h209v-107h-199q17 -148 45 -245t56 -97q23 0 26 135q41 -41 93 -62 q-12 -111 -40.5 -149.5t-89.5 -38.5q-81 0 -132.5 125t-74.5 332h-172v-195q26 4 56 8.5t67 10t57 8.5l6 -106q-152 -26 -343 -55zM334 38h400v-105h-400v105zM478 511h162q-4 48 -8 150q-74 -11 -154 -21v-129z" />
<glyph unicode="&#x4f4f;" d="M15 471q71 68 136 168t105 206l110 -36q-43 -105 -93 -193v-700h-113v528q-37 -48 -83 -94q-30 76 -62 121zM325 -55v112h266v199h-211v112h211v174h-243v112h284q-74 57 -167 110l79 85q59 -30 124.5 -72t101.5 -73l-44 -50h229v-112h-243v-174h216v-112h-216v-199h258 v-112h-645z" />
<glyph unicode="&#x4f50;" d="M15 471q71 68 136 168t105 206l110 -36q-43 -105 -93 -193v-496q125 143 194 421h-152v112h176q15 75 29 183l122 -13q-13 -97 -28 -170h354v-112h-378q-17 -76 -41 -151h397v-110h-173v-224h195v-111h-532v111h219v224h-134v29q-71 -188 -173 -304q-22 30 -75 77v-166 h-113v528q-37 -48 -83 -94q-30 76 -62 121z" />
<glyph unicode="&#x4f51;" d="M14 472q72 68 137 167.5t105 205.5l110 -36q-40 -100 -93 -193v-700h-113v529q-46 -58 -83 -95q-26 68 -63 122zM280 199q140 111 219 342h-184v114h215q21 83 35 187l125 -18q-18 -101 -35 -169h316v-114h-347q-30 -93 -62 -160h371v-454h-120v47h-235v-55h-114v297 q-52 -68 -107 -112q-36 54 -77 95zM578 84h235v187h-235v-187z" />
<glyph unicode="&#x4f53;" d="M16 469q63 68 118 168t89 206l113 -34q-33 -96 -80 -193v-701h-113v508q-32 -43 -61 -78q-27 70 -66 124zM261 150q74 66 140.5 175.5t108.5 230.5h-197v113h253v173h116v-173h276v-113h-217q42 -118 107 -226t137 -175q-56 -44 -89 -92q-36 39 -80 106v-88h-134v-161 h-116v161h-131v92q-48 -72 -89 -113q-41 57 -85 90zM444 187h122v254q-51 -142 -122 -254zM682 187h123q-70 115 -123 261v-261z" />
<glyph unicode="&#x4f55;" d="M26 479q67 67 127 165.5t96 203.5l112 -36q-36 -95 -82 -183v-713h-119v523q-30 -41 -70 -84q-27 71 -64 124zM352 647v114h616v-114h-60v-593q0 -52 -13 -79t-45 -41q-51 -22 -203 -22q-6 52 -40 122q65 -3 155 -3q15 0 20.5 5.5t5.5 19.5v591h-436zM364 112v427h333 v-362h-222v-65h-111zM475 280h111v156h-111v-156z" />
<glyph unicode="&#x4f59;" d="M27 525q121 55 232 144.5t172 175.5h120q80 -102 193.5 -183.5t232.5 -125.5q-36 -36 -78 -106q-76 36 -148 85v-75h-192v-91h346v-112h-346v-195q0 -46 -11.5 -70.5t-42.5 -38.5q-48 -21 -168 -21q-11 55 -48 115q50 -2 122 -2q13 1 17.5 5t4.5 14v193h-326v112h326v91 h-195v68q-68 -45 -139 -80q-36 61 -72 97zM30 25q61 31 118 78.5t94 97.5l111 -40q-43 -60 -107 -119.5t-126 -98.5q-51 53 -90 82zM295 547h409q-136 98 -208 187q-74 -94 -201 -187zM629 147l97 61q158 -116 224 -193l-105 -70q-57 75 -216 202z" />
<glyph unicode="&#x4f5c;" d="M24 469q68 68 129.5 168t98.5 206l116 -36q-39 -104 -96 -208v-685h-120v500q-42 -50 -62 -72q-27 71 -66 127zM303 460q65 67 121.5 167.5t90.5 209.5l115 -29q-22 -65 -49 -124h388v-113h-284v-105h259v-108h-259v-113h272v-110h-272v-222h-122v658h-38 q-61 -114 -131 -194q-35 40 -91 83z" />
<glyph unicode="&#x4f73;" d="M23 469q66 68 125 168t95 206l112 -35q-39 -107 -92 -205v-690h-118v504q-22 -31 -58 -70q-27 68 -64 122zM302 -55v114h275v120h-220v113h220v88h121v-88h226v-113h-226v-120h269v-114h-665zM331 409v112h246v104h-200v111h200v111h121v-111h206v-111h-206v-104h251 v-112h-618z" />
<glyph unicode="&#x4f75;" d="M15 471q71 68 136 168t105 206l110 -36q-43 -105 -93 -193v-700h-113v528q-37 -48 -83 -94q-30 76 -62 121zM305 -10q129 84 152 267h-144v114h149v156h-124v113h146q-27 82 -76 164l102 41q66 -97 86 -171l-81 -34h253l-71 29q49 80 83 180l126 -43q-91 -146 -106 -166 h150v-113h-122v-156h144v-114h-144v-343h-118v343h-137q-26 -235 -186 -352q-35 48 -82 85zM579 371h131v156h-131v-156z" />
<glyph unicode="&#x4f7c;" d="M12 464q68 69 130 170.5t101 209.5l109 -35q-33 -87 -79 -176v-720h-115v532q-42 -58 -86 -104q-7 21 -26.5 61t-33.5 62zM288 405q53 33 102.5 86t79.5 108l115 -36q-48 -87 -130 -171l91 25q34 -95 95 -178q56 82 82 186l112 -25q-63 79 -138 149l92 56 q138 -123 189 -205l-99 -63q-13 22 -36 52q-45 -137 -122 -237q108 -97 260 -140q-47 -43 -79 -106q-151 52 -263 159q-115 -105 -287 -157q-20 46 -61 98q167 45 273 144q-72 99 -121 230q-27 -27 -62 -55q-41 44 -93 80zM332 611v110h252v126h120v-126h264v-110h-636z" />
<glyph unicode="&#x4f7f;" d="M15 476q72 68 137 168t105 205l110 -36q-18 -42 -27 -64h244v91h118v-91h265v-108h-265v-70h238v-292h-244q-13 -100 -55 -174q138 -66 342 -84q-40 -41 -71 -106q-202 25 -342 105q-75 -69 -205 -107q-32 55 -74 99q116 26 182 77q-68 57 -123 149l97 30q34 -55 93 -103 q28 50 37 114h-223v292h230v70h-251v92q-30 -63 -60 -115v-707h-113v537q-46 -58 -82 -94q-26 68 -63 122zM461 375h123v99h-123v-99zM702 375h124v99h-124v-99z" />
<glyph unicode="&#x4f83;" d="M20 468q66 69 124 169.5t94 207.5l111 -34q-38 -104 -88 -200v-697h-113v513q-31 -43 -64 -79q-29 71 -64 120zM271 -13q73 51 97 116.5t24 145.5v110h110v-113q0 -49 -5.5 -89.5t-20 -88t-46.5 -90t-80 -76.5q-11 19 -35 44.5t-44 40.5zM367 407v392h521v-392h-521z M480 516h288v175h-288v-175zM566 -49v405h108v-405h-108zM742 50v309h111v-310q0 -25 3 -30q3 -6 9 -6h12q7 0 11 5q2 2 7 26q1 23 3 98q30 -27 79 -44q-4 -93 -12 -121q-10 -31 -31 -46q-20 -13 -55 -13h-48q-44 0 -65 25q-13 14 -18.5 35.5t-5.5 71.5z" />
<glyph unicode="&#x4f8b;" d="M14 461q125 144 198 385l110 -33l-3 -10h347v-71h98v-582h-105v549h-168q-18 -90 -22 -108h89l19 4l69 -21q-27 -240 -102.5 -408t-191.5 -253q-11 21 -34.5 49.5t-39.5 41.5q108 74 175 221q-31 37 -87 82q-26 -48 -58 -84q-26 40 -66 80v-389h-109v501q-31 -47 -62 -82 q-24 74 -57 128zM242 310q97 123 136 389h-66v85q-28 -80 -70 -173v-301zM411 401q55 -39 83 -66q20 67 34 153h-86q-18 -53 -31 -87zM682 29q80 -4 123 -2q12 1 17 5.5t5 16.5v779h110v-780q0 -48 -10.5 -73.5t-37.5 -39.5q-44 -23 -171 -23q-7 58 -36 117z" />
<glyph unicode="&#x4f8d;" d="M17 469q68 68 129 168t98 206l113 -36q-41 -109 -100 -214v-678h-113v504q-26 -34 -63 -74q-8 23 -28.5 63t-35.5 61zM307 430v108h269v87h-210v108h210v109h122v-109h223v-108h-223v-87h272v-108h-131v-79h122v-108h-122v-204q0 -46 -11 -70t-42 -36q-44 -20 -176 -20 q-8 51 -36 112q83 -3 122 -1q13 0 17 3.5t4 13.5v202h-399v108h399v79h-410zM376 186l102 52q93 -105 120 -170l-110 -58q-27 74 -112 176z" />
<glyph unicode="&#x4f9b;" d="M17 471q68 68 129.5 168t98.5 206l111 -35q-37 -99 -95 -208v-688h-117v507q-26 -34 -63 -74q-9 24 -29 63.5t-35 60.5zM297 -9q115 78 181 191l111 -34q-36 -62 -90 -124.5t-109 -107.5q-46 46 -93 75zM317 223v116h134v199h-109v114h109v187h116v-187h145v188h116v-188 h130v-114h-130v-199h138v-116h-649zM567 339h145v199h-145v-199zM696 130l95 53q106 -103 170 -206l-100 -63q-24 45 -71 106.5t-94 109.5z" />
<glyph unicode="&#x4f9d;" d="M12 475q69 66 131.5 165t103.5 205l110 -36q-27 -66 -57 -128h265v153h121v-153h260v-110h-237q17 -111 44 -199q76 65 128 126l89 -84q-103 -85 -181 -140q74 -175 199 -249q-46 -39 -85 -102q-116 79 -184 221t-107 347q-43 -59 -88 -104v-302q78 15 189 40l12 -107 q-149 -36 -390 -89l-33 113q8 2 47 8.5t62 11.5v224q-40 -32 -86 -60q-27 42 -62 83v-393h-112v524q-37 -49 -77 -89q-29 76 -62 124zM263 335q162 90 264 236h-230v105q-18 -36 -34 -64v-277z" />
<glyph unicode="&#x4fa0;" d="M18 469q67 68 126 169t96 208l110 -35q-38 -107 -89 -201v-700h-116v514q-27 -35 -65 -79q-8 23 -27.5 63t-34.5 61zM280 4q222 86 275 268h-245v110h265q3 45 3 89v139h-238v109h238v117h122v-117h242v-109h-242v-141q0 -47 -4 -87h263v-110h-248q84 -193 272 -260 q-43 -37 -80 -100q-169 72 -262 256q-78 -165 -278 -260q-33 53 -83 96zM361 563l98 32q51 -97 65 -164l-104 -37q-14 76 -59 169zM744 429q42 81 66 164l115 -39q-10 -16 -44 -76.5t-50 -83.5z" />
<glyph unicode="&#x4fa1;" d="M15 482q64 65 122 162t95 201l107 -34q-36 -96 -90 -197v-700h-112v522q-33 -45 -61 -74q-26 67 -61 120zM317 643v106h635v-106h-174v-125h169v-577h-114v51h-396v-57h-110v583h161v125h-171zM437 94h62v321h-62v-321zM599 94h67v321h-67v-321zM600 518h66v125h-66v-125 zM766 94h67v321h-67v-321z" />
<glyph unicode="&#x4fad;" d="M17 469q64 69 120.5 169t90.5 206l113 -34q-32 -92 -84 -196v-416q116 157 116 454v143h537v-337h-136q78 -189 214 -275q-48 -38 -85 -100q-158 115 -244 375h-186q-35 -236 -154 -367q-20 20 -62 48v-225h-114v509q-34 -46 -61 -77q-30 72 -65 123zM414 94l68 79 q79 -35 167 -84t136 -87l-73 -92q-94 82 -298 184zM465 316l73 75q138 -84 198 -146l-78 -82q-59 68 -193 153zM484 561h306v131h-303v-40q0 -42 -3 -91z" />
<glyph unicode="&#x4fae;" d="M12 469q68 68 128.5 168t98.5 207l113 -36q-38 -101 -96 -206v-687h-113v511q-33 -43 -68 -80q-28 74 -63 123zM279 548q110 107 172 299l115 -28q-20 -56 -32 -83h420v-103h-470q-22 -39 -40 -66h456v-50q-1 -32 -2.5 -86t-1.5 -72h79v-102h-83q-1 -47 -5 -106h68v-101 h-77q-8 -64 -24 -87q-24 -37 -70 -45q-29 -6 -116 -4q-2 49 -27 96q35 -3 82 -3q21 0 30 17q5 6 10 26h-296l-7 -44l-112 8q14 79 36 243h-92v102h104q12 112 16 161q-28 -36 -32 -40q-40 33 -101 68zM481 151h93q7 57 11 106h-90q-2 -15 -6.5 -51t-7.5 -55zM507 359h86 q3 32 7 108h-81zM680 151h95q1 13 1.5 29t1.5 39t2 38h-91q-5 -63 -9 -106zM697 359h86l3 108h-81q-2 -18 -4.5 -54.5t-3.5 -53.5z" />
<glyph unicode="&#x4faf;" d="M12 469q68 68 128.5 168t98.5 207l113 -36q-38 -101 -96 -206v-687h-113v511q-33 -43 -68 -80q-28 74 -63 123zM298 324q84 77 128 199h-112v103h413v78h-318v100h438v-178h114v-103h-423l8 -2q-16 -44 -26 -65h392v-100h-217v-89h268v-104h-244q87 -120 261 -154 q-43 -39 -74 -102q-170 48 -261 183q-75 -114 -267 -179q-28 47 -77 87q198 56 252 165h-248v104h89q-41 29 -96 57zM401 267h175v89h-110q-31 -51 -65 -89z" />
<glyph unicode="&#x4fb5;" d="M12 469q68 68 128.5 168t98.5 207l113 -36q-38 -101 -96 -206v-687h-113v511q-33 -43 -68 -80q-28 74 -63 123zM304 11q128 16 225 53q-58 46 -100 106l74 26h-112v46h-76v178h640v-178h-65q-50 -107 -142 -179q98 -34 234 -50q-41 -40 -71 -101q-159 24 -274 82 q-115 -56 -279 -85q-17 55 -54 102zM372 460v90h406v42h-375v84h375v43h-397v90h515v-349h-524zM421 288h382l20 4l22 -10v49h-424v-43zM540 196q34 -44 95 -81q57 35 96 81h-191z" />
<glyph unicode="&#x4fb6;" d="M15 471q71 68 136 168t105 206l110 -36q-43 -105 -93 -193v-700h-113v528q-37 -48 -83 -94q-30 76 -62 121zM367 -86v414h200q14 58 21 108h-186v365h515v-365h-197q-21 -65 -38 -108h273v-409h-119v34h-355v-39h-114zM481 62h355v162h-355v-162zM515 543h283v152h-283 v-152z" />
<glyph unicode="&#x4fbf;" d="M27 469q63 68 119.5 168.5t90.5 206.5l112 -35l-5 -13h607v-104h-251v-60h226v-402h-238q-17 -78 -61 -142q141 -46 356 -57q-41 -42 -72 -111q-220 18 -369 84q-75 -55 -196 -92q-26 50 -72 98q102 21 162 55q-71 50 -119 116l103 36q38 -47 102 -84q33 40 48 97h-218 v402h230v60h-243v89q-36 -95 -82 -186v-680h-114v495q-24 -34 -51 -64q-22 59 -65 123zM462 317h119q1 13 1 39v35h-120v-74zM462 472h120v73h-120v-73zM699 317h112v74h-111v-36q0 -25 -1 -38zM700 472h111v73h-111v-73z" />
<glyph unicode="&#x4fc2;" d="M10 467q65 69 123.5 169.5t95.5 207.5l110 -34q-33 -90 -79 -182v-715h-115v523q-36 -51 -74 -92q-25 70 -61 123zM292 10q76 78 122 184l110 -34q-69 -132 -143 -209q-39 32 -89 59zM299 344l187 5l30 30q-66 62 -185 140l69 77q30 -18 53 -33q31 42 66 99 q-106 -10 -156 -14q-7 49 -31 97q322 27 511 82l78 -95q-96 -26 -257 -51l4 -2q-100 -127 -137 -169q28 -20 63 -49q89 101 147 185l109 -50q-101 -126 -220 -243q56 2 172 6q-17 29 -48 74l99 39q95 -124 135 -231l-107 -46q-12 35 -25 63l-172 -9v-336h-118v331l-250 -12z M733 153l97 46q97 -115 129 -189l-104 -53q-30 81 -122 196z" />
<glyph unicode="&#x4fc3;" d="M14 460q60 70 113 173t85 213l110 -32q-35 -106 -71 -185v-715h-118v499q-31 -45 -61 -81q-21 68 -58 128zM251 -19q111 107 135 385l114 -11q-7 -71 -21 -139q35 -89 104 -131v357h-204v363h520v-363h-196v-119h211v-111h-211v-164q33 -3 69 -3q155 0 201 1 q-26 -44 -36 -111h-174q-114 0 -192 30.5t-131 110.5q-37 -100 -95 -164q-40 38 -94 69zM492 545h287v156h-287v-156z" />
<glyph unicode="&#x4fc4;" d="M14 460q60 69 113 171.5t85 213.5l110 -33q-3 -9 -12.5 -36.5t-15.5 -42.5q169 38 275 90l83 -88q-1 32 -1 97h115q-3 -139 2 -286h179v-103h-174q8 -105 14 -156q28 48 56 122l105 -26q-51 -135 -137 -248q24 -110 56 -110q22 0 26 144q36 -42 85 -64 q-12 -112 -39 -152.5t-87 -40.5q-79 0 -126 126q-53 -53 -115 -95q-33 48 -75 83q84 51 158 131q-24 121 -33 286h-128v-114l106 25l12 -106q-22 -6 -63.5 -16.5t-54.5 -13.5v-179q0 -44 -10 -67.5t-37 -36.5q-42 -22 -157 -22q-7 55 -34 109q79 -2 106 0q11 0 15.5 4 t4.5 15v148q-75 -20 -127 -32l-27 114q102 21 154 33v139h-151v103h151v114q-66 -14 -119 -24q-7 29 -21 62q-11 -27 -35 -81v-703h-113v498q-24 -34 -61 -81q-7 22 -25.5 64t-32.5 65zM533 546h123q-4 120 -4 185q-54 -24 -119 -41v-144zM791 772l87 35q61 -100 84 -180 l-92 -41q-20 74 -79 186z" />
<glyph unicode="&#x4fca;" d="M12 469q68 68 128.5 168t98.5 207l113 -36q-38 -101 -96 -206v-687h-113v511q-33 -43 -68 -80q-28 74 -63 123zM284 412q94 22 130 59t46 102l-146 -7l-8 110l115 4q52 84 86 170l132 -31q-50 -81 -89 -135l207 8q-36 40 -53 58l97 52q132 -132 178 -216l-105 -58 q-16 30 -41 67l-78 -5v-108q0 -17 4.5 -21.5t21.5 -4.5h62q14 0 19 10.5t7 49.5q33 -26 93 -37q-8 -67 -31 -91t-75 -24h-92q-71 0 -94 24.5t-23 93.5v101l-76 -4q-13 -103 -60.5 -163t-165.5 -93q-21 50 -61 89zM285 14q141 22 247 70q-40 36 -73 79q-45 -33 -86 -56 q-43 48 -86 79q82 38 152.5 96t110.5 125l107 -36q-20 -32 -40 -57h171l20 4l76 -36q-50 -116 -150 -200q109 -48 249 -68q-42 -41 -73 -104q-162 31 -281 103q-122 -66 -286 -99q-24 59 -58 100zM540 224q36 -45 91 -84q53 35 91 84h-182z" />
<glyph unicode="&#x4fd7;" d="M12 469q68 68 128.5 168t98.5 207l113 -36q-38 -101 -96 -206v-687h-113v511q-33 -43 -68 -80q-28 74 -63 123zM280 323q86 51 166.5 139t121.5 168h114q59 -90 139.5 -168.5t160.5 -118.5q-31 -38 -69 -109q-15 9 -45 31v-348h-118v34h-235v-39h-112v350 q-38 -28 -58 -41q-29 59 -65 102zM296 614q51 40 97.5 98t73.5 117l117 -36q-34 -69 -86.5 -138t-104.5 -117q-49 47 -97 76zM461 312h349q-114 101 -180 202q-66 -106 -169 -202zM515 57h235v151h-235v-151zM673 780l95 57q140 -142 187 -226l-101 -63q-50 95 -181 232z " />
<glyph unicode="&#x4fdd;" d="M20 471q70 68 133.5 168t102.5 206l110 -36q-44 -110 -93 -197v-697h-113v523q-42 -53 -76 -89q-25 65 -64 122zM284 46q67 35 130.5 92t110.5 124h-205v108h262v90h-196v343h525v-343h-209v-90h258v-108h-200q44 -65 105 -123t124 -95q-52 -44 -84 -95q-112 80 -203 222 v-258h-120v253q-95 -137 -216 -215q-33 53 -82 95zM499 565h293v134h-293v-134z" />
<glyph unicode="&#x4fe1;" d="M15 471q71 68 136 168t105 206l110 -36q-43 -105 -93 -193v-700h-113v528q-37 -48 -83 -94q-30 76 -62 121zM329 570v96h640v-96h-640zM392 -86v323h522v-320h-120v37h-288v-40h-114zM408 286v93h488v-93h-488zM408 429v92h492v-92h-492zM424 715v93h458v-93h-458z M506 47h288v98h-288v-98z" />
<glyph unicode="&#x4fe3;" d="M24 469q67 69 125.5 169t94.5 206l111 -36q-40 -112 -98 -218v-676h-114v497q-22 -29 -55 -66q-23 62 -64 124zM275 6q200 45 259 149h-224v106h261q6 33 9 70h-238v105h593v-105h-240q-3 -34 -9 -70h277v-106h-230q81 -115 247 -151q-43 -37 -75 -96q-177 52 -265 203 q-73 -140 -302 -199q-20 51 -63 94zM372 500v303h528v-303h-528zM484 602h296v98h-296v-98z" />
<glyph unicode="&#x4fee;" d="M13 458q126 149 198 386l109 -33q-34 -101 -74 -189v-708h-113v500q-34 -51 -63 -84q-30 84 -57 128zM302 80v640h103v-106q101 94 150 233l108 -25q-18 -45 -33 -75h325v-96h-75q-41 -80 -111 -147q100 -49 218 -67q-35 -36 -64 -95q-131 28 -238 95q-98 -64 -228 -103 q-14 29 -52 72v-326h-103zM405 429q111 28 191 74q-42 38 -74 77q-24 -30 -58 -60q-19 19 -59 48v-139zM417 11q325 44 443 173l102 -41q-139 -163 -485 -226q-24 53 -60 94zM460 280q157 41 230 108l87 -36q-84 -85 -254 -140q-24 37 -63 68zM467 155q100 21 187 58t134 84 l85 -35q-110 -120 -348 -181q-27 46 -58 74zM580 651q41 -53 96 -92q47 40 80 92h-176z" />
<glyph unicode="&#x4ff3;" d="M12 469q68 68 128.5 168t98.5 207l113 -36q-38 -101 -96 -206v-687h-113v511q-33 -43 -68 -80q-28 74 -63 123zM283 250q55 9 189 39q5 48 5 86h-154v107h154v99h-161v109h161v144h115v-441q0 -81 -7.5 -144.5t-29 -131t-65.5 -121.5t-111 -92q-39 58 -80 89 q111 63 151 186q-63 -21 -128 -41zM672 -85v921h116v-146h174v-109h-174v-99h166v-108h-166v-108h183v-111h-183v-240h-116z" />
<glyph unicode="&#x4ff5;" d="M12 469q68 68 128.5 168t98.5 207l113 -36q-38 -101 -96 -206v-373q143 50 246 136h-212v100h281v55h-221v94h221v51h-233v97h233v76h119v-76h257v-97h-257v-51h238v-94h-238v-55h275v-100h-247q16 -62 43 -121q77 55 119 97l80 -85q-88 -64 -149 -100q69 -99 169 -142 q-20 -18 -43.5 -48t-35.5 -53q-200 105 -279 419q-40 -40 -83 -73v-187l158 31l10 -102q-64 -15 -353 -76l-35 107q11 2 107 19v133q-49 -27 -101 -51q-31 52 -69 92v-310h-113v511q-33 -43 -68 -80q-28 74 -63 123z" />
<glyph unicode="&#x4ff8;" d="M12 469q68 68 128.5 168t98.5 207l113 -36q-12 -32 -16 -40h207q3 27 7 77h106q-4 -53 -7 -77h294v-90h-307q-2 -12 -8 -44h295v-86h-161q12 -28 22 -49h183v-93h-124q64 -79 142 -117q-43 -36 -74 -90q-45 25 -84 63v-53h-146v-57h219v-95h-219v-144h-110v144h-209v95 h209v57h-139v60q-44 -37 -99 -69q-28 48 -72 79q96 50 157 127h-122v93h179q13 25 21 49h-144v86h169q1 7 4 21.5t5 22.5h-195v88q-35 -83 -79 -164v-687h-113v511q-33 -43 -68 -80q-28 74 -63 123zM461 297h110v76h110v-76h112q-41 46 -75 109h-174q-35 -60 -83 -109z M588 499h86q-12 32 -17 49h-52q-11 -36 -17 -49z" />
<glyph unicode="&#x4ffa;" d="M13 482q70 64 133.5 161.5t103.5 201.5l109 -36q-12 -32 -34 -79h168q22 49 40 115l115 -24q-16 -54 -31 -91h344v-105h-144q69 -117 171 -174q-44 -34 -77 -88q-16 11 -28 20v-279q42 -26 85 -33q-10 -88 -37 -121t-91 -33h-138q-80 0 -108 30t-28 113v31h-101v-52h-106 v335q-14 -11 -31 -22q-26 39 -70 83v-521h-112v525q-35 -44 -71 -80q-8 23 -27.5 62.5t-34.5 60.5zM258 451q107 66 178 174h-133v61q-19 -39 -45 -82v-153zM465 182h101v72h-101v-72zM465 339h101v65h-101v-65zM484 495h82v79h107v-79h102q-45 62 -76 130h-130 q-40 -75 -85 -130zM673 60q0 -31 8 -39.5t36 -8.5h113q21 0 29.5 16t11.5 63h-198v-31zM673 182h105v72h-105v-72zM673 339h105v65h-105v-65z" />
<glyph unicode="&#x5009;" d="M26 567q122 48 233.5 127.5t173.5 158.5h117q80 -92 193 -164.5t233 -111.5q-35 -37 -71 -102q-57 24 -102 48v-295h-507q-2 -13 -8 -39h552v-275h-120v28h-329v-28h-115v232q-45 -144 -142 -228q-14 17 -44.5 44t-48.5 38q48 40 79.5 90.5t45.5 105.5t18.5 99t4.5 97 v126q-53 -28 -96 -47q-33 62 -67 96zM206 527h590q-66 36 -125 76v-39h-349v35q-65 -44 -116 -72zM306 305h381v39h-378zM310 414h377v36h-377v-36zM387 647h222q-72 56 -113 102q-46 -52 -109 -102zM391 29h329v74h-329v-74z" />
<glyph unicode="&#x500b;" d="M13 467q62 68 116 168.5t88 209.5l110 -34q-34 -98 -78 -190v-709h-113v512q-37 -52 -67 -86q-23 74 -56 129zM341 -86v882h597v-873h-113v49h-376v-58h-108zM449 75h376v618h-376v-618zM474 484v86h115v102h92v-102h121v-86h-121v-86h96v-268h-277v268h89v86h-115z M586 211h102v105h-102v-105z" />
<glyph unicode="&#x500d;" d="M12 469q68 68 128.5 168t98.5 207l113 -36q-38 -101 -96 -206v-687h-113v511q-33 -43 -68 -80q-28 74 -63 123zM304 380v109h153q-11 70 -40 137l65 15h-141v106h238v99h122v-99h250v-106h-162l79 -14q-40 -105 -56 -138h159v-109h-667zM386 -87v394h524v-389h-121v37 h-287v-42h-116zM502 65h287v134h-287v-134zM516 489h239l-53 10q32 79 46 142h-223q33 -71 44 -138z" />
<glyph unicode="&#x5012;" d="M14 461q126 147 198 385l110 -33l-6 -17h334v-97h-151q-34 -96 -60 -159l98 6q-16 41 -35 82l86 27q62 -118 80 -216v281h101v-568h-101v281l-90 -33q-3 21 -11 52q-200 -18 -280 -26l-11 103l60 4q25 75 44 166h-75v65q-24 -69 -63 -153v-697h-109v500q-26 -40 -62 -82 q-23 73 -57 129zM269 54q58 7 148 20v142h-120v103h120v100h110v-100h115v-103h-115v-126q58 8 134 20l7 -99q-190 -34 -382 -63zM716 26q42 -2 98 -2q18 1 18 19v788h106v-788q0 -45 -9.5 -69.5t-32.5 -37.5q-39 -23 -148 -23q-3 50 -32 113z" />
<glyph unicode="&#x5016;" d="M15 471q71 68 136 168t105 206l110 -36q-43 -105 -93 -193v-700h-113v528q-37 -48 -83 -94q-30 76 -62 121zM308 472v105h276v74h-204v102h204v87h117v-87h214v-102h-214v-74h272v-105h-99q-46 -90 -55 -106h140v-104h-258v-77h237v-104h-237v-168h-117v168h-232v104h232 v77h-266v104h145q-14 56 -38 105l4 1h-121zM542 472q29 -61 38 -105l-4 -1h126q21 41 44 106h-204z" />
<glyph unicode="&#x5019;" d="M12 458q60 69 112.5 171.5t86.5 214.5l109 -33q-34 -101 -74 -189v-708h-113v501q-32 -47 -64 -85q-24 74 -57 128zM298 73v654h103v-654h-103zM390 -5q186 58 229 175h-192v100h206v87h-73q-29 -49 -59 -85q-41 33 -92 60q70 73 109 190h-93v99h323v86h-267v98h377v-184 h98v-99h-355l30 -7q-6 -20 -22 -60h335v-98h-196v-87h224v-100h-210q51 -117 225 -163q-41 -36 -67 -96q-154 47 -223 168q-70 -105 -232 -169q-10 18 -32.5 43.5t-42.5 41.5z" />
<glyph unicode="&#x501f;" d="M12 469q68 68 128.5 168t98.5 207l113 -36q-38 -101 -96 -206v-687h-113v511q-33 -43 -68 -80q-28 74 -63 123zM300 425v107h153v97h-117v102h117v108h116v-108h135v108h117v-108h125v-102h-125v-97h150v-107h-671zM393 -91v458h504v-453h-120v32h-270v-37h-114zM507 43 h270v71h-270v-71zM507 203h270v68h-270v-68zM569 532h135v97h-135v-97z" />
<glyph unicode="&#x5023;" d="M14 461q125 144 198 385l110 -33q-15 -46 -45 -123h129v148h109v-148h118v-105h-182v-97h138q72 123 104 359l108 -17q-16 -100 -33 -163h198v-100h-37q-26 -240 -85 -385q54 -108 136 -170q-47 -45 -77 -98q-66 57 -118 152q-59 -93 -142 -156q-17 34 -58 83 q-6 -21 -14 -33q-24 -33 -62 -40q-32 -7 -91 -4q-4 61 -28 105q26 -3 61 -3q18 0 28 15q23 34 32 354h-63q-18 -316 -136 -478q-10 15 -32 39.5t-38 38.5v-73h-109v500q-26 -40 -62 -82q-23 73 -57 129zM242 3q104 160 104 483v99h-73v96q-25 -57 -31 -70v-608zM590 14 q88 66 141 174q-33 93 -58 225q-12 -21 -24 -39q-13 18 -32 39q-10 -316 -27 -399zM738 563q18 -129 46 -227q25 99 38 231h-82z" />
<glyph unicode="&#x5024;" d="M12 469q68 68 128.5 168t98.5 207l113 -36q-38 -101 -96 -206v-687h-113v511q-33 -43 -68 -80q-28 74 -63 123zM341 -86v627h110v-480h510v-102h-510v-45h-110zM364 654v102h257q4 62 5 90l119 -5q-2 -27 -8 -85h218v-102h-229q-1 -8 -3.5 -27t-4.5 -28h196v-486h-403 v486h96q2 17 6 55h-249zM621 199h178v52h-178v-52zM621 331h178v51h-178v-51zM621 462h178v51h-178v-51z" />
<glyph unicode="&#x5026;" d="M12 469q68 68 128.5 168t98.5 207l113 -36q-38 -101 -96 -206v-337q90 49 157 135h-118v93h176q15 30 30 70h-107v37q-7 -8 -22 -23q-39 37 -84 65q82 66 126 171l102 -29q-27 -60 -75 -127h90q21 86 33 190l117 -11q-15 -107 -33 -179h181q-34 49 -87 107l86 48 q106 -110 142 -177l-92 -55q-3 6 -11 20v-37h-99q8 -24 26 -70h173v-93h-123q59 -90 138 -135q-42 -35 -75 -92q-54 35 -101 92q-4 -129 -24 -152q-19 -25 -56 -28q-26 -4 -94 -2q-4 48 -24 81q43 -5 59 -3q16 0 23 7q6 11 9 61h-154v-168q0 -26 11 -32.5t52 -6.5h163 q32 0 42 14.5t14 67.5q34 -26 100 -41q-10 -84 -40.5 -113t-105.5 -29h-184q-96 0 -129 28.5t-33 109.5v193q-49 -47 -107 -83q-22 32 -72 76v-330h-113v511q-33 -43 -68 -80q-28 74 -63 123zM500 324h264q-22 34 -40 76h-174q-20 -36 -50 -76zM596 493h91q-12 36 -21 70 h-45q-9 -31 -25 -70z" />
<glyph unicode="&#x502b;" d="M12 469q68 68 128.5 168t98.5 207l113 -36q-38 -101 -96 -206v-687h-113v511q-33 -43 -68 -80q-28 74 -63 123zM260 551q88 46 170.5 126.5t126.5 157.5h113q61 -85 144 -157.5t167 -109.5q-29 -35 -67 -109q-60 34 -123 85v-72h-341v68q-66 -55 -128 -89q-23 56 -62 100 zM333 -87v502h586v-388q0 -38 -7.5 -59.5t-27.5 -34.5q-32 -20 -115 -20q-3 46 -29 104q43 -2 57 0q12 0 12 12v93h-69v-198h-87v198h-65v-198h-86v198h-62v-209h-107zM440 222h62v93h-62v-93zM487 572h271q-90 80 -139 151q-50 -75 -132 -151zM588 222h65v93h-65v-93z M740 222h69v93h-69v-93z" />
<glyph unicode="&#x502d;" d="M12 469q68 68 128.5 168t98.5 207l113 -36q-38 -101 -96 -206v-687h-113v511q-33 -43 -68 -80q-28 74 -63 123zM288 431q119 37 210 113h-181v99h259v56q-82 -7 -196 -11q-4 36 -28 90q316 15 482 56l77 -88q-92 -22 -219 -36v-67h266v-99h-182q89 -71 198 -106 q-37 -31 -77 -89q-111 49 -205 143v-115h-90l51 -12l-27 -47h343v-100h-112q-31 -78 -84 -134q119 -47 182 -84l-78 -90q-68 42 -201 99q-115 -66 -328 -97q-15 47 -56 99q162 15 254 49q-46 16 -68 23l-10 -15l-107 38q28 38 74 112h-133v100h192q8 14 21.5 39t19.5 36 l41 -10v103q-100 -94 -217 -140q-29 49 -71 85zM533 167q77 -23 129 -42q45 41 68 93h-165z" />
<glyph unicode="&#x5036;" d="M11 474q66 65 125 164t97 206l112 -36q-37 -96 -86 -189v-705h-112v524q-29 -41 -72 -87q-28 70 -64 123zM291 -8q58 24 113.5 61.5t88.5 75.5h-191v107h669v-107h-475l98 -57q-88 -99 -229 -164q-25 41 -74 84zM401 287v513h488v-513h-488zM514 375h256v58h-256v-58z M514 516h256v56h-256v-56zM514 655h256v56h-256v-56zM689 64l96 59q142 -99 195 -149l-101 -66q-50 54 -190 156z" />
<glyph unicode="&#x5039;" d="M12 469q68 68 128.5 168t98.5 207l113 -36q-38 -101 -96 -206v-687h-113v511q-33 -43 -68 -80q-28 74 -63 123zM281 597q84 40 163 110t122 138h113q60 -76 140.5 -141t161.5 -99q-34 -38 -69 -106q-38 20 -90 56v-48h-138v-58h233v-271h-214q86 -128 271 -168 q-40 -37 -72 -99q-176 49 -272 191q-76 -124 -269 -191q-25 45 -76 90q196 56 254 177h-194v271h221v58h-130v46q-47 -33 -91 -57q-27 57 -64 101zM452 270h112q2 32 2 46v40h-114v-86zM503 606h254q-83 70 -129 132q-46 -64 -125 -132zM682 270h121v86h-119v-42 q0 -14 -2 -44z" />
<glyph unicode="&#x5049;" d="M13 482q70 64 133.5 161.5t103.5 201.5l109 -36q-41 -104 -101 -205v-690h-112v525q-35 -44 -71 -80q-8 23 -27.5 62.5t-34.5 60.5zM307 537v92h181q8 27 15 57h-132v90h152q10 48 14 71l118 -11q-10 -47 -13 -60h234v-147h93v-92h-662zM310 3v90h110v61h-81v87h297v38 h-258v223h524v-223h-151v-38h197v-87h-197v-61h216v-90h-216v-89h-115v89h-326zM489 361h295v59h-295v-59zM534 93h102v61h-102v-61zM607 629h154v57h-140q-5 -24 -14 -57z" />
<glyph unicode="&#x504f;" d="M14 460q60 69 112.5 171.5t85.5 214.5l110 -33q-31 -95 -76 -194v-598q107 148 107 458v174h570v-246h-461q-2 -36 -4 -53h487v-334q0 -68 -31 -89q-28 -20 -96 -20q-7 53 -32 101q19 -1 45 -1q10 0 10 11v74h-57v-178h-82v178h-54v-178h-83v178h-52v-185h-97v208 q-33 -104 -86 -174q-42 44 -84 70v-101h-113v500q-31 -47 -62 -82q-24 74 -57 128zM322 701v98h644v-98h-644zM463 496h345v68h-345v-68zM513 186h52v79h-52v-79zM648 186h54v79h-54v-79zM784 186h57v79h-57v-79z" />
<glyph unicode="&#x505c;" d="M12 469q68 68 128.5 168t98.5 207l113 -36q-9 -23 -20 -49h245v87h120v-87h263v-101h-633v89q-32 -74 -71 -145v-687h-113v511q-33 -43 -68 -80q-28 74 -63 123zM303 179v193h670v-192h-109v101h-457v-102h-104zM391 410v212h504v-212h-504zM437 20q32 -2 72 -2.5t48 0.5 q20 0 20 15v113h-136v94h396v-94h-141v-117q0 -44 -11 -66.5t-41 -34.5q-42 -16 -174 -16q-5 45 -33 108zM504 489h271v55h-271v-55z" />
<glyph unicode="&#x5065;" d="M14 482q115 139 179 362l106 -32l-15 -45h113l17 4l74 -19q-40 -111 -102 -258h37l18 2l62 -11q-15 -225 -72 -366q47 -48 111.5 -67t154.5 -20q225 0 281 2q-27 -43 -37 -107h-250q-105 0 -180 21t-130 73q-40 -62 -96 -106q-20 43 -56 80v-80h-104v519q-31 -48 -59 -81 q-21 75 -52 129zM229 11q48 36 83 100q-46 86 -73 209l90 26q13 -65 33 -115q22 75 35 177h-48l-18 -41l-97 22q56 125 117 282h-80v60q-18 -49 -42 -103v-617zM455 549v87h190v44h-125v86h125v74h107v-74h169v-130h49v-87h-49v-133h-169v-47h175v-86h-175v-49h199v-86h-199 v-91h-107v91h-162v86h162v49h-137v86h137v47h-125v86h125v47h-190zM752 502h69v47h-69v-47zM752 636h69v44h-69v-44z" />
<glyph unicode="&#x5072;" d="M12 469q68 68 128.5 168t98.5 207l113 -36q-38 -101 -96 -206v-687h-113v511q-33 -43 -68 -80q-28 74 -63 123zM263 9q63 71 85 226l102 -28q-27 -179 -91 -251zM358 348v450h561v-450h-293q90 -55 142 -103l-80 -77q-53 59 -179 138l46 42h-197zM470 443h113v87h-113 v-87zM470 618h113v85h-113v-85zM479 51v198h112v-197q0 -22 5.5 -27.5t25.5 -5.5h75q18 0 24 17.5t9 81.5q30 -27 100 -43q-10 -94 -35.5 -126.5t-85.5 -32.5h-105q-75 0 -100 28.5t-25 106.5zM691 443h110v87h-110v-87zM691 618h110v85h-110v-85zM763 201l97 46 q94 -136 124 -237l-105 -52q-27 105 -116 243z" />
<glyph unicode="&#x5074;" d="M14 460q60 69 112.5 171.5t85.5 214.5l110 -33q-31 -95 -76 -194v-705h-113v500q-31 -47 -62 -82q-24 74 -57 128zM255 -19q33 31 66 81.5t52 94.5l96 -50q-24 -49 -60.5 -103t-69.5 -87q-30 30 -84 64zM324 160v627h292v-627h-292zM423 255h89v89h-89v-89zM423 432h89 v87h-89v-87zM423 607h89v86h-89v-86zM483 111l84 46q67 -102 88 -166l-90 -53q-21 69 -82 173zM669 142v595h102v-595h-102zM710 27q22 -1 102 -1q20 0 20 19v787h107v-787q0 -45 -9.5 -70t-34.5 -38q-39 -23 -152 -23q-7 58 -33 113z" />
<glyph unicode="&#x5075;" d="M15 471q71 68 136 168t105 206l110 -36q-43 -105 -93 -193v-700h-113v528q-37 -48 -83 -94q-30 76 -62 121zM296 -15q134 52 197 121l122 -43q-79 -85 -214 -155q-44 43 -105 77zM376 116v502h196v229h120v-70h253v-101h-253v-58h212v-502h-528zM491 203h293v54h-293v-54 zM491 341h293v53h-293v-53zM491 476h293v54h-293v-54zM678 52l102 57q130 -77 193 -135l-110 -64q-56 57 -185 142z" />
<glyph unicode="&#x5076;" d="M20 469q67 68 127 168.5t96 206.5l112 -36q-42 -111 -98 -215v-679h-114v502q-19 -25 -59 -71q-8 23 -28.5 63t-35.5 61zM323 -87v446h261v59h-212v386h538v-386h-222v-59h260v-336q0 -40 -10 -61.5t-37 -33.5q-42 -18 -158 -16q-6 44 -33 98q30 -2 108 -2q20 0 20 16v33 l-58 -20q-6 24 -12 46q-294 -42 -297 -42l-22 99q24 2 135 13v107h-149v-347h-112zM482 507h102v63h-102v-63zM482 652h102v63h-102v-63zM688 164l50 6q-11 29 -23 51l69 22q30 -56 54 -126v143h-150v-96zM688 507h107v63h-107v-63zM688 652h107v63h-107v-63z" />
<glyph unicode="&#x507d;" d="M8 474q66 66 124.5 165t96.5 205l112 -36q-41 -109 -95 -208v-388q173 128 282 350h-208v94h109q-16 65 -63 153l95 32q51 -84 69 -150l-96 -35h136q33 81 62 191l112 -22q-21 -77 -55 -169h167q-11 -93 -27 -174h79q-13 -96 -27 -177h84q-1 -29 -2 -42 q-10 -153 -21.5 -222t-32.5 -91q-25 -30 -71 -36q-32 -4 -115 -2q-4 58 -29 98q49 -5 91 -5q22 0 33 12q22 23 34 195h-432q-20 -22 -47 -45l80 -26q-31 -145 -91 -206l-86 50q56 57 84 169q-40 -33 -71 -55q-9 11 -43 43v-227h-113v508q-32 -42 -61 -72q-30 76 -64 123z M475 137l85 12q26 -91 26 -171l-90 -14q2 80 -21 173zM500 305h270q11 57 15 84h-227q-22 -35 -58 -84zM594 146l75 23q42 -81 51 -138l-81 -27q-8 58 -45 142zM611 482h109q9 45 14 80h-84q-19 -43 -39 -80zM701 169l67 31q50 -65 63 -110l-72 -33q-15 56 -58 112z" />
<glyph unicode="&#x508d;" d="M12 469q68 68 128.5 168t98.5 207l113 -36q-38 -101 -96 -206v-687h-113v511q-33 -43 -68 -80q-28 74 -63 123zM294 -1q59 19 98.5 45.5t62 62.5t33 72.5t16.5 88.5h-189v92h261v90h118v-90h273v-92h-349q-2 -21 -8 -54h282l-3 -41q-17 -191 -50 -227q-26 -26 -71 -31 q-30 -4 -117 -2q-4 57 -28 96q51 -4 88 -4q23 0 32 9q16 16 26 107h-182q-52 -146 -228 -211q-8 21 -27.5 47t-37.5 42zM317 400v164h150q-10 50 -34 96h-86v97h229v88h118v-88h245v-97h-83q-29 -64 -47 -96h145v-164h-114v73h-413v-73h-110zM548 660q25 -49 34 -94l-12 -2 h132q21 50 34 96h-188z" />
<glyph unicode="&#x5091;" d="M14 468q129 144 203 376l109 -33q-32 -96 -77 -189v-710h-113v512q-36 -51 -66 -84q-21 72 -56 128zM255 561q111 110 158 276l98 -15q-18 -52 -22 -62h76l18 4l64 -21l-1 -3h153v94h100v-94h58v-91h-58v-124h68v-92h-68v-107h-100v107h-201v92h56v124h-30 q-71 -239 -260 -344q-23 43 -61 78q78 37 141 118q-19 20 -63 58q-22 -30 -50 -59q-13 16 -35.5 34t-40.5 27zM276 15q140 59 240 175h-213v102h268v101h115v-101h276v-102h-215q95 -109 230 -167q-19 -16 -43 -44t-38 -51q-112 60 -210 179v-194h-115v192 q-99 -117 -219 -178q-29 48 -76 88zM431 636q25 -18 64 -51q22 44 35 89h-79q-3 -6 -20 -38zM745 525h54v124h-54v-124z" />
<glyph unicode="&#x5098;" d="M26 591q121 42 233.5 113t174.5 143h115q82 -83 195 -147t233 -99q-35 -37 -71 -102q-66 25 -141 64q-11 -29 -20 -46q93 -46 151 -88l-64 -68q-41 34 -132 86q-36 -46 -85 -81q-32 29 -60 51v-171q96 57 130 154l94 -19q-5 -15 -19 -45q101 -53 153 -95l-62 -61h98v-103 h-394v-163h-116v163h-391v103h391v73l-64 -61q-28 28 -108 82q-50 -55 -114 -93q-29 31 -71 59q58 28 103 72.5t67 96.5l89 -20q-11 -27 -25 -48q81 -48 123 -84v386h116v-204q85 57 118 154l59 -12q-151 83 -236 168q-72 -77 -205 -155l58 -12q-13 -34 -30 -61 q77 -44 120 -82l-54 -65q-38 38 -113 85q-50 -56 -118 -94q-37 42 -68 64q105 47 156 137q-82 -44 -152 -71q-25 53 -64 96zM555 180h285q-46 38 -126 86q-42 -53 -93 -86q-20 22 -66 55v-55z" />
<glyph unicode="&#x5099;" d="M14 460q126 147 198 386l110 -33q-31 -95 -76 -194v-633q76 116 76 368v219h645v-103h-537v-118q0 -300 -100 -442q-37 43 -84 72v-68h-113v500q-31 -47 -62 -82q-24 74 -57 128zM317 666v102h141v73h110v-73h148v73h112v-73h134v-102h-134v-67h-112v67h-148v-67h-110v67 h-141zM465 -85v505h479v-406q0 -36 -7 -55t-27 -30q-32 -18 -115 -16q-3 40 -26 90q46 -2 63 0q7 0 9 2.5t2 9.5v52h-95v-150h-94v150h-90v-152h-99zM564 145h90v55h-90v-55zM564 277h90v57h-90v-57zM748 145h95v55h-95v-55zM748 277h95v57h-95v-57z" />
<glyph unicode="&#x50ac;" d="M12 469q68 68 128.5 168t98.5 207l113 -36q-38 -101 -96 -206v-253q54 43 101.5 108t77.5 136h-69v219h109v-119h113v148h118v-148h122v119h114v-219h-260l114 -26l-37 -72h192v-92h-203v-60h176v-87h-176v-62h176v-86h-176v-64h215v-92h-454v-36h-114v402 q-23 -27 -55 -57q-46 51 -84 80v-426h-113v511q-33 -43 -68 -80q-28 74 -63 123zM470 593l81 -24q-14 -36 -35 -74h128q20 56 29 98h-203zM509 44h126v64h-126v-64zM509 194h126v62h-126v-62zM509 343h126v60h-126v-60z" />
<glyph unicode="&#x50ad;" d="M14 460q60 69 112.5 171.5t85.5 214.5l110 -33q-31 -95 -76 -194v-602q74 155 74 475v268h271v80h118v-80h256v-86h-234v-40h186v-104h52v-74h-52v-107h-186v-30h206v-311q0 -34 -6.5 -51.5t-26.5 -28.5q-30 -15 -111 -15q-6 39 -27 85q23 -1 55 -1q11 0 11 11v30h-101 v-119h-102v119h-94v-125h-100v406h194v30h-166v70h166v37h-198v74h198v33h-166v71h166v40h-204v-182q0 -382 -104 -565q-26 32 -75 62v-75h-113v500q-31 -47 -62 -82q-24 74 -57 128zM535 107h94v39h-94v-39zM535 213h94v37h-94v-37zM731 107h101v39h-101v-39zM731 213h101 v37h-101v-37zM731 419h86v37h-86v-37zM731 530h86v33h-86v-33z" />
<glyph unicode="&#x50b5;" d="M13 483q67 65 127.5 162.5t98.5 201.5l110 -35q-38 -95 -86 -185v-712h-116v531q-41 -53 -73 -85q-23 64 -61 122zM295 -7q134 38 209 94l114 -42q-83 -74 -229 -134q-39 45 -94 82zM316 509v79h262v34h-198v70h198v33h-219v74h219v49h120v-49h228v-74h-228v-33h207v-70 h-207v-34h262v-79h-644zM386 90v386h514v-386h-113q120 -69 180 -123l-107 -62q-67 69 -183 139l103 46h-394zM500 164h280v40h-280v-40zM500 264h280v40h-280v-40zM500 364h280v39h-280v-39z" />
<glyph unicode="&#x50b7;" d="M12 469q68 68 128.5 168t98.5 207l113 -36q-38 -101 -96 -206v-687h-113v511q-33 -43 -68 -80q-28 74 -63 123zM274 128q95 50 163 129h-139v87h674v-87h-420q-18 -26 -29 -39h425q-2 -26 -4 -40q-22 -196 -60 -233q-23 -25 -63 -30q-39 -4 -94 -1q-4 51 -24 85 q-48 -56 -97 -93q-40 37 -78 60q98 64 159 171h-63q-82 -126 -218 -215q-34 36 -73 64q109 62 179 151h-65q-48 -45 -102 -80q-35 43 -71 71zM289 597q99 96 157 250l105 -28q-17 -42 -22 -52h423v-86h-466q-2 -4 -10 -17.5t-13 -20.5h417v-266h-462v200q-21 -29 -42 -51 q-40 42 -87 71zM526 442h241v39h-241v-39zM526 540h241v37h-241v-37zM705 2q30 -3 67 -3q20 0 29 9q22 21 37 129h-45q-36 -74 -88 -135z" />
</font>
</defs>
</svg>
