<?xml version="1.0" standalone="no"?>
<!DOCTYPE svg PUBLIC "-//W3C//DTD SVG 1.1//EN" "http://www.w3.org/Graphics/SVG/1.1/DTD/svg11.dtd" >
<svg xmlns="http://www.w3.org/2000/svg" xmlns:xlink="http://www.w3.org/1999/xlink" version="1.1">
<metadata></metadata>
<defs>
<font id="noto_sans_cjk_jplight" horiz-adv-x="1000" >
<font-face units-per-em="1000" ascent="800" descent="-200" />
<missing-glyph horiz-adv-x="222" />
<glyph unicode=" "  horiz-adv-x="222" />
<glyph unicode="&#x09;" horiz-adv-x="222" />
<glyph unicode="&#xa0;" horiz-adv-x="222" />
<glyph unicode="!" horiz-adv-x="295" d="M96 41q0 25 15 40t36 15t36 -15t15 -40q0 -24 -15 -39t-36 -15q-20 0 -35.5 15t-15.5 39zM117 742h60l-1 -84l-7 -455h-43l-8 455z" />
<glyph unicode="#" horiz-adv-x="535" d="M40 235v45h96l23 182h-97v46h101l28 212h43l-27 -212h161l28 212h43l-28 -212h90v-46h-94l-22 -182h94v-45h-101l-27 -235h-44l28 235h-161l-29 -235h-43l28 235h-90zM179 280h162l23 182h-162z" />
<glyph unicode="$" horiz-adv-x="535" d="M64 73l30 41q85 -77 176 -77q67 0 103.5 35.5t36.5 95.5q0 58 -33 97.5t-79.5 63l-93 47t-79.5 66t-33 103.5q0 71 44 119t114 56v110h48v-110q86 -7 152 -80l-33 -36q-34 35 -64.5 50.5t-76.5 15.5q-56 0 -90.5 -34.5t-34.5 -87.5q0 -38 17.5 -66t45.5 -46.5t61.5 -34.5 t67.5 -35t62 -42.5t45.5 -62t17.5 -89.5q0 -77 -47 -126.5t-123 -57.5v-110h-48v110q-106 9 -186 85z" />
<glyph unicode="%" horiz-adv-x="897" d="M43 515q0 108 42.5 167.5t115.5 59.5q74 0 116 -59.5t42 -167.5q0 -110 -42 -170.5t-116 -60.5t-116 60.5t-42 170.5zM92 515q0 -90 29.5 -140.5t79.5 -50.5t80 50.5t30 140.5q0 89 -30 138t-80 49t-79.5 -49t-29.5 -138zM221 -13l406 755h46l-406 -755h-46zM537 217 q0 109 42.5 168.5t116.5 59.5q73 0 115.5 -60t42.5 -168q0 -110 -42.5 -170t-115.5 -60q-74 0 -116.5 60t-42.5 170zM586 217q0 -90 29.5 -140t80.5 -50q50 0 79.5 50t29.5 140t-29.5 139t-79.5 49q-51 0 -80.5 -49t-29.5 -139z" />
<glyph unicode="&#x26;" horiz-adv-x="645" d="M39 186q0 65 39 113.5t109 99.5q-49 101 -49 179q0 71 43.5 117.5t111.5 46.5q59 0 92.5 -37.5t33.5 -96.5q0 -27 -11 -54t-23 -45.5t-40 -44t-43 -37t-50 -38.5q75 -132 199 -239q72 92 113 234h55q-47 -159 -129 -267q77 -58 140 -80l-18 -50q-76 24 -158 89 q-91 -89 -202 -89q-92 0 -152.5 55t-60.5 144zM98 189q0 -68 46.5 -110.5t113.5 -42.5q81 0 157 73q-125 112 -205 248q-53 -42 -82.5 -81.5t-29.5 -86.5zM191 579q0 -65 39 -149q46 33 70.5 53.5t46.5 54t22 67.5q0 39 -19 65t-59 26q-45 0 -72.5 -33.5t-27.5 -83.5z" />
<glyph unicode="'" horiz-adv-x="250" d="M91 767h66l-1 -82l-11 -168h-41l-12 168z" />
<glyph unicode="(" horiz-adv-x="315" d="M96 308q0 266 146 502l36 -19q-132 -214 -132 -483q0 -271 132 -483l-36 -18q-146 236 -146 501z" />
<glyph unicode=")" horiz-adv-x="315" d="M37 -175q132 212 132 483q0 269 -132 483l36 19q146 -236 146 -502q0 -265 -146 -501z" />
<glyph unicode="*" horiz-adv-x="443" d="M74 665l12 38l107 -29l9 115h40l7 -114l107 28l12 -38l-102 -40l62 -100l-33 -23l-73 92l-74 -92l-33 23l61 100z" />
<glyph unicode="+" horiz-adv-x="535" d="M37 342v47h205v222h51v-222h204v-47h-204v-222h-51v222h-205z" />
<glyph unicode="," horiz-adv-x="250" d="M53 -138q87 45 88 134q-4 -1 -12 -1q-22 0 -37 13.5t-15 37.5q0 23 15.5 36.5t37.5 13.5q27 0 43.5 -23t16.5 -63q0 -61 -32.5 -109.5t-87.5 -76.5z" />
<glyph unicode="-" horiz-adv-x="333" d="M45 252v49h246v-49h-246z" />
<glyph unicode="." horiz-adv-x="250" d="M74 41q0 25 15 40t36 15t36 -15t15 -40q0 -24 -15 -39t-36 -15t-36 15t-15 39z" />
<glyph unicode="/" horiz-adv-x="394" d="M10 -177l329 963h48l-330 -963h-47z" />
<glyph unicode="0" horiz-adv-x="535" d="M53 367q0 186 56.5 280.5t158.5 94.5q101 0 157.5 -94.5t56.5 -280.5q0 -188 -56.5 -284t-157.5 -96q-102 0 -158.5 96t-56.5 284zM111 367q0 -162 42 -246.5t115 -84.5q72 0 114 84.5t42 246.5q0 159 -42 242.5t-114 83.5q-73 0 -115 -83.5t-42 -242.5z" />
<glyph unicode="1" horiz-adv-x="535" d="M92 0v51h165v593h-127v39q83 14 139 46h47v-678h152v-51h-376z" />
<glyph unicode="2" horiz-adv-x="535" d="M42 637q95 105 205 105q94 0 148 -57t54 -152q0 -109 -78 -225.5t-234 -261.5q80 6 120 6h227v-52h-439v36q182 157 263.5 275.5t81.5 219.5q0 72 -37.5 117t-111.5 45q-89 0 -162 -91z" />
<glyph unicode="3" horiz-adv-x="535" d="M31 87l33 39q83 -89 192 -89q71 0 116.5 43t45.5 113q0 164 -242 164v49q113 0 164.5 42.5t51.5 113.5q0 59 -37.5 95t-100.5 37q-90 -1 -160 -77l-34 40q90 85 195 86q87 -1 142 -48t55 -129q0 -68 -36.5 -114t-97.5 -66v-5q70 -15 115 -64.5t45 -123.5 q0 -93 -62.5 -149.5t-157.5 -56.5q-133 0 -227 100z" />
<glyph unicode="4" horiz-adv-x="535" d="M19 208v37l322 484h57v-472h103v-49h-103v-208h-57v208h-322zM86 257h255v269q0 53 6 121h-5q-27 -52 -58 -101z" />
<glyph unicode="5" horiz-adv-x="535" d="M28 82l32 41q82 -86 191 -86q71 0 120.5 54.5t49.5 140.5q0 87 -45 137t-122 50q-62 0 -129 -46l-38 23l25 333h333v-51h-281l-21 -245q58 35 122 35q96 0 156 -59t60 -175q0 -113 -68 -180t-160 -67q-128 0 -225 95z" />
<glyph unicode="6" horiz-adv-x="535" d="M59 344q0 206 74 302t188 96q92 0 155 -70l-35 -38q-47 58 -119 58q-90 0 -147 -80.5t-59 -257.5q77 95 176 95q94 0 146 -59t52 -170q0 -101 -58 -167t-139 -66q-108 0 -171 93t-63 264zM117 298q7 -124 51.5 -193t125.5 -69q59 0 98.5 52.5t39.5 131.5q0 84 -36.5 133 t-111.5 49q-90 0 -167 -104z" />
<glyph unicode="7" horiz-adv-x="535" d="M48 678v51h440v-35q-123 -161 -167 -312t-53 -382h-63q9 220 56.5 374t155.5 304h-369z" />
<glyph unicode="8" horiz-adv-x="535" d="M45 181q0 69 40.5 122.5t98.5 85.5v4q-100 67 -100 166q0 79 54 129.5t134 50.5q89 0 141 -53.5t52 -137.5q0 -53 -31 -101.5t-69 -79.5v-5q56 -34 90 -78t34 -112q0 -79 -61 -132t-157 -53q-98 0 -162 55t-64 139zM100 184q0 -64 48.5 -107t122.5 -43q71 0 115.5 39.5 t44.5 99.5q0 27 -7 49.5t-24 41t-32.5 31.5t-45.5 27.5t-48.5 22.5t-54.5 22q-119 -71 -119 -183zM140 559q0 -35 14.5 -63t44 -49.5t55.5 -34t68 -29.5q89 74 89 163q0 62 -38 104t-102 42q-57 0 -94 -37.5t-37 -95.5z" />
<glyph unicode="9" horiz-adv-x="535" d="M46 509q0 101 58 167t139 66q108 0 171.5 -88t63.5 -250q0 -111 -21 -194t-57.5 -130.5t-81 -70t-96.5 -22.5q-94 0 -161 70l35 38q50 -58 127 -58q84 0 139 81.5t59 258.5q-80 -97 -178 -97q-92 0 -144.5 59.5t-52.5 169.5zM104 509q0 -83 36.5 -132.5t109.5 -49.5 q93 0 170 107q-5 123 -50 191.5t-128 68.5q-59 0 -98.5 -53t-39.5 -132z" />
<glyph unicode=":" horiz-adv-x="250" d="M74 41q0 25 15 40t36 15t36 -15t15 -40q0 -24 -15 -39t-36 -15t-36 15t-15 39zM74 459q0 25 15 40t36 15t36 -15t15 -40q0 -24 -15 -39t-36 -15t-36 15t-15 39z" />
<glyph unicode=";" horiz-adv-x="250" d="M53 -138q87 45 88 134q-4 -1 -12 -1q-22 0 -37 13.5t-15 37.5q0 23 15.5 36.5t37.5 13.5q27 0 43.5 -23t16.5 -63q0 -61 -32.5 -109.5t-87.5 -76.5zM74 459q0 25 15 40t36 15t36 -15t15 -40q0 -24 -15 -39t-36 -15t-36 15t-15 39z" />
<glyph unicode="&#x3c;" horiz-adv-x="535" d="M37 340v55l460 182v-54l-252 -96l-147 -57v-5l147 -56l252 -97v-54z" />
<glyph unicode="=" horiz-adv-x="535" d="M37 228v46h460v-46h-460zM37 456v47h460v-47h-460z" />
<glyph unicode="&#x3e;" horiz-adv-x="535" d="M37 158v54l252 97l148 56v5l-148 57l-252 96v54l460 -182v-55z" />
<glyph unicode="?" horiz-adv-x="451" d="M41 668q78 87 180 87q80 0 127.5 -47.5t47.5 -122.5q0 -41 -19 -80.5t-45 -72t-51 -66t-40 -75.5t-9 -88h-53q-7 50 7 95t38.5 79t50 65t44 67t18.5 72q0 53 -31 88.5t-91 35.5q-83 0 -139 -69zM159 41q0 25 14.5 40t35.5 15t36.5 -15t15.5 -40q0 -24 -15.5 -39 t-36.5 -15t-35.5 15t-14.5 39z" />
<glyph unicode="@" horiz-adv-x="910" d="M57 224q0 106 36.5 197.5t97.5 153t142 96t169 34.5q161 0 256 -97.5t95 -257.5q0 -133 -65 -211.5t-143 -78.5q-46 0 -75 21.5t-33 62.5h-2q-72 -77 -136 -77q-55 0 -91.5 40t-36.5 113q0 90 58.5 170t149.5 80q59 0 91 -54h2l11 45h42l-40 -211q-35 -145 65 -145 q58 0 107 66.5t49 174.5q0 143 -82 228.5t-226 85.5q-75 0 -146 -31.5t-126 -86.5t-88 -137.5t-33 -177.5q0 -160 91.5 -253t240.5 -93q100 0 184 53l20 -39q-94 -58 -208 -58q-166 0 -271 103t-105 284zM321 223q0 -57 24 -84t63 -27q54 0 116 72l34 188q-33 53 -80 53 q-69 0 -113 -63.5t-44 -138.5z" />
<glyph unicode="A" horiz-adv-x="587" d="M8 0l255 729h62l255 -729h-64l-81 245h-284l-83 -245h-60zM167 293h252l-44 132q-38 107 -80 250h-4q-31 -110 -79 -250z" />
<glyph unicode="B" horiz-adv-x="642" d="M106 0v729h201q114 0 178.5 -44t64.5 -133q0 -57 -29 -100t-83 -59v-5q73 -12 114.5 -57t41.5 -118q0 -103 -73 -158t-199 -55h-216zM166 50h142q227 0 227 163q0 150 -227 150h-142v-313zM166 411h122q202 0 202 134q0 72 -48 103.5t-148 31.5h-128v-269z" />
<glyph unicode="C" horiz-adv-x="627" d="M60 365q0 173 87 275t227 102q117 0 192 -88l-34 -39q-65 73 -158 73q-116 0 -183.5 -86.5t-67.5 -234.5q0 -150 67 -238t181 -88q101 0 181 88l34 -38q-90 -104 -218 -104q-137 0 -222.5 102.5t-85.5 275.5z" />
<glyph unicode="D" horiz-adv-x="672" d="M106 0v729h172q165 0 249.5 -95.5t84.5 -266.5q0 -172 -84.5 -269.5t-248.5 -97.5h-173zM166 51h106q139 0 208 84.5t69 231.5t-68.5 229.5t-208.5 82.5h-106v-628z" />
<glyph unicode="E" horiz-adv-x="573" d="M106 0v729h403v-51h-343v-266h289v-51h-289v-309h354v-52h-414z" />
<glyph unicode="F" horiz-adv-x="532" d="M106 0v729h402v-51h-342v-281h289v-51h-289v-346h-60z" />
<glyph unicode="G" horiz-adv-x="673" d="M60 365q0 173 89.5 275t235.5 102q118 0 202 -88l-35 -39q-68 73 -166 73q-121 0 -192 -86.5t-71 -234.5q0 -151 68.5 -238.5t190.5 -87.5q103 0 155 52v219h-169v51h227v-293q-78 -83 -219 -83q-142 0 -229 102.5t-87 275.5z" />
<glyph unicode="H" horiz-adv-x="710" d="M106 0v729h60v-316h379v316h59v-729h-59v361h-379v-361h-60z" />
<glyph unicode="I" horiz-adv-x="272" d="M106 0v729h60v-729h-60z" />
<glyph unicode="J" horiz-adv-x="517" d="M42 96l45 30q50 -85 138 -85q65 0 96.5 40t31.5 127v521h60v-527q0 -97 -45 -156t-141 -59q-125 0 -185 109z" />
<glyph unicode="K" horiz-adv-x="623" d="M106 0v729h60v-396h2l342 396h71l-232 -271l265 -458h-69l-236 411l-143 -165v-246h-60z" />
<glyph unicode="L" horiz-adv-x="522" d="M106 0v729h60v-677h332v-52h-392z" />
<glyph unicode="M" horiz-adv-x="787" d="M106 0v729h80l150 -419l57 -160h4q11 31 30.5 90t23.5 70l150 419h80v-729h-57v462q0 59 7 201h-4l-57 -163l-153 -422h-48l-154 422l-57 163h-4q7 -142 7 -201v-462h-55z" />
<glyph unicode="N" horiz-adv-x="707" d="M106 0v729h62l298 -501l81 -147h5q-8 144 -8 216v432h57v-729h-62l-297 502l-82 146h-5q8 -187 8 -211v-437h-57z" />
<glyph unicode="O" horiz-adv-x="726" d="M60 367q0 171 84 273t218 102q135 0 219 -102t84 -273q0 -172 -84 -276t-219 -104q-134 0 -218 104t-84 276zM123 367q0 -148 65.5 -237t173.5 -89q109 0 175 89t66 237t-66 234.5t-175 86.5t-174 -86.5t-65 -234.5z" />
<glyph unicode="P" horiz-adv-x="612" d="M106 0v729h189q130 0 198 -48t68 -157q0 -107 -69 -161.5t-193 -54.5h-133v-308h-60zM166 358h121q109 0 161 39.5t52 126.5q0 86 -52 120.5t-165 34.5h-117v-321z" />
<glyph unicode="Q" horiz-adv-x="726" d="M60 367q0 171 84 273t218 102q135 0 219 -102t84 -273q0 -160 -73.5 -262t-194.5 -116q50 -110 187 -110q44 0 74 10l13 -50q-37 -13 -93 -13q-90 0 -154 44.5t-93 118.5q-122 12 -196.5 114t-74.5 264zM123 367q0 -150 65.5 -239.5t173.5 -89.5q109 0 175 89.5t66 239.5 q0 148 -66 234.5t-175 86.5t-174 -86.5t-65 -234.5z" />
<glyph unicode="R" horiz-adv-x="608" d="M106 0v729h213q243 0 243 -195q0 -85 -48.5 -136t-133.5 -64l197 -334h-68l-194 329h-149v-329h-60zM166 379h139q196 0 196 155q0 77 -49 111t-147 34h-139v-300z" />
<glyph unicode="S" horiz-adv-x="580" d="M51 96l37 42q86 -97 211 -97q80 0 127.5 38.5t47.5 101.5q0 60 -31 89t-98 59l-109 48q-30 13 -51.5 26t-46 35t-37.5 52.5t-13 68.5q0 80 61 131.5t155 51.5q125 0 206 -88l-34 -39q-71 73 -172 73q-70 0 -112.5 -34t-42.5 -90q0 -29 10.5 -52t32.5 -39.5t38 -25 t43 -20.5l109 -48q74 -33 113.5 -75.5t39.5 -118.5q0 -85 -65 -141.5t-171 -56.5q-151 0 -248 109z" />
<glyph unicode="T" horiz-adv-x="584" d="M32 678v51h520v-51h-230v-678h-61v678h-229z" />
<glyph unicode="U" horiz-adv-x="705" d="M103 285v444h60v-441q0 -133 52 -190t137 -57q86 0 139.5 57t53.5 190v441h57v-444q0 -83 -20 -143t-56 -93t-79 -47.5t-95 -14.5t-94.5 14.5t-78.5 47.5t-56 93t-20 143z" />
<glyph unicode="V" horiz-adv-x="550" d="M4 729h64l131 -419q73 -238 75 -244h4q18 52 44.5 138t32.5 106l130 419h61l-237 -729h-66z" />
<glyph unicode="W" horiz-adv-x="857" d="M30 729h62l88 -422q20 -92 49 -238h4q18 80 56 238l111 422h59l112 -422q10 -44 29 -124.5t27 -113.5h5q27 147 46 238l88 422h59l-160 -729h-68l-129 487q-1 3 -38 164h-4q-6 -29 -20 -83t-20 -81l-125 -487h-68z" />
<glyph unicode="X" horiz-adv-x="541" d="M19 0l217 377l-203 352h66l115 -208q10 -17 28.5 -49t30.5 -52h4q10 17 27 50t27 51l115 208h62l-203 -355l218 -374h-65l-123 218q-45 79 -67 116h-4q-51 -98 -61 -116l-122 -218h-62z" />
<glyph unicode="Y" horiz-adv-x="502" d="M2 729h64l107 -223q11 -23 36 -75.5t40 -82.5h4q58 112 78 158l107 223h62l-219 -436v-293h-60v293z" />
<glyph unicode="Z" horiz-adv-x="597" d="M54 0v35l412 643h-375v51h449v-35l-411 -642h416v-52h-491z" />
<glyph unicode="[" horiz-adv-x="315" d="M108 -168v952h181v-36h-136v-880h136v-36h-181z" />
<glyph unicode="\" horiz-adv-x="394" d="M8 786h47l329 -963h-47z" />
<glyph unicode="]" horiz-adv-x="315" d="M26 -132h136v880h-136v36h181v-952h-181v36z" />
<glyph unicode="^" horiz-adv-x="535" d="M72 319l167 423h57l167 -423h-54l-83 220l-56 146h-5l-56 -146l-83 -220h-54z" />
<glyph unicode="_" horiz-adv-x="554" d="M13 -85h528v-47h-528v47z" />
<glyph unicode="`" horiz-adv-x="594" d="M163 803l43 38l151 -176l-32 -30z" />
<glyph unicode="a" horiz-adv-x="547" d="M63 134q0 87 80.5 133.5t259.5 67.5v10q0 151 -122 151q-87 0 -168 -61l-26 42q103 70 202 70q90 0 131 -56.5t41 -152.5v-338h-49l-6 68h-2q-99 -81 -186 -81q-68 0 -111.5 38t-43.5 109zM121 137q0 -52 30.5 -76.5t78.5 -24.5q78 0 173 83v173q-153 -18 -217.5 -55 t-64.5 -100z" />
<glyph unicode="b" horiz-adv-x="603" d="M100 0v795h58v-228l-3 -102q97 82 180 82q104 0 159 -73t55 -199q0 -132 -68.5 -210t-166.5 -78q-78 0 -158 67h-2l-7 -54h-47zM158 103q74 -65 151 -65q79 0 128.5 65.5t49.5 171.5q0 221 -163 221q-73 0 -166 -85v-308z" />
<glyph unicode="c" horiz-adv-x="499" d="M56 266q0 129 72 205t175 76q83 0 156 -65l-33 -40q-57 54 -122 54q-80 0 -133.5 -64.5t-53.5 -165.5q0 -102 51 -165.5t135 -63.5q73 0 139 59l28 -40q-79 -69 -170 -69q-107 0 -175.5 74.5t-68.5 204.5z" />
<glyph unicode="d" horiz-adv-x="605" d="M56 266q0 125 69 203t167 78q45 0 80.5 -15.5t78.5 -49.5l-4 96v217h58v-795h-48l-7 67h-2q-80 -80 -171 -80q-102 0 -161.5 73.5t-59.5 205.5zM118 266q0 -105 44.5 -166.5t124.5 -61.5q79 0 160 84v308q-74 66 -149 66q-77 0 -128.5 -66t-51.5 -164z" />
<glyph unicode="e" horiz-adv-x="538" d="M56 266q0 125 69.5 203t164.5 78q97 0 151.5 -65.5t54.5 -182.5q0 -23 -3 -42h-378q2 -98 55.5 -159.5t139.5 -61.5q76 0 142 46l22 -43q-83 -52 -170 -52q-106 0 -177 75.5t-71 203.5zM115 303h328q0 95 -40.5 144.5t-111.5 49.5q-68 0 -118 -52.5t-58 -141.5z" />
<glyph unicode="f" horiz-adv-x="298" d="M35 484v44l74 5v112q0 80 35 121.5t102 41.5q39 0 80 -18l-14 -46q-33 15 -63 15q-82 0 -82 -117v-109h121v-49h-121v-484h-58v484h-74z" />
<glyph unicode="g" horiz-adv-x="543" d="M55 -108q0 73 80 127v5q-48 28 -48 86q0 55 59 99v4q-28 23 -48 61.5t-20 83.5q0 82 55.5 135.5t135.5 53.5q37 0 71 -14h182v-48h-120q55 -48 55 -128q0 -82 -54 -135t-134 -53q-48 0 -86 22q-42 -33 -42 -74q0 -67 100 -67h112q91 0 134.5 -30t43.5 -93 q0 -73 -71.5 -127t-184.5 -54q-100 0 -160 39.5t-60 106.5zM110 -101q0 -49 45.5 -79t126.5 -30q83 0 137 39t54 90q0 42 -30 60t-91 18h-109q-27 0 -67 9q-66 -46 -66 -107zM136 358q0 -64 39 -104.5t94 -40.5q54 0 93 40.5t39 104.5t-38 103t-94 39t-94.5 -39t-38.5 -103z " />
<glyph unicode="h" horiz-adv-x="589" d="M100 0v795h58v-228l-1 -116q46 46 89 71t93 25q162 0 162 -206v-341h-58v333q0 84 -28 123t-89 39q-44 0 -81 -22.5t-87 -73.5v-399h-58z" />
<glyph unicode="i" horiz-adv-x="257" d="M81 704q0 22 14 35t35 13q20 0 34.5 -13t14.5 -35q0 -20 -14.5 -33t-34.5 -13q-21 0 -35 13t-14 33zM100 0v533h58v-533h-58z" />
<glyph unicode="j" horiz-adv-x="258" d="M-38 -237l13 46q31 -11 55 -11q41 0 55.5 28.5t14.5 85.5v621h59v-623q0 -161 -126 -161q-41 0 -71 14zM82 704q0 22 13.5 35t34.5 13t35 -13t14 -35q0 -20 -14 -33t-35 -13q-20 0 -34 13t-14 33z" />
<glyph unicode="k" horiz-adv-x="521" d="M100 0v795h58v-576h2l255 314h66l-174 -211l202 -322h-64l-172 280l-115 -136v-144h-58z" />
<glyph unicode="l" horiz-adv-x="267" d="M100 79v716h58v-722q0 -36 24 -36q8 0 19 2l9 -46q-20 -6 -39 -6q-71 0 -71 92z" />
<glyph unicode="m" horiz-adv-x="904" d="M100 0v533h48l7 -81h2q86 95 168 95q115 0 147 -108q100 108 180 108q160 0 160 -206v-341h-58v333q0 83 -28 122.5t-87 39.5q-69 0 -154 -96v-399h-58v333q0 83 -28 122.5t-87 39.5q-70 0 -154 -96v-399h-58z" />
<glyph unicode="n" horiz-adv-x="593" d="M100 0v533h48l7 -81h2q47 46 89.5 70.5t92.5 24.5q162 0 162 -206v-341h-58v333q0 84 -28 123t-89 39q-44 0 -81 -22.5t-87 -73.5v-399h-58z" />
<glyph unicode="o" horiz-adv-x="594" d="M56 266q0 129 70 205t171 76t171 -76t70 -205q0 -128 -70 -203.5t-171 -75.5t-171 75.5t-70 203.5zM117 266q0 -101 50.5 -165t129.5 -64t130 64t51 165t-51 165.5t-130 64.5q-78 0 -129 -64.5t-51 -165.5z" />
<glyph unicode="p" horiz-adv-x="605" d="M100 -238v771h48l7 -65h2q103 79 178 79q104 0 159 -73t55 -199q0 -132 -68.5 -210t-166.5 -78q-73 0 -157 65l1 -98v-192h-58zM158 103q77 -65 151 -65q79 0 128.5 65.5t49.5 171.5q0 221 -163 221q-70 0 -166 -85v-308z" />
<glyph unicode="q" horiz-adv-x="605" d="M56 266q0 125 69 203t167 78q79 0 157 -64h2l7 50h47v-771h-58v203l4 104q-84 -82 -174 -82q-102 0 -161.5 73.5t-59.5 205.5zM118 266q0 -105 44.5 -166.5t124.5 -61.5q79 0 160 84v308q-74 66 -149 66q-77 0 -128.5 -66t-51.5 -164z" />
<glyph unicode="r" horiz-adv-x="359" d="M100 0v533h48l7 -99h2q61 113 151 113q31 0 54 -12l-12 -52q-23 9 -49 9q-39 0 -77.5 -32.5t-65.5 -101.5v-358h-58z" />
<glyph unicode="s" horiz-adv-x="452" d="M35 60l31 42q79 -67 168 -67q58 0 90 28.5t32 72.5q0 42 -34.5 67.5t-94.5 46.5q-39 14 -61 23.5t-50.5 28t-42 43.5t-13.5 58q0 61 47 102.5t128 41.5q84 0 155 -57l-30 -40q-64 48 -127 48q-56 0 -85.5 -26.5t-29.5 -65.5q0 -17 8 -31.5t17 -23.5t29.5 -19.5t32 -15 t37.5 -14.5q89 -34 119 -56q53 -40 53 -107q0 -64 -49 -108t-134 -44q-108 0 -196 73z" />
<glyph unicode="t" horiz-adv-x="352" d="M30 484v44l85 5l7 154h49v-154h153v-49h-153v-336q0 -55 19.5 -83t69.5 -28q29 0 65 15l14 -45q-56 -20 -89 -20q-75 0 -106 42.5t-31 122.5v332h-83z" />
<glyph unicode="u" horiz-adv-x="590" d="M92 192v341h58v-334q0 -83 27.5 -121.5t88.5 -38.5q45 0 82 24t84 80v390h58v-533h-49l-5 88h-3q-88 -101 -180 -101q-83 0 -122 50.5t-39 154.5z" />
<glyph unicode="v" horiz-adv-x="489" d="M13 533h63l115 -327q32 -99 53 -154h4q35 97 53 154l116 327h59l-196 -533h-69z" />
<glyph unicode="w" horiz-adv-x="766" d="M26 533h62l93 -336q33 -141 34 -145h5q8 28 38 145l95 336h64l95 -336q23 -90 39 -145h4q7 28 21 82.5t16 62.5l91 336h57l-150 -533h-75l-90 321q-8 27 -20.5 77.5t-19.5 75.5h-5q-22 -96 -41 -155l-87 -319h-70z" />
<glyph unicode="x" horiz-adv-x="460" d="M15 0l180 279l-165 254h64l82 -131q25 -41 57 -88h4q6 10 53 88l79 131h61l-165 -260l180 -273h-65l-91 141q-26 48 -61 97h-5q-10 -16 -30 -48.5t-30 -48.5l-86 -141h-62z" />
<glyph unicode="y" horiz-adv-x="490" d="M13 533h63l124 -326q47 -128 56 -150h5q9 27 25.5 79t22.5 71l109 326h59l-208 -595q-62 -178 -184 -178q-33 0 -57 11l13 49q22 -8 43 -8q87 0 133 135l14 45z" />
<glyph unicode="z" horiz-adv-x="453" d="M32 0v31l307 453h-274v49h349v-31l-307 -452h317v-50h-392z" />
<glyph unicode="{" horiz-adv-x="315" d="M39 288v40q95 0 95 87q0 39 -4.5 112t-4.5 114q0 82 29 112.5t95 30.5h40v-36h-33q-47 0 -65 -26t-18 -86q0 -34 3.5 -101.5t3.5 -108.5q0 -51 -13 -79t-46 -37v-4q33 -10 46 -38t13 -79q0 -41 -3.5 -108t-3.5 -101q0 -59 18 -85.5t65 -26.5h33v-36h-40q-66 0 -95 30.5 t-29 111.5q0 42 4.5 114.5t4.5 109.5q0 90 -95 90z" />
<glyph unicode="|" horiz-adv-x="254" d="M105 -277v1108h44v-1108h-44z" />
<glyph unicode="}" horiz-adv-x="315" d="M26 -132h33q47 0 64.5 26t17.5 86q0 34 -3 101t-3 108q0 51 13 79t46 38v4q-33 9 -46 37t-13 79q0 41 3 108.5t3 101.5q0 60 -17.5 86t-64.5 26h-33v36h40q65 0 94.5 -30.5t29.5 -112.5q0 -41 -4.5 -114t-4.5 -112q0 -87 95 -87v-40q-95 0 -95 -90q0 -37 4.5 -109.5 t4.5 -114.5q0 -81 -29.5 -111.5t-94.5 -30.5h-40v36z" />
<glyph unicode="~" horiz-adv-x="535" d="M44 345q49 93 125 93q36 0 72.5 -24.5t68.5 -49t58 -24.5q52 0 87 69l36 -24q-50 -92 -125 -92q-36 0 -72.5 24.5t-69 49t-58.5 24.5q-50 0 -87 -69z" />
<glyph unicode="&#xa7;" d="M280 404q0 67 71 127q-18 13 -28 37.5t-10 47.5q0 65 54 110t146 45q102 0 174 -49l-23 -44q-24 19 -68.5 34.5t-96.5 15.5q-56 0 -94.5 -32t-38.5 -69q0 -25 12.5 -44t38.5 -33t51.5 -22.5t66.5 -18.5q184 -46 184 -159q0 -41 -17 -78.5t-44 -61.5q16 -13 27 -40t11 -57 q0 -70 -58.5 -119.5t-152.5 -49.5q-120 0 -177 51l26 42q57 -50 155 -50q71 0 113 34.5t42 85.5q0 45 -35.5 73t-136.5 58q-104 31 -148 68t-44 98zM331 407q0 -35 28 -60.5t123 -56.5q111 -36 144 -57q42 42 42 103q0 41 -33 70t-74.5 41.5t-96 29t-80.5 30.5 q-53 -47 -53 -100z" />
<glyph unicode="&#xa8;" horiz-adv-x="594" d="M153 703q0 19 12.5 32t31.5 13t31.5 -13t12.5 -32q0 -18 -12.5 -30.5t-31.5 -12.5t-31.5 12.5t-12.5 30.5zM353 703q0 19 12.5 32t31.5 13t31.5 -13t12.5 -32q0 -18 -12.5 -30.5t-31.5 -12.5t-31.5 12.5t-12.5 30.5z" />
<glyph unicode="&#xad;" horiz-adv-x="333" d="M45 252v49h246v-49h-246z" />
<glyph unicode="&#xb0;" horiz-adv-x="349" d="M46 624q0 60 38 97t91 37t91 -37t38 -97q0 -59 -38 -96t-91 -37t-91 37t-38 96zM87 624q0 -41 24.5 -68t63.5 -27q38 0 62.5 27t24.5 68t-24.5 68.5t-62.5 27.5q-39 0 -63.5 -27t-24.5 -69z" />
<glyph unicode="&#xb1;" d="M132 23v50h738v-50h-738zM132 463v49h343v288h50v-288h343v-49h-343v-288h-50v288h-343z" />
<glyph unicode="&#xb4;" horiz-adv-x="594" d="M237 665l151 176l43 -38l-162 -168z" />
<glyph unicode="&#xb6;" d="M245 511q0 47 14 88t47 78.5t97 59.5t153 22q87 0 122 -8v-809h-47v771h-87v-771h-47v349h-10q-42 0 -83.5 14t-77.5 40t-58.5 69.5t-22.5 96.5z" />
<glyph unicode="&#xd7;" d="M182 90l284 284l-284 282l36 35l282 -283l283 283l35 -34l-283 -283l283 -284l-35 -34l-283 283l-283 -283z" />
<glyph unicode="&#xf7;" d="M132 349v49h736v-49h-736zM436 117q0 26 19 45t45 19t45 -19t19 -45t-19 -45t-45 -19t-45 19t-19 45zM436 630q0 26 19 45t45 19t45 -19t19 -45t-19 -45t-45 -19t-45 19t-19 45z" />
<glyph unicode="&#x391;" horiz-adv-x="587" d="M8 0l255 729h62l255 -729h-64l-81 245h-284l-83 -245h-60zM167 293h252l-44 132q-38 107 -80 250h-4q-31 -110 -79 -250z" />
<glyph unicode="&#x392;" horiz-adv-x="642" d="M106 0v729h201q114 0 178.5 -44t64.5 -133q0 -57 -29 -100t-83 -59v-5q73 -12 114.5 -57t41.5 -118q0 -103 -73 -158t-199 -55h-216zM166 50h142q227 0 227 163q0 150 -227 150h-142v-313zM166 411h122q202 0 202 134q0 72 -48 103.5t-148 31.5h-128v-269z" />
<glyph unicode="&#x393;" horiz-adv-x="540" d="M106 0v729h402v-51h-342v-678h-60z" />
<glyph unicode="&#x394;" horiz-adv-x="625" d="M31 0v35l249 694h65l249 -694v-35h-563zM96 52h431l-131 372l-81 242h-5l-83 -242z" />
<glyph unicode="&#x395;" horiz-adv-x="573" d="M106 0v729h403v-51h-343v-266h289v-51h-289v-309h354v-52h-414z" />
<glyph unicode="&#x396;" horiz-adv-x="597" d="M54 0v35l412 643h-375v51h449v-35l-411 -642h416v-52h-491z" />
<glyph unicode="&#x397;" horiz-adv-x="710" d="M106 0v729h60v-316h379v316h59v-729h-59v361h-379v-361h-60z" />
<glyph unicode="&#x398;" horiz-adv-x="726" d="M60 367q0 171 84 273t218 102q135 0 219 -102t84 -273q0 -172 -84 -276t-219 -104q-134 0 -218 104t-84 276zM123 367q0 -148 65.5 -237t173.5 -89q109 0 175 89t66 237t-66 234.5t-175 86.5t-174 -86.5t-65 -234.5zM231 361v52h264v-52h-264z" />
<glyph unicode="&#x399;" horiz-adv-x="272" d="M106 0v729h60v-729h-60z" />
<glyph unicode="&#x39a;" horiz-adv-x="623" d="M106 0v729h60v-396h2l342 396h71l-232 -271l265 -458h-69l-236 411l-143 -165v-246h-60z" />
<glyph unicode="&#x39b;" horiz-adv-x="550" d="M4 0l236 729h67l239 -729h-64l-131 419q-58 191 -76 244h-4q-33 -99 -75 -244l-131 -419h-61z" />
<glyph unicode="&#x39c;" horiz-adv-x="787" d="M106 0v729h80l150 -419l57 -160h4q11 31 30.5 90t23.5 70l150 419h80v-729h-57v462q0 59 7 201h-4l-57 -163l-153 -422h-48l-154 422l-57 163h-4q7 -142 7 -201v-462h-55z" />
<glyph unicode="&#x39d;" horiz-adv-x="707" d="M106 0v729h62l298 -501l81 -147h5q-8 144 -8 216v432h57v-729h-62l-297 502l-82 146h-5q8 -187 8 -211v-437h-57z" />
<glyph unicode="&#x39e;" horiz-adv-x="571" d="M53 0v52h466v-52h-466zM64 678v51h444v-51h-444zM139 361v51h294v-51h-294z" />
<glyph unicode="&#x39f;" horiz-adv-x="726" d="M60 367q0 171 84 273t218 102q135 0 219 -102t84 -273q0 -172 -84 -276t-219 -104q-134 0 -218 104t-84 276zM123 367q0 -148 65.5 -237t173.5 -89q109 0 175 89t66 237t-66 234.5t-175 86.5t-174 -86.5t-65 -234.5z" />
<glyph unicode="&#x3a0;" horiz-adv-x="705" d="M106 0v729h493v-729h-60v678h-373v-678h-60z" />
<glyph unicode="&#x3a1;" horiz-adv-x="612" d="M106 0v729h189q130 0 198 -48t68 -157q0 -107 -69 -161.5t-193 -54.5h-133v-308h-60zM166 358h121q109 0 161 39.5t52 126.5q0 86 -52 120.5t-165 34.5h-117v-321z" />
<glyph unicode="&#x3a3;" horiz-adv-x="590" d="M51 0v35l263 336l-257 323v35h457v-51h-380l242 -306l-247 -320h419v-52h-497z" />
<glyph unicode="&#x3a4;" horiz-adv-x="584" d="M32 678v51h520v-51h-230v-678h-61v678h-229z" />
<glyph unicode="&#x3a5;" horiz-adv-x="502" d="M2 729h64l107 -223q11 -23 36 -75.5t40 -82.5h4q58 112 78 158l107 223h62l-219 -436v-293h-60v293z" />
<glyph unicode="&#x3a6;" horiz-adv-x="776" d="M53 367q0 127 83.5 201.5t224.5 77.5v108h54v-108q141 -4 224.5 -78.5t83.5 -200.5q0 -127 -83.5 -203.5t-224.5 -80.5v-107h-54v107q-140 4 -224 80.5t-84 203.5zM113 367q0 -103 67.5 -167.5t180.5 -67.5v466q-114 -3 -181 -65.5t-67 -165.5zM415 132q114 3 180.5 67 t66.5 168q0 103 -66.5 165.5t-180.5 65.5v-466z" />
<glyph unicode="&#x3a7;" horiz-adv-x="541" d="M19 0l217 377l-203 352h66l115 -208q10 -17 28.5 -49t30.5 -52h4q10 17 27 50t27 51l115 208h62l-203 -355l218 -374h-65l-123 218q-45 79 -67 116h-4q-51 -98 -61 -116l-122 -218h-62z" />
<glyph unicode="&#x3a8;" horiz-adv-x="747" d="M75 550v179h60v-177q0 -212 209 -218v395h58v-395q210 5 210 218v177h59v-179q0 -259 -269 -265v-285h-58v285q-130 3 -199.5 68.5t-69.5 196.5z" />
<glyph unicode="&#x3a9;" horiz-adv-x="735" d="M51 0v51h155v4q-141 137 -141 331q0 156 83 256t220 100q136 0 219 -100t83 -256q0 -196 -141 -331v-4h156v-51h-242v44q165 120 165 341q0 132 -64.5 217.5t-175.5 85.5t-176 -85.5t-65 -217.5q0 -221 165 -341v-44h-241z" />
<glyph unicode="&#x3b1;" horiz-adv-x="602" d="M56 254q0 134 68 213.5t165 79.5q57 0 104.5 -38t67.5 -118h2l26 142h58q-66 -326 -66 -438q0 -26 15.5 -42t37.5 -16q16 0 38 8l10 -46q-26 -12 -57 -12q-46 0 -71.5 30.5t-18.5 86.5h-4q-64 -117 -174 -117q-91 0 -146 69t-55 198zM117 254q0 -100 39.5 -158t110.5 -58 q60 0 110.5 56t57.5 132l8 105q-39 165 -151 165q-72 0 -123.5 -65t-51.5 -177z" />
<glyph unicode="&#x3b2;" horiz-adv-x="608" d="M96 -199v756q0 114 52 182.5t153 68.5q78 0 132 -49t54 -138q0 -122 -115 -192v-5q87 -10 135.5 -67t48.5 -146q0 -100 -61 -162t-147 -62q-122 0 -197 86q3 -140 3 -272h-58zM152 129q72 -91 187 -91q67 0 111.5 48t44.5 127q0 78 -44 125t-129 47q-32 0 -61 -7l-10 48 q89 20 133 74t44 118q0 67 -36 104t-89 37q-70 0 -110 -55.5t-40 -160.5q-1 -138 -1 -414z" />
<glyph unicode="&#x3b3;" horiz-adv-x="510" d="M10 529l58 18q59 -81 115 -215.5t76 -259.5h5q70 134 112.5 244t51.5 217h59q-20 -133 -68 -251t-146 -281q10 -89 10 -200h-59q3 51 3 126q0 141 -67 318.5t-150 283.5z" />
<glyph unicode="&#x3b4;" horiz-adv-x="580" d="M64 228q0 98 62.5 166.5t163.5 95.5q-81 56 -123.5 101.5t-42.5 101.5q0 49 42 82t124 33q95 0 226 -44l-16 -50q-127 46 -212 46q-53 0 -79.5 -19.5t-26.5 -48.5q0 -11 2.5 -21.5t8.5 -21t11.5 -19t17 -19.5t19 -18t23.5 -19t25 -18.5t28.5 -20.5t28.5 -21 q40 -30 66.5 -53t54.5 -57t42 -74.5t14 -88.5q0 -116 -60 -185t-167 -69q-92 0 -162 66.5t-70 174.5zM122 231q0 -86 52 -140t123 -54q83 0 125 55.5t42 146.5q0 69 -34 119t-97 100q-100 -22 -155.5 -82t-55.5 -145z" />
<glyph unicode="&#x3b5;" horiz-adv-x="485" d="M56 145q0 55 32.5 88.5t81.5 46.5v5q-41 16 -63.5 48.5t-22.5 73.5q0 67 54.5 103.5t136.5 36.5q88 0 168 -60l-26 -41q-70 51 -141 51q-58 0 -95.5 -24.5t-37.5 -71.5q0 -45 35.5 -71.5t108.5 -26.5q36 0 63 2v-51q-47 3 -79 3q-76 0 -115.5 -28t-39.5 -80q0 -53 43 -83 t118 -30q85 0 158 61l28 -42q-48 -37 -91.5 -52.5t-101.5 -15.5q-97 0 -155.5 43.5t-58.5 114.5z" />
<glyph unicode="&#x3b6;" horiz-adv-x="448" d="M57 244q0 125 101 273t212 232q-207 0 -280 -4v50h347v-50h-4q-113 -84 -214 -232.5t-101 -266.5q0 -101 45.5 -146.5t129.5 -60.5q82 -16 117 -38t35 -70q0 -52 -61 -133l-48 24q33 39 43.5 58t10.5 41q0 26 -25.5 40t-105.5 30q-95 19 -148.5 75.5t-53.5 177.5z" />
<glyph unicode="&#x3b7;" horiz-adv-x="588" d="M94 533h54l7 -120h2q44 71 91.5 102.5t108.5 31.5q73 0 106.5 -51t33.5 -155v-540h-58q4 236 4 532q0 84 -23.5 123t-75.5 39t-92.5 -30t-93.5 -109v-356h-58v395q0 84 -6 138z" />
<glyph unicode="&#x3b8;" horiz-adv-x="564" d="M71 400q0 196 55.5 302t155.5 106t155.5 -106t55.5 -302q0 -413 -211 -413t-211 413zM130 380q4 -343 152 -343t152 343h-304zM130 425h304q-3 164 -44 248.5t-108 84.5t-108 -84.5t-44 -248.5z" />
<glyph unicode="&#x3b9;" horiz-adv-x="270" d="M100 85v448h59q-5 -385 -5 -455q0 -41 34 -41q14 0 32 7l9 -46q-22 -11 -51 -11q-78 0 -78 98z" />
<glyph unicode="&#x3ba;" horiz-adv-x="521" d="M90 533h58q10 -37 10 -121v-198h4q68 122 157 215t169 118l6 -56q-95 -36 -198 -159q41 -82 103 -173.5t124 -158.5l-63 -8q-108 122 -199 296q-30 -38 -67 -95q-36 -53 -40 -167v-26h-54v395q0 95 -10 138z" />
<glyph unicode="&#x3bb;" horiz-adv-x="519" d="M19 0l233 550l-8 26q-31 95 -62 138t-79 43q-34 0 -65 -18l-17 51q38 18 88 18q69 0 110.5 -55t81.5 -179l208 -574h-61l-167 481h-5l-196 -489z" />
<glyph unicode="&#x3bc;" horiz-adv-x="606" d="M100 -199v732h58v-334q0 -160 113 -160q47 0 85.5 23.5t79.5 95.5v375h58q0 -54 -2 -212.5t-2 -242.5q0 -41 35 -41q12 0 32 7l8 -46q-22 -11 -50 -11q-40 0 -57 25.5t-19 84.5h-2q-64 -109 -164 -109q-43 0 -72 13t-49 50q1 -168 7 -250h-59z" />
<glyph unicode="&#x3bd;" horiz-adv-x="499" d="M10 529l58 18q59 -90 110.5 -226t78.5 -261h5q137 281 155 473h59q-35 -248 -196 -533h-61q-72 326 -209 529z" />
<glyph unicode="&#x3be;" horiz-adv-x="458" d="M38 745v50h409v-50h-125q-61 0 -105.5 -40t-44.5 -109q0 -64 50.5 -108t105.5 -44q34 0 68 6v-55q-26 5 -72 5q-81 0 -143.5 -51t-62.5 -138q0 -82 49.5 -119.5t136.5 -52.5q82 -15 116 -37.5t34 -70.5q0 -54 -61 -133l-48 24q34 40 44.5 58.5t10.5 40.5q0 26 -26.5 40.5 t-104.5 29.5q-99 19 -155.5 67.5t-56.5 147.5q0 80 50 140.5t122 80.5v4q-53 22 -85.5 64.5t-32.5 101.5q0 107 94 152q-98 0 -167 -4z" />
<glyph unicode="&#x3bf;" horiz-adv-x="583" d="M56 266q0 131 66.5 206t169.5 75q102 0 168.5 -75t66.5 -206q0 -130 -66.5 -204.5t-168.5 -74.5q-103 0 -169.5 74.5t-66.5 204.5zM117 266q0 -105 47 -167t128 -62t127.5 62t46.5 167q0 104 -47 167t-127 63q-81 0 -128 -63t-47 -167z" />
<glyph unicode="&#x3c0;" horiz-adv-x="624" d="M27 482v46l75 5h494v-51h-111q-8 -153 -8 -390q0 -55 51 -55q11 0 44 6l9 -46q-34 -10 -62 -10q-51 0 -74 27t-23 84q0 37 3 185.5t4 198.5h-221q0 -159 -32 -485l-60 3q38 254 38 482h-127z" />
<glyph unicode="&#x3c1;" horiz-adv-x="598" d="M95 -199v480q0 126 64.5 196t161.5 70q107 0 164 -72.5t57 -199.5q0 -131 -65 -209.5t-154 -78.5q-101 0 -173 83q3 -139 4 -269h-59zM151 123q71 -85 167 -85q70 0 117 66t47 171q0 101 -40 161t-123 60q-71 0 -119.5 -57.5t-48.5 -167.5v-148z" />
<glyph unicode="&#x3c3;" horiz-adv-x="591" d="M56 261q0 133 68 202.5t168 69.5h286v-52q-109 7 -177 7v-4q115 -64 115 -228q0 -125 -65 -197t-162 -72q-98 0 -165.5 73.5t-67.5 200.5zM117 261q0 -101 49 -162.5t123 -61.5t121.5 61t47.5 161q0 93 -45 158.5t-122 65.5t-125.5 -57.5t-48.5 -164.5z" />
<glyph unicode="&#x3c4;" horiz-adv-x="493" d="M29 484v44l74 5h361v-49h-189q-3 -134 -3 -392q0 -55 46 -55q22 0 49 9l10 -47q-32 -12 -69 -12q-49 0 -70 26.5t-21 84.5v386h-188z" />
<glyph unicode="&#x3c5;" horiz-adv-x="553" d="M75 533h57q8 -43 8 -121q0 -34 -3.5 -113t-3.5 -110q0 -80 39 -116t100 -36q69 0 112 56.5t43 166.5q0 147 -48 271l57 16q51 -140 51 -287q0 -130 -61 -201.5t-156 -71.5q-89 0 -140 50t-51 154q0 34 2 102t2 102q0 84 -8 138z" />
<glyph unicode="&#x3c6;" horiz-adv-x="724" d="M56 268q0 124 82 198.5t196 77.5v143h56v-143q117 -2 197.5 -76t80.5 -200t-82 -200.5t-196 -78.5v-188h-56v188q-114 4 -196 79t-82 200zM117 268q0 -102 63 -165.5t154 -66.5v461q-91 -2 -154 -65t-63 -164zM390 36q91 3 154.5 66.5t63.5 165.5q0 103 -61 165t-157 64 v-461z" />
<glyph unicode="&#x3c7;" horiz-adv-x="509" d="M11 -199l216 379l-211 349l58 18l180 -313h4l157 299h63l-192 -352l228 -375l-56 -18l-200 342h-4l-186 -342z" />
<glyph unicode="&#x3c8;" horiz-adv-x="731" d="M75 533h58q5 -38 5 -121q0 -37 -1 -100t-1 -75q0 -93 51 -146t148 -54v650h56v-650q102 3 157.5 66.5t55.5 183.5q0 119 -48 244l57 16q51 -138 51 -260q0 -140 -72.5 -218t-200.5 -82v-186h-56v186q-124 1 -188.5 67.5t-64.5 184.5v156q0 75 -7 138z" />
<glyph unicode="&#x3c9;" horiz-adv-x="753" d="M62 242q0 153 106 305l51 -28q-52 -71 -76 -135.5t-24 -151.5q0 -92 34 -143.5t86 -51.5q47 0 78 35t31 114q0 80 -7 144h68q-6 -66 -6 -144q0 -79 31 -114t78 -35q54 0 86.5 51.5t32.5 153.5q0 86 -21.5 146t-72.5 133l52 26q51 -73 76 -142t25 -161 q0 -128 -46.5 -192.5t-125.5 -64.5q-46 0 -83.5 24t-56.5 71h-4q-18 -47 -55 -71t-83 -24q-76 0 -125 65.5t-49 189.5z" />
<glyph unicode="&#x401;" horiz-adv-x="573" d="M106 0v729h403v-51h-343v-266h289v-51h-289v-309h354v-52h-414zM160 844q0 19 12.5 31t31.5 12q18 0 30.5 -12t12.5 -31t-12.5 -31t-30.5 -12q-19 0 -31.5 12t-12.5 31zM379 844q0 19 12.5 31t31.5 12t31 -12t12 -31t-12 -31t-31 -12t-31.5 12t-12.5 31z" />
<glyph unicode="&#x410;" horiz-adv-x="587" d="M8 0l255 729h62l255 -729h-64l-81 245h-284l-83 -245h-60zM167 293h252l-44 132q-38 107 -80 250h-4q-31 -110 -79 -250z" />
<glyph unicode="&#x411;" horiz-adv-x="632" d="M106 0v729h429v-51h-369v-266h157q123 0 192 -48t69 -148q0 -107 -66.5 -161.5t-190.5 -54.5h-221zM166 50h147q107 0 159.5 39.5t52.5 124.5q0 78 -54 114t-162 36h-143v-314z" />
<glyph unicode="&#x412;" horiz-adv-x="642" d="M106 0v729h201q114 0 178.5 -44t64.5 -133q0 -57 -29 -100t-83 -59v-5q73 -12 114.5 -57t41.5 -118q0 -103 -73 -158t-199 -55h-216zM166 50h142q227 0 227 163q0 150 -227 150h-142v-313zM166 411h122q202 0 202 134q0 72 -48 103.5t-148 31.5h-128v-269z" />
<glyph unicode="&#x413;" horiz-adv-x="540" d="M106 0v729h402v-51h-342v-678h-60z" />
<glyph unicode="&#x414;" horiz-adv-x="690" d="M35 17v35h34q54 23 100 266q38 212 68 411h341v-677h78v-35l-9 -225h-51v208h-502v-208h-51zM141 52h377v626h-233q-12 -68 -30 -184.5t-31 -187.5q-37 -197 -83 -254z" />
<glyph unicode="&#x415;" horiz-adv-x="573" d="M106 0v729h403v-51h-343v-266h289v-51h-289v-309h354v-52h-414z" />
<glyph unicode="&#x416;" horiz-adv-x="859" d="M9 0l228 391l-85 188q-30 64 -52 84t-49 20q-11 0 -24 -5l-10 59q13 5 31 5q47 0 80 -27.5t71 -109.5l88 -193h114v317h57v-317h114l89 193q38 82 71 109.5t80 27.5q18 0 31 -5l-11 -59q-12 5 -23 5q-27 0 -49 -20t-52 -84l-85 -187l227 -392h-67l-206 362h-119v-362h-57 v362h-118l-206 -362h-68z" />
<glyph unicode="&#x417;" horiz-adv-x="609" d="M51 95l36 42q51 -53 101.5 -74.5t120.5 -21.5q81 0 136.5 43.5t55.5 119.5q0 79 -59 119t-167 40h-75v48h53q108 0 158.5 36t50.5 108q0 63 -45 98t-116 35q-108 0 -181 -73l-33 40q36 39 93 63t122 24q96 0 157.5 -49t61.5 -133q0 -61 -30.5 -105.5t-85.5 -61.5v-5 q70 -12 113 -60t43 -124q0 -99 -72.5 -158t-179.5 -59q-156 0 -258 108z" />
<glyph unicode="&#x418;" horiz-adv-x="717" d="M106 0v729h59v-432q0 -48 -7 -216h4l82 144l303 504h64v-729h-60v437q0 71 8 211h-5l-82 -144l-303 -504h-63z" />
<glyph unicode="&#x419;" horiz-adv-x="717" d="M106 0v729h59v-432q0 -48 -7 -216h4l82 144l303 504h64v-729h-60v437q0 71 8 211h-5l-82 -144l-303 -504h-63zM208 929h53q3 -45 27 -74.5t74 -29.5q51 0 75 29.5t26 74.5h54q-4 -60 -40 -101t-115 -41q-141 0 -154 142z" />
<glyph unicode="&#x41a;" horiz-adv-x="621" d="M106 0v729h60v-317h146l106 193q45 84 75.5 110.5t75.5 26.5q16 0 31 -5l-11 -59q-13 5 -24 5q-25 0 -45.5 -19.5t-55.5 -84.5l-103 -188l255 -391h-67l-238 362h-145v-362h-60z" />
<glyph unicode="&#x41b;" horiz-adv-x="684" d="M5 -4l15 57q15 -7 31 -7q33 0 56.5 40t47.5 165q25 135 86 478h337v-729h-60v678h-229q-12 -67 -37.5 -211.5t-39.5 -221.5q-19 -106 -41.5 -162.5t-48 -76t-65.5 -19.5q-29 0 -52 9z" />
<glyph unicode="&#x41c;" horiz-adv-x="787" d="M106 0v729h80l150 -419l57 -160h4q11 31 30.5 90t23.5 70l150 419h80v-729h-57v462q0 59 7 201h-4l-57 -163l-153 -422h-48l-154 422l-57 163h-4q7 -142 7 -201v-462h-55z" />
<glyph unicode="&#x41d;" horiz-adv-x="710" d="M106 0v729h60v-316h379v316h59v-729h-59v361h-379v-361h-60z" />
<glyph unicode="&#x41e;" horiz-adv-x="726" d="M60 367q0 171 84 273t218 102q135 0 219 -102t84 -273q0 -172 -84 -276t-219 -104q-134 0 -218 104t-84 276zM123 367q0 -148 65.5 -237t173.5 -89q109 0 175 89t66 237t-66 234.5t-175 86.5t-174 -86.5t-65 -234.5z" />
<glyph unicode="&#x41f;" horiz-adv-x="705" d="M106 0v729h493v-729h-60v678h-373v-678h-60z" />
<glyph unicode="&#x420;" horiz-adv-x="612" d="M106 0v729h189q130 0 198 -48t68 -157q0 -107 -69 -161.5t-193 -54.5h-133v-308h-60zM166 358h121q109 0 161 39.5t52 126.5q0 86 -52 120.5t-165 34.5h-117v-321z" />
<glyph unicode="&#x421;" horiz-adv-x="627" d="M60 365q0 173 87 275t227 102q117 0 192 -88l-34 -39q-65 73 -158 73q-116 0 -183.5 -86.5t-67.5 -234.5q0 -150 67 -238t181 -88q101 0 181 88l34 -38q-90 -104 -218 -104q-137 0 -222.5 102.5t-85.5 275.5z" />
<glyph unicode="&#x422;" horiz-adv-x="584" d="M32 678v51h520v-51h-230v-678h-61v678h-229z" />
<glyph unicode="&#x423;" horiz-adv-x="549" d="M8 729h63l159 -374l53 -130h4l49 130l147 374h63l-246 -611q-26 -65 -64 -98t-97 -33q-35 0 -62 10l15 56q18 -8 42 -8q40 0 63.5 16.5t41.5 54.5l17 46z" />
<glyph unicode="&#x424;" horiz-adv-x="795" d="M53 367q0 126 83 196t234 72v107h54v-107q151 -2 234.5 -72t83.5 -196t-83.5 -198t-234.5 -74v-108h-54v108q-151 2 -234 73.5t-83 198.5zM112 367q0 -103 67 -163t191 -61v443q-125 -1 -191.5 -59t-66.5 -160zM424 143q124 1 191 61t67 163q0 102 -66.5 160t-191.5 59 v-443z" />
<glyph unicode="&#x425;" horiz-adv-x="541" d="M19 0l217 377l-203 352h66l115 -208q10 -17 28.5 -49t30.5 -52h4q10 17 27 50t27 51l115 208h62l-203 -355l218 -374h-65l-123 218q-45 79 -67 116h-4q-51 -98 -61 -116l-122 -218h-62z" />
<glyph unicode="&#x426;" horiz-adv-x="697" d="M106 0v729h60v-677h358v677h61v-677h77v-35l-7 -225h-52v208h-497z" />
<glyph unicode="&#x427;" horiz-adv-x="646" d="M77 553v176h59v-176q0 -95 51.5 -133.5t155.5 -38.5q80 0 137 12v336h60v-729h-60v341q-62 -12 -143 -12q-127 0 -193.5 52t-66.5 172z" />
<glyph unicode="&#x428;" horiz-adv-x="935" d="M106 0v729h59v-677h273v677h59v-677h273v677h59v-729h-723z" />
<glyph unicode="&#x429;" horiz-adv-x="941" d="M106 0v729h59v-677h273v677h59v-677h273v677h59v-677h78v-35l-8 -225h-52v208h-741z" />
<glyph unicode="&#x42a;" horiz-adv-x="792" d="M32 678v51h303v-313h139q122 0 194 -50t72 -149q0 -108 -67.5 -162.5t-191.5 -54.5h-206v678h-243zM335 50h134q212 0 212 165q0 151 -220 151h-126v-316z" />
<glyph unicode="&#x42b;" horiz-adv-x="856" d="M106 0v729h60v-313h131q124 0 193.5 -49t69.5 -150q0 -108 -67.5 -162.5t-191.5 -54.5h-195zM166 50h122q212 0 212 165q0 78 -53.5 114.5t-162.5 36.5h-118v-316zM690 0v729h60v-729h-60z" />
<glyph unicode="&#x42c;" horiz-adv-x="632" d="M106 0v729h60v-313h152q124 0 193 -49t69 -150q0 -108 -67.5 -162.5t-191.5 -54.5h-215zM166 50h142q212 0 212 165q0 78 -53.5 114.5t-161.5 36.5h-139v-316z" />
<glyph unicode="&#x42d;" horiz-adv-x="627" d="M40 91l35 38q83 -88 193 -88t173.5 83t65.5 237h-330v51h329q-8 132 -70 204t-168 72q-103 0 -173 -73l-35 39q35 37 91.5 62.5t118.5 25.5q138 0 217.5 -98.5t79.5 -278.5q0 -178 -81 -278t-215 -100q-137 0 -231 104z" />
<glyph unicode="&#x42e;" horiz-adv-x="984" d="M106 0v729h60v-316h183q10 152 87.5 240.5t197.5 88.5q130 0 210 -102t80 -273q0 -173 -80.5 -276.5t-209.5 -103.5t-207.5 101.5t-79.5 272.5h-181v-361h-60zM406 367q0 -148 62 -237t166 -89t165.5 88.5t61.5 237.5q0 148 -61.5 234.5t-165.5 86.5t-166 -86.5 t-62 -234.5z" />
<glyph unicode="&#x42f;" horiz-adv-x="627" d="M29 0l212 334q-81 15 -128.5 65t-47.5 135q0 195 243 195h213v-729h-60v329h-158l-204 -329h-70zM126 534q0 -155 195 -155h140v300h-140q-97 0 -146 -34t-49 -111z" />
<glyph unicode="&#x430;" horiz-adv-x="547" d="M63 134q0 87 80.5 133.5t259.5 67.5q4 161 -122 161q-87 0 -168 -61l-26 42q103 70 202 70q90 0 131 -56.5t41 -152.5v-338h-49l-6 68h-2q-99 -81 -186 -81q-68 0 -111.5 38t-43.5 109zM121 137q0 -52 30.5 -76.5t78.5 -24.5q78 0 173 83v173q-153 -18 -217.5 -55 t-64.5 -100z" />
<glyph unicode="&#x431;" horiz-adv-x="594" d="M64 318q0 81 8 144t21.5 108.5t37.5 79t48.5 54.5t62.5 36t72 23t84 16q61 10 102 30l13 -56q-33 -21 -103 -32q-37 -6 -57 -9.5t-49 -11t-44.5 -14.5t-36.5 -19.5t-32 -27.5t-24.5 -36t-20.5 -48t-13 -61.5t-9 -77.5q82 102 195 102q99 0 158.5 -69t59.5 -183 q0 -125 -66 -202t-161 -77q-117 0 -181.5 86t-64.5 245zM121 311q0 -130 48 -202t141 -72q71 0 118.5 64.5t47.5 164.5q0 91 -44 147t-124 56q-101 0 -186 -110q-1 -15 -1 -48z" />
<glyph unicode="&#x432;" horiz-adv-x="552" d="M100 0v533h195q188 0 188 -132q0 -88 -89 -116v-4q49 -11 80.5 -42.5t31.5 -86.5q0 -76 -54.5 -114t-150.5 -38h-201zM158 46h133q156 0 156 109q0 48 -42 75t-122 27h-125v-211zM158 303h118q147 0 147 93q0 92 -138 92h-127v-185z" />
<glyph unicode="&#x433;" horiz-adv-x="444" d="M100 0v533h316v-49h-258v-484h-58z" />
<glyph unicode="&#x434;" horiz-adv-x="563" d="M26 15v35h22q27 14 46 62t35 174l30 247h301v-483h73v-35l-6 -205h-50v190h-394v-190h-51zM117 50h284v434h-196l-24 -207q-18 -167 -64 -227z" />
<glyph unicode="&#x435;" horiz-adv-x="538" d="M56 266q0 125 69.5 203t164.5 78q97 0 151.5 -65.5t54.5 -182.5q0 -23 -3 -42h-378q2 -98 55.5 -159.5t139.5 -61.5q76 0 142 46l22 -43q-83 -52 -170 -52q-106 0 -177 75.5t-71 203.5zM115 303h328q0 95 -40.5 144.5t-111.5 49.5q-68 0 -118 -52.5t-58 -141.5z" />
<glyph unicode="&#x436;" horiz-adv-x="714" d="M18 0l166 283l-48 123q-20 49 -38.5 65.5t-42.5 16.5q-9 0 -16 -2l-13 56q18 5 27 5q39 0 69.5 -25.5t57.5 -89.5l52 -129h98v230h53v-230h98l53 129q26 64 56.5 89.5t69.5 25.5q12 0 27 -5l-12 -56q-7 2 -17 2q-24 0 -43 -16.5t-38 -65.5l-49 -122l168 -284h-65 l-143 254h-105v-254h-53v254h-104l-145 -254h-63z" />
<glyph unicode="&#x437;" horiz-adv-x="495" d="M45 56l28 40q69 -60 168 -60q63 0 105.5 31t42.5 82q0 53 -42 80.5t-119 27.5h-69v46h55q74 0 113 26t39 73t-34.5 71t-90.5 24q-83 0 -153 -51l-28 39q81 62 183 62q78 0 129.5 -36.5t51.5 -103.5q0 -41 -24 -72.5t-66 -49.5v-5q51 -12 83 -46t32 -89q0 -70 -59 -114 t-145 -44q-119 0 -200 69z" />
<glyph unicode="&#x438;" horiz-adv-x="616" d="M100 0v533h57v-257q0 -34 -7 -200h5q10 17 37.5 58t37.5 58l231 341h55v-533h-57v256q0 35 7 201h-5q-15 -24 -75 -115l-231 -342h-55z" />
<glyph unicode="&#x439;" horiz-adv-x="616" d="M100 0v533h57v-257q0 -34 -7 -200h5q10 17 37.5 58t37.5 58l231 341h55v-533h-57v256q0 35 7 201h-5q-15 -24 -75 -115l-231 -342h-55zM144 799h52q2 -55 28.5 -90t85.5 -35t85.5 35t28.5 90h52q-5 -68 -43.5 -116t-122.5 -48q-44 0 -76.5 14.5t-50.5 39.5t-27.5 52 t-11.5 58z" />
<glyph unicode="&#x43a;" horiz-adv-x="528" d="M100 0v533h58v-230h126l55 129q28 67 57 91t69 24q12 0 27 -5l-12 -56q-7 2 -17 2q-24 0 -42 -16.5t-39 -65.5l-53 -126l181 -280h-64l-160 254h-128v-254h-58z" />
<glyph unicode="&#x43b;" horiz-adv-x="566" d="M13 -6l13 55q14 -4 23 -4q64 0 78 129q7 60 21.5 179.5t21.5 179.5h296v-533h-58v484h-192q-11 -95 -38 -323q-21 -174 -123 -174q-24 0 -42 7z" />
<glyph unicode="&#x43c;" horiz-adv-x="688" d="M100 0v533h67l123 -281q6 -15 24.5 -62t27.5 -73h5q38 90 54 135l120 281h68v-533h-55v288q0 38 7 162h-4q-13 -33 -49 -115l-120 -283h-47l-121 283q-34 79 -48 115h-5q7 -124 7 -162v-288h-54z" />
<glyph unicode="&#x43d;" horiz-adv-x="613" d="M100 0v533h58v-227h297v227h58v-533h-58v253h-297v-253h-58z" />
<glyph unicode="&#x43e;" horiz-adv-x="594" d="M56 266q0 129 70 205t171 76t171 -76t70 -205q0 -128 -70 -203.5t-171 -75.5t-171 75.5t-70 203.5zM117 266q0 -101 50.5 -165t129.5 -64t130 64t51 165t-51 165.5t-130 64.5q-78 0 -129 -64.5t-51 -165.5z" />
<glyph unicode="&#x43f;" horiz-adv-x="602" d="M100 0v533h402v-533h-58v484h-286v-484h-58z" />
<glyph unicode="&#x440;" horiz-adv-x="605" d="M100 -238v771h48l7 -65h2q103 79 178 79q104 0 159 -73t55 -199q0 -132 -68.5 -210t-166.5 -78q-73 0 -157 65l1 -98v-192h-58zM158 103q77 -65 151 -65q79 0 128.5 65.5t49.5 171.5q0 221 -163 221q-70 0 -166 -85v-308z" />
<glyph unicode="&#x441;" horiz-adv-x="499" d="M56 266q0 129 72 205t175 76q83 0 156 -65l-33 -40q-57 54 -122 54q-80 0 -133.5 -64.5t-53.5 -165.5q0 -102 51 -165.5t135 -63.5q73 0 139 59l28 -40q-79 -69 -170 -69q-107 0 -175.5 74.5t-68.5 204.5z" />
<glyph unicode="&#x442;" horiz-adv-x="493" d="M29 484v49h435v-49h-188v-484h-59v484h-188z" />
<glyph unicode="&#x443;" horiz-adv-x="490" d="M13 533h63l124 -326q47 -128 56 -150h5q9 27 25.5 79t22.5 71l109 326h59l-208 -595q-62 -178 -184 -178q-33 0 -57 11l13 49q22 -8 43 -8q87 0 133 135l14 45z" />
<glyph unicode="&#x444;" horiz-adv-x="790" d="M56 266q0 126 57.5 203.5t142.5 77.5q50 0 111 -43l-1 79v212h58v-212l-2 -81q60 45 119 45q94 0 143 -73t49 -199q0 -132 -57.5 -210t-142.5 -78q-50 0 -111 43l2 -80v-188h-58v188l1 81q-53 -44 -111 -44q-92 0 -146 73.5t-54 205.5zM118 266q0 -105 39 -166.5 t109 -61.5q55 0 101 45v370q-46 43 -105 43q-62 0 -103 -65.5t-41 -164.5zM422 81q49 -43 106 -43q65 0 105 65t40 172q0 102 -35 161.5t-108 59.5q-58 0 -108 -44v-371z" />
<glyph unicode="&#x445;" horiz-adv-x="460" d="M15 0l180 279l-165 254h64l82 -131q25 -41 57 -88h4q6 10 53 88l79 131h61l-165 -260l180 -273h-65l-91 141q-26 48 -61 97h-5q-10 -16 -30 -48.5t-30 -48.5l-86 -141h-62z" />
<glyph unicode="&#x446;" horiz-adv-x="593" d="M100 0v533h58v-483h278v483h58v-483h74v-35l-7 -205h-49v190h-412z" />
<glyph unicode="&#x447;" horiz-adv-x="548" d="M71 391v142h58v-142q0 -67 39 -96.5t123 -29.5q51 0 100 12v256h58v-533h-58v227q-63 -12 -111 -12q-105 0 -157 42t-52 134z" />
<glyph unicode="&#x448;" horiz-adv-x="803" d="M100 0v533h58v-483h215v483h57v-483h215v483h58v-533h-603z" />
<glyph unicode="&#x449;" horiz-adv-x="803" d="M100 0v533h58v-483h215v483h57v-483h215v483h58v-483h74v-35l-6 -205h-51v190h-620z" />
<glyph unicode="&#x44a;" horiz-adv-x="646" d="M29 484v49h260v-209h104q97 0 151 -40.5t54 -120.5t-54 -121.5t-151 -41.5h-162v484h-202zM289 49h94q79 0 117.5 27.5t38.5 86.5t-38 86t-118 27h-94v-227z" />
<glyph unicode="&#x44b;" horiz-adv-x="714" d="M100 0v533h58v-209h92q96 0 150 -40.5t54 -120.5t-54 -121.5t-150 -41.5h-150zM158 49h81q80 0 118.5 27.5t38.5 86.5t-38.5 86t-118.5 27h-81v-227zM556 0v533h59v-533h-59z" />
<glyph unicode="&#x44c;" horiz-adv-x="530" d="M100 0v533h58v-209h119q97 0 150.5 -40.5t53.5 -120.5t-54 -121.5t-150 -41.5h-177zM158 49h109q79 0 117.5 27.5t38.5 86.5t-38 86t-118 27h-109v-227z" />
<glyph unicode="&#x44d;" horiz-adv-x="499" d="M28 56l27 38q61 -58 142 -58q86 0 136 57t52 164h-258v46h256q-8 93 -56 143.5t-121 50.5q-76 0 -135 -54l-31 38q70 66 169 66q101 0 167 -72t66 -209q0 -136 -66.5 -207.5t-174.5 -71.5q-99 0 -173 69z" />
<glyph unicode="&#x44e;" horiz-adv-x="799" d="M100 0v533h58v-231h132q10 115 72.5 180t155.5 65q97 0 160.5 -75.5t63.5 -205.5q0 -129 -63.5 -204t-160.5 -75t-161 70t-68 192h-131v-249h-58zM346 266q0 -102 47 -165.5t123 -63.5q74 0 120 63.5t46 165.5t-46 166t-120 64q-76 0 -123 -64t-47 -166z" />
<glyph unicode="&#x44f;" horiz-adv-x="554" d="M45 0l174 234q-62 12 -100 49.5t-38 100.5q0 149 203 149h170v-533h-58v228h-117l-168 -228h-66zM141 383q0 -53 41.5 -81t114.5 -28h99v211h-99q-156 0 -156 -102z" />
<glyph unicode="&#x451;" horiz-adv-x="538" d="M56 266q0 125 69.5 203t164.5 78q97 0 151.5 -65.5t54.5 -182.5q0 -23 -3 -42h-378q2 -98 55.5 -159.5t139.5 -61.5q76 0 142 46l22 -43q-83 -52 -170 -52q-106 0 -177 75.5t-71 203.5zM115 303h328q0 95 -40.5 144.5t-111.5 49.5q-68 0 -118 -52.5t-58 -141.5zM146 703 q0 19 12.5 32t31.5 13t31.5 -13t12.5 -32q0 -18 -12.5 -30.5t-31.5 -12.5t-31.5 12.5t-12.5 30.5zM346 703q0 19 13 32t32 13q18 0 30.5 -13t12.5 -32q0 -18 -12.5 -30.5t-30.5 -12.5q-19 0 -32 12.5t-13 30.5z" />
<glyph unicode="&#x2000;" horiz-adv-x="474" />
<glyph unicode="&#x2001;" horiz-adv-x="948" />
<glyph unicode="&#x2002;" horiz-adv-x="474" />
<glyph unicode="&#x2003;" horiz-adv-x="948" />
<glyph unicode="&#x2004;" horiz-adv-x="316" />
<glyph unicode="&#x2005;" horiz-adv-x="237" />
<glyph unicode="&#x2006;" horiz-adv-x="158" />
<glyph unicode="&#x2007;" horiz-adv-x="158" />
<glyph unicode="&#x2008;" horiz-adv-x="118" />
<glyph unicode="&#x2009;" horiz-adv-x="189" />
<glyph unicode="&#x200a;" horiz-adv-x="52" />
<glyph unicode="&#x2010;" d="M375 361v38h250v-38h-250z" />
<glyph unicode="&#x2011;" horiz-adv-x="333" d="M45 252v49h246v-49h-246z" />
<glyph unicode="&#x2012;" horiz-adv-x="333" d="M45 252v49h246v-49h-246z" />
<glyph unicode="&#x2013;" horiz-adv-x="587" d="M45 252v49h500v-49h-500z" />
<glyph unicode="&#x2014;" horiz-adv-x="1087" d="M45 252v49h1000v-49h-1000z" />
<glyph unicode="&#x2015;" d="M71 361v38h858v-38h-858z" />
<glyph unicode="&#x2018;" horiz-adv-x="250" d="M64 599q0 113 100 178l21 -29q-40 -31 -58 -61.5t-19 -75.5q3 1 10 1q19 0 32.5 -12t13.5 -33q0 -22 -12.5 -35t-33.5 -13q-26 0 -40 21t-14 59z" />
<glyph unicode="&#x2019;" horiz-adv-x="250" d="M66 546q39 31 57 62t19 75q-3 -1 -10 -1q-18 0 -32 12t-14 33q0 22 12.5 35t33.5 13q25 0 40 -21t15 -59q0 -113 -101 -178z" />
<glyph unicode="&#x201c;" horiz-adv-x="415" d="M64 599q0 113 100 178l21 -29q-40 -31 -58 -61.5t-19 -75.5q3 1 10 1q19 0 32.5 -12t13.5 -33q0 -22 -12.5 -35t-33.5 -13q-26 0 -40 21t-14 59zM229 599q0 113 99 178l22 -29q-39 -31 -57 -62t-19 -75q2 1 8 1q20 0 34 -12t14 -33q0 -22 -13.5 -35t-34.5 -13 q-24 0 -38.5 21t-14.5 59z" />
<glyph unicode="&#x201d;" horiz-adv-x="415" d="M66 546q39 31 57 62t19 75q-3 -1 -10 -1q-18 0 -32 12t-14 33q0 22 12.5 35t33.5 13q25 0 40 -21t15 -59q0 -113 -101 -178zM230 546q40 31 58 61.5t19 75.5q-3 -1 -9 -1q-19 0 -33 12t-14 33q0 22 13 35t34 13q24 0 39 -21t15 -59q0 -113 -101 -178z" />
<glyph unicode="&#x2020;" d="M266 462v53l211 -4l-6 248h58l-6 -248l211 4v-53l-211 4l6 -522h-58l6 522z" />
<glyph unicode="&#x2021;" d="M266 175v53l211 -4v253l-211 -4v53l211 -4l-6 237h58l-6 -237l211 4v-53l-211 4l1 -253l210 4v-53l-211 4l6 -235h-58l6 235z" />
<glyph unicode="&#x2025;" d="M194 380q0 24 16 40t40 16t40 -16t16 -40t-16 -40t-40 -16t-40 16t-16 40zM694 380q0 24 16 40t40 16t40 -16t16 -40t-16 -40t-40 -16t-40 16t-16 40z" />
<glyph unicode="&#x2026;" d="M111 380q0 24 16 40t40 16t40 -16t16 -40t-16 -40t-40 -16t-40 16t-16 40zM444 380q0 24 16 40t40 16t40 -16t16 -40t-16 -40t-40 -16t-40 16t-16 40zM777 380q0 24 16 40t40 16t40 -16t16 -40t-16 -40t-40 -16t-40 16t-16 40z" />
<glyph unicode="&#x202f;" horiz-adv-x="189" />
<glyph unicode="&#x2030;" d="M36 521q0 107 38 164t92 56q53 0 90 -57t37 -164q0 -108 -37 -163t-91 -55t-91.5 56.5t-37.5 162.5zM81 521q0 -41 5.5 -78.5t25.5 -70.5t52 -33q25 0 43 18.5t26.5 48.5t12 57.5t3.5 56.5t-3.5 57t-12 58.5t-27 49t-43.5 18.5q-24 0 -41.5 -18.5t-25.5 -49t-11.5 -58.5 t-3.5 -56zM131 -18l382 766h42l-381 -766h-43zM393 209q0 108 37.5 164.5t91.5 55.5q54 0 91 -57t37 -164q0 -108 -37.5 -163.5t-91.5 -55.5q-53 0 -90.5 57t-37.5 163zM438 208q0 -29 3.5 -57t11.5 -58t25.5 -48t42.5 -18t43 18.5t26 48.5t11.5 57.5t3.5 56.5t-3.5 57 t-12 58.5t-26.5 49t-43 18.5q-24 0 -41.5 -18.5t-25.5 -49t-11.5 -58.5t-3.5 -57zM707 209q0 108 37.5 164.5t91.5 55.5q54 0 91 -57t37 -164q0 -108 -37.5 -163.5t-91.5 -55.5t-91 57t-37 163zM751 208q0 -29 3 -56.5t11 -57.5t26 -48.5t44 -18.5q25 0 43 18.5t26 48.5 t11.5 57.5t3.5 56.5t-3.5 56.5t-12 58.5t-26.5 49.5t-44 18.5q-24 0 -41.5 -19t-25.5 -49t-11.5 -58.5t-3.5 -56.5z" />
<glyph unicode="&#x2032;" horiz-adv-x="250" d="M91 530l26 237l55 -2l-11 -82l-32 -155z" />
<glyph unicode="&#x2033;" horiz-adv-x="415" d="M91 530l26 237l55 -2l-11 -82l-32 -155zM256 530l25 237l57 -2l-13 -82l-31 -155z" />
<glyph unicode="&#x203b;" d="M140 49l331 331l-330 330l29 29l330 -330l330 330l29 -29l-330 -330l330 -330l-29 -29l-330 330l-331 -331zM140 380q0 31 22 53t53 22t53 -22t22 -53t-22 -53t-53 -22t-53 22t-22 53zM425 95q0 31 22 53t53 22t53 -22t22 -53t-22 -53t-53 -22t-53 22t-22 53zM425 665 q0 31 22 53t53 22t53 -22t22 -53t-22 -53t-53 -22t-53 22t-22 53zM710 380q0 31 22 53t53 22t53 -22t22 -53t-22 -53t-53 -22t-53 22t-22 53z" />
<glyph unicode="&#x205f;" horiz-adv-x="237" />
<glyph unicode="&#x2103;" d="M58 619q0 61 38.5 98t92.5 37q53 0 91 -37t38 -98q0 -59 -38 -95.5t-91 -36.5q-54 0 -92.5 36.5t-38.5 95.5zM102 619q0 -41 24 -67t63 -26q38 0 62.5 26.5t24.5 66.5q0 42 -24.5 68.5t-62.5 26.5q-39 0 -63 -26.5t-24 -68.5zM420 363q0 172 87 273.5t227 101.5 q114 0 193 -87l-38 -41q-63 71 -154 71q-115 0 -181.5 -85.5t-66.5 -231.5t66 -232.5t178 -86.5q101 0 177 85l37 -40q-89 -103 -216 -103q-138 0 -223.5 102t-85.5 274z" />
<glyph unicode="&#x212b;" d="M214 0l243 702q-40 11 -64 43.5t-24 77.5q0 56 36.5 90.5t92.5 34.5q55 0 92.5 -34.5t37.5 -90.5q0 -44 -24.5 -76.5t-63.5 -44.5l246 -702h-68l-79 240h-280l-81 -240h-64zM376 292h245l-42 128q-47 140 -78 249h-5q-36 -129 -77 -249zM411 821q0 -44 24 -68.5t63 -24.5 q36 0 61 24.5t25 68.5q0 40 -25 65t-61 25q-38 0 -62.5 -24.5t-24.5 -65.5z" />
<glyph unicode="&#x2190;" d="M35 380q68 43 136 104.5t118 125.5l42 -27q-72 -97 -180 -178h809v-50h-809q108 -81 180 -178l-42 -27q-50 64 -118 125.5t-136 104.5z" />
<glyph unicode="&#x2191;" d="M270 591q64 50 125.5 118t104.5 136q43 -68 104.5 -136t125.5 -118l-27 -42q-97 72 -178 180v-809h-50v809q-81 -108 -178 -180z" />
<glyph unicode="&#x2192;" d="M40 355v50h809q-108 81 -180 178l42 27q50 -64 118 -125.5t136 -104.5q-68 -43 -136 -104.5t-118 -125.5l-42 27q72 97 180 178h-809z" />
<glyph unicode="&#x2193;" d="M270 169l27 42q97 -72 178 -180v809h50v-809q81 108 178 180l27 -42q-64 -50 -125.5 -118t-104.5 -136q-43 68 -104.5 136t-125.5 118z" />
<glyph unicode="&#x21d2;" d="M40 209v49h719q69 70 132 115q-63 46 -132 115h-719v50h674q-65 74 -102 133l42 25q57 -88 145 -178t175 -145q-87 -54 -175 -144t-145 -178l-42 25q37 59 102 133h-674z" />
<glyph unicode="&#x21d4;" d="M26 373q84 55 170 145t141 178l42 -25q-39 -63 -101 -133h444q-62 70 -101 133l42 25q55 -88 141 -178t170 -145q-84 -54 -170 -144t-141 -178l-42 25q39 63 101 133h-444q62 -70 101 -133l-42 -25q-55 88 -141 178t-170 144zM106 373q57 -40 130 -115h528q73 75 130 115 q-56 41 -130 115h-528q-74 -74 -130 -115z" />
<glyph unicode="&#x2200;" d="M114 738l44 22l140 -275h404l140 275l44 -22l-384 -752h-4zM323 436l176 -348h2l176 348h-354z" />
<glyph unicode="&#x2202;" d="M231 199q0 110 75.5 189t169.5 79q84 0 137.5 -41t78.5 -106h2q24 96 24 175q0 108 -45 163.5t-124 55.5q-54 0 -97.5 -29t-69.5 -66l-36 33q36 43 88.5 75t115.5 32q101 0 160 -67.5t59 -190.5q0 -131 -41 -247.5t-119.5 -191.5t-176.5 -75q-94 0 -147.5 60t-53.5 152z M281 197q0 -73 41.5 -117.5t113.5 -44.5q69 1 129.5 54t99.5 155q-4 76 -57 127t-128 51q-77 0 -138 -67.5t-61 -157.5z" />
<glyph unicode="&#x2203;" d="M198 13v49h546v287h-546v49h546v287h-546v49h596v-721h-596z" />
<glyph unicode="&#x2207;" d="M158 675v35h682v-35l-309 -694h-62zM229 659l164 -372l104 -243h5l102 243l165 372h-540z" />
<glyph unicode="&#x2208;" d="M127 373q0 137 96.5 230t240.5 93h408v-49h-408q-117 0 -197 -71t-89 -178h694v-49h-694q9 -107 89 -178t197 -71h408v-49h-408q-144 0 -240.5 93t-96.5 229z" />
<glyph unicode="&#x220b;" d="M128 51v49h408q117 0 197 71t89 178h-694v49h694q-9 107 -89 178t-197 71h-408v49h408q144 0 240.5 -93t96.5 -230q0 -136 -96.5 -229t-240.5 -93h-408z" />
<glyph unicode="&#x221a;" d="M38 116l131 186l101 -267l294 845h436v-38h-409l-321 -924h-30l-106 281l-71 -101z" />
<glyph unicode="&#x221d;" d="M38 373q0 91 61 142.5t139 51.5q150 0 262 -153q111 153 261 153q52 0 88 -12l-18 -46q-30 9 -69 9q-129 0 -232 -145q103 -144 232 -144q39 0 69 9l18 -46q-39 -13 -88 -13q-150 0 -261 154q-113 -154 -262 -154q-78 0 -139 52t-61 142zM87 373q0 -66 45 -105t106 -39 q128 0 231 144q-103 145 -231 145q-61 0 -106 -39t-45 -106z" />
<glyph unicode="&#x221e;" d="M38 373q0 91 61 142.5t139 51.5q150 0 262 -153q112 153 261 153q78 0 139.5 -51.5t61.5 -142.5q0 -90 -61.5 -142t-139.5 -52q-147 0 -261 153q-114 -153 -262 -153q-78 0 -139 52t-61 142zM87 373q0 -66 45 -105t106 -39q128 0 231 144q-103 145 -231 145 q-61 0 -106 -39t-45 -106zM530 373q103 -144 232 -144q60 0 105 39t45 105q0 67 -45 106t-105 39q-129 0 -232 -145z" />
<glyph unicode="&#x2220;" d="M105 26v4l667 667l34 -35l-584 -584v-3h653v-49h-770z" />
<glyph unicode="&#x2225;" d="M214 110l330 659l44 -22l-329 -659zM412 11l329 659l45 -22l-330 -659z" />
<glyph unicode="&#x2227;" d="M114 14l384 752h4l384 -752l-44 -22l-341 671h-2l-341 -671z" />
<glyph unicode="&#x2228;" d="M114 733l44 22l341 -671h2l341 671l44 -22l-384 -752h-4z" />
<glyph unicode="&#x2229;" d="M177 2v408q0 143 93.5 240t229.5 97t229.5 -97t93.5 -240v-408h-50v408q0 123 -78.5 205t-194.5 82t-194.5 -82t-78.5 -205v-408h-50z" />
<glyph unicode="&#x222a;" d="M177 337v408h50v-408q0 -123 78.5 -205.5t194.5 -82.5t194.5 82.5t78.5 205.5v408h50v-408q0 -144 -93.5 -240.5t-229.5 -96.5t-229.5 96.5t-93.5 240.5z" />
<glyph unicode="&#x222b;" d="M323 -79l4 48q13 -3 28 -3q18 0 31.5 2.5t30.5 13.5t28.5 29.5t19.5 54.5t8 86v458q0 232 169 232q20 0 35 -3l-4 -48q-13 3 -28 3q-18 0 -31.5 -2.5t-30.5 -13.5t-28.5 -29.5t-19.5 -54.5t-8 -86v-458q0 -232 -169 -232q-20 0 -35 3z" />
<glyph unicode="&#x222c;" d="M131 -79l5 48q12 -3 28 -3q22 0 39 5.5t36.5 22t30.5 57t11 101.5v458q0 232 170 232q18 0 35 -3l-5 -48q-12 3 -28 3q-23 0 -39.5 -5.5t-36 -22t-30.5 -57t-11 -101.5v-458q0 -232 -170 -232q-20 0 -35 3zM514 -79l5 48q12 -3 28 -3q23 0 39.5 5.5t36 22t30.5 57 t11 101.5v458q0 232 170 232q20 0 35 -3l-5 -48q-12 3 -28 3q-22 0 -39 -5.5t-36.5 -22t-30.5 -57t-11 -101.5v-458q0 -232 -170 -232q-19 0 -35 3z" />
<glyph unicode="&#x2234;" d="M160 131q0 26 19 45t45 19t45 -19t19 -45t-19 -45t-45 -19t-45 19t-19 45zM436 616q0 26 19 45t45 19t45 -19t19 -45t-19 -45t-45 -19t-45 19t-19 45zM713 131q0 26 18.5 45t45.5 19q26 0 45 -19t19 -45t-19 -45t-45 -19q-27 0 -45.5 19t-18.5 45z" />
<glyph unicode="&#x2235;" d="M160 616q0 26 19 45t45 19t45 -19t19 -45t-19 -45t-45 -19t-45 19t-19 45zM436 131q0 26 19 45t45 19t45 -19t19 -45t-19 -45t-45 -19t-45 19t-19 45zM713 616q0 26 18.5 45t45.5 19q26 0 45 -19t19 -45t-19 -45t-45 -19q-27 0 -45.5 19t-18.5 45z" />
<glyph unicode="&#x223d;" d="M38 373q0 91 61 142.5t140 51.5q52 0 88 -12l-18 -46q-30 9 -71 9q-61 0 -106 -39t-45 -106q0 -66 45 -105t106 -39q134 0 244 162q121 176 279 176q78 0 139.5 -51.5t61.5 -142.5q0 -90 -61.5 -142t-140.5 -52q-48 0 -88 13l18 46q31 -9 71 -9q61 0 106 38.5t45 105.5 t-45 106t-105 39q-135 0 -245 -163q-121 -176 -279 -176q-78 0 -139 52t-61 142z" />
<glyph unicode="&#x2252;" d="M132 249v46h736v-46h-736zM132 452v46h736v-46h-736zM252 664q0 26 19 44.5t45 18.5t45 -18.5t19 -44.5q0 -27 -19 -45.5t-45 -18.5t-45 18.5t-19 45.5zM620 83q0 27 19 45.5t45 18.5t45 -18.5t19 -45.5q0 -26 -19 -45t-45 -19t-45 19t-19 45z" />
<glyph unicode="&#x2260;" d="M132 244v49h312l57 155h-369v49h387l83 231l47 -17l-78 -214h297v-49h-315l-56 -155h371v-49h-388l-82 -225l-47 17l75 208h-294z" />
<glyph unicode="&#x2261;" d="M132 135v47h736v-47h-736zM132 350v47h736v-47h-736zM132 564v48h736v-48h-736z" />
<glyph unicode="&#x2266;" d="M106 545v4l756 293l17 -46l-637 -247v-4l637 -248l-17 -45zM128 5h744v-47h-744v47zM128 114v47h744v-47h-744z" />
<glyph unicode="&#x2267;" d="M121 297l637 248v4l-637 247l17 46l756 -293v-4l-756 -293zM128 5h744v-47h-744v47zM128 114v47h744v-47h-744z" />
<glyph unicode="&#x226a;" d="M68 371v4l552 384l25 -37l-498 -347v-4l498 -346l-25 -38zM353 371v4l552 384l26 -37l-499 -347v-4l499 -346l-26 -38z" />
<glyph unicode="&#x226b;" d="M69 25l499 346v4l-499 347l26 37l552 -384v-4l-552 -384zM355 25l498 346v4l-498 347l25 37l552 -384v-4l-552 -384z" />
<glyph unicode="&#x2282;" d="M127 373q0 137 96.5 230t240.5 93h408v-49h-408q-124 0 -206 -79t-82 -195t82 -194.5t206 -78.5h408v-49h-408q-144 0 -240.5 93t-96.5 229z" />
<glyph unicode="&#x2283;" d="M128 51v49h408q124 0 206 78.5t82 194.5t-82 195t-206 79h-408v49h408q144 0 240.5 -93t96.5 -230q0 -136 -96.5 -229t-240.5 -93h-408z" />
<glyph unicode="&#x2286;" d="M127 501q0 107 75.5 182.5t207.5 75.5h462v-49h-461q-112 0 -173.5 -61t-61.5 -148t61.5 -148t173.5 -61h461v-49h-462q-132 0 -207.5 75.5t-75.5 182.5zM128 -13v50h744v-50h-744z" />
<glyph unicode="&#x2287;" d="M128 -13v50h744v-50h-744zM128 243v49h462q112 0 173 61t61 148t-61 148t-173 61h-462v49h462q132 0 207.5 -75.5t75.5 -182.5t-75.5 -182.5t-207.5 -75.5h-462z" />
<glyph unicode="&#x22a5;" d="M111 40v49h364v652h50v-652h364v-49h-778z" />
<glyph unicode="&#x2312;" d="M27 641q206 200 473 200t473 -200l-24 -39q-194 191 -449 191t-449 -191z" />
<glyph unicode="&#x2500;" d="M0 360v40h1000v-40h-1000z" />
<glyph unicode="&#x2501;" d="M0 320v120h1000v-120h-1000z" />
<glyph unicode="&#x2502;" d="M480 -120v1000h40v-1000h-40z" />
<glyph unicode="&#x2503;" d="M440 -120v1000h120v-1000h-120z" />
<glyph unicode="&#x250c;" d="M480 -120v520h520v-40h-480v-480h-40z" />
<glyph unicode="&#x250f;" d="M440 -120v560h560v-120h-440v-440h-120z" />
<glyph unicode="&#x2510;" d="M0 360v40h520v-520h-40v480h-480z" />
<glyph unicode="&#x2513;" d="M0 320v120h560v-560h-120v440h-440z" />
<glyph unicode="&#x2514;" d="M480 360v520h40v-480h480v-40h-520z" />
<glyph unicode="&#x2517;" d="M440 320v560h120v-440h440v-120h-560z" />
<glyph unicode="&#x2518;" d="M0 360v40h480v480h40v-520h-520z" />
<glyph unicode="&#x251b;" d="M0 320v120h440v440h120v-560h-560z" />
<glyph unicode="&#x251c;" d="M480 -120v1000h40v-480h480v-40h-480v-480h-40z" />
<glyph unicode="&#x251d;" d="M480 -120v1000h40v-440h480v-120h-480v-440h-40z" />
<glyph unicode="&#x2520;" d="M440 -120v1000h120v-480h440v-40h-440v-480h-120z" />
<glyph unicode="&#x2523;" d="M440 -120v1000h120v-440h440v-120h-440v-440h-120z" />
<glyph unicode="&#x2524;" d="M0 360v40h480v480h40v-1000h-40v480h-480z" />
<glyph unicode="&#x2525;" d="M0 320v120h480v440h40v-1000h-40v440h-480z" />
<glyph unicode="&#x2528;" d="M0 360v40h440v480h120v-1000h-120v480h-440z" />
<glyph unicode="&#x252b;" d="M0 320v120h440v440h120v-1000h-120v440h-440z" />
<glyph unicode="&#x252c;" d="M0 360v40h1000v-40h-480v-480h-40v480h-480z" />
<glyph unicode="&#x252f;" d="M0 320v120h1000v-120h-480v-440h-40v440h-480z" />
<glyph unicode="&#x2530;" d="M0 360v40h1000v-40h-440v-480h-120v480h-440z" />
<glyph unicode="&#x2533;" d="M0 320v120h1000v-120h-440v-440h-120v440h-440z" />
<glyph unicode="&#x2534;" d="M0 360v40h480v480h40v-480h480v-40h-1000z" />
<glyph unicode="&#x2537;" d="M0 320v120h480v440h40v-440h480v-120h-1000z" />
<glyph unicode="&#x2538;" d="M0 360v40h440v480h120v-480h440v-40h-1000z" />
<glyph unicode="&#x253b;" d="M0 320v120h440v440h120v-440h440v-120h-1000z" />
<glyph unicode="&#x253c;" d="M0 360v40h480v480h40v-480h480v-40h-480v-480h-40v480h-480z" />
<glyph unicode="&#x253f;" d="M0 320v120h480v440h40v-440h480v-120h-480v-440h-40v440h-480z" />
<glyph unicode="&#x2542;" d="M0 360v40h440v480h120v-480h440v-40h-440v-480h-120v480h-440z" />
<glyph unicode="&#x254b;" d="M0 320v120h440v440h120v-440h440v-120h-440v-440h-120v440h-440z" />
<glyph unicode="&#x25a0;" d="M100 -20v800h800v-800h-800z" />
<glyph unicode="&#x25a1;" d="M100 -20v800h800v-800h-800zM133 13h734v734h-734v-734z" />
<glyph unicode="&#x25b2;" d="M30 12l470 814l470 -814h-940z" />
<glyph unicode="&#x25b3;" d="M30 12l470 814l470 -814h-940zM87 45h826l-413 715z" />
<glyph unicode="&#x25bc;" d="M30 748h940l-470 -814z" />
<glyph unicode="&#x25bd;" d="M30 748h940l-470 -814zM87 715l413 -715l413 715h-826z" />
<glyph unicode="&#x25c6;" d="M12 380l488 488l488 -488l-488 -488z" />
<glyph unicode="&#x25c7;" d="M12 380l488 488l488 -488l-488 -488zM59 380l441 -441l441 441l-441 441z" />
<glyph unicode="&#x25cb;" d="M50 380q0 122 60 226t164 164t226 60t226 -60t164 -164t60 -226t-60 -226t-164 -164t-226 -60t-226 60t-164 164t-60 226zM83 380q0 -172 122.5 -294.5t294.5 -122.5t294.5 122.5t122.5 294.5t-122.5 294.5t-294.5 122.5t-294.5 -122.5t-122.5 -294.5z" />
<glyph unicode="&#x25ce;" d="M50 380q0 122 60 226t164 164t226 60t226 -60t164 -164t60 -226t-60 -226t-164 -164t-226 -60t-226 60t-164 164t-60 226zM83 380q0 -172 122.5 -294.5t294.5 -122.5t294.5 122.5t122.5 294.5t-122.5 294.5t-294.5 122.5t-294.5 -122.5t-122.5 -294.5zM203 380 q0 124 86.5 210.5t210.5 86.5t210.5 -86.5t86.5 -210.5t-86.5 -210.5t-210.5 -86.5t-210.5 86.5t-86.5 210.5zM230 380q0 -112 79 -191t191 -79t191 79t79 191t-79 191t-191 79t-191 -79t-79 -191z" />
<glyph unicode="&#x25cf;" d="M50 380q0 122 60 226t164 164t226 60t226 -60t164 -164t60 -226t-60 -226t-164 -164t-226 -60t-226 60t-164 164t-60 226z" />
<glyph unicode="&#x25ef;" d="M38 380q0 191 135.5 326.5t326.5 135.5t326.5 -135.5t135.5 -326.5t-135.5 -326.5t-326.5 -135.5t-326.5 135.5t-135.5 326.5zM66 380q0 -180 127 -307t307 -127t307 127t127 307t-127 307t-307 127t-307 -127t-127 -307z" />
<glyph unicode="&#x2605;" d="M38 482v2h351l110 337h2l110 -337h351v-2l-284 -206l111 -338h-2l-287 208l-287 -208h-2l111 338z" />
<glyph unicode="&#x2606;" d="M38 476v8h351l107 337h8l107 -337h351v-8l-284 -200l113 -335l-6 -5l-285 210l-285 -210l-6 5l113 335zM119 454l79 -51l163 -114l-60 -179l-38 -99l2 -1l86 66l149 110l149 -110l86 -66l2 1l-38 99l-60 179l163 114l79 51v2l-89 -5h-205l-62 194l-24 88h-2l-24 -88 l-62 -194h-206l-88 5v-2z" />
<glyph unicode="&#x2640;" d="M182 236v50h293v122q-78 11 -129.5 69t-51.5 137q0 86 60 146t146 60t146 -60t60 -146q0 -79 -51.5 -137t-129.5 -69v-122h293v-50h-293v-296h-50v296h-293zM343 614q0 -65 46 -111t111 -46t111 46t46 111t-46 111t-111 46t-111 -46t-46 -111z" />
<glyph unicode="&#x2642;" d="M119 205q0 85 60.5 146t145.5 61q71 0 127 -44l317 316h-282v49h366v-366h-49v283l-317 -317q45 -53 45 -128q0 -85 -61 -145.5t-146 -60.5t-145.5 60.5t-60.5 145.5zM169 205q0 -65 45.5 -110.5t110.5 -45.5t111 45.5t46 110.5t-46 111t-111 46t-110.5 -46t-45.5 -111z " />
<glyph unicode="&#x266a;" d="M250 -6q0 52 55 95t118 43q39 0 63 -13v721h25q0 -119 116 -220q129 -112 129 -225q0 -109 -84 -244h-26q63 132 63 210q0 86 -52 149.5t-131 81.5v-502q0 -75 -54.5 -122.5t-128.5 -47.5q-37 0 -65 19.5t-28 54.5z" />
<glyph unicode="&#x266d;" d="M350 -49v858h39v-475q35 64 92.5 104.5t120.5 40.5q64 0 99.5 -35t35.5 -88q0 -49 -19.5 -90.5t-50 -70.5t-72 -60t-81 -55.5t-82.5 -59t-72 -69.5h-10zM389 26q36 38 92 81.5t91 71t62.5 70t27.5 92.5q0 44 -23.5 66.5t-61.5 22.5q-44 0 -96 -38t-92 -113v-253z" />
<glyph unicode="&#x266f;" d="M233 180v66l136 20v206l-136 -20v67l136 19v243h38v-237l185 26v242h38v-236l136 19v-66l-136 -19v-206l136 19v-66l-136 -19v-254h-38v248l-185 -26v-253h-38v247zM407 272l185 26v206l-185 -26v-206z" />
<glyph unicode="&#x3001;" d="M59 176l41 37q106 -84 229 -223l-45 -38q-106 130 -225 224z" />
<glyph unicode="&#x3002;" d="M48 95q0 61 43 104t104 43t103.5 -43t42.5 -104t-42.5 -104t-103.5 -43t-104 43t-43 104zM87 95q0 -45 31.5 -76.5t76.5 -31.5t76.5 31.5t31.5 76.5q0 44 -31.5 76t-76.5 32t-76.5 -32t-31.5 -76z" />
<glyph unicode="&#x3003;" d="M248 149l159 475l68 -27l-193 -461zM525 149l160 475l67 -27l-193 -461z" />
<glyph unicode="&#x3005;" d="M115 238q106 99 188 246t129 300l53 -13q-37 -107 -79 -197h369l10 3l36 -20q-37 -100 -99 -209.5t-128 -192.5q103 -72 154 -128l-35 -41q-57 63 -166 139t-218 129l32 37q94 -46 191 -108q55 68 109 162t90 181h-369q-100 -198 -224 -318q-12 11 -43 30z" />
<glyph unicode="&#x3006;" d="M173 237l49 6q11 -121 14 -205q155 202 277 358q-143 107 -233 154l35 41q86 -50 231 -153q189 242 258 328l46 -31q-105 -125 -263 -326q139 -101 242 -194l-37 -45q-74 74 -238 196q-44 -57 -93.5 -121.5t-105.5 -137.5t-83 -108q-3 -4 -37 -55l-46 14q3 38 2 45 q-6 144 -18 234z" />
<glyph unicode="&#x3007;" d="M54 380q0 185 130.5 315.5t315.5 130.5t315.5 -130.5t130.5 -315.5t-130.5 -315.5t-315.5 -130.5t-315.5 130.5t-130.5 315.5zM103 380q0 -164 116.5 -280.5t280.5 -116.5t280.5 116.5t116.5 280.5t-116.5 280.5t-280.5 116.5t-280.5 -116.5t-116.5 -280.5z" />
<glyph unicode="&#x3008;" d="M604 380l303 462l42 -20l-290 -442l290 -442l-42 -20z" />
<glyph unicode="&#x3009;" d="M51 -62l290 442l-290 442l42 20l303 -462l-303 -462z" />
<glyph unicode="&#x300a;" d="M536 380l237 462l37 -13l-231 -449l231 -449l-37 -13zM685 380l237 462l37 -13l-231 -449l231 -449l-37 -13z" />
<glyph unicode="&#x300b;" d="M41 -69l231 449l-231 449l37 13l237 -462l-237 -462zM190 -69l231 449l-231 449l37 13l237 -462l-237 -462z" />
<glyph unicode="&#x300c;" d="M656 191v651h306v-46h-258v-605h-48z" />
<glyph unicode="&#x300d;" d="M38 -36h258v605h48v-651h-306v46z" />
<glyph unicode="&#x300e;" d="M599 179v663h363v-143h-205v-520h-158zM626 206h105v520h205v90h-310v-610z" />
<glyph unicode="&#x300f;" d="M38 61h205v520h158v-663h-363v143zM64 34v-90h310v610h-105v-520h-205z" />
<glyph unicode="&#x3010;" d="M670 -82v924h292v-5q-87 -73 -142.5 -193t-55.5 -264t55.5 -264t142.5 -193v-5h-292z" />
<glyph unicode="&#x3011;" d="M38 -77q87 73 142.5 193t55.5 264t-55.5 264t-142.5 193v5h292v-924h-292v5z" />
<glyph unicode="&#x3012;" d="M165 447v65h670v-65h-299v-437h-72v437h-299zM165 648v65h670v-65h-670z" />
<glyph unicode="&#x3013;" d="M100 -20v300h800v-300h-800zM100 480v300h800v-300h-800z" />
<glyph unicode="&#x3014;" d="M724 40v680l205 134l24 -36l-182 -117v-642l182 -117l-24 -36z" />
<glyph unicode="&#x3015;" d="M47 -58l182 117v642l-182 117l24 36l205 -134v-680l-205 -134z" />
<glyph unicode="&#x3041;" d="M194 107q0 81 60 154t146 112q2 53 10 127q-20 -1 -58 -1q-66 0 -130 6l-1 48q58 -10 131 -10q42 0 63 1q2 16 4.5 41t3.5 34q2 24 2 33h55q-4 -10 -8 -35q-6 -36 -11 -71q159 6 292 33l1 -46q-145 -23 -299 -31q-6 -51 -9 -111q77 25 143 25q13 0 37 -2l6 21q6 17 8 36 l48 -11q-4 -15 -11 -33l-7 -20q81 -19 124.5 -72.5t43.5 -123.5q0 -89 -67 -156.5t-205 -88.5l-28 43q109 10 181 65t72 141q0 56 -36 97t-100 55q-67 -171 -184 -272q7 -28 20 -67l-46 -14q-7 20 -15 50q-81 -52 -143 -52q-42 0 -67.5 25t-25.5 70zM239 111q0 -53 55 -53 q54 0 126 52q-22 103 -22 196v19q-66 -36 -112.5 -95t-46.5 -119zM443 308q0 -81 17 -164q100 94 151 229q-6 1 -20 1q-75 0 -147 -29q-1 -12 -1 -37z" />
<glyph unicode="&#x3042;" d="M123 131q0 92 72.5 181t176.5 136q5 91 12 159q-26 -1 -76 -1q-77 0 -151 6l-2 52q70 -12 153 -12q54 0 81 1q1 13 3.5 32.5t4 33.5t2.5 24q2 30 2 40l58 -2q-5 -12 -10 -38q-9 -49 -13 -88q202 10 352 42l1 -52q-168 -28 -359 -36q-7 -78 -11 -142q91 31 176 31 q16 0 46 -2q3 9 9 29q6 22 7 41l55 -14q-3 -6 -7.5 -20t-6.5 -19l-9 -25q95 -23 148.5 -85.5t53.5 -144.5q0 -111 -81 -190t-242 -105l-30 45q133 14 217 80.5t84 172.5q0 66 -43.5 116.5t-121.5 68.5q-85 -210 -225 -331q10 -41 23 -83l-48 -15q-8 27 -18 65 q-93 -64 -175 -64q-48 0 -78 29.5t-30 83.5zM174 136q0 -67 63 -67q71 0 157 64q-25 120 -25 222q0 28 1 43q-84 -43 -140 -117.5t-56 -144.5zM416 357q0 -86 20 -188q128 116 191 284q-10 1 -30 1q-85 0 -180 -35q-1 -21 -1 -62z" />
<glyph unicode="&#x3043;" d="M193 565l57 -1q-5 -55 -5 -74q0 -160 13 -242q13 -92 45 -148.5t72 -56.5q30 0 59.5 50t49.5 124l42 -40q-35 -99 -71.5 -144t-79.5 -45q-57 0 -102 61t-63 191q-13 86 -13 250q0 59 -4 75zM639 520l49 17q59 -72 97.5 -188t47.5 -210l-51 -21q-8 98 -46 214.5t-97 187.5 z" />
<glyph unicode="&#x3044;" d="M142 688l63 -2q-4 -35 -6 -81q-4 -118 8 -248q14 -136 54 -215.5t97 -79.5q38 0 73.5 58t59.5 147l42 -43q-76 -221 -176 -221q-70 0 -125 83.5t-75 259.5q-10 91 -10 261q0 57 -5 81zM683 638l50 18q65 -88 111.5 -215.5t59.5 -257.5l-52 -21q-13 140 -58.5 265.5 t-110.5 210.5z" />
<glyph unicode="&#x3045;" d="M254 386q25 1 66 11q10 2 48.5 11t64.5 14.5t64.5 11t68.5 5.5q89 0 144 -47t55 -131q0 -123 -97.5 -201.5t-268.5 -106.5l-26 46q154 20 247.5 87t93.5 176q0 65 -43.5 97.5t-106.5 32.5q-81 0 -232 -42q-11 -3 -22.5 -7.5l-23 -9t-15.5 -5.5zM350 578l9 47 q65 -13 171.5 -25t171.5 -14l-8 -48q-60 3 -170.5 15.5t-173.5 24.5z" />
<glyph unicode="&#x3046;" d="M182 479q26 2 81 14q10 2 44.5 11t57.5 14t58 11.5t68.5 10t65.5 3.5q102 0 167.5 -55t65.5 -152q0 -79 -33 -143t-92.5 -109t-136.5 -74.5t-172 -44.5l-32 49q188 25 300.5 106.5t112.5 217.5q0 70 -51 113t-133 43q-28 0 -57.5 -3t-51 -6t-50.5 -10t-42.5 -10.5 t-41.5 -11.5t-34 -10q-22 -6 -76 -26zM298 716l9 51q74 -17 202.5 -31t204.5 -16l-9 -51q-231 15 -407 47z" />
<glyph unicode="&#x3047;" d="M199 0q11 9 29 25q43 43 181.5 178.5t182.5 179.5q-50 -5 -274 -23q-44 -4 -63 -8l-4 56q27 -2 63 0q44 2 156 10.5t151 13.5q22 4 30 7l32 -33q-4 -3 -15 -11.5t-14 -11.5q-16 -14 -79 -74t-93 -90q11 2 23 -1q58 -1 76 -68q15 -56 28 -93q15 -44 74 -44q83 0 150 19 l-3 -53q-69 -13 -152 -13q-93 0 -114 71q-4 12 -13.5 49t-13.5 47q-9 25 -20.5 37t-34.5 12q-29 0 -60 -28q-26 -23 -86.5 -87.5t-88.5 -100.5zM344 580l8 47q55 -16 159 -29.5t162 -16.5l-7 -48q-55 4 -159 19t-163 28z" />
<glyph unicode="&#x3048;" d="M128 9q23 18 38 34q343 343 445 442q-50 -4 -190 -15.5t-151 -12.5q-33 -2 -76 -8l-5 59q23 -2 78 -2q47 2 180.5 12.5t186.5 17.5q28 4 42 10l33 -38q-8 -6 -27.5 -22t-21.5 -18q-7 -7 -52.5 -50t-85.5 -82t-60 -60q7 1 19 1.5t17 -0.5q63 -3 86 -73q1 -5 14.5 -54 t20.5 -70q10 -31 31 -44.5t64 -13.5q103 0 183 23l-3 -57q-79 -15 -181 -15q-58 0 -92 18t-48 66q-5 14 -17.5 61t-18.5 64q-21 55 -64 55q-42 0 -78 -34q-35 -32 -108.5 -109.5t-106.5 -120.5zM305 725l9 49q74 -18 192 -34t192 -21l-8 -49q-186 17 -385 55z" />
<glyph unicode="&#x3049;" d="M185 82q0 55 55.5 104.5t123.5 78.5v24q0 42 2 138q-35 -4 -75 -4q-33 0 -95 5l-1 51q57 -8 96 -8q37 0 76 3q2 86 2 95q0 31 -3 47h54q-1 -6 -4 -46q-1 -22 -3 -92q106 11 180 35l1 -49q-99 -22 -182 -33q-2 -94 -2 -139v-9q94 33 189 33q90 0 147.5 -43t57.5 -115 q0 -70 -48.5 -119.5t-139.5 -66.5q-28 -6 -89 -9l-16 47q52 -2 95 6q66 12 108 48.5t42 93.5t-45 86.5t-112 29.5q-90 0 -188 -36q0 -36 2 -105t2 -90q0 -83 -67 -83q-47 0 -105 39t-58 83zM233 88q0 -28 37.5 -54t66.5 -26q32 0 32 41q0 17 -1.5 76.5t-2.5 92.5 q-53 -25 -92.5 -61t-39.5 -69zM665 506l26 40q118 -67 183 -125l-30 -40q-27 28 -82 66t-97 59z" />
<glyph unicode="&#x304a;" d="M122 136q0 55 63 113t151 96v47q0 48 2 158q-52 -5 -84 -5q-62 0 -119 5l-2 52q67 -9 120 -9q24 0 86 4q3 93 3 131q0 33 -5 60h58q-2 -21 -4 -58q0 -41 -3 -128q133 17 215 43l1 -52q-88 -23 -217 -38q-3 -82 -3 -159v-33q123 43 234 43q104 0 169 -52t65 -134 q0 -170 -206 -219q-42 -9 -118 -12l-19 51q84 0 114 7q76 13 127.5 56t51.5 116q0 67 -53.5 104t-130.5 37q-117 0 -233 -46q0 -41 2 -121.5t2 -106.5q0 -101 -76 -101q-55 0 -123 47.5t-68 103.5zM175 138q0 -38 44.5 -69.5t83.5 -31.5q37 0 37 53q0 24 -1.5 98.5 t-1.5 106.5q-70 -31 -116 -75t-46 -82zM693 638l26 39q53 -29 118.5 -73t97.5 -74l-28 -42q-63 64 -214 150z" />
<glyph unicode="&#x304b;" d="M94 547q40 -1 78 0q11 0 165 12q27 122 27 218l61 -5q-1 -10 -8 -45q-14 -97 -28 -163q106 8 127 8q69 0 110 -33.5t41 -122.5q0 -98 -15 -197.5t-44 -156.5q-22 -46 -54 -62t-81 -16q-51 0 -115 15l-8 56q66 -21 122 -21q34 0 56 10.5t38 44.5q50 109 50 321 q0 67 -27.5 91t-81.5 24q-25 0 -129 -8q-81 -324 -211 -534l-54 22q70 93 127 240t85 267q-124 -12 -148 -14q-8 -1 -35.5 -4.5t-40.5 -5.5zM719 637l47 22q43 -53 99 -160.5t86 -184.5l-49 -25q-27 81 -81 187t-102 161z" />
<glyph unicode="&#x304c;" d="M77 546q39 -1 78 0q13 0 164 12q27 122 28 218l61 -6q-6 -28 -8 -44q-14 -98 -29 -163q106 8 127 8q69 0 110 -33.5t41 -122.5q0 -99 -14.5 -198.5t-43.5 -156.5q-22 -45 -54.5 -61t-80.5 -16q-58 0 -116 15l-8 56q69 -22 123 -22q33 0 55 11t39 45q49 105 49 320 q0 68 -27.5 92t-81.5 24q-25 0 -129 -8q-77 -321 -211 -534l-53 22q69 92 126 238.5t87 268.5q-36 -4 -91 -9.5t-58 -5.5q-34 -3 -77 -9zM702 625l46 23q44 -53 100 -160t86 -184l-49 -25q-26 80 -80.5 186t-102.5 160zM740 781l39 17q44 -61 83 -138l-39 -18 q-37 79 -83 139zM846 818l38 17q47 -62 86 -137l-39 -18q-43 87 -85 138z" />
<glyph unicode="&#x304d;" d="M176 460q229 -21 429 5q-43 99 -46 105l-21 48q-169 -17 -353 1l-3 49q185 -21 338 -6q-10 20 -21 47q-13 31 -30 61l59 13q12 -41 41 -115q112 16 202 47l10 -48q-85 -26 -194 -43l17 -40q25 -57 50 -112q96 16 186 50l11 -48q-79 -26 -178 -45q69 -146 93 -191l-27 -33 q-77 12 -180 25l5 41q31 -4 81 -9.5t57 -6.5q-27 56 -77 166q-178 -26 -447 -10zM200 142q0 47 23 118l50 -4q-23 -61 -23 -104q0 -135 218 -135q141 0 233 22l-1 -53q-103 -19 -229 -19q-130 0 -200.5 44.5t-70.5 130.5z" />
<glyph unicode="&#x304e;" d="M132 457q227 -22 429 4q-9 21 -47 106l-20 47q-161 -16 -353 1l-4 49q189 -20 338 -5q-10 25 -20 46q-17 38 -31 61l60 14q12 -41 41 -115q103 12 184 42l9 -48q-75 -24 -175 -39l17 -39q25 -57 50 -112q93 17 186 49l11 -47q-78 -27 -178 -45q52 -114 92 -191l-26 -33 q-39 6 -180 24l4 42q67 -9 139 -17q-21 44 -77 167q-173 -25 -448 -11zM157 139q0 48 22 118l50 -5q-23 -55 -23 -103q0 -136 218 -136q136 0 232 22l-1 -53q-105 -18 -229 -18q-129 0 -199 44.5t-70 130.5zM713 776l37 17q49 -68 84 -140l-38 -19q-39 83 -83 142zM816 813 l36 17q44 -57 87 -139l-37 -18q-47 89 -86 140z" />
<glyph unicode="&#x304f;" d="M229 359.5q-12 28.5 3 54.5t59 64q23 20 90 74.5t123 102.5t86 79q30 30 45 55l50 -44q-9 -7 -31 -26.5t-26 -23.5q-59 -53 -296 -247q-49 -41 -48.5 -64t52.5 -65q86 -69 197 -165t177 -163l-45 -40q-8 10 -28.5 30t-28.5 30q-72 79 -322 283q-45 37 -57 65.5z" />
<glyph unicode="&#x3050;" d="M217 359.5q-12 28.5 3 54.5t59 64q23 20 90 74.5t123 102.5t86 79q30 30 45 55l50 -44q-9 -7 -31 -26.5t-26 -23.5q-59 -53 -296 -247q-49 -41 -48.5 -64t52.5 -65q86 -69 197 -165t177 -163l-45 -40q-8 10 -28.5 30t-28.5 30q-72 79 -322 283q-45 37 -57 65.5zM593 546 l37 17q31 -46 88 -145l-40 -17q-47 87 -85 145zM707 589l37 18q43 -55 91 -142l-39 -17q-46 80 -89 141z" />
<glyph unicode="&#x3051;" d="M138 311q0 45 2.5 92t8 93.5t10 78t11 75.5t8.5 56q4 27 4 54l62 -6q-2 -6 -13 -54q-76 -347 -25 -569q16 59 54 171l33 -19q-51 -151 -62 -205q-5 -25 -4 -42q3 -27 3 -29l-43 -6q-49 155 -49 310zM404 504v54q69 -12 165 -12q73 0 132 4q-3 99 -6 164q-2 22 -9 53h64 q-1 -3 -3 -52q-1 -26 3 -162q100 8 168 26v-54q-73 -15 -167 -21v-29v-28v-70t-2 -63.5t-5.5 -62.5t-10.5 -56.5t-17 -56t-26 -50t-36.5 -49t-48 -43t-61.5 -41.5l-49 38q50 21 85 52q26 21 45.5 46t32.5 46t22 56.5t13 57t6.5 69t2.5 71v84.5v26q-59 -4 -133 -4 q-95 0 -165 7z" />
<glyph unicode="&#x3052;" d="M129 293q0 72 7 142t20 155.5t14 91.5q2 13 5 53l61 -6q-3 -11 -13 -53q-75 -344 -25 -562q14 48 55 171l32 -19q-47 -138 -62 -205q-4 -29 -3 -43q0 -4 1 -14t1 -14l-43 -6q-50 158 -50 309zM396 484v54q70 -12 166 -12q58 0 118 3q-3 96 -6 161q-2 19 -9 53h64 q-3 -27 -3 -52q0 -9 0.5 -34.5t1.5 -62t1 -62.5q103 8 182 28l-1 -55q-71 -14 -180 -22v-26q0 -176 -10 -239q-23 -148 -128 -233q-30 -25 -69 -47l-49 38q50 20 85 51q23 19 41 38t31 44.5t21.5 43t14 52.5t8.5 52t4.5 62.5t1.5 63.5v74v23q-60 -3 -120 -3q-95 0 -165 7z M777 759l37 12q35 -68 60 -138l-39 -14q-29 84 -58 140zM875 788l37 12q30 -54 61 -135l-38 -15q-38 100 -60 138z" />
<glyph unicode="&#x3053;" d="M189 168q0 56 21 136l53 -6q-22 -66 -22 -119q0 -63 65 -100.5t187 -37.5q223 0 334 38l1 -54q-114 -35 -334 -35q-142 0 -223.5 46t-81.5 132zM247 634v52q103 -13 257 -13q119 0 255 14v-52q-156 -12 -255 -12q-136 0 -257 11z" />
<glyph unicode="&#x3054;" d="M173 158q0 47 21 135l53 -6q-22 -64 -22 -119q0 -63 65 -100.5t188 -37.5q224 0 333 39l1 -55q-114 -35 -334 -35q-142 0 -223.5 46t-81.5 133zM231 623v52q103 -13 258 -13q117 0 255 14v-52q-158 -12 -255 -12q-137 0 -258 11zM737 775l39 17q47 -66 84 -138l-40 -19 q-36 78 -83 140zM844 812l37 17q53 -71 87 -137l-39 -18q-43 85 -85 138z" />
<glyph unicode="&#x3055;" d="M165 610q208 -27 405 -4q-10 25 -39 88q-19 44 -38 76l59 12q32 -83 69 -169q102 15 207 49l10 -52q-97 -26 -198 -42q101 -220 137 -291l-33 -32q-70 16 -193 26l6 43q91 -9 155 -18q-104 223 -121 264q-193 -23 -424 -3zM189 159q0 61 27 145l53 -5q-29 -64 -29 -128 q0 -151 225 -151q137 0 255 27l-1 -55q-130 -22 -255 -22q-131 0 -203 50.5t-72 138.5z" />
<glyph unicode="&#x3056;" d="M165 603q207 -27 405 -4q-6 13 -12 27t-14.5 32t-13.5 29q-22 51 -38 76l59 11q32 -83 69 -168q115 19 207 49l10 -52q-97 -26 -198 -42q101 -220 137 -291l-33 -32q-63 14 -193 25l6 43q69 -5 155 -17q-104 223 -121 264q-193 -23 -424 -3zM188 152q0 56 27 145l53 -5 q-29 -64 -29 -129q0 -150 225 -150q137 0 255 27l-1 -55q-130 -22 -255 -22q-131 0 -203 50.5t-72 138.5zM729 801l38 17q53 -76 83 -138l-38 -18q-41 82 -83 139zM835 838l38 17q53 -73 86 -137l-39 -18q-39 80 -85 138z" />
<glyph unicode="&#x3057;" d="M253 172q0 82 5.5 272.5t5.5 243.5q0 54 -6 80h66q-6 -34 -8 -80q-12 -345 -12 -520q0 -154 178 -154q68 0 126.5 17t102.5 49t74.5 64.5t60.5 75.5l36 -44q-159 -214 -403 -214q-226 0 -226 210z" />
<glyph unicode="&#x3058;" d="M241 165q0 83 5 273.5t5 242.5q0 54 -6 80h66q-4 -21 -8 -80q-12 -345 -12 -520q0 -154 178 -154q69 0 127 17t102 49t74.5 64.5t60.5 75.5l36 -44q-158 -213 -403 -213q-225 0 -225 209zM559 663l40 18q63 -90 95 -160l-40 -19q-44 92 -95 161zM687 711l38 18 q55 -73 99 -156l-41 -20q-46 92 -96 158z" />
<glyph unicode="&#x3059;" d="M105 635q401 11 452 12q0 49 -2 85q0 26 -5 49h61q-3 -24 -3 -49q-1 -11 -1.5 -40.5t-0.5 -43.5h35q77 0 173.5 -0.5t106.5 -0.5l-1 -50q-69 4 -279 4h-35q0 -28 0.5 -87t1.5 -83q30 -48 30 -122q0 -259 -282 -346l-46 44q225 53 267 217q-37 -48 -102 -48 q-68 0 -113 42.5t-45 115.5q0 67 48 116t113 49q47 0 81 -20q0 14 -0.5 56t-0.5 66q-278 -4 -452 -19zM366 335q0 -53 32.5 -83t81.5 -30t76 36t27 101q-18 94 -104 94q-46 0 -79.5 -33t-33.5 -85z" />
<glyph unicode="&#x305a;" d="M77 626q401 11 452 12q0 49 -2 85q0 28 -5 48h61q-1 -5 -2.5 -25t-1.5 -23q-1 -19 -1 -84h35q194 0 280 -2l-1 -49q-69 4 -279 4h-35q0 -78 2 -170q30 -48 30 -122q0 -259 -282 -346l-47 44q224 53 268 216q-39 -47 -102 -47q-68 0 -113.5 42.5t-45.5 115.5 q0 67 48 115.5t114 48.5q47 0 81 -20q0 14 -0.5 56.5t-0.5 66.5q-280 -4 -452 -19zM338 325q0 -53 32.5 -82.5t81.5 -29.5t76 36t27 101q-18 94 -104 94q-46 0 -79.5 -33.5t-33.5 -85.5zM687 772l39 17q42 -58 78 -122l-40 -20q-43 78 -77 125zM801 796l39 17 q42 -59 78 -121l-41 -19q-42 78 -76 123z" />
<glyph unicode="&#x305b;" d="M54 484q46 0 91 5q16 1 63.5 5.5t69.5 6.5v159q0 41 -4 69h57q-3 -26 -3 -67l-1 -156q271 26 343 32q1 52 1 158q0 39 -5 64h57q-3 -24 -3 -63q-1 -24 -1.5 -77.5t-0.5 -77.5q108 7 129 8q14 1 36.5 2.5t30.5 1.5v-54h-68q-29 0 -129 -6q-7 -171 -16 -213 q-5 -29 -21 -40.5t-48 -11.5q-58 0 -120 14l1 47q59 -13 103 -13q21 0 30 5.5t11 22.5q9 55 13 186q-148 -11 -344 -31q0 -237 1 -255q3 -80 13 -103q19 -43 99 -52q30 -3 73 -3q170 0 294 21l-2 -54q-160 -17 -291 -17q-54 0 -91 4t-63 15.5t-41 25t-23.5 39.5t-11.5 51 t-4 67q-1 43 -1 256q-83 -9 -129 -14q-13 -2 -89 -13z" />
<glyph unicode="&#x305c;" d="M35 470q37 0 91 4q28 2 133 13v159q0 41 -4 68h57q-3 -26 -3 -67l-1 -156q177 19 343 32q1 53 1 158q0 38 -5 65h57q-3 -26 -3 -64q-1 -23 -1.5 -77t-0.5 -78q68 6 129 9q45 2 67 4v-55q-14 1 -68 1q-66 -2 -129 -7q-8 -171 -16 -213q-5 -28 -21.5 -39.5t-47.5 -11.5 q-49 0 -120 13l1 48q63 -14 103 -14q21 0 30 5.5t11 23.5q9 55 13 185q-148 -11 -344 -31q0 -237 1 -255q3 -80 13 -103q19 -43 99 -52q30 -3 73 -3q164 0 294 22l-2 -55q-151 -16 -291 -16q-54 0 -91 4t-63 15.5t-41 25t-23.5 39t-11.5 51t-4 67.5t-1 255q-83 -9 -129 -14 q-80 -11 -89 -12zM761 744l36 11q36 -70 63 -141l-39 -14q-30 85 -60 144zM858 774l37 11q37 -68 64 -139l-39 -15q-32 91 -62 143z" />
<glyph unicode="&#x305d;" d="M113 388q32 4 94 12t74 9q134 95 355 291q-22 -1 -145.5 -7.5t-145.5 -8.5q-55 -4 -69 -6l-3 56q30 -3 71 -3q37 0 156.5 5.5t156.5 9.5q26 3 45 8l35 -37q-15 -8 -39 -27q-229 -192 -331 -273q303 32 501 32v-49q-166 7 -248 -6q-78 -12 -141 -72.5t-63 -133.5 q0 -76 50 -111.5t131 -48.5q72 -10 138 -4l-11 -52q-175 -7 -266.5 47t-91.5 163q0 67 44 123t97 81q-215 -19 -389 -47z" />
<glyph unicode="&#x305e;" d="M83 388q31 3 93 11t75 10q134 95 355 291q-22 -1 -145.5 -7.5t-145.5 -8.5q-55 -4 -69 -6l-3 56q30 -3 71 -3q37 0 156 5.5t156 9.5q28 3 46 8l35 -37q-15 -8 -39 -27q-229 -192 -331 -273q303 32 500 32v-49q-166 7 -247 -6q-78 -12 -141 -72.5t-63 -133.5 q0 -76 50 -111.5t131 -48.5q71 -10 138 -4l-11 -52q-176 -7 -267.5 47t-91.5 163q0 67 44.5 123.5t97.5 80.5q-218 -19 -389 -47zM682 627l37 18q52 -75 80 -133l-38 -18q-38 78 -79 133zM786 665l35 17q54 -72 83 -131l-37 -19q-39 77 -81 133z" />
<glyph unicode="&#x305f;" d="M111 610q57 -8 115 -8q52 0 115 6q14 71 19 104q6 43 3 70l64 -5q-9 -35 -15 -70q-2 -9 -19 -94q110 13 203 38v-53q-107 -24 -213 -34q-14 -67 -32 -134q-29 -114 -73.5 -246t-80.5 -205l-59 19q42 73 87 198.5t76 243.5q12 43 29 119q-63 -5 -106 -5q-63 0 -112 4z M481 136q0 40 14 108l50 -5q-15 -53 -15 -93q0 -46 36.5 -73.5t145.5 -27.5q100 0 187 19l-2 -54q-91 -14 -186 -14q-230 0 -230 140zM540 425v50q78 8 175 8q102 0 170 -8l-2 -51q-80 11 -165 11q-92 0 -178 -10z" />
<glyph unicode="&#x3060;" d="M81 594q50 -7 115 -7q45 0 115 5q14 71 19 104q6 43 3 70l64 -5q-10 -36 -15 -69l-9.5 -47.5t-9.5 -46.5q117 14 203 37v-53q-107 -24 -213 -34q-14 -67 -32 -134q-29 -113 -73.5 -245t-80.5 -206l-59 19q42 73 87 198.5t76 243.5q14 49 29 119q-63 -5 -106 -5 q-63 0 -112 4zM451 120q0 40 14 108l50 -5q-15 -53 -15 -93q0 -46 36.5 -73.5t145.5 -27.5q100 0 187 19l-2 -54q-91 -14 -186 -14q-230 0 -230 140zM510 409v50q78 8 175 8q102 0 170 -8l-2 -51q-87 12 -165 12q-84 0 -178 -11zM712 715l38 17q48 -68 83 -137l-38 -19 q-37 76 -83 139zM818 753l37 17q52 -69 87 -137l-39 -18q-41 81 -85 138z" />
<glyph unicode="&#x3061;" d="M122 589v52q82 -15 177 -15h32q7 35 13 78q5 45 4 71l60 -3q-10 -35 -15 -73q-8 -47 -13 -71q226 9 396 47v-52q-182 -34 -406 -43q-40 -190 -72 -269q67 53 136 76t160 23q115 0 177.5 -51.5t62.5 -135.5q0 -96 -64.5 -157t-174.5 -81t-257 -4l-14 52q121 -13 223 -3.5 t169 59.5t67 132q0 64 -50.5 104t-142.5 40q-93 0 -173 -30.5t-131 -90.5q-15 -16 -32 -47l-48 19q68 135 116 363h-22q-85 0 -178 10z" />
<glyph unicode="&#x3062;" d="M93 620q82 -15 177 -15h31q7 34 14 88q5 45 4 71l60 -3q-6 -21 -15 -73q-2 -11 -7.5 -40.5t-7.5 -40.5q227 8 395 46v-52q-186 -33 -405 -42q-41 -189 -70 -259q67 53 136 76t161 23q115 0 177.5 -51.5t62.5 -135.5q0 -96 -64.5 -157t-175 -81t-257.5 -4l-13 52 q88 -14 170.5 -8t146.5 26t103 64t39 106q0 64 -50.5 104t-142.5 40q-93 0 -173 -31t-131 -90q-20 -22 -33 -47l-47 19q66 133 113 353h-20q-84 0 -177 10zM720 781l39 17q50 -72 83 -138l-39 -18q-35 74 -83 139zM827 818l37 17q56 -76 86 -137l-38 -18q-46 89 -85 138z " />
<glyph unicode="&#x3063;" d="M174 387q38 8 85 23q6 2 50.5 17t72 23t71 19.5t82 17.5t70.5 6q100 0 165.5 -56.5t65.5 -149.5q0 -72 -34 -127t-96 -89.5t-138.5 -53.5t-169.5 -25l-21 51q83 3 152.5 17t129 41.5t93 75t33.5 111.5q0 68 -50.5 113t-131.5 45q-36 0 -84.5 -9.5t-100 -26t-91.5 -30.5 t-82 -30t-48 -18z" />
<glyph unicode="&#x3064;" d="M88 507q30 6 102 28l61.5 20.5t86.5 27.5t86.5 24t100 21t88.5 7q120 0 200 -66.5t80 -180.5q0 -88 -42.5 -156t-118 -109.5t-167.5 -64.5t-202 -29l-22 54q100 3 185.5 20.5t157 52t112.5 94.5t41 139q0 85 -60.5 141.5t-164.5 56.5q-48 0 -109.5 -11.5t-124 -31 t-109.5 -36t-98 -36.5t-58 -23z" />
<glyph unicode="&#x3065;" d="M77 489q33 5 101 27q11 3 62 20.5t86 27.5t87 24t99.5 21t88.5 7q120 0 200 -66.5t80 -179.5q0 -71 -28.5 -129.5t-77 -98.5t-117 -68.5t-144 -43.5t-162.5 -20l-22 54q79 3 149 14t134.5 34t111 57t74 85.5t27.5 115.5q0 86 -60.5 142t-164.5 56q-49 0 -110 -11.5 t-124.5 -31.5t-109.5 -36t-98 -36.5t-57 -22.5zM711 756l37 17q52 -72 84 -139l-38 -18q-36 74 -83 140zM817 793l37 17q53 -70 86 -137l-38 -18q-46 89 -85 138z" />
<glyph unicode="&#x3066;" d="M97 650q45 1 83 5q209 23 437 42q153 14 259 17v-52q-136 2 -195 -17q-108 -38 -172.5 -138t-64.5 -196q0 -75 32.5 -131t86.5 -86t112.5 -44.5t122.5 -16.5l-18 -52q-67 2 -132 20.5t-123.5 55t-94.5 99.5t-36 144q0 114 60.5 209.5t145.5 140.5q-12 -1 -134 -13.5 t-219.5 -24.5t-143.5 -21z" />
<glyph unicode="&#x3067;" d="M88 642q46 1 84 5q11 1 89 9t172.5 17t175.5 16q181 15 259 17v-53q-136 2 -195 -17q-108 -37 -172.5 -137t-64.5 -196q0 -61 22 -109.5t57 -79t82.5 -51t94.5 -29t97 -10.5l-18 -51q-67 1 -132 20t-123 55t-94 99.5t-36 143.5q0 115 60 210.5t145 139.5 q-419 -43 -496 -59zM690 503l36 16q50 -70 85 -141l-38 -18q-38 79 -83 143zM799 542l35 17q50 -67 88 -141l-37 -19q-35 74 -86 143z" />
<glyph unicode="&#x3068;" d="M197 177q0 139 175 255q-55 96 -147 310l52 22q62 -168 137 -304q58 35 161 88.5t118 62.5q44 27 58 39l29 -47q-20 -12 -62 -35q-6 -3 -82 -41.5t-132.5 -70t-101.5 -61.5q-153 -100 -153 -212q0 -68 64 -107.5t186 -39.5q194 0 314 32l-1 -58q-126 -24 -310 -24 q-141 0 -223 47t-82 144z" />
<glyph unicode="&#x3069;" d="M182 166q0 139 175 254q-55 96 -147 310l52 22q60 -164 138 -304q42 26 90 52.5t98.5 52t66.5 34.5q45 27 57 38l27 -47q-33 -20 -61 -34q-17 -9 -78.5 -40.5t-114.5 -61t-98 -59.5q-153 -100 -153 -212q0 -68 64 -107t186 -39q198 0 314 31v-58q-138 -24 -311 -24 q-141 0 -223 47.5t-82 144.5zM724 745l38 17q53 -77 83 -139l-38 -18q-39 81 -83 140zM830 782l38 17q50 -66 85 -137l-38 -18q-46 89 -85 138z" />
<glyph unicode="&#x306a;" d="M109 616q51 -6 116 -6q68 0 122 5q32 108 34 175l60 -6q-3 -10 -17 -69.5t-24 -92.5q86 11 166 38l2 -51q-91 -24 -184 -37q-37 -106 -97.5 -222t-120.5 -194l-52 28q60 68 120.5 177t96.5 205q-48 -4 -107 -4q-43 0 -111 2zM336 92q0 64 54.5 100.5t130.5 36.5 q56 0 111 -13q-1 29 -5 125t-5 139h53q-3 -38 -1 -95q0 -6 8 -184q99 -35 204 -122l-28 -44q-89 79 -174 115q1 -21 1 -56q0 -57 -42.5 -94.5t-121.5 -37.5q-82 0 -133.5 32.5t-51.5 97.5zM385 96q0 -86 131 -86q61 0 90 28t29 68q0 39 -1 62q-54 17 -113 17q-60 0 -98 -25 t-38 -64zM669 601l25 40q53 -24 121 -63.5t103 -66.5l-30 -44q-34 32 -98 70t-121 64z" />
<glyph unicode="&#x306b;" d="M140 293q0 50 6 114.5t12 104t17 106t12 74.5q5 35 5 55l60 -5q-12 -47 -14 -54q-50 -243 -50 -389q0 -77 11 -179q25 72 62 168l32 -24q-58 -149 -70 -209q-5 -25 -4 -43q0 -3 1 -14.5t2 -16.5l-47 -4q-35 126 -35 316zM413 163q0 36 15 109l48 -5q-15 -55 -15 -95 q0 -100 183 -100q133 0 243 26l1 -55q-100 -20 -241 -20q-234 0 -234 140zM461 606v54q79 -14 199.5 -13t195.5 13v-54q-73 -9 -197 -9t-198 9z" />
<glyph unicode="&#x306c;" d="M91 169q0 131 80 244q19 29 45 57q-15 40 -34 94q-18 60 -34 95l51 20q16 -73 53 -173q114 102 256 123q3 20 7 64q3 42 -1 78l62 -2q0 -1 -10 -73l-7 -62q8 1 26 1q118 0 202.5 -76t84.5 -206q0 -109 -25 -185q46 -34 104 -98l-33 -41q-46 56 -90 92q-59 -121 -187 -121 q-67 0 -106 32t-39 87q0 50 42.5 85.5t105.5 35.5q83 0 159 -44q19 69 19 156q0 99 -63.5 168.5t-176.5 69.5q-20 0 -29 -1q-21 -139 -52 -226q-53 -146 -130.5 -240.5t-165.5 -94.5q-49 0 -81.5 39t-32.5 102zM139 175q0 -43 19.5 -69.5t45.5 -26.5q75 0 152 106 q-43 58 -77 130q-17 36 -45 107q-24 -31 -27 -37q-68 -106 -68 -210zM269 461q24 -60 47 -111q33 -70 69 -121q40 68 72 153q29 79 45 201q-133 -23 -233 -122zM543 122q0 -35 25.5 -55.5t71.5 -20.5q100 0 147 105q-68 45 -142 45q-49 0 -75.5 -22t-26.5 -52z" />
<glyph unicode="&#x306d;" d="M66 141q43 54 116 155t107 155q1 18 3.5 56t4.5 57q-23 -3 -96.5 -13t-104.5 -14l-5 55q18 -1 52 1q92 8 157 19q1 20 2.5 46.5t2.5 40t1 18.5q0 42 -3 64l64 -3q-6 -31 -19 -156l10 3l23 -25q-4 -6 -18.5 -29t-21.5 -35q-4 -49 -5 -71q195 174 330 174q94 0 143.5 -77.5 t49.5 -198.5q0 -102 -14 -169q55 -37 115 -101l-29 -42q-51 56 -99 92q-47 -140 -188 -140q-71 0 -117.5 32t-46.5 97q0 55 45 91t114 36q85 0 161 -38q10 59 10 157q0 99 -43.5 157t-109.5 58t-159 -58t-166 -135q-5 -88 -5 -146q0 -164 3 -229l3 -51h-58q3 15 3 50 q1 49 1.5 118t0.5 117q0 16 4 102q-64 -96 -184 -265zM526 135q0 -42 32 -63.5t83 -21.5q111 0 147 122q-74 43 -154 43q-43 0 -75.5 -23.5t-32.5 -56.5z" />
<glyph unicode="&#x306e;" d="M105 311q0 103 56 193t153.5 144t211.5 54q164 0 266 -102t102 -249q0 -154 -99 -251t-270 -117l-30 49q48 3 80 11q51 11 96.5 34.5t84.5 60t62.5 92t23.5 122.5q0 123 -80 209t-217 93q-20 -164 -59 -294q-87 -300 -218 -300q-62 0 -112.5 69t-50.5 182zM155 315 q0 -95 37 -146.5t78 -51.5q38 0 82.5 62t83.5 192q40 131 56 282q-146 -13 -241.5 -116.5t-95.5 -221.5z" />
<glyph unicode="&#x306f;" d="M131 288q0 41 3 87.5t10 100t11.5 85t13 86.5t9.5 59q5 35 5 55l59 -6q-7 -19 -13 -53q-51 -237 -51 -408q0 -81 12 -178q27 81 63 169l31 -24q-59 -155 -70 -208q-5 -24 -4 -43q0 -4 1 -15t2 -15l-47 -4q-35 133 -35 312zM385 114q0 57 52 97.5t143 40.5q53 0 107 -13 q-10 217 -11 284q-72 -2 -109 -2q-62 0 -162 7v49q88 -8 164 -8q37 0 107 2q0 99 1 131q0 34 -3 58h60q-5 -31 -6 -57q-2 -31 -2 -129q109 9 180 23v-51q-93 -14 -180 -20q0 -31 12 -303q87 -34 197 -130l-28 -43q-87 82 -168 121q1 -14 1 -40q0 -28 -7 -52.5t-23.5 -47.5 t-49.5 -36.5t-79 -13.5q-95 0 -145.5 35.5t-50.5 97.5zM433 118q0 -41 36.5 -65t98.5 -24q68 0 95 30t27 88q0 26 -1 43q-54 18 -114 18q-62 0 -102 -25.5t-40 -64.5z" />
<glyph unicode="&#x3070;" d="M109 277q0 50 6 117t12.5 112.5t16.5 111t12 78.5q5 35 5 55l60 -6q-9 -24 -14 -53q-19 -90 -34.5 -208t-15.5 -200q0 -91 12 -179q26 80 63 170l30 -24q-58 -155 -69 -208q-6 -27 -5 -43q0 -4 2 -15t2 -16l-47 -4q-36 138 -36 312zM364 104q0 57 51.5 97.5t142.5 40.5 q54 0 108 -13q-10 217 -11 284q-55 -3 -110 -3q-27 0 -162 7v50q90 -8 164 -8q36 0 108 2v131q0 42 -3 58h60q-5 -31 -6 -57q-2 -31 -2 -129q97 6 180 23v-51q-90 -14 -180 -20q0 -32 12 -303q89 -35 197 -131l-28 -42q-87 82 -168 120q1 -14 1 -39q0 -28 -7 -52.5 t-23.5 -47.5t-49.5 -36.5t-79 -13.5q-95 0 -145 35.5t-50 97.5zM411 108q0 -41 36.5 -65t98.5 -24q69 0 96 30t27 88q0 26 -1 43q-54 18 -114 18q-63 0 -103 -25.5t-40 -64.5zM765 769l38 12q33 -64 63 -141l-41 -15q-24 74 -60 144zM863 798l38 12q35 -64 64 -139l-40 -15 q-33 91 -62 142z" />
<glyph unicode="&#x3071;" d="M109 277q0 50 6 117t12.5 112.5t16.5 111t12 78.5q5 35 5 55l60 -6q-9 -24 -14 -53q-19 -90 -34.5 -208t-15.5 -200q0 -91 12 -179q26 80 63 170l30 -24q-58 -155 -69 -208q-6 -27 -5 -43q0 -4 2 -15t2 -16l-47 -4q-36 138 -36 312zM364 104q0 57 51.5 97.5t142.5 40.5 q54 0 108 -13q-10 217 -11 284q-55 -3 -110 -3q-27 0 -162 7v50q90 -8 164 -8q36 0 108 2v131q0 42 -3 58h60q-5 -31 -6 -57q-2 -31 -2 -129q97 6 180 23v-51q-90 -14 -180 -20q0 -32 12 -303q89 -35 197 -131l-28 -42q-87 82 -168 120q1 -14 1 -39q0 -28 -7 -52.5 t-23.5 -47.5t-49.5 -36.5t-79 -13.5q-95 0 -145 35.5t-50 97.5zM411 108q0 -41 36.5 -65t98.5 -24q69 0 96 30t27 88q0 26 -1 43q-54 18 -114 18q-63 0 -103 -25.5t-40 -64.5zM765 726q0 44 29.5 74t72.5 30t73.5 -30.5t30.5 -73.5q0 -42 -30.5 -72t-73.5 -30t-72.5 30 t-29.5 72zM801 726q0 -27 19 -46t47 -19t47.5 19t19.5 46q0 28 -19.5 48t-47.5 20t-47 -19.5t-19 -48.5z" />
<glyph unicode="&#x3072;" d="M125 658q24 0 51 3q64 6 167.5 24t140.5 33l16 -49q-6 -2 -26.5 -7.5t-27.5 -8.5q-25 -18 -60 -59.5t-71.5 -98.5t-61.5 -131t-25 -142q0 -107 56 -157.5t142 -50.5q161 0 239.5 170.5t33.5 441.5q-16 43 -26 81l51 15q20 -103 72 -212.5t138 -194.5l-40 -41 q-88 107 -142 221q11 -101 -3.5 -195t-53 -170.5t-108.5 -122t-163 -45.5q-116 0 -181 68.5t-65 184.5q0 124 58.5 239t133.5 189q-26 -5 -184 -32q-9 -2 -27.5 -5.5t-26.5 -5.5z" />
<glyph unicode="&#x3073;" d="M107 643q23 0 52 3q64 6 167.5 24t140.5 33l15 -49q-6 -2 -26.5 -7.5t-27.5 -8.5q-25 -18 -59.5 -59.5t-71 -99t-61.5 -131t-25 -141.5q0 -107 56 -157.5t141 -50.5q106 0 179 77t98 212.5t-3 319.5q-15 44 -26 83l51 16q20 -103 71.5 -212.5t137.5 -194.5l-39 -41 q-86 105 -143 222q11 -101 -3.5 -195.5t-53 -170.5t-108.5 -122t-163 -46q-115 0 -180 68.5t-65 184.5q0 124 58.5 238.5t133.5 189.5q-31 -6 -99 -18t-86 -15q-7 -1 -24.5 -4.5t-28.5 -5.5zM760 752l36 14q53 -93 74 -138l-39 -16q-40 91 -71 140zM859 790l36 15 q42 -68 76 -136l-39 -17q-40 90 -73 138z" />
<glyph unicode="&#x3074;" d="M107 643q23 0 52 3q64 6 167.5 24t140.5 33l15 -49q-6 -2 -26.5 -7.5t-27.5 -8.5q-25 -18 -59.5 -59.5t-71 -99t-61.5 -131t-25 -141.5q0 -107 56 -157.5t141 -50.5q106 0 179 77t98 212.5t-3 319.5q-15 44 -26 83l51 16q20 -103 71.5 -212.5t137.5 -194.5l-39 -41 q-86 105 -143 222q11 -101 -3.5 -195.5t-53 -170.5t-108.5 -122t-163 -46q-115 0 -180 68.5t-65 184.5q0 124 58.5 238.5t133.5 189.5q-31 -6 -99 -18t-86 -15q-7 -1 -24.5 -4.5t-28.5 -5.5zM763 699q0 44 31 75.5t76 31.5q44 0 75.5 -31.5t31.5 -75.5q0 -43 -31.5 -74.5 t-75.5 -31.5q-45 0 -76 31t-31 75zM800 699q0 -29 20 -49.5t50 -20.5q29 0 49.5 20.5t20.5 49.5q0 30 -20.5 50.5t-49.5 20.5t-49.5 -20.5t-20.5 -50.5z" />
<glyph unicode="&#x3075;" d="M54 82q60 31 136.5 89.5t117.5 104.5l31 -39q-48 -49 -119 -105t-135 -93zM320 57q75 -22 164 -22q41 0 74.5 21t33.5 71q0 77 -135 230q-9 9 -21 21.5t-28 28t-24 23.5l39 34q13 -13 67 -75q74 -79 114 -142.5t40 -124.5q0 -41 -16 -69.5t-42 -42t-49.5 -19t-47.5 -5.5 q-78 0 -162 16zM377 717l31 40q157 -72 237 -137l13 -37q-33 -28 -101 -77l-33 33q47 29 72 53q-70 60 -219 125zM732 346l43 25q51 -58 100.5 -146t75.5 -158l-47 -25q-25 74 -74 163t-98 141z" />
<glyph unicode="&#x3076;" d="M27 74q60 32 136.5 90.5t117.5 103.5l31 -38q-48 -49 -118.5 -105.5t-135.5 -93.5zM293 49q75 -22 164 -22q41 0 74.5 21.5t33.5 71.5q0 78 -135 229q-32 34 -73 73l39 34q4 -4 68 -74q74 -81 113.5 -144.5t39.5 -123.5q0 -41 -16 -69.5t-42 -42t-49 -19t-47 -5.5 q-79 0 -163 16zM350 709l31 40q157 -72 237 -137l13 -37q-33 -28 -101 -77l-33 34q45 26 72 52q-70 60 -219 125zM705 338l43 25q51 -58 100.5 -146t75.5 -158l-47 -25q-25 74 -74 163t-98 141zM718 638l38 17q51 -71 84 -138l-39 -19q-31 67 -83 140zM825 675l37 17 q54 -72 86 -136l-38 -19q-43 85 -85 138z" />
<glyph unicode="&#x3077;" d="M27 74q60 32 136.5 90.5t117.5 103.5l31 -38q-48 -49 -118.5 -105.5t-135.5 -93.5zM293 49q75 -22 164 -22q41 0 74.5 21.5t33.5 71.5q0 78 -135 229q-32 34 -73 73l39 34q4 -4 68 -74q74 -81 113.5 -144.5t39.5 -123.5q0 -41 -16 -69.5t-42 -42t-49 -19t-47 -5.5 q-79 0 -163 16zM350 709l31 40q157 -72 237 -137l13 -37q-33 -28 -101 -77l-33 34q45 26 72 52q-70 60 -219 125zM705 338l43 25q51 -58 100.5 -146t75.5 -158l-47 -25q-25 74 -74 163t-98 141zM726 594q0 46 31.5 77.5t76.5 31.5t77 -31.5t32 -77.5q0 -45 -32 -76.5 t-77 -31.5t-76.5 31.5t-31.5 76.5zM763 594q0 -29 21 -50t50 -21q30 0 51 21t21 50q0 30 -21 51.5t-51 21.5q-29 0 -50 -22t-21 -51z" />
<glyph unicode="&#x3078;" d="M70 264q22 16 65 59q25 26 59.5 67.5t81 102t58.5 75.5q40 47 75.5 50.5t83.5 -42.5q20 -22 89.5 -103.5t106.5 -120.5q155 -171 249 -254l-39 -44q-93 87 -244 255q-34 38 -100 116.5t-88 102.5q-37 35 -55 33.5t-46 -36.5q-149 -190 -193 -242q-39 -45 -55 -67z" />
<glyph unicode="&#x3079;" d="M60 245q28 20 65 59q25 25 61 69t78.5 98.5t60.5 76.5q39 48 74.5 51.5t83.5 -43.5q24 -26 92.5 -106.5t103.5 -117.5q169 -183 249 -254l-39 -44q-79 75 -244 256q-26 29 -94 110t-94 108q-36 36 -54.5 34.5t-46.5 -37.5q-5 -7 -83 -105.5t-110 -135.5q-15 -16 -55 -68z M642 649l40 18q61 -91 96 -160l-42 -19q-41 87 -94 161zM770 697l38 18q56 -75 99 -157l-40 -19q-57 106 -97 158z" />
<glyph unicode="&#x307a;" d="M60 245q28 20 65 59q25 25 61 69t78.5 98.5t60.5 76.5q39 48 74.5 51.5t83.5 -43.5q24 -26 92.5 -106.5t103.5 -117.5q169 -183 249 -254l-39 -44q-79 75 -244 256q-26 29 -94 110t-94 108q-36 36 -54.5 34.5t-46.5 -37.5q-5 -7 -83 -105.5t-110 -135.5q-15 -16 -55 -68z M653 585q0 48 34 82.5t83 34.5q48 0 82.5 -34.5t34.5 -82.5q0 -49 -34.5 -83.5t-82.5 -34.5q-49 0 -83 34.5t-34 83.5zM690 585q0 -33 23 -56.5t57 -23.5q33 0 56 23.5t23 56.5q0 32 -23 55.5t-56 23.5q-34 0 -57 -23t-23 -56z" />
<glyph unicode="&#x307b;" d="M131 288q0 40 3.5 87t10 97.5t11 83.5t13 83t9.5 59q5 35 5 55l60 -5q-10 -31 -14 -53q-50 -235 -50 -401q0 -92 12 -179q26 80 63 170l30 -24q-62 -172 -69 -208q-5 -24 -4 -43q0 -6 3 -30l-47 -4q-36 130 -36 312zM391 119q0 50 46 88t136 38q47 0 99 -10 q-7 139 -8 187q-135 -5 -247 2v49q119 -9 246 -4v185q-137 -5 -231 0v48q213 -17 448 14v-48q-64 -7 -170 -12v-185q103 6 194 17v-49q-100 -11 -194 -15q1 -29 9 -202q109 -34 214 -130l-28 -46q-84 86 -184 126q2 -50 2 -64q0 -56 -40 -87t-111 -31q-82 0 -131.5 33.5 t-49.5 95.5zM438 120q0 -84 133 -84q60 0 82.5 26.5t22.5 74.5q0 8 -2 50q-51 14 -102 14q-60 0 -97 -22.5t-37 -58.5z" />
<glyph unicode="&#x307c;" d="M103 274q0 126 47 411q5 33 5 53l59 -5q-6 -18 -14 -52q-50 -235 -50 -401q0 -92 12 -179q17 51 63 170l30 -24q-60 -166 -69 -208q-5 -25 -4 -43q1 -5 2.5 -16t1.5 -14l-48 -4q-35 126 -35 312zM363 105q0 50 45.5 87.5t135.5 37.5q48 0 100 -10q-8 112 -9 188 q-130 -5 -247 1v50q119 -9 246 -4v184q-121 -5 -230 1v48q204 -16 402 9q-20 46 -29 63l36 12q40 -77 63 -141l-38 -14q-3 9 -16 42v-8q-75 -7 -140 -10v-184q102 6 193 17v-49q-100 -11 -193 -15q1 -32 9 -203q110 -35 214 -129l-29 -46q-82 85 -183 126q2 -52 2 -64 q0 -57 -40.5 -87.5t-111.5 -30.5q-82 0 -131 33t-49 96zM410 106q0 -42 34.5 -63t96.5 -21q61 0 84 26.5t23 73.5q0 9 -2 51q-53 14 -103 14q-59 0 -96 -22.5t-37 -58.5zM875 790l37 13q32 -59 64 -141l-39 -14q-33 91 -62 142z" />
<glyph unicode="&#x307d;" d="M103 274q0 128 47 410q3 18 5 54l59 -5q-6 -18 -14 -52q-50 -235 -50 -401q0 -92 12 -179q17 51 63 170l30 -24q-60 -166 -69 -208q-5 -25 -4 -43q1 -5 2.5 -16t1.5 -14l-48 -4q-35 126 -35 312zM363 105q0 50 45.5 87.5t135.5 37.5q48 0 100 -10q-8 112 -9 188 q-130 -5 -247 1v50q119 -9 246 -4v183q-107 -4 -230 2v48q197 -17 395 8q-15 22 -15 53q0 43 29.5 73t72.5 30t73.5 -30t30.5 -73t-30.5 -72.5t-73.5 -29.5q-47 0 -77 35v-33q-56 -6 -127 -9v-183q102 6 193 17v-49q-100 -11 -193 -15q1 -32 9 -203q110 -35 214 -129 l-29 -46q-82 85 -183 126q2 -52 2 -64q0 -57 -40.5 -87.5t-111.5 -30.5q-82 0 -131 33t-49 96zM410 106q0 -42 34.5 -63t96.5 -21q61 0 84 26.5t23 73.5q0 9 -2 51q-53 14 -103 14q-59 0 -96 -22.5t-37 -58.5zM820 749q0 -28 19 -47t47 -19t48 19t20 47t-20 47.5t-48 19.5 t-47 -19.5t-19 -47.5z" />
<glyph unicode="&#x307e;" d="M193 408l1 51q114 -19 254 -19q38 0 57 1v165q-17 -1 -51 -1q-117 0 -243 15v51q100 -19 242 -19h52v76q0 34 -2 54h56q-4 -32 -5 -64v-64q136 5 264 25v-50q-197 -18 -264 -22v-165q145 6 282 28v-50q-131 -19 -281 -24q0 -28 6 -172q149 -39 294 -157l-29 -46 q-124 112 -262 154q2 -62 2 -74q0 -54 -37.5 -93.5t-125.5 -39.5q-101 0 -154.5 34t-53.5 101q0 64 59.5 102.5t161.5 38.5q47 0 95 -8q-1 68 -5 159q-19 -1 -58 -1q-125 0 -255 14zM243 106q0 -92 157 -92q114 0 114 94q0 9 -0.5 36t-0.5 44q-52 11 -103 11 q-79 0 -123 -26.5t-44 -66.5z" />
<glyph unicode="&#x307f;" d="M88 174q0 108 91.5 180.5t233.5 73.5q109 236 116 251q-187 -9 -225 -11q-49 -4 -69 -7l-3 57q24 -2 69 -2q87 0 234 11q21 1 37 8l34 -28q-21 -27 -22 -29q-10 -15 -25.5 -46t-28 -58.5t-34 -75.5t-32.5 -72q147 -11 302 -89q9 49 12 98q2 44 1 81l53 -6 q-7 -122 -22 -196q65 -36 127 -82l-23 -54q-55 46 -116 84q-29 -106 -91.5 -180.5t-173.5 -129.5l-43 36q207 85 264 299q-156 85 -311 93q-96 -220 -131 -269q-43 -59 -108 -59q-50 0 -83 34t-33 88zM136 179q0 -35 20 -55.5t48 -20.5q36 0 65 35q14 18 31 49.5t29 58 t31.5 70.5t29.5 65q-116 -6 -185 -65t-69 -137z" />
<glyph unicode="&#x3080;" d="M104 643q85 -14 155 -14q30 0 46 1v75q0 54 -5 75h59q-5 -28 -5 -75v-71q95 10 197 36v-51q-92 -22 -197 -32v-160q23 -34 23 -81q0 -113 -53 -170q-2 -48 -2 -75q0 -34 10.5 -49.5t47.5 -24t116 -8.5q113 0 177 17q43 13 65.5 38.5t22.5 77.5q0 63 -6 106l55 -18 q3 -70 2 -101q-3 -68 -31.5 -101.5t-88.5 -48.5q-74 -18 -199 -18q-130 0 -175 24t-45 84q0 25 2 65q-18 -6 -41 -6q-43 0 -80 35.5t-37 109.5q0 73 42 130.5t108 57.5q20 0 38 -6v119q-15 -1 -43 -1q-90 0 -156 10zM163 283q0 -45 22 -71t55 -26q44 0 66 46.5t22 109.5 q0 38 -18 61.5t-46 23.5q-41 0 -71 -41t-30 -103zM680 642l33 34q43 -30 100 -83.5t90 -95.5l-37 -37q-32 43 -87.5 96.5t-98.5 85.5z" />
<glyph unicode="&#x3081;" d="M101 214q0 84 44 166t113 136q-17 49 -32 98q-20 64 -28 82l55 17q3 -12 9.5 -41t9.5 -42q15 -50 27 -85q123 76 265 76h6q11 39 19 85q5 39 4 64l58 -5q-3 -12 -8 -35t-6 -29q-4 -23 -19 -84q121 -17 196.5 -101t75.5 -208q0 -141 -93.5 -229.5t-257.5 -109.5l-32 45 q153 14 242.5 91.5t89.5 203.5q0 104 -64 176.5t-170 86.5q-65 -226 -142 -338l-8 -12q31 -44 64 -75l-39 -33q-26 29 -55 67q-101 -135 -196 -135q-56 0 -92 44.5t-36 123.5zM149 217q0 -57 22.5 -89t60.5 -32q72 0 164 125q-22 33 -39 64q-38 67 -82 185 q-57 -49 -91.5 -119t-34.5 -134zM315 500q42 -117 78 -179q17 -31 33 -56l5 8q74 122 126 302q-130 0 -242 -75z" />
<glyph unicode="&#x3082;" d="M103 341l3 51q85 -31 219 -40q6 58 24 203q-125 9 -221 34l4 50q98 -30 223 -37q6 43 13 117q3 30 0 59l61 -4q-7 -30 -10 -58q-2 -13 -7 -52.5t-8 -63.5h6q122 0 206 12l-1 -50q-99 -9 -205 -9h-12q-15 -109 -25 -203h25q123 0 211 12l-1 -51q-91 -10 -205 -10h-35 q-7 -79 -7 -113q0 -79 45 -125t134 -46q120 0 192 47.5t72 133.5q0 52 -28.5 107.5t-83.5 100.5l59 11q104 -106 104 -224q0 -107 -86.5 -166.5t-227.5 -59.5q-101 0 -165 51.5t-64 162.5q0 43 8 123q-130 9 -217 37z" />
<glyph unicode="&#x3083;" d="M129 313q33 7 59 18q12 5 29.5 12.5t43 19t43.5 19.5q-35 71 -50 94q-21 33 -36 49l53 21q8 -19 21 -40q22 -39 54 -105q211 91 300 91q88 0 134 -42.5t46 -108.5q0 -71 -47.5 -113.5t-140.5 -42.5q-61 0 -122 24l3 49q60 -28 118 -28q76 0 108.5 32t32.5 80q0 42 -31 73 t-102 31q-86 0 -279 -87q16 -32 38 -82q53 -118 119 -327l-52 -15q-59 208 -110 323q-6 14 -18.5 41.5t-18.5 40.5q-31 -15 -89.5 -43.5t-78.5 -37.5zM423 589l36 29q63 -46 107 -93l-36 -30q-47 51 -107 94z" />
<glyph unicode="&#x3084;" d="M76 418q31 8 72 24q44 17 134 59q-36 75 -65 121q-14 27 -41 62l54 21q13 -29 33 -59q24 -46 63 -125q247 110 364 110q96 0 151.5 -47.5t55.5 -126.5q0 -82 -53 -134t-164 -52q-71 0 -145 28l2 52q68 -32 142 -32q89 0 128 40t39 100q0 53 -39.5 89t-117.5 36 q-111 0 -342 -105q30 -64 44 -95q57 -127 148 -407l-57 -16q-69 251 -136 403q-32 72 -43 94q-28 -13 -100.5 -48.5t-99.5 -47.5zM423 760l37 29q76 -57 129 -110l-37 -32q-77 75 -129 113z" />
<glyph unicode="&#x3085;" d="M214 264q0 74 23 267q3 18 1 34l57 -5q-3 -8 -9 -32q-10 -51 -19 -138.5t-6 -135.5q33 99 113.5 167t178.5 83q-3 26 -10 56q-8 32 -12 43l52 2q10 -47 16 -97h5q116 0 178.5 -61t62.5 -153q0 -104 -63 -170.5t-188 -66.5q-11 0 -33 2q-41 -84 -121 -132l-45 29 q78 41 119 115q-95 33 -142 132l28 38q45 -100 134 -128q31 83 31 210q0 63 -6 137q-106 -15 -181.5 -90.5t-97.5 -167.5q-8 -29 -7 -56q4 -45 13 -77l-45 -7q-27 96 -27 202zM580 105q6 -1 18 -1q97 0 148.5 51.5t51.5 135.5q0 76 -48 124t-146 48q7 -77 7 -141 q0 -130 -31 -217z" />
<glyph unicode="&#x3086;" d="M148 359q0 39 4 90t7.5 85.5t9.5 80.5t7 53q1 22 0 39l57 -5q-1 -4 -4 -17t-5 -22q-13 -65 -23.5 -171.5t-5.5 -164.5q37 124 135.5 209.5t221.5 103.5q-6 43 -15 85q-4 28 -14 55l54 2q13 -52 22 -138h9q132 0 209 -72.5t77 -181.5q0 -123 -76 -201.5t-220 -78.5 q-20 0 -41 3q-48 -103 -146 -164l-47 29q97 51 144 146q-118 38 -176 158l33 37q56 -122 163 -151q37 102 37 259q0 89 -8 167q-127 -17 -218 -108t-121 -205q-9 -39 -8 -69q4 -49 14 -90l-45 -8q-31 112 -31 245zM576 160q9 -1 26 -1q109 0 176 61t67 167q0 91 -61.5 151 t-174.5 60h-5q8 -85 8 -170q0 -161 -36 -268z" />
<glyph unicode="&#x3087;" d="M200 70q0 58 53 91t151 33q31 0 68 -5q-6 124 -6 182v169q0 56 -6 72h59q-5 -20 -5 -71v-85q169 5 256 17l1 -46q-88 -11 -257 -16v-42q0 -36 7 -190q142 -35 257 -139l-27 -46q-98 98 -228 138q2 -54 2 -70q0 -48 -34.5 -80t-101.5 -32q-87 0 -138 31.5t-51 88.5z M247 71q0 -33 36 -54.5t101 -21.5q45 0 68 22t23 60q0 13 -2 67q-34 7 -73 7q-70 0 -111.5 -20t-41.5 -60z" />
<glyph unicode="&#x3088;" d="M142 110q0 65 59.5 107.5t176.5 42.5q51 0 99 -9q-8 164 -8 240q0 30 -0.5 102t-0.5 91q0 61 -7 89h64q-6 -34 -6 -89v-30v-44v-42q171 2 302 19l2 -50q-142 -14 -304 -18v-28q0 -57 9 -251q173 -43 311 -168l-30 -49q-116 117 -279 166q2 -64 2 -83q0 -60 -42.5 -99.5 t-122.5 -39.5q-105 0 -165 35t-60 108zM192 111q0 -44 44 -69.5t125 -25.5q120 0 120 107q0 15 -2 79q-53 11 -105 11q-87 0 -134.5 -27.5t-47.5 -74.5z" />
<glyph unicode="&#x3089;" d="M192 212q14 62 30.5 191.5t20.5 202.5l57 -7q-7 -38 -21.5 -153t-20.5 -148q143 134 338 134q104 0 172.5 -56t68.5 -141q0 -136 -129.5 -206t-378.5 -50l-15 53q230 -26 350 33.5t120 171.5q0 65 -53.5 106.5t-136.5 41.5q-206 0 -324 -140q-15 -19 -25 -45zM324 718 l13 51q59 -19 184 -44.5t192 -32.5l-13 -50q-67 9 -193.5 34.5t-182.5 41.5z" />
<glyph unicode="&#x308a;" d="M228 383q0 108 32 322q7 48 8 75l60 -2q-35 -122 -50 -317q18 62 58 121t101 101t124 42q96 0 155.5 -91t59.5 -242q0 -99 -30 -175t-87 -125.5t-128.5 -80.5t-163.5 -47l-31 47q388 57 388 380q0 127 -43 207t-127 80q-61 0 -121 -51.5t-98 -123t-47 -137.5 q-8 -61 1 -131l-51 -4q-10 90 -10 152z" />
<glyph unicode="&#x308b;" d="M127 247q49 41 151.5 126.5t125.5 105.5q35 29 241 207q-175 -10 -335 -16q-38 -2 -57 -5l-2 56q29 -3 59 -3q41 0 177.5 5t171.5 9q26 2 40 7l36 -40q-3 -2 -21.5 -15.5t-26.5 -19.5q-20 -15 -70.5 -59t-114 -99.5t-96.5 -83.5q73 26 160 26q121 0 198 -64t77 -161 q0 -118 -92 -186t-239 -68q-97 0 -150 36.5t-53 93.5q0 47 38.5 81.5t99.5 34.5q87 0 137.5 -51.5t61.5 -127.5q69 24 108 72t39 116q0 76 -67 127.5t-166 51.5q-120 0 -199.5 -43t-192.5 -152zM355 102q0 -39 42.5 -62.5t106.5 -23.5q47 0 92 8q-9 67 -48 107t-104 40 q-38 0 -63.5 -19.5t-25.5 -49.5z" />
<glyph unicode="&#x308c;" d="M66 141q43 54 116 155t107 155q1 18 3.5 56t4.5 57q-23 -3 -96.5 -13t-104.5 -14l-5 56q18 -1 52 1q65 4 157 19q1 19 2.5 45.5t2.5 40t1 18.5q0 42 -3 64l64 -3q-6 -31 -19 -156l10 3l23 -25q-4 -6 -18.5 -29t-21.5 -35l-6 -78q69 68 156 123t156 55q62 0 95.5 -33 t33.5 -93q0 -48 -19.5 -189.5t-19.5 -191.5q0 -31 14.5 -50t44.5 -19q82 0 162 88l10 -54q-84 -88 -179 -88q-46 0 -74 29t-28 82q0 58 19 197t19 187q0 87 -86 87q-61 0 -145.5 -56.5t-162.5 -141.5q-4 -98 -4 -136q0 -164 3 -229l3 -51h-58q3 15 3 50q1 49 1.5 118 t0.5 117q0 16 4 102q-64 -96 -184 -265z" />
<glyph unicode="&#x308d;" d="M126 245q67 62 167 149.5t202.5 175t126.5 108.5q-189 -6 -310 -13q-6 0 -63 -6l-1 56q27 -3 61 -3q123 0 326 10q39 6 45 8l36 -41q-4 -2 -11 -7t-15 -10.5t-11 -7.5q-167 -133 -287 -241q85 37 176 37q117 0 193 -62t76 -162q0 -94 -64.5 -158t-173 -90t-246.5 -15 l-16 53q124 -14 225.5 6t162 74t60.5 132t-61.5 126.5t-162.5 48.5q-66 0 -121.5 -15t-105.5 -48t-83.5 -63t-85.5 -82z" />
<glyph unicode="&#x308e;" d="M153 109q90 113 183 256q2 26 8 84q-11 -2 -166 -27l-6 49q18 0 38 2q75 5 137 17q6 64 8 94q1 8 1 52l59 -1q-8 -30 -21 -135l7 2l22 -23q-4 -6 -17.5 -27t-20.5 -33q-2 -19 -4 -53q63 56 131.5 84.5t127.5 28.5q90 0 153 -55.5t63 -145.5q0 -117 -78 -187t-219 -94 l-22 47q123 16 197.5 74.5t74.5 160.5q0 57 -44.5 106.5t-129.5 49.5q-127 0 -258 -122q-2 -52 -2 -73q0 -148 4 -224q0 -7 0.5 -20.5t1.5 -20.5h-53q2 16 2 39q0 210 2 275q-112 -173 -146 -222z" />
<glyph unicode="&#x308f;" d="M66 141q43 54 116 155t107 155q1 18 3.5 56t4.5 57q-23 -3 -96.5 -13t-104.5 -14l-5 56q18 -1 52 1q75 5 157 18q1 20 2.5 46.5t2.5 40t1 18.5q0 42 -3 64l64 -3q-6 -31 -19 -156l10 3l23 -25q-4 -6 -18.5 -29t-21.5 -35q-1 -14 -3 -42.5t-3 -42.5q158 137 327 137 q102 0 177.5 -66.5t75.5 -174.5q1 -140 -95.5 -221t-259.5 -112l-22 50q65 9 121 29t104 53.5t75 85t27 116.5q0 30 -12 62t-35.5 62t-65.5 49t-96 19q-169 0 -325 -151q-4 -98 -4 -135q0 -164 3 -229l3 -51h-58q3 15 3 50q1 49 1.5 118t0.5 117q0 16 4 102 q-64 -96 -184 -265z" />
<glyph unicode="&#x3090;" d="M106 137q0 127 103 245t251 155q32 107 44 159q-271 -19 -283 -20l-3 57q24 -3 60 -3q121 3 204 9q35 5 50 12l39 -28q-14 -24 -19 -37q-3 -10 -10.5 -35.5t-15.5 -52t-16 -51.5q27 4 60 4q140 0 222 -84.5t82 -211.5q0 -118 -72.5 -201t-216.5 -83q-75 0 -119 33.5 t-44 88.5q0 49 38.5 81t93.5 32q72 0 116.5 -41.5t64.5 -103.5q89 64 89 193q0 107 -68 178.5t-189 71.5q-37 0 -72 -6q-22 -73 -62 -185q-62 -178 -130 -250q-39 -43 -101 -43q-40 0 -68 30t-28 87zM153 145q0 -34 15.5 -53t37.5 -19q37 0 64 27q57 62 122 238 q20 53 51 147q-83 -27 -151 -85.5t-103.5 -126t-35.5 -128.5zM468 96q0 -37 32 -58t82 -21q63 0 113 22q-37 125 -140 125q-37 0 -62 -19t-25 -49z" />
<glyph unicode="&#x3091;" d="M70 -5q67 73 152.5 151t152.5 127q-69 30 -69 89q0 43 43 70t96 27q57 0 93 -24.5t36 -65.5t-49 -74q91 2 156 39.5t65 97.5q0 58 -54 92t-132 34q-107 0 -181 -32q-78 -34 -204 -129l-33 39q140 100 442 270q-260 -7 -329 -13l-2 51q51 -3 56 -3q154 0 298 9q40 1 63 9 l34 -40q-57 -21 -252 -137q57 14 119 14q94 -1 160 -43.5t66 -118.5q0 -86 -82 -134.5t-201 -48.5q-46 0 -82 6q-56 -37 -122 -94q65 11 109.5 -20t67.5 -92q27 56 81 95.5t113 39.5q75 0 135.5 -54t99.5 -146l-52 -22q-33 88 -81 132.5t-106 44.5q-49 0 -93 -36t-64 -92 q-2 -5 -9 -40h-51q-2 26 -7 40q-36 114 -130 114q-50 0 -99 -42.5t-107 -116.5zM351 364q0 -54 102 -66q32 14 53 32.5t21 38.5q0 25 -24 38.5t-61 13.5q-35 0 -63 -14.5t-28 -42.5z" />
<glyph unicode="&#x3092;" d="M112 289q164 163 233 321q-20 -1 -58 -1q-68 0 -160 5v52q77 -10 163 -10q48 0 73 1q26 73 30 128l53 -4q-17 -74 -32 -123q175 7 315 31v-50q-145 -23 -332 -28q-37 -95 -108 -183q68 47 151 47q51 0 87.5 -26.5t43.5 -72.5q44 21 117.5 53t91.5 40q33 15 64 32l22 -51 q-19 -5 -69 -25q-140 -56 -225 -97q0 -100 2 -198h-52q4 84 4 174q-87 -46 -134.5 -90.5t-47.5 -97.5q0 -32 15.5 -53t46 -31t61.5 -13t77 -3q126 0 263 22l-1 -53q-130 -16 -265 -16q-54 0 -95.5 6t-77.5 21t-55 44t-19 71q0 74 61 130t169 112h1q-3 37 -29.5 57.5 t-68.5 20.5q-95 0 -180 -75q-21 -20 -90 -101z" />
<glyph unicode="&#x3093;" d="M92 -4q72 200 357 717q19 35 30 63l58 -24q-15 -20 -32 -49q-92 -150 -202 -364q76 77 164 77q48 0 80 -30.5t34 -85.5q1 -28 1 -96.5t2 -96.5q3 -79 88 -79q44 0 83 24t66 63t44.5 78.5t27.5 79.5l42 -34q-89 -263 -270 -263q-70 0 -99 35t-32 84q-2 30 -2 98t-1 99 q-5 76 -81 76q-61 0 -119.5 -49.5t-92.5 -114.5q-23 -43 -52.5 -116.5t-38.5 -110.5z" />
<glyph unicode="&#x309b;" d="M16 770l38 16q35 -50 98 -159l-41 -18q-47 93 -95 161zM139 817l39 16q32 -46 98 -158l-41 -18q-62 116 -96 160z" />
<glyph unicode="&#x309c;" d="M24 707q0 47 32.5 80t79.5 33t79.5 -33t32.5 -80t-33 -79.5t-79 -32.5q-47 0 -79.5 32.5t-32.5 79.5zM59 707q0 -29 23.5 -52.5t53.5 -23.5q31 0 54 23t23 53q0 31 -23 53.5t-54 22.5t-54 -22.5t-23 -53.5z" />
<glyph unicode="&#x309d;" d="M341 593l43 33q92 -84 193.5 -198t156.5 -190l-15 -41q-58 -19 -294 -113l-25 47q21 8 267 104q-44 66 -142 173t-184 185z" />
<glyph unicode="&#x309e;" d="M301 574l43 33q92 -83 192.5 -196.5t158.5 -191.5l-15 -41q-98 -33 -295 -114l-24 48q35 13 140 54.5t126 49.5q-43 65 -141 171.5t-185 186.5zM534 673l41 17q33 -48 93 -149l-43 -20q-48 95 -91 152zM661 714l41 18q46 -65 93 -149l-42 -19q-56 105 -92 150z" />
<glyph unicode="&#x30a1;" d="M184 482v56q43 -5 88 -5h512q23 0 38 3l30 -27q-8 -10 -15 -20q-101 -163 -206 -232l-44 31q53 30 106.5 89t82.5 108h-504q-47 0 -88 -3zM240 -29q35 11 62 28q100 68 132.5 152t32.5 203q0 15 -4 53h57q0 -94 -8.5 -157t-32.5 -124t-70.5 -107.5t-119.5 -86.5z" />
<glyph unicode="&#x30a2;" d="M131 649v61q53 -8 109 -8h595q32 0 50 5l33 -32q-11 -11 -21 -26q-36 -61 -104 -140.5t-150 -136.5l-44 36q69 39 139 113.5t100 131.5h-598q-39 0 -109 -4zM195 14q42 12 80 38q62 36 102.5 84t59 107.5t25 113.5t6.5 126q0 40 -3 62h57q0 -117 -9.5 -194.5t-38 -152 t-85 -128t-146.5 -96.5z" />
<glyph unicode="&#x30a3;" d="M123 247q168 36 344 137q76 44 148 101t109 103l41 -37q-37 -40 -99.5 -91t-128.5 -92v-365q0 -56 3 -74h-59q4 24 4 74v334q-157 -87 -333 -140z" />
<glyph unicode="&#x30a4;" d="M99 361q117 29 235.5 80t207.5 105q77 48 149 108.5t113 111.5l43 -40q-123 -125 -271 -218v-439q0 -64 5 -92h-62q4 34 4 92v408q-177 -101 -394 -167z" />
<glyph unicode="&#x30a5;" d="M201 231q4 22 4 43v142q0 30 -4 64q32 -3 78 -3h189v82q0 27 -4 51h58q-3 -18 -3 -51v-82h215q33 0 49 4l33 -19q-2 -6 -9 -41q-22 -154 -77 -249q-99 -172 -341 -236l-43 45q32 4 78 19q86 31 149 74t105 113q65 107 75 243h-500v-157q0 -27 3 -42h-55z" />
<glyph unicode="&#x30a6;" d="M151 327q3 20 3 52v177q0 51 -3 72q43 -5 88 -5h226v104q0 33 -4 64h61q-5 -29 -5 -64v-104h254q37 0 60 7l35 -23q-7 -17 -12 -48q-30 -194 -101 -310q-56 -94 -154 -165t-234 -108l-42 47q37 6 81 21q86 26 168 85.5t129 134.5q40 64 66.5 153t32.5 158h-596v-197 q0 -35 4 -51h-57z" />
<glyph unicode="&#x30a7;" d="M160 5v55q33 -3 66 -3h247v394h-202q-42 0 -63 -2v53q32 -3 63 -3h462q12 0 66 3v-53q-19 2 -66 2h-210v-394h256q33 0 62 3v-55q-40 2 -62 2h-553q-20 0 -66 -2z" />
<glyph unicode="&#x30a8;" d="M90 52v59q35 -5 82 -5h298v491h-243q-41 0 -78 -3v57q35 -4 78 -4h552q37 0 81 4v-57q-35 3 -81 3h-256v-491h311q14 0 76 5v-59q-26 3 -76 3h-662q-38 0 -82 -3z" />
<glyph unicode="&#x30a9;" d="M190 78q112 56 220 150.5t161 177.5h-300q-32 0 -65 -3v54q31 -4 65 -4h317q-2 72 -3 94q0 26 -5 58h58q-3 -19 -3 -58q0 -50 1 -94h160q34 0 58 4v-54q-42 3 -58 3h-160q6 -364 6 -400q0 -27 -17.5 -42t-44.5 -15q-30 0 -138 6l-4 50q64 -11 127 -11q28 0 28 29 q0 92 -4 330q-52 -77 -154 -167t-209 -147z" />
<glyph unicode="&#x30aa;" d="M102 130q147 73 277.5 190t194.5 219h-364q-22 0 -82 -4v57q50 -5 82 -5h383q-2 84 -3 112q-2 49 -8 73h63q-5 -42 -5 -73q0 -6 0.5 -44t0.5 -68h177q30 0 75 5v-56q-57 3 -74 3h-177q6 -459 6 -490q0 -68 -79 -68q-62 0 -152 6l-4 54q73 -12 146 -12q22 0 30.5 9.5 t8.5 29.5q0 120 -4 416q-66 -97 -193 -210.5t-262 -185.5z" />
<glyph unicode="&#x30ab;" d="M125 22q38 19 85 60q181 153 218 459h-189q-74 0 -106 -3v56q62 -4 105 -4h194q5 58 5 110q0 48 -5 77h61q-2 -17 -4 -76q-1 -42 -7 -111h268q18 0 57 3l39 -19q-5 -28 -6 -47q-13 -382 -61 -479q-15 -28 -36.5 -39.5t-58.5 -11.5q-76 0 -157 6l-6 53q93 -10 153 -10 q45 0 59 31q29 56 42.5 202.5t13.5 261.5h-312q-25 -214 -100.5 -341.5t-204.5 -215.5z" />
<glyph unicode="&#x30ac;" d="M105 10q43 23 85 60q183 154 218 460h-189q-63 0 -106 -4v57q52 -5 105 -5h194q5 58 5 110q0 48 -5 78h61q-2 -17 -4 -77q-1 -42 -7 -111h268q31 0 57 4l39 -20q-5 -29 -6 -47q-13 -382 -61 -478q-27 -52 -95 -52q-49 0 -157 6l-6 53q93 -10 153 -10q45 0 59 32 q29 55 42.5 201.5t13.5 262.5h-312q-25 -214 -100.5 -342t-204.5 -216zM706 757l38 17q46 -66 83 -137l-39 -18q-32 68 -82 138zM811 794l37 17q48 -64 86 -136l-39 -18q-41 82 -84 137z" />
<glyph unicode="&#x30ad;" d="M115 263q45 2 79 8q62 7 293 45l-45 225q-218 -35 -235 -38q-58 -11 -75 -15l-11 61q26 1 77 6q90 11 234 34q-6 26 -11.5 53t-8.5 42.5t-4 18.5q-6 30 -17 64l58 11q3 -32 10 -64q1 -4 22 -117q221 36 251 42q17 4 37.5 9t21.5 5l11 -56q-13 -1 -59 -9l-252 -40 q21 -112 45 -224q229 39 264 45q56 10 79 18l11 -56q-3 0 -81 -13q-106 -16 -264 -42q42 -203 44 -212q15 -62 25 -87l-61 -13q-10 65 -15 90q-12 69 -42 214q-146 -23 -287 -48q-49 -8 -82 -17z" />
<glyph unicode="&#x30ae;" d="M95 246q39 2 79 7q74 10 292 46l-45 224q-166 -25 -235 -38q-40 -6 -74 -14l-12 61q27 1 78 6q91 11 233 34q-6 26 -11.5 53t-8.5 42.5t-4 18.5q-5 33 -17 64l59 11q0 -3 9 -65q0 -1 22 -116q175 27 252 42q32 6 59 14l11 -56q-9 -1 -60 -9l-252 -40l45 -224 q210 35 264 45q56 10 80 17l11 -55q-3 0 -81 -13q-106 -16 -264 -42q42 -206 44 -213q17 -69 24 -86l-61 -13q-12 79 -15 90q-10 58 -42 214q-270 -45 -287 -48q-52 -9 -81 -17zM707 789l38 17q52 -75 83 -137l-38 -19q-35 71 -83 139zM813 826l37 17q59 -84 85 -136 l-38 -19q-40 78 -84 138z" />
<glyph unicode="&#x30af;" d="M116 383q116 68 197.5 165.5t118.5 181.5q17 34 23 65l60 -21q-1 -2 -34 -64q-17 -35 -36 -64h313q36 0 52 8l45 -26q-11 -19 -17 -43q-21 -84 -68 -178.5t-111 -172.5q-143 -176 -395 -266l-45 43q245 70 397 252q60 73 106 165t64 171h-371q-104 -151 -254 -249z" />
<glyph unicode="&#x30b0;" d="M70 358q116 68 197.5 165.5t118.5 181.5q17 34 23 64l60 -20q-12 -21 -34 -65q-12 -24 -35 -63h312q36 0 52 8l45 -27q-10 -18 -17 -42q-21 -85 -68 -179.5t-111 -171.5q-143 -176 -395 -266l-45 42q243 70 397 253q60 72 106 164.5t64 171.5h-371q-104 -151 -254 -249z M719 772l38 17q46 -66 83 -137l-39 -18q-32 68 -82 138zM824 809l37 17q48 -64 86 -136l-39 -18q-41 82 -84 137z" />
<glyph unicode="&#x30b1;" d="M81 351q49 34 100 99.5t80 120.5q33 62 56 142q8 32 11 66l63 -12q-19 -57 -21 -64q-25 -76 -44 -117h496q61 0 87 5v-57q-27 2 -87 2h-186q-11 -212 -87.5 -345.5t-211.5 -219.5l-55 38q34 11 73 41q214 161 229 486h-283q-32 -59 -80 -121t-89 -95z" />
<glyph unicode="&#x30b2;" d="M63 332q49 35 100 101t80 120q37 69 56 141q8 31 11 67l63 -12q-19 -57 -21 -64q-24 -74 -44 -117h496q61 0 88 4v-56q-56 2 -88 2h-185q-11 -212 -88 -346t-212 -220l-55 39q38 13 73 41q215 158 229 486h-282q-32 -59 -80 -121t-90 -95zM716 762l38 17q46 -66 83 -137 l-39 -18q-32 68 -82 138zM821 799l37 17q52 -71 86 -136l-39 -18q-41 82 -84 137z" />
<glyph unicode="&#x30b3;" d="M168 54v60q52 -5 103 -5h508v506h-496q-39 0 -102 -3v59q52 -5 101 -5h485q45 0 67 1q-2 -42 -2 -68v-516q0 -63 3 -84h-58q2 12 2 58h-507q-69 0 -104 -3z" />
<glyph unicode="&#x30b4;" d="M151 25v60q53 -5 103 -5h509v507h-497q-39 0 -102 -3v58q52 -5 101 -5h486q44 0 66 1q-2 -42 -2 -68v-516q0 -16 0.5 -35t1.5 -32.5t1 -15.5h-57q0 1 2 57h-508q-68 0 -104 -3zM689 803l38 16q39 -54 82 -132l-39 -19q-32 66 -81 135zM810 829l39 17q49 -71 83 -132 l-40 -17q-47 88 -82 132z" />
<glyph unicode="&#x30b5;" d="M73 503v57q20 -5 95 -5h122v145q0 46 -4 62h58q0 -1 -1 -10t-2 -23t-1 -28v-146h313v137q0 17 -1 34.5t-2 28.5t-1 12h59q-5 -20 -5 -75v-137h132q55 0 80 5v-57q-12 3 -80 3h-132v-36q0 -214 -57 -323.5t-219 -182.5l-43 41q71 29 116.5 60t82.5 82t53.5 128t16.5 188 v43h-313v-177q0 -66 4 -82h-58q0 1 1 14.5t2 33t1 34.5v177h-122q-17 0 -39.5 -1t-38.5 -1.5t-17 -0.5z" />
<glyph unicode="&#x30b6;" d="M54 484v57q15 -5 95 -5h122v145q0 13 -1 27.5t-2 24t-1 10.5h58q-4 -16 -4 -61v-146h313v137q0 55 -5 75h60q-5 -20 -5 -75v-137h131q51 0 81 5v-57q-12 3 -81 3h-131v-36q0 -213 -57.5 -323t-218.5 -183l-44 41q57 23 96 46t74 59t55.5 82.5t32.5 113.5t12 156v44h-313 v-177q0 -14 0.5 -33.5t1.5 -33.5t1 -15h-58q5 20 5 82v177h-122q-18 0 -40.5 -0.5t-38 -1.5t-16.5 -1zM748 742l36 12q34 -61 63 -140l-38 -13q-28 79 -61 141zM845 772l37 12q32 -60 63 -140l-38 -13q-37 99 -62 141z" />
<glyph unicode="&#x30b7;" d="M119 488l29 43q41 -22 113 -66t101 -65l-30 -45q-110 80 -213 133zM167 37q184 32 333 118q243 142 372 362l32 -51q-64 -100 -162.5 -193.5t-215.5 -162.5q-138 -83 -329 -125zM268 712l28 43q103 -60 212 -141l-32 -43q-32 26 -99.5 72t-108.5 69z" />
<glyph unicode="&#x30b8;" d="M108 479l28 43q41 -22 113.5 -66t100.5 -65l-29 -45q-110 80 -213 133zM155 28q184 32 333 118q244 141 373 362l31 -51q-63 -100 -161.5 -193.5t-215.5 -162.5q-137 -82 -330 -125zM256 703l29 43q39 -23 109.5 -70.5t101.5 -70.5l-31 -43q-32 26 -100 71.5t-109 69.5z M670 716l38 18q59 -84 95 -157l-40 -19q-40 86 -93 158zM796 763l38 18q52 -66 98 -155l-40 -19q-43 88 -96 156z" />
<glyph unicode="&#x30b9;" d="M114 33q221 88 413 303q53 60 104.5 146t71.5 152h-419q-14 0 -35.5 -1t-38 -2t-17.5 -1v59q30 -5 91 -5h405q39 0 58 6l33 -26q-13 -18 -18 -33q-28 -72 -76 -156.5t-99 -147.5q151 -130 299 -306l-43 -38q-136 172 -289 306q-193 -207 -400 -299z" />
<glyph unicode="&#x30ba;" d="M94 19q221 88 413 303q53 60 104.5 146t71.5 152h-419q-71 0 -91 -4v60q36 -6 91 -6h405q39 0 58 6l33 -26q-12 -14 -18 -33q-28 -72 -76 -156.5t-99 -147.5q76 -66 159 -151.5t140 -154.5l-43 -38q-131 167 -289 306q-193 -206 -400 -299zM712 786l38 17q48 -68 83 -137 l-39 -18q-32 68 -82 138zM819 821l37 17q48 -64 86 -136l-39 -18q-41 82 -84 137z" />
<glyph unicode="&#x30bb;" d="M67 452q53 6 252 44v188q0 50 -5 79h62q-6 -43 -6 -79v-178q313 60 422 85q31 7 42 15l37 -29q-8 -12 -20 -32q-111 -194 -204 -290l-45 27q55 51 108.5 127t80.5 132q-3 -1 -63.5 -13t-168 -33.5t-189.5 -38.5v-317q0 -56 32 -76t124 -20q163 0 310 28l-3 -56 q-139 -21 -316 -21q-115 0 -156.5 31.5t-41.5 100.5v320q-207 -42 -241 -50z" />
<glyph unicode="&#x30bc;" d="M55 435q53 6 252 44v189q0 44 -6 78h63q-6 -34 -6 -78v-179q328 64 421 86q25 4 43 14l37 -29q-9 -11 -20 -32q-116 -197 -204 -290l-46 28q55 51 108 126t82 132q-12 -1 -421 -85v-317q0 -55 31.5 -75t123.5 -20q168 0 310 27l-2 -56q-134 -20 -317 -20q-115 0 -156 31 t-41 100v320q-209 -43 -242 -50zM718 766l38 17q42 -59 83 -137l-39 -18q-35 73 -82 138zM823 803l37 17q48 -64 86 -136l-39 -18q-41 82 -84 137z" />
<glyph unicode="&#x30bd;" d="M142 676l49 25q68 -101 165 -278l-49 -28q-28 57 -81 148t-84 133zM277 23q223 90 359 296q97 146 128 340q6 30 6 59l63 -9q-8 -20 -14 -56q-41 -214 -136 -361q-138 -210 -359 -309z" />
<glyph unicode="&#x30be;" d="M126 656l48 25q54 -80 166 -278l-49 -28q-27 53 -80.5 145t-84.5 136zM261 3q99 42 179.5 103t129.5 121.5t86 132.5t54 124.5t28 108.5q8 40 8 58l62 -12q-4 -11 -10 -31t-6 -21q-16 -70 -36.5 -130t-58.5 -133.5t-88 -134t-127 -121t-173 -105.5zM690 803l39 16 q46 -67 82 -132l-40 -19q-31 67 -81 135zM812 829l38 17q43 -59 83 -132l-39 -17q-54 97 -82 132z" />
<glyph unicode="&#x30bf;" d="M108 382q116 71 200 171t122 185q17 30 24 65l59 -20q-1 -2 -34 -64q-15 -30 -33 -59h313q34 0 53 8l45 -26q-10 -18 -17 -42q-48 -168 -152 -313q53 -33 98 -65l-35 -45q-21 17 -95 68q-154 -185 -406 -277l-46 41q122 36 228 106.5t180 157.5q-117 75 -238 142l32 37 q101 -52 238 -137q103 141 144 298h-372q-109 -158 -265 -264z" />
<glyph unicode="&#x30c0;" d="M71 359q117 72 201 171.5t122 184.5q17 34 23 65l59 -20q-2 -3 -34 -64q-15 -30 -33 -59h314q33 0 52 8l45 -26q-11 -19 -17 -43q-45 -166 -152 -312q53 -33 98 -65l-34 -45q-43 34 -96 68q-154 -185 -406 -277l-45 41q122 36 227.5 106.5t179.5 157.5q-129 83 -238 142 l33 37q101 -52 238 -137q50 68 88 148t55 150h-372q-107 -157 -264 -264zM719 780l38 17q45 -64 83 -137l-39 -18q-35 73 -82 138zM824 817l37 17q48 -64 86 -136l-39 -18q-41 82 -84 137z" />
<glyph unicode="&#x30c1;" d="M95 389v56q47 -5 85 -5h313v207q-122 -13 -306 -15l-13 49q149 -8 334 16q183 24 260 56l35 -46q-30 -8 -43 -12q-121 -28 -217 -42v-213h290q33 0 73 4v-55q-29 3 -71 3h-293q-4 -151 -64 -250t-191 -173l-49 36q123 58 185.5 150t68.5 237h-310q-52 0 -87 -3z" />
<glyph unicode="&#x30c2;" d="M67 376v56q38 -4 85 -4h312v206q-110 -13 -305 -15l-13 50q58 -4 156 0.5t177 14.5q184 24 261 56l35 -46q-15 -4 -43 -12q-106 -25 -217 -42v-212h290q43 0 73 3v-55q-28 3 -71 3h-293q-4 -151 -64 -250t-191 -173l-49 36q123 58 185 149.5t68 237.5h-310q-51 0 -86 -3z M708 610l37 17q48 -67 80 -132l-38 -18q-36 76 -79 133zM811 646l36 18q46 -62 82 -131l-37 -19q-36 73 -81 132z" />
<glyph unicode="&#x30c3;" d="M191 497l47 19q35 -75 90 -224l-48 -18q-12 39 -44 120t-45 103zM309 -20q91 28 176 83.5t146 130.5q115 142 143 342l55 -17q-3 -6 -12 -35q-43 -191 -144 -317q-125 -157 -321 -231zM423 549l48 16q56 -136 76 -213l-47 -18q-7 32 -34.5 108t-42.5 107z" />
<glyph unicode="&#x30c4;" d="M116 658l50 19q55 -119 111 -271l-51 -18q-13 44 -53 142t-57 128zM269 20q110 33 213.5 104.5t177.5 166.5q61 79 104.5 187.5t59.5 219.5l59 -17q-5 -12 -13 -44q-54 -227 -167 -374q-74 -99 -178.5 -174.5t-212.5 -111.5zM397 719l48 16q16 -34 50.5 -127.5 t45.5 -131.5l-49 -17q-12 43 -45 134.5t-50 125.5z" />
<glyph unicode="&#x30c5;" d="M97 636l50 19q55 -119 111 -271l-51 -18q-13 44 -53 142t-57 128zM250 -2q110 33 213 104.5t178 166.5q123 159 154 361l59 -15q-5 -12 -13 -44q-56 -198 -157 -330q-75 -99 -179.5 -174.5t-211.5 -111.5zM378 697l48 16q16 -35 50.5 -128t45.5 -131l-49 -17 q-12 43 -45 134.5t-50 125.5zM702 803l38 16q39 -54 82 -132l-39 -19q-35 72 -81 135zM823 829l39 17q44 -62 83 -132l-39 -17q-55 97 -83 132z" />
<glyph unicode="&#x30c6;" d="M102 421v54q39 -3 81 -3h654q37 0 71 3v-54q-40 2 -71 2h-289q-3 -186 -57 -284q-28 -49 -80 -96.5t-114 -79.5l-48 36q62 27 113 68.5t80 90.5q31 51 42 113.5t13 151.5h-314q-54 0 -81 -2zM223 668v56q43 -5 80 -5h407q42 0 85 5v-56q-40 3 -85 3h-405q-47 0 -82 -3z " />
<glyph unicode="&#x30c7;" d="M92 413v55q52 -4 82 -4h654q39 0 70 4v-54q-40 2 -70 2h-289q-3 -184 -58 -284q-28 -49 -80.5 -97t-113.5 -79l-48 36q62 27 113 68.5t80 90.5q31 51 42 113t13 152h-313q-42 0 -82 -3zM213 661v56q43 -5 80 -5h358q51 0 84 5v-56q-39 3 -84 3h-356q-47 0 -82 -3z M745 789l38 17q46 -66 83 -137l-39 -18q-32 68 -82 138zM850 826l37 17q52 -71 86 -136l-39 -18q-39 78 -84 137z" />
<glyph unicode="&#x30c8;" d="M345 764h63q-6 -56 -6 -95v-173q100 -31 224 -79t209 -90l-22 -53q-78 43 -198.5 91t-212.5 76l1 -357q0 -71 5 -106h-62q5 34 5 106v585q0 51 -6 95z" />
<glyph unicode="&#x30c9;" d="M312 751h64q-6 -54 -6 -94v-173q99 -30 222 -78.5t210 -91.5l-22 -53q-77 43 -197.5 91t-212.5 76l1 -356q0 -70 4 -107h-61q4 37 4 107v585q0 60 -6 94zM603 687l38 18q56 -77 91 -150l-40 -19q-36 78 -89 151zM718 734l38 19q51 -68 94 -149l-40 -20q-42 86 -92 150z " />
<glyph unicode="&#x30ca;" d="M104 474v56q28 -4 81 -4h316v149q0 56 -7 89h65q-6 -42 -6 -89v-149h290q55 0 73 3v-54q-12 1 -74 1h-289v-20q0 -168 -66 -286t-206 -197l-51 38q271 130 271 445v20h-314q-69 0 -83 -2z" />
<glyph unicode="&#x30cb;" d="M96 74v62q77 -5 93 -5h614q36 0 79 5v-62q-39 3 -79 3h-614zM184 577v57q84 -3 86 -3h437q51 0 92 3v-57q-27 2 -92 2h-437q-30 0 -86 -2z" />
<glyph unicode="&#x30cc;" d="M148 10q105 31 206 97t177 150q-153 112 -281 179l32 39q123 -64 283 -179q57 72 99.5 161.5t61.5 174.5h-439q-40 0 -94 -2v56q54 -4 94 -4h431q27 0 44 7l36 -29q-13 -22 -21 -48q-25 -91 -71.5 -185t-98.5 -161q100 -74 203 -163l-38 -44q-83 78 -198 166 q-78 -88 -177 -154.5t-203 -104.5z" />
<glyph unicode="&#x30cd;" d="M92 212q232 58 404 171q68 43 130.5 101.5t93.5 101.5h-447q-78 0 -117 -4v57q47 -5 117 -5h209v73q0 59 -5 84h61q-5 -25 -5 -84v-73h191q36 0 52 5l34 -33q-31 -31 -44 -46q-102 -125 -234 -214l-1 -1q0 -43 -0.5 -144t-0.5 -134q0 -39 4 -101h-60q5 52 5 101 q0 31 0.5 120.5t0.5 125.5q-135 -83 -356 -149zM634 300l34 37q122 -66 242 -145l-35 -43q-133 95 -241 151z" />
<glyph unicode="&#x30ce;" d="M158 42q108 38 208.5 109.5t168.5 158.5q67 86 117 197.5t71 220.5l60 -16q-3 -9 -12.5 -35.5t-13.5 -38.5q-81 -233 -180 -361q-68 -88 -169 -162.5t-206 -118.5z" />
<glyph unicode="&#x30cf;" d="M91 41q88 117 152 268q32 74 61.5 179.5t39.5 186.5l56 -11q-10 -31 -15 -57q-1 -5 -8.5 -35t-12 -50t-14 -55t-18 -62.5t-19.5 -59.5t-22 -58q-64 -147 -148 -268zM590 667l51 18q70 -129 145 -310q73 -176 122 -339l-54 -17q-33 128 -119 339q-83 205 -145 309z" />
<glyph unicode="&#x30d0;" d="M80 26q84 110 153 268q32 75 60.5 180t39.5 186l56 -11q-4 -11 -15 -57q-49 -214 -94 -320q-62 -146 -148 -268zM580 652l50 18q76 -141 145 -310q70 -167 122 -338l-54 -17q-33 126 -118 338q-83 205 -145 309zM719 751l38 17q51 -71 83 -137l-39 -18q-35 73 -82 138z M824 789l37 17q57 -78 86 -136l-38 -19q-41 81 -85 138z" />
<glyph unicode="&#x30d1;" d="M80 26q84 110 153 268q32 75 60.5 180t39.5 186l56 -11q-4 -11 -15 -57q-49 -214 -94 -320q-62 -146 -148 -268zM580 652l50 18q76 -141 145 -310q70 -167 122 -338l-54 -17q-33 126 -118 338q-83 205 -145 309zM735 684q0 45 31.5 76.5t75.5 31.5q45 0 76.5 -31.5 t31.5 -76.5t-31.5 -76t-76.5 -31q-44 0 -75.5 31t-31.5 76zM772 684q0 -29 20.5 -50t49.5 -21t50.5 21t21.5 50t-21.5 50.5t-50.5 21.5t-49.5 -21.5t-20.5 -50.5z" />
<glyph unicode="&#x30d2;" d="M242 758h61q-5 -32 -5 -67v-248q244 58 416 134q40 17 76 40l24 -53q-8 -3 -36.5 -15.5t-44.5 -18.5q-167 -69 -435 -141v-240q0 -40 16.5 -56t56.5 -25q59 -9 142 -9q221 0 339 31v-59q-132 -21 -340 -21q-103 0 -156 9q-56 9 -82.5 35.5t-26.5 82.5v554q0 43 -5 67z " />
<glyph unicode="&#x30d3;" d="M202 741h61q-4 -40 -4 -68v-248q226 53 400 128q50 23 76 41l24 -53q-76 -33 -81 -35q-155 -65 -419 -134v-241q0 -40 16 -56t56 -25q59 -9 143 -9q220 0 338 31v-59q-144 -21 -340 -21q-104 0 -155 9q-57 10 -83 36t-26 83v553q0 38 -6 68zM684 751l38 17 q52 -75 83 -137l-39 -18q-35 73 -82 138zM790 788l37 17q55 -76 85 -136l-38 -18q-44 84 -84 137z" />
<glyph unicode="&#x30d4;" d="M202 741h61q-4 -40 -4 -68v-248q226 53 400 128q50 23 76 41l24 -53q-76 -33 -81 -35q-155 -65 -419 -134v-241q0 -40 16 -56t56 -25q59 -9 143 -9q220 0 338 31v-59q-144 -21 -340 -21q-104 0 -155 9q-57 10 -83 36t-26 83v553q0 38 -6 68zM714 690q0 45 31 76.5 t76 31.5q44 0 76 -31.5t32 -76.5q0 -44 -32 -75.5t-76 -31.5q-45 0 -76.5 31.5t-30.5 75.5zM750 690q0 -29 21 -50t50 -21t50 21t21 50t-21 50.5t-50 21.5t-50 -21.5t-21 -50.5z" />
<glyph unicode="&#x30d5;" d="M154 633v58q52 -6 89 -6h524q25 0 39 4l38 -25q-6 -13 -10 -38q-18 -96 -57 -200.5t-92 -171.5q-73 -93 -164 -157t-224 -105l-44 48q137 36 228.5 96t160.5 149q52 67 89.5 167.5t48.5 183.5h-538q-50 0 -88 -3z" />
<glyph unicode="&#x30d6;" d="M145 618v58q52 -6 89 -6h524q25 0 39 4l39 -25q-7 -16 -11 -38q-18 -96 -57 -200.5t-91 -171.5q-74 -93 -165 -157t-224 -105l-44 48q137 36 228.5 96t160.5 149q52 67 90 167.5t49 183.5h-539q-49 0 -88 -3zM715 808l38 17q44 -63 82 -132l-39 -19q-35 71 -81 134z M837 833l39 17q44 -62 83 -132l-39 -17q-55 97 -83 132z" />
<glyph unicode="&#x30d7;" d="M145 618v58q52 -6 89 -6h524h19q-7 17 -7 39q0 45 31 76.5t76 31.5q44 0 76 -31.5t32 -76.5q0 -44 -32 -75.5t-76 -31.5q-27 0 -51 13l-1 -4q-18 -96 -57 -200.5t-91 -171.5q-74 -93 -165 -157t-224 -105l-44 48q137 36 228.5 96t160.5 149q52 67 90 167.5t49 183.5h-539 q-49 0 -88 -3zM806 709q0 -29 21 -49.5t50 -20.5t50 20.5t21 49.5t-21 50.5t-50 21.5t-50 -21.5t-21 -50.5z" />
<glyph unicode="&#x30d8;" d="M73 270q11 9 64 60q29 29 107.5 125t93.5 114q38 45 68.5 47.5t80.5 -37.5q47 -37 209 -209q169 -182 239 -265l-40 -44q-25 33 -58.5 72t-58.5 66.5t-62 69t-53 58.5q-144 160 -202 207q-34 28 -50 26.5t-44 -35.5q-25 -29 -96 -117t-96 -118q-11 -13 -30.5 -37.5 t-23.5 -29.5z" />
<glyph unicode="&#x30d9;" d="M64 251q31 27 64 60q22 22 57 64t79.5 96.5t63.5 77.5q38 45 68.5 48t81.5 -37q56 -45 208 -209q170 -183 240 -265l-41 -44q-25 33 -58.5 72.5t-57.5 66t-63 69.5t-53 59q-139 154 -201 206q-34 28 -50.5 26.5t-44.5 -35.5q-15 -19 -89.5 -111t-102.5 -124 q-11 -13 -30.5 -37.5t-23.5 -29.5zM641 651l39 18q53 -73 95 -157l-41 -19q-40 88 -93 158zM767 699l39 19q54 -72 97 -156l-40 -20q-47 95 -96 157z" />
<glyph unicode="&#x30da;" d="M64 251q31 27 64 60q22 22 57 64t79.5 96.5t63.5 77.5q38 45 68.5 48t81.5 -37q56 -45 208 -209q170 -183 240 -265l-41 -44q-25 33 -58.5 72.5t-57.5 66t-63 69.5t-53 59q-139 154 -201 206q-34 28 -50.5 26.5t-44.5 -35.5q-15 -19 -89.5 -111t-102.5 -124 q-11 -13 -30.5 -37.5t-23.5 -29.5zM656 593q0 48 34 82t82 34q49 0 83 -34t34 -82t-34 -82t-83 -34q-48 0 -82 34t-34 82zM693 593q0 -33 23.5 -56t55.5 -23q33 0 56 23t23 56t-23 56t-56 23q-32 0 -55.5 -23t-23.5 -56z" />
<glyph unicode="&#x30db;" d="M98 145q48 44 106 123.5t87 139.5l45 -22q-29 -60 -87.5 -141t-104.5 -131zM120 544v56q36 -4 78 -4h293v116q0 36 -6 62h61q-4 -28 -4 -62v-116h283q40 0 72 4v-54q-24 1 -71 1h-284v-496q0 -37 -17.5 -54t-57.5 -17q-69 0 -130 7l-4 53q66 -12 118 -12q40 0 40 40v479 h-292q-40 0 -79 -3zM703 382l43 24q38 -45 90 -123t85 -138l-48 -27q-32 62 -82 141t-88 123z" />
<glyph unicode="&#x30dc;" d="M73 131q49 44 106.5 123t86.5 140l45 -22q-29 -60 -87.5 -141t-104.5 -131zM96 530v56q43 -5 77 -5h293v117q0 34 -6 62h61q-4 -28 -4 -62v-117h283q32 0 72 5v-55q-24 2 -71 2h-284v-496q0 -37 -17 -54t-58 -17q-60 0 -130 6l-4 54q66 -12 118 -12q40 0 40 40v479h-292 q-40 0 -78 -3zM678 368l44 23q38 -45 89 -122t85 -138l-48 -27q-31 61 -81 140t-89 124zM706 762l38 17q48 -68 82 -135l-39 -18q-34 72 -81 136zM818 791l36 17q54 -73 86 -135l-39 -18q-42 80 -83 136z" />
<glyph unicode="&#x30dd;" d="M73 131q49 44 106.5 123t86.5 140l45 -22q-29 -60 -87.5 -141t-104.5 -131zM96 530v56q43 -5 77 -5h293v117q0 34 -6 62h61q-4 -28 -4 -62v-117h283q32 0 72 5v-55q-24 2 -71 2h-284v-496q0 -37 -17 -54t-58 -17q-60 0 -130 6l-4 54q66 -12 118 -12q40 0 40 40v479h-292 q-40 0 -78 -3zM678 368l44 23q38 -45 89 -122t85 -138l-48 -27q-31 61 -81 140t-89 124zM706 732q0 44 31 75.5t75 31.5t75 -31.5t31 -75.5q0 -43 -31 -74t-75 -31t-75 30.5t-31 74.5zM742 732q0 -29 20.5 -49t49.5 -20t49.5 20.5t20.5 48.5q0 29 -20.5 49.5t-49.5 20.5 t-49.5 -20.5t-20.5 -49.5z" />
<glyph unicode="&#x30de;" d="M111 610v59q47 -5 94 -5h621q35 0 47 5l42 -33q-10 -10 -20 -24q-153 -248 -376 -415q123 -123 179 -193l-46 -36q-45 62 -175 196q-45 45 -120 109t-114 91l41 33q84 -60 197 -164q115 84 208.5 191.5t138.5 189.5h-623q-56 0 -94 -4z" />
<glyph unicode="&#x30df;" d="M167 139l20 48q133 -21 309 -65.5t273 -84.5l-22 -49q-91 42 -267 86t-313 65zM223 433l20 48q341 -62 494 -119l-22 -49q-83 33 -231.5 68.5t-260.5 51.5zM270 694l19 48q104 -14 263 -49t249 -66l-21 -50q-88 33 -244 67.5t-266 49.5z" />
<glyph unicode="&#x30e0;" d="M81 90q37 -1 84 2q9 0 63 5q34 84 99 279.5t94 292.5q15 58 17 85l65 -14q-26 -68 -30 -81q-26 -89 -90 -282t-97 -275q261 23 499 55q-75 144 -132 219l47 22q53 -75 123 -202t99 -199l-53 -24q-22 61 -60 137q-451 -54 -641 -71q-32 -3 -77 -9z" />
<glyph unicode="&#x30e1;" d="M123 20q236 113 407 326q-157 128 -289 208l33 40q169 -110 288 -207q93 127 151 294q13 35 19 63l58 -20q-3 -6 -27 -63q-66 -180 -160 -307q176 -150 252 -235l-40 -42q-91 104 -244 235q-182 -221 -404 -331z" />
<glyph unicode="&#x30e2;" d="M121 357v56q36 -4 85 -4h213v235h-146q-36 0 -86 -2v53q38 -3 86 -3h471q46 0 79 3v-53q-46 2 -79 2h-274v-235h358q44 0 75 3v-54q-42 2 -74 2h-359v-228q0 -85 135 -85q142 0 265 14l-2 -53q-156 -11 -268 -11q-181 0 -181 118v245h-213q-46 0 -85 -3z" />
<glyph unicode="&#x30e3;" d="M162 367q27 2 77 11q15 2 137 25q-26 96 -36 127q-11 39 -21 54l57 14q0 -1 4.5 -21.5t8.5 -35.5q2 -7 13.5 -50.5t21.5 -78.5q302 56 369 72q15 3 31 10l32 -23q-30 -61 -95.5 -146t-118.5 -134l-46 24q50 42 103 106.5t83 114.5q-66 -12 -346 -68q94 -337 106 -375 q2 -7 9 -28.5t11 -31.5l-57 -15q-1 23 -12 64q-11 38 -104 376l-214 -42z" />
<glyph unicode="&#x30e4;" d="M74 503l92 12l168 31q-31 113 -43 152q-14 47 -25 67l60 15q1 -9 15 -69l43 -155q402 75 447 86q23 4 35 11l36 -25q-35 -71 -113 -171.5t-141 -157.5l-52 26q59 47 127.5 129t102.5 140q-84 -15 -429 -84q110 -399 128 -459q11 -36 23 -68l-60 -15q-6 37 -16 70 q-4 13 -26 95t-50 185.5t-49 181.5q-201 -39 -258 -53z" />
<glyph unicode="&#x30e5;" d="M153 23v54q34 -3 74 -3h385q12 68 31 198t20 169h-345q-25 0 -69 -2v55q44 -4 68 -4h332q27 0 35 4l40 -19q-5 -18 -5 -24q-11 -110 -54 -377h120q31 0 67 2v-52q-16 1 -64 1h-561q-24 0 -74 -2z" />
<glyph unicode="&#x30e6;" d="M84 69v60q35 -5 81 -5h473q17 90 41.5 260t25.5 219h-422q-43 0 -85 -3v58q56 -6 84 -6h400q25 0 44 7l44 -20q-4 -10 -6 -25q-17 -168 -71 -490h152q35 0 77 5v-60q-26 4 -77 4h-680q-42 0 -81 -4z" />
<glyph unicode="&#x30e7;" d="M216 -6v54q34 -4 80 -4h416v205h-385q-44 0 -78 -2v53q60 -4 77 -4h386v193h-393q-11 0 -47.5 -1t-42.5 -1v52q22 -3 90 -3h390q13 0 30.5 0.5t22.5 0.5q-1 -9 -1 -40v-497q0 -19 2 -45h-52q1 8 1 41h-415q-19 0 -47 -1t-34 -1z" />
<glyph unicode="&#x30e8;" d="M159 30v57q38 -4 98 -4h509v258h-470q-53 0 -97 -2v56q50 -5 95 -5h472v244h-482q-59 0 -110 -3v56q36 -4 110 -4h474q31 0 61 2q-1 -12 -1 -48v-603q0 -20 2 -52h-55q1 12 1 52h-508q-59 0 -99 -4z" />
<glyph unicode="&#x30e9;" d="M148 450v57q48 -6 86 -6h546q30 0 45 6l38 -23q-8 -14 -11 -23q-41 -175 -144 -288q-130 -141 -358 -204l-40 46q220 44 355 188q47 50 80.5 117t47.5 133h-559q-38 0 -86 -3zM236 676v55q33 -4 81 -4h399q51 0 80 4v-55q-22 2 -81 2h-398q-29 0 -81 -2z" />
<glyph unicode="&#x30ea;" d="M236 270q4 28 4 70v332q0 46 -4 69h60q-3 -25 -3 -69v-332q0 -48 3 -70h-60zM382 12q159 44 238 138q53 63 69 140t16 240v140q0 41 -5 78h60q-3 -33 -3 -78v-141q0 -126 -10.5 -202.5t-30 -120t-57.5 -91.5q-72 -91 -235 -147z" />
<glyph unicode="&#x30eb;" d="M81 20q128 90 177 249q30 98 30 407q0 33 -6 61h60q-4 -32 -4 -61q0 -307 -31 -422q-47 -163 -178 -267zM536 21q6 19 6 46v608q0 23 -4 67h59q-3 -17 -3 -67v-609q83 39 172 110t146 157l31 -44q-63 -87 -155.5 -159.5t-187.5 -119.5q-13 -6 -29 -19z" />
<glyph unicode="&#x30ec;" d="M238 27q7 15 7 40v589q0 48 -6 78h64q-6 -34 -6 -77v-596q161 39 319.5 133.5t247.5 213.5l30 -44q-95 -120 -245.5 -211.5t-342.5 -143.5q-26 -9 -32 -12z" />
<glyph unicode="&#x30ed;" d="M157 0q2 34 2 109v496q0 44 -1 66q38 -2 80 -2h528q55 0 82 2q-2 -22 -2 -66v-495q0 -80 2 -110h-56q0 4 0.5 13t1 22.5t0.5 23.5h-584q0 -10 0.5 -31.5t1.5 -27.5h-55zM210 108h584v511h-584v-511z" />
<glyph unicode="&#x30ee;" d="M197 260q3 16 3 45v172q0 19 -2 49q19 -2 82 -2h456q24 0 36 5l36 -24q-5 -11 -8 -29q-29 -223 -105 -326q-112 -153 -305 -217l-43 43q188 48 299 195q79 105 99 306h-495v-172q0 -4 0.5 -20t0.5 -25h-54z" />
<glyph unicode="&#x30ef;" d="M145 688q24 -2 97 -2h535q28 0 44 4l40 -25q-7 -12 -10 -34q-12 -86 -20.5 -134t-31.5 -119.5t-55 -121.5q-60 -95 -159 -168.5t-219 -110.5l-43 42q119 33 216 100t159 163q78 121 97 355h-594v-221q0 -32 2 -53h-57q2 21 2 53v215q0 29 -3 57z" />
<glyph unicode="&#x30f0;" d="M95 186v56q36 -5 82 -5h137v314h-100q-23 0 -83 -2v54q37 -4 83 -4h423v91q0 30 -4 66h57q-3 -42 -3 -66v-91h123q27 0 77 4v-54q-26 2 -77 2h-123v-314h149q34 0 76 5v-56q-25 3 -76 3h-149v-117q0 -50 3 -95h-57q4 46 4 93v119h-460q-37 0 -82 -3zM364 237h273v314 h-273v-314z" />
<glyph unicode="&#x30f1;" d="M87 47v59q39 -4 84 -4h286v374q0 39 -2 59h58q-4 -28 -4 -59v-374h334q27 0 79 4v-59q-27 3 -79 3h-672q-39 0 -84 -3zM143 617v57q60 -4 98 -4h562q33 0 49 6l35 -26q-2 -2 -9.5 -12.5t-11.5 -16.5q-36 -62 -94.5 -130.5t-122.5 -119.5l-46 33q60 39 115.5 99t88.5 118 h-564z" />
<glyph unicode="&#x30f2;" d="M172 646v59q42 -7 96 -7h511q28 0 43 4l43 -27q-6 -13 -10 -31q-46 -271 -115 -377q-73 -109 -171.5 -180.5t-237.5 -117.5l-42 45q261 63 405 274q26 40 49 107h-460q-45 0 -85 -3v55q50 -4 84 -4h476q26 89 42 206h-532q-36 0 -96 -3z" />
<glyph unicode="&#x30f3;" d="M157 44q220 34 409 156q103 68 187.5 165.5t127.5 190.5l31 -53q-120 -221 -316 -347q-189 -122 -406 -164zM184 679l35 37q52 -35 131.5 -99t120.5 -104l-39 -39q-44 43 -120 107t-128 98z" />
<glyph unicode="&#x30f4;" d="M129 315q4 17 4 52v178q0 50 -4 71q52 -4 89 -4h226v103q0 33 -4 65h61q-5 -30 -5 -65v-103h254q43 0 59 7l36 -23q-7 -18 -12 -49q-30 -192 -101 -310q-55 -94 -153.5 -164.5t-234.5 -108.5l-42 48q35 5 80 21q87 25 169 85t129 135q39 64 65.5 152.5t33.5 158.5h-596 v-198q0 -32 3 -51h-57zM699 792l38 17q48 -68 83 -137l-39 -18q-35 73 -82 138zM811 819l37 17q51 -68 85 -136l-38 -18q-47 90 -84 137z" />
<glyph unicode="&#x30f5;" d="M182 -15q23 11 70 45q148 117 178 375h-160q-58 0 -84 -2v53q50 -4 83 -4h165q3 45 3 94q0 33 -4 58h56q-1 -5 -3 -55q-1 -36 -5 -97h232q23 0 45 4l33 -19q-4 -28 -4 -39q-2 -54 -6 -119.5t-16.5 -153.5t-29.5 -122q-24 -44 -79 -44q-62 0 -138 6l-5 50q66 -9 133 -9 q35 0 48 25q22 45 33 164.5t11 209.5h-262q-20 -172 -79 -276.5t-170 -180.5z" />
<glyph unicode="&#x30f6;" d="M141 248q75 53 151 177q35 59 53 127q8 29 9 52l59 -13q-11 -27 -17 -49q-18 -53 -41 -101h421q50 0 72 3v-53q-34 3 -72 3h-161q-20 -326 -252 -466l-53 36q33 11 72 41q170 132 183 389h-235q-28 -48 -68.5 -97.5t-72.5 -76.5z" />
<glyph unicode="&#x30fb;" d="M406 380q0 39 27.5 66.5t66.5 27.5t66.5 -27.5t27.5 -66.5t-27.5 -66.5t-66.5 -27.5t-66.5 27.5t-27.5 66.5z" />
<glyph unicode="&#x30fc;" d="M108 353v62q52 -4 127 -4h554q62 0 102 4v-62q-54 3 -101 3h-555q-87 0 -127 -3z" />
<glyph unicode="&#x30fd;" d="M310 531l45 34q87 -76 195 -195.5t177 -213.5l-48 -36q-64 97 -170 214.5t-199 196.5z" />
<glyph unicode="&#x30fe;" d="M285 528l45 35q87 -77 195 -196t177 -213l-48 -37q-64 97 -170 214.5t-199 196.5zM532 663l40 18q42 -59 94 -150l-43 -19q-50 97 -91 151zM659 704l41 18q48 -69 93 -149l-42 -19q-56 105 -92 150z" />
<glyph unicode="&#x4e00;" d="M49 364v53h906v-53h-906z" />
<glyph unicode="&#x4e01;" d="M66 684v48h868v-48h-378v-663q0 -35 -12 -51t-39 -24q-37 -9 -227 -9q-5 22 -23 53q136 -4 215 -1q18 1 25.5 7.5t7.5 23.5v664h-437z" />
<glyph unicode="&#x4e03;" d="M55 427l293 49v343h49v-336l539 91l9 -48l-548 -92v-347q0 -44 17.5 -59.5t72.5 -15.5h290q48 0 63 32.5t22 138.5q20 -16 49 -24q-9 -115 -33.5 -154.5t-102.5 -39.5h-286q-82 0 -111.5 25t-29.5 99v338l-284 -48z" />
<glyph unicode="&#x4e07;" d="M44 -43q60 31 108 75.5t80 91t55 109t35.5 114t20.5 123t10 119t4 118.5h-291v46h869v-46h-529q-4 -143 -14 -230h446q-1 -19 -1 -26q-14 -252 -30 -356.5t-45 -134.5q-22 -26 -74 -29q-80 -2 -176 6q-2 26 -17 47q78 -8 178 -8q35 -1 47 12q25 22 39.5 120t27.5 323 h-401q-51 -373 -306 -508q-14 19 -36 34z" />
<glyph unicode="&#x4e08;" d="M70 583v47h512q2 59 2 189h51q0 -129 -2 -189h299v-47h-300q-7 -157 -34.5 -265t-93.5 -187q161 -127 446 -161q-19 -23 -29 -45q-289 42 -451 171q-119 -113 -366 -165q-10 25 -28 42q243 50 356 156q-144 137 -208 387l44 12q59 -234 197 -363q61 72 86 172.5t30 245.5 h-511z" />
<glyph unicode="&#x4e09;" d="M68 7v48h864v-48h-864zM127 687v48h750v-48h-750zM187 359v48h612v-48h-612z" />
<glyph unicode="&#x4e0a;" d="M57 22h384v794h50v-320h385v-47h-385v-427h453v-48h-887v48z" />
<glyph unicode="&#x4e0b;" d="M59 711v48h883v-48h-436v-192l10 12q93 -44 198 -105.5t167 -106.5l-31 -42q-142 105 -344 207v-556h-50v783h-397z" />
<glyph unicode="&#x4e0d;" d="M53 248q152 80 282.5 203.5t208.5 260.5h-470v48h853v-48h-324q-28 -50 -79 -122v-662h-50v600q-167 -200 -389 -319q-19 26 -32 39zM566 495l34 31q97 -59 196.5 -132.5t153.5 -128.5l-36 -36q-54 55 -153.5 131t-194.5 135z" />
<glyph unicode="&#x4e0e;" d="M59 202v46h654q12 82 20 169h-458q-7 -31 -15 -57l-49 6q55 184 110 469l48 -5q-13 -68 -32 -149h505v-46h-515q-17 -76 -40 -172h499q-1 -19 -2 -27q-15 -135 -23 -188h183v-46h-189q-32 -202 -81 -247q-25 -25 -80 -28q-71 -2 -184 7q-2 27 -17 47q94 -8 188 -8 q40 0 53 11q43 38 72 218h-647z" />
<glyph unicode="&#x4e11;" d="M58 363v47h265q24 184 36 306h-220v47h633q-8 -170 -20 -353h192v-47h-195q-14 -211 -28 -357h211v-47h-864v47h195q29 172 54 357h-259zM311 6h360q15 138 31 357h-339q-26 -202 -52 -357zM369 410h336q11 169 17 306h-315q-21 -175 -38 -306z" />
<glyph unicode="&#x4e14;" d="M58 18h162v754h568v-754h155v-47h-885v47zM267 18h472v205h-472v-205zM267 269h472v209h-472v-209zM267 523h472v202h-472v-202z" />
<glyph unicode="&#x4e16;" d="M55 531v46h154v231h48v-231h217v253h47v-253h220v240h48v-240h159v-46h-159v-332h-48v47h-220v-54h-47v339h-217v-477h658v-47h-658v-80h-48v604h-154zM521 292h220v239h-220v-239z" />
<glyph unicode="&#x4e18;" d="M57 19h162v696l46 -12q347 49 504 111l42 -39q-177 -65 -543 -115v-192h629v-46h-211v-403h259v-47h-888v47zM268 19h370v403h-370v-403z" />
<glyph unicode="&#x4e19;" d="M72 714v47h857v-47h-409v-169h368v-543q0 -28 -8.5 -42t-30.5 -21q-30 -9 -174 -9q-5 21 -19 50q101 -4 161 -1q13 1 18 5.5t5 17.5v497h-322q-6 -58 -16 -94q78 -59 159 -130.5t126 -122.5l-35 -35q-43 50 -116.5 118.5t-146.5 125.5q-61 -162 -255 -261q-14 21 -35 36 q77 37 131 83t81.5 95t40 92t16.5 93h-306v-572h-47v618h355v169h-398z" />
<glyph unicode="&#x4e1e;" d="M44 174q95 51 171.5 141.5t115.5 206.5h-260v44h280l10 3l28 -15q-40 -140 -122.5 -246t-187.5 -169q-14 21 -35 35zM83 16h832v-45h-832v45zM184 742v44h569l11 3l32 -23q-100 -103 -244 -186q34 -76 86 -146q131 89 223 182l41 -31q-118 -104 -240 -183 q128 -161 295 -223q-22 -17 -34 -40q-125 54 -230 161.5t-169 244.5v-396q0 -27 -8 -39.5t-29 -18.5q-31 -9 -174 -9q-2 17 -17 46q106 -3 158 0q14 1 18.5 5t4.5 16v461h47v-1q101 58 182 133h-522z" />
<glyph unicode="&#x4e21;" d="M64 714v46h873v-46h-421v-155h370v-567q0 -26 -7.5 -39t-27.5 -20q-25 -7 -159 -7q-10 31 -20 46q107 -3 146 -1q21 1 21 22v520h-323v-347h153v249h45v-357h-45v64h-347v-73h-43v366h43v-249h147v347h-305v-587h-46v633h351v155h-405z" />
<glyph unicode="&#x4e26;" d="M58 23h310v549h-280v48h828v-48h-291v-549h318v-48h-885v48zM139 452l43 12q40 -76 70 -166.5t38 -156.5l-46 -11q-8 67 -37.5 156.5t-67.5 165.5zM223 814l41 17q76 -93 109 -176l-45 -21q-29 84 -105 180zM415 23h163v549h-163v-549zM624 645q66 89 108 187l49 -17 q-61 -116 -115 -188zM693 142q66 137 121 333l50 -14q-78 -227 -129 -333z" />
<glyph unicode="&#x4e2d;" d="M103 196v455h370v181h49v-181h372v-450h-49v61h-323v-334h-49v334h-323v-66h-47zM150 309h323v295h-323v-295zM522 309h323v295h-323v-295z" />
<glyph unicode="&#x4e32;" d="M114 55v307h359v97h-321v255h321v119h49v-119h323v-255h-323v-97h368v-305h-50v42h-318v-171h-49v171h-311v-44h-48zM162 143h311v174h-311v-174zM201 503h272v167h-272v-167zM522 143h318v174h-318v-174zM522 503h273v167h-273v-167z" />
<glyph unicode="&#x4e38;" d="M35 -39q213 99 294 326q-98 68 -197 120l34 32q87 -46 178 -106q29 99 39 236h-294v47h296q4 72 4 214h49q0 -118 -4 -214h309v-585q0 -26 7 -33.5t30 -7.5h109q24 0 31.5 33.5t9.5 148.5q20 -16 46 -23q-4 -123 -19.5 -164.5t-64.5 -41.5h-117q-47 0 -64 18t-17 71v537 h-263q-10 -150 -44 -264q123 -86 183 -146l-38 -37q-60 63 -161 135q-84 -228 -298 -332q-13 21 -38 36z" />
<glyph unicode="&#x4e39;" d="M42 -43q145 135 162 388h-146v47h148q1 18 1 52v331h595v-383h141v-47h-141v-342q0 -31 -10 -46.5t-33 -21.5q-35 -9 -193 -9q-9 30 -20 49q114 -4 179 -1q16 1 22.5 7t6.5 21v343h-503q-19 -278 -174 -422q-13 19 -35 34zM253 392h501v337h-500v-285q0 -34 -1 -52z M375 635l36 28q132 -95 210 -185l-39 -32q-31 38 -90 92t-117 97z" />
<glyph unicode="&#x4e3b;" d="M61 10h414v276h-323v47h323v247h-366v47h784v-47h-368v-247h330v-47h-330v-276h419v-48h-883v48zM392 800l37 26q50 -36 101 -83.5t79 -83.5l-40 -28q-55 73 -177 169z" />
<glyph unicode="&#x4e43;" d="M44 -37q67 62 116 135.5t74.5 138t39.5 143t17.5 132t3.5 123.5v78h-200v47h600q-15 -145 -31 -262h256q-1 -20 -2 -27q-14 -257 -31 -367t-47 -141q-27 -28 -76 -28q-52 -3 -176 4q-4 29 -17 48q78 -7 178 -7q35 0 49 12q25 24 41 128t29 332h-210q-6 -42 -12 -75l-48 4 q21 117 42 332h-297v-78q0 -73 -3.5 -130.5t-18.5 -140t-41.5 -150.5t-77 -145.5t-120.5 -141.5q-13 19 -38 36z" />
<glyph unicode="&#x4e45;" d="M42 345q100 82 179.5 209.5t129.5 278.5l50 -12q-27 -76 -64 -157h285l11 3l32 -16q-32 -133 -89 -250q54 -146 155 -262.5t228 -170.5q-23 -21 -34 -41q-121 56 -218.5 166.5t-158.5 254.5q-161 -287 -458 -426q-19 31 -36 41q195 86 340.5 251t208.5 403h-290 q-94 -185 -229 -306q-21 21 -42 34z" />
<glyph unicode="&#x4e4b;" d="M39 -46q51 66 103 161t85 177l45 -19q-14 -33 -34 -74q28 -61 70 -101q136 83 277.5 219.5t227.5 262.5h-711v47h372v204h49v-204h324l10 4l35 -23q-88 -140 -242 -292t-306 -249q110 -76 356 -76q218 0 256 1q-16 -22 -20 -48h-238q-190 0 -304 43t-180 162 q-64 -124 -130 -220z" />
<glyph unicode="&#x4e4d;" d="M47 418q84 74 157.5 184.5t123.5 233.5l48 -12q-37 -89 -81 -167h640v-47h-472v-169h418v-46h-418v-177h431v-47h-431v-244h-49v683h-147q-79 -128 -176 -222q-23 20 -44 30z" />
<glyph unicode="&#x4e4e;" d="M60 309v49h423v357q-179 -15 -344 -20q-1 17 -12 43q490 19 691 74l27 -42q-114 -30 -313 -51v-361h410v-49h-410v-308q0 -32 -11 -47t-35 -22q-28 -8 -200 -8q-8 25 -22 49q134 -4 188 -2q17 2 24 8t7 22v308h-423zM179 640l42 14q79 -135 103 -228l-44 -17 q-28 102 -101 231zM676 427q71 116 119 242l49 -18q-74 -156 -130 -242z" />
<glyph unicode="&#x4e4f;" d="M55 -38q44 51 90.5 128t74.5 142l44 -18q-7 -15 -26 -52q21 -42 54 -75q133 63 267.5 169t217.5 209h-656v46h352v201q-192 -16 -354 -22q-1 17 -12 43q506 20 726 75l39 -40q-126 -30 -351 -52v-205h293l9 3l36 -24q-87 -118 -233.5 -238.5t-295.5 -195.5 q56 -38 138 -52.5t202 -15.5q251 0 291 1q-15 -21 -19 -47h-272q-183 0 -288.5 36.5t-167.5 137.5q-63 -109 -116 -180z" />
<glyph unicode="&#x4e57;" d="M47 2q102 30 207 87t174 122h-327v44h156v137h-198v44h198v134h-147v44h364v109q-143 -13 -339 -20q0 23 -11 41q484 20 688 70l35 -40q-115 -27 -325 -47v-113h378v-44h-155v-134h197v-44h-197v-137h163v-44h-339q69 -69 174.5 -127.5t209.5 -87.5q-19 -17 -34 -42 q-108 37 -217.5 103t-179.5 142v-273h-48v271q-70 -72 -179 -136t-214 -98q-16 25 -34 39zM304 255h170v137h-170v-137zM304 436h170v134h-170v-134zM522 255h176v137h-176v-137zM522 436h176v134h-176v-134z" />
<glyph unicode="&#x4e59;" d="M95 81q0 31 14 60.5t67.5 93.5t179 178t327.5 285h-587v48h652l12 4l34 -23q-1 -1 -12 -8q-216 -182 -351.5 -303.5t-193.5 -186t-74.5 -93t-16.5 -52.5q0 -35 35.5 -53t95.5 -18h502q56 0 74.5 39t23.5 165q19 -12 50 -18q-9 -143 -38.5 -189t-111.5 -46h-492 q-94 0 -142 30.5t-48 86.5z" />
<glyph unicode="&#x4e5d;" d="M42 -35q86 40 147.5 98.5t97 133t53 151.5t25.5 174h-280v49h283q5 82 5 252h50q0 -149 -5 -252h302v-543q0 -24 7.5 -31.5t33.5 -7.5h123q23 0 29.5 25.5t8.5 115.5q22 -15 46 -22q-3 -98 -19 -132t-63 -34h-129q-50 0 -68 17.5t-18 69.5v493h-256q-8 -103 -26.5 -184.5 t-55.5 -161t-100.5 -142.5t-153.5 -107q-10 15 -37 38z" />
<glyph unicode="&#x4e5e;" d="M43 495q77 59 143 148.5t107 190.5l49 -13q-30 -71 -62 -121h642v-47h-671q-73 -111 -166 -192q-11 13 -42 34zM153 37q0 24 11.5 46t54 66.5t145 119.5t266.5 182h-437v47h518l11 2l35 -23q-6 -6 -13 -9q-147 -95 -251 -167t-159.5 -114.5t-86 -73t-37.5 -44.5t-7 -28 q0 -49 102 -49l498 -1q45 0 59.5 28t18.5 123q14 -9 47 -18q-7 -113 -32 -146.5t-96 -33.5h-488q-159 0 -159 93z" />
<glyph unicode="&#x4e5f;" d="M37 415l189 57v293h47v-279l239 74v271h47v-257l260 79l5 5l11 8l34 -16l-3 -10q-5 -291 -35 -371q-24 -62 -79 -67q-61 -4 -114 -1q-2 26 -13 46q39 -3 109 -3q20 0 33.5 9.5t23.5 38.5q24 65 27 315l-259 -80v-393h-47v379l-239 -73v-358q0 -53 24 -71.5t97 -18.5h383 q70 0 91.5 35.5t31.5 153.5q21 -15 46 -20q-11 -127 -42.5 -170.5t-130.5 -43.5h-373q-101 0 -137.5 28t-36.5 110v341l-176 -54z" />
<glyph unicode="&#x4e71;" d="M46 506v45h239v172q-92 -15 -206 -27q-3 16 -15 40q308 34 435 85l40 -38q-82 -28 -207 -52v-180h233v-45h-233v-188h184v-369h-47v46h-320v-50h-46v373h182v188h-239zM149 39h320v235h-320v-235zM620 47v775h48v-777q0 -36 9 -46.5t40 -10.5h141q30 0 39 35.5t13 153.5 q23 -18 43 -22q-5 -125 -22 -168t-72 -43h-144q-56 0 -75.5 20.5t-19.5 82.5z" />
<glyph unicode="&#x4e73;" d="M42 233q24 2 102.5 8.5t127.5 10.5v98h23q73 45 133 104h-342v44h386l11 3l33 -25q-78 -84 -197 -156v-64l231 21v-47l-231 -22v-218q0 -24 -7 -35.5t-25 -18.5q-23 -7 -132 -7q-4 19 -18 46q57 -1 117 -1q18 1 18 16v213q-40 -3 -115 -10t-108 -10zM44 757 q308 24 443 72l31 -40q-152 -52 -460 -72q-2 11 -14 40zM72 672l40 11q38 -74 49 -142l-43 -13q-8 67 -46 144zM245 703l41 7q25 -83 28 -149l-43 -7q-3 68 -26 149zM378 524q60 81 110 191l44 -20q-63 -116 -117 -188zM587 52v764h48v-766q0 -38 11 -50t46 -12h162 q34 0 44 36.5t15 155.5q18 -14 44 -22q-4 -87 -12 -129t-28 -63t-61 -21h-167q-60 0 -81 21.5t-21 85.5z" />
<glyph unicode="&#x4e7e;" d="M48 112v45h207v101h-156v316h156v100h-195v44h195v115h47v-115h189v-44h-189v-100h162v-316h-162v-101h199v-45h-199v-184h-47v184h-207zM143 298h275v99h-275v-99zM143 436h275v97h-275v-97zM468 506q101 118 155 327l48 -9q-20 -78 -48 -145h331v-45h-350 q-43 -94 -95 -159q-13 13 -41 31zM524 15q0 26 11 53.5t73.5 116.5t182.5 235h-250v45h296l12 1l32 -13q-4 -8 -7 -11q-132 -160 -201 -252.5t-83.5 -121t-14.5 -47.5q0 -33 57 -33h236q27 0 35.5 27t10.5 125q15 -11 44 -17q-4 -81 -13.5 -119.5t-26 -50.5t-51.5 -12h-233 q-110 0 -110 74z" />
<glyph unicode="&#x4e80;" d="M50 594q93 48 164 112.5t111 127.5l51 -10q-11 -17 -37 -51h248l9 2l3 -2h1v-1l27 -17q-23 -47 -64 -97h263v-272h-307v-55h359v-280h-359v-22q0 -34 13.5 -45t61.5 -11h250q35 0 45.5 20.5t15.5 90.5q19 -13 45 -18q-6 -79 -26.5 -106t-80.5 -27h-249q-72 0 -97 19.5 t-25 77.5v21h-294v-59h-47v339h341v55h-299v233q-42 -30 -89 -55q-15 20 -34 30zM178 89h294v84h-294v-84zM178 210h294v83h-294v-83zM219 424h253v81h-253v-81zM219 541h253v79h-253v-79zM224 658h282q31 36 55 75h-257q-46 -47 -80 -75zM519 89h313v84h-313v-84zM519 210 h313v83h-313v-83zM519 424h260v81h-260v-81zM519 541h260v79h-260v-79z" />
<glyph unicode="&#x4e86;" d="M98 703v47h730l11 3l37 -26q-64 -75 -161 -151t-191 -127v-450q0 -30 -10 -44.5t-35 -19.5q-28 -8 -200 -8q-4 19 -20 48q146 -5 188 -1q16 1 22 6t6 19v495h39q70 40 143.5 97t127.5 112h-687z" />
<glyph unicode="&#x4e88;" d="M59 419v46h549q-151 83 -323 161l27 34q58 -25 194 -90q126 69 231 164h-586v46h633l12 3l35 -26q-107 -109 -277 -211q36 -17 121 -62l-13 -19h235l10 3l38 -18q-120 -170 -190 -234l-39 25q75 71 147 178h-333v-420q0 -27 -8.5 -40t-30.5 -19q-29 -8 -173 -8 q-4 17 -18 46q105 -3 158 0q14 1 18.5 5t4.5 16v420h-422z" />
<glyph unicode="&#x4e89;" d="M50 349v45h420v133h-289v44h296q61 55 114 135h-273q-94 -111 -208 -185q-22 24 -37 33q92 57 164.5 133t113.5 149l54 -10q-16 -27 -52 -76h269l9 3l35 -24q-50 -82 -128 -158h307v-177h110v-45h-110v-245h-48v58h-279v-166q0 -27 -9.5 -41t-32.5 -20q-34 -9 -174 -9 q-6 20 -21 48q53 -2 163 -2q15 2 20.5 6.5t5.5 17.5v166h-330v46h330v141h-420zM518 208h279v141h-279v-141zM518 394h279v133h-279v-133z" />
<glyph unicode="&#x4e8b;" d="M56 215v42h417v86h-325v40h325v86h-295v163h295v70h-400v42h400v88h48v-88h410v-42h-410v-70h309v-163h-309v-86h323v-126h104v-42h-104v-178h-47v46h-276v-89q0 -29 -9 -42.5t-29 -19.5q-28 -8 -162 -8q-5 20 -18 44q98 -3 145 0q14 1 19.5 6t5.5 19v90h-335v40h335v92 h-417zM225 507h248v86h-248v-86zM521 123h276v92h-276v-92zM521 257h276v86h-276v-86zM521 507h261v86h-261v-86z" />
<glyph unicode="&#x4e8c;" d="M59 36v51h883v-51h-883zM145 637v50h711v-50h-711z" />
<glyph unicode="&#x4e91;" d="M62 397v48h878v-48h-496q-88 -222 -163 -359q175 4 527 18q-78 110 -170 209l42 21q75 -76 147 -170t108 -164l-46 -27q-18 35 -51 87q-402 -19 -769 -30l-5 50q115 2 164 4q91 167 156 361h-322zM168 702v49h668v-49h-668z" />
<glyph unicode="&#x4e92;" d="M58 19h582q15 89 28 192h-403q-2 -11 -7 -30.5t-6 -23.5l-50 6q64 237 119 554h-229v46h822v-46h-543q-24 -124 -33 -166h418q-35 -342 -66 -532h254v-46h-886v46zM276 256h398q10 79 28 250h-373q-38 -185 -53 -250z" />
<glyph unicode="&#x4e94;" d="M59 -14v47h230q35 141 78 358h-199v47h208q18 90 45 247h-295v47h741v-47h-395q-8 -45 -25 -136.5t-21 -110.5h345v-405h171v-47h-883zM341 33h381v358h-305q-43 -222 -76 -358z" />
<glyph unicode="&#x4e95;" d="M68 259v47h224q6 50 6 131v132h-196v48h196v211h49v-211h310v211h49v-211h206v-48h-206v-263h228v-47h-228v-332h-49v332h-321q-16 -107 -67 -192t-153 -151q-12 15 -38 34q175 112 208 309h-218zM342 306h315v263h-310v-132q0 -79 -5 -131z" />
<glyph unicode="&#x4e98;" d="M59 14h884v-45h-884v45zM88 718v46h828v-46h-828zM212 137v469h584v-469h-584zM259 181h488v170h-488v-170zM259 394h488v168h-488v-168z" />
<glyph unicode="&#x4e99;" d="M58 19h582q40 207 74 501h-366q-66 -275 -100 -393l-52 3q77 249 146 586h-251v45h823v-45h-521q-25 -106 -35 -151h410q-42 -336 -79 -546h254v-46h-885v46zM346 239l30 34q149 -67 224 -136l-31 -37q-34 32 -98.5 72t-124.5 67zM399 423l30 32q123 -56 190 -118 l-32 -36q-65 63 -188 122z" />
<glyph unicode="&#x4e9b;" d="M49 360l72 8v351h46v-345l107 13v445h48v-183h172v-45h-172v-210l178 23l1 -45q-315 -43 -445 -60zM63 1h875v-47h-875v47zM174 177v47h667v-47h-667zM556 428v404h48v-211q168 58 247 112l41 -36q-105 -59 -288 -121v-149q0 -24 11 -32t48 -8h186q33 0 42.5 25t13.5 113 q16 -13 45 -21q-5 -98 -24 -130.5t-75 -32.5h-189q-62 0 -84 18t-22 69z" />
<glyph unicode="&#x4e9c;" d="M56 17h297v201h-178v-42h-46v383h224v159h-267v46h830v-46h-283v-159h234v-380h-49v39h-185v-201h312v-46h-889v46zM175 264h178v250h-178v-250zM400 17h186v201h-186v-201zM400 264h186v250h-186v-250zM400 559h186v159h-186v-159zM633 264h185v250h-185v-250z" />
<glyph unicode="&#x4ea1;" d="M55 583v48h420v202h49v-202h421v-48h-717v-477q0 -51 26.5 -72.5t91.5 -21.5h421q89 0 140 8q5 -32 9 -48q-29 -7 -148 -7h-416q-91 0 -131.5 32.5t-40.5 110.5v475h-125z" />
<glyph unicode="&#x4ea4;" d="M47 -31q268 58 418 183q-105 105 -166 259l45 15q54 -142 158 -241q105 101 158 247l50 -14q-60 -159 -172 -266q165 -136 420 -179q-20 -20 -33 -46q-259 49 -424 192q-154 -128 -423 -196q-7 18 -31 46zM62 373q78 42 151 103.5t119 126.5l47 -18q-49 -69 -125 -136 t-154 -116q-20 25 -38 40zM66 647v47h408v140h49v-140h412v-47h-869zM630 573l40 30q76 -51 153.5 -114.5t118.5 -112.5l-41 -34q-41 50 -118 115.5t-153 115.5z" />
<glyph unicode="&#x4ea5;" d="M56 -31q255 58 451.5 174.5t304.5 277.5l43 -25q-89 -131 -232 -234q192 -112 299 -202l-43 -34q-106 91 -297 207q-212 -141 -498 -209q-10 25 -28 45zM64 647v46h411v141h49v-141h416v-46h-440l11 -6q-96 -109 -217 -207q85 -64 123 -100q164 104 253 231l42 -23 q-93 -130 -250.5 -233.5t-346.5 -162.5q-17 30 -31 41q158 46 289 121q-91 89 -231 174l34 30q42 -26 82 -53q112 94 192 188h-386z" />
<glyph unicode="&#x4ea6;" d="M34 197q123 109 184 290l48 -11q-65 -187 -189 -307q-15 12 -43 28zM65 604v47h410v182h49v-182h412v-47h-274v-606q0 -28 -9 -42t-30 -21q-29 -8 -167 -8q-6 25 -19 50q72 -2 152 -2q14 1 19 5.5t5 17.5v606h-193v-127q0 -62 -4 -111t-19 -113.5t-41.5 -117.5 t-75.5 -110.5t-116 -104.5q-10 14 -35 34q64 45 110.5 99.5t71.5 104.5t39.5 110.5t18 106t3.5 102.5v127h-307zM741 469l41 17q57 -73 107 -161.5t70 -152.5l-45 -21q-20 64 -69 154.5t-104 163.5z" />
<glyph unicode="&#x4ea8;" d="M64 688v44h410v102h49v-102h412v-44h-871zM104 284v43h723l12 3l36 -29q-132 -88 -346 -145v-171q0 -25 -8 -37t-31 -17q-33 -9 -193 -7q-3 14 -18 43q151 -4 177 -1q15 1 19.5 5t4.5 15v210h42q136 36 237 88h-655zM211 409v205h589v-205h-589zM258 449h493v125h-493 v-125z" />
<glyph unicode="&#x4eab;" d="M59 127v44h416v69h33q124 30 220 74h-578v42h650l12 3l34 -28q-120 -75 -322 -124v-36h419v-44h-419v-143q0 -24 -8 -36t-29 -17q-24 -6 -171 -6q-5 17 -18 40q104 -3 154 0q14 1 18.5 5t4.5 14v143h-416zM66 695v43h408v96h49v-96h410v-43h-867zM198 429v191h609v-191 h-609zM246 469h512v110h-512v-110z" />
<glyph unicode="&#x4eac;" d="M58 -6q57 41 109.5 99t80.5 112l49 -16q-35 -60 -90 -121t-112 -102q-17 17 -37 28zM70 660v46h404v128h49v-128h410v-46h-863zM198 275v280h615v-280h-290v-284q0 -25 -8.5 -38t-29.5 -18q-31 -9 -176 -7q-9 28 -18 44q106 -3 160 0q14 1 18.5 5t4.5 14v284h-276z M246 319h518v192h-518v-192zM696 181l43 22q130 -127 195 -218l-45 -25q-72 106 -193 221z" />
<glyph unicode="&#x4ead;" d="M65 697v43h409v98h49v-98h413v-43h-871zM84 173v190h836v-190h-46v149h-744v-149h-46zM192 190v43h626v-43h-294v-202q0 -26 -8 -38t-31 -17q-26 -7 -186 -7q-3 15 -19 44q134 -5 171 -1q15 1 19.5 5t4.5 14v202h-283zM204 436v191h597v-191h-597zM252 475h500v113h-500 v-113z" />
<glyph unicode="&#x4eae;" d="M48 -36q82 15 135.5 37.5t86 59.5t47 81.5t20.5 111.5h50q-14 -148 -79.5 -221.5t-233.5 -107.5q-7 18 -26 39zM65 697v43h409v98h49v-98h413v-43h-871zM84 181v174h836v-174h-46v132h-744v-132h-46zM205 428v196h597v-196h-597zM252 468h501v118h-501v-118zM587 5v246 h49v-246q0 -20 10 -26t44 -6h157q29 0 37.5 22.5t11.5 104.5q19 -14 44 -19q-5 -92 -22 -121t-66 -29h-166q-59 0 -79 14.5t-20 59.5z" />
<glyph unicode="&#x4eba;" d="M42 -27q396 192 425 809q1 11 1 16h51l-2 -36q2 -35 7 -73.5t18.5 -105t33 -128t54.5 -135t79 -134.5t110.5 -117.5t145.5 -92.5q-24 -18 -37 -40q-81 38 -149 98t-113 124t-80.5 141t-55 141.5t-33.5 133.5q-12 -70 -29.5 -134t-51 -139.5t-77 -139t-111 -123.5 t-149.5 -102q-12 18 -37 37z" />
<glyph unicode="&#x4ec0;" d="M44 410q80 77 151 187.5t117 231.5l45 -13q-41 -104 -106 -215v-673h-47v599q-66 -97 -129 -161q-16 29 -31 44zM325 432v47h293v346h49v-346h283v-47h-283v-505h-49v505h-293z" />
<glyph unicode="&#x4ec1;" d="M47 411q79 76 149 187t116 233l47 -13q-49 -122 -113 -231v-657h-48v583q-55 -83 -119 -146q-10 22 -32 44zM321 7v49h621v-49h-621zM381 609v49h514v-49h-514z" />
<glyph unicode="&#x4ec7;" d="M45 419q71 76 134.5 185t103.5 227l46 -14q-45 -119 -102 -222v-669h-47v590q-45 -71 -105 -141q-15 27 -30 44zM260 -43q124 84 176 230.5t64 358.5h-190v46h192q3 78 3 241h48q0 -137 -4 -241h246v-551q0 -47 9 -53q8 -4 23 -4h40q19 0 28 6q11 6 14 31q5 33 5 121 q17 -15 40 -22q0 -99 -8 -129q-7 -29 -25 -41q-20 -11 -50 -11h-51q-34 0 -52 14q-13 9 -17 27.5t-4 71.5v494h-200q-6 -106 -19.5 -190.5t-40.5 -167.5t-75 -149.5t-115 -113.5q-11 18 -37 32z" />
<glyph unicode="&#x4eca;" d="M43 426q129 77 247 190.5t179 216.5h46q77 -108 202 -218.5t243 -177.5q-19 -16 -33 -40q-119 72 -240.5 180.5t-191.5 206.5q-61 -96 -178 -206t-244 -189q-11 19 -30 37zM155 277v46h618l9 3l36 -12q-87 -196 -189 -391l-49 13q69 127 169 341h-594zM279 467v46h444 v-46h-444z" />
<glyph unicode="&#x4ecb;" d="M47 425q131 72 247 184.5t175 222.5h48q74 -118 196 -225.5t244 -168.5q-9 -9 -32 -42q-122 67 -241 173t-188 214q-61 -104 -175.5 -212.5t-243.5 -182.5q-12 22 -30 37zM80 -40q69 39 114 85t65 98.5t26.5 95t6.5 99.5v148h48v-149q0 -62 -7 -109.5t-28.5 -104 t-68.5 -106.5t-120 -91q-11 16 -36 34zM655 -71v561h49v-561h-49z" />
<glyph unicode="&#x4ecf;" d="M27 406q84 76 160 187.5t125 232.5l46 -13q-50 -118 -113 -218v-665h-47v594q-67 -93 -139 -162q-12 22 -32 44zM288 39l105 8q50 148 106 363t92 392l51 -9q-93 -420 -202 -742q61 5 430 37q-64 153 -138 284l42 15q62 -108 119.5 -232.5t81.5 -207.5l-47 -20 q-17 58 -42 119q-395 -39 -587 -57z" />
<glyph unicode="&#x4ed4;" d="M26 406q85 76 160.5 187.5t124.5 232.5l46 -13q-48 -115 -112 -217v-666h-47v596q-69 -98 -140 -164q-12 22 -32 44zM288 350v47h319v151h31q114 73 200 169h-460v45h500l11 3l33 -23q-49 -60 -123 -123t-145 -108v-114h307v-47h-307v-350q0 -29 -9 -43t-31 -21 q-35 -8 -184 -8q-9 33 -19 49q41 -1 170 -1q15 1 20.5 6t5.5 18v350h-319z" />
<glyph unicode="&#x4ed5;" d="M27 409q86 76 161.5 187.5t124.5 232.5l45 -13q-49 -116 -113 -219v-668h-47v599q-70 -96 -138 -162q-15 25 -33 43zM308 461v46h297v312h48v-312h308v-46h-308v-444h291v-47h-613v47h274v444h-297z" />
<glyph unicode="&#x4ed6;" d="M23 417q77 75 146 184.5t114 227.5l44 -13q-45 -113 -107 -218v-670h-47v597q-58 -86 -121 -150q-7 18 -29 42zM273 410l129 50v280h47v-262l177 68v286h46v-268l187 73l8 6l10 9l33 -14l-3 -10q0 -332 -15 -386q-12 -56 -61 -61q-34 -5 -95 -3q-4 27 -14 45q16 -1 86 -1 q16 0 25 7t15 27q14 48 14 332l-190 -73v-374h-46v355l-177 -68v-373q0 -43 17.5 -57.5t71.5 -14.5h289q46 0 60.5 28.5t21.5 121.5q21 -16 46 -21q-5 -54 -10.5 -83t-19.5 -51.5t-37 -30.5t-62 -8h-286q-81 0 -109.5 23.5t-28.5 93.5v354l-111 -43z" />
<glyph unicode="&#x4ed8;" d="M46 406q80 77 150 188t116 232l46 -14q-46 -118 -112 -229v-654h-48v580q-61 -89 -121 -147q-9 20 -31 44zM342 559v48h419v214h48v-214h135v-48h-135v-555q0 -34 -11 -49.5t-36 -21.5q-34 -10 -203 -8q-7 23 -21 49q135 -4 192 -2q18 2 24.5 8t6.5 23v556h-419zM415 414 l41 20q103 -149 158 -249l-43 -27q-56 109 -156 256z" />
<glyph unicode="&#x4ed9;" d="M26 423q79 74 149 181.5t116 225.5l44 -14q-43 -111 -106 -213v-673h-47v600q-61 -87 -126 -152q-13 21 -30 45zM354 -60v619h46v-484h204v728h48v-728h214v484h47v-611h-47v81h-466v-89h-46z" />
<glyph unicode="&#x4edd;" d="M36 391q132 82 251.5 205.5t178.5 236.5h51q76 -119 202 -238.5t248 -191.5q-12 -13 -35 -44q-123 79 -245 196t-191 225q-63 -107 -180.5 -226.5t-246.5 -201.5q-10 16 -33 39zM106 5h368v313h-280v49h614v-49h-283v-313h365v-49h-784v49z" />
<glyph unicode="&#x4ee3;" d="M29 403q90 75 170.5 186t131.5 232l45 -15q-51 -113 -116 -212v-666h-49v598q-77 -101 -152 -166q-15 29 -30 43zM315 487l268 32q-16 147 -23 300h48q6 -158 21 -294l310 37l8 -44l-313 -38q64 -485 235 -499q23 -1 38 44t24 138q18 -15 41 -23q-15 -118 -39 -167 t-62 -47q-79 5 -137 77.5t-91.5 188t-55.5 282.5l-265 -32zM713 780l33 23q116 -86 180 -161l-37 -26q-69 82 -176 164z" />
<glyph unicode="&#x4ee4;" d="M43 454q130 70 248 175t179 204h46q78 -104 202 -206t243 -162q-15 -13 -33 -41q-119 66 -240 166.5t-192 194.5q-62 -92 -178.5 -194.5t-243.5 -174.5q-10 17 -31 38zM133 301v46h699v-287q0 -22 -7 -34t-25 -19q-26 -8 -151 -8q-2 16 -18 45q101 -3 133 -1q20 1 20 18 v240h-320v-374h-48v374h-283zM288 488v45h426v-45h-426z" />
<glyph unicode="&#x4ee5;" d="M43 81q32 13 140 60l-14 642l48 2l13 -623q66 28 226 100l11 -46q-242 -111 -406 -183zM272 -36q108 39 188 93t136 122t94 161.5t61 198.5t38 246l51 -5q-41 -348 -138 -528q176 -172 262 -286l-41 -35q-71 100 -246 279q-118 -187 -366 -286q-18 23 -39 40zM374 685 l41 20q50 -55 94.5 -121.5t64.5 -116.5l-45 -24q-18 50 -62 118t-93 124z" />
<glyph unicode="&#x4eee;" d="M26 424q79 74 149 181.5t116 224.5l45 -14q-41 -104 -107 -214v-672h-47v600q-61 -87 -126 -152q-10 19 -30 46zM286 -48q70 100 93 231t23 286v311h537v-46h-490v-223h431l10 2l29 -13q-53 -226 -188 -377q104 -106 236 -154q-16 -15 -33 -40q-131 53 -235 160 q-107 -104 -247 -163q-15 24 -32 39q142 57 247 159q-121 142 -185 341h-33q0 -364 -123 -541q-18 18 -40 28zM529 465q59 -179 170 -307q115 130 162 307h-332z" />
<glyph unicode="&#x4ef0;" d="M19 423q79 73 148.5 181t114.5 226l46 -14q-46 -113 -107 -212v-674h-46v603q-61 -89 -126 -155q-16 30 -30 45zM295 127q10 2 32.5 8t34.5 9v563l30 -9q112 66 171 126l49 -28q-93 -73 -205 -134v-505q106 29 186 53l7 -42q-74 -24 -286 -87zM627 -73v805h302v-562 q0 -26 -7 -38.5t-25 -19.5q-25 -9 -147 -9q-3 22 -16 47q85 -3 129 0q12 1 15.5 4.5t3.5 15.5v518h-209v-761h-46z" />
<glyph unicode="&#x4ef2;" d="M42 421q71 75 133 184.5t102 227.5l45 -13q-43 -121 -98 -221v-671h-46v592q-45 -73 -106 -143q-17 31 -30 44zM331 191v432h272v200h48v-200h279v-427h-47v60h-232v-327h-48v327h-226v-65h-46zM377 302h226v276h-226v-276zM651 302h232v276h-232v-276z" />
<glyph unicode="&#x4ef6;" d="M42 417q72 75 136 184.5t106 227.5l46 -13q-46 -120 -101 -219v-669h-47v590q-50 -79 -110 -144q-18 29 -30 43zM315 436q87 117 126 350l46 -9q-15 -80 -38 -155h165v199h48v-199h240v-47h-240v-249h281v-47h-281v-353h-48v353h-297v47h297v249h-179q-39 -107 -79 -166 q-15 13 -41 27z" />
<glyph unicode="&#x4efb;" d="M27 415q85 76 160.5 187t124.5 232l46 -14q-51 -117 -112 -215v-679h-48v607q-67 -93 -139 -162q-13 23 -32 44zM296 354v46h311v290q-82 -15 -261 -39q-3 18 -15 40q382 54 539 111l36 -40q-84 -30 -251 -63v-299h301v-46h-301v-340h282v-46h-604v46h274v340h-311z" />
<glyph unicode="&#x4f01;" d="M45 419q130 77 247 192t177 223h47q76 -114 199.5 -225.5t243.5 -178.5q-17 -14 -33 -40q-121 72 -241.5 182t-188.5 213q-60 -101 -176.5 -213.5t-243.5 -189.5q-9 15 -31 37zM78 2h137v384h47v-384h219v569h49v-245h301v-46h-301v-278h397v-45h-849v45z" />
<glyph unicode="&#x4f0a;" d="M26 422q78 73 148.5 181.5t117.5 226.5l44 -14q-45 -112 -107 -215v-674h-46v604q-64 -91 -126 -153q-14 23 -31 44zM281 477v46h264v192h-190v46h517v-238h81v-46h-81v-296h-47v56h-249q-46 -209 -262 -311q-16 23 -31 38q200 87 245 273h-189v45h198q8 54 8 137v58 h-264zM584 282h241v195h-233v-57q0 -84 -8 -138zM592 523h233v192h-233v-192z" />
<glyph unicode="&#x4f0d;" d="M23 407q77 77 145 188t111 231l46 -13q-40 -104 -95 -203v-682h-47v604q-62 -97 -131 -169q-14 26 -29 44zM293 18h154q29 137 70 374h-174v46h182q31 191 41 266h-223v45h576v-45h-303q-7 -45 -22 -137t-21 -129h282v-420h105v-46h-667v46zM496 18h311v374h-242 q-39 -223 -69 -374z" />
<glyph unicode="&#x4f0e;" d="M22 422q78 75 147.5 183t113.5 225l45 -14q-38 -97 -98 -201v-686h-48v610q-63 -93 -130 -162q-14 25 -30 45zM275 -33q186 49 318 139q-126 117 -193 277l42 15q64 -154 190 -264q143 111 208 267h-522v45h284v177h-299v46h299v163h48v-163h305v-46h-305v-177h215l9 2 l30 -17q-71 -196 -236 -327q131 -99 298 -140q-14 -13 -32 -42q-172 47 -305 153q-136 -96 -324 -149q-11 19 -30 41z" />
<glyph unicode="&#x4f0f;" d="M33 417q77 75 146 184.5t114 228.5l45 -13q-41 -108 -102 -212v-677h-48v600q-61 -90 -124 -155q-16 29 -31 44zM293 -39q261 186 292 520h-274v47h278q2 28 2 83v220h48v-220q0 -55 -2 -83h308v-47h-296q77 -395 308 -513q-22 -16 -37 -41q-211 121 -298 467 q-49 -290 -289 -466q-16 17 -40 33zM730 774l37 21q87 -100 129 -174l-38 -25q-50 85 -128 178z" />
<glyph unicode="&#x4f10;" d="M46 413q79 75 149.5 184.5t116.5 229.5l46 -14q-45 -114 -112 -224v-660h-48v587q-57 -83 -122 -146q-9 22 -30 43zM285 527l267 27q-15 138 -16 268h50q0 -135 14 -263l326 33l4 -45l-324 -33q17 -151 58 -283q109 104 177 242l45 -18q-77 -152 -206 -272 q36 -100 81.5 -154.5t95.5 -54.5q24 0 35.5 39.5t16.5 136.5q22 -18 42 -24q-8 -115 -28 -157.5t-69 -42.5q-125 0 -213 222q-131 -110 -301 -186q-18 28 -35 41q184 73 320 191q-46 138 -67 315l-267 -27zM663 783l30 26q97 -70 179 -142l-31 -32q-55 54 -178 148z" />
<glyph unicode="&#x4f11;" d="M26 413q87 74 162 182.5t123 230.5l47 -14q-46 -112 -113 -217v-666h-48v596q-70 -94 -139 -157q-13 24 -32 45zM268 91q84 62 163 181t129 252h-263v47h298v249h47v-249h307v-47h-269q52 -128 132 -245.5t160 -181.5q-22 -17 -37 -38q-80 70 -160 193t-133 257v-583h-47 v566q-52 -134 -129.5 -251.5t-159.5 -186.5q-21 23 -38 37z" />
<glyph unicode="&#x4f1a;" d="M44 467q129 64 246 164.5t178 200.5h47q77 -109 201 -207t246 -152q-10 -9 -32 -41q-122 59 -243 156t-193 197q-61 -94 -176.5 -191.5t-244.5 -165.5q-10 20 -29 39zM91 282v45h824v-45h-483q-83 -177 -134 -262q217 6 466 17q-80 95 -152 155l39 23q71 -62 138.5 -136 t102.5 -129l-42 -27q-20 32 -51 71q-143 -6 -386.5 -16.5t-304.5 -12.5l-7 49q100 2 143 4q72 122 130 264h-283zM257 473v46h481v-46h-481z" />
<glyph unicode="&#x4f1d;" d="M26 423q79 74 149 181.5t116 225.5l44 -14q-43 -111 -106 -213v-673h-47v600q-61 -87 -126 -152q-13 21 -30 45zM292 20l118 7q70 162 122 375h-228v46h654v-46h-371q-66 -226 -127 -371q176 10 399 28q-57 97 -123 181l40 19q60 -72 114 -160t76 -151l-44 -22 q-13 38 -40 90q-306 -25 -580 -45zM381 703v47h521v-47h-521z" />
<glyph unicode="&#x4f2f;" d="M43 388q79 79 144 194.5t105 246.5l45 -10q-45 -141 -108 -254v-641h-48v561q-46 -71 -107 -137q-16 26 -31 40zM364 -72v721h167q34 85 56 184l54 -12q-46 -133 -62 -172h289v-714h-49v39h-408v-46h-47zM411 22h408v272h-408v-272zM411 341h408v262h-408v-262z" />
<glyph unicode="&#x4f34;" d="M26 423q79 74 149 181.5t116 225.5l44 -14q-43 -111 -106 -213v-673h-47v600q-61 -87 -126 -152q-13 21 -30 45zM288 220v45h303v201h-261v45h261v311h48v-311h274v-45h-274v-201h316v-45h-316v-292h-48v292h-303zM353 764l40 16q68 -107 99 -209l-43 -22 q-29 101 -96 215zM732 565q65 102 110 224l47 -20q-70 -147 -119 -221z" />
<glyph unicode="&#x4f36;" d="M26 423q79 74 149 181.5t116 225.5l44 -14q-43 -111 -106 -213v-673h-47v600q-61 -87 -126 -152q-13 21 -30 45zM257 503q99 58 189.5 148t137.5 175h46q62 -89 156.5 -175.5t185.5 -137.5q-13 -14 -29 -42q-93 58 -185.5 142.5t-147.5 164.5q-51 -81 -139.5 -167 t-185.5 -146q-15 25 -28 38zM305 321v45h579v-272q0 -44 -33 -55q-28 -7 -161 -7q-3 18 -18 45q116 -3 145 0q12 1 16 4t4 13v227h-263v-396h-47v396h-222zM428 498v45h383v-45h-383z" />
<glyph unicode="&#x4f38;" d="M22 418q77 75 146 184t113 227l46 -13q-45 -114 -108 -220v-667h-46v596q-57 -84 -122 -150q-16 28 -29 43zM327 152v523h275v153h47v-153h282v-517h-47v47h-235v-277h-47v277h-229v-53h-46zM373 250h229v170h-229v-170zM373 464h229v166h-229v-166zM649 250h235v170 h-235v-170zM649 464h235v166h-235v-166z" />
<glyph unicode="&#x4f3a;" d="M23 417q77 75 145 184t113 228l45 -13q-44 -114 -107 -220v-668h-47v594q-63 -91 -120 -148q-8 19 -29 43zM331 570v44h455v-44h-455zM342 732v45h572v-775q0 -54 -40 -67q-30 -8 -181 -8q-1 18 -17 49q121 -3 164 -1q15 2 20.5 7.5t5.5 19.5v730h-524zM380 64v388h335 v-317h-290v-71h-45zM425 179h245v229h-245v-229z" />
<glyph unicode="&#x4f3c;" d="M22 418q77 75 146 184t113 227l46 -13q-45 -114 -108 -220v-667h-46v596q-57 -84 -122 -150q-16 28 -29 43zM274 130q53 17 107 36l-6 610h47l6 -594q71 25 209 76l9 -41q-173 -69 -351 -136zM385 -36q94 29 164 67t120.5 92.5t83.5 116.5t54 150.5t31.5 181t16.5 221.5 l50 -2q-10 -209 -36.5 -349t-81.5 -240q132 -155 187 -240l-37 -35q-52 85 -174 235q-107 -158 -345 -241q-8 18 -33 43zM523 683l40 19q103 -128 146 -234l-42 -24q-45 110 -144 239z" />
<glyph unicode="&#x4f3d;" d="M40 411q128 162 203 421l43 -12q-27 -95 -75 -204v-689h-45v597q-44 -86 -99 -156q-6 17 -27 43zM247 -45q83 90 116 241.5t39 374.5h-113v44h114q2 69 2 214h45q0 -76 -2 -214h160v-27q-11 -328 -22 -451t-35 -153q-20 -26 -55 -29q-27 -3 -89 1q-2 29 -13 45 q38 -3 87 -3q22 0 31 15q33 44 50 558h-115q-7 -233 -41 -389.5t-121 -255.5q-13 16 -38 29zM660 -40v753h249v-745h-45v82h-160v-90h-44zM704 95h160v573h-160v-573z" />
<glyph unicode="&#x4f43;" d="M22 417q77 76 146 185t114 227l45 -13q-47 -119 -109 -221v-667h-46v595q-56 -82 -121 -149q-8 22 -29 43zM361 -74v849h548v-840h-48v51h-454v-60h-46zM407 33h199v330h-199v-330zM407 409h199v319h-199v-319zM653 33h208v330h-208v-330zM653 409h208v319h-208v-319z " />
<glyph unicode="&#x4f46;" d="M33 417q78 75 147.5 184.5t114.5 227.5l46 -14q-40 -106 -108 -218v-669h-48v594q-60 -88 -122 -149q-9 25 -30 44zM303 17h658v-46h-658v46zM396 163v594h473v-594h-473zM444 209h375v231h-375v-231zM444 485h375v226h-375v-226z" />
<glyph unicode="&#x4f4d;" d="M26 424q79 74 149 181.5t116 224.5l45 -14q-41 -104 -107 -214v-672h-47v600q-61 -87 -126 -152q-10 19 -30 46zM293 -23v46h356q36 92 76.5 233t64.5 256l51 -10q-77 -305 -146 -479h263v-46h-665zM320 581v46h274v195h48v-195h288v-46h-610zM410 495l43 7 q29 -100 53.5 -218.5t32.5 -194.5l-47 -10q-6 76 -29.5 195.5t-52.5 220.5z" />
<glyph unicode="&#x4f4e;" d="M22 418q77 75 146 184t113 227l46 -13q-45 -114 -108 -220v-667h-46v596q-57 -84 -122 -150q-16 28 -29 43zM298 116q32 4 69 12v595l35 -10q302 35 459 85l40 -37q-87 -27 -211 -49q1 -121 14 -236h248v-45h-243q25 -189 75 -302t107 -112q18 0 26.5 31t12.5 108 q15 -15 40 -24q-6 -93 -23.5 -128t-58.5 -35q-81 0 -139.5 125.5t-86.5 336.5h-248v-295q118 22 261 51l3 -42q-23 -5 -165.5 -34.5t-202.5 -41.5zM325 1h439v-44h-439v44zM414 476h243q-13 120 -16 228q-114 -20 -227 -32v-196z" />
<glyph unicode="&#x4f4f;" d="M26 423q79 74 149 181.5t116 225.5l44 -14q-43 -111 -106 -213v-673h-47v600q-61 -87 -126 -152q-13 21 -30 45zM308 10h304v282h-242v46h242v246h-276v47h604v-47h-280v-246h250v-46h-250v-282h295v-47h-647v47zM479 802l32 33q142 -81 218 -154l-32 -38 q-83 81 -218 159z" />
<glyph unicode="&#x4f50;" d="M26 423q79 74 149 181.5t116 225.5l44 -14q-43 -111 -106 -213v-673h-47v600q-61 -87 -126 -152q-13 21 -30 45zM245 61q166 167 249 515h-204v46h215q19 92 37 205l49 -6q-18 -110 -37 -199h403v-46h-414q-29 -120 -62 -209h454v-45h-223v-317h241v-46h-558v46h269v317 h-188v31q-75 -200 -192 -327q-15 17 -39 35z" />
<glyph unicode="&#x4f51;" d="M26 425q79 74 149 182t117 226l44 -14q-48 -116 -107 -213v-678h-46v606q-64 -91 -126 -153q-10 18 -31 44zM257 157q177 145 266 431h-227v47h240q27 100 42 197l49 -9q-16 -92 -42 -188h371v-47h-384q-38 -124 -90 -222h424v-428h-48v58h-359v-67h-47v384 q-70 -115 -163 -192q-21 26 -32 36zM499 41h359v279h-359v-279z" />
<glyph unicode="&#x4f53;" d="M43 417q67 75 126.5 184t99.5 228l45 -12q-38 -111 -95 -223v-666h-46v585q-43 -72 -100 -139q-8 16 -30 43zM260 131q84 64 162.5 184.5t128.5 255.5h-261v46h299v214h47v-214h312v-46h-272q46 -134 124 -253t162 -181q-14 -12 -37 -39q-85 70 -162.5 195t-126.5 268 v-393h176v-45h-176v-192h-47v192h-184v45h184v392q-51 -143 -129.5 -268t-164.5 -196q-13 20 -35 35z" />
<glyph unicode="&#x4f55;" d="M47 423q69 73 130.5 181.5t101.5 226.5l45 -13q-35 -103 -94 -214v-677h-47v596q-50 -82 -106 -144q-15 27 -30 44zM333 683v46h623v-46h-81v-676q0 -32 -10 -47t-35 -22q-32 -9 -198 -9q-4 18 -20 51q118 -4 188 -1q16 1 22 6.5t6 20.5v677h-495zM373 116v406h300v-333 h-254v-73h-46zM419 233h209v245h-209v-245z" />
<glyph unicode="&#x4f59;" d="M47 486q129 63 245 157.5t178 186.5h46q78 -98 200.5 -189t241.5 -143q-20 -20 -32 -42q-118 57 -238 147.5t-192 180.5q-64 -88 -179 -180.5t-240 -155.5q-11 17 -30 38zM52 2q142 87 227 207l45 -17q-94 -127 -233 -222q-17 19 -39 32zM91 286v45h383v149h-238v45h523 v-45h-236v-149h393v-45h-393v-293q0 -46 -37 -58q-32 -8 -156 -7q-3 21 -19 46q94 -3 141 0q22 1 22 19v293h-383zM664 186l36 27q64 -47 130.5 -108.5t103.5 -106.5l-39 -31q-36 46 -101.5 108t-129.5 111z" />
<glyph unicode="&#x4f5c;" d="M46 418q77 74 146 183t114 228l46 -14q-46 -116 -107 -218v-669h-49v592q-62 -88 -120 -146q-14 28 -30 44zM307 430q139 146 225 389l45 -12q-30 -83 -61 -144h437v-46h-324v-168h304v-45h-304v-175h318v-46h-318v-256h-48v690h-87q-69 -129 -149 -218q-25 22 -38 31z " />
<glyph unicode="&#x4f73;" d="M52 417q69 75 130.5 184t101.5 228l45 -12q-39 -113 -99 -225v-666h-48v583q-44 -70 -100 -135q-11 22 -30 43zM292 14h312v196h-248v47h248v130h48v-130h250v-47h-250v-196h301v-47h-661v47zM327 432v46h277v166h-227v46h227v143h48v-143h235v-46h-235v-166h280v-46 h-605z" />
<glyph unicode="&#x4f75;" d="M26 423q79 74 149 181.5t116 225.5l44 -14q-43 -111 -106 -213v-673h-47v600q-61 -87 -126 -152q-13 21 -30 45zM285 -45q174 108 188 345h-179v47h181v228h-151v46h612v-46h-159v-228h181v-47h-181v-372h-47v372h-210q-16 -258 -202 -380q-11 20 -33 35zM411 811l40 17 q69 -93 93 -174l-44 -22q-21 79 -89 179zM522 347h208v228h-208v-228zM706 649q54 79 99 186l49 -18q-78 -139 -110 -185z" />
<glyph unicode="&#x4f7c;" d="M23 407q77 77 145 188t111 231l46 -13q-40 -104 -95 -203v-682h-47v604q-62 -97 -131 -169q-14 26 -29 44zM275 -37q199 56 318 175q-97 110 -151 261l42 13q50 -139 141 -240q89 105 124 251l50 -12q-45 -163 -142 -273q126 -123 308 -174q-18 -15 -32 -41 q-181 55 -308 181q-122 -121 -325 -180q-13 24 -25 39zM285 384q120 85 191 217l46 -14q-71 -132 -198 -235q-15 17 -39 32zM304 641v45h298v147h48v-147h306v-45h-652zM720 577l38 24q134 -116 198 -210l-40 -26q-29 44 -85 104.5t-111 107.5z" />
<glyph unicode="&#x4f7f;" d="M27 427q79 73 149 181.5t116 226.5l44 -14q-42 -107 -107 -216v-683h-46v612q-60 -86 -125 -151q-14 23 -31 44zM282 -39q151 41 227 117q-102 71 -158 170l41 16q50 -87 146 -152q53 70 65 177h-254v266h258v114h-292v45h292v116h47v-116h301v-45h-301v-114h265v-266 h-270q-12 -124 -72 -203q155 -90 385 -118q-13 -13 -30 -45q-228 34 -384 129q-82 -84 -238 -130q-16 28 -28 39zM394 332h212q1 22 1 66v114h-213v-180zM653 332h220v180h-219v-114q0 -44 -1 -66z" />
<glyph unicode="&#x4f83;" d="M24 421q76 74 144.5 182.5t113.5 226.5l45 -14q-47 -117 -106 -215v-673h-47v598q-58 -86 -120 -149q-7 17 -30 44zM262 -48q57 43 88.5 101.5t38.5 103.5t7 105v101h46v-101q0 -49 -5 -88.5t-19 -86.5t-44.5 -89.5t-77.5 -78.5q-17 23 -34 33zM356 424v354h515v-354 h-515zM402 470h421v263h-421v-263zM583 -30v387h46v-387h-46zM774 29v337h46v-347q0 -36 7 -42q7 -4 20 -4h33q19 0 25 5q9 6 13 31q2 23 4 118q12 -12 38 -21q-4 -110 -9 -126q-6 -29 -23 -39q-15 -9 -45 -9h-44q-34 0 -48 14q-10 8 -13.5 23.5t-3.5 59.5z" />
<glyph unicode="&#x4f8b;" d="M23 411q68 77 126.5 187t97.5 230l45 -12q-30 -90 -80 -196v-693h-46v605q-54 -95 -114 -166q-21 36 -29 45zM249 291q118 140 162 442h-107v45h367v-45h-212q-13 -86 -34 -162h169l8 2l29 -9q-58 -463 -307 -640q-12 20 -35 36q140 96 217 284q-65 65 -154 125 q-32 -63 -72 -110q-10 15 -31 32zM370 407q90 -57 153 -118q38 105 57 238h-167q-17 -59 -43 -120zM683 151v571h45v-571h-45zM719 -26q88 -3 133 0q12 1 17 5.5t5 16.5v823h45v-823q0 -27 -8 -40.5t-27 -20.5q-25 -8 -148 -8q-11 33 -17 47z" />
<glyph unicode="&#x4f8d;" d="M24 418q78 75 147 184t113 227l46 -12q-46 -115 -109 -222v-667h-46v596q-61 -90 -121 -150q-9 23 -30 44zM300 455v45h302v149h-238v45h238v134h48v-134h246v-45h-246v-149h304v-45h-157v-132h151v-45h-151v-281q0 -27 -7.5 -39.5t-27.5 -18.5q-28 -9 -161 -9 q-3 16 -18 47q95 -4 144 -1q13 1 17.5 5t4.5 15v282h-435v45h435v132h-449zM407 214l39 23q90 -97 129 -175l-43 -25q-35 78 -125 177z" />
<glyph unicode="&#x4f9b;" d="M26 418q77 75 146 184t114 227l45 -13q-46 -116 -107 -219v-669h-48v594q-63 -91 -120 -148q-12 26 -30 44zM306 241v47h166v273h-140v47h140v212h47v-212h224v212h47v-212h151v-47h-151v-273h164v-47h-648zM308 -40q52 41 100.5 98t80.5 117l46 -14q-74 -133 -187 -233 q-12 13 -40 32zM519 288h224v273h-224v-273zM720 149l37 22q53 -51 104.5 -112.5t78.5 -106.5l-40 -27q-27 47 -78 110t-102 114z" />
<glyph unicode="&#x4f9d;" d="M19 424q79 74 149 181.5t115 224.5l45 -14q-42 -106 -106 -213v-673h-47v601q-59 -85 -125 -153q-25 40 -31 46zM239 284q97 54 184 135t144 174h-294v46h318v183h48v-183h299v-46h-293q24 -146 68 -271q115 81 199 163l36 -33q-102 -92 -221 -167q91 -228 246 -308 q-22 -20 -34 -41q-248 141 -333 633q-58 -90 -140 -172v-367q181 43 251 60l4 -44q-304 -76 -417 -103l-15 47q73 16 131 30v334q-66 -59 -145 -109q-18 25 -36 39z" />
<glyph unicode="&#x4fa0;" d="M41 424q70 74 132 182.5t103 226.5l45 -13q-45 -123 -101 -224v-671h-47v591q-50 -78 -102 -136q-17 31 -30 44zM266 -35q268 107 315 332h-291v45h298q7 55 7 137v156h-269v45h269v144h48v-144h278v-45h-278v-156q0 -82 -7 -137h310v-45h-301q80 -258 312 -329 q-18 -16 -33 -39q-222 77 -306 320q-65 -214 -321 -323q-12 20 -31 39zM371 574l42 13q57 -104 76 -188l-44 -17q-19 88 -74 192zM727 392q50 84 89 197l47 -18q-71 -151 -98 -195z" />
<glyph unicode="&#x4fa1;" d="M25 424q73 74 137.5 181.5t106.5 224.5l44 -14q-40 -108 -99 -212v-676h-46v600q-56 -86 -114 -148q-11 24 -29 44zM312 685v45h634v-45h-200v-186h191v-552h-47v64h-517v-70h-46v558h183v186h-198zM373 55h139v399h-139v-399zM555 55h145v399h-145v-399zM556 499h144 v186h-144v-186zM743 55h147v399h-147v-399z" />
<glyph unicode="&#x4fad;" d="M35 420q70 74 131.5 183t101.5 228l46 -13q-44 -119 -95 -214v-675h-46v594q-53 -84 -108 -148q-14 25 -30 45zM238 136q146 163 146 479v164h504v-285h-178q41 -109 110.5 -200t149.5 -138q-22 -20 -35 -41q-85 56 -158 157.5t-115 221.5h-238q-23 -243 -148 -385 q-13 14 -38 27zM428 539h412v196h-410v-120q0 -24 -2 -76zM429 145l28 31q77 -38 161.5 -91t133.5 -95l-31 -35q-45 41 -129 95.5t-163 94.5zM471 361l32 29q139 -85 209 -156l-32 -34q-76 79 -209 161z" />
<glyph unicode="&#x4fae;" d="M22 418q77 75 146 184t113 227l46 -13q-45 -114 -108 -220v-667h-46v596q-57 -84 -122 -150q-16 28 -29 43zM266 291v44h123q15 112 26 215h459v-28q-2 -85 -8 -187h102v-44h-104q-6 -118 -13 -178h96v-43h-101q-11 -87 -33 -114q-20 -25 -64 -28q-49 -3 -134 3 q-2 25 -14 43q59 -6 132 -6q29 0 38 14q17 18 28 88h-403l-8 -47l-46 3q20 107 41 265h-117zM283 515q108 120 173 319l46 -12q-21 -59 -47 -118h485v-45h-507q-53 -104 -108 -171q-15 14 -42 27zM403 113h177q8 67 20 178h-170q-16 -112 -27 -178zM436 335h168 q10 96 14 171h-160q-2 -12 -9.5 -74t-12.5 -97zM625 113h179q9 78 14 178h-173q-12 -110 -20 -178zM649 335h171q0 5 3 69t4 102h-162q-1 -8 -6.5 -72t-9.5 -99z" />
<glyph unicode="&#x4faf;" d="M22 418q77 75 146 184t113 227l46 -13q-45 -114 -108 -220v-667h-46v596q-57 -84 -122 -150q-16 28 -29 43zM281 -36q264 77 302 232h-298v44h306q1 13 1 37v114h-168q-41 -77 -80 -123q-19 14 -42 24q86 93 134 248l46 -10q-19 -55 -37 -95h445v-44h-251v-114 q0 -24 -1 -37h312v-44h-304q83 -185 319 -231q-17 -16 -31 -41q-224 52 -314 230q-58 -148 -309 -227q-7 14 -30 37zM295 545v44h469v151h-367v44h414v-195h138v-44h-654z" />
<glyph unicode="&#x4fb5;" d="M22 418q77 75 146 184t113 227l46 -13q-45 -114 -108 -220v-667h-46v596q-57 -84 -122 -150q-16 28 -29 43zM298 -33q164 24 290 88q-102 71 -157 166l35 12h-81v43h433l9 1l31 -15q-55 -123 -182 -207q125 -63 289 -86q-15 -17 -30 -42q-177 30 -303 101 q-130 -72 -309 -104q-11 25 -25 43zM310 253v154h628v-154h-46v113h-537v-113h-45zM356 484v42h470v93h-433v41h433v90h-452v42h499v-308h-517zM477 233q52 -91 155 -154q106 66 158 154h-313z" />
<glyph unicode="&#x4fb6;" d="M26 423q79 74 149 181.5t116 225.5l44 -14q-43 -111 -106 -213v-673h-47v600q-61 -87 -126 -152q-13 21 -30 45zM363 -74v387h217q18 66 33 144h-217v324h498v-324h-228q-4 -16 -12.5 -47t-15 -55t-11.5 -42h306v-380h-47v39h-477v-46h-46zM409 18h477v251h-477v-251z M442 501h404v235h-404v-235z" />
<glyph unicode="&#x4fbf;" d="M45 417q142 158 227 412l45 -12q-40 -116 -98 -227v-662h-46v581q-48 -78 -98 -135q-8 16 -30 43zM266 -38q146 35 225 97q-102 63 -156 156l41 16q50 -85 151 -142q64 66 80 174h-249v365h254v99h-289v44h619v-44h-283v-99h242v-365h-248q-15 -120 -85 -196 q151 -72 391 -91q-18 -18 -29 -44q-242 24 -396 103q-87 -72 -240 -113q-10 24 -28 40zM404 304h207q1 21 1 63v60h-208v-123zM404 466h208v121h-208v-121zM657 304h197v123h-195v-59q0 -42 -2 -64zM659 466h195v121h-195v-121z" />
<glyph unicode="&#x4fc2;" d="M21 408q74 76 139.5 187t108.5 231l45 -13q-39 -105 -94 -207v-679h-47v599q-62 -96 -123 -162q-14 26 -29 44zM277 -3q46 41 89 97.5t67 107.5l45 -14q-69 -131 -166 -217q-17 15 -35 26zM283 318q63 1 166 3q54 48 87 81q-37 38 -95.5 84t-115.5 80l28 30 q23 -14 71 -46q65 68 123 155q-90 -10 -216 -19q-4 23 -13 39q387 31 546 80l35 -38q-103 -31 -296 -55l5 -3q-74 -100 -152 -182q76 -57 111 -94q120 123 192 217l44 -23q-134 -160 -292 -305q116 2 338 8q-54 64 -110 115l36 20q57 -50 111 -112.5t80 -109.5l-37 -23 q-11 20 -47 70q-27 -1 -77 -3t-90.5 -3.5t-75.5 -2.5v-353h-47v352q-158 -6 -303 -9zM755 182l37 21q115 -117 161 -209l-38 -23q-22 44 -67 103.5t-93 107.5z" />
<glyph unicode="&#x4fc3;" d="M23 408q141 160 224 420l45 -12q-33 -100 -79 -196v-694h-47v604q-54 -95 -115 -167q-9 19 -28 45zM255 -47q125 118 154 395l48 -5q-7 -66 -21 -126q47 -146 169 -195v437h-223v325h499v-325h-228v-173h248v-46h-248v-232q56 -13 140 -13h166q-13 -23 -17 -46h-152 q-67 0 -118 8.5t-100 29.5t-87 62t-66 103q-42 -143 -125 -228q-15 17 -39 29zM428 504h405v236h-405v-236z" />
<glyph unicode="&#x4fc4;" d="M23 405q140 159 224 421l45 -12q-28 -89 -80 -199v-689h-46v601q-54 -95 -115 -167q-13 28 -28 45zM256 235q150 39 185 49v190h-175v44h175v185q-56 -15 -159 -37q-1 11 -15 37q224 52 327 103l39 -37q-52 -24 -146 -52v-199h182q-8 133 -10 307h48q0 -177 7 -307h223 v-44h-220q10 -144 31 -264q72 98 116 206l44 -12q-58 -137 -148 -250q44 -181 117 -181q18 0 27 40.5t13 136.5q18 -16 39 -23q-7 -116 -24.5 -159t-60.5 -43q-96 0 -147 186q-73 -83 -160 -146q-17 22 -35 35q104 70 182 163q-26 122 -40 311h-184v-176q95 25 151 42l6 -44 q-97 -30 -157 -46v-253q0 -27 -7.5 -39.5t-25.5 -18.5q-23 -9 -132 -9q-7 28 -18 47q94 -2 118 0q11 0 15 4t4 15v240q-126 -37 -169 -48zM773 781l38 16q81 -106 119 -187l-39 -21q-41 90 -118 192z" />
<glyph unicode="&#x4fca;" d="M22 418q77 75 146 184t113 227l46 -13q-45 -114 -108 -220v-667h-46v596q-57 -84 -122 -150q-16 28 -29 43zM274 -30q180 29 316 109q-81 64 -131 143q-60 -54 -133 -98q-22 22 -39 32q84 44 156 109.5t114 141.5l44 -14q-23 -41 -61 -88h265l10 3l30 -17 q-53 -122 -175 -212q130 -81 295 -109q-17 -17 -31 -43q-175 37 -305 124q-138 -86 -331 -124q-12 28 -24 43zM288 379q100 27 143.5 76.5t55.5 137.5l-184 -8l-4 49q48 1 123 3q68 99 110 197l50 -17q-52 -95 -108 -178q106 3 350 11q-51 54 -101 98l38 24 q55 -47 111 -106.5t86 -101.5l-40 -29q-20 31 -58 74l-148 -6v-150q0 -14 6.5 -18t29.5 -4h112q20 0 25.5 13.5t7.5 68.5q14 -11 41 -17q-4 -65 -17 -86t-51 -21h-121q-48 0 -63 12.5t-15 51.5v147l-133 -5q-13 -102 -61.5 -161t-156.5 -91q-10 22 -28 36zM492 253 q50 -82 139 -148q99 69 148 159h-276z" />
<glyph unicode="&#x4fd7;" d="M22 418q77 75 146 184t113 227l46 -13q-45 -114 -108 -220v-667h-46v596q-57 -84 -122 -150q-16 28 -29 43zM262 309q98 59 187.5 149.5t135.5 175.5h47q62 -89 155.5 -175.5t183.5 -137.5q-22 -30 -29 -43q-92 58 -183.5 143t-146.5 165q-49 -81 -137.5 -168 t-185.5 -147q-11 19 -27 38zM296 605q124 88 195 211l47 -14q-77 -132 -201 -229q-17 19 -41 32zM392 -75v381h460v-374h-48v42h-366v-49h-46zM438 19h366v243h-366v-243zM691 794l37 24q58 -48 117 -107.5t90 -103.5l-39 -29q-70 100 -205 216z" />
<glyph unicode="&#x4fdd;" d="M27 422q78 74 148.5 182.5t116.5 225.5l44 -14q-47 -116 -107 -214v-673h-46v602q-62 -90 -125 -153q-17 29 -31 44zM274 12q81 40 162.5 116.5t134.5 163.5h-272v46h307v144h-228v302h511v-302h-234v-144h293v-46h-258q50 -87 127.5 -163.5t155.5 -117.5 q-22 -22 -34 -38q-76 46 -153.5 127.5t-130.5 171.5v-346h-49v346q-54 -92 -135 -173t-163 -125q-15 22 -34 38zM424 527h417v212h-417v-212z" />
<glyph unicode="&#x4fe1;" d="M26 423q79 74 149 181.5t116 225.5l44 -14q-43 -111 -106 -213v-673h-47v600q-61 -87 -126 -152q-13 21 -30 45zM301 603v43h653v-43h-653zM377 -73v312h503v-309h-48v49h-407v-52h-48zM384 331v43h489v-43h-489zM384 468v43h490v-43h-490zM394 739v42h462v-42h-462z M425 22h407v175h-407v-175z" />
<glyph unicode="&#x4fe3;" d="M41 417q72 75 136 184.5t106 227.5l45 -13q-46 -125 -109 -234v-654h-46v578q-48 -73 -102 -132q-14 24 -30 43zM261 -34q136 30 206.5 84.5t99.5 145.5h-271v45h282q12 51 17 128h-258v45h572v-45h-267q-7 -77 -17 -128h323v-45h-294q82 -177 307 -227q-14 -12 -32 -41 q-113 31 -194.5 96.5t-122.5 161.5q-32 -102 -106.5 -163.5t-217.5 -95.5q-10 22 -27 39zM368 527v256h505v-256h-505zM415 571h410v168h-410v-168z" />
<glyph unicode="&#x4fee;" d="M24 406q140 159 224 420l45 -12q-30 -94 -80 -198v-689h-46v601q-59 -101 -115 -167q-9 19 -28 45zM317 92v628h44v-628h-44zM368 546q130 111 203 288l45 -12q-24 -56 -51 -103h379v-42h-86q-51 -104 -149 -183q114 -74 266 -104q-17 -19 -27 -39q-155 35 -275 117 q-110 -77 -270 -127q-10 19 -29 40q155 41 263 113q-78 62 -127 141q-53 -72 -104 -119q-24 21 -38 30zM411 -28q165 24 294 77t195 130l43 -20q-70 -83 -202.5 -140.5t-303.5 -86.5q-10 23 -26 40zM450 249q170 54 251 136l39 -16q-87 -93 -261 -151q-9 15 -29 31zM467 121 q100 24 189 67.5t139 96.5l39 -16q-52 -59 -142.5 -106t-195.5 -77q-16 22 -29 35zM535 671q49 -87 137 -152q87 69 135 158h-268z" />
<glyph unicode="&#x4ff3;" d="M22 418q77 75 146 184t113 227l46 -13q-45 -114 -108 -220v-667h-46v596q-57 -84 -122 -150q-16 28 -29 43zM268 199q126 31 220 57q5 44 5 110v43h-186v45h186v166h-192v47h192v152h47v-454q0 -61 -4 -107t-17.5 -97.5t-36 -91.5t-61.5 -79t-93 -70q-11 19 -34 34 q85 48 129 112.5t59 147.5q-20 -6 -91 -27.5t-105 -31.5zM687 -73v894h47v-154h211v-47h-211v-166h206v-45h-206v-174h220v-45h-220v-263h-47z" />
<glyph unicode="&#x4ff5;" d="M22 418q77 75 146 184t113 227l46 -13q-45 -114 -108 -220v-667h-46v596q-57 -84 -122 -150q-16 28 -29 43zM247 189q90 35 174 88t142 115h-291v44h317v109h-250v42h250v101h-271v43h271v93h48v-93h297v-43h-297v-101h269v-42h-269v-109h319v-44h-304q27 -106 68 -186 q105 63 180 128l34 -33q-92 -72 -195 -128q89 -151 226 -203q-23 -22 -33 -42q-235 101 -320 451q-56 -61 -135 -117v-248q103 22 231 49l3 -42q-219 -51 -382 -86l-16 46q40 7 118 23v227q-70 -45 -151 -80q-7 15 -33 38z" />
<glyph unicode="&#x4ff8;" d="M22 418q77 75 146 184t113 227l46 -13q-45 -114 -108 -220v-667h-46v596q-57 -84 -122 -150q-16 28 -29 43zM254 248q123 59 202 176h-184v42h209q22 40 43 96h-181v41h195q12 39 22 85h-241v41h249q8 49 15 102h47q-8 -59 -16 -102h308v-41h-316q-10 -46 -22 -85h310 v-41h-184q24 -56 49 -96h197v-42h-169q82 -112 187 -163q-18 -15 -33 -38q-119 65 -207 201h-227q-84 -139 -223 -207q-8 13 -30 31zM342 104v43h254v99h-186v41h186v99h46v-99h188v-41h-188v-99h262v-43h-262v-175h-46v175h-254zM530 466h179q-22 40 -44 96h-94 q-17 -50 -41 -96z" />
<glyph unicode="&#x4ffa;" d="M22 424q78 74 147.5 181.5t113.5 224.5l45 -14q-44 -110 -108 -216v-671h-46v600q-58 -84 -122 -149q-21 35 -30 44zM244 405q149 90 241 251h-202v45h227q30 61 51 129l48 -10q-22 -67 -47 -119h386v-45h-198q39 -75 99.5 -140.5t123.5 -99.5q-25 -25 -32 -37 q-37 22 -76 58v-327h-231v-92q0 -27 10.5 -36t44.5 -9h174q28 0 37 24.5t12 105.5q18 -15 43 -20q-5 -90 -22.5 -121t-68.5 -31h-177q-58 0 -78 17.5t-20 70.5v91h-177v-55h-45v380q-39 -35 -88 -68q-10 13 -35 38zM412 152h177v132h-177v-132zM412 326h177v121h-177v-121z M420 488h169v102h45v-102h181q-69 77 -114 168h-162q-50 -93 -119 -168zM634 152h185v132h-185v-132zM634 326h185v121h-185v-121z" />
<glyph unicode="&#x5009;" d="M43 518q129 58 246.5 145t180.5 170h45q79 -88 202.5 -171.5t241.5 -132.5q-16 -16 -30 -40q-117 53 -239 136.5t-195 163.5q-67 -79 -181 -163h373v-40h-373v40q-122 -89 -243 -146q-12 22 -28 38zM55 -36q151 137 151 407v148h586v-269h-546q-28 -202 -155 -319 q-16 20 -36 33zM251 289h494v78h-491q0 -37 -3 -78zM254 404h491v75h-491v-75zM279 -73v258h551v-256h-48v32h-456v-34h-47zM326 2h456v143h-456v-143z" />
<glyph unicode="&#x500b;" d="M23 415q145 159 229 412l44 -11q-33 -97 -82 -196v-694h-46v609q-57 -96 -116 -164q-15 27 -29 44zM344 -72v839h572v-832h-46v53h-481v-60h-45zM389 32h481v690h-481v-690zM440 523v41h173v120h42v-120h175v-41h-175v-123h126v-266h-290v266h122v123h-173zM531 174h209 v186h-209v-186z" />
<glyph unicode="&#x500d;" d="M22 418q77 75 146 184t113 227l46 -13q-45 -114 -108 -220v-667h-46v596q-57 -84 -122 -150q-16 28 -29 43zM288 398v46h670v-46h-670zM332 667v45h275v121h48v-121h282v-45h-605zM389 -75v366h488v-359h-48v44h-394v-51h-46zM420 635l42 11q48 -100 59 -170l-45 -15 q-11 74 -56 174zM435 21h394v225h-394v-225zM724 470q34 64 69 180l49 -13q-57 -144 -75 -180z" />
<glyph unicode="&#x5012;" d="M23 409q67 76 126 186.5t98 230.5l45 -11q-31 -93 -80 -197v-691h-46v604q-54 -95 -114 -166q-19 32 -29 44zM262 28q55 7 188 28v205h-158v44h158v129h46v-129h150v-44h-150v-197q81 13 175 29l3 -41q-64 -11 -204.5 -35.5t-198.5 -34.5zM270 499l70 4q40 89 78 225 h-127v43h373v-43h-195q-44 -132 -84 -222q112 7 204 15q-29 56 -65 108l35 14q80 -111 111 -207l-38 -16q-8 29 -24 61q-256 -21 -333 -28zM694 168v533h44v-533h-44zM745 -25q26 -1 109 -1q17 1 17 19v822h45v-821q0 -48 -31 -59q-27 -10 -121 -10q-6 25 -19 50z" />
<glyph unicode="&#x5016;" d="M26 423q79 74 149 181.5t116 225.5l44 -14q-43 -111 -106 -213v-673h-47v600q-61 -87 -126 -152q-13 21 -30 45zM276 500v44h324v129h-244v45h244v110h47v-110h249v-45h-249v-129h315v-44h-160l35 -13q-44 -88 -80 -147h185v-44h-295v-132h278v-44h-278v-192h-47v192 h-272v44h272v132h-304v44h186q-14 67 -62 143l42 14q50 -77 64 -141l-39 -16h251l-25 10q39 62 74 150h-511z" />
<glyph unicode="&#x5019;" d="M20 406q68 76 128.5 187.5t99.5 232.5l45 -12q-36 -102 -80 -194v-693h-46v605q-62 -107 -118 -171q-16 30 -29 45zM314 92v630h45v-630h-45zM374 -39q129 44 187.5 104t73.5 132h-242v43h247q1 11 1 31v119h-129q-38 -71 -79 -118q-19 15 -39 26q86 92 130 242l45 -10 q-14 -46 -37 -97h391v-43h-235v-119q0 -20 -1 -31h274v-43h-263q58 -179 267 -232q-13 -11 -31 -39q-194 53 -263 225q-50 -145 -268 -226q-13 22 -29 36zM392 541v43h385v153h-309v43h354v-196h109v-43h-539z" />
<glyph unicode="&#x501f;" d="M22 418q77 75 146 184t113 227l46 -13q-45 -114 -108 -220v-667h-46v596q-57 -84 -122 -150q-16 28 -29 43zM276 455v45h187v159h-143v44h143v120h47v-120h215v120h47v-120h149v-44h-149v-159h191v-45h-687zM388 -75v436h479v-432h-48v45h-384v-49h-47zM435 17h384v132 h-384v-132zM435 190h384v128h-384v-128zM510 500h215v159h-215v-159z" />
<glyph unicode="&#x5023;" d="M23 409q67 76 126 186.5t98 230.5l45 -11q-31 -93 -80 -197v-691h-46v604q-54 -95 -114 -166q-19 32 -29 44zM230 -43q128 189 128 541v107h-100v44h165v174h45v-174h151v-44h-216v-142h175v-27q-8 -256 -17.5 -356t-28.5 -124q-14 -23 -52 -26q-38 -2 -87 1 q-2 29 -13 45q39 -3 85 -3q19 -1 28 11q27 34 40 436h-132q-14 -317 -138 -496q-8 14 -33 33zM564 -37q123 80 192 216q-56 133 -86 327q-25 -67 -50 -110q-24 21 -38 30q83 135 121 408l46 -8q-16 -103 -39 -190h239v-44h-43q-30 -259 -102 -415q66 -139 169 -211 q-8 -7 -34 -39q-97 74 -160 201q-68 -122 -183 -203q-4 7 -32 38zM698 589q24 -213 82 -357q55 136 81 360h-162z" />
<glyph unicode="&#x5024;" d="M22 418q77 75 146 184t113 227l46 -13q-45 -114 -108 -220v-667h-46v596q-57 -84 -122 -150q-16 28 -29 43zM340 -71v604h46v-508h570v-44h-570v-52h-46zM345 680v44h285q6 54 9 109l48 -3q-8 -88 -10 -106h272v-44h-276q-7 -69 -13 -101h225v-461h-394v461h121 q5 32 13 101h-280zM537 158h302v102h-302v-102zM537 299h302v101h-302v-101zM537 439h302v99h-302v-99z" />
<glyph unicode="&#x5026;" d="M22 418q77 75 146 184t113 227l46 -13q-45 -114 -108 -220v-667h-46v596q-57 -84 -122 -150q-16 28 -29 43zM250 233q122 73 199 193h-169v43h195q31 59 54 122h-143v42h157q25 82 45 201l48 -7q-17 -98 -44 -194h263v-42h-146q21 -64 53 -122h192v-43h-166 q74 -117 175 -170q-16 -12 -34 -39q-112 66 -193 209h-232q-84 -141 -218 -229q-14 20 -36 36zM294 611q88 80 133 183l44 -12q-56 -118 -141 -199q-14 16 -36 28zM433 13v294h364v-22q-4 -153 -21 -175q-14 -17 -47 -17q-30 -3 -103 2q-2 26 -12 39q44 -4 98 -4q22 0 27 6 q8 10 12 128h-272v-250q0 -23 13.5 -30t60.5 -7h231q38 0 49 19.5t14 92.5q13 -9 43 -18q-5 -84 -24.5 -111t-78.5 -27h-234q-71 0 -95.5 15.5t-24.5 64.5zM527 469h186q-26 54 -49 122h-86q-23 -66 -51 -122zM754 770l36 22q102 -100 149 -184l-37 -26q-50 90 -148 188z " />
<glyph unicode="&#x502b;" d="M22 418q77 75 146 184t113 227l46 -13q-45 -114 -108 -220v-667h-46v596q-57 -84 -122 -150q-16 28 -29 43zM253 510q99 56 190 142t139 168h47q62 -85 157 -167.5t186 -130.5q-8 -11 -28 -42q-93 54 -186 135t-150 159q-50 -78 -139.5 -161t-188.5 -141q-11 22 -27 38z M339 -73v476h557v-420q0 -38 -26 -48q-19 -7 -110 -7q-3 19 -16 42q44 -1 91 -1q15 1 15 15v177h-132v-221h-42v221h-127v-221h-41v221h-124v-234h-45zM384 205h124v154h-124v-154zM434 512v44h361v-44h-361zM549 205h127v154h-127v-154zM718 205h132v154h-132v-154z" />
<glyph unicode="&#x502d;" d="M22 418q77 75 146 184t113 227l46 -13q-45 -114 -108 -220v-667h-46v596q-57 -84 -122 -150q-16 28 -29 43zM275 -31q202 23 318 83q-85 30 -163 50l-19 -28l-44 15q44 63 100 155h-180v43h206q51 89 54 94l48 -11q-8 -15 -25 -43.5t-24 -39.5h411v-43h-137 q-38 -111 -127 -180q159 -56 245 -103l-34 -37q-94 51 -257 109q-122 -72 -349 -107q-4 17 -23 43zM277 398q76 24 154.5 72.5t130.5 103.5h-261v44h299v109q-127 -13 -240 -17q-8 28 -14 39q348 20 510 59l36 -38q-97 -22 -245 -38v-114h301v-44h-258q47 -53 122 -97.5 t152 -67.5q-17 -14 -35 -39q-79 28 -156.5 79.5t-125.5 110.5v-195h-47v188q-53 -59 -133 -111.5t-159 -82.5q-6 11 -31 39zM453 137q87 -22 190 -55q89 62 125 162h-248q-46 -74 -67 -107z" />
<glyph unicode="&#x5036;" d="M17 423q77 74 145.5 181.5t112.5 224.5l46 -13q-39 -101 -98 -202v-685h-47v610q-63 -93 -129 -161q-21 35 -30 45zM272 -46q67 31 130 76.5t98 89.5l41 -24q-80 -94 -237 -173q-15 18 -32 31zM280 158v45h677v-45h-677zM395 288v498h473v-498h-473zM441 329h380v113 h-380v-113zM441 482h380v113h-380v-113zM441 635h380v110h-380v-110zM713 88l37 27q141 -90 218 -164l-39 -29q-75 75 -216 166z" />
<glyph unicode="&#x5039;" d="M22 418q77 75 146 184t113 227l46 -13q-45 -114 -108 -220v-667h-46v596q-57 -84 -122 -150q-16 28 -29 43zM259 544q99 52 188 130.5t136 155.5h45q62 -81 155 -156t185 -120q-6 -7 -29 -41q-91 48 -182.5 123t-147.5 149q-51 -73 -138.5 -149.5t-184.5 -129.5 q-11 22 -27 38zM279 -36q230 77 284 230h-223v241h243v96h-166v44h388v-44h-175v-96h254v-241h-233q43 -85 122 -144t184 -84q-17 -16 -32 -41q-225 65 -316 257q-57 -168 -300 -256q-8 16 -30 38zM385 236h190q8 40 8 101v56h-198v-157zM623 236h215v157h-208v-56 q0 -61 -7 -101z" />
<glyph unicode="&#x5049;" d="M22 424q78 74 147.5 181.5t113.5 224.5l45 -14q-44 -110 -108 -216v-671h-46v600q-58 -84 -122 -149q-21 35 -30 44zM282 567v42h225q9 31 27 105h-172v41h181q12 54 17 78l48 -5q-15 -67 -16 -73h260v-146h106v-42h-676zM287 47v41h125v110h-92v41h330v74h-277v195h499 v-195h-175v-74h234v-41h-234v-110h257v-41h-257v-119h-47v119h-363zM419 353h405v115h-405v-115zM459 88h191v110h-191v-110zM557 609h249v105h-223q-18 -74 -26 -105z" />
<glyph unicode="&#x504f;" d="M23 406q140 159 224 420l45 -11q-30 -91 -80 -199v-689h-46v601q-59 -101 -115 -167q-11 24 -28 45zM252 -6q116 161 116 478v177h544v-211h-499q-6 -307 -125 -474q-14 18 -36 30zM318 730v43h632v-43h-632zM413 479h452v129h-452v-129zM416 -74v425h514v-369 q0 -37 -22 -47q-22 -8 -96 -8q-6 25 -16 42q62 -2 77 0q12 0 12 13v150h-116v-200h-41v200h-116v-200h-40v200h-113v-206h-43zM459 175h113v135h-113v-135zM612 175h116v135h-116v-135zM769 175h116v135h-116v-135z" />
<glyph unicode="&#x505c;" d="M22 418q77 75 146 184t113 227l46 -13q-45 -114 -108 -220v-667h-46v596q-57 -84 -122 -150q-16 28 -29 43zM296 199v160h661v-158h-45v116h-572v-118h-44zM308 687v44h294v97h48v-97h299v-44h-641zM393 427v194h473v-194h-473zM395 191v43h474v-43h-219v-206 q0 -23 -7 -34.5t-25 -16.5q-27 -8 -149 -8q-2 13 -17 45q99 -3 131 -1q12 1 15.5 4t3.5 12v205h-207zM439 467h379v115h-379v-115z" />
<glyph unicode="&#x5065;" d="M28 427q133 152 206 399l45 -11q-32 -103 -72 -187v-698h-45v609q-49 -88 -106 -157q-17 31 -28 45zM219 -34q70 53 117 145q-46 81 -72 208l39 14q21 -106 55 -173q44 106 64 265h-109l-24 -50l-42 10q63 127 146 321h-123v43h145l8 3l32 -10q-64 -154 -123 -276h100 l8 2l27 -7q-21 -213 -81 -347q48 -67 121 -94t182 -27q241 0 275 1q-12 -16 -19 -45h-256q-117 0 -195 27t-130 94q-46 -83 -115 -138q-20 26 -30 34zM438 566v41h229v95h-160v40h160v84h45v-84h186v-135h66v-41h-66v-138h-186v-94h203v-40h-203v-96h233v-41h-233v-128h-45 v128h-211v41h211v96h-178v40h178v94h-160v41h160v97h-229zM712 469h142v97h-142v-97zM712 607h142v95h-142v-95z" />
<glyph unicode="&#x5072;" d="M22 418q77 75 146 184t113 227l46 -13q-45 -114 -108 -220v-667h-46v596q-57 -84 -122 -150q-16 28 -29 43zM257 -5q78 67 109 227l41 -12q-36 -173 -113 -240zM358 350v427h542v-427h-542zM404 392h199v152h-199v-152zM404 585h199v150h-199v-150zM481 3v242h46v-242 q0 -17 9 -22.5t39 -5.5h146q28 0 36 21t11 105q15 -14 43 -20q-5 -92 -21 -121.5t-64 -29.5h-153q-55 0 -73.5 14.5t-18.5 58.5zM519 315l32 28q110 -59 177 -123l-34 -34q-57 59 -175 129zM648 392h205v152h-205v-152zM648 585h205v150h-205v-150zM788 210l40 19 q105 -133 140 -234l-42 -22q-16 47 -55.5 114.5t-82.5 122.5z" />
<glyph unicode="&#x5074;" d="M23 406q140 159 224 420l45 -11q-30 -91 -80 -199v-689h-46v601q-59 -101 -115 -167q-11 24 -28 45zM267 -36q37 32 72 80t53 89l47 -19q-62 -111 -136 -179q-26 22 -36 29zM331 165v609h285v-609h-285zM375 207h196v149h-196v-149zM375 397h196v147h-196v-147zM375 585 h196v146h-196v-146zM513 116l36 19q62 -90 92 -157l-39 -24q-31 77 -89 162zM711 151v584h44v-584h-44zM745 -28q27 -1 115 -1q19 0 19 19v831h46v-830q0 -46 -32 -56q-26 -10 -132 -10q-4 23 -16 47z" />
<glyph unicode="&#x5075;" d="M26 423q79 74 149 181.5t116 225.5l44 -14q-43 -111 -106 -213v-673h-47v600q-61 -87 -126 -152q-13 21 -30 45zM287 -43q144 58 221 130l48 -16q-85 -82 -228 -147q-17 19 -41 33zM373 118v475h219v240h48v-97h301v-44h-301v-99h244v-475h-511zM420 159h416v106h-416 v-106zM420 305h416v104h-416v-104zM420 449h416v103h-416v-103zM702 62l41 25q123 -66 208 -135l-43 -28q-76 66 -206 138z" />
<glyph unicode="&#x5076;" d="M37 417q72 75 136 184.5t106 227.5l45 -13q-46 -122 -105 -228v-663h-46v587q-47 -75 -106 -138q-18 29 -30 43zM325 -74v405h277v91h-231v360h516v-360h-241v-91h285v-345q0 -24 -7 -35.5t-25 -17.5q-26 -8 -153 -8q-5 20 -17 43q94 -3 136 0q12 0 16 3.5t4 14.5v302 h-239v-144l121 11q-19 38 -45 77l34 14q74 -114 101 -198l-37 -15q-14 45 -34 83q-58 -6 -123 -12.5t-135.5 -13.5t-102.5 -10l-10 45q117 9 187 15v148h-231v-362h-46zM416 463h186v120h-186v-120zM416 623h186v118h-186v-118zM646 463h194v120h-194v-120zM646 623h194v118 h-194v-118z" />
<glyph unicode="&#x507d;" d="M20 423q160 156 255 406l45 -13q-46 -117 -108 -221v-666h-46v594q-57 -83 -116 -145q-13 27 -30 45zM222 149q219 157 367 453h-280v43h300q41 89 75 188l46 -11q-30 -87 -71 -177h175q-19 -133 -28 -173h83q-17 -121 -28 -176h87q-1 -16 -2 -23q-14 -162 -28.5 -233 t-37.5 -93q-20 -20 -59 -21q-59 -2 -125 4q-2 24 -13 42q65 -6 124 -6q25 0 36 10q35 33 56 278h-489q-77 -84 -150 -139q-9 11 -38 34zM282 -18q66 60 97 193l41 -14q-39 -145 -100 -204zM383 810l39 13q56 -80 76 -142l-40 -18q-24 71 -75 147zM446 296h369q16 87 22 133 h-294q-40 -62 -97 -133zM488 158l39 6q34 -98 36 -172l-42 -8q-2 80 -33 174zM569 472h191q13 60 22 130h-143q-34 -69 -70 -130zM602 170l37 11q48 -79 66 -138l-39 -15q-18 67 -64 142zM712 191l32 18q64 -64 85 -114l-33 -19q-26 55 -84 115z" />
<glyph unicode="&#x508d;" d="M22 418q77 75 146 184t113 227l46 -13q-45 -114 -108 -220v-667h-46v596q-57 -84 -122 -150q-16 28 -29 43zM289 -40q65 22 109 55t70 79.5t38 97t18 119.5h-219v42h294v110h47v-110h307v-42h-382q-5 -57 -13 -97h306q-1 -16 -2 -23q-17 -211 -51 -245q-19 -18 -56 -19 q-59 -2 -131 3q-2 25 -13 43q65 -7 126 -7q28 0 36 9q26 23 41 197h-265q-24 -90 -78.5 -151t-152.5 -96q-12 20 -29 35zM309 404v138h183q-12 63 -52 133l39 9h-146v43h266v100h47v-100h281v-43h-132l29 -7q-32 -75 -66 -135h187v-138h-46v96h-545v-96h-45zM484 684 q42 -69 55 -135l-25 -7h212l-14 4q36 64 61 138h-289z" />
<glyph unicode="&#x5091;" d="M28 421q140 156 221 405l45 -12q-34 -102 -80 -194v-694h-46v608q-56 -95 -111 -158q-8 16 -29 45zM268 544q115 111 163 272l44 -5q-12 -36 -34 -85h136l9 2l28 -10l-3 -16h190v114h43v-114h89v-42h-89v-168h103v-42h-103v-123h-43v123h-228v42h82v168h-46v34 q-32 -141 -105.5 -237.5t-173.5 -145.5q-8 16 -27 35q105 47 178 153q-52 49 -117 93q-32 -42 -63 -73q-15 15 -33 25zM274 -5q76 34 154 97t128 134h-260v44h293v116h47v-116h309v-44h-275q49 -71 127 -133t156 -94q-21 -18 -35 -40q-76 36 -153.5 102.5t-128.5 139.5v-274 h-47v274q-52 -73 -129 -139t-153 -104q-9 15 -33 37zM386 625q70 -46 119 -89q38 69 58 149h-142q-13 -27 -35 -60zM696 492h105v168h-105v-168z" />
<glyph unicode="&#x5098;" d="M43 534q129 54 246.5 136t181.5 161h45q80 -84 203 -162.5t241 -123.5q-16 -16 -30 -40q-116 49 -237.5 128t-196.5 156q-66 -75 -183 -156.5t-242 -136.5q-12 22 -28 38zM58 118v44h416v491h47v-491h422v-44h-422v-191h-47v191h-416zM107 217q133 70 175 188l43 -9 q-13 -33 -34 -67q97 -56 144 -103l-28 -30q-49 49 -138 103q-54 -69 -131 -113q-12 14 -31 31zM114 407q63 33 111.5 83.5t71.5 111.5l42 -9q-13 -35 -35 -68q87 -52 137 -104l-26 -31q-43 46 -132 106q-53 -70 -139 -121q-12 16 -30 32zM541 214q118 68 156 184l43 -8 q-11 -33 -29 -64q103 -57 165 -116l-29 -31q-57 53 -156 115q-50 -68 -118 -110q-8 14 -32 30zM541 408q119 67 153 191l43 -8q-11 -38 -28 -70q102 -55 160 -110l-28 -32q-45 45 -152 110q-45 -67 -116 -112q-10 15 -32 31z" />
<glyph unicode="&#x5099;" d="M23 406q140 159 224 420l45 -11q-30 -91 -80 -199v-689h-46v601q-59 -101 -115 -167q-11 24 -28 45zM251 -41q78 126 78 385v212h626v-44h-579v-168q0 -273 -89 -415q-18 20 -36 30zM305 687v44h173v93h46v-93h211v93h46v-93h171v-44h-171v-91h-46v91h-211v-91h-46v91 h-173zM450 -73v498h479v-441q0 -40 -27 -49q-21 -8 -125 -8q-4 21 -15 40q86 -2 106 0q17 1 17 16v116h-177v-165h-42v165h-172v-172h-44zM494 137h172v104h-172v-104zM494 280h172v104h-172v-104zM708 137h177v104h-177v-104zM708 280h177v104h-177v-104z" />
</font>
</defs>
</svg>
