<?xml version="1.0" standalone="no"?>
<!DOCTYPE svg PUBLIC "-//W3C//DTD SVG 1.1//EN" "http://www.w3.org/Graphics/SVG/1.1/DTD/svg11.dtd" >
<svg xmlns="http://www.w3.org/2000/svg" xmlns:xlink="http://www.w3.org/1999/xlink" version="1.1">
<metadata></metadata>
<defs>
<font id="noto_sans_cjk_jpmedium" horiz-adv-x="1000" >
<font-face units-per-em="1000" ascent="800" descent="-200" />
<missing-glyph horiz-adv-x="972" />
<glyph unicode="&#xd;" horiz-adv-x="357" d="M47 240v85h264v-85h-264z" />
<glyph horiz-adv-x="225" />
<glyph horiz-adv-x="343" d="M95 67q0 35 22 58.5t54 23.5q33 0 55.5 -23.5t22.5 -58.5t-22.5 -57.5t-55.5 -22.5t-54.5 22.5t-21.5 57.5zM114 753h116l-4 -118l-16 -400h-77l-16 400z" />
<glyph horiz-adv-x="570" d="M40 224v77h96l19 153h-93v77h102l26 200h70l-24 -200h138l26 200h71l-25 -200h90v-77h-99l-19 -153h95v-77h-104l-27 -224h-72l27 224h-138l-28 -224h-71l27 224h-87zM207 301h139l19 153h-139z" />
<glyph horiz-adv-x="570" d="M54 74l52 79q87 -72 169 -72q57 0 86.5 27t29.5 77q0 38 -23 67.5t-57 47t-74.5 40t-74.5 44.5t-57 60.5t-23 88.5q0 77 45 129t121 65v113h80v-112q89 -11 161 -87l-60 -67q-34 32 -63 46.5t-69 14.5q-48 0 -76 -25.5t-28 -71.5q0 -40 32 -69t77.5 -49.5t90.5 -45.5 t77 -70.5t32 -110.5q0 -81 -46 -134.5t-128 -67.5v-114h-80v111q-52 5 -104 28.5t-90 57.5z" />
<glyph horiz-adv-x="939" d="M36 518q0 109 47 170.5t125 61.5q79 0 126 -61.5t47 -170.5t-47.5 -171.5t-125.5 -62.5t-125 62t-47 172zM120 518q0 -82 24 -124t64 -42q41 0 65 42t24 124t-24 123t-65 41q-40 0 -64 -41t-24 -123zM231 -13l403 763h73l-404 -763h-72zM558 220q0 109 47 170.5t126 61.5 q78 0 125 -61.5t47 -170.5t-47 -171t-125 -62q-79 0 -126 62t-47 171zM642 220q0 -82 24 -124t65 -42q40 0 64 42t24 124t-24 123t-64 41q-41 0 -65 -41t-24 -123z" />
<glyph horiz-adv-x="705" d="M34 192q0 69 37.5 118.5t104.5 93.5q-48 93 -48 166q0 77 49.5 128.5t129.5 51.5q72 0 114 -42t42 -110q0 -35 -12.5 -65.5t-40 -58.5t-49.5 -46t-61 -46q71 -100 175 -183q66 86 99 204h106q-44 -149 -128 -259q75 -48 135 -63l-29 -94q-84 20 -175 81q-94 -81 -219 -81 q-104 0 -167 58t-63 147zM144 199q0 -54 38 -88t96 -34q64 0 127 50q-111 95 -182 199q-79 -67 -79 -127zM225 571q0 -51 31 -116q57 37 86.5 68.5t29.5 73.5q0 32 -16 52.5t-48 20.5q-37 0 -60 -27.5t-23 -71.5z" />
<glyph horiz-adv-x="298" d="M89 775h119l-3 -118l-23 -199h-67l-23 199z" />
<glyph horiz-adv-x="355" d="M89 313q0 271 148 511l72 -31q-126 -211 -126 -480q0 -270 126 -480l-72 -32q-148 242 -148 512z" />
<glyph unicode="&#x9;" horiz-adv-x="355" d="M46 -167q126 210 126 480q0 269 -126 480l72 31q149 -239 149 -511q0 -271 -149 -512z" />
<glyph unicode="&#xa;" horiz-adv-x="484" d="M58 643l20 61l120 -29l11 126h65l11 -125l120 28l20 -61l-113 -48l65 -109l-52 -38l-83 97l-83 -97l-52 38l64 109z" />
<glyph horiz-adv-x="570" d="M38 329v84h203v216h88v-216h203v-84h-203v-216h-88v216h-203z" />
<glyph horiz-adv-x="298" d="M53 -135q51 21 79.5 57t29.5 80q-4 -1 -11 -1q-32 0 -54.5 19.5t-22.5 54.5q0 33 23 53.5t57 20.5q42 0 65.5 -33t23.5 -91q0 -78 -43 -137t-121 -88z" />
<glyph horiz-adv-x="298" d="M72 67q0 35 22.5 58.5t54.5 23.5t54.5 -23.5t22.5 -58.5t-22 -57.5t-55 -22.5t-55 22.5t-22 57.5z" />
<glyph horiz-adv-x="390" d="M12 -180l278 978h80l-278 -978h-80z" />
<glyph horiz-adv-x="570" d="M47 371q0 187 63 283t175 96q111 0 174.5 -96.5t63.5 -282.5q0 -188 -63.5 -286t-174.5 -98t-174.5 98t-63.5 286zM157 371q0 -293 128 -293t128 293q0 288 -128 288t-128 -288z" />
<glyph horiz-adv-x="570" d="M86 0v95h161v512h-132v73q100 19 160 56h87v-641h144v-95h-420z" />
<glyph horiz-adv-x="570" d="M38 640q51 55 103.5 82.5t120.5 27.5q101 0 161.5 -60.5t60.5 -160.5t-70.5 -207.5t-198.5 -230.5q67 7 120 7h184v-98h-475v67q168 148 248.5 258t80.5 198q0 62 -32.5 98.5t-92.5 36.5q-74 0 -145 -82z" />
<glyph horiz-adv-x="570" d="M28 88l56 74q79 -81 174 -81q63 0 101.5 33t38.5 89q0 66 -50 100.5t-168 34.5v85q193 0 193 129q0 49 -30.5 77.5t-82.5 29.5q-77 -1 -147 -70l-60 72q99 89 211 89q101 0 163 -50t62 -140q0 -62 -33.5 -106.5t-93.5 -66.5v-5q67 -17 109.5 -65t42.5 -119 q0 -97 -70.5 -154t-175.5 -57q-150 0 -240 101z" />
<glyph horiz-adv-x="570" d="M20 198v77l293 461h133v-449h94v-89h-94v-198h-108v198h-318zM136 287h202v193q0 22 6 142h-4q-25 -52 -59 -113z" />
<glyph horiz-adv-x="570" d="M27 85l55 75q79 -79 172 -79q64 0 105 42.5t41 114.5t-38 113t-102 41q-54 0 -118 -42l-56 37l22 349h373v-97h-273l-17 -189q50 26 101 26q98 0 161 -59.5t63 -174.5q0 -117 -73 -186t-175 -69q-141 0 -241 98z" />
<glyph horiz-adv-x="570" d="M53 354q0 199 79.5 297.5t198.5 98.5q109 0 184 -79l-63 -70q-21 24 -52 39.5t-63 15.5q-77 0 -125 -66.5t-52 -214.5q32 39 76 62t84 23q96 0 151.5 -59t55.5 -173q0 -107 -64 -174t-156 -67q-111 0 -182.5 94t-71.5 273zM162 290q18 -215 144 -215q49 0 81.5 41.5 t32.5 111.5q0 72 -31 110t-90 38q-77 0 -137 -86z" />
<glyph horiz-adv-x="570" d="M49 639v97h474v-70q-64 -80 -104 -152.5t-62.5 -155.5t-31.5 -161t-14 -197h-118q10 207 54 350.5t148 288.5h-346z" />
<glyph horiz-adv-x="570" d="M46 183q0 68 37.5 118t94.5 80v5q-99 70 -99 172q0 85 59 137.5t151 52.5q95 0 151.5 -54t56.5 -141q0 -52 -28.5 -98t-68.5 -75v-5q124 -71 124 -195q0 -83 -66.5 -138t-171.5 -55q-104 0 -172 55.5t-68 140.5zM148 194q0 -54 40 -89t100 -35q57 0 92 31t35 82 q0 32 -12.5 57t-42.5 45t-54 31.5t-72 31.5q-86 -59 -86 -154zM182 558q0 -55 39 -87.5t113 -61.5q66 61 66 137q0 52 -30 85.5t-83 33.5q-46 0 -75.5 -29t-29.5 -78z" />
<glyph horiz-adv-x="570" d="M43 508q0 107 63.5 174.5t155.5 67.5q112 0 183.5 -91.5t71.5 -265.5q0 -204 -78.5 -305t-195.5 -101q-112 0 -188 78l62 71q48 -55 121 -55t120.5 67t52.5 215q-32 -40 -76 -63t-86 -23q-95 0 -150.5 59t-55.5 172zM150 508q0 -71 31 -109.5t88 -38.5q78 0 140 90 q-8 106 -46 158.5t-100 52.5q-49 0 -81 -41.5t-32 -111.5z" />
<glyph horiz-adv-x="298" d="M72 67q0 35 22.5 58.5t54.5 23.5t54.5 -23.5t22.5 -58.5t-22 -57.5t-55 -22.5t-55 22.5t-22 57.5zM72 460q0 35 22.5 58.5t54.5 23.5t54.5 -23.5t22.5 -58.5q0 -34 -22.5 -57t-54.5 -23t-54.5 23t-22.5 57z" />
<glyph horiz-adv-x="298" d="M53 -135q51 21 79.5 57t29.5 80q-4 -1 -11 -1q-32 0 -54.5 19.5t-22.5 54.5q0 33 23 53.5t57 20.5q42 0 65.5 -33t23.5 -91q0 -78 -43 -137t-121 -88zM72 460q0 35 22.5 58.5t54.5 23.5t54.5 -23.5t22.5 -58.5q0 -34 -22.5 -57t-54.5 -23t-54.5 23t-22.5 57z" />
<glyph horiz-adv-x="570" d="M38 330v86l494 193v-98l-225 -80l-151 -56v-4l151 -55l225 -81v-97z" />
<glyph horiz-adv-x="570" d="M38 205v84h494v-84h-494zM38 453v84h494v-84h-494z" />
<glyph horiz-adv-x="570" d="M38 138v97l225 81l152 55v4l-152 56l-225 80v98l494 -193v-86z" />
<glyph horiz-adv-x="491" d="M44 671q84 96 199 96q89 0 143 -48.5t54 -134.5q0 -40 -18 -77t-43.5 -66.5t-50 -59.5t-39.5 -67.5t-10 -78.5h-101q-7 47 6 89t36.5 73t47.5 59.5t42 59.5t18 60q0 43 -26 70t-72 27q-67 0 -121 -61zM153 67q0 35 22 58.5t55 23.5q32 0 54.5 -23.5t22.5 -58.5t-22 -57.5 t-55 -22.5t-55 22.5t-22 57.5z" />
<glyph unicode=" " horiz-adv-x="972" d="M56 229q0 112 39 207.5t104.5 160.5t153 101.5t184.5 36.5q173 0 276 -105.5t103 -276.5q0 -139 -73 -220t-162 -81q-48 0 -81 22t-39 63h-3q-27 -34 -64 -55t-72 -21q-62 0 -101 43.5t-39 118.5q0 99 63.5 182t156.5 83q60 0 89 -55h2l14 46h74l-47 -231 q-29 -121 58 -121q56 0 101 62t45 160q0 139 -79.5 225.5t-230.5 86.5q-74 0 -144.5 -31t-125 -85.5t-87.5 -136.5t-33 -176q0 -160 93.5 -249t239.5 -89q94 0 178 48l29 -66q-99 -56 -216 -56q-113 0 -203.5 45t-146.5 139t-56 225zM372 229q0 -47 20 -70t53 -23 q44 0 95 62l30 171q-25 42 -66 42q-57 0 -94.5 -58t-37.5 -124z" />
<glyph unicode="!" horiz-adv-x="622" d="M0 0l244 736h134l244 -736h-123l-62 210h-256l-63 -210h-118zM208 301h201l-29 99q-19 60 -70 245h-4q-28 -110 -68 -245z" />
<glyph unicode="&#x22;" horiz-adv-x="667" d="M97 0v736h228q260 0 260 -181q0 -54 -28.5 -98.5t-76.5 -60.5v-5q66 -14 105.5 -58.5t39.5 -116.5q0 -106 -77.5 -161t-204.5 -55h-246zM213 91h117q181 0 181 131q0 119 -181 119h-117v-250zM213 429h99q159 0 159 111q0 57 -38 81.5t-118 24.5h-102v-217z" />
<glyph unicode="#" horiz-adv-x="646" d="M57 366q0 176 94.5 280t237.5 104q124 0 209 -93l-63 -74q-64 66 -144 66q-96 0 -155.5 -75.5t-59.5 -203.5q0 -131 57 -206.5t155 -75.5q91 0 163 78l62 -73q-92 -106 -229 -106q-143 0 -235 101.5t-92 277.5z" />
<glyph unicode="$" horiz-adv-x="699" d="M97 0v736h191q171 0 263 -93t92 -272q0 -178 -91.5 -274.5t-257.5 -96.5h-197zM213 95h67q119 0 181 69.5t62 206.5q0 271 -243 271h-67v-547z" />
<glyph unicode="%" horiz-adv-x="600" d="M97 0v736h435v-97h-319v-205h270v-98h-270v-238h330v-98h-446z" />
<glyph unicode="&#x26;" horiz-adv-x="566" d="M97 0v736h436v-97h-320v-225h272v-97h-272v-317h-116z" />
<glyph unicode="'" horiz-adv-x="701" d="M57 366q0 176 96.5 280t246.5 104q130 0 219 -93l-63 -74q-64 66 -152 66q-104 0 -166 -75t-62 -204q0 -133 60 -207.5t173 -74.5q75 0 116 36v173h-146v95h251v-319q-39 -39 -99.5 -62.5t-133.5 -23.5q-151 0 -245.5 101t-94.5 278z" />
<glyph unicode="(" horiz-adv-x="740" d="M97 0v736h116v-300h315v300h116v-736h-116v335h-315v-335h-116z" />
<glyph unicode=")" horiz-adv-x="309" d="M97 0v736h116v-736h-116z" />
<glyph unicode="*" horiz-adv-x="550" d="M30 109l81 59q44 -80 119 -80q57 0 84 34.5t27 113.5v500h116v-511q0 -106 -53.5 -172t-160.5 -66q-144 0 -213 122z" />
<glyph unicode="+" horiz-adv-x="663" d="M97 0v736h116v-348h3l280 348h129l-228 -284l266 -452h-129l-208 360l-113 -138v-222h-116z" />
<glyph unicode="," horiz-adv-x="557" d="M97 0v736h116v-638h311v-98h-427z" />
<glyph unicode="-" horiz-adv-x="830" d="M97 0v736h133l135 -372q9 -26 25 -76t24 -73h5q8 24 23.5 73.5t24.5 75.5l133 372h134v-736h-108v364q0 60 15 228h-4l-59 -170l-128 -351h-72l-129 351l-58 170h-4q14 -188 14 -228v-364h-104z" />
<glyph unicode="." horiz-adv-x="734" d="M97 0v736h119l244 -432l77 -156h5q-15 190 -15 245v343h110v-736h-119l-244 434l-77 154h-5q15 -190 15 -241v-347h-110z" />
<glyph unicode="/" horiz-adv-x="754" d="M57 371q0 175 88 277t232 102t232.5 -102t88.5 -277q0 -176 -89 -280t-232 -104t-231.5 104t-88.5 280zM176 371q0 -130 54.5 -206.5t146.5 -76.5t147 77t55 206t-55 203.5t-147 74.5t-146.5 -74.5t-54.5 -203.5z" />
<glyph unicode="0" horiz-adv-x="647" d="M97 0v736h223q281 0 281 -222q0 -116 -75.5 -175.5t-201.5 -59.5h-111v-279h-116zM213 372h100q89 0 131.5 34.5t42.5 107.5q0 70 -43.5 99.5t-134.5 29.5h-96v-271z" />
<glyph unicode="1" horiz-adv-x="754" d="M57 371q0 175 88 277t232 102t232.5 -102t88.5 -277q0 -153 -68.5 -253t-183.5 -124q48 -90 175 -90q41 0 78 11l22 -87q-41 -19 -113 -19q-103 0 -177 49.5t-109 132.5q-121 21 -193 121.5t-72 258.5zM176 371q0 -133 54.5 -211t146.5 -78t147 78t55 211 q0 129 -55 203.5t-147 74.5t-146.5 -74.5t-54.5 -203.5z" />
<glyph unicode="2" horiz-adv-x="655" d="M97 0v736h241q266 0 266 -213q0 -163 -154 -211l180 -312h-131l-167 297h-119v-297h-116zM213 390h111q165 0 165 133q0 65 -41 92.5t-124 27.5h-111v-253z" />
<glyph unicode="3" horiz-adv-x="608" d="M45 95l68 80q87 -87 196 -87q66 0 102.5 28.5t36.5 75.5q0 24 -7.5 41.5t-27.5 32t-34.5 22t-48.5 22.5l-102 44q-150 63 -150 193q0 87 68.5 145t173.5 58q132 0 223 -93l-61 -74q-74 66 -162 66q-57 0 -90.5 -25.5t-33.5 -69.5q0 -23 9 -40t29 -30.5t35.5 -21 t45.5 -19.5l101 -43q72 -31 111 -77t39 -122q0 -91 -70.5 -152.5t-188.5 -61.5q-156 0 -262 108z" />
<glyph unicode="4" horiz-adv-x="610" d="M31 639v97h549v-97h-217v-639h-116v639h-216z" />
<glyph unicode="5" horiz-adv-x="733" d="M93 316v420h116v-428q0 -220 158 -220q161 0 161 220v428h112v-420q0 -329 -273 -329q-274 0 -274 329z" />
<glyph unicode="6" horiz-adv-x="594" d="M-2 736h123l109 -381q12 -39 32.5 -117.5t34.5 -123.5h5q14 47 35.5 126t31.5 115l109 381h118l-230 -736h-137z" />
<glyph unicode="7" horiz-adv-x="894" d="M22 736h120l69 -383l39 -236h4q19 93 50 236l95 383h102l96 -383q10 -45 28.5 -133.5t21.5 -102.5h5q7 47 20.5 132.5t16.5 103.5l70 383h111l-145 -736h-143l-99 409q-19 84 -34 169h-5q-6 -34 -34 -169l-97 -409h-140z" />
<glyph unicode="8" horiz-adv-x="596" d="M16 0l211 380l-198 356h129l89 -172q9 -17 56 -111h5q35 81 50 111l87 172h122l-198 -362l212 -374h-129l-97 183q-10 19 -30 59t-31 61h-4q-32 -70 -57 -120l-94 -183h-123z" />
<glyph unicode="9" horiz-adv-x="553" d="M-3 736h124l85 -195q49 -118 69 -162h4q5 13 31 71.5t39 90.5l86 195h121l-222 -457v-279h-116v279z" />
<glyph unicode=":" horiz-adv-x="607" d="M47 0v70l369 569h-335v97h478v-69l-368 -569h372v-98h-516z" />
<glyph unicode=";" horiz-adv-x="355" d="M104 -171v967h211v-63h-125v-840h125v-64h-211z" />
<glyph unicode="&#x3c;" horiz-adv-x="390" d="M20 798h80l278 -978h-80z" />
<glyph unicode="=" horiz-adv-x="355" d="M40 -107h125v840h-125v63h212v-967h-212v64z" />
<glyph unicode="&#x3e;" horiz-adv-x="570" d="M64 316l172 437h98l172 -437h-98l-67 181l-54 151h-5l-53 -151l-67 -181h-98z" />
<glyph unicode="?" horiz-adv-x="562" d="M13 -75h536v-71h-536v71z" />
<glyph unicode="@" horiz-adv-x="614" d="M129 817l80 77l164 -193l-58 -57z" />
<glyph unicode="A" horiz-adv-x="575" d="M55 146q0 88 78.5 136.5t250.5 67.5q-2 120 -105 120q-71 0 -159 -56l-43 78q114 72 222 72q101 0 150.5 -60.5t49.5 -172.5v-331h-94l-10 63h-3q-88 -76 -175 -76q-72 0 -117 43.5t-45 115.5zM166 154q0 -39 23.5 -57.5t62.5 -18.5q62 0 132 64v135q-118 -14 -168 -44.5 t-50 -78.5z" />
<glyph unicode="B" horiz-adv-x="629" d="M87 0v797h114v-211l-3 -94q83 72 164 72q103 0 160.5 -76t57.5 -204q0 -136 -69.5 -216.5t-167.5 -80.5q-79 0 -152 70h-3l-11 -57h-90zM201 132q57 -50 120 -50q62 0 101 53t39 147q0 186 -129 186q-63 0 -131 -67v-269z" />
<glyph unicode="C" horiz-adv-x="517" d="M48 274q0 133 79 211.5t193 78.5q89 0 161 -63l-57 -75q-48 43 -99 43q-69 0 -113.5 -54t-44.5 -141t43 -140t112 -53q61 0 120 50l47 -76q-76 -68 -178 -68q-115 0 -189 77t-74 210z" />
<glyph unicode="D" horiz-adv-x="630" d="M50 274q0 130 70 210t166 80q75 0 148 -62l-5 91v204h115v-797h-94l-10 62h-3q-73 -75 -160 -75q-105 0 -166 76t-61 211zM169 276q0 -93 35 -143.5t100 -50.5q67 0 125 67v269q-55 50 -121 50q-59 0 -99 -52.5t-40 -139.5z" />
<glyph unicode="E" horiz-adv-x="565" d="M48 274q0 129 75 209.5t176 80.5q107 0 165.5 -70.5t58.5 -190.5q0 -36 -5 -58h-357q7 -78 52.5 -123t117.5 -45q68 0 131 41l40 -73q-87 -58 -186 -58q-115 0 -191.5 77.5t-76.5 209.5zM160 324h264q0 72 -31.5 111t-91.5 39q-54 0 -93.5 -40t-47.5 -110z" />
<glyph unicode="F" horiz-adv-x="345" d="M31 458v86l75 6v69q0 89 42.5 140t131.5 51q54 0 97 -19l-23 -86q-31 14 -60 14q-73 0 -73 -99v-70h111v-92h-111v-458h-115v458h-75z" />
<glyph unicode="G" horiz-adv-x="578" d="M47 -102q0 71 80 120v5q-50 30 -50 91q0 57 61 102v4q-31 24 -51.5 62t-20.5 84q0 91 62 144.5t151 53.5q43 0 80 -14h195v-86h-105q36 -38 36 -101q0 -87 -58.5 -138t-147.5 -51q-40 0 -77 17q-30 -27 -30 -58q0 -54 92 -54h101q198 0 198 -134q0 -82 -79.5 -137 t-208.5 -55q-103 0 -165.5 37.5t-62.5 107.5zM145 -85q0 -40 39.5 -63t107.5 -23q70 0 115 29t45 69q0 33 -25 46.5t-78 13.5h-83q-37 0 -74 8q-47 -34 -47 -80zM175 366q0 -53 30 -85.5t74 -32.5t74 32.5t30 85.5q0 54 -29.5 85.5t-74.5 31.5t-74.5 -31t-29.5 -86z" />
<glyph unicode="H" horiz-adv-x="621" d="M87 0v797h114v-211l-4 -109q91 87 178 87q169 0 169 -218v-346h-115v332q0 71 -22 102t-71 31q-36 0 -65.5 -17.5t-69.5 -57.5v-390h-114z" />
<glyph unicode="I" horiz-adv-x="287" d="M71 721q0 30 20.5 49t52.5 19t53 -19t21 -49t-21 -49t-53 -19t-52.5 19t-20.5 49zM87 0v550h114v-550h-114z" />
<glyph unicode="J" horiz-adv-x="288" d="M-48 -222l21 86q34 -9 49 -9q37 0 51.5 25t14.5 77v593h115v-591q0 -196 -166 -196q-48 0 -85 15zM72 721q0 30 20.5 49t52.5 19t53 -19t21 -49t-21 -49t-53 -19t-52.5 19t-20.5 49z" />
<glyph unicode="K" horiz-adv-x="575" d="M87 0v797h112v-514h3l216 267h127l-187 -223l208 -327h-125l-149 249l-93 -107v-142h-112z" />
<glyph unicode="L" horiz-adv-x="298" d="M87 129v668h114v-674q0 -42 28 -42q9 0 19 2l15 -87q-25 -9 -62 -9q-114 0 -114 142z" />
<glyph unicode="M" horiz-adv-x="942" d="M87 0v550h94l9 -77h3q86 91 170 91q114 0 152 -101q94 101 179 101q169 0 169 -218v-346h-115v332q0 70 -22.5 101.5t-69.5 31.5q-55 0 -124 -75v-390h-115v332q0 71 -22 102t-70 31q-55 0 -124 -75v-390h-114z" />
<glyph unicode="N" horiz-adv-x="624" d="M87 0v550h94l9 -76h3q94 90 182 90q169 0 169 -218v-346h-115v332q0 71 -22 102t-71 31q-36 0 -65.5 -17.5t-69.5 -57.5v-390h-114z" />
<glyph unicode="O" horiz-adv-x="614" d="M48 274q0 133 76 211.5t183 78.5t183 -78.5t76 -211.5q0 -131 -76 -209t-183 -78t-183 78t-76 209zM167 274q0 -87 38 -140t102 -53q65 0 103 52.5t38 140.5t-38 141.5t-103 53.5q-64 0 -102 -53.5t-38 -141.5z" />
<glyph unicode="P" horiz-adv-x="630" d="M87 -223v773h94l9 -60h3q89 74 169 74q103 0 160.5 -75.5t57.5 -204.5q0 -136 -69.5 -216.5t-167.5 -80.5q-72 0 -145 62l3 -94v-178h-114zM201 132q58 -50 120 -50t101 53t39 147q0 186 -129 186q-61 0 -131 -67v-269z" />
<glyph unicode="Q" horiz-adv-x="630" d="M50 274q0 130 70 210t166 80q83 0 153 -67h4l10 53h91v-773h-115v187l5 95q-74 -72 -157 -72q-105 0 -166 76t-61 211zM169 276q0 -93 35 -143.5t100 -50.5q67 0 125 67v269q-55 50 -121 50q-59 0 -99 -52.5t-40 -139.5z" />
<glyph unicode="R" horiz-adv-x="409" d="M87 0v550h94l9 -99h3q29 53 70.5 83t85.5 30q37 0 62 -12l-21 -100q-29 9 -55 9q-37 0 -73 -28.5t-61 -89.5v-343h-114z" />
<glyph unicode="S" horiz-adv-x="480" d="M29 63l54 74q79 -63 156 -63q48 0 72.5 20.5t24.5 53.5q0 14 -8 27t-16.5 21t-29.5 18.5t-31 14.5t-37 14q-34 13 -56.5 24.5t-48.5 30.5t-39 45.5t-13 59.5q0 70 53 115.5t142 45.5q95 0 179 -65l-54 -71q-65 48 -123 48q-43 0 -65.5 -19t-22.5 -49q0 -21 18 -38 t33.5 -23.5t55.5 -21.5q7 -3 10 -4q38 -14 59.5 -24.5t49 -30t40.5 -47.5t13 -65q0 -72 -55.5 -119.5t-153.5 -47.5q-115 0 -207 76z" />
<glyph unicode="T" horiz-adv-x="396" d="M25 458v86l85 6l13 152h97v-152h143v-92h-143v-279q0 -100 80 -100q29 0 59 13l21 -85q-62 -20 -108 -20q-167 0 -167 193v278h-80z" />
<glyph unicode="U" horiz-adv-x="620" d="M80 204v346h115v-332q0 -71 21.5 -101.5t70.5 -30.5q38 0 67.5 19t64.5 63v382h115v-550h-94l-9 83h-3q-83 -96 -180 -96q-168 0 -168 217z" />
<glyph unicode="V" horiz-adv-x="545" d="M13 550h118l94 -296q9 -32 48 -164h4q39 132 48 164l94 296h112l-190 -550h-133z" />
<glyph unicode="W" horiz-adv-x="828" d="M27 550h116l73 -298q5 -24 10 -50t11 -57.5t9 -48.5h4q4 17 11 49t13 58t12 49l77 298h107l79 -298q6 -24 18 -76t19 -80h4q4 19 14.5 72.5t17.5 83.5l71 298h108l-142 -550h-138l-70 272q-10 39 -35 159h-5q-20 -106 -35 -160l-67 -271h-133z" />
<glyph unicode="X" horiz-adv-x="526" d="M15 0l178 287l-165 263h124l66 -111q16 -30 52 -92h4l46 92l58 111h120l-165 -276l177 -274h-125l-72 116q-34 62 -57 98h-5q-23 -41 -51 -98l-64 -116h-121z" />
<glyph unicode="Y" horiz-adv-x="544" d="M13 550h118l102 -283q6 -18 23 -72t27 -83h5l43 155l88 283h112l-202 -583q-35 -97 -85 -147t-132 -50q-39 0 -69 11l22 90q27 -8 40 -8q80 0 115 103l11 38z" />
<glyph unicode="Z" horiz-adv-x="490" d="M37 0v62l271 396h-241v92h386v-61l-271 -397h280v-92h-425z" />
<glyph unicode="[" horiz-adv-x="355" d="M37 278v70q52 1 74.5 25t22.5 60q0 37 -5 103t-5 107q0 86 31.5 119.5t103.5 33.5h56v-63h-26q-42 0 -57 -21t-15 -75q0 -31 3 -95t3 -102q0 -58 -17 -86.5t-56 -38.5v-5q39 -10 56 -39t17 -86q0 -38 -3 -102t-3 -95q0 -54 15 -74.5t57 -20.5h26v-64h-56 q-72 0 -103.5 33.5t-31.5 119.5q0 41 5 107t5 102q0 37 -22.5 61.5t-74.5 25.5z" />
<glyph unicode="\" horiz-adv-x="281" d="M102 -281v1124h77v-1124h-77z" />
<glyph unicode="]" horiz-adv-x="355" d="M40 -107h26q42 0 57 20.5t15 74.5q0 31 -2.5 95t-2.5 102q0 57 16.5 86t55.5 39v5q-39 10 -55.5 38.5t-16.5 86.5q0 38 2.5 102t2.5 95q0 54 -15 75t-57 21h-26v63h56q72 0 104 -33.5t32 -119.5q0 -41 -5 -107t-5 -103q0 -36 22 -60t74 -25v-70q-52 -1 -74 -25.5 t-22 -61.5q0 -36 5 -102t5 -107q0 -86 -32 -119.5t-104 -33.5h-56v64z" />
<glyph unicode="^" horiz-adv-x="570" d="M38 353q63 106 149 106q38 0 74.5 -23t67 -46t56.5 -23q48 0 84 67l63 -46q-65 -105 -149 -105q-31 0 -60.5 14.5t-49 31.5t-43.5 31.5t-45 14.5q-49 0 -85 -67z" />
<glyph unicode="_" d="M257 383q0 35 21 71.5t61 62.5q-18 14 -30 41t-12 54q0 74 62 120.5t163 46.5q99 0 177 -41l-26 -76q-68 41 -158 41q-52 0 -84.5 -23.5t-32.5 -53.5q0 -36 35 -57.5t109 -41.5q99 -27 149.5 -68t50.5 -111q0 -86 -70 -141q18 -13 31 -40.5t13 -60.5q0 -82 -68.5 -129.5 t-163.5 -47.5q-124 0 -195 50l30 75q66 -48 165 -48q59 0 93.5 24.5t34.5 64.5q0 35 -31.5 58.5t-114.5 48.5q-106 32 -157.5 72t-51.5 109zM350 401q0 -30 26 -53.5t98 -48.5q107 -35 138 -52q37 31 37 80q0 33 -29 58.5t-65.5 38t-86 28.5t-72.5 28q-46 -34 -46 -79z" />
<glyph unicode="`" horiz-adv-x="614" d="M131 717q0 27 18 45.5t46 18.5q27 0 45 -18.5t18 -45.5q0 -26 -18 -44.5t-45 -18.5t-45.5 18t-18.5 45zM356 717q0 27 18 45.5t46 18.5q27 0 45 -18.5t18 -45.5t-18 -45t-45 -18q-28 0 -46 18t-18 45z" />
<glyph unicode="a" horiz-adv-x="384" d="M45 621q0 65 43 107t104 42q62 0 105 -42t43 -107t-43 -107t-105 -42q-61 0 -104 42t-43 107zM111 621q0 -39 22.5 -64t58.5 -25q37 0 59.5 25t22.5 64q0 40 -22.5 65t-59.5 25q-36 0 -58.5 -25t-22.5 -65z" />
<glyph unicode="b" d="M140 14v83h725v-83h-725zM140 460v83h318v265h84v-265h318v-83h-318v-266h-84v266h-318z" />
<glyph unicode="c" horiz-adv-x="614" d="M241 701l164 193l80 -77l-185 -173z" />
<glyph unicode="d" d="M239 513v8q-1 35 7 65q8 34 31 68t58 59t92.5 40t131.5 15q97 0 140 -9v-815h-77v748h-83v-748h-77v353h-9q-33 0 -68.5 13t-68.5 38t-54.5 68.5t-22.5 96.5z" />
<glyph unicode="e" d="M175 111l267 267l-267 266l60 59l266 -267l266 267l59 -59l-267 -266l267 -267l-59 -58l-266 266l-267 -266z" />
<glyph unicode="f" d="M140 336v83h720v-83h-720zM421 124q0 32 23.5 55t55.5 23t55.5 -23t23.5 -55q0 -33 -23.5 -56t-55.5 -23t-55.5 23t-23.5 56zM421 631q0 32 23.5 55t55.5 23t55.5 -23t23.5 -55q0 -33 -23.5 -56t-55.5 -23t-55.5 23t-23.5 56z" />
<glyph unicode="g" horiz-adv-x="622" d="M0 0l244 736h134l244 -736h-123l-62 210h-256l-63 -210h-118zM208 301h201l-29 99q-19 60 -70 245h-4q-28 -110 -68 -245z" />
<glyph unicode="h" horiz-adv-x="667" d="M97 0v736h228q260 0 260 -181q0 -54 -28.5 -98.5t-76.5 -60.5v-5q66 -14 105.5 -58.5t39.5 -116.5q0 -106 -77.5 -161t-204.5 -55h-246zM213 91h117q181 0 181 131q0 119 -181 119h-117v-250zM213 429h99q159 0 159 111q0 57 -38 81.5t-118 24.5h-102v-217z" />
<glyph unicode="i" horiz-adv-x="568" d="M97 0v736h436v-97h-320v-639h-116z" />
<glyph unicode="j" horiz-adv-x="680" d="M35 0v70l237 666h136l237 -666v-70h-610zM160 98h357l-104 310l-73 231h-4l-73 -231z" />
<glyph unicode="k" horiz-adv-x="600" d="M97 0v736h435v-97h-319v-205h270v-98h-270v-238h330v-98h-446z" />
<glyph unicode="l" horiz-adv-x="607" d="M47 0v70l369 569h-335v97h478v-69l-368 -569h372v-98h-516z" />
<glyph unicode="m" horiz-adv-x="740" d="M97 0v736h116v-300h315v300h116v-736h-116v335h-315v-335h-116z" />
<glyph unicode="n" horiz-adv-x="754" d="M57 371q0 175 88 277t232 102t232.5 -102t88.5 -277q0 -176 -89 -280t-232 -104t-231.5 104t-88.5 280zM176 371q0 -130 54.5 -206.5t146.5 -76.5t147 77t55 206t-55 203.5t-147 74.5t-146.5 -74.5t-54.5 -203.5zM256 335v101h242v-101h-242z" />
<glyph unicode="o" horiz-adv-x="309" d="M97 0v736h116v-736h-116z" />
<glyph unicode="p" horiz-adv-x="663" d="M97 0v736h116v-348h3l280 348h129l-228 -284l266 -452h-129l-208 360l-113 -138v-222h-116z" />
<glyph unicode="q" horiz-adv-x="594" d="M-2 0l230 736h137l231 -736h-123l-110 382q-8 27 -30 109.5t-37 130.5h-4q-11 -36 -67 -240l-109 -382h-118z" />
<glyph unicode="r" horiz-adv-x="830" d="M97 0v736h133l135 -372q9 -26 25 -76t24 -73h5q8 24 23.5 73.5t24.5 75.5l133 372h134v-736h-108v364q0 60 15 228h-4l-59 -170l-128 -351h-72l-129 351l-58 170h-4q14 -188 14 -228v-364h-104z" />
<glyph unicode="s" horiz-adv-x="734" d="M97 0v736h119l244 -432l77 -156h5q-15 190 -15 245v343h110v-736h-119l-244 434l-77 154h-5q15 -190 15 -241v-347h-110z" />
<glyph unicode="t" horiz-adv-x="613" d="M56 0v98h501v-98h-501zM68 639v97h477v-97h-477zM139 336v98h336v-98h-336z" />
<glyph unicode="u" horiz-adv-x="754" d="M57 371q0 175 88 277t232 102t232.5 -102t88.5 -277q0 -176 -89 -280t-232 -104t-231.5 104t-88.5 280zM176 371q0 -130 54.5 -206.5t146.5 -76.5t147 77t55 206t-55 203.5t-147 74.5t-146.5 -74.5t-54.5 -203.5z" />
<glyph unicode="v" horiz-adv-x="731" d="M97 0v736h538v-736h-116v639h-306v-639h-116z" />
<glyph unicode="w" horiz-adv-x="647" d="M97 0v736h223q281 0 281 -222q0 -116 -75.5 -175.5t-201.5 -59.5h-111v-279h-116zM213 372h100q89 0 131.5 34.5t42.5 107.5q0 70 -43.5 99.5t-134.5 29.5h-96v-271z" />
<glyph unicode="x" horiz-adv-x="609" d="M47 0v70l246 303l-241 294v69h484v-97h-338l212 -263l-216 -278h374v-98h-521z" />
<glyph unicode="y" horiz-adv-x="610" d="M31 639v97h549v-97h-217v-639h-116v639h-216z" />
<glyph unicode="z" horiz-adv-x="553" d="M-3 736h124l85 -195q49 -118 69 -162h4q5 13 31 71.5t39 90.5l86 195h121l-222 -457v-279h-116v279z" />
<glyph unicode="{" horiz-adv-x="823" d="M54 371q0 130 82.5 205t223.5 83v102h104v-102q140 -8 222.5 -83.5t82.5 -204.5t-82.5 -206.5t-222.5 -85.5v-103h-104v103q-140 8 -223 85t-83 207zM165 371q0 -86 53 -141t142 -63v404q-90 -7 -142.5 -60.5t-52.5 -139.5zM464 167q89 8 141.5 63t52.5 141t-52.5 139.5 t-141.5 60.5v-404z" />
<glyph unicode="|" horiz-adv-x="596" d="M16 0l211 380l-198 356h129l89 -172q9 -17 56 -111h5q35 81 50 111l87 172h122l-198 -362l212 -374h-129l-97 183q-10 19 -30 59t-31 61h-4q-32 -70 -57 -120l-94 -183h-123z" />
<glyph unicode="}" horiz-adv-x="805" d="M67 555v181h114v-175q0 -101 41 -149t125 -53v377h110v-377q84 5 125 53t41 149v175h114v-181q0 -274 -280 -288v-267h-110v267q-280 14 -280 288z" />
<glyph unicode="~" horiz-adv-x="775" d="M51 0v95h140v4q-125 123 -125 298q0 156 88.5 254.5t232.5 98.5t232.5 -98.5t88.5 -254.5q0 -176 -124 -298v-4h140v-95h-274v84q139 115 139 304q0 115 -54.5 188t-147.5 73t-147 -73t-54 -188q0 -189 139 -304v-84h-274z" />
<glyph horiz-adv-x="642" d="M48 267q0 135 71 216t171 81q54 0 97.5 -32.5t66.5 -100.5h3l22 119h114q-70 -324 -70 -414q0 -27 15 -41t39 -14q18 0 37 8l16 -87q-32 -15 -79 -15q-112 0 -119 105h-4q-60 -105 -165 -105q-98 0 -156.5 73.5t-58.5 206.5zM167 269q0 -91 31.5 -139t89.5 -48 q49 0 89.5 45.5t45.5 108.5l8 101q-36 131 -126 131q-57 0 -97.5 -52t-40.5 -147z" />
<glyph horiz-adv-x="648" d="M84 -200v744q0 120 60 193t176 73q91 0 154.5 -51t63.5 -146q0 -117 -105 -181v-5q76 -12 122.5 -68.5t46.5 -139.5q0 -108 -64.5 -170t-153.5 -62q-119 0 -192 81q4 -96 8 -268h-116zM192 162q62 -80 162 -80q57 0 95.5 38.5t38.5 105.5q0 62 -36 100.5t-103 38.5 q-29 0 -53 -7l-15 86q75 15 110 58.5t35 101.5q0 55 -30.5 85t-74.5 30q-59 0 -91.5 -49t-33.5 -138q-4 -165 -4 -370z" />
<glyph horiz-adv-x="561" d="M4 536l117 28q49 -70 97 -190t73 -241h5q115 224 129 417h115q-23 -144 -69.5 -262.5t-147.5 -279.5q13 -87 13 -208h-119q6 59 6 141q0 124 -66 301.5t-153 293.5z" />
<glyph horiz-adv-x="603" d="M55 237q0 90 55 154t143 95q-67 49 -104 94t-37 103q0 55 47.5 91t139.5 36q109 0 239 -44l-27 -89q-128 46 -213 46q-39 0 -58.5 -13.5t-19.5 -34.5q0 -13 6.5 -26.5t15 -24t27.5 -26t31.5 -25t40 -28.5t41.5 -30q55 -40 88.5 -72.5t58 -83.5t24.5 -111 q0 -118 -66.5 -189.5t-182.5 -71.5q-102 0 -175.5 68.5t-73.5 181.5zM165 240q0 -72 41.5 -115.5t99.5 -43.5q65 0 99.5 43.5t34.5 122.5q0 57 -28.5 100t-80.5 83q-79 -18 -122.5 -67t-43.5 -123z" />
<glyph horiz-adv-x="512" d="M48 153q0 105 112 135v5q-41 14 -63.5 47.5t-22.5 72.5q0 73 62.5 112t155.5 39q97 0 182 -59l-45 -76q-62 45 -132 45q-48 0 -78.5 -20t-30.5 -56q0 -74 110 -74q18 0 72 4v-86q-48 3 -89 3q-119 0 -119 -81q0 -41 36 -64t102 -23q77 0 142 52l48 -75q-89 -67 -202 -67 q-105 0 -172.5 44.5t-67.5 121.5z" />
<glyph horiz-adv-x="491" d="M52 252q0 111 87 241t204 219q-209 -4 -257 -7v92h385v-92h-6q-111 -74 -203 -209.5t-92 -237.5q0 -84 37 -122.5t117 -53.5q84 -16 120 -44t36 -85q0 -69 -65 -161l-91 34q32 40 43 59t11 40q0 24 -23.5 37t-96.5 29q-45 9 -79 25t-64.5 45t-46.5 77.5t-16 113.5z" />
<glyph unicode="&#x85;" horiz-adv-x="615" d="M77 550h104l9 -109h3q42 62 87 92.5t103 30.5q153 0 153 -218v-546h-116q8 283 8 532q0 72 -18.5 102.5t-63.5 30.5q-40 0 -72 -24.5t-73 -85.5v-355h-114v394q0 84 -10 156z" />
<glyph horiz-adv-x="597" d="M63 401q0 199 62.5 304t172.5 105q111 0 173.5 -105t62.5 -304q0 -208 -62 -311t-174 -103q-111 0 -173 103t-62 311zM175 363q8 -282 123 -282t123 282h-246zM176 442h244q-7 274 -122 274t-122 -274z" />
<glyph horiz-adv-x="308" d="M87 133v417h116q-1 -49 -3.5 -139.5t-4 -161t-1.5 -123.5q0 -45 41 -45q17 0 34 7l15 -87q-33 -14 -76 -14q-66 0 -93.5 36.5t-27.5 109.5z" />
<glyph horiz-adv-x="574" d="M75 550h114q10 -39 10 -131v-150h4q70 117 153 197t170 98l9 -108q-88 -27 -182 -124q42 -83 104 -175t121 -157l-128 -10q-88 104 -169 262q-3 -4 -16.5 -20.5t-21.5 -26.5q-47 -57 -49 -175v-30h-107v394q0 94 -12 156z" />
<glyph horiz-adv-x="576" d="M17 0l238 559l-5 21q-40 133 -121 133q-34 0 -74 -18l-27 95q48 20 114 20q84 0 134.5 -56t88.5 -180l205 -574h-123l-138 429h-5l-164 -439z" />
<glyph horiz-adv-x="643" d="M87 -200v750h114v-332q0 -68 21.5 -100t69.5 -32q37 0 67.5 20t61.5 75v369h116q-1 -53 -4.5 -204.5t-3.5 -219.5q0 -45 44 -45q16 0 33 7l15 -87q-33 -14 -76 -14q-50 0 -77 24.5t-35 77.5h-3q-53 -99 -142 -99q-66 0 -95 44q1 -131 10 -234h-116z" />
<glyph horiz-adv-x="550" d="M4 536l117 28q50 -81 96.5 -208.5t69.5 -237.5h5q105 228 122 432h115q-23 -146 -70.5 -274.5t-133.5 -275.5h-111q-59 311 -210 536z" />
<glyph horiz-adv-x="498" d="M28 705v92h449v-92h-129q-54 0 -90 -33.5t-36 -90.5q0 -52 38.5 -89.5t87.5 -37.5q42 0 76 8v-94q-35 8 -83 8q-69 0 -119.5 -42t-50.5 -110t40.5 -97.5t125.5 -44.5q85 -16 117.5 -43.5t32.5 -85.5q0 -68 -66 -161l-91 34q32 40 43 59t11 40q0 24 -24 37.5t-95 28.5 q-99 20 -155.5 69t-56.5 148q0 76 47 134.5t116 79.5v4q-51 21 -80.5 62t-29.5 97q0 86 72 127q-76 -1 -150 -7z" />
<glyph horiz-adv-x="608" d="M48 274q0 134 73.5 212t182.5 78q108 0 182 -78t74 -212q0 -132 -74 -209.5t-182 -77.5q-109 0 -182.5 77t-73.5 210zM167 274q0 -89 35.5 -141t101.5 -52t101.5 52t35.5 141q0 90 -35.5 142.5t-101.5 52.5t-101.5 -52.5t-35.5 -142.5z" />
<glyph horiz-adv-x="676" d="M24 457v87l79 6h546v-93h-108q-8 -133 -8 -323q0 -29 12.5 -41t38.5 -12q11 0 43 5l14 -86q-35 -13 -83 -13q-71 0 -102.5 38.5t-31.5 114.5q0 23 2.5 140.5t3.5 176.5h-174q0 -153 -31 -463l-116 6q39 230 39 457h-124z" />
<glyph horiz-adv-x="624" d="M82 -200v476q0 140 69.5 214t179.5 74q116 0 179.5 -74.5t63.5 -205.5q0 -135 -67.5 -216t-159.5 -81q-95 0 -157 73q8 -239 8 -260h-116zM191 147q55 -65 133 -65q57 0 94.5 53t37.5 147q0 186 -130 186q-58 0 -96.5 -50t-38.5 -139v-132z" />
<glyph horiz-adv-x="624" d="M48 269q0 136 74.5 208.5t182.5 72.5h305v-96q-90 7 -168 10v-5q101 -57 101 -206q0 -123 -68.5 -194.5t-175.5 -71.5t-179 75.5t-72 206.5zM167 269q0 -87 37 -137.5t96 -50.5q60 0 96.5 49t36.5 133q0 81 -35.5 137t-96.5 56t-97.5 -47t-36.5 -140z" />
<glyph horiz-adv-x="528" d="M29 458v86l80 6h390v-92h-180q-4 -153 -4 -324q0 -53 45 -53q26 0 56 9l16 -88q-49 -15 -100 -15q-67 0 -96 38.5t-29 114.5v318h-178z" />
<glyph horiz-adv-x="581" d="M61 550h112q9 -43 9 -131q0 -26 -3.5 -103.5t-3.5 -113.5q0 -61 30.5 -91t79.5 -30q57 0 90 48.5t33 145.5q0 132 -43 262l112 27q47 -147 47 -285q0 -139 -64.5 -215.5t-175.5 -76.5q-105 0 -160.5 57.5t-55.5 165.5q0 30 2 91.5t2 92.5q0 92 -11 156z" />
<glyph horiz-adv-x="785" d="M48 275q0 128 85.5 203.5t205.5 81.5v142h107v-142q123 -6 207 -81.5t84 -203.5q0 -127 -85 -203t-206 -82v-190h-107v190q-120 6 -205.5 82t-85.5 203zM167 275q0 -89 48 -141.5t124 -55.5v395q-76 -3 -124 -56t-48 -142zM446 78q76 3 124.5 56t48.5 141 q0 90 -47.5 142.5t-125.5 55.5v-395z" />
<glyph horiz-adv-x="557" d="M10 -200l216 384l-213 352l113 28l155 -277h4l128 263h120l-193 -364l227 -373l-113 -26l-169 304h-4l-153 -304z" />
<glyph horiz-adv-x="797" d="M63 550h111q8 -43 8 -131q0 -30 -1 -92.5t-1 -79.5q0 -76 40.5 -121.5t122.5 -46.5v623h106v-623q172 5 172 221q0 114 -42 237l112 27q46 -132 46 -260q0 -150 -75 -232t-213 -85v-187h-106v187q-138 2 -204.5 74.5t-66.5 193.5v139q0 91 -9 156z" />
<glyph horiz-adv-x="804" d="M54 266q0 151 96 298l106 -45q-47 -72 -70 -135t-23 -140q0 -76 26 -119.5t69 -43.5q41 0 66 30.5t25 95.5q0 64 -11 148h124q-10 -102 -10 -148q0 -126 88 -126q43 0 68.5 46.5t25.5 134.5q0 77 -18.5 133.5t-64.5 126.5l105 42q47 -71 70.5 -139.5t23.5 -155.5 q0 -138 -51.5 -210t-143.5 -72q-51 0 -91.5 25t-60.5 76h-4q-41 -101 -147 -101q-90 0 -144 72t-54 207z" />
<glyph horiz-adv-x="600" d="M97 0v736h435v-97h-319v-205h270v-98h-270v-238h330v-98h-446zM141 862q0 27 17.5 44.5t44.5 17.5t44.5 -17.5t17.5 -44.5q0 -28 -17.5 -45t-44.5 -17t-44.5 17t-17.5 45zM378 862q0 27 17 44.5t45 17.5q27 0 44.5 -17.5t17.5 -44.5q0 -28 -17.5 -45t-44.5 -17 q-28 0 -45 17t-17 45z" />
<glyph horiz-adv-x="622" d="M0 0l244 736h134l244 -736h-123l-62 210h-256l-63 -210h-118zM208 301h201l-29 99q-19 60 -70 245h-4q-28 -110 -68 -245z" />
<glyph horiz-adv-x="659" d="M97 0v736h469v-97h-353v-205h128q126 0 200 -50t74 -158q0 -114 -72 -170t-197 -56h-249zM213 91h117q171 0 171 133q0 64 -43 93t-131 29h-114v-255z" />
<glyph horiz-adv-x="667" d="M97 0v736h228q260 0 260 -181q0 -54 -28.5 -98.5t-76.5 -60.5v-5q66 -14 105.5 -58.5t39.5 -116.5q0 -106 -77.5 -161t-204.5 -55h-246zM213 91h117q181 0 181 131q0 119 -181 119h-117v-250zM213 429h99q159 0 159 111q0 57 -38 81.5t-118 24.5h-102v-217z" />
<glyph horiz-adv-x="568" d="M97 0v736h436v-97h-320v-639h-116z" />
<glyph horiz-adv-x="728" d="M25 27v71h34q58 22 103 262q29 159 65 376h393v-638h84v-71l-11 -238h-103v211h-452v-211h-102zM186 98h318v541h-187q-8 -46 -23 -139.5t-27 -156.5q-33 -172 -81 -245z" />
<glyph horiz-adv-x="600" d="M97 0v736h435v-97h-319v-205h270v-98h-270v-238h330v-98h-446z" />
<glyph horiz-adv-x="927" d="M6 0l221 391l-74 164q-24 51 -44.5 68t-47.5 17q-15 0 -29 -5l-18 107q16 8 46 8q57 0 97 -29t78 -107l84 -182h89v304h111v-304h89l84 182q38 78 78.5 107t97.5 29q29 0 46 -8l-20 -107q-11 5 -28 5q-27 0 -47.5 -17t-43.5 -68l-74 -163l221 -392h-127l-179 338h-97 v-338h-111v338h-96l-180 -338h-126z" />
<glyph horiz-adv-x="627" d="M45 92l63 80q87 -84 202 -84q70 0 115 34.5t45 95.5q0 123 -179 123h-88v88h66q164 0 164 113q0 52 -36.5 79.5t-95.5 27.5q-91 0 -166 -65l-60 77q94 89 229 89q112 0 177.5 -51t65.5 -140q0 -58 -27.5 -101.5t-77.5 -62.5v-5q64 -14 103 -61t39 -118q0 -105 -77 -164.5 t-196 -59.5q-160 0 -266 105z" />
<glyph unicode="&#xa0;" horiz-adv-x="745" d="M97 0v736h114v-343q0 -32 -14 -245h4l78 154l247 434h123v-736h-115v347q0 51 15 241h-5l-77 -153l-248 -435h-122z" />
<glyph unicode="&#xa1;" horiz-adv-x="745" d="M97 0v736h114v-343q0 -32 -14 -245h4l78 154l247 434h123v-736h-115v347q0 51 15 241h-5l-77 -153l-248 -435h-122zM198 946h98q5 -88 81 -88t80 88h99q-9 -150 -179 -150q-91 0 -133 41.5t-46 108.5z" />
<glyph unicode="&#xa2;" horiz-adv-x="667" d="M97 0v736h116v-304h112l101 182q43 78 81.5 107t93.5 29q30 0 47 -8l-20 -107q-12 5 -28 5q-26 0 -44.5 -16.5t-47.5 -68.5l-90 -163l248 -392h-124l-217 338h-112v-338h-116z" />
<glyph unicode="&#xa3;" horiz-adv-x="718" d="M-3 -3l22 106q16 -6 32 -6q21 0 35.5 11.5t31.5 54.5t34 124q18 91 83 449h387v-736h-116v639h-181q-12 -64 -33 -185t-32 -179q-22 -115 -49 -178t-60.5 -86.5t-84.5 -23.5q-43 0 -69 10z" />
<glyph unicode="&#xa4;" horiz-adv-x="830" d="M97 0v736h133l135 -372q9 -26 25 -76t24 -73h5q8 24 23.5 73.5t24.5 75.5l133 372h134v-736h-108v364q0 60 15 228h-4l-59 -170l-128 -351h-72l-129 351l-58 170h-4q14 -188 14 -228v-364h-104z" />
<glyph unicode="&#xa5;" horiz-adv-x="740" d="M97 0v736h116v-300h315v300h116v-736h-116v335h-315v-335h-116z" />
<glyph unicode="&#xa6;" horiz-adv-x="754" d="M57 371q0 175 88 277t232 102t232.5 -102t88.5 -277q0 -176 -89 -280t-232 -104t-231.5 104t-88.5 280zM176 371q0 -130 54.5 -206.5t146.5 -76.5t147 77t55 206t-55 203.5t-147 74.5t-146.5 -74.5t-54.5 -203.5z" />
<glyph unicode="&#xa7;" horiz-adv-x="731" d="M97 0v736h538v-736h-116v639h-306v-639h-116z" />
<glyph unicode="&#xa8;" horiz-adv-x="647" d="M97 0v736h223q281 0 281 -222q0 -116 -75.5 -175.5t-201.5 -59.5h-111v-279h-116zM213 372h100q89 0 131.5 34.5t42.5 107.5q0 70 -43.5 99.5t-134.5 29.5h-96v-271z" />
<glyph unicode="&#xa9;" horiz-adv-x="646" d="M57 366q0 176 94.5 280t237.5 104q124 0 209 -93l-63 -74q-64 66 -144 66q-96 0 -155.5 -75.5t-59.5 -203.5q0 -131 57 -206.5t155 -75.5q91 0 163 78l62 -73q-92 -106 -229 -106q-143 0 -235 101.5t-92 277.5z" />
<glyph unicode="&#xaa;" horiz-adv-x="610" d="M31 639v97h549v-97h-217v-639h-116v639h-216z" />
<glyph unicode="&#xab;" horiz-adv-x="592" d="M5 736h122l122 -292l57 -155h5l54 155l112 292h117l-237 -592q-32 -78 -78.5 -117.5t-118.5 -39.5q-48 0 -79 12l23 102q24 -8 49 -8q61 0 88 52l14 34z" />
<glyph unicode="&#xac;" horiz-adv-x="834" d="M52 371q0 130 82.5 201t232.5 76v102h101v-102q149 -6 232 -77t83 -200q0 -130 -83 -202.5t-232 -78.5v-103h-101v103q-149 6 -232 78.5t-83 202.5zM162 371q0 -90 53.5 -139.5t151.5 -53.5v382q-99 -4 -152 -52t-53 -137zM468 178q98 5 151 54.5t53 138.5t-53 137 t-151 52v-382z" />
<glyph unicode="&#xad;" horiz-adv-x="596" d="M16 0l211 380l-198 356h129l89 -172q9 -17 56 -111h5q35 81 50 111l87 172h122l-198 -362l212 -374h-129l-97 183q-10 19 -30 59t-31 61h-4q-32 -70 -57 -120l-94 -183h-123z" />
<glyph unicode="&#xae;" horiz-adv-x="732" d="M97 0v736h116v-638h294v638h116v-638h84v-71l-11 -238h-102v211h-497z" />
<glyph unicode="&#xaf;" horiz-adv-x="683" d="M73 559v177h114v-177q0 -85 41 -120t128 -35q59 0 115 10v322h116v-736h-116v320q-58 -10 -127 -10q-132 0 -201.5 58.5t-69.5 190.5z" />
<glyph unicode="&#xb0;" horiz-adv-x="989" d="M97 0v736h113v-638h228v638h112v-638h228v638h114v-736h-795z" />
<glyph unicode="&#xb1;" horiz-adv-x="1001" d="M97 0v736h113v-638h228v638h112v-638h228v638h114v-638h85v-71l-11 -238h-104v211h-765z" />
<glyph unicode="&#xb2;" horiz-adv-x="813" d="M31 639v97h346v-291h108q125 0 203 -53.5t78 -160.5q0 -117 -73.5 -174t-201.5 -57h-230v639h-230zM377 93h103q173 0 173 135q0 124 -180 124h-96v-259z" />
<glyph unicode="&#xb3;" horiz-adv-x="917" d="M97 0v736h116v-291h101q129 0 203 -52.5t74 -161.5q0 -118 -74 -174.5t-203 -56.5h-217zM213 93h90q174 0 174 135q0 124 -177 124h-87v-259zM704 0v736h116v-736h-116z" />
<glyph unicode="&#xb4;" horiz-adv-x="659" d="M97 0v736h116v-291h122q129 0 203 -52.5t74 -161.5q0 -118 -74 -174.5t-203 -56.5h-238zM213 93h111q175 0 175 135q0 124 -177 124h-109v-259z" />
<glyph unicode="&#xb5;" horiz-adv-x="646" d="M33 93l62 73q76 -78 174 -78q92 0 145 62t60 186h-294v98h292q-12 106 -64 160.5t-140 54.5q-87 0 -158 -66l-62 74q40 40 99.5 66.5t125.5 26.5q144 0 230.5 -99.5t86.5 -284.5q0 -183 -88.5 -281t-229.5 -98t-239 106z" />
<glyph unicode="&#xb6;" horiz-adv-x="1036" d="M97 0v736h116v-300h154q15 148 95.5 231t207.5 83q141 0 225.5 -101.5t84.5 -277.5q0 -177 -85 -280.5t-225 -103.5q-132 0 -214 93t-91 255h-152v-335h-116zM480 371q0 -131 50.5 -207t139.5 -76t139.5 76t50.5 207q0 130 -50.5 204t-139.5 74t-139.5 -74t-50.5 -204z " />
<glyph unicode="&#xb7;" horiz-adv-x="666" d="M21 0l201 311q-159 48 -159 212q0 213 266 213h241v-736h-116v297h-119l-180 -297h-134zM178 523q0 -133 164 -133h112v253h-112q-83 0 -123.5 -27.5t-40.5 -92.5z" />
<glyph unicode="&#xb8;" horiz-adv-x="575" d="M55 146q0 88 78.5 136.5t250.5 67.5q-2 120 -105 120q-71 0 -159 -56l-43 78q114 72 222 72q101 0 150.5 -60.5t49.5 -172.5v-331h-94l-10 63h-3q-88 -76 -175 -76q-72 0 -117 43.5t-45 115.5zM166 154q0 -39 23.5 -57.5t62.5 -18.5q62 0 132 64v135q-118 -14 -168 -44.5 t-50 -78.5z" />
<glyph unicode="&#xb9;" horiz-adv-x="618" d="M56 336q0 106 17 182.5t44 124t73.5 78t93.5 44.5t117 24q75 11 120 32l23 -102q-35 -26 -119 -38q-45 -7 -67.5 -11t-54 -12t-46 -18t-33 -27t-27 -40t-16 -55.5t-11.5 -75.5q71 86 178 86q97 0 157.5 -68.5t60.5 -188.5q0 -128 -70.5 -206t-176.5 -78q-125 0 -194 91 t-69 258zM166 312q0 -112 39 -171.5t113 -59.5q58 0 94 52.5t36 137.5q0 82 -34 126t-97 44q-84 0 -151 -89v-40z" />
<glyph unicode="&#xba;" horiz-adv-x="578" d="M87 0v550h218q209 0 209 -141q0 -89 -92 -116v-5q114 -27 114 -130q0 -80 -60 -119t-161 -39h-228zM199 80h106q119 0 119 85q0 38 -31.5 59t-91.5 21h-102v-165zM199 324h92q111 0 111 73q0 74 -107 74h-96v-147z" />
<glyph unicode="&#xbb;" horiz-adv-x="469" d="M87 0v550h353v-92h-239v-458h-114z" />
<glyph unicode="&#xbc;" horiz-adv-x="617" d="M19 18v74h29q25 14 42 59t31 163l29 236h363v-458h82v-74l-11 -211h-99v193h-355v-193h-99zM166 92h232v366h-158l-18 -168q-15 -131 -56 -198z" />
<glyph unicode="&#xbd;" horiz-adv-x="565" d="M48 274q0 129 75 209.5t176 80.5q107 0 165.5 -70.5t58.5 -190.5q0 -36 -5 -58h-357q7 -78 52.5 -123t117.5 -45q68 0 131 41l40 -73q-87 -58 -186 -58q-115 0 -191.5 77.5t-76.5 209.5zM160 324h264q0 72 -31.5 111t-91.5 39q-54 0 -93.5 -40t-47.5 -110z" />
<glyph unicode="&#xbe;" horiz-adv-x="794" d="M13 0l173 287l-40 97q-17 40 -34.5 54.5t-41.5 14.5q-9 0 -19 -3l-20 107q19 7 37 7q52 0 88.5 -26t65.5 -91l50 -116h73v219h103v-219h73l51 116q29 65 65.5 91t88.5 26q18 0 36 -7l-19 -107q-11 3 -19 3q-49 0 -76 -69l-40 -96l174 -288h-125l-131 239h-78v-239h-103 v239h-77l-132 -239h-123z" />
<glyph unicode="&#xbf;" horiz-adv-x="520" d="M38 55l47 74q65 -52 153 -52q54 0 90 23.5t36 63.5q0 81 -123 81h-80v79h68q114 0 114 77q0 35 -27.5 54t-75.5 19q-78 0 -144 -45l-45 75q85 60 195 60q89 0 149 -39t60 -112q0 -39 -23.5 -72t-66.5 -48v-5q113 -29 113 -135q0 -75 -68 -120.5t-162 -45.5 q-122 0 -210 68z" />
<glyph unicode="&#xc0;" horiz-adv-x="641" d="M87 0v550h111v-205q0 -46 -11 -200h5q10 17 35 58.5t35 58.5l187 288h106v-550h-111v205q0 45 11 201h-5q-50 -85 -70 -117l-188 -289h-105z" />
<glyph unicode="&#xc1;" horiz-adv-x="641" d="M87 0v550h111v-205q0 -46 -11 -200h5q10 17 35 58.5t35 58.5l187 288h106v-550h-111v205q0 45 11 201h-5q-50 -85 -70 -117l-188 -289h-105zM143 820h92q5 -111 90 -111t89 111h92q-2 -78 -46.5 -127t-134.5 -49q-89 0 -133.5 49t-48.5 127z" />
<glyph unicode="&#xc2;" horiz-adv-x="577" d="M87 0v550h114v-219h91l52 116q31 68 66 92.5t88 24.5q18 0 36 -7l-19 -107q-11 3 -19 3q-24 0 -41.5 -13.5t-35.5 -55.5l-41 -95l187 -289h-126l-145 239h-93v-239h-114z" />
<glyph unicode="&#xc3;" horiz-adv-x="612" d="M10 -4l20 105q16 -4 26 -4q57 0 70 106q7 60 20.5 176.5t20.5 170.5h359v-550h-116v458h-153q-24 -209 -35 -286q-24 -185 -157 -185q-29 0 -55 9z" />
<glyph unicode="&#xc4;" horiz-adv-x="721" d="M87 0v550h131l96 -236q43 -120 46 -130h5q4 10 21 57t26 73l92 236h132v-550h-104v214q0 28 12 205h-4q-9 -26 -28 -75.5t-24 -62.5l-92 -230h-70l-93 230q-36 91 -52 138h-5q13 -192 13 -205v-214h-102z" />
<glyph unicode="&#xc5;" horiz-adv-x="639" d="M87 0v550h114v-215h237v215h115v-550h-115v234h-237v-234h-114z" />
<glyph unicode="&#xc6;" horiz-adv-x="614" d="M48 274q0 133 76 211.5t183 78.5t183 -78.5t76 -211.5q0 -131 -76 -209t-183 -78t-183 78t-76 209zM167 274q0 -87 38 -140t102 -53q65 0 103 52.5t38 140.5t-38 141.5t-103 53.5q-64 0 -102 -53.5t-38 -141.5z" />
<glyph unicode="&#xc7;" horiz-adv-x="629" d="M87 0v550h456v-550h-115v458h-227v-458h-114z" />
<glyph unicode="&#xc8;" horiz-adv-x="630" d="M87 -223v773h94l9 -60h3q89 74 169 74q103 0 160.5 -75.5t57.5 -204.5q0 -136 -69.5 -216.5t-167.5 -80.5q-72 0 -145 62l3 -94v-178h-114zM201 132q58 -50 120 -50t101 53t39 147q0 186 -129 186q-61 0 -131 -67v-269z" />
<glyph unicode="&#xc9;" horiz-adv-x="517" d="M48 274q0 133 79 211.5t193 78.5q89 0 161 -63l-57 -75q-48 43 -99 43q-69 0 -113.5 -54t-44.5 -141t43 -140t112 -53q61 0 120 50l47 -76q-76 -68 -178 -68q-115 0 -189 77t-74 210z" />
<glyph unicode="&#xca;" horiz-adv-x="528" d="M29 458v92h470v-92h-177v-458h-115v458h-178z" />
<glyph unicode="&#xcb;" horiz-adv-x="544" d="M13 550h118l102 -283q6 -18 23 -72t27 -83h5l43 155l88 283h112l-202 -583q-35 -97 -85 -147t-132 -50q-39 0 -69 11l22 90q27 -8 40 -8q80 0 115 103l11 38z" />
<glyph unicode="&#xcc;" horiz-adv-x="841" d="M50 274q0 130 61.5 210t147.5 80q53 0 108 -37l-3 81v189h113v-189l-4 -84q61 40 117 40q95 0 148 -76t53 -204q0 -137 -61.5 -217t-150.5 -80q-54 0 -106 37l4 -81v-166h-113v166l3 82q-54 -38 -108 -38q-96 0 -152.5 76t-56.5 211zM169 276q0 -93 31 -143.5t87 -50.5 q45 0 80 35v319q-36 32 -84 32q-49 0 -81.5 -52.5t-32.5 -139.5zM473 114q37 -32 83 -32q52 0 84.5 52.5t32.5 147.5q0 186 -113 186q-46 0 -87 -33v-321z" />
<glyph unicode="&#xcd;" horiz-adv-x="526" d="M15 0l178 287l-165 263h124l66 -111q16 -30 52 -92h4l46 92l58 111h120l-165 -276l177 -274h-125l-72 116q-34 62 -57 98h-5q-23 -41 -51 -98l-64 -116h-121z" />
<glyph unicode="&#xce;" horiz-adv-x="637" d="M87 0v550h114v-458h220v458h115v-458h83v-74l-12 -211h-98v193h-422z" />
<glyph unicode="&#xcf;" horiz-adv-x="589" d="M63 397v153h115v-153q0 -55 30.5 -80.5t98.5 -25.5q39 0 81 9v250h115v-550h-115v209q-51 -10 -105 -10q-220 0 -220 198z" />
<glyph unicode="&#xd0;" horiz-adv-x="862" d="M87 0v550h113v-458h175v458h111v-458h175v458h115v-550h-689z" />
<glyph unicode="&#xd1;" horiz-adv-x="877" d="M87 0v550h113v-458h175v458h111v-458h175v458h115v-458h82v-74l-11 -211h-100v193h-660z" />
<glyph unicode="&#xd2;" horiz-adv-x="680" d="M29 458v92h301v-194h81q104 0 164 -43t60 -133q0 -92 -60 -136t-164 -44h-196v458h-186zM330 90h72q122 0 122 90q0 89 -122 89h-72v-179z" />
<glyph unicode="&#xd3;" horiz-adv-x="781" d="M87 0v550h114v-194h66q104 0 164 -43t60 -133q0 -92 -60 -136t-164 -44h-180zM201 90h57q122 0 122 90q0 89 -122 89h-57v-179zM580 0v550h115v-550h-115z" />
<glyph unicode="&#xd4;" horiz-adv-x="561" d="M87 0v550h114v-194h91q104 0 164 -43t60 -133q0 -92 -60 -136t-164 -44h-205zM201 90h82q121 0 121 90q0 89 -121 89h-82v-179z" />
<glyph unicode="&#xd5;" horiz-adv-x="517" d="M26 55l45 69q54 -47 125 -47t113 42t49 126h-227v79h225q-10 75 -50 112.5t-102 37.5q-63 0 -116 -43l-52 67q70 66 174 66q113 0 185.5 -74.5t72.5 -215.5q0 -139 -72 -213t-189 -74q-110 0 -181 68z" />
<glyph unicode="&#xd6;" horiz-adv-x="843" d="M87 0v550h114v-218h109q15 109 81.5 170.5t161.5 61.5q104 0 173 -78t69 -212q0 -133 -69 -210t-173 -77q-99 0 -166 65t-79 179h-107v-231h-114zM415 274q0 -87 36 -140t96 -53q61 0 95.5 52.5t34.5 140.5q0 89 -34.5 142t-95.5 53q-60 0 -96 -53.5t-36 -141.5z" />
<glyph unicode="&#xd7;" horiz-adv-x="589" d="M30 0l161 223q-115 44 -115 158q0 169 219 169h208v-550h-115v205h-91l-138 -205h-129zM190 378q0 -44 32 -68t90 -24h76v177h-76q-122 0 -122 -85z" />
<glyph unicode="&#xd8;" horiz-adv-x="565" d="M48 274q0 129 75 209.5t176 80.5q107 0 165.5 -70.5t58.5 -190.5q0 -36 -5 -58h-357q7 -78 52.5 -123t117.5 -45q68 0 131 41l40 -73q-87 -58 -186 -58q-115 0 -191.5 77.5t-76.5 209.5zM123 717q0 27 18 45.5t46 18.5q27 0 45 -18.5t18 -45.5q0 -26 -18 -44.5t-45 -18.5 t-45.5 18t-18.5 45zM160 324h264q0 72 -31.5 111t-91.5 39q-54 0 -93.5 -40t-47.5 -110zM348 717q0 27 18 45.5t46 18.5t46 -18.5t18 -45.5t-18 -45t-46 -18t-46 18t-18 45z" />
<glyph unicode="&#xd9;" d="M375 358v44h250v-44h-250z" />
<glyph unicode="&#xda;" d="M73 358v44h854v-44h-854z" />
<glyph unicode="&#xdb;" horiz-adv-x="298" d="M63 566q0 141 132 212l30 -52q-46 -28 -68 -60.5t-23 -79.5q4 1 11 1q28 0 48 -18t20 -48q0 -32 -19 -51.5t-49 -19.5q-40 0 -61 30t-21 86z" />
<glyph unicode="&#xdc;" horiz-adv-x="298" d="M73 509q46 29 67.5 61.5t22.5 79.5q-3 -1 -10 -1q-28 0 -47.5 17.5t-19.5 47.5q0 33 18.5 52t48.5 19q39 0 60.5 -30.5t21.5 -85.5q0 -139 -133 -212z" />
<glyph unicode="&#xdd;" horiz-adv-x="518" d="M63 566q0 141 132 212l30 -52q-46 -28 -68 -60.5t-23 -79.5q4 1 11 1q28 0 48 -18t20 -48q0 -32 -19 -51.5t-49 -19.5q-40 0 -61 30t-21 86zM283 566q0 141 132 212l30 -52q-46 -28 -68 -60.5t-23 -79.5q3 1 10 1q29 0 49 -18t20 -48q0 -33 -19.5 -52t-49.5 -19 q-39 0 -60 30t-21 86z" />
<glyph unicode="&#xde;" horiz-adv-x="518" d="M73 509q46 29 67.5 61.5t22.5 79.5q-3 -1 -10 -1q-28 0 -47.5 17.5t-19.5 47.5q0 33 18.5 52t48.5 19q39 0 60.5 -30.5t21.5 -85.5q0 -139 -133 -212zM293 509q46 29 67.5 61.5t22.5 79.5q-3 -1 -10 -1q-28 0 -48 17.5t-20 47.5q0 33 19 52t49 19q39 0 60.5 -30.5 t21.5 -85.5q0 -139 -133 -212z" />
<glyph unicode="&#xdf;" d="M257 443v94l198 -8l-9 238h108l-9 -238l198 8v-94l-198 7l9 -507h-108l9 507z" />
<glyph unicode="&#xe0;" d="M257 161v95l198 -8v216l-198 -8v95l198 -8l-9 224h108l-9 -224l198 8v-95l-198 8v-216l198 8v-95l-198 8l9 -226h-108l9 226z" />
<glyph unicode="&#xe1;" d="M178 380q0 30 21 51t51 21t51 -21t21 -51t-21 -51t-51 -21t-51 21t-21 51zM678 380q0 30 21 51t51 21t51 -21t21 -51t-21 -51t-51 -21t-51 21t-21 51z" />
<glyph unicode="&#xe2;" d="M95 380q0 30 21 51t51 21t51 -21t21 -51t-21 -51t-51 -21t-51 21t-21 51zM428 380q0 30 21 51t51 21t51 -21t21 -51t-21 -51t-51 -21t-51 21t-21 51zM761 380q0 30 21 51t51 21t51 -21t21 -51t-21 -51t-51 -21t-51 21t-21 51z" />
<glyph unicode="&#xe3;" d="M32 523q0 101 37 164t95 62q62 0 95 -64t33 -161q0 -109 -37.5 -166.5t-91.5 -57.5q-62 0 -96.5 63t-34.5 160zM102 525q0 -167 61 -167q60 0 60 165q0 73 -13.5 121t-48.5 47q-59 0 -59 -166zM121 -15l389 767h58l-388 -767h-59zM398 215q0 101 37 164t95 62 q62 0 95 -64t33 -161q0 -109 -37.5 -166.5t-91.5 -57.5q-62 0 -96.5 63t-34.5 160zM467 217q0 -167 62 -167q59 0 59 165q0 74 -13 121.5t-48 46.5q-60 0 -60 -166zM708 215q0 101 37 164t95 62q62 0 95 -64t33 -161q0 -109 -37.5 -166.5t-91.5 -57.5q-62 0 -96.5 63 t-34.5 160zM777 217q0 -167 62 -167q59 0 59 165q0 74 -13 121.5t-48 46.5q-60 0 -60 -166z" />
<glyph unicode="&#xe4;" horiz-adv-x="298" d="M92 485l24 290l114 -1l-19 -114l-44 -176z" />
<glyph unicode="&#xe5;" horiz-adv-x="518" d="M92 485l24 290l114 -1l-19 -114l-44 -176zM312 485l23 290l115 -1l-20 -114l-43 -176z" />
<glyph unicode="&#xe6;" d="M140 49l331 331l-330 330l29 29l330 -330l330 330l29 -29l-330 -330l330 -330l-29 -29l-330 330l-331 -331zM140 380q0 31 22 53t53 22t53 -22t22 -53t-22 -53t-53 -22t-53 22t-22 53zM425 95q0 31 22 53t53 22t53 -22t22 -53t-22 -53t-53 -22t-53 22t-22 53zM425 665 q0 31 22 53t53 22t53 -22t22 -53t-22 -53t-53 -22t-53 22t-22 53zM710 380q0 31 22 53t53 22t53 -22t22 -53t-22 -53t-53 -22t-53 22t-22 53z" />
<glyph unicode="&#xe7;" d="M39 620q0 67 43 109t105 42t105.5 -42t43.5 -109q0 -65 -43.5 -107t-105.5 -42t-105 42t-43 107zM106 620q0 -39 22.5 -63.5t58.5 -24.5q37 0 60 24.5t23 63.5q0 40 -23 64.5t-60 24.5q-36 0 -58.5 -24.5t-22.5 -64.5zM408 366q0 176 95 280t241 104q119 0 207 -92 l-66 -75q-60 63 -139 63q-97 0 -156.5 -74.5t-59.5 -201.5q0 -130 57 -205t155 -75q90 0 158 76l67 -73q-93 -107 -227 -107q-146 0 -239 101.5t-93 278.5z" />
<glyph unicode="&#xe8;" d="M188 0l234 710q-76 34 -76 121q0 62 42 99t109 37t110 -37.5t43 -98.5q0 -40 -20 -71t-54 -48l236 -712h-126l-61 208h-254l-62 -208h-121zM398 300h200l-29 98q-13 42 -69 245h-5q-38 -150 -68 -245zM419 825q0 -39 21.5 -61t56.5 -22q34 0 56.5 22.5t22.5 60.5 q0 37 -23 59.5t-56 22.5q-34 0 -56 -22.5t-22 -59.5z" />
<glyph unicode="&#xe9;" d="M35 380q152 98 258 235l73 -41q-66 -91 -149 -152h743v-84h-743q83 -61 149 -152l-73 -41q-106 137 -258 235z" />
<glyph unicode="&#xea;" d="M265 587q137 106 235 258q98 -152 235 -258l-41 -73q-91 66 -152 149v-743h-84v743q-61 -83 -152 -149z" />
<glyph unicode="&#xeb;" d="M40 338v84h743q-83 61 -149 152l73 41q106 -137 258 -235q-152 -98 -258 -235l-73 41q66 91 149 152h-743z" />
<glyph unicode="&#xec;" d="M265 173l41 73q91 -66 152 -149v743h84v-743q61 83 152 149l41 -73q-137 -106 -235 -258q-98 152 -235 258z" />
<glyph unicode="&#xed;" d="M40 197v83h691q58 59 109 97q-51 38 -109 97h-691v83h619q-56 68 -85 117l71 41q59 -95 150.5 -188t181.5 -150q-90 -57 -181.5 -150t-150.5 -188l-71 41q29 49 85 117h-619z" />
<glyph unicode="&#xee;" d="M23 377q81 57 163.5 150t135.5 188l72 -41q-28 -51 -80 -117h372q-52 66 -80 117l72 41q53 -95 135.5 -188t163.5 -150q-81 -57 -163.5 -150t-135.5 -188l-72 41q28 51 80 117h-372q52 -66 80 -117l-72 -41q-53 95 -135.5 188t-163.5 150zM149 377q47 -37 101 -97h500 q54 60 101 97q-47 37 -101 97h-500q-54 -60 -101 -97z" />
<glyph unicode="&#xef;" d="M112 729l73 39l128 -248h374l128 248l73 -39l-386 -744h-4zM356 437l142 -277h4l142 277h-288z" />
<glyph unicode="&#xf0;" d="M208 217q0 114 78.5 190.5t178.5 76.5q143 0 215 -123h2q15 63 15 122q0 95 -42.5 147t-117.5 52q-93 0 -161 -81l-59 67q106 97 231 97q109 0 178.5 -74t69.5 -208q0 -85 -22.5 -170t-65 -158.5t-113 -119.5t-156.5 -46q-110 0 -170.5 64t-60.5 164zM303 221 q0 -65 38.5 -104.5t100.5 -39.5q69 1 120.5 47t81.5 131q-12 68 -60 108.5t-110 40.5q-66 0 -118.5 -52.5t-52.5 -130.5z" />
<glyph unicode="&#xf1;" d="M192 11v83h528v242h-528v83h528v241h-528v83h611v-732h-611z" />
<glyph unicode="&#xf2;" d="M146 651v70h707v-70l-284 -666h-139zM277 623l128 -309l90 -232h5l90 232l129 309h-442z" />
<glyph unicode="&#xf3;" d="M123 377q0 136 96.5 229t238.5 93h413v-83h-413q-96 0 -164.5 -55.5t-82.5 -141.5h660v-83h-660q14 -86 82.5 -142t164.5 -56h413v-83h-413q-142 0 -238.5 93t-96.5 229z" />
<glyph unicode="&#xf4;" d="M129 55v83h413q96 0 164.5 56t82.5 142h-660v83h660q-14 86 -82.5 141.5t-164.5 55.5h-413v83h413q142 0 238.5 -93t96.5 -229t-96.5 -229t-238.5 -93h-413z" />
<glyph unicode="&#xf5;" d="M32 113l140 197l98 -254l287 824h443v-44h-412l-321 -924h-31l-108 279l-70 -98z" />
<glyph unicode="&#xf6;" d="M32 377q0 96 62.5 150t143.5 54q145 0 262 -139q117 139 262 139q51 0 93 -15l-31 -77q-27 9 -61 9q-114 0 -209 -121q95 -121 209 -121q34 0 61 9l31 -77q-42 -15 -93 -15q-145 0 -262 139q-117 -139 -262 -139q-81 0 -143.5 54.5t-62.5 149.5zM115 377q0 -55 35 -88 t86 -33q115 0 210 121q-95 121 -210 121q-51 0 -86 -33t-35 -88z" />
<glyph unicode="&#xf7;" d="M32 377q0 96 62.5 150t143.5 54q145 0 262 -139q117 139 262 139q80 0 143 -54.5t63 -149.5t-63 -149.5t-143 -54.5q-145 0 -262 139q-117 -139 -262 -139q-81 0 -143.5 54.5t-62.5 149.5zM115 377q0 -55 35 -88t86 -33q115 0 210 121q-95 121 -210 121q-51 0 -86 -33 t-35 -88zM554 377q95 -121 209 -121q51 0 86.5 33t35.5 88t-35.5 88t-86.5 33q-114 0 -209 -121z" />
<glyph unicode="&#xf8;" d="M99 28v4l660 662l59 -59l-522 -521v-3h587v-83h-784z" />
<glyph unicode="&#xf9;" d="M199 128l322 643l74 -37l-321 -643zM405 25l321 643l75 -37l-322 -643z" />
<glyph unicode="&#xfa;" d="M112 29l386 745h4l386 -745l-73 -38l-313 608h-4l-313 -608z" />
<glyph unicode="&#xfb;" d="M112 725l73 38l313 -608h4l313 608l73 -38l-386 -745h-4z" />
<glyph unicode="&#xfc;" d="M178 6v413q0 142 93 238.5t229 96.5t229 -96.5t93 -238.5v-413h-83v413q0 108 -68.5 180t-170.5 72t-170.5 -72t-68.5 -180v-413h-83z" />
<glyph unicode="&#xfd;" d="M178 335v413h83v-413q0 -108 68.5 -180t170.5 -72t170.5 72t68.5 180v413h83v-413q0 -142 -93 -238.5t-229 -96.5t-229 96.5t-93 238.5z" />
<glyph unicode="&#xfe;" d="M311 -83l9 91q17 -4 37 -4q44 0 68.5 35.5t24.5 135.5v426q0 247 185 247q26 0 54 -5l-9 -91q-17 4 -37 4q-44 0 -68.5 -35.5t-24.5 -135.5v-426q0 -247 -185 -247q-26 0 -54 5z" />
<glyph unicode="&#xff;" d="M116 -83l8 91q17 -4 37 -4q45 0 69 35.5t24 135.5v426q0 247 185 247q27 0 54 -5l-9 -91q-16 4 -36 4q-45 0 -69.5 -35.5t-24.5 -135.5v-426q0 -247 -185 -247q-26 0 -53 5zM507 -83l9 91q16 -4 36 -4q45 0 69.5 35.5t24.5 135.5v426q0 247 185 247q26 0 53 -5l-8 -91 q-17 4 -37 4q-45 0 -69 -35.5t-24 -135.5v-426q0 -247 -185 -247q-27 0 -54 5z" />
<glyph unicode="&#x100;" d="M166 146q0 32 23 55t56 23q32 0 55 -23t23 -55t-23 -55.5t-55 -23.5q-33 0 -56 23.5t-23 55.5zM421 608q0 33 23.5 56t55.5 23t55.5 -23t23.5 -56q0 -32 -23.5 -55t-55.5 -23t-55.5 23t-23.5 55zM677 146q0 32 23.5 55t55.5 23t55.5 -23t23.5 -55t-23.5 -55.5 t-55.5 -23.5t-55.5 23.5t-23.5 55.5z" />
<glyph unicode="&#x101;" d="M166 608q0 33 23 56t56 23q32 0 55 -23t23 -56q0 -32 -23 -55t-55 -23q-33 0 -56 23t-23 55zM421 146q0 32 23.5 55t55.5 23t55.5 -23t23.5 -55t-23.5 -55.5t-55.5 -23.5t-55.5 23.5t-23.5 55.5zM677 608q0 33 23.5 56t55.5 23t55.5 -23t23.5 -56q0 -32 -23.5 -55 t-55.5 -23t-55.5 23t-23.5 55z" />
<glyph unicode="&#x102;" d="M32 377q0 96 63 150t146 54q51 0 93 -15l-31 -77q-27 9 -64 9q-53 0 -88.5 -33t-35.5 -88t35 -88t86 -33q72 0 127 39.5t108 111.5q60 80 129.5 127t161.5 47q80 0 143 -54.5t63 -149.5q0 -96 -63 -150t-146 -54q-51 0 -94 15l31 77q28 -9 64 -9q53 0 89 33t36 88 t-35.5 88t-86.5 33q-71 0 -126 -40t-108 -111q-131 -174 -291 -174q-81 0 -143.5 54.5t-62.5 149.5z" />
<glyph unicode="&#x103;" d="M140 243v71h720v-71h-720zM140 440v71h720v-71h-720zM241 670q0 32 23.5 55.5t55.5 23.5t55.5 -23.5t23.5 -55.5t-23.5 -55.5t-55.5 -23.5t-55.5 23.5t-23.5 55.5zM601 84q0 32 23.5 55.5t55.5 23.5t55.5 -23.5t23.5 -55.5t-23.5 -55.5t-55.5 -23.5t-55.5 23.5 t-23.5 55.5z" />
<glyph unicode="&#x104;" d="M140 223v83h290l50 139h-340v83h371l73 201l78 -29l-63 -172h261v-83h-291l-50 -139h341v-83h-372l-72 -198l-78 29l62 169h-260z" />
<glyph unicode="&#x105;" d="M140 121v77h720v-77h-720zM140 338v78h720v-78h-720zM140 556v77h720v-77h-720z" />
<glyph unicode="&#x106;" d="M103 558v3l753 287l29 -78l-548 -209v-3l548 -210l-29 -78zM129 29h742v-77h-742v77zM129 128v77h742v-77h-742z" />
<glyph unicode="&#x107;" d="M115 348l548 210v3l-548 209l29 78l753 -287v-3l-753 -288zM129 29h742v-77h-742v77zM129 128v77h742v-77h-742z" />
<glyph unicode="&#x108;" d="M45 375v4l553 386l41 -58l-470 -328v-4l470 -328l-41 -58zM360 375v4l553 386l41 -58l-470 -328v-4l470 -328l-41 -58z" />
<glyph unicode="&#x109;" d="M46 47l470 328v4l-470 328l41 58l553 -386v-4l-553 -386zM361 47l470 328v4l-470 328l41 58l553 -386v-4l-553 -386z" />
<glyph unicode="&#x10a;" d="M123 377q0 136 96.5 229t238.5 93h413v-83h-413q-108 0 -180 -68.5t-72 -170.5t72 -170.5t180 -68.5h413v-83h-413q-142 0 -238.5 93t-96.5 229z" />
<glyph unicode="&#x10b;" d="M129 55v83h413q108 0 180 68.5t72 170.5t-72 170.5t-180 68.5h-413v83h413q142 0 238.5 -93t96.5 -229t-96.5 -229t-238.5 -93h-413z" />
<glyph unicode="&#x10c;" d="M123 499q0 111 79 188.5t206 77.5h463v-83h-463q-92 0 -147 -53t-55 -130t55 -130.5t147 -53.5h463v-83h-463q-126 0 -205.5 78t-79.5 189zM129 -11v83h742v-83h-742z" />
<glyph unicode="&#x10d;" d="M129 -11v83h742v-83h-742zM129 232v83h463q92 0 147 53.5t55 130.5t-55 130t-147 53h-463v83h463q127 0 206 -77.5t79 -188.5t-79.5 -189t-205.5 -78h-463z" />
<glyph unicode="&#x10e;" d="M100 34v83h358v621h84v-621h358v-83h-800z" />
<glyph unicode="&#x10f;" d="M22 649q198 198 478 198t478 -198l-36 -75q-191 183 -442 183t-442 -183z" />
<glyph unicode="&#x110;" d="M0 360v40h1000v-40h-1000z" />
<glyph unicode="&#x111;" d="M0 320v120h1000v-120h-1000z" />
<glyph unicode="&#x112;" d="M480 -120v1000h40v-1000h-40z" />
<glyph unicode="&#x113;" d="M440 -120v1000h120v-1000h-120z" />
<glyph unicode="&#x114;" d="M480 -120v520h520v-40h-480v-480h-40z" />
<glyph unicode="&#x115;" d="M440 -120v560h560v-120h-440v-440h-120z" />
<glyph unicode="&#x116;" d="M0 360v40h520v-520h-40v480h-480z" />
<glyph unicode="&#x117;" d="M0 320v120h560v-560h-120v440h-440z" />
<glyph unicode="&#x118;" d="M480 360v520h40v-480h480v-40h-520z" />
<glyph unicode="&#x119;" d="M440 320v560h120v-440h440v-120h-560z" />
<glyph unicode="&#x11a;" d="M0 360v40h480v480h40v-520h-520z" />
<glyph unicode="&#x11b;" d="M0 320v120h440v440h120v-560h-560z" />
<glyph unicode="&#x11c;" d="M480 -120v1000h40v-480h480v-40h-480v-480h-40z" />
<glyph unicode="&#x11d;" d="M480 -120v1000h40v-440h480v-120h-480v-440h-40z" />
<glyph unicode="&#x11e;" d="M440 -120v1000h120v-480h440v-40h-440v-480h-120z" />
<glyph unicode="&#x11f;" d="M440 -120v1000h120v-440h440v-120h-440v-440h-120z" />
<glyph unicode="&#x120;" d="M0 360v40h480v480h40v-1000h-40v480h-480z" />
<glyph unicode="&#x121;" d="M0 320v120h480v440h40v-1000h-40v440h-480z" />
<glyph unicode="&#x122;" d="M0 360v40h440v480h120v-1000h-120v480h-440z" />
<glyph unicode="&#x123;" d="M0 320v120h440v440h120v-1000h-120v440h-440z" />
<glyph unicode="&#x124;" d="M0 360v40h1000v-40h-480v-480h-40v480h-480z" />
<glyph unicode="&#x125;" d="M0 320v120h1000v-120h-480v-440h-40v440h-480z" />
<glyph unicode="&#x126;" d="M0 360v40h1000v-40h-440v-480h-120v480h-440z" />
<glyph unicode="&#x127;" d="M0 320v120h1000v-120h-440v-440h-120v440h-440z" />
<glyph unicode="&#x128;" d="M0 360v40h480v480h40v-480h480v-40h-1000z" />
<glyph unicode="&#x129;" d="M0 320v120h480v440h40v-440h480v-120h-1000z" />
<glyph unicode="&#x12a;" d="M0 360v40h440v480h120v-480h440v-40h-1000z" />
<glyph unicode="&#x12b;" d="M0 320v120h440v440h120v-440h440v-120h-1000z" />
<glyph unicode="&#x12c;" d="M0 360v40h480v480h40v-480h480v-40h-480v-480h-40v480h-480z" />
<glyph unicode="&#x12d;" d="M0 320v120h480v440h40v-440h480v-120h-480v-440h-40v440h-480z" />
<glyph unicode="&#x12e;" d="M0 360v40h440v480h120v-480h440v-40h-440v-480h-120v480h-440z" />
<glyph unicode="&#x12f;" d="M0 320v120h440v440h120v-440h440v-120h-440v-440h-120v440h-440z" />
<glyph unicode="&#x130;" d="M100 -20v800h800v-800h-800z" />
<glyph unicode="&#x131;" d="M100 -20v800h800v-800h-800zM140 20h720v720h-720v-720z" />
<glyph unicode="&#x132;" d="M30 12l470 814l470 -814h-940z" />
<glyph unicode="&#x133;" d="M30 12l470 814l470 -814h-940zM99 52h802l-401 694z" />
<glyph unicode="&#x134;" d="M30 748h940l-470 -814z" />
<glyph unicode="&#x135;" d="M30 748h940l-470 -814zM99 708l401 -694l401 694h-802z" />
<glyph unicode="&#x136;" d="M12 380l488 488l488 -488l-488 -488z" />
<glyph unicode="&#x137;" d="M12 380l488 488l488 -488l-488 -488zM69 380l431 -431l431 431l-431 431z" />
<glyph unicode="&#x138;" d="M50 380q0 122 60 226t164 164t226 60t226 -60t164 -164t60 -226t-60 -226t-164 -164t-226 -60t-226 60t-164 164t-60 226zM90 380q0 -111 55 -205.5t149.5 -149.5t205.5 -55t205.5 55t149.5 149.5t55 205.5t-55 205.5t-149.5 149.5t-205.5 55t-205.5 -55t-149.5 -149.5 t-55 -205.5z" />
<glyph unicode="&#x139;" d="M50 380q0 122 60 226t164 164t226 60t226 -60t164 -164t60 -226t-60 -226t-164 -164t-226 -60t-226 60t-164 164t-60 226zM90 380q0 -111 55 -205.5t149.5 -149.5t205.5 -55t205.5 55t149.5 149.5t55 205.5t-55 205.5t-149.5 149.5t-205.5 55t-205.5 -55t-149.5 -149.5 t-55 -205.5zM205 380q0 122 86.5 208.5t208.5 86.5t208.5 -86.5t86.5 -208.5t-86.5 -208.5t-208.5 -86.5t-208.5 86.5t-86.5 208.5zM239 380q0 -108 76.5 -184.5t184.5 -76.5t184.5 76.5t76.5 184.5t-76.5 184.5t-184.5 76.5t-184.5 -76.5t-76.5 -184.5z" />
<glyph unicode="&#x13a;" d="M50 380q0 122 60 226t164 164t226 60t226 -60t164 -164t60 -226t-60 -226t-164 -164t-226 -60t-226 60t-164 164t-60 226z" />
<glyph unicode="&#x13b;" d="M32 380q0 95 37 181.5t100 149.5t149.5 100t181.5 37t181.5 -37t149.5 -100t100 -149.5t37 -181.5t-37 -181.5t-100 -149.5t-149.5 -100t-181.5 -37t-181.5 37t-149.5 100t-100 149.5t-37 181.5zM65 380q0 -180 127.5 -307.5t307.5 -127.5t307.5 127.5t127.5 307.5 t-127.5 307.5t-307.5 127.5t-307.5 -127.5t-127.5 -307.5z" />
<glyph unicode="&#x13c;" d="M38 480v5h350l110 336h4l110 -336h350v-5l-282 -205l111 -337l-4 -2l-287 209l-287 -209l-4 2l111 337z" />
<glyph unicode="&#x13d;" d="M37 476l2 9h349l107 336h10l107 -336h349l2 -9l-283 -201l113 -335l-7 -5l-286 210l-286 -210l-7 5l113 335zM136 449l91 -59l141 -99l-53 -158l-43 -110l2 -1l94 75l132 97l132 -97l94 -75l2 1l-43 110l-53 158l141 99l91 59v2l-107 -6h-174l-55 169l-27 103h-2 l-28 -103l-54 -169h-175l-106 6v-2z" />
<glyph unicode="&#x13e;" d="M178 200v83h280v97q-78 14 -129 75.5t-51 142.5q0 92 65 157t157 65t157 -65t65 -157q0 -81 -51 -142.5t-129 -75.5v-97h280v-83h-280v-260h-84v260h-280zM361 598q0 -58 40.5 -99t98.5 -41t98.5 41t40.5 99t-40.5 98.5t-98.5 40.5t-98.5 -40.5t-40.5 -98.5z" />
<glyph unicode="&#x13f;" d="M114 217q0 92 65.5 157t157.5 65q68 0 123 -38l266 265h-239v83h382v-382h-83v244l-267 -268q40 -56 40 -126q0 -92 -65 -157.5t-157 -65.5t-157.5 65.5t-65.5 157.5zM197 217q0 -58 41 -99t99 -41t98.5 41t40.5 99t-40.5 98.5t-98.5 40.5t-99 -40.5t-41 -98.5z" />
<glyph unicode="&#x140;" d="M250 -6q0 52 55 95t118 43q39 0 63 -13v721h25q0 -119 116 -220q129 -112 129 -225q0 -109 -84 -244h-26q63 132 63 210q0 86 -52 149.5t-131 81.5v-502q0 -75 -54.5 -122.5t-128.5 -47.5q-37 0 -65 19.5t-28 54.5z" />
<glyph unicode="&#x141;" d="M346 -61v883h40v-492q36 63 93 102t122 39q64 0 103 -37t39 -92q0 -57 -26.5 -103.5t-72 -81.5t-94 -65t-104 -70.5t-91.5 -82.5h-9zM386 11q29 32 79 76t81 72.5t56 72.5t25 92q0 44 -20.5 64.5t-55.5 20.5q-39 0 -84 -33.5t-81 -98.5v-266z" />
<glyph unicode="&#x142;" d="M239 148v97l136 20v204l-136 -21v97l136 20v227h39v-221l167 24v228h40v-222l135 20v-96l-135 -20v-204l135 20v-96l-135 -20v-237h-40v231l-167 -25v-236h-39v230zM414 271l167 24v204l-167 -24v-204z" />
<glyph unicode="&#x143;" d="M47 160l82 72q118 -97 221 -221l-85 -72q-98 120 -218 221z" />
<glyph unicode="&#x144;" d="M38 89q0 65 46 111t110 46q65 0 110.5 -46t45.5 -111t-45.5 -110.5t-110.5 -45.5q-64 0 -110 45.5t-46 110.5zM98 89q0 -40 28 -68t68 -28t68 28t28 68t-28 68t-68 28t-68 -28t-28 -68z" />
<glyph unicode="&#x145;" d="M213 148l162 473l114 -49l-215 -451zM511 148l162 473l114 -49l-215 -451z" />
<glyph unicode="&#x146;" d="M94 251q105 95 186 243t126 299l104 -24q-33 -97 -67 -173h320l18 4l71 -39q-33 -93 -90 -198.5t-121 -192.5q87 -57 132 -104l-66 -89q-55 60 -163.5 132.5t-215.5 122.5l59 78q88 -40 168 -87q92 122 158 278h-315q-98 -191 -215 -304q-31 25 -89 54z" />
<glyph unicode="&#x147;" d="M148 263l96 14q7 -81 11 -172q3 4 226 293q-132 95 -221 142l72 85q91 -56 217 -141q51 66 134.5 172.5t104.5 133.5l91 -58q-92 -106 -247 -307q133 -96 229 -178l-78 -94q-66 68 -219 184q-27 -35 -235 -310q-37 -50 -71 -103l-94 30q5 46 4 57q-2 143 -20 252z" />
<glyph unicode="&#x148;" d="M45 380q0 188 133.5 321.5t321.5 133.5t321.5 -133.5t133.5 -321.5t-133.5 -321.5t-321.5 -133.5t-321.5 133.5t-133.5 321.5zM142 380q0 -148 105 -253t253 -105t253 105t105 253t-105 253t-253 105t-253 -105t-105 -253z" />
<glyph unicode="&#x149;" d="M576 380l293 468l78 -34l-271 -434l271 -434l-78 -34z" />
<glyph unicode="&#x14a;" d="M53 -54l271 434l-271 434l78 34l293 -468l-293 -468z" />
<glyph unicode="&#x14b;" d="M525 380l212 468l67 -21l-204 -447l204 -447l-67 -21zM689 380l212 468l67 -21l-204 -447l204 -447l-67 -21z" />
<glyph unicode="&#x14c;" d="M32 -67l204 447l-204 447l67 21l212 -468l-212 -468zM196 -67l204 447l-204 447l67 21l212 -468l-212 -468z" />
<glyph unicode="&#x14d;" d="M646 205v643h322v-86h-229v-557h-93z" />
<glyph unicode="&#x14e;" d="M32 -2h229v557h93v-643h-322v86z" />
<glyph unicode="&#x14f;" d="M600 187v661h368v-165h-188v-496h-180zM637 224h105v497h189v90h-294v-587z" />
<glyph unicode="&#x150;" d="M32 77h188v496h180v-661h-368v165zM69 39v-90h294v587h-105v-497h-189z" />
<glyph unicode="&#x151;" d="M664 -88v936h304v-5q-87 -73 -142.5 -195t-55.5 -268t55.5 -268t142.5 -195v-5h-304z" />
<glyph unicode="&#x152;" d="M32 -83q87 73 142.5 195t55.5 268t-55.5 268t-142.5 195v5h304v-936h-304v5z" />
<glyph unicode="&#x153;" d="M165 415v91h670v-91h-285v-405h-100v405h-285zM165 630v91h670v-91h-670z" />
<glyph unicode="&#x154;" d="M100 -20v300h800v-300h-800zM100 480v300h800v-300h-800z" />
<glyph unicode="&#x155;" d="M704 44v672l224 145l39 -64l-175 -113v-608l175 -113l-39 -64z" />
<glyph unicode="&#x156;" d="M33 -37l175 113v608l-175 113l39 64l224 -145v-672l-224 -145z" />
<glyph unicode="&#x157;" d="M176 112q0 81 58 154.5t144 115.5q2 43 8 108h-36q-69 0 -139 6l-3 83q64 -11 142 -11h45l6 55q2 28 2 45l97 -2q-5 -15 -10 -42q-1 -7 -4.5 -24.5t-5.5 -28.5q157 8 282 35l1 -82q-137 -22 -293 -30q-6 -54 -8 -82q65 17 126 17q15 0 23 -1q7 30 9 49l84 -20l-14 -42 q77 -22 120 -76.5t43 -126.5q0 -92 -66 -162t-207 -94l-48 76q110 12 171 63t61 124q0 43 -26 76t-73 49q-63 -159 -176 -255q10 -38 19 -64l-83 -24q-7 19 -11 37q-69 -37 -128 -37q-49 0 -79.5 27t-30.5 84zM258 127q0 -43 44 -43q42 0 93 33q-18 99 -19 180 q-51 -33 -84.5 -79.5t-33.5 -90.5zM459 323q0 -76 11 -144q76 74 117 177h-2q-65 0 -126 -21v-12z" />
<glyph unicode="&#x158;" d="M105 134q0 93 70.5 184t175.5 139q2 52 10 135h-48q-68 0 -166 7l-3 92q88 -13 172 -13h54l7 67q3 44 2 52l104 -3q-5 -16 -12 -47q-5 -23 -12 -66q192 8 342 42l1 -92q-154 -26 -354 -36q-4 -45 -9 -107q83 22 158 22q19 0 28 -1q9 33 11 64l98 -24q-2 -5 -19 -55 q90 -27 142.5 -90.5t52.5 -147.5q0 -114 -79 -197.5t-246 -109.5l-53 83q134 15 207 77.5t73 151.5q0 52 -32.5 94t-92.5 61q-78 -197 -214 -312q9 -36 23 -77l-91 -27q-9 28 -14 48q-87 -48 -161 -48q-55 0 -90 34t-35 100zM199 152q0 -55 51 -55q52 0 120 43 q-22 118 -22 223q-65 -40 -107 -99.5t-42 -111.5zM436 379q0 -85 15 -173q96 94 148 223h-6q-75 0 -157 -26v-24z" />
<glyph unicode="&#x159;" d="M182 575l108 -1q-7 -52 -7 -90q0 -157 9 -218q10 -84 34.5 -134t57.5 -50q51 0 94 169l74 -83q-37 -104 -76.5 -150t-91.5 -46q-66 0 -116.5 65t-68.5 212q-11 96 -11 245q0 55 -6 81zM618 521l92 31q60 -73 101.5 -197.5t49.5 -221.5l-97 -37q-9 108 -46.5 231.5 t-99.5 193.5z" />
<glyph unicode="&#x15a;" d="M121 705l121 -2q-10 -58 -10 -107q-2 -124 7 -223q12 -121 42.5 -190.5t78.5 -69.5q34 0 65 59.5t50 139.5l80 -93q-46 -124 -93 -176.5t-104 -52.5q-82 0 -141 86t-78 271q-11 96 -11 265q0 62 -7 93zM650 645l99 33q67 -84 117 -227t60 -267l-103 -40q-13 140 -58 279 t-115 222z" />
<glyph unicode="&#x15b;" d="M232 399q37 3 77 12q10 2 49 10.5t66.5 14t67 10.5t70.5 5q99 0 159 -51.5t60 -143.5q0 -125 -101 -207.5t-285 -110.5l-51 88q339 42 339 231q0 50 -36 79.5t-94 29.5q-86 0 -223 -43q-31 -10 -69 -26zM334 560l14 84q178 -34 365 -38l-14 -87q-69 3 -185.5 16 t-179.5 25z" />
<glyph unicode="&#x15c;" d="M160 497q34 2 98 15q8 2 46 10.5t59.5 13t57.5 11t69.5 9.5t65.5 3q114 0 184.5 -61.5t70.5 -169.5q0 -154 -125 -250.5t-333 -127.5l-58 97q191 24 299 94.5t108 190.5q0 58 -43 95t-115 37q-27 0 -55.5 -3t-49.5 -6t-49 -10t-41 -10.5t-39 -11.5t-30 -9q-27 -7 -89 -31 zM283 696l15 95q80 -17 216 -30.5t216 -14.5l-16 -97q-277 20 -431 47z" />
<glyph unicode="&#x15d;" d="M183 6q12 9 41 35q12 12 88 85.5t134.5 132t92.5 95.5q-19 -2 -61.5 -5.5t-91.5 -7.5t-64 -5q-42 -3 -72 -10l-8 100q43 -2 75 -1q201 5 300 19q22 2 41 8l52 -57q-9 -6 -25 -18.5t-19 -14.5q-76 -66 -146 -138q16 0 30 -7q39 -7 56 -62l7 -24.5t9.5 -31.5t7.5 -23 q14 -37 63 -37q78 0 154 18l-5 -94q-69 -13 -162 -13q-104 0 -128 70q-5 14 -14 47.5t-10 37.5q-16 46 -48 46q-24 0 -57 -33q-74 -74 -153 -172zM338 559l14 84q55 -14 161.5 -26.5t174.5 -16.5l-12 -86q-59 5 -167.5 19t-170.5 26z" />
<glyph unicode="&#x15e;" d="M113 22q35 28 57 52q206 201 380 381q-77 -4 -279 -21q-44 -4 -82 -11l-9 110q35 -3 89 -3q47 1 176 9t183 15q32 4 50 11l59 -66q-3 -2 -59 -47q-152 -141 -174 -164q16 2 37 -5q47 -8 69 -70q3 -10 14 -47.5t17 -53.5q15 -51 78 -51q103 0 190 20l-6 -105 q-84 -14 -190 -14q-67 0 -104.5 18.5t-53.5 65.5q-5 15 -16.5 56t-15.5 54q-18 50 -57 50q-29 0 -69 -38q-98 -95 -190 -211zM299 704l15 92q190 -38 397 -51l-13 -92q-198 16 -399 51z" />
<glyph unicode="&#x15f;" d="M164 88q0 56 53.5 107.5t129.5 86.5v28q0 66 1 100q-38 -2 -56 -2q-42 0 -109 6l-2 92q71 -9 111 -9q17 0 57 2q1 29 1 66q0 41 -4 65h99q-3 -21 -6 -65q-1 -23 -3 -59q90 11 159 31l2 -89q-75 -17 -163 -29q-2 -74 -2 -106v-2q83 24 166 24q97 0 159.5 -48.5 t62.5 -129.5q0 -75 -49.5 -128t-149.5 -72q-36 -7 -92 -10l-30 92q56 -2 96 5q57 10 94 39.5t37 75.5q0 47 -36 72t-95 25q-85 0 -162 -25q1 -36 2.5 -98.5t1.5 -78.5q0 -59 -21.5 -84.5t-63.5 -25.5q-58 0 -123 44.5t-65 99.5zM252 94q0 -19 26 -38t47 -19q27 0 27 36 q0 13 -1.5 56t-1.5 67q-43 -22 -70 -49t-27 -53zM649 490l43 74q115 -57 197 -119l-49 -77q-26 24 -87 62t-104 60z" />
<glyph unicode="&#x160;" d="M98 140q0 60 62.5 121t155.5 101v62q0 72 1 109q-36 -3 -65 -3q-81 0 -130 5l-3 96q64 -8 131 -8q20 0 68 2q0 26 0.5 59.5t0.5 39.5q0 42 -6 78h108q-5 -45 -6 -76q-3 -78 -4 -91q109 12 195 38l2 -98q-89 -20 -199 -33q-2 -80 -2 -114v-34q106 31 206 31q112 0 185 -56 t73 -150q0 -184 -214 -235q-54 -12 -125 -14l-36 100q82 0 119 7q68 12 112 48t44 95q0 55 -44.5 86.5t-114.5 31.5q-99 0 -203 -33q1 -42 2.5 -113.5t1.5 -90.5q0 -74 -25 -104.5t-72 -30.5q-70 0 -144 53t-74 121zM196 144q0 -27 32 -50t60 -23q33 0 33 46q0 17 -1.5 70 t-1.5 82q-54 -26 -88 -60.5t-34 -64.5zM675 617l44 76q148 -75 234 -142l-49 -80q-63 57 -229 146z" />
<glyph unicode="&#x161;" d="M73 571q32 -2 95 0q45 1 141 10q24 127 23 212l117 -12q-7 -29 -14 -68q-3 -13 -11 -56t-13 -67q68 5 99 5q169 0 169 -178q0 -100 -14 -200t-43 -159q-23 -48 -60 -67t-93 -19q-57 0 -117 15l-17 104q70 -21 122 -21q59 0 81 47q44 91 44 289q0 60 -24.5 79.5 t-76.5 19.5q-28 0 -90 -5q-86 -338 -204 -531l-103 41q66 89 118.5 221t85.5 258q-103 -11 -107 -12q-58 -7 -99 -14zM697 642l93 40q43 -58 97.5 -170.5t80.5 -189.5l-98 -47q-23 86 -73.5 196.5t-99.5 170.5z" />
<glyph unicode="&#x162;" d="M62 566q32 -2 96 0q46 1 140 10q24 125 24 212l117 -12q-11 -47 -15 -68q-8 -48 -23 -123q67 5 99 5q168 0 168 -178q0 -100 -14 -200t-42 -159q-24 -48 -61 -67t-92 -19q-56 0 -118 15l-17 104q72 -21 122 -21q59 0 81 47q44 91 44 289q0 60 -24.5 79.5t-76.5 19.5 q-28 0 -90 -5q-83 -335 -204 -531l-103 41q67 89 119.5 221t85.5 258q-16 -2 -41 -4.5t-41 -4.5t-26 -3q-55 -6 -98 -14zM686 629l93 41q10 -14 16 -22q-46 92 -80 138l65 27q39 -56 81 -138l-66 -28q42 -63 90 -164t73 -171l-99 -47q-23 86 -73 195t-100 169zM829 828 l65 27q47 -67 83 -137l-66 -28q-41 85 -82 138z" />
<glyph unicode="&#x163;" d="M162 488q222 -21 407 0l-27 63q-16 36 -23 53q-163 -15 -345 3l-6 91q171 -19 314 -10l-8 17q-22 46 -41 77l112 23q9 -34 35 -106q104 17 193 47l17 -88q-69 -23 -177 -41l18 -42q2 -5 8 -18.5l12 -27t12 -26.5q96 17 180 48l19 -89q-63 -22 -162 -41q68 -142 86 -175 l-47 -60q-69 13 -203 30l8 76l72 -8l45 -4q-54 121 -56 125q-190 -24 -439 -8zM179 145q0 53 23 128l97 -8q-23 -59 -23 -99q0 -115 189 -115q148 0 251 22l-3 -100q-105 -20 -245 -20q-139 0 -214 48t-75 144z" />
<glyph unicode="&#x164;" d="M120 481q223 -21 408 0l-28 63l-23 53q-162 -15 -345 3l-5 91q171 -19 314 -10l-8 17q-25 51 -42 77l113 23q8 -32 34 -106q85 12 165 39l17 -88q-72 -22 -149 -34q12 -28 18 -41q20 -46 33 -72q92 17 180 48l19 -89q-64 -22 -162 -41q68 -142 86 -175l-47 -60 q-98 17 -204 30l9 76q20 -2 42 -4.5t44 -4.5t31 -3q-3 6 -24 53t-32 72q-190 -24 -440 -8zM138 138q0 53 23 128l97 -8q-23 -55 -23 -99q0 -115 188 -115q149 0 252 22l-3 -100q-105 -20 -246 -20q-138 0 -213 48t-75 144zM704 783l61 26q47 -69 81 -138l-62 -28 q-39 84 -80 140zM812 823l60 28q43 -57 85 -135l-61 -29q-42 81 -84 136z" />
<glyph unicode="&#x165;" d="M203 356.5q-13 32.5 3.5 63t64.5 71.5q17 14 86.5 71t120 100.5t80.5 73.5q54 57 65 74l92 -82q-13 -10 -39.5 -32t-36.5 -29q-34 -29 -136.5 -111.5t-136.5 -111.5q-43 -37 -42.5 -56t44.5 -56q12 -10 59 -48.5t80 -66.5t78.5 -66.5t84 -73t65.5 -61.5l-90 -83 q-14 16 -42 45t-34 36q-52 56 -305 270q-48 40 -61 72.5z" />
<glyph unicode="&#x166;" d="M182 388q3 43 75 103q21 18 87 72t117.5 98.5t81.5 74.5q50 50 65 74l93 -82q-15 -11 -43 -34t-33 -27q-31 -26 -134 -109t-140 -114q-43 -37 -42 -55.5t45 -56.5q12 -10 59 -48.5t80 -66.5t78.5 -66.5t84 -73t65.5 -61.5l-90 -83q-14 16 -41.5 44t-35.5 37 q-62 67 -305 270q-70 61 -67 104zM581 546l65 27q28 -40 86 -147l-68 -29q-54 106 -83 149zM699 591l65 28q39 -55 87 -145l-66 -29q-60 109 -86 146z" />
<glyph unicode="&#x167;" d="M112 309q0 157 35 396q3 21 6 74l116 -11q-8 -24 -20 -72q-68 -312 -30 -485q5 14 22.5 62t27.5 73l52 -33q-47 -137 -66 -229q-6 -30 -5 -45q0 -5 1 -18t1 -19l-86 -10q-20 58 -37 146t-17 171zM392 484v100q66 -10 155 -10q39 0 119 2q-2 102 -5 145q-3 36 -10 62h115 q-2 -11 -4 -62q-1 -22 1 -139q92 8 155 21v-103q-62 -9 -154 -15v-37q0 -59 -1 -95t-5.5 -84t-13 -79.5t-23.5 -69.5t-37.5 -66.5t-55.5 -58.5t-76 -56l-92 72q68 30 105 70q65 60 84 138.5t19 229.5v31q-80 -2 -119 -2q-65 0 -157 6z" />
<glyph unicode="&#x168;" d="M97 292q0 140 36 386q4 22 6 74l116 -11q-6 -19 -20 -71q-67 -309 -30 -477q5 14 22.5 62t27.5 73l52 -33q-47 -136 -66 -228q-5 -25 -5 -46q0 -5 1 -18t1 -19l-86 -9q-20 58 -37.5 146t-17.5 171zM378 459v101q72 -11 155 -11q35 0 107 2q-2 98 -5 143q-3 36 -10 62h116 q-3 -22 -5 -61q-1 -23 1 -138q104 8 168 22l-1 -103q-60 -9 -166 -16v-29q0 -69 -1.5 -110.5t-8 -95.5t-20.5 -90t-37 -76t-59 -73.5t-86 -63.5l-91 72q61 25 105 69q64 60 83 139t19 229v24q-72 -2 -107 -2q-65 0 -157 6zM766 773l57 17q36 -72 56 -139l-58 -20 q-34 101 -55 142zM868 803l57 19q28 -56 57 -139l-58 -19q-32 93 -56 139z" />
<glyph unicode="&#x169;" d="M167 172q0 53 20 140l102 -9q-18 -62 -18 -108q0 -54 55.5 -86t164.5 -32q211 0 343 38l1 -109q-133 -34 -341 -34q-159 0 -243 51.5t-84 148.5zM230 608v103q108 -12 265 -12q147 0 276 14v-104q-163 -12 -275 -12q-142 0 -266 11z" />
<glyph unicode="&#x16a;" d="M147 162q0 53 20 140l103 -10q-19 -66 -19 -107q0 -54 55.5 -86.5t165.5 -32.5q212 0 342 39l1 -109q-135 -35 -340 -35q-160 0 -244 51.5t-84 149.5zM210 597v104q104 -13 265 -13q130 0 276 14v-104q-163 -12 -275 -12q-119 0 -266 11zM716 783l65 27q41 -59 81 -137 l-66 -29q-44 90 -80 139zM830 825l65 27q45 -64 83 -136l-65 -29q-47 92 -83 138z" />
<glyph unicode="&#x16b;" d="M151 639q201 -25 383 -7l-28 61q-24 54 -45 89l112 21q25 -73 61 -157q109 19 199 49l19 -99q-88 -24 -179 -40q64 -142 131 -267l-57 -59q-74 16 -214 32l10 81q47 -5 130 -13q-3 7 -41.5 88.5t-56.5 121.5q-186 -21 -420 -1zM171 161q0 60 28 156l102 -8 q-28 -65 -28 -122q0 -64 45 -97.5t149 -33.5q127 0 264 27l-2 -103q-129 -24 -263 -24q-142 0 -218.5 53.5t-76.5 151.5z" />
<glyph unicode="&#x16c;" d="M141 632q200 -26 383 -8q-14 30 -28 62q-24 54 -45 88l112 22q22 -65 61 -158q86 16 159 37q-38 77 -72 123l65 27q41 -59 81 -137l-31 -14l15 -85q-99 -27 -178 -41q65 -145 131 -266l-57 -60q-95 20 -214 32l9 81q21 -2 71 -7l60 -6q-89 188 -99 211q-175 -21 -420 -2z M161 153q0 61 28 157l101 -9q-28 -70 -28 -122q0 -131 194 -131q131 0 265 28l-2 -104q-136 -23 -263 -23q-143 0 -219 53t-76 151zM826 839l65 27q53 -78 82 -137l-65 -28q-39 79 -82 138z" />
<glyph unicode="&#x16d;" d="M229 177q0 76 5 263t5 229q0 67 -10 114l126 -1q-7 -41 -11 -113q-12 -330 -12 -476q0 -140 151 -140q211 0 348 204l71 -87q-28 -40 -63.5 -75t-87 -70.5t-121.5 -56t-149 -20.5q-119 0 -185.5 55.5t-66.5 173.5z" />
<glyph unicode="&#x16e;" d="M214 777l126 -1q-8 -56 -11 -113q-12 -330 -12 -476q0 -140 151 -140q211 0 348 204l71 -87q-28 -40 -63.5 -75t-87 -70.5t-121.5 -56t-149 -20.5q-251 0 -251 229q0 76 5 263t5 229q0 62 -11 114zM538 668l70 30q58 -84 95 -161l-72 -31q-45 94 -93 162zM671 718l69 32 q58 -80 98 -156l-71 -34q-47 92 -96 158z" />
<glyph unicode="&#x16f;" d="M96 664q58 1 214 4.5t223 4.5q0 8 -0.5 26t-1.5 24q-4 55 -8 72h114q-5 -32 -5 -72q-1 -12 -1 -49h296l-1 -94q-98 5 -296 5q1 -53 1 -155q35 -55 35 -132q0 -53 -15 -102.5t-48.5 -98.5t-95.5 -89.5t-146 -64.5l-85 84q190 43 255 143q-31 -14 -69 -14q-65 0 -116 46.5 t-51 126.5q0 77 54.5 127.5t130.5 50.5q31 0 55 -7l-1 84q-238 -3 -435 -16zM390 331q0 -40 26 -64t64 -24q41 0 63 34t13 101q-23 46 -77 46q-36 0 -62.5 -25.5t-26.5 -67.5z" />
<glyph unicode="&#x170;" d="M68 652q60 1 216.5 4t219.5 4q0 28 -2 50q-2 52 -8 73h115q-2 -12 -6 -72q-1 -12 -1 -50h146q-37 71 -72 121l68 28q36 -52 72 -119l-67 -30h150l-1 -93q-98 5 -297 5q1 -53 1 -155q35 -55 35 -132q0 -53 -15 -102.5t-48.5 -98.5t-95.5 -90t-146 -65l-85 84 q190 42 255 144q-31 -14 -68 -14q-66 0 -116.5 46t-50.5 127q0 77 54.5 127.5t130.5 50.5q30 0 54 -7l-1 84q-246 -3 -435 -17zM361 319q0 -40 26 -64t64 -24q41 0 63 33.5t13 100.5q-23 46 -76 46q-36 0 -63 -25t-27 -67zM803 809l67 28q48 -70 74 -118l-69 -30 q-38 74 -72 120z" />
<glyph unicode="&#x171;" d="M46 513q51 0 112 6q55 5 96 9v121q0 47 -6 95h110q-5 -45 -5 -90q0 -70 -1 -117q125 12 297 28v128q0 39 -7 81h107q-5 -27 -5 -78q-2 -98 -3 -124q17 2 94 7q51 2 85 6v-98q-9 1 -43 0t-42 -1q-65 -3 -96 -5q-4 -151 -15 -204q-7 -34 -25 -47t-55 -13q-48 0 -138 15 l2 87q64 -12 95 -12q18 0 25.5 4.5t9.5 19.5q7 45 9 143q-77 -6 -295 -27q-2 -195 0 -235q1 -37 3.5 -54t10.5 -36t26.5 -26t48.5 -12t79 -5q159 0 295 24l-3 -107q-153 -16 -286 -16q-91 0 -143.5 10t-81 38.5t-36.5 64.5t-10 104q-1 42 -1 240q-76 -8 -89 -10 q-65 -8 -108 -15z" />
<glyph unicode="&#x172;" d="M27 498q44 0 112 5q55 5 96 9v121q0 47 -6 95h110q-5 -45 -5 -90q0 -70 -1 -117q125 12 297 28v128q0 39 -7 81h107q-5 -27 -5 -77q-2 -86 -3 -125q17 1 94 7q11 1 41 3t44 3v-98q-23 1 -85 -1q-65 -3 -96 -5q-4 -149 -15 -203q-7 -34 -25 -47t-55 -13q-54 0 -138 14 l2 88q59 -13 95 -13q17 0 25 5t10 20q7 43 9 142q-77 -6 -295 -27q-2 -195 0 -235q1 -31 2.5 -46t7 -33t15.5 -25.5t29 -15.5t46 -10t68 -2q169 0 295 24l-3 -107q-142 -17 -286 -17q-91 0 -143.5 10t-81 38.5t-36.5 65t-10 104.5q-1 42 -1 239q-76 -8 -89 -10 q-65 -8 -108 -15zM757 743l57 18q35 -69 57 -138l-59 -20q-27 86 -55 140zM859 776l57 18q28 -55 57 -137l-58 -20q-30 89 -56 139z" />
<glyph unicode="&#x173;" d="M100 404q30 3 91 11t81 10q98 66 306 248q-20 -1 -116.5 -6.5t-117.5 -7.5q-43 -3 -82 -8l-5 102q36 -4 86 -4q36 0 146 5.5t151 10.5q39 3 60 11l63 -73q-37 -22 -64 -44q-262 -215 -270 -221q257 27 447 27l1 -93q-157 10 -253 -3q-72 -11 -126 -61t-54 -114 q0 -63 43 -93.5t119 -40.5q74 -8 145 -2l-20 -103q-186 -8 -286 49t-100 174q0 51 29 98.5t67 74.5q-167 -13 -332 -42z" />
<glyph unicode="&#x174;" d="M70 404q29 3 90 10.5t82 10.5q107 73 305 248q-20 -1 -116 -6.5t-117 -7.5q-43 -3 -82 -8l-5 102q36 -4 86 -4q36 0 146 5.5t150 10.5q40 3 61 11l63 -73q-37 -22 -64 -44q-262 -215 -270 -221q257 27 447 27v-93q-157 10 -252 -3q-72 -11 -126 -61t-54 -114 q0 -63 43 -93.5t119 -40.5q74 -8 145 -2l-20 -103q-186 -8 -286.5 49t-100.5 174q0 51 29.5 98.5t67.5 74.5q-167 -13 -332 -42zM674 616l60 26q43 -63 73 -124l-63 -28q-30 67 -70 126zM782 657l60 27q42 -55 76 -121l-62 -29q-35 71 -74 123z" />
<glyph unicode="&#x175;" d="M102 639q64 -8 121 -8q52 0 99 4q11 63 12 73q6 52 3 90l121 -9q-7 -25 -19 -85l-12 -58q87 12 178 34v-99q-89 -20 -199 -33q-11 -53 -31 -129q-29 -113 -73.5 -244.5t-82.5 -211.5l-110 37q42 71 90 200t78 244q12 40 24 95q-56 -2 -79 -2q-46 0 -118 4zM465 129 q0 47 15 124l94 -9q-14 -54 -14 -86q0 -39 31.5 -62t118.5 -23q90 0 198 20l-3 -101q-96 -14 -196 -14q-120 0 -182 38.5t-62 112.5zM535 396v92q88 10 185 10q89 0 173 -9l-3 -95q-100 12 -168 12q-100 0 -187 -10z" />
<glyph unicode="&#x176;" d="M72 626q64 -8 121 -8q52 0 99 4q11 63 12 73q6 52 3 90l121 -9q-7 -25 -19 -85l-12 -58q87 12 178 34v-99q-89 -20 -199 -33q-11 -53 -31 -129q-29 -113 -73.5 -244.5t-82.5 -211.5l-110 37q42 71 90 200t78 244q12 40 24 95q-56 -2 -79 -2q-70 0 -118 4zM435 116 q0 47 15 124l94 -9q-14 -54 -14 -86q0 -39 31.5 -62t118.5 -23q90 0 198 20l-3 -101q-96 -14 -196 -14q-120 0 -182 38.5t-62 112.5zM505 383v92q106 10 185 10q89 0 173 -9l-3 -95q-100 12 -168 12q-100 0 -187 -10zM694 722l65 27q39 -56 81 -138l-66 -28q-45 89 -80 139z M808 765l65 27q47 -68 83 -137l-65 -29q-44 86 -83 139z" />
<glyph unicode="&#x177;" d="M113 567v98q97 -17 195 -17h4q6 32 9 54q6 56 4 89l112 -5q-10 -34 -20 -91l-9 -44q206 9 377 46l1 -95q-184 -32 -397 -42q-30 -138 -55 -207q118 76 264 76q118 0 187.5 -56t69.5 -148q0 -155 -140.5 -220t-380.5 -39l-28 101q84 -15 164 -11.5t142.5 19t100.5 54 t38 94.5q0 52 -43 86t-121 34q-89 0 -163.5 -30t-121.5 -87q-16 -20 -29 -45l-93 33q65 128 114 344q-100 2 -181 9z" />
<glyph unicode="&#x178;" d="M79 546v98q95 -17 195 -17h2q6 30 10 64q6 47 5 89l112 -5q-10 -34 -20 -91l-11 -55q204 9 368 46l2 -96q-185 -32 -390 -40q-31 -137 -52 -197q117 76 264 76q118 0 187.5 -56t69.5 -148q0 -104 -66.5 -169t-182 -86t-272.5 -4l-27 101q84 -15 163.5 -11.5t142 19 t100.5 54t38 94.5q0 52 -43 86t-121 34q-89 0 -163.5 -30t-120.5 -87q-16 -18 -30 -45l-93 33q64 123 112 334q-100 2 -179 9zM707 785l65 27q44 -64 80 -137l-65 -29q-41 84 -80 139zM821 827l65 27q49 -69 82 -136l-65 -29q-41 84 -82 138z" />
<glyph unicode="&#x179;" d="M156 411q61 13 98 25q3 1 34 11l46.5 15t49 14.5t57.5 15t54.5 12t58.5 9.5t52 3q112 0 181.5 -62.5t69.5 -167.5q0 -138 -120.5 -218t-339.5 -94l-41 97q115 4 201 25.5t141.5 70.5t55.5 121q0 60 -43 98t-113 38q-122 0 -400 -116z" />
<glyph unicode="&#x17a;" d="M69 533q41 8 115 30q8 2 48 15t66 21t72 21t81.5 20t78 13t77.5 6q132 0 218.5 -73t86.5 -199q0 -169 -149.5 -266.5t-401.5 -110.5l-45 105q138 3 243.5 30.5t173.5 90t68 153.5q0 77 -52.5 126.5t-145.5 49.5q-146 0 -472 -135q-12 -5 -17 -7z" />
<glyph unicode="&#x17b;" d="M54 517q24 5 114 29q2 0 48 15.5t67 22t70.5 20t83 20.5t76.5 13t78 6q132 0 219 -73t87 -199q0 -169 -150 -266.5t-401 -110.5l-45 105q138 3 243 30.5t173 89.5t68 153q0 77 -52 126.5t-145 49.5q-150 0 -489 -141zM697 766l65 27q42 -63 81 -138l-65 -29 q-45 88 -81 140zM812 808l64 27q41 -56 83 -136l-65 -29q-47 92 -82 138z" />
<glyph unicode="&#x17c;" d="M83 674q59 2 92 5q36 3 187 17t244 22q173 13 273 16v-100q-136 0 -192 -15q-95 -28 -157 -116.5t-62 -180.5q0 -65 28 -113t77 -75.5t105 -41.5t122 -17l-36 -107q-75 4 -144.5 26t-127 61.5t-92 103t-34.5 142.5q0 104 50 191t118 130q-10 -1 -87 -9.5t-128 -14.5 t-119 -15.5t-106 -17.5z" />
<glyph unicode="&#x17d;" d="M79 669q57 1 92 5q235 23 431 39q159 14 272 17l1 -101q-137 0 -193 -14q-95 -29 -156.5 -117t-61.5 -180q0 -65 28 -113.5t77 -76t104.5 -41.5t121.5 -17l-36 -106q-75 4 -144 26t-126.5 61.5t-92 102.5t-34.5 142q0 105 50 191.5t117 129.5q-342 -36 -440 -57zM675 494 l60 26q48 -70 82 -138l-62 -28q-37 78 -80 140zM786 536l60 27q52 -74 85 -135l-61 -30q-41 80 -84 138z" />
<glyph unicode="&#x17e;" d="M174 184q0 138 168 258q-55 102 -141 301l99 40q53 -143 129 -285q51 30 138 77t98 53q56 32 80 52l54 -91q-35 -21 -85 -46q-4 -2 -56.5 -28t-80.5 -41t-74 -40.5t-79 -47.5q-143 -93 -143 -191q0 -59 56 -90.5t165 -31.5q175 0 320 34l-1 -112q-139 -25 -315 -25 q-332 0 -332 214z" />
<glyph unicode="&#x17f;" d="M157 170q0 139 168 259q-58 105 -141 300l99 41q48 -134 128 -285q47 28 122.5 68.5t90.5 48.5q54 30 79 52l50 -92q-22 -13 -85 -47q-5 -2 -52.5 -26t-70.5 -36t-64.5 -35.5t-74.5 -45.5q-143 -93 -143 -190q0 -59 56 -91t166 -32q183 0 320 35l-1 -113 q-141 -25 -315 -25q-332 0 -332 214zM706 758l65 27q46 -68 80 -138l-65 -29q-40 83 -80 140zM820 800l64 27q48 -65 83 -136l-65 -29q-41 84 -82 138z" />
<glyph unicode="&#x180;" d="M85 185q58 70 115.5 171.5t91.5 189.5q-48 -2 -71 -2q-66 0 -119 4l-7 92q58 -6 126 -6q55 0 102 4q26 96 29 168l109 -10q-21 -87 -36 -145q71 11 144 34l3 -93q-85 -23 -176 -35q-37 -107 -96.5 -224t-118.5 -197zM315 101q0 70 57.5 114.5t149.5 44.5q45 0 83 -7 q-9 182 -11 236h100q-3 -40 -1 -116q1 -34 7 -145q108 -39 205 -125l-53 -85q-84 75 -148 110v-27q0 -68 -44.5 -110t-136.5 -42q-91 0 -149.5 39t-58.5 113zM408 110q0 -32 26 -51.5t76 -19.5q99 0 99 93q0 21 -1 35q-42 12 -91 12t-79 -19.5t-30 -49.5zM648 589l50 77 q53 -23 126.5 -64.5t110.5 -68.5l-56 -82q-40 32 -109 73t-122 65z" />
<glyph unicode="&#x181;" d="M118 288q0 51 5.5 115t11.5 106.5t15 101.5t11 72q8 48 9 82l111 -9q-10 -28 -21 -76q-49 -233 -49 -373q0 -54 7 -104q15 40 50 124l52 -40q-59 -163 -71 -231q-7 -28 -5 -45q0 -13 2 -37l-90 -6q-38 131 -38 320zM402 158q0 41 17 122l90 -8q-12 -51 -12 -88 q0 -80 153 -80q127 0 247 26l2 -106q-103 -20 -251 -20q-123 0 -184.5 40t-61.5 114zM453 583v101q89 -12 211 -11t204 12v-102q-87 -8 -207 -8.5t-208 8.5z" />
<glyph unicode="&#x182;" d="M69 168q0 144 86 262q18 25 36 44q-8 19 -28 78q-20 66 -39 109l94 39q15 -73 44 -158q101 81 224 103q4 41 5 56q2 44 -2 85l111 -3q-6 -31 -11 -83l-5 -46q130 -1 217 -83t87 -218q0 -98 -20 -171q51 -37 101 -95l-60 -76q-48 58 -76 83q-64 -111 -189 -111 q-74 0 -118 36t-44 100q0 56 46 99t115 43q70 0 136 -28q12 55 12 117q0 100 -58 160t-158 59h-3q-19 -119 -49 -207q-50 -146 -137 -251t-180 -105q-58 0 -97.5 43.5t-39.5 118.5zM160 184q0 -33 14.5 -54.5t35.5 -21.5q52 0 116 82q-37 55 -62 107q-14 27 -36 80 q-68 -102 -68 -193zM295 457q20 -51 35 -80q26 -55 54 -99q28 54 49 111q23 65 41 168q-99 -25 -179 -100zM569 128q0 -27 18.5 -42t52.5 -15q73 0 113 83q-53 30 -106 30q-37 0 -57.5 -16.5t-20.5 -39.5z" />
<glyph unicode="&#x183;" d="M53 162q128 159 216 291l5 86q-27 -3 -99.5 -13t-87.5 -12l-10 102q38 -2 74 1q49 3 130 15q5 72 5 86q0 53 -5 80l117 -4q-10 -49 -20 -142l35 -42q-14 -19 -47 -71q-2 -22 -3 -32q175 154 303 154q101 0 157 -79.5t56 -210.5q0 -98 -12 -162q52 -36 107 -95l-52 -82 q-45 50 -81 82q-55 -127 -194 -127q-81 0 -132.5 37.5t-51.5 112.5q0 63 51 103.5t132 40.5q68 0 130 -24q7 53 7 125q0 86 -37 138t-97 52q-63 0 -142.5 -53t-151.5 -130q-3 -60 -3 -113q0 -175 4 -247q1 -16 6 -67h-108q3 51 3 65q1 97 4 259q-106 -157 -146 -211z M549 141q0 -33 25.5 -49t66.5 -16q82 0 116 95q-59 31 -119 31q-36 0 -62.5 -17.5t-26.5 -43.5z" />
<glyph unicode="&#x184;" d="M81 315q0 167 129.5 289t313.5 122q175 0 282 -107t107 -267q0 -157 -97.5 -258.5t-277.5 -126.5l-59 94q49 4 88 14q104 24 172 96t68 185q0 110 -63 186t-175 90q-26 -163 -59 -278q-94 -315 -241 -315q-76 0 -132 78t-56 198zM181 324q0 -79 28.5 -122.5t62.5 -43.5 q72 0 137 217q38 120 54 255q-126 -21 -204 -114t-78 -192z" />
<glyph unicode="&#x185;" d="M109 277q0 125 44 415q7 59 8 82l109 -10q-7 -16 -20 -76q-15 -68 -31.5 -193t-16.5 -199q0 -54 7 -104q9 28 50 125l51 -40q-58 -164 -71 -226q-5 -22 -5 -45q1 -5 1.5 -18t0.5 -19l-88 -6q-39 135 -39 314zM368 118q0 70 57 114.5t154 44.5q43 0 80 -6q-7 171 -9 231 q-56 -2 -84 -2q-53 0 -169 6l-1 94q91 -8 171 -8q27 0 83 2q0 28 -0.5 67t-0.5 49q0 34 -6 63h113q-4 -29 -6 -61q-1 -29 -3 -112q92 8 164 22v-97q-75 -12 -164 -18q1 -59 6 -157.5t5 -106.5q92 -37 194 -129l-53 -82q-75 71 -137 108v-3q0 -76 -42.5 -123t-139.5 -47 q-100 0 -156 40t-56 111zM460 129q0 -34 29 -51.5t78 -17.5q52 0 74 25t22 74v27q-49 13 -92 13q-49 0 -80 -19.5t-31 -50.5z" />
<glyph unicode="&#x186;" d="M84 266q0 132 43 415q6 40 8 82l110 -10q-12 -30 -20 -76q-16 -69 -32.5 -194t-16.5 -198q0 -54 7 -104q17 46 51 125l50 -40q-58 -165 -70 -226q-6 -28 -5 -45q0 -13 2 -37l-89 -7q-38 133 -38 315zM342 107q0 70 57 114.5t154 44.5q43 0 80 -6q-8 173 -9 230 q-28 -1 -84 -1q-53 0 -169 6v94q90 -8 170 -8q55 0 83 1q0 28 -0.5 68t-0.5 49q0 31 -5 63h113q-4 -30 -6 -61q-1 -30 -3 -113q84 7 163 23v-97q-68 -11 -163 -19q1 -58 6 -158t5 -105q90 -36 193 -129l-53 -82q-75 70 -136 108v-3q0 -76 -42.5 -123t-139.5 -47 q-101 0 -157 40t-56 111zM434 118q0 -34 29 -51.5t78 -17.5q53 0 74.5 25t21.5 74v27q-49 13 -92 13q-49 0 -80 -19.5t-31 -50.5zM760 783l57 17q27 -53 57 -138l-60 -20q-26 83 -54 141zM861 813l58 19q32 -65 58 -138l-59 -19q-31 91 -57 138z" />
<glyph unicode="&#x187;" d="M84 266q0 132 43 415q6 40 8 82l110 -10q-12 -30 -20 -76q-16 -69 -32.5 -194t-16.5 -198q0 -54 7 -104q17 46 51 125l50 -40q-58 -165 -70 -226q-6 -28 -5 -45q0 -13 2 -37l-89 -7q-38 133 -38 315zM342 107q0 70 57 114.5t154 44.5q43 0 80 -6q-8 173 -9 230 q-28 -1 -84 -1q-53 0 -169 6v94q90 -8 170 -8q55 0 83 1q0 28 -0.5 68t-0.5 49q0 31 -5 63h113q-4 -30 -6 -61q-1 -30 -3 -113q84 7 163 23v-97q-68 -11 -163 -19q1 -58 6 -158t5 -105q90 -36 193 -129l-53 -82q-75 70 -136 108v-3q0 -76 -42.5 -123t-139.5 -47 q-101 0 -157 40t-56 111zM434 118q0 -34 29 -51.5t78 -17.5q53 0 74.5 25t21.5 74v27q-49 13 -92 13q-49 0 -80 -19.5t-31 -50.5zM768 743q0 44 30.5 75t74.5 31t75.5 -31t31.5 -75t-31.5 -75t-75.5 -31t-74.5 31t-30.5 75zM819 743q0 -23 15.5 -38.5t38.5 -15.5t39.5 15.5 t16.5 38.5t-16.5 39.5t-39.5 16.5t-38.5 -16.5t-15.5 -39.5z" />
<glyph unicode="&#x188;" d="M104 686q27 0 54 3q75 6 178.5 24t147.5 34l30 -89q-43 -15 -51 -20q-66 -50 -138 -170t-72 -237q0 -89 48.5 -133t122.5 -44q153 0 223.5 165.5t16.5 432.5q0 1 -23 66l96 30q53 -250 212 -409l-74 -78q-63 79 -107 161q6 -92 -12.5 -175.5t-59.5 -150.5t-112 -107 t-164 -40q-122 0 -194 72.5t-72 195.5q0 112 50 220.5t118 182.5q-90 -14 -148 -25q-45 -10 -56 -13z" />
<glyph unicode="&#x189;" d="M83 671q27 0 54 3q74 5 178 23t148 34l30 -89q-50 -18 -52 -19q-65 -50 -137 -170.5t-72 -237.5q0 -88 48.5 -132t122.5 -44q154 0 224 166t16 433q-16 42 -23 65l96 29q54 -251 212 -409l-74 -78q-60 76 -107 161q5 -73 -5.5 -141t-37 -128.5t-67.5 -105.5t-102 -71 t-136 -26q-122 0 -194 72.5t-72 194.5q0 112 50 220.5t118 182.5q-120 -19 -148 -25q-12 -2 -56 -12zM746 771l61 20q45 -90 64 -142l-62 -22q-33 90 -63 144zM852 808l59 21q30 -53 68 -142l-63 -22q-33 89 -64 143z" />
<glyph unicode="&#x18a;" d="M83 671q27 0 54 3q74 5 178 23t148 34l30 -89q-50 -18 -52 -19q-65 -50 -137 -170.5t-72 -237.5q0 -88 48.5 -132t122.5 -44q154 0 224 166t16 433q-16 42 -23 65l96 29q54 -251 212 -409l-74 -78q-60 76 -107 161q5 -73 -5.5 -141t-37 -128.5t-67.5 -105.5t-102 -71 t-136 -26q-122 0 -194 72.5t-72 194.5q0 112 50 220.5t118 182.5q-120 -19 -148 -25q-12 -2 -56 -12zM759 714q0 47 32.5 80t79.5 33t80 -33t33 -80q0 -46 -33 -79t-80 -33t-79.5 33t-32.5 79zM811 714q0 -25 17.5 -42.5t42.5 -17.5t42.5 17.5t17.5 42.5t-17.5 43t-42.5 18 t-42.5 -18t-17.5 -43z" />
<glyph unicode="&#x18b;" d="M41 106q62 33 135.5 89.5t116.5 104.5l60 -77q-114 -118 -253 -202zM307 88q78 -24 157 -24q93 0 93 75q0 43 -37 100t-84 106q-38 38 -84 76l76 65q28 -28 76 -78q80 -82 120.5 -149t40.5 -131q0 -60 -29 -97.5t-67.5 -50t-86.5 -12.5q-76 0 -160 15zM348 707l59 74 q158 -63 249 -125l23 -63q-68 -57 -127 -99l-64 59q30 19 66 48q-79 58 -206 106zM706 351l85 46q47 -56 97.5 -150t73.5 -164l-94 -50q-20 75 -66.5 167.5t-95.5 150.5z" />
<glyph unicode="&#x18c;" d="M22 98q62 34 135.5 90.5t117.5 103.5l59 -76q-117 -121 -252 -202zM288 80q81 -23 157 -23q41 0 67.5 17.5t26.5 56.5q0 43 -37 100t-84 107q-51 48 -85 76l77 64q39 -39 75 -78q80 -82 120.5 -148.5t40.5 -131.5q0 -45 -16 -77.5t-43.5 -49.5t-57.5 -24.5t-65 -7.5 q-84 0 -161 15zM330 700l58 74q162 -66 249 -125l23 -64q-96 -77 -127 -98l-64 59q33 21 66 47q-76 57 -205 107zM687 344l85 46q48 -57 97.5 -150t73.5 -164l-94 -50q-20 75 -66.5 167.5t-95.5 150.5zM707 644l65 27q43 -62 81 -138l-66 -28q-41 84 -80 139zM821 687l65 27 q50 -73 82 -137l-64 -28q-49 93 -83 138z" />
<glyph unicode="&#x18d;" d="M22 98q62 34 135.5 90.5t117.5 103.5l59 -76q-117 -121 -252 -202zM288 80q81 -23 157 -23q41 0 67.5 17.5t26.5 56.5q0 43 -37 100t-84 107q-51 48 -85 76l77 64q39 -39 75 -78q80 -82 120.5 -148.5t40.5 -131.5q0 -45 -16 -77.5t-43.5 -49.5t-57.5 -24.5t-65 -7.5 q-84 0 -161 15zM330 700l58 74q162 -66 249 -125l23 -64q-96 -77 -127 -98l-64 59q33 21 66 47q-76 57 -205 107zM687 344l85 46q48 -57 97.5 -150t73.5 -164l-94 -50q-20 75 -66.5 167.5t-95.5 150.5zM732 608q0 48 34 82t82 34t82 -34t34 -82t-34 -82t-82 -34t-82 34 t-34 82zM786 608q0 -26 18.5 -44.5t43.5 -18.5q26 0 44.5 18.5t18.5 44.5t-18.5 44.5t-44.5 18.5q-25 0 -43.5 -18.5t-18.5 -44.5z" />
<glyph unicode="&#x18e;" d="M52 287q34 26 77 71q28 30 100.5 120t88.5 109q47 56 92 59.5t97 -46.5q35 -35 106.5 -119.5t95.5 -109.5q138 -152 244 -246l-79 -92q-89 83 -228 243q-28 33 -93.5 112.5t-90.5 106.5q-31 31 -48 29.5t-41 -32.5q-22 -28 -82.5 -108.5t-83.5 -109.5q-13 -16 -35 -47.5 t-26 -36.5z" />
<glyph unicode="&#x18f;" d="M44 269q34 27 76 71q29 30 103.5 122t86.5 107q47 55 91.5 59t97.5 -46q32 -33 102.5 -115.5t99.5 -113.5q138 -151 244 -247l-81 -91q-69 65 -226 246q-27 32 -93 111t-91 107q-30 31 -47.5 29.5t-41.5 -32.5q-21 -26 -82.5 -106.5t-85.5 -110.5q-10 -12 -21 -28 t-22.5 -33.5t-16.5 -25.5zM629 651l71 30q59 -89 94 -160l-72 -32q-47 98 -93 162zM762 702l69 32q61 -85 98 -157l-71 -34q-48 95 -96 159z" />
<glyph unicode="&#x190;" d="M44 269q34 27 76 71q29 30 103.5 122t86.5 107q47 55 91.5 59t97.5 -46q32 -33 102.5 -115.5t99.5 -113.5q138 -151 244 -247l-81 -91q-69 65 -226 246q-27 32 -93 111t-91 107q-30 31 -47.5 29.5t-41.5 -32.5q-21 -26 -82.5 -106.5t-85.5 -110.5q-10 -12 -21 -28 t-22.5 -33.5t-16.5 -25.5zM652 596q0 52 37 89t89 37t88.5 -37t36.5 -89t-36.5 -88.5t-88.5 -36.5t-89 36.5t-37 88.5zM708 596q0 -29 20.5 -49t49.5 -20q28 0 48.5 20.5t20.5 48.5q0 29 -20.5 49.5t-48.5 20.5q-29 0 -49.5 -20.5t-20.5 -49.5z" />
<glyph unicode="&#x191;" d="M109 277q0 137 42 413q6 38 8 82l110 -10q-7 -19 -20 -76q-15 -67 -31 -191.5t-16 -198.5q0 -56 7 -106q18 53 51 127l50 -40q-58 -165 -70 -226q-6 -28 -5 -45q0 -13 2 -37l-90 -6q-38 131 -38 314zM374 120q0 62 51 104t145 42q41 0 77 -6q-4 85 -5 141q-139 -2 -233 3 l-1 91q109 -8 233 -5v146q-99 -3 -217 2v88q233 -18 463 13v-87q-64 -7 -155 -12v-146q103 6 177 16v-92q-68 -8 -176 -13q1 -67 7 -168q105 -36 207 -126l-52 -87q-71 73 -150 116v-30q0 -64 -43.5 -100.5t-128.5 -36.5q-88 0 -143.5 38t-55.5 109zM464 126q0 -32 26 -48.5 t72 -16.5q49 0 69 22t20 63q0 20 -1 32q-40 12 -83 12q-47 0 -75 -17.5t-28 -46.5z" />
<glyph unicode="&#x192;" d="M81 263q0 152 43 413q7 56 8 81l110 -9q-13 -33 -20 -76q-15 -69 -31.5 -193t-16.5 -197q0 -56 7 -106q17 46 51 127l51 -40q-58 -164 -71 -226q-5 -23 -5 -45q1 -6 2 -20t1 -17l-91 -6q-38 131 -38 314zM347 106q0 62 50.5 103.5t144.5 41.5q40 0 78 -6q-6 128 -6 142 q-115 -3 -233 3v91q109 -8 232 -5v145q-124 -2 -217 3v88q210 -16 397 6q-13 31 -26 61l56 17q35 -69 57 -138l-57 -20v-4q-41 -5 -119 -10v-144q103 6 177 16v-92q-82 -10 -176 -14q1 -65 7 -167q104 -36 208 -126l-52 -87q-70 72 -151 116v-30q0 -65 -43.5 -101 t-128.5 -36q-88 0 -143 38t-55 109zM437 112q0 -32 26 -48.5t71 -16.5q49 0 69.5 22t20.5 63q0 20 -1 32q-40 12 -83 12q-47 0 -75 -17.5t-28 -46.5zM868 809l57 19q30 -60 58 -138l-58 -19q-31 91 -57 138z" />
<glyph unicode="&#x193;" d="M81 263q0 152 43 413q7 56 7 81l111 -9q-13 -33 -20 -76q-15 -69 -31.5 -193t-16.5 -197q0 -56 7 -106q17 46 51 127l51 -40q-58 -164 -71 -226q-5 -23 -5 -45q1 -6 2 -20t1 -17l-91 -6q-38 131 -38 314zM347 106q0 62 50.5 103.5t144.5 41.5q40 0 78 -6q-6 128 -6 142 q-115 -3 -233 3v91q109 -8 232 -5v144q-106 -2 -217 4v88q217 -17 392 5q-8 19 -8 40q0 44 30.5 75.5t74.5 31.5t75.5 -31.5t31.5 -75.5t-31.5 -74.5t-75.5 -30.5q-41 0 -69 25v-44q-54 -6 -112 -9v-144q103 6 177 16v-92q-82 -10 -176 -14q1 -65 7 -167q104 -36 208 -126 l-52 -87q-70 72 -151 116v-30q0 -65 -43.5 -101t-128.5 -36q-88 0 -143 38t-55 109zM437 112q0 -32 26 -48.5t71 -16.5q49 0 69.5 22t20.5 63q0 20 -1 32q-40 12 -83 12q-47 0 -75 -17.5t-28 -46.5zM830 757q0 -23 16 -39t39 -16t39.5 16t16.5 39t-16.5 39t-39.5 16t-39 -16 t-16 -39z" />
<glyph unicode="&#x194;" d="M176 109q0 72 64 116t173 44q25 0 73 -4q-2 33 -4 113h-54q-132 0 -244 13l1 94q98 -19 244 -19h51v125h-49q-116 0 -225 15v91q105 -19 224 -19h51v56q0 31 -4 63h106q-5 -48 -6 -67q0 -4 -0.5 -21t-0.5 -28q118 6 247 25l1 -91q-172 -17 -249 -20v-126q134 7 270 26 l1 -94q-125 -15 -269 -21q1 -51 7 -135q148 -42 283 -153l-57 -87q-104 97 -221 144q0 -11 0.5 -28t0.5 -23q0 -61 -46 -102.5t-137 -41.5q-112 0 -171.5 40t-59.5 115zM271 114q0 -71 122 -71q47 0 72 17.5t25 62.5q0 33 -1 56q-46 8 -89 8q-61 0 -95 -20.5t-34 -52.5z" />
<glyph unicode="&#x195;" d="M67 181q0 112 93.5 189t239.5 82q76 171 92 203q-88 -2 -189 -9q-31 -1 -77 -7l-4 102q39 -3 78 -3q118 0 217 9q31 1 57 12l62 -50q-21 -23 -29 -37q-23 -38 -105 -225q119 -16 245 -73q4 28 6 56q3 48 0 98l102 -11q-5 -109 -20 -188q43 -24 114 -72l-46 -108 q-43 38 -95 74q-32 -93 -93.5 -162t-162.5 -121l-84 69q197 83 257 266q-133 72 -261 85q-84 -196 -120 -249q-53 -77 -138 -77q-61 0 -100 40t-39 107zM159 195q0 -25 14.5 -41t34.5 -16q30 0 56 34q27 37 95 189q-92 -11 -146 -59t-54 -107z" />
<glyph unicode="&#x196;" d="M90 671q82 -13 159 -13q23 0 35 1v31q0 74 -8 107h110q-8 -50 -8 -107v-24q98 11 184 34v-95q-90 -21 -184 -29v-140q27 -36 27 -94q0 -106 -52 -168q-1 -18 -1 -52q0 -28 8 -41.5t39.5 -21.5t96.5 -8q102 0 161 18q78 24 78 105q0 67 -7 117l108 -33q1 -81 0 -111 q-4 -71 -34 -110t-103 -60q-73 -20 -210 -20q-76 0 -125 9.5t-71.5 29.5t-29.5 40t-7 51q0 24 1 36q-16 -2 -25 -2q-54 0 -95 41.5t-41 124.5t48.5 141.5t123.5 58.5q11 0 16 -1v83h-29q-82 0 -159 9zM180 293q0 -36 18 -57t44 -21q36 0 54 35.5t18 87.5q0 32 -14.5 50.5 t-37.5 18.5q-34 0 -58 -32.5t-24 -81.5zM661 636l66 65q43 -29 105.5 -86.5t96.5 -98.5l-71 -72q-37 47 -95.5 103.5t-101.5 88.5z" />
<glyph unicode="&#x197;" d="M81 213q0 84 41 168t109 141q-9 23 -29 86q-16 55 -36 96l104 32q6 -28 21 -91q12 -42 21 -69q114 63 241 66q10 44 13 60q8 46 6 84l109 -11q-1 -4 -20 -87q-10 -41 -13 -53q119 -24 191.5 -111.5t72.5 -214.5q0 -148 -96 -239.5t-258 -114.5l-60 90q153 14 233 86.5 t80 181.5q0 91 -50 154t-136 81q-64 -215 -140 -327q26 -34 58 -65l-79 -64q-28 32 -41 49q-99 -115 -195 -115q-62 0 -104.5 49.5t-42.5 137.5zM173 220q0 -44 17 -69t48 -25q57 0 129 93l-12 19q-43 68 -91 193q-42 -44 -66.5 -101t-24.5 -110zM341 491q40 -111 76 -170 l9 -15q60 104 104 248q-99 -7 -189 -63z" />
<glyph unicode="&#x198;" d="M94 321l5 96q81 -29 203 -40q8 73 20 159q-108 9 -205 35l5 92q83 -28 211 -38q6 50 9 93q4 50 1 78l112 -6q-8 -34 -15 -78l-12 -90q117 0 192 13l-3 -94q-103 -10 -199 -10h-2q-11 -81 -20 -158h14q112 0 203 12l-3 -94q-87 -10 -185 -10h-38q-5 -58 -5 -86 q0 -68 40 -105t118 -37q108 0 170 43t62 114q0 105 -105 198l110 23q100 -118 100 -233q0 -111 -92.5 -178.5t-245.5 -67.5q-115 0 -184.5 55.5t-69.5 171.5q0 30 7 107q-121 12 -198 35z" />
<glyph unicode="&#x199;" d="M109 334q34 8 78 24q2 1 86 36q-20 42 -40 76q-22 37 -43 61l99 38q5 -10 14.5 -28.5t11.5 -22.5q7 -13 23 -44.5t21 -41.5q202 85 288 85q96 0 147 -49t51 -119q0 -86 -51 -134.5t-154 -48.5q-61 0 -124 24l3 91q59 -27 115 -27q59 0 87.5 26.5t28.5 68.5q0 32 -26.5 56 t-79.5 24q-77 0 -248 -75q6 -14 17 -38t13 -29q57 -131 121 -339l-99 -25q-45 175 -109 326q-2 4 -12.5 28t-15.5 37q-36 -17 -89 -43.5t-67 -32.5zM403 593l70 52q22 -15 55.5 -44t52.5 -50l-70 -52q-49 53 -108 94z" />
<glyph unicode="&#x19a;" d="M55 439q45 11 89 29q52 21 104 45q-29 59 -51 98q-29 48 -52 77l102 40q14 -29 37 -71q24 -44 53 -105q234 104 349 104q106 0 169 -56t63 -141q0 -95 -62 -153t-174 -58q-78 0 -150 28l3 98q73 -33 138 -33q68 0 105 33.5t37 88.5q0 44 -34.5 73.5t-97.5 29.5 q-103 0 -308 -95q6 -12 17 -36.5t16 -36.5q77 -176 153 -423l-109 -27q-65 251 -134 408l-32 73q-162 -81 -184 -91zM398 764l72 51q82 -63 130 -112l-73 -55q-90 87 -129 116z" />
<glyph unicode="&#x19b;" d="M188 275q0 95 21 259q2 33 1 44l103 -8q-4 -8 -8.5 -25t-5.5 -19q-25 -124 -24 -201q37 75 103.5 125.5t146.5 67.5q-5 30 -9 51q-5 24 -14 50l97 2q7 -39 14 -94q116 -4 181 -67.5t65 -159.5q0 -110 -68 -182.5t-195 -72.5q-17 0 -25 1q-40 -77 -114 -128l-85 50 q68 39 107 104q-80 38 -121 122l51 73q41 -83 106 -113q22 71 22 177q0 63 -4 106q-94 -20 -158 -89t-80 -150q-5 -24 -4 -44q0 -33 10 -83l-85 -12q-28 93 -28 216zM605 138q81 3 121.5 46t40.5 114q0 60 -36 99.5t-110 45.5q5 -63 5 -120q0 -104 -21 -185z" />
<glyph unicode="&#x19c;" d="M124 373q0 38 3.5 86t7 82t9 76.5t6.5 53.5q3 27 1 52l108 -9q-4 -10 -9.5 -29.5t-6.5 -22.5q-31 -155 -26 -253q44 97 125 162t180 86q-4 39 -11 72q-11 50 -17 65l104 2q11 -55 19 -130q134 -2 213.5 -79.5t79.5 -193.5q0 -130 -80.5 -211.5t-230.5 -81.5q-18 0 -27 1 q-47 -100 -139 -165l-93 56q86 48 134 134q-103 44 -154 148l58 71q52 -101 131 -133q27 90 27 216q0 76 -6 144q-114 -24 -191.5 -113t-98.5 -187q-7 -32 -6 -56q3 -54 12 -95l-88 -12q-34 111 -34 264zM606 196q96 2 151.5 54t55.5 140q0 79 -47.5 131.5t-140.5 57.5 q6 -72 6 -151q0 -136 -25 -232z" />
<glyph unicode="&#x19d;" d="M189 77q0 68 57 107t160 39q24 0 50 -3q-6 116 -6 166v151q0 61 -7 89h108q-8 -34 -8 -88v-59q149 2 239 14l2 -88q-115 -10 -241 -12v-14q0 -48 8 -178q135 -41 246 -142l-53 -86q-92 92 -188 134q1 -16 1 -43q0 -56 -38.5 -92.5t-121.5 -36.5q-93 0 -150.5 37 t-57.5 105zM278 82q0 -26 29 -43t78 -17q75 0 75 73q0 27 -1 43q-31 6 -64 6q-55 0 -86 -16t-31 -46z" />
<glyph unicode="&#x19e;" d="M121 120q0 76 66 124.5t192 48.5q25 0 73 -4q-7 182 -7 222q0 32 -0.5 92.5t-0.5 79.5q-2 76 -9 106h119q-4 -26 -9 -106v-25v-32.5v-29.5q167 2 286 16l4 -94q-116 -11 -290 -15q0 -33 10 -235q175 -49 306 -169l-60 -94q-107 107 -240 161q1 -21 1 -53q0 -70 -46 -115 t-149 -45q-112 0 -179 40t-67 127zM222 125q0 -38 36 -57.5t100 -19.5q52 0 75.5 24t23.5 74q0 30 -1 50q-44 9 -90 9q-68 0 -106 -21.5t-38 -58.5z" />
<glyph unicode="&#x19f;" d="M171 209q14 70 30 196.5t20 210.5l106 -14q-12 -56 -38 -256q134 108 307 108q118 0 190.5 -63t72.5 -153q0 -144 -131.5 -221t-406.5 -54l-31 103q221 -28 341 21.5t120 152.5q0 55 -46 89.5t-117 34.5q-187 0 -292 -124q-18 -22 -33 -53zM311 695l25 95 q63 -20 191 -44.5t198 -31.5l-23 -97q-69 9 -199.5 35.5t-191.5 42.5z" />
<glyph unicode="&#x1a0;" d="M204 384q0 111 30 319q6 53 8 93l108 -4q-29 -101 -43 -245q37 78 106.5 137.5t151.5 59.5q103 0 169 -94.5t66 -251.5q0 -371 -425 -449l-60 90q88 14 152 37t118 63t81.5 105t27.5 154q0 118 -38 186.5t-108 68.5q-57 0 -112 -50t-88.5 -121t-37.5 -137q-6 -46 3 -114 l-97 -7q-12 89 -12 160z" />
<glyph unicode="&#x1a1;" d="M104 263q46 37 147.5 122t111.5 93q184 154 219 184q-195 -8 -273 -12q-52 -4 -73 -7l-3 103q42 -5 79 -5q46 0 169.5 4t160.5 7q52 6 63 10l54 -72q-42 -27 -61 -41q-23 -16 -65 -50.5t-98.5 -83t-77.5 -65.5q52 17 117 17q125 0 207 -68.5t82 -171.5q0 -122 -93 -197 t-256 -75q-102 0 -165.5 42t-63.5 109q0 57 46.5 99t117.5 42q88 0 142.5 -49.5t65.5 -124.5q104 47 104 155q0 69 -61.5 114t-153.5 45q-111 0 -191 -47t-178 -151zM378 115q0 -32 33.5 -51t84.5 -19q41 0 70 4q-6 55 -37 88t-80 33q-31 0 -51 -16t-20 -39z" />
<glyph unicode="&#x1a2;" d="M53 162q134 168 216 292q1 14 3 42.5t3 42.5q-23 -3 -188 -25l-10 102q22 -1 74 1q52 3 130 15q5 72 5 86q0 53 -5 80l117 -4q-10 -49 -20 -142l35 -42q-14 -19 -47 -71q0 -7 -1 -20.5t-2 -20.5q70 64 149.5 110.5t145.5 46.5q72 0 109.5 -37.5t37.5 -101.5 q0 -50 -17.5 -180t-17.5 -181q0 -53 45 -53q68 0 140 77l15 -109q-81 -79 -184 -79q-53 0 -85 35.5t-32 100.5q0 56 18.5 184.5t18.5 173.5q0 77 -74 77q-54 0 -129.5 -54t-147.5 -132q-3 -53 -3 -100q0 -175 4 -247q1 -16 6 -67h-108q3 51 3 65q1 97 4 259 q-106 -157 -146 -211z" />
<glyph unicode="&#x1a3;" d="M102 257q77 71 259 227.5t199 171.5q-123 -4 -247 -12q-41 -3 -73 -8l-4 103q36 -4 72 -4q174 0 318 9q40 2 62 9l56 -70q-10 -5 -49 -31q-154 -116 -248 -198q57 22 127 22q125 0 205 -65.5t80 -168.5q0 -147 -132.5 -224.5t-373.5 -58.5l-30 102q196 -24 313 25 t117 157q0 66 -54.5 107t-144.5 41q-63 0 -117.5 -16.5t-102.5 -51t-80 -64.5t-78 -80z" />
<glyph unicode="&#x1a4;" d="M142 126q34 41 92.5 119.5t88.5 125.5q1 10 2.5 29.5t2.5 28.5q-116 -17 -159 -26l-9 84q14 0 56 2q52 6 118 15q1 19 3 46.5t2 33.5q2 23 -1 65l101 -2q-10 -50 -20 -131l28 -31q-16 -22 -37 -52q-1 -11 -3 -31q119 91 238 91q100 0 164 -60.5t64 -154.5 q0 -249 -306 -301l-43 86q121 16 189 69.5t68 147.5q0 51 -39 91t-109 40q-113 0 -232 -105q-2 -44 -2 -62q0 -121 7 -229q0 -8 2 -28t2 -25h-97q2 28 2 51q0 17 1 95t2 126q-10 -14 -56 -85t-65 -99z" />
<glyph unicode="&#x1a5;" d="M53 162q128 159 216 291l5 86q-27 -3 -99.5 -13t-87.5 -12l-10 102q22 -1 74 1q49 3 130 15q5 72 5 86q0 53 -5 80l117 -4q-10 -49 -20 -142l35 -42q-14 -19 -47 -71q0 -8 -2 -24.5t-2 -24.5q144 114 304 114q111 0 188 -71.5t78 -185.5q1 -146 -93.5 -233.5 t-272.5 -122.5l-45 95q140 21 224 84.5t84 178.5q0 63 -48 113t-130 50q-152 0 -296 -134q-3 -54 -3 -102q0 -175 4 -247q1 -16 6 -67h-108q3 51 3 65q1 97 4 259q-106 -157 -146 -211z" />
<glyph unicode="&#x1a6;" d="M84 133q0 138 103.5 258.5t257.5 160.5q23 75 34 125q-182 -10 -267 -19l-5 100q32 -4 67 -4q94 -2 207 7q37 4 61 12l62 -46q-21 -35 -30 -62q-4 -13 -15.5 -48t-16.5 -51q8 1 24 1q148 0 238 -86.5t90 -221.5q0 -82 -29.5 -148.5t-96.5 -110t-164 -43.5 q-79 0 -127.5 37t-48.5 101q0 58 43.5 96.5t106.5 38.5q64 0 108 -31.5t66 -84.5q45 59 45 146q0 98 -62.5 160.5t-169.5 62.5q-26 0 -50 -3q-27 -83 -50 -149q-72 -204 -143 -284q-44 -50 -122 -50q-47 0 -81.5 36t-34.5 100zM174 158q0 -25 11 -39t27 -14q32 0 54 26 q56 69 125 258q3 8 10.5 30t11.5 34q-71 -29 -127.5 -84t-84 -110.5t-27.5 -100.5zM510 103q0 -27 24 -44t62 -17q47 0 86 17q-23 99 -104 99q-29 0 -48.5 -15t-19.5 -40z" />
<glyph unicode="&#x1a7;" d="M56 1q166 176 287 271q-52 35 -52 87q0 48 46.5 78.5t108.5 30.5q65 0 104.5 -27t39.5 -70q0 -28 -21 -54q67 10 108.5 41t41.5 76q0 49 -49 79.5t-121 30.5q-102 0 -177 -34q-79 -35 -196 -131l-60 72q133 89 401 243q-8 0 -69 -2.5t-119 -5.5t-86 -6l-3 84q48 -3 76 -3 q179 0 289 9q29 2 68 11l55 -70q-77 -22 -233 -111q40 8 88 8q101 -1 168 -49.5t67 -123.5q0 -97 -88 -149.5t-216 -52.5q-40 0 -74 6q-49 -36 -89 -70q94 11 141 -90q33 52 85 83.5t108 31.5q81 0 144 -55.5t104 -149.5l-100 -39q-55 160 -157 160q-41 0 -76 -29.5 t-54 -78.5q-7 -21 -9 -42h-100q-4 35 -7 44q-30 97 -109 97q-45 0 -86 -38.5t-92 -110.5zM371 367q0 -42 86 -51q47 24 47 54q0 18 -18.5 29t-46.5 11q-26 0 -47 -11.5t-21 -31.5z" />
<glyph unicode="&#x1a8;" d="M88 305q153 145 224 289h-29q-83 0 -165 6v93q82 -11 170 -11h58q20 68 23 119l103 -8q-17 -72 -28 -107q167 7 293 29v-92q-126 -20 -326 -27q-33 -72 -75 -129q50 29 126 29q48 0 83 -22t49 -62q27 13 55 25.5t58.5 25.5t45.5 20q66 30 94 44l39 -92q-39 -11 -100 -36 q-80 -30 -184 -78q1 -33 2.5 -103.5t1.5 -78.5h-96q4 45 4 139q-68 -38 -102.5 -73.5t-34.5 -76.5q0 -48 40.5 -64.5t123.5 -16.5q134 0 275 26l-3 -101q-136 -17 -275 -17q-263 0 -263 157q0 44 19.5 82.5t55.5 70.5t72.5 55.5t85.5 48.5q-17 49 -80 49q-88 0 -164 -71 q-32 -31 -91 -106z" />
<glyph unicode="&#x1a9;" d="M70 -2q48 131 164 365.5t179 346.5q4 8 12.5 24.5t16 31.5t13.5 31l111 -45q-4 -6 -31 -47q-58 -89 -184 -320q61 46 131 46q53 0 85 -33t35 -92q1 -18 1.5 -83.5t2.5 -91.5q2 -31 22 -46.5t50 -15.5q69 0 116 69.5t71 168.5l84 -68q-87 -276 -287 -276q-74 0 -112 38 t-41 92q-1 28 -2 93.5t-3 89.5q-2 30 -19 46.5t-47 16.5q-52 0 -99 -45t-78 -110q-46 -95 -81 -223z" />
<glyph unicode="&#x1aa;" d="M12 767l69 28q38 -55 98 -163l-72 -30q-68 127 -95 165zM140 816l70 29q32 -47 97 -162l-70 -30q-72 129 -97 163z" />
<glyph unicode="&#x1ab;" d="M27 708q0 47 34 81.5t82 34.5t82 -34t34 -82t-34 -82.5t-82 -34.5t-82 34.5t-34 82.5zM77 708q0 -26 20 -46t46 -20t45.5 20t19.5 46t-19.5 45t-45.5 19t-46 -19t-20 -45z" />
<glyph unicode="&#x1ac;" d="M313 586l86 65q93 -85 203.5 -206t160.5 -192l-27 -81q-104 -34 -311 -120l-49 97q35 13 133.5 51.5t116.5 45.5q-39 59 -136.5 164.5t-176.5 175.5z" />
<glyph unicode="&#x1ad;" d="M274 566l86 65q93 -85 203.5 -206t160.5 -192l-27 -81q-109 -36 -311 -120l-49 97q73 27 251 97q-39 59 -136.5 164t-177.5 176zM520 681l69 28q45 -67 91 -152l-71 -30q-57 109 -89 154zM652 722l69 29q46 -65 92 -151l-70 -30q-58 108 -91 152z" />
<glyph unicode="&#x1ae;" d="M172 454v103q60 -8 99 -8h481q38 0 66 6l58 -52q-12 -13 -25 -33q-33 -54 -90 -125t-111 -110l-81 55q46 30 92.5 80t67.5 88l-458 1q-42 0 -99 -5zM214 -18q41 15 75 38q87 58 116 131.5t29 182.5q0 28 -7 65h110q-1 -61 -3.5 -98.5t-10 -89t-23 -87t-41 -75t-65.5 -73 t-94 -63.5z" />
<glyph unicode="&#x1af;" d="M119 626v111q67 -9 117 -9h559q56 0 84 7l63 -59q-27 -33 -33 -42q-39 -67 -105.5 -145.5t-139.5 -130.5l-83 67q62 36 121 98.5t83 108.5h-549q-31 0 -117 -6zM168 30q53 18 96 49q99 64 132.5 154t33.5 230q0 45 -6 80h114q0 -65 -1.5 -108.5t-7.5 -98t-17.5 -92.5 t-32 -82t-49.5 -77.5t-72 -67.5t-98 -62z" />
<glyph unicode="&#x1b0;" d="M111 271q90 19 186 57.5t164 78.5q76 44 148 101.5t109 104.5l79 -73q-77 -85 -226 -181v-345q0 -75 5 -96h-116q5 43 5 96v284q-159 -81 -301 -119z" />
<glyph unicode="&#x1b1;" d="M75 387q123 28 243 77.5t208 104.5q76 47 147.5 108.5t113.5 115.5l85 -77q-121 -121 -267 -215v-420q0 -87 7 -118h-124q6 44 6 118v356q-179 -95 -362 -147z" />
<glyph unicode="&#x1b2;" d="M178 504q50 -4 90 -4h178v64q0 23 -6 65h111q-5 -35 -5 -65v-64h166q45 0 62 6l68 -36q-4 -13 -13 -59q-20 -141 -81 -251q-47 -84 -137.5 -148t-210.5 -94l-79 89q62 9 107 28q148 54 214 155q63 97 75 219h-439v-132q0 -32 3 -53h-101q3 48 3 58v149q0 41 -5 73z" />
<glyph unicode="&#x1b3;" d="M125 316q4 42 4 72v175q0 50 -4 81q52 -5 97 -5h218v86q0 41 -7 83h121q-6 -54 -6 -83v-86h202q45 0 75 10l69 -43q-10 -25 -17 -68q-31 -179 -96 -293q-57 -104 -161 -179t-240 -112l-82 95q59 9 120 33q72 24 140.5 74t111.5 114q71 109 92 276h-532v-164q0 -43 4 -66 h-109z" />
<glyph unicode="&#x1b4;" d="M151 -15v104q50 -6 76 -6h219v348h-171q-43 0 -74 -3v100q37 -5 73 -5h459q37 0 74 5v-100q-35 3 -74 3h-184v-348h231q31 0 71 6v-104q-32 3 -71 3h-553q-37 0 -76 -3z" />
<glyph unicode="&#x1b5;" d="M80 32v114q42 -7 93 -7h269v437h-211q-55 0 -88 -4v109q43 -5 88 -5h547q45 0 90 5v-109q-37 4 -90 4h-227v-437h282q26 0 87 7v-114q-36 4 -87 4h-660q-50 0 -93 -4z" />
<glyph unicode="&#x1b6;" d="M163 90q107 50 208 132t154 158h-245q-31 0 -83 -4v99q34 -6 81 -6h289q-1 42 -3 73q-2 44 -7 74h104q-4 -22 -4 -74l1 -73h133q41 0 73 6v-98q-60 3 -70 3h-134q5 -225 7 -373q0 -35 -23.5 -56t-61.5 -21q-65 0 -149 6l-6 91q67 -10 119 -10q27 0 27 31q0 104 -3 245 q-53 -71 -148.5 -151.5t-189.5 -130.5z" />
<glyph unicode="&#x1b7;" d="M75 149q142 69 264.5 171.5t186.5 196.5h-305q-53 0 -102 -3v106q49 -7 100 -7h349q-2 51 -3 86q-2 55 -9 92h114q-6 -47 -5 -92l1 -86h143q44 0 93 7v-105q-54 2 -88 2h-146q7 -353 8 -462q0 -90 -101 -90q-60 0 -166 6l-8 103q72 -11 137 -11q37 0 37 40q0 141 -3 322 q-68 -92 -185 -192.5t-240 -165.5z" />
<glyph unicode="&#x1b8;" d="M98 40q62 33 115 84q148 139 183 393h-152q-71 0 -122 -4v104q76 -6 122 -6h161q3 45 3 95q0 47 -7 87h117q-3 -33 -5 -84q-1 -38 -5 -98h216q29 0 69 6l69 -34q-4 -21 -6 -51q-11 -376 -60 -485q-31 -68 -116 -68q-46 0 -163 7l-12 105q87 -12 145 -12q42 0 57 34 q23 47 35 174t12 230h-256q-27 -202 -101 -330t-207 -222z" />
<glyph unicode="&#x1b9;" d="M78 29q62 33 115 84q148 139 183 393h-152q-71 0 -122 -4v105q66 -7 122 -7h161q3 45 3 96q0 46 -7 86h117q-3 -33 -5 -84q-1 -38 -5 -98h216q29 0 69 6l69 -34q-4 -21 -6 -51q-11 -376 -60 -485q-31 -68 -116 -68q-46 0 -163 7l-12 105q87 -12 145 -12q42 0 57 34 q23 47 35 174t12 230h-256q-27 -202 -101 -330t-207 -222zM695 764l65 27q41 -59 81 -137l-66 -29q-41 84 -80 139zM809 806l64 27q41 -56 83 -136l-65 -28q-49 93 -82 137z" />
<glyph unicode="&#x1ba;" d="M100 282q35 1 95 10q53 8 259 40l-35 184q-119 -19 -210 -35q-34 -6 -86 -18l-21 110q56 4 87 7q54 6 211 30q-4 19 -8.5 43.5t-7.5 37.5t-4 19q-10 44 -20 72l112 18l4 -30q4 -29 7 -42q4 -24 19 -102q176 29 215 37q53 10 82 19l19 -105q-14 -1 -80 -11 q-25 -4 -218 -34l35 -183q172 28 234 40q70 15 94 22l21 -105q-4 0 -97 -15q-78 -12 -233 -37q7 -36 16 -81t14 -72t8 -39q14 -58 26 -94l-115 -20q-13 95 -14 97q-2 11 -7 38t-13.5 72t-15.5 83q-198 -33 -257 -44q-62 -11 -93 -19z" />
<glyph unicode="&#x1bb;" d="M83 265q35 1 95 10q72 9 259 40l-35 183q-37 -6 -84.5 -13.5t-79 -12.5t-46.5 -8q-45 -8 -86 -19l-21 111q45 2 87 7q54 6 211 30q-4 20 -8.5 43t-7.5 36.5t-4 19.5q-9 41 -19 72l111 19q0 -2 4 -30.5t7 -42.5q1 -5 3.5 -19t6.5 -37.5t8 -44.5q168 27 216 36q48 10 67 15 q-37 73 -76 130l65 27q37 -54 80 -137l-53 -23l19 -98q-17 -1 -81 -10l-218 -35l35 -183q172 28 234 40q67 14 94 22l21 -105q-19 -2 -97 -14t-233 -37q38 -191 38 -192q14 -58 26 -94l-115 -21q-14 95 -14 97q-2 11 -7 38t-13.5 73t-15.5 82q-147 -24 -257 -43 q-69 -13 -93 -20zM805 832l64 27q51 -73 82 -136l-65 -28q-41 84 -81 137z" />
<glyph unicode="&#x1bc;" d="M86 395q202 120 314 331q23 38 37 90l116 -38q-17 -26 -52 -89q-7 -13 -14 -25h240q48 0 75 10l82 -50q-15 -24 -28 -61q-54 -190 -176 -340q-146 -179 -400 -277l-93 83q250 75 401 250q53 61 95.5 145t56.5 150h-312q-110 -148 -254 -244z" />
<glyph unicode="&#x1bd;" d="M50 371q202 122 314 331q24 41 37 90l116 -38q-21 -31 -52 -88q-12 -21 -15 -26h241q48 0 75 10l82 -50q-15 -24 -28 -61q-54 -190 -176 -340q-146 -180 -400 -276l-93 83q250 74 401 249q54 62 96 145.5t56 149.5h-313q-107 -145 -253 -244zM707 781l64 27 q41 -59 81 -137l-66 -28q-45 91 -79 138zM820 824l64 27q48 -65 83 -136l-65 -29q-39 79 -82 138z" />
<glyph unicode="&#x1be;" d="M56 362q92 69 176 211q32 58 57 139q14 46 17 89l122 -24q-3 -8 -29 -75q-21 -59 -33 -88h454q62 0 98 6v-108q-51 3 -98 3h-156q-13 -202 -89.5 -338.5t-212.5 -222.5l-106 72q50 21 87 50q194 148 213 439h-237q-33 -59 -77.5 -118t-86.5 -95z" />
<glyph unicode="&#x1bf;" d="M44 341q91 67 175 211q31 54 58 138q14 48 17 90l122 -24q-5 -12 -29 -75q-18 -53 -33 -89h454q61 0 98 6v-108q-34 3 -98 3h-156q-25 -385 -302 -560l-107 72q51 19 87 50q194 147 214 438h-237q-33 -59 -77.5 -117.5t-86.5 -94.5zM701 771l64 27q41 -59 81 -137 l-66 -29q-43 89 -79 139zM814 813l64 27q48 -65 83 -136l-65 -28q-42 84 -82 137z" />
<glyph unicode="&#x1c0;" d="M153 35v113q73 -5 116 -5h479v446h-467q-38 0 -116 -3v110q70 -6 116 -6h497q44 0 80 2q-2 -44 -2 -84v-517q0 -62 4 -106h-114q0 6 0.5 24.5t0.5 29.5h-474q-62 0 -120 -4z" />
<glyph unicode="&#x1c1;" d="M132 4v113q72 -5 116 -5h479v446h-467q-38 0 -116 -3v110q70 -6 116 -6h497q42 0 80 2q-3 -66 -3 -83v-518q0 -17 4 -105h-113q0 5 0.5 23.5t0.5 30.5h-475q-71 0 -119 -5zM673 802l67 27q39 -56 79 -133l-67 -29q-38 79 -79 135zM803 832l67 28q37 -52 81 -133l-67 -29 q-49 91 -81 134z" />
<glyph unicode="&#x1c2;" d="M63 483v107q46 -7 104 -7h98v115q0 15 -5 80h112q-6 -39 -6 -80v-115h264v116q0 52 -5 87h113q-6 -45 -6 -87v-116h94q70 0 100 6v-106q-24 3 -99 3h-95v-34q0 -101 -13 -174t-45.5 -136t-89.5 -110t-144 -86l-85 80q75 28 123 58t84 78t52 117t16 167v40h-264v-150 q0 -41 4 -97h-110q5 70 5 97v150h-98q-56 0 -104 -3z" />
<glyph unicode="&#x1c3;" d="M45 466v108q52 -8 104 -8h98v115q0 11 -5 81h112q-5 -35 -5 -81v-115h263v116q0 52 -5 87h113q-5 -75 -5 -87v-116h93q62 0 100 6v-106q-23 3 -99 3h-94v-34q0 -202 -62 -316t-231 -189l-85 80q75 27 123 57t84 78t52 117t16 167v40h-263v-150q0 -41 4 -97h-111 q5 35 5 97v150h-98q-53 0 -104 -3zM749 751l57 18q33 -67 56 -137l-58 -20q-35 99 -55 139zM850 782l57 18q34 -66 57 -137l-57 -19q-35 96 -57 138z" />
<glyph unicode="&#x1c4;" d="M95 466l57 86q125 -67 224 -137l-58 -89q-116 83 -223 140zM139 66q191 33 338 114q124 70 222.5 166.5t160.5 204.5l60 -106q-139 -212 -390 -358q-72 -42 -166 -76t-166 -48zM247 693l57 86q111 -63 222 -143l-59 -86q-117 85 -220 143z" />
<glyph unicode="&#x1c5;" d="M83 460l57 86q127 -70 223 -137l-58 -89q-106 77 -222 140zM126 60q191 33 338 114q124 71 223 167.5t160 203.5l61 -106q-141 -213 -391 -358q-72 -42 -166 -76t-166 -48zM235 686l57 86q95 -52 222 -142l-60 -86q-108 78 -219 142zM654 727l68 29q58 -87 92 -155 l-70 -31q-45 96 -90 157zM787 775l69 29q44 -58 95 -152l-70 -31q-40 82 -94 154z" />
<glyph unicode="&#x1c6;" d="M89 54q115 44 223 123.5t188 169.5q51 57 96 131.5t63 132.5h-367q-13 0 -109 -6v113q47 -7 109 -7h371q59 0 87 10l65 -48q-18 -26 -29 -52q-70 -164 -164 -285q72 -62 153.5 -146t132.5 -147l-89 -78q-102 142 -264 292q-182 -194 -385 -287z" />
<glyph unicode="&#x1c7;" d="M69 34q114 43 222 122.5t189 169.5q51 57 96 131.5t63 132.5h-367q-13 0 -109 -6v113q47 -7 109 -7h371q56 0 87 11l39 -30q-35 70 -72 124l65 27q51 -78 80 -137l-57 -25l10 -8q-15 -20 -29 -51q-68 -160 -164 -286q72 -62 153.5 -146t132.5 -147l-89 -77 q-104 142 -264 291q-182 -194 -385 -287zM817 830l64 27q49 -69 82 -136l-65 -29q-37 77 -81 138z" />
<glyph unicode="&#x1c8;" d="M55 478q61 8 240 41v159q0 60 -7 102h118q-7 -52 -7 -102v-139q298 58 362 73q43 10 61 20l75 -58q-17 -26 -28 -46q-39 -73 -96 -155.5t-110 -135.5l-87 51q49 45 97 110t73 113q-9 -2 -59.5 -12t-135 -27t-152.5 -31v-283q0 -51 26.5 -69.5t110.5 -18.5q159 0 314 31 l-4 -108q-152 -21 -313 -21q-100 0 -152.5 18.5t-69 50.5t-16.5 90v289q-44 -9 -121.5 -25t-99.5 -21z" />
<glyph unicode="&#x1c9;" d="M41 460q64 8 241 41v159q0 60 -7 102h118q-8 -48 -8 -102v-139q239 45 363 73q44 11 61 20l75 -58q-11 -15 -29 -46q-38 -71 -95 -154.5t-110 -137.5l-87 52q49 45 96.5 109.5t73.5 113.5q-9 -2 -61 -12.5t-134.5 -27l-152.5 -30.5v-283q0 -51 26.5 -69.5t110.5 -18.5 q159 0 314 31l-4 -108q-151 -21 -312 -21q-76 0 -123.5 9t-72.5 30.5t-33.5 48.5t-8.5 70v290q-126 -25 -222 -46zM703 778l64 27q41 -59 81 -137l-66 -28q-45 90 -79 138zM816 821l64 27q51 -71 83 -136l-65 -29q-39 79 -82 138z" />
<glyph unicode="&#x1ca;" d="M112 680l100 51q73 -106 170 -287l-103 -58q-30 65 -80.5 154.5t-86.5 139.5zM255 46q218 88 349 280q86 127 122 316q10 49 10 98l126 -17q-13 -45 -24 -95q-42 -208 -137 -355q-134 -204 -352 -308z" />
<glyph unicode="&#x1cb;" d="M95 656l100 51q67 -96 170 -287l-102 -58q-87 180 -168 294zM239 22q376 160 460 551q13 67 12 97l124 -24q-9 -27 -24 -87q-16 -68 -36 -125t-58 -129.5t-86.5 -132t-125.5 -121.5t-172 -110zM679 802l66 27q39 -53 80 -133l-68 -29q-32 68 -78 135zM808 832l68 28 q43 -63 81 -133l-68 -29q-52 96 -81 134z" />
<glyph unicode="&#x1cc;" d="M76 394q117 72 195.5 163.5t124.5 177.5q26 40 38 90l114 -36q-33 -52 -51 -88l-12 -22h243q45 0 75 11l81 -50q-19 -35 -28 -62q-44 -146 -142 -287q72 -47 96 -64l-70 -92q-34 28 -95 70q-151 -171 -381 -259l-91 80q227 68 385 237q-119 77 -205 125l66 75 q84 -44 206 -117q88 126 118 243h-318q-116 -159 -263 -260z" />
<glyph unicode="&#x1cd;" d="M48 371q208 128 320 340q24 39 38 91l114 -36q-17 -26 -52 -89l-12 -21h243q48 0 75 10l4 -2q-42 83 -71 122l64 27q41 -59 81 -137l-55 -24l59 -36q-15 -24 -28 -61q-45 -148 -142 -287q58 -37 96 -65l-71 -91q-30 25 -94 70q-153 -173 -382 -259l-90 79q226 69 384 238 q-105 69 -204 124l66 75q96 -50 206 -116q89 128 117 243h-317q-114 -157 -264 -261zM820 828l64 27q48 -65 83 -136l-65 -29q-39 79 -82 138z" />
<glyph unicode="&#x1ce;" d="M84 364v103q40 -5 90 -5h292v165q-116 -12 -281 -14l-25 92q181 -7 339 16q179 24 255 58l65 -87q-16 -4 -39 -9.5t-26 -6.5q-85 -22 -185 -37v-177h266q40 0 84 4v-102q-36 3 -82 3h-270q-10 -137 -71 -239.5t-185 -175.5l-100 68q117 55 179 139.5t73 207.5h-288 q-54 0 -91 -3z" />
<glyph unicode="&#x1cf;" d="M58 351v103q62 -5 90 -5h292v165q-99 -9 -280 -14l-25 93q178 -7 338 15q178 24 255 59l66 -87q-20 -5 -65 -17q-74 -19 -186 -36v-178h266q31 0 84 5v-103q-48 4 -82 4h-270q-10 -138 -71 -240t-185 -175l-100 68q117 54 179 139t73 208h-288q-41 0 -91 -4zM710 608 l60 26q44 -63 74 -125l-62 -28q-34 73 -72 127zM818 648l60 27q47 -64 78 -124l-62 -28q-35 70 -76 125z" />
<glyph unicode="&#x1d0;" d="M166 498l94 34q41 -82 92 -227l-95 -35q-14 45 -45 123t-46 105zM287 2q89 25 178.5 81t149.5 130q52 64 87 155.5t46 186.5l110 -35q-14 -39 -19 -60q-46 -182 -140 -301q-128 -164 -329 -242zM399 553l94 31q51 -119 80 -217l-94 -34q-9 36 -36 110.5t-44 109.5z" />
<glyph unicode="&#x1d1;" d="M85 667l100 36q60 -127 114 -277l-101 -37q-15 49 -54.5 146t-58.5 132zM245 49q109 31 214 100t179 162q59 75 101.5 190t56.5 225l117 -33q-8 -18 -21 -66q-59 -233 -167 -376q-76 -100 -179.5 -175.5t-213.5 -114.5zM366 731l97 33q18 -37 53 -128.5t49 -136.5 l-99 -35q-13 46 -46.5 136t-53.5 131z" />
<glyph unicode="&#x1d2;" d="M68 641l100 35q60 -127 114 -277l-101 -36q-15 47 -54.5 144.5t-58.5 133.5zM228 22q109 32 214.5 100.5t178.5 161.5q113 145 147 360l115 -28q-8 -19 -20 -66q-58 -198 -156 -325q-75 -100 -178.5 -175.5t-213.5 -115.5zM349 705l97 32q18 -37 53.5 -129t48.5 -136 l-99 -34q-13 45 -46.5 135t-53.5 132zM687 802l66 28q43 -61 80 -134l-68 -29q-29 65 -78 135zM816 832l68 28q46 -66 81 -132l-68 -29q-52 96 -81 133z" />
<glyph unicode="&#x1d3;" d="M91 395v103q47 -5 91 -5h654q42 0 84 5v-103q-34 3 -84 3h-257q-6 -159 -62 -267q-28 -52 -81.5 -103t-117.5 -83l-92 68q56 23 105.5 63t79.5 86q53 83 60 236h-289q-49 0 -91 -3zM209 649v103q53 -7 98 -7h403q55 0 100 7v-103q-48 3 -100 3h-403q-56 0 -98 -3z" />
<glyph unicode="&#x1d4;" d="M79 384v104q48 -5 91 -5h654q53 0 84 5v-103q-46 2 -84 2h-257q-6 -160 -62 -266q-27 -52 -80.5 -103t-117.5 -84l-93 68q55 22 105.5 62.5t79.5 86.5q55 86 60 236h-289q-49 0 -91 -3zM197 638v103q45 -6 97 -6h338q54 0 100 6v-103q-64 4 -100 4h-337q-44 0 -98 -4z M723 790l64 27q41 -59 81 -137l-66 -28q-45 90 -79 138zM836 832l64 27q51 -69 83 -136l-65 -28q-39 81 -82 137z" />
<glyph unicode="&#x1d5;" d="M318 782h123q-7 -77 -7 -112v-156q253 -77 423 -160l-45 -109q-153 83 -378 156v-309q0 -70 8 -128h-123q8 56 8 128v578q0 61 -9 112z" />
<glyph unicode="&#x1d6;" d="M287 768h123q-8 -88 -8 -112v-156q100 -30 225 -77t198 -83l-44 -108q-154 81 -379 155l1 -309q0 -63 7 -128h-122q8 56 8 128v578q0 62 -9 112zM600 701l67 29q63 -91 91 -151l-70 -31q-37 81 -88 153zM726 751l67 31q60 -83 93 -148l-68 -33q-42 84 -92 150z" />
<glyph unicode="&#x1d7;" d="M93 448v108q60 -5 101 -5h279v123q0 67 -11 108h126q-7 -36 -7 -108v-123h248q60 0 96 4v-107q-27 3 -97 3h-247q-2 -110 -28 -196t-88.5 -163.5t-164.5 -137.5l-98 73q139 64 203 170t68 254h-277q-66 0 -103 -3z" />
<glyph unicode="&#x1d8;" d="M90 50v121q72 -6 113 -6h588q52 0 100 6v-121q-55 5 -100 5h-588q-55 0 -113 -5zM175 549v114q55 -5 106 -5h422q59 0 104 5v-114q-56 4 -104 4h-421q-43 0 -107 -4z" />
<glyph unicode="&#x1d9;" d="M118 34q216 66 368 219q-137 99 -259 166l64 77q111 -58 264 -163q98 132 132 278h-391q-59 0 -117 -4v107q87 -6 117 -6h398q36 0 64 13l74 -57q-18 -30 -28 -60q-62 -191 -161 -333q117 -85 193 -154l-74 -87q-72 69 -188 158q-75 -81 -171.5 -143.5t-196.5 -99.5z" />
<glyph unicode="&#x1da;" d="M68 228q228 52 407 169q60 38 111 85t77 83h-392q-64 0 -126 -4v104q51 -6 124 -6h186v59q0 56 -6 90h114q-6 -46 -6 -90v-59h146q46 0 71 8l66 -63q-49 -51 -65 -70q-103 -119 -220 -203v-262q0 -40 5 -118h-114q7 51 7 118q0 134 1 198q-133 -74 -325 -132zM633 279 l65 75q135 -73 241 -144l-66 -87q-118 90 -240 156z" />
<glyph unicode="&#x1db;" d="M126 66q112 39 211 108.5t169 154.5q68 83 117 198.5t71 229.5l122 -32q-8 -16 -37 -98q-84 -237 -186 -365q-69 -87 -169.5 -165.5t-207.5 -122.5z" />
<glyph unicode="&#x1dc;" d="M64 48q92 121 155 274q77 188 97 375l113 -23q-13 -46 -20 -85q-39 -182 -89 -307q-58 -151 -147 -280zM567 675l103 34q72 -132 147 -321q65 -162 119 -346l-115 -37q-39 166 -109 348q-75 200 -145 322z" />
<glyph unicode="&#x1dd;" d="M52 31q92 121 155 274q77 188 96 375l114 -23q-9 -32 -21 -85q-33 -169 -88 -308q-59 -151 -147 -279zM555 658l103 34q77 -145 147 -321q68 -171 118 -346l-114 -37q-41 167 -109 348q-81 210 -145 322zM707 760l65 27q44 -64 80 -137l-65 -28q-43 86 -80 138zM821 803 l64 27q52 -76 82 -136l-64 -29q-45 87 -82 138z" />
<glyph unicode="&#x1de;" d="M52 31q92 121 155 274q77 188 96 375l114 -23q-9 -32 -21 -85q-33 -169 -88 -308q-59 -151 -147 -279zM555 658l103 34q77 -145 147 -321q68 -171 118 -346l-114 -37q-41 167 -109 348q-81 210 -145 322zM738 707q0 47 33.5 81t81.5 34t82 -34t34 -81q0 -48 -34 -81.5 t-82 -33.5t-81.5 33.5t-33.5 81.5zM791 707q0 -25 18.5 -43.5t43.5 -18.5q26 0 44.5 18.5t18.5 43.5t-19 44t-44 19t-43.5 -18.5t-18.5 -44.5z" />
<glyph unicode="&#x1df;" d="M214 777h117q-7 -45 -7 -91v-210q206 50 374 120q55 24 97 50l43 -101q-16 -6 -52 -21.5t-52 -21.5q-162 -65 -410 -129v-205q0 -34 15.5 -48t52.5 -21q43 -7 125 -7q221 0 345 33v-115q-138 -20 -351 -20q-103 0 -163 10q-63 12 -95 45t-32 94v547q0 46 -7 91z" />
<glyph unicode="&#x1e0;" d="M174 757h117q-6 -39 -6 -90v-210q211 52 365 117q52 21 97 49l44 -101q-7 -3 -46.5 -19.5t-58.5 -22.5q-157 -63 -401 -127v-204q0 -34 15 -48t53 -22q42 -7 125 -7q221 0 344 33v-115q-138 -20 -350 -20q-104 0 -164 10q-63 12 -95 45t-32 94v548q0 54 -7 90zM668 768 l64 27q41 -59 81 -137l-65 -28q-51 97 -80 138zM782 810l64 27q49 -69 82 -136l-65 -28q-41 84 -81 137z" />
<glyph unicode="&#x1e1;" d="M174 757h117q-6 -39 -6 -90v-210q211 52 365 117q52 21 95 48q-33 35 -33 81q0 47 34 81t81 34q48 0 82 -34t34 -81q0 -48 -34 -81.5t-82 -33.5q-44 0 -78 31l42 -97q-7 -3 -46.5 -19.5t-58.5 -22.5q-157 -63 -401 -127v-204q0 -34 15 -48t53 -22q42 -7 125 -7 q221 0 344 33v-115q-138 -20 -350 -20q-104 0 -164 10q-63 12 -95 45t-32 94v548q0 54 -7 90zM765 703q0 -25 18.5 -43.5t43.5 -18.5q26 0 44.5 18t18.5 44t-18.5 44.5t-44.5 18.5q-25 0 -43.5 -18.5t-18.5 -44.5z" />
<glyph unicode="&#x1e2;" d="M139 604v112q56 -8 108 -8h485q38 0 64 7l77 -50q-7 -14 -18 -58q-52 -240 -149 -367q-149 -193 -398 -271l-85 94q253 62 390 238q49 61 81.5 146t43.5 161h-491q-58 0 -108 -4z" />
<glyph unicode="&#x1e3;" d="M119 592v111q49 -7 108 -7h485q28 0 44 2q-27 52 -66 110l67 28q35 -50 79 -132l-38 -16l55 -36q-7 -14 -18 -58q-51 -238 -150 -367q-147 -192 -397 -271l-86 94q139 34 231.5 93.5t159.5 144.5q49 62 81.5 147t43.5 160h-491q-33 0 -108 -3zM823 834l68 28 q46 -66 81 -132l-68 -30q-51 95 -81 134z" />
<glyph unicode="&#x1e4;" d="M119 592v111q49 -7 108 -7h485q27 0 42 2q-3 14 -3 27q0 47 34 81t81 34q48 0 82 -34t34 -81q0 -48 -34 -81.5t-82 -33.5q-14 0 -26 3l-5 -19q-51 -236 -150 -367q-149 -193 -397 -271l-86 94q139 34 231.5 93.5t159.5 144.5q49 62 81.5 147t43.5 160h-491q-33 0 -108 -3 zM804 725q0 -26 18 -44t44 -18t44.5 18t18.5 44t-18.5 44t-44.5 18t-44 -18.5t-18 -43.5z" />
<glyph unicode="&#x1e5;" d="M54 291q34 29 75 70q21 21 53 59t76.5 92.5t65.5 78.5q43 50 82 53t98 -43q58 -49 206 -206q178 -191 243 -268l-83 -90q-87 110 -221 261q-126 148 -189 201q-29 25 -45.5 23.5t-40.5 -30.5q-25 -31 -87 -112.5t-78 -101.5q-31 -41 -61 -84z" />
<glyph unicode="&#x1e6;" d="M46 272q21 18 76 71q20 21 52.5 59t76.5 91.5t66 79.5q43 50 82 53t97 -44q65 -53 206 -205q178 -191 243 -268l-83 -90q-70 89 -220 264q-134 153 -191 201q-28 24 -45 23t-40 -30q-27 -33 -93.5 -120t-73.5 -95q-40 -55 -60 -84zM629 655l70 30q58 -87 94 -159l-72 -32 q-44 94 -92 161zM760 705l70 32q60 -83 97 -156l-71 -34q-42 85 -96 158z" />
<glyph unicode="&#x1e7;" d="M46 272q21 18 76 71q20 21 52.5 59t76.5 91.5t66 79.5q43 50 82 53t97 -44q65 -53 206 -205q178 -191 243 -268l-83 -90q-70 89 -220 264q-134 153 -191 201q-28 24 -45 23t-40 -30q-27 -33 -93.5 -120t-73.5 -95q-40 -55 -60 -84zM656 605q0 52 36.5 89t88.5 37 q53 0 89.5 -36.5t36.5 -89.5q0 -52 -36.5 -88t-89.5 -36q-52 0 -88.5 36t-36.5 88zM712 605q0 -29 20 -49t49 -20t49 20t20 49t-20 49t-49 20t-49 -20t-20 -49z" />
<glyph unicode="&#x1e8;" d="M69 158q49 47 104 123t85 138l89 -43q-32 -62 -90 -145t-102 -131zM106 522v105q44 -6 90 -6h268v93q0 46 -8 78h118q-8 -37 -8 -79v-92h251q46 0 89 5v-103q-29 2 -88 2h-252v-476q0 -85 -94 -85q-88 0 -151 7l-9 99q64 -12 114 -12q37 0 37 38q1 47 1 425v4h-267 q-49 0 -91 -3zM684 373l86 47q82 -100 172 -263l-93 -51q-85 169 -165 267z" />
<glyph unicode="&#x1e9;" d="M52 146q49 46 104 121.5t85 138.5l89 -43q-32 -63 -90 -146t-102 -130zM90 509v105q56 -6 89 -6h268v93q0 46 -8 78h118q-8 -37 -8 -79v-92h251q50 0 89 6v-104q-29 2 -88 2h-252v-476q0 -85 -93 -85q-89 0 -152 7l-9 99q59 -11 114 -11q37 0 38 37v429h-267 q-50 0 -90 -3zM667 360l86 47q80 -97 172 -262l-92 -52q-33 65 -81 144t-85 123zM693 771l65 27q39 -57 78 -132l-66 -29q-40 82 -77 134zM817 800l64 27q49 -69 80 -132l-65 -28q-40 80 -79 133z" />
<glyph unicode="&#x1ea;" d="M52 146q49 46 104 121.5t85 138.5l89 -43q-32 -63 -90 -146t-102 -130zM90 509v105q56 -6 89 -6h268v93q0 46 -8 78h118q-8 -37 -8 -79v-92h251q50 0 89 6v-104q-29 2 -88 2h-252v-476q0 -85 -93 -85q-89 0 -152 7l-9 99q59 -11 114 -11q37 0 38 37v429h-267 q-50 0 -90 -3zM667 360l86 47q80 -97 172 -262l-92 -52q-33 65 -81 144t-85 123zM711 744q0 46 32.5 79t79.5 33t80 -33t33 -79t-33 -79t-80 -33t-79.5 33t-32.5 79zM764 744q0 -25 17 -42.5t42 -17.5t42.5 17.5t17.5 42.5t-17.5 42.5t-42.5 17.5t-42 -17.5t-17 -42.5z" />
<glyph unicode="&#x1eb;" d="M97 584v112q54 -8 108 -8h578q51 0 77 9l79 -65q-19 -20 -29 -35q-61 -99 -153.5 -207.5t-199.5 -192.5q99 -99 164 -177l-92 -74q-60 81 -185 210q-48 47 -116.5 106.5t-108.5 87.5l82 67q82 -61 180 -148q92 70 168 159t118 162h-562q-45 0 -108 -6z" />
<glyph unicode="&#x1ec;" d="M148 115l40 98q133 -21 319 -66t285 -83l-44 -98q-93 40 -279 84.5t-321 64.5zM204 407l37 95q119 -20 272 -55t240 -66l-39 -97q-83 32 -239 69t-271 54zM249 675l37 93q105 -13 274.5 -49.5t259.5 -67.5l-41 -98q-86 32 -253.5 70t-276.5 52z" />
<glyph unicode="&#x1ed;" d="M69 124q70 0 100 2q6 1 20 1.5t21 0.5q39 99 97 277.5t82 265.5q15 50 22 104l125 -26q-27 -66 -38 -101q-111 -352 -171 -510q209 18 412 45q-66 132 -114 195l97 42q53 -79 120.5 -205t99.5 -206l-106 -48q-22 60 -52 125q-360 -43 -609 -66q-14 -2 -46 -6.5t-42 -5.5z " />
<glyph unicode="&#x1ee;" d="M105 41q229 109 390 306q-149 118 -275 196l67 80q141 -90 273 -189q75 112 124 256q15 45 22 82l120 -42q-13 -22 -37 -80q-58 -157 -143 -284q147 -122 243 -225l-81 -89q-98 113 -229 225q-163 -198 -383 -317z" />
<glyph unicode="&#x1ef;" d="M111 331v105q47 -5 101 -5h181v193h-123q-51 0 -93 -3v100q56 -4 93 -4h478q55 0 86 4v-100q-75 3 -86 3h-249v-193h322q41 0 89 4l1 -102q-26 2 -88 2h-324v-179q0 -40 29 -59t93 -19q144 0 260 14l-6 -107q-117 -8 -271 -8q-117 0 -164 37t-47 110v211h-181 q-43 0 -101 -4z" />
<glyph unicode="&#x1f0;" d="M143 395q30 2 87 11q9 1 110 20q-11 42 -29 106q-10 35 -26 64l107 26q3 -17 15 -69l30 -109q300 58 328 64q29 6 43 14l64 -45q-32 -65 -97 -156.5t-117 -144.5l-87 44q42 38 90 95.5t71 99.5q-8 -2 -50 -10t-104.5 -21t-117.5 -24q86 -313 100 -355q10 -36 24 -74 l-108 -27q-6 45 -16 79q-22 77 -96 357q-85 -17 -197 -41z" />
<glyph unicode="&#x1f1;" d="M57 532q77 8 106 13q8 1 25 4.5t50.5 9.5t58.5 10q-26 93 -36 127q-15 54 -30 81l115 26q7 -37 18 -82q17 -59 37 -132q329 62 403 79q27 5 51 15l71 -51q-34 -73 -111.5 -180.5t-140.5 -173.5l-102 48q55 44 114 116.5t89 123.5q-7 -1 -63 -12.5t-135.5 -27 t-149.5 -29.5q117 -421 122 -437q7 -25 28 -85l-117 -28q-8 50 -20 90q-3 10 -118 438q-172 -35 -237 -50z" />
<glyph unicode="&#x1f2;" d="M145 -2v103q43 -5 90 -5h346q39 236 43 313h-297q-8 0 -89 -3v104q42 -5 88 -5h284q44 0 60 8l76 -37q-3 -11 -8 -36q-9 -70 -50 -344h84q41 0 87 4v-102q-38 2 -85 2h-539q-22 0 -90 -2z" />
<glyph unicode="&#x1f3;" d="M76 48v115q42 -7 93 -7h434q56 319 60 419h-373q-37 0 -103 -4v111q72 -7 102 -7h346q49 0 75 11l84 -41q-6 -13 -9 -38q-19 -145 -69 -451h124q43 0 87 7v-115q-45 5 -87 5h-671q-40 0 -93 -5z" />
<glyph unicode="&#x1f4;" d="M207 -26v98q34 -4 84 -4h392v158h-342q-77 0 -99 -2v95q69 -3 98 -3h343v147h-353q-71 0 -111 -4v97q29 -4 111 -4h383q13 0 37.5 0.5t30.5 0.5q-1 -12 -1 -58v-499q0 -28 2 -60h-100q1 9 1 40h-392q-17 0 -47 -1t-37 -1z" />
<glyph unicode="&#x1f5;" d="M149 16v106q40 -4 101 -4h482v206h-419q-24 0 -66.5 -0.5t-53.5 -0.5v101q73 -5 119 -5h420v193h-433q-84 0 -136 -4v104q67 -5 136 -5h463q50 0 77 3q-1 -15 -1 -69v-605q0 -11 0.5 -34t0.5 -32h-108q0 31 1 50h-482q-59 0 -101 -4z" />
<glyph unicode="&#x1f6;" d="M137 417v104q68 -7 106 -7h512q41 0 64 9l70 -44q-14 -32 -15 -34q-52 -176 -147 -281q-136 -151 -358 -213l-78 90q220 46 350 180q79 81 111 200h-509q-55 0 -106 -4zM228 651v103q45 -5 95 -5h390q56 0 98 5v-103q-38 3 -99 3h-389q-53 0 -95 -3z" />
<glyph unicode="&#x1f7;" d="M209 268q0 5 1.5 20.5t2.5 31.5t1 29v335q0 32 -4 74h116q-4 -42 -4 -74v-335q0 -41 4 -81h-117zM352 39q162 41 242 131q51 57 67 126t16 206v172q0 40 -6 92h117q-4 -52 -4 -92v-178q0 -163 -25.5 -247t-84.5 -151q-78 -91 -239 -146z" />
<glyph unicode="&#x1f8;" d="M55 31q123 87 172 243q29 89 29 399q0 50 -8 81h116q-5 -40 -5 -80q0 -312 -31 -427q-46 -168 -178 -280zM515 22q7 30 7 63v592q0 18 -1.5 36.5t-3 30t-1.5 13.5h116q-5 -30 -5 -80v-553q70 32 145.5 93.5t126.5 136.5l60 -86q-61 -81 -154.5 -155.5t-185.5 -120.5 q-10 -5 -38 -25z" />
<glyph unicode="&#x1f9;" d="M210 35q11 22 11 56v559q0 60 -9 101h124q-9 -56 -9 -100v-547q142 38 292 130t241 206l57 -88q-195 -239 -583 -359q-28 -7 -50 -21z" />
<glyph unicode="&#x1fa;" d="M137 -11q0 1 1 53t1 76v491q0 60 -1 87q39 -2 96 -2h543q59 0 92 1q-2 -27 -2 -86v-491q0 -21 1 -74.5t1 -54.5h-109q0 2 0.5 9.5t1 22t0.5 24.5h-518q0 -51 1 -56h-108zM243 144h519v450h-519v-450z" />
<glyph unicode="&#x1fb;" d="M181 247q3 33 3 63v172q0 34 -3 63q24 -2 95 -2h429q43 0 64 6l71 -45q-9 -14 -16 -48q-38 -230 -113 -328q-112 -147 -307 -218l-82 84q187 49 293 180q79 100 98 277h-427v-141q0 -40 2 -63h-107z" />
<glyph unicode="&#x1fc;" d="M123 355q4 54 4 72v213q0 26 -4 74q42 -3 113 -3h498q51 0 77 6l76 -49q-9 -21 -15 -55q-13 -81 -21.5 -126t-33.5 -119t-59 -128q-61 -96 -159.5 -169.5t-219.5 -113.5l-87 88q112 29 212 93.5t158 154.5q75 120 93 320h-520v-186q0 -44 3 -72h-115z" />
<glyph unicode="&#x1fd;" d="M86 162v106q37 -6 93 -6h111v270h-75q-50 0 -93 -4v103q47 -6 93 -6h393v79q0 35 -4 74h109q-3 -37 -3 -74v-79h100q35 0 87 6v-103q-27 4 -87 4h-100v-270h124q37 0 87 6v-106q-27 4 -87 4h-124v-113q0 -43 3 -95h-109q4 52 4 93v115h-429q-49 0 -93 -4zM389 262h219 v270h-219v-270z" />
<glyph unicode="&#x1fe;" d="M79 24v116q45 -7 96 -7h255v294q0 62 -4 95h117q-6 -51 -6 -95v-294h304q28 0 89 7v-116q-35 5 -89 5h-666q-41 0 -96 -5zM134 592v108q55 -5 105 -5h543q40 0 68 9l66 -46q-18 -26 -25 -38q-32 -62 -91 -138t-116 -125l-87 58q102 76 166 182h-517z" />
<glyph unicode="&#x1ff;" d="M155 620v109q64 -8 108 -8h474q49 0 74 7l79 -50q-9 -20 -14 -40q-51 -267 -119 -373q-70 -110 -171 -186.5t-251 -128.5l-82 88q129 30 234 97.5t170 163.5q20 31 36 67h-416q-52 0 -96 -4v101q56 -4 93 -4h452q24 83 34 165h-497q-58 0 -108 -4z" />
<glyph unicode="&#x200;" d="M130 76q218 33 393 140q116 71 207.5 173t139.5 204l61 -109q-57 -101 -147.5 -197t-203.5 -165q-184 -113 -383 -149zM160 667l73 78q55 -36 135 -101.5t121 -107.5l-79 -81q-42 43 -119.5 109.5t-130.5 102.5z" />
<glyph unicode="&#x201;" d="M103 304q4 40 4 72v175q0 50 -4 81q52 -5 97 -5h218v86q0 40 -7 83h121q-6 -56 -6 -83v-86h202q50 0 75 10l68 -43q-10 -27 -16 -68q-31 -179 -96 -293q-57 -104 -161 -179t-240 -112l-82 95q56 9 120 32q72 25 140.5 75t111.5 114q71 107 92 276h-532v-165q0 -42 4 -65 h-109zM687 794l65 27q44 -64 80 -137l-65 -28q-43 86 -80 138zM808 828l64 27q41 -56 83 -136l-65 -29q-45 87 -82 138z" />
<glyph unicode="&#x202;" d="M154 1q51 25 93 63q126 111 156 319h-131q-66 0 -98 -3v98q46 -6 98 -6h139q2 50 2 79q0 39 -5 69h105q-1 -9 -4 -66q-2 -54 -4 -82h184q28 0 55 5l62 -31q-5 -22 -5 -41q-8 -308 -52 -406q-27 -55 -102 -55q-22 0 -139 6l-10 97q70 -12 122 -12q35 0 48 27q18 38 28 137 t10 184h-210q-21 -160 -81.5 -265.5t-175.5 -185.5z" />
<glyph unicode="&#x203;" d="M113 253q83 62 151 173q38 61 55 128q10 33 13 65l110 -24q-15 -39 -20 -55q-16 -43 -32 -77h385q58 0 83 4v-97q-28 3 -83 3h-135q-13 -165 -76 -278t-180 -183l-98 65q43 18 83 49q154 125 172 347h-196q-29 -47 -69 -96.5t-71 -76.5z" />
<glyph unicode="&#x204;" d="M384 380q0 48 34 82t82 34t82 -34t34 -82t-34 -82t-82 -34t-82 34t-34 82z" />
<glyph unicode="&#x205;" d="M98 323v123q64 -6 148 -6h543q40 0 112 6v-123q-88 4 -111 4h-544q-82 0 -148 -4z" />
<glyph unicode="&#x206;" d="M278 522l91 70q88 -76 206.5 -204t183.5 -218l-96 -75q-65 99 -177 223.5t-208 203.5z" />
<glyph unicode="&#x207;" d="M253 517l91 70q88 -76 206.5 -204t183.5 -218l-96 -76q-65 99 -176.5 223.5t-208.5 204.5zM520 659l68 28q42 -58 92 -151l-71 -30q-54 103 -89 153zM651 701l70 29q46 -65 92 -151l-70 -30q-58 109 -92 152z" />
<glyph unicode="&#x208;" d="M47 339v102h910v-102h-910z" />
<glyph unicode="&#x209;" d="M62 658v96h876v-96h-354v-596q0 -51 -15 -77t-51 -37q-51 -19 -236 -19q-13 57 -45 108q127 -6 204 -3q19 1 26.5 7t7.5 22v595h-413z" />
<glyph unicode="&#x20a;" d="M51 452l283 44v324h101v-308l504 79l15 -95l-519 -81v-292q0 -48 14.5 -62t65.5 -14h231q48 0 63.5 35.5t23.5 156.5q39 -29 94 -44q-11 -139 -45.5 -190t-130.5 -51h-241q-102 0 -139 35.5t-37 134.5v276l-269 -41z" />
<glyph unicode="&#x20b;" d="M33 -5q44 23 80 53.5t63 61t48 71.5t35.5 74.5t25 82t16 82.5t10 87t5.5 84t3 85h-253v91h869v-91h-520q-4 -124 -10 -185h444q0 -30 -1 -43q-13 -238 -28.5 -341.5t-44.5 -135.5q-30 -35 -94 -41q-56 -6 -174 1q-4 47 -32 91q71 -6 169 -6q32 -1 47 12q22 19 34.5 104 t22.5 269h-355q-24 -161 -91.5 -282.5t-201.5 -198.5q-19 37 -67 75z" />
<glyph unicode="&#x20c;" d="M66 10q211 45 318 128q-126 129 -193 361l89 22q53 -199 172 -317q51 64 73 150t28 207h-487v91h490q1 54 1 172h101q0 -117 -2 -172h280v-91h-283q-7 -140 -35 -241t-89 -177q153 -103 420 -133q-31 -32 -56 -89q-275 37 -434 152q-117 -96 -340 -144q-17 45 -53 81z " />
<glyph unicode="&#x20d;" d="M69 -12v94h860v-94h-860zM126 649v95h750v-95h-750zM191 328v95h607v-95h-607z" />
<glyph unicode="&#x20e;" d="M53 -31v94h365v762h100v-297h361v-93h-361v-372h430v-94h-895z" />
<glyph unicode="&#x20f;" d="M59 672v95h883v-95h-413v-169l17 20q91 -44 192 -102.5t156 -101.5l-68 -85q-94 79 -297 192v-503h-99v749h-371z" />
<glyph unicode="&#x210;" d="M44 260q139 68 257.5 179t192.5 237h-422v95h856v-95h-312q-47 -76 -66 -103v-651h-101v525q-154 -171 -341 -270q-29 48 -64 83zM554 464l70 60q95 -64 190.5 -137.5t146.5 -127.5l-78 -72q-99 113 -329 277z" />
<glyph unicode="&#x211;" d="M56 181v90h616q11 106 13 128h-384l-12 -48l-97 9q58 210 101 481l97 -10q-12 -69 -24 -126h474v-89h-491q-6 -27 -16.5 -76.5t-11.5 -54.5h466q-2 -29 -4 -43q-12 -127 -17 -171h180v-90h-192q-27 -174 -70 -217q-33 -35 -96 -41q-62 -5 -173 3q-4 51 -34 92 q73 -7 172 -7q36 0 51 13q33 28 54 157h-602z" />
<glyph unicode="&#x212;" d="M53 341v91h253q12 100 28 255h-195v91h647q-6 -161 -17 -346h179v-91h-185q-11 -181 -24 -300h198v-90h-873v90h183q21 113 47 300h-241zM344 41h297q15 128 26 300h-280q-22 -173 -43 -300zM399 432h275q10 170 13 255h-258q-18 -161 -30 -255z" />
<glyph unicode="&#x213;" d="M57 -36v90h153v729h595v-729h140v-90h-888zM302 54h407v156h-407v-156zM302 300h407v156h-407v-156zM302 542h407v152h-407v-152z" />
<glyph unicode="&#x214;" d="M48 506v89h146v216h95v-216h164v237h93v-237h164v226h94v-226h151v-89h-151v-315h-94v42h-164v-46h-93v319h-164v-425h631v-91h-631v-69h-95v585h-146zM546 320h164v186h-164v-186z" />
<glyph unicode="&#x215;" d="M51 -39v91h154v694l86 -19q303 43 464 100l71 -79q-193 -62 -525 -104v-153h597v-91h-187v-348h240v-91h-900zM301 52h315v348h-315v-348z" />
<glyph unicode="&#x216;" d="M70 684v92h858v-92h-382v-136h353v-511q0 -41 -11.5 -63.5t-39.5 -32.5q-39 -16 -187 -16q-7 44 -32 93q43 -2 152 -2q14 1 19.5 5.5t5.5 16.5v423h-264q-5 -40 -14 -70q169 -118 255 -209l-64 -73q-59 70 -222 198q-65 -133 -223 -217q-26 39 -69 71q210 101 236 300 h-244v-539h-93v626h342v136h-376z" />
<glyph unicode="&#x217;" d="M35 197q83 46 149.5 123t103.5 174h-220v82h258l16 3l58 -26q-38 -144 -115.5 -252.5t-178.5 -170.5q-30 41 -71 67zM77 -41v84h845v-84h-845zM185 718v81h533l20 5l62 -47q-96 -101 -206 -176q25 -58 66 -118q108 78 184 159l82 -59q-108 -92 -218 -162 q113 -133 259 -190q-43 -39 -65 -80q-111 53 -201.5 147.5t-152.5 218.5v-310q0 -38 -10.5 -57.5t-36.5 -29.5q-39 -14 -177 -14q-6 38 -29 84q30 -1 137 -1q14 1 18.5 5t4.5 15v432h65q63 46 116 97h-451z" />
<glyph unicode="&#x218;" d="M59 680v90h884v-90h-404v-115h359v-544q0 -37 -10 -56.5t-35 -29.5q-35 -15 -165 -15q-10 46 -31 83q38 -2 79 -2.5t49 0.5q22 1 22 21v455h-268v-280h101v211h82v-346h-82v53h-288v-71h-78v364h78v-211h96v280h-254v-557h-90v645h344v115h-389z" />
<glyph unicode="&#x219;" d="M57 -38v95h289v502h-265v92h215q-28 75 -85 155l83 31q68 -87 95 -165l-49 -21h289l-20 7q59 85 97 182l103 -29q-56 -99 -100 -160h212v-92h-270v-502h294v-95h-888zM124 451l83 22q34 -71 60 -157.5t35 -151.5l-90 -24q-6 64 -30.5 151t-57.5 160zM439 57h119v502h-119 v-502zM685 164q66 149 102 317l100 -23q-64 -202 -118 -318z" />
<glyph unicode="&#x21a;" d="M97 181v483h352v174h97v-174h357v-478h-97v54h-260v-318h-97v318h-259v-59h-93zM190 331h259v242h-259v-242zM546 331h260v242h-260v-242z" />
<glyph unicode="&#x21b;" d="M103 40v333h344v73h-304v280h304v113h100v-113h312v-280h-312v-73h355v-332h-100v39h-255v-159h-100v159h-247v-40h-97zM200 163h247v124h-247v-124zM238 527h209v118h-209v-118zM547 163h255v124h-255v-124zM547 527h211v118h-211v-118z" />
<glyph unicode="&#x21c;" d="M32 -7q191 91 268 277q-89 63 -175 112l64 66q75 -43 142 -85q20 79 28 174h-272v91h277q3 69 3 208h99q0 -116 -4 -208h297v-555q0 -30 5 -37.5t23 -7.5h72q19 0 25.5 33.5t8.5 145.5q33 -27 87 -42q-6 -133 -28.5 -181t-83.5 -48h-98q-61 0 -84 29t-23 109v463h-206 q-12 -133 -41 -232q104 -72 162 -130l-70 -76q-46 49 -127 111q-87 -192 -281 -290q-29 48 -68 73z" />
<glyph unicode="&#x21d;" d="M36 -15q131 116 153 336h-133v89h139v42v340h621v-382h130v-89h-130v-285q0 -43 -12.5 -66t-41.5 -34q-43 -16 -206 -16q-9 47 -34 91q97 -5 171 -2q17 1 23 6.5t6 20.5v285h-440q-25 -269 -177 -401q-12 15 -33.5 36t-35.5 29zM287 410h435v295h-434v-253q0 -28 -1 -42z M373 613l65 52q125 -93 187 -165l-70 -60q-56 71 -182 173z" />
<glyph unicode="&#x21e;" d="M59 45h390v221h-297v90h297v199h-345v91h420q-68 73 -161 139l76 53q50 -34 103.5 -78.5t83.5 -78.5l-49 -35h318v-91h-344v-199h300v-90h-300v-221h394v-91h-886v91z" />
<glyph unicode="&#x21f;" d="M36 -4q80 67 132 151t74 174.5t29 157t7 147.5v59h-189v91h624q-14 -136 -28 -257h250q-2 -33 -3 -46q-13 -246 -30.5 -355.5t-48.5 -143.5q-33 -37 -98 -43q-45 -5 -177 1q-6 55 -35 96q75 -7 176 -7q33 -2 48 12q23 21 38 112.5t26 282.5h-158q-10 -68 -11 -72l-97 9 q21 128 40 320h-231v-59q0 -70 -4 -129t-20 -142.5t-43 -153.5t-78.5 -146t-121.5 -136q-36 53 -71 77z" />
<glyph unicode="&#x220;" d="M34 370q98 77 174.5 200t120.5 269l101 -24q-26 -77 -50 -132h231l18 5l67 -31q-37 -146 -94 -259q53 -133 148.5 -237.5t216.5 -154.5q-38 -32 -68 -83q-224 109 -352 375q-163 -259 -430 -379q-10 18 -32.5 43.5t-39.5 39.5q187 77 325 225.5t202 361.5h-237 q-96 -180 -218 -288q-12 14 -38 35.5t-45 33.5z" />
<glyph unicode="&#x221;" d="M32 -22q52 63 103.5 158t79.5 178l93 -36q-9 -21 -29 -66q21 -44 51 -76q116 79 232 194.5t193 226.5h-655v91h350v190h96v-190h272l20 6l70 -45q-84 -139 -221 -284t-279 -245q100 -50 298 -50q86 -2 256 1q-26 -38 -34 -93h-228q-172 0 -283.5 38.5t-182.5 141.5 q-57 -114 -111 -195z" />
<glyph unicode="&#x222;" d="M41 430q78 71 146.5 181t111.5 230l97 -26q-33 -84 -63 -141h608v-91h-454v-131h395v-89h-395v-134h413v-91h-413v-217h-97v662h-107q-72 -124 -156 -213q-36 32 -86 60z" />
<glyph unicode="&#x223;" d="M56 279v95h404v311q-141 -12 -321 -17q-1 34 -22 84q464 17 699 75l47 -84q-130 -31 -303 -49v-320h387v-95h-387v-238q0 -46 -13.5 -69.5t-45.5 -34.5q-48 -17 -213 -17q-11 49 -40 96q79 -3 181 -3q31 1 31 28v238h-404zM159 614l81 29q70 -118 94 -209l-86 -34 q-20 88 -89 214zM669 434q61 106 101 228l100 -33q-78 -153 -124 -226z" />
<glyph unicode="&#x224;" d="M43 -15q45 48 91 123t74 142l86 -31q-3 -7 -10.5 -22l-11.5 -23q18 -33 42 -57q110 57 218.5 143.5t182.5 172.5h-591v89h326v165q-163 -13 -330 -18q-5 42 -24 83q489 17 721 74l71 -77q-139 -33 -343 -54v-173h242l19 5l68 -45q-80 -114 -209.5 -227t-267.5 -192 q88 -37 278 -39q235 0 291 2q-23 -38 -33 -90h-262q-169 0 -273 32.5t-171 121.5q-57 -99 -101 -158z" />
<glyph unicode="&#x225;" d="M42 18q94 27 187 75t157 104h-285v80h135v95h-175v81h175v92h-121v80h335v74q-175 -13 -313 -16q-3 39 -21 80q447 13 685 66l63 -76q-125 -28 -320 -46v-82h348v-80h-130v-92h179v-81h-179v-95h145v-80h-295q64 -57 157.5 -104t189.5 -72q-37 -34 -67 -86 q-94 31 -186 86t-162 123v-222h-94v222q-145 -137 -344 -205q-30 49 -64 79zM328 277h122v95h-122v-95zM328 453h122v92h-122v-92zM544 277h127v95h-127v-95zM544 453h127v92h-127v-92z" />
<glyph unicode="&#x226;" d="M91 118q0 35 12.5 65t59 88.5t152.5 154.5t280 239h-495v96h630l22 5l67 -47q-10 -10 -18 -14q-167 -132 -283.5 -230t-179.5 -155.5t-97 -98.5t-41.5 -58.5t-7.5 -36.5q0 -67 123 -67h435q53 0 72 39.5t24 167.5q41 -24 95 -35q-11 -160 -53.5 -214t-147.5 -54h-415 q-117 0 -175.5 40.5t-58.5 114.5z" />
<glyph unicode="&#x227;" d="M34 -4q78 39 134 91.5t89 118.5t50.5 134.5t25.5 155.5h-251v94h257q3 76 3 237h101q-2 -186 -5 -237h297v-519q0 -29 5.5 -36.5t27.5 -7.5h86q19 0 25.5 27t8.5 120q36 -28 88 -42q-7 -113 -30.5 -155t-82.5 -42h-111q-65 0 -89.5 29t-24.5 108v424h-206 q-9 -99 -28.5 -177.5t-56 -154.5t-98 -137t-147.5 -106q-29 47 -68 75z" />
<glyph unicode="&#x228;" d="M39 508q75 57 141.5 145.5t107.5 185.5l97 -30q-19 -43 -49 -95h592v-92h-650q-78 -112 -157 -183q-31 33 -82 69zM151 69q0 22 4.5 38t25 44.5t59.5 61.5t112.5 83.5t178.5 115.5h-322v89h487l21 3l67 -48q-11 -11 -19 -15q-140 -80 -238.5 -140t-152 -96t-82 -62 t-35.5 -39t-7 -26q0 -42 93 -42l430 -1q42 0 57.5 26t19.5 112q35 -22 90 -33q-10 -120 -46.5 -158.5t-129.5 -38.5h-412q-100 0 -150.5 33t-50.5 93z" />
<glyph unicode="&#x229;" d="M33 439l176 55v276h91v-249l184 58v258h92v-230l208 64l10 8l18 14l67 -30l-5 -17q-5 -292 -31 -363q-23 -67 -81 -80q-48 -9 -119 -7q-4 46 -24 86q32 -3 93 -3q18 0 29.5 9t19.5 35q18 54 21 258l-206 -65v-378h-92v350l-184 -58v-319q0 -54 21.5 -70t93.5 -16h329 q67 0 88 31t32 137q34 -24 87 -36q-13 -126 -53 -171t-150 -45h-332q-121 0 -164 35t-43 137v288l-151 -47z" />
<glyph unicode="&#x22a;" d="M40 479v84h221v136q-54 -8 -180 -21q-8 40 -26 74q279 30 420 80l70 -72q-67 -23 -194 -46v-151h211v-84h-211v-150h175v-379h-91v30h-259v-38h-87v387h172v150h-221zM176 62h259v184h-259v-184zM602 79v746h92v-747q0 -38 6.5 -48.5t31.5 -10.5h101q24 0 32 35.5 t12 149.5q37 -30 83 -41q-7 -132 -30.5 -181t-88.5 -49h-122q-69 0 -93 30t-24 116z" />
<glyph unicode="&#x22b;" d="M38 253q136 9 210 15v81h30q39 30 80 73h-276v82h336l-55 22q55 81 95 182l86 -33q-71 -124 -106 -171l20 6l58 -49q-77 -81 -176 -153v-33l202 16v-85q-196 -18 -202 -18v-169q0 -36 -9 -55t-32 -29q-32 -14 -146 -14q-5 33 -29 85q77 -3 106 -1q11 1 14.5 4t3.5 12v159 q-80 -8 -201 -18zM40 771q283 21 433 65l55 -77q-159 -46 -463 -64q-5 35 -25 76zM55 659l72 18q36 -74 48 -139l-76 -21q-9 69 -44 142zM225 685l75 12q24 -76 27 -143l-79 -13q-1 56 -23 144zM579 83v736h96v-738q0 -39 7.5 -50t35.5 -11h111q28 0 36 36t12 156 q39 -31 88 -42q-8 -136 -33.5 -187t-94.5 -51h-133q-73 0 -99 31.5t-26 119.5z" />
<glyph unicode="&#x22c;" d="M43 91v84h187v72h-147v338h147v73h-175v82h175v99h91v-99h172v-82h-172v-73h154v-43q90 110 133 297l92 -19q-17 -68 -39 -128h294v-85h-330q-41 -85 -93 -146q-19 20 -57 51v-265h-154v-72h181v-84h-181v-169h-91v169h-187zM167 316h222v68h-222v-68zM167 449h222v68 h-222v-68zM522 38q0 29 9.5 56t59 103.5t146.5 197.5h-187v83h269l22 2l61 -24l-4.5 -9t-5.5 -10q-121 -144 -184.5 -227.5t-77 -110.5t-13.5 -47q0 -29 51 -29h175q24 0 32.5 25t10.5 114q42 -24 80 -31q-4 -83 -18.5 -126t-38.5 -57.5t-68 -14.5h-173q-146 0 -146 105z " />
<glyph unicode="&#x22d;" d="M49 622q173 84 258 220l99 -19q-3 -4 -29 -41h204l14 4l61 -39q-22 -39 -58 -85h230v-278h-288v-41h339v-241q31 -20 79 -32q-8 -84 -35.5 -114t-104.5 -30h-216q-89 0 -121 25.5t-33 97.5h-233v-54h-89v348h322v41h-279v206q-30 -19 -54 -32q-29 41 -66 64zM215 111h233 v58h-233v-58zM215 225h233v57h-233v-57zM257 441h191v56h-191v-56zM257 550h191v56h-191v-56zM265 662h230q25 31 39 53h-214q-30 -32 -55 -53zM540 49q1 -34 14 -44.5t56 -10.5h203q28 0 40.5 11.5t18.5 43.5h-332zM540 111h249v58h-249v-58zM540 225h249v57h-249v-57z M540 441h196v56h-196v-56zM540 550h196v56h-196v-56z" />
<glyph unicode="&#x22e;" d="M104 673v93h695l21 5l74 -53q-69 -82 -161.5 -163t-180.5 -133v-387q0 -43 -13 -65.5t-45 -33.5q-45 -15 -209 -15q-10 44 -38 95q54 -2 110.5 -2.5t68.5 0.5q16 0 22 4.5t6 17.5v466h59q109 72 203 171h-612z" />
<glyph unicode="&#x22f;" d="M56 377v89h489q-146 68 -258 113l48 70q152 -61 169 -68q86 50 162 118h-516v86h607l20 5l68 -52q-104 -104 -247 -196q76 -34 98 -45l-19 -31h184l17 6l76 -33q-89 -163 -170 -250l-78 47q50 59 98 141h-249v-348q0 -40 -12 -60.5t-41 -30.5q-43 -15 -187 -15 q-9 41 -35 90q43 -2 154 -2q14 1 19 5t5 15v346h-402z" />
<glyph unicode="&#x230;" d="M44 324v85h403v92h-260v45q-40 -30 -62 -44q-35 44 -70 65q93 54 163 126.5t111 146.5l101 -19q-26 -42 -41 -63h233l15 4l67 -46q-44 -66 -110 -133h258v-174h108v-85h-108v-231h-95v48h-216v-113q0 -40 -11.5 -61t-39.5 -32q-44 -15 -182 -15q-7 37 -34 90 q64 -3 148 -3q15 2 20 6.5t5 16.5v111h-299v85h299v98h-403zM231 583h249q40 38 79 93h-235q-42 -48 -93 -93zM541 226h216v98h-216v-98zM541 409h216v92h-216v-92z" />
<glyph unicode="&#x231;" d="M49 201v73h400v57h-303v66h303v59h-277v184h277v51h-379v75h379v73h94v-73h390v-75h-390v-51h291v-184h-291v-59h307v-123h104v-73h-104v-175h-94v43h-213v-52q0 -38 -10.5 -56.5t-36.5 -28.5q-37 -13 -170 -13q-10 41 -32 75q93 -3 131 -1q14 1 19 5.5t5 17.5v53h-312 v70h312v62h-400zM261 518h188v60h-188v-60zM543 139h213v62h-213v-62zM543 274h213v57h-213v-57zM543 518h197v60h-197v-60z" />
<glyph unicode="&#x232;" d="M61 12v106h880v-106h-880zM144 599v101h714v-101h-714z" />
<glyph unicode="&#x233;" d="M58 380v96h886v-96h-473q-70 -172 -140 -305q228 7 421 15q-61 89 -130 167l90 43q69 -75 134.5 -166.5t99.5 -160.5l-94 -53q-16 36 -44 83q-362 -19 -727 -33l-8 98l152 4q72 140 124 308h-291zM167 673v95h674v-95h-674z" />
<glyph unicode="&#x234;" d="M54 -36v87h554q14 88 23 152h-332l-13 -50l-101 9q71 248 118 531h-217v87h834v-87h-517q-20 -105 -25 -130h394q-33 -316 -64 -512h241v-87h-895zM318 286h324q15 121 22 192h-304q-28 -132 -42 -192z" />
<glyph unicode="&#x235;" d="M60 -27v92h219q29 118 64 299h-186v91h204q24 136 34 199h-274v91h754v-91h-376q-9 -54 -37 -199h320v-390h161v-92h-883zM382 65h304v299h-241q-36 -177 -63 -299z" />
<glyph unicode="&#x236;" d="M60 238v94h215q5 49 5 122v94h-189v93h189v194h98v-194h251v196h98v-196h189v-93h-189v-216h214v-94h-214v-317h-98v317h-267q-39 -212 -208 -326q-41 45 -83 68q148 96 188 258h-199zM374 332h255v216h-251v-94q0 -69 -4 -122z" />
<glyph unicode="&#x237;" d="M57 -43v87h888v-87h-888zM87 693v86h833v-86h-833zM207 133v477h596v-477h-596zM299 217h408v116h-408v-116zM299 412h408v114h-408v-114z" />
<glyph unicode="&#x238;" d="M54 -35v85h566q35 205 59 451h-311q-54 -244 -87 -364l-102 5q71 246 128 550h-224v86h837v-86h-513q-19 -97 -22 -109h399q-31 -314 -68 -533h231v-85h-893zM344 224l56 64q124 -55 195 -119l-59 -73q-62 62 -192 128zM393 401l53 62q113 -51 176 -104l-56 -69 q-27 25 -76.5 57t-96.5 54z" />
<glyph unicode="&#x239;" d="M42 389l62 5v339h86v-330l75 8v428h92v-162h140v-83h-140v-172l148 17l2 -86q-234 -30 -454 -56zM57 36h887v-92h-887v92zM169 160v89h672v-89h-672zM544 457v382h93v-186q127 42 204 90l72 -74q-103 -49 -276 -101v-111q0 -27 8.5 -34.5t39.5 -7.5h136q27 0 35 22.5 t12 102.5q38 -27 85 -36q-9 -104 -34.5 -140.5t-90.5 -36.5h-154q-77 0 -103.5 27t-26.5 103z" />
<glyph unicode="&#x23a;" d="M49 -41v85h286v162h-127v-31h-88v396h215v125h-258v85h847v-85h-275v-125h226v-394h-93v29h-133v-162h303v-85h-903zM208 289h127v198h-127v-198zM426 44h133v162h-133v-162zM426 289h133v198h-133v-198zM426 571h133v125h-133v-125zM649 289h133v198h-133v-198z" />
<glyph unicode="&#x23b;" d="M52 553v94h398v192h95v-192h404v-94h-686v-416q0 -50 23 -70t83 -20h377q96 0 158 10q9 -77 12 -93q-35 -10 -172 -10h-365q-114 0 -163 41t-49 146v412h-115z" />
<glyph unicode="&#x23c;" d="M41 6q243 50 389 157q-90 98 -147 239l89 27q47 -119 130 -203q86 87 130 208l99 -28q-56 -140 -157 -244q151 -113 389 -152q-30 -31 -62 -89q-247 48 -401 176q-152 -118 -400 -179q-21 44 -59 88zM54 395q74 38 144 94.5t113 115.5l96 -36q-52 -69 -127 -135.5 t-149 -111.5q-38 42 -77 73zM64 625v92h386v124h96v-124h390v-92h-872zM607 555l76 56q182 -120 265 -216l-82 -64q-37 46 -111 109t-148 115z" />
<glyph unicode="&#x23d;" d="M49 9q535 113 739 412l87 -49q-83 -117 -206 -209q175 -102 264 -173l-90 -69q-79 71 -262 183q-197 -121 -476 -184q-26 56 -56 89zM60 631v87h388v122h98v-122h395v-87h-430l21 -10q-92 -98 -196 -181q50 -34 93 -69q149 90 231 204l84 -44q-101 -136 -261 -234.5 t-357 -156.5q-21 43 -57 83q143 37 265 96q-90 78 -212 152l69 60q31 -17 74 -44q83 71 144 144h-349z" />
<glyph unicode="&#x23e;" d="M27 201q55 50 98 125t67 159l97 -20q-59 -196 -178 -320q-36 32 -84 56zM63 583v91h390v166h96v-166h388v-91h-260v-548q0 -42 -10.5 -64t-37.5 -33q-41 -17 -176 -17q-6 38 -31 97q40 -2 83 -2.5t53 0.5q13 1 17.5 5t4.5 15v547h-130v-109q0 -60 -4 -109.5t-19 -115 t-41 -120t-74 -112.5t-113 -105q-27 39 -71 70q74 51 122.5 114.5t70 132.5t28.5 124t7 122v108h-293zM720 454l83 36q54 -79 99.5 -167.5t62.5 -151.5l-92 -43q-15 64 -58.5 155t-94.5 171z" />
<glyph unicode="&#x23f;" d="M62 669v82h386v89h97v-89h393v-82h-876zM100 263v79h699l21 5l66 -57q-149 -95 -334 -154v-119q0 -39 -13 -58.5t-45 -27.5q-49 -14 -207 -12q-8 42 -33 84q138 -6 173 -2q16 0 21.5 4t5.5 15v185h76q81 29 141 58h-571zM203 403v213h604v-213h-604zM296 467h413v85h-413 v-85z" />
<glyph unicode="&#x240;" d="M57 108v79h392v51h47q63 19 140 52h-485v74h616l21 4l60 -51q-122 -76 -301 -129v-1h398v-79h-398v-98q0 -36 -12 -54t-42 -26q-40 -11 -188 -11q-9 35 -32 77q41 -2 152 -2q14 1 19 5t5 15v94h-392zM68 679v80h380v81h97v-81h385v-80h-862zM189 416v207h629v-207h-629z M281 481h439v76h-439v-76z" />
<glyph unicode="&#x241;" d="M43 12q52 37 101 92t76 105l94 -30q-80 -131 -195 -222q-28 27 -76 55zM66 644v89h382v107h99v-107h387v-89h-868zM184 259v304h640v-304h-277v-235q0 -39 -10.5 -59.5t-38.5 -29.5q-43 -15 -180 -13q-5 35 -30 88q101 -3 139 -1q13 0 18 3.5t5 13.5v233h-266zM277 339 h449v142h-449v-142zM677 168l86 41q132 -134 184 -213l-91 -47q-55 91 -179 219z" />
<glyph unicode="&#x242;" d="M63 680v78h385v84h97v-84h394v-78h-876zM70 174v201h860v-201h-86v129h-691v-129h-83zM197 424v206h610v-206h-610zM203 164v76h597v-76h-245v-145q0 -39 -12.5 -58.5t-45.5 -28.5q-39 -11 -200 -11q-10 44 -34 84q47 -2 101.5 -2.5t63.5 0.5q16 1 21 5t5 15v141h-251z M289 489h420v78h-420v-78z" />
<glyph unicode="&#x243;" d="M40 -2q86 13 139 33.5t81.5 54.5t39.5 72t16 101h97q-6 -77 -20.5 -127t-49 -94.5t-96.5 -72.5t-158 -46q-14 44 -49 79zM63 680v78h385v84h97v-84h394v-78h-876zM70 176v193h860v-193h-86v120h-691v-120h-83zM197 421v207h611v-207h-611zM290 484h420v81h-420v-81z M559 40v215h101v-214q0 -22 8 -28t36 -6h115q25 0 32.5 20t10.5 92q31 -25 86 -37q-7 -93 -32 -125t-87 -32h-140q-77 0 -103.5 24t-26.5 91z" />
<glyph unicode="&#x244;" d="M34 3q77 41 140 98.5t103 115.5t70 128.5t45.5 127t25 123t12 105.5t4.5 84q1 19 1 27h105q0 -3 -1 -20.5t-2 -28.5q3 -37 7.5 -75t17.5 -102t32 -122t53 -127.5t77 -126.5t107 -111.5t141 -89.5q-44 -34 -71 -78q-299 144 -405 539q-94 -373 -385 -540q-29 41 -77 73z " />
<glyph unicode="&#x245;" d="M37 444q72 70 136.5 174t105.5 216l87 -26q-32 -86 -93 -200v-686h-90v542q-45 -63 -94 -115q-22 56 -52 95zM331 411v91h268v324h96v-324h258v-91h-258v-490h-96v490h-268z" />
<glyph unicode="&#x246;" d="M33 441q75 72 142 176.5t110 218.5l92 -30q-48 -117 -102 -210v-673h-93v531q-39 -53 -93 -109q-24 53 -56 96zM340 -12v98h615v-98h-615zM396 577v98h517v-98h-517z" />
<glyph unicode="&#x247;" d="M33 450q68 71 128 173.5t98 211.5l88 -26q-36 -101 -96 -212v-676h-92v528q-42 -57 -74 -93q-21 53 -52 94zM266 -13q107 82 152 213t55 322h-158v90h161q2 72 2 224h93q0 -151 -2 -224h234v-543q0 -38 6 -44q7 -5 17 -5h29q13 0 20 5q8 7 11 31q4 40 4 120 q31 -28 74 -40q-2 -97 -12 -137q-9 -36 -33 -50q-21 -14 -59 -14h-59q-41 0 -67 21q-14 13 -19.5 36t-5.5 78v452h-144q-12 -215 -62.5 -363.5t-167.5 -241.5q-25 40 -69 70z" />
<glyph unicode="&#x248;" d="M35 457q124 71 237.5 179.5t171.5 207.5h93q78 -112 195.5 -214t234.5 -161q-31 -32 -61 -82q-94 56 -193 139v-82h-429v78q-92 -80 -190 -139q-20 37 -59 74zM154 244v88h585l17 5l73 -22q-78 -188 -183 -397l-99 26q75 142 145 300h-538zM294 530h414 q-137 116 -212 221q-76 -111 -202 -221z" />
<glyph unicode="&#x249;" d="M36 456q128 64 239 171.5t167 213.5h99q75 -122 190 -221t236 -150q-33 -37 -60 -85q-121 63 -234.5 162t-176.5 198q-58 -97 -167.5 -197t-234.5 -169q-17 36 -58 77zM77 -13q64 37 106.5 82.5t61 96t25 91.5t6.5 94v129h95v-131q0 -62 -7 -111.5t-27.5 -109t-67 -112.5 t-116.5 -95q-33 41 -76 66zM623 -78v563h97v-563h-97z" />
<glyph unicode="&#x24a;" d="M22 438q79 71 149 176.5t113 218.5l93 -29q-44 -106 -103 -206v-674h-93v536q-50 -66 -103 -118q-23 54 -56 96zM301 73q46 3 94 6q107 329 173 729l104 -17q-74 -376 -181 -704q118 9 332 30q-48 135 -108 261l85 32q59 -116 108.5 -240t68.5 -209l-95 -40 q-6 33 -29 109q-312 -35 -531 -53z" />
<glyph unicode="&#x24b;" d="M21 438q79 70 149 175.5t114 219.5l92 -29q-40 -100 -102 -205v-675h-93v537q-56 -72 -104 -119q-23 54 -56 96zM314 324v90h284v141h48q79 61 137 128h-392v86h466l18 6l63 -44q-47 -64 -113.5 -129.5t-132.5 -113.5v-74h274v-90h-274v-290q0 -42 -11.5 -64t-40.5 -33 q-43 -16 -193 -16q-8 45 -32 94q113 -3 158 -1q14 0 19.5 4.5t5.5 16.5v289h-284z" />
<glyph unicode="&#x24c;" d="M26 442q78 70 148.5 175.5t115.5 219.5l89 -29q-50 -118 -105 -209v-675h-92v539q-43 -58 -101 -114q-22 50 -55 93zM322 441v90h274v291h95v-291h271v-90h-271v-390h255v-90h-599v90h249v390h-274z" />
<glyph unicode="&#x24d;" d="M22 450q70 69 133 172t104 213l85 -27q-37 -99 -97 -207v-679h-91v536q-40 -55 -83 -101q-19 46 -51 93zM272 437l124 48v250h92v-214l125 48v267h88v-233l128 50l14 11l17 13l64 -26l-4 -14q-2 -304 -11 -353q-8 -64 -56 -79q-37 -12 -106 -10q-4 51 -22 85q25 -1 70 -1 q23 0 29 26q7 30 9 254l-132 -51v-360h-88v325l-125 -48v-337q0 -44 14.5 -57t65.5 -13h231q43 0 57.5 27t20.5 115q44 -29 86 -37q-12 -110 -42.5 -149t-115.5 -39h-243q-97 0 -131.5 31.5t-34.5 122.5v300l-87 -35z" />
<glyph unicode="&#x24e;" d="M38 440q75 72 140.5 176t106.5 217l92 -29q-46 -116 -101 -211v-670h-94v525q-42 -57 -88 -103q-25 56 -56 95zM349 528v93h391v207h96v-207h119v-93h-119v-488q0 -48 -13.5 -71t-45.5 -34q-49 -18 -221 -16q-8 44 -36 93q108 -5 188 -2q18 1 25 7.5t7 22.5v488h-391z M404 399l81 38q114 -179 143 -236l-87 -47q-33 77 -137 245z" />
<glyph unicode="&#x24f;" d="M22 454q74 69 140 171t108 212l87 -28q-39 -97 -98 -199v-686h-88v552q-48 -64 -98 -116q-20 46 -51 94zM353 -55v631h88v-464h144v696h92v-696h151v464h91v-627h-91v76h-387v-80h-88z" />
<glyph unicode="&#x250;" d="M32 419q126 74 238 191.5t168 226.5h103q76 -124 192 -234t235 -172q-28 -28 -66 -90q-118 73 -231.5 182t-176.5 209q-59 -101 -167 -209t-231 -185q-24 43 -64 81zM106 43h341v251h-241v95h583v-95h-240v-251h341v-95h-784v95z" />
<glyph unicode="&#x251;" d="M21 432q84 71 159 177t123 221l88 -29q-40 -95 -101 -194v-684h-96v547q-58 -75 -120 -131q-19 48 -53 93zM332 502l224 28q-12 136 -18 294h94q5 -161 16 -281l293 37l12 -87l-296 -38q53 -405 187 -421q19 -1 30.5 40t18.5 127q32 -33 77 -51q-16 -127 -47 -178 t-75 -49q-61 5 -109 43t-81.5 107.5t-55.5 159.5t-37 209l-219 -28zM712 780l69 44q102 -84 155 -160l-74 -49q-45 71 -150 165z" />
<glyph unicode="&#x252;" d="M34 472q124 66 238 169t172 199h94q79 -109 196 -205.5t235 -151.5q-28 -28 -62 -82q-100 55 -198 135v-75h-417v74q-91 -76 -198 -138q-20 37 -60 75zM132 271v84h709v-265q0 -36 -10 -56t-36 -31q-37 -16 -165 -16q-7 42 -32 91q36 -2 127 -2q12 1 16.5 4t4.5 12v179 h-267v-350h-97v350h-250zM304 545h393q-133 109 -201 202q-68 -97 -192 -202z" />
<glyph unicode="&#x253;" d="M36 129q56 21 136 52l-19 601l97 4l17 -566q83 34 175 74l22 -90q-159 -73 -394 -172zM284 1q99 37 173.5 89.5t126 118t87.5 155t56.5 190t33.5 232.5l102 -10q-36 -330 -127 -512q177 -183 233 -266l-78 -75q-59 92 -207 253q-112 -166 -325 -257q-10 16 -34 42t-41 40 zM360 677l85 41q48 -53 91.5 -119.5t65.5 -118.5l-90 -48q-20 51 -63 121t-89 124z" />
<glyph unicode="&#x254;" d="M22 457q74 69 140 170t108 210l87 -28q-40 -101 -98 -200v-685h-88v552q-51 -67 -98 -114q-18 43 -51 95zM288 -23q69 98 91 228.5t22 286.5v296h539v-88h-447v-173h361l17 3l57 -22q-44 -225 -163 -380q92 -86 208 -128q-36 -31 -62 -79q-117 48 -208 136 q-87 -87 -201 -138q-33 53 -62 75q117 48 202 132q-92 116 -150 289q-12 -333 -129 -497q-37 39 -75 59zM573 441q45 -138 130 -246q79 106 117 246h-247z" />
<glyph unicode="&#x255;" d="M17 454q72 70 136.5 172t104.5 211l85 -27q-39 -102 -96 -202v-684h-88v548q-45 -61 -92 -110q-24 57 -50 92zM290 149q32 7 69 18v554l39 -10q99 64 151 125l88 -52q-80 -69 -192 -132v-462q15 4 64 18t76 22l14 -83q-94 -30 -274 -84zM612 -79v814h324v-544 q0 -36 -7.5 -56t-28.5 -31q-31 -17 -137 -17q-6 50 -25 90q71 -2 93 0q9 0 12.5 3t3.5 13v460h-148v-732h-87z" />
<glyph unicode="&#x256;" d="M32 452q67 70 126.5 172.5t97.5 212.5l89 -27q-42 -113 -98 -214v-674h-88v531q-37 -53 -75 -96q-23 54 -52 95zM332 179v458h250v191h92v-191h259v-451h-91v55h-168v-318h-92v318h-162v-62h-88zM420 327h162v224h-162v-224zM674 327h168v224h-168v-224z" />
<glyph unicode="&#x257;" d="M32 450q68 70 128.5 172.5t99.5 212.5l87 -26q-37 -103 -98 -216v-670h-88v530q-40 -56 -78 -97q-22 55 -51 94zM307 454q81 115 119 333l90 -18q-13 -60 -32 -128h112v186h93v-186h220v-91h-220v-198h265v-91h-265v-339h-93v339h-277v91h277v198h-142q-33 -90 -67 -141 q-32 23 -80 45z" />
<glyph unicode="&#x258;" d="M24 442q78 71 147.5 176t113.5 218l91 -28q-42 -105 -102 -208v-678h-92v541q-51 -67 -102 -116q-20 49 -56 95zM313 330v90h283v244q-100 -17 -225 -31q-7 36 -28 79q335 42 512 107l68 -79q-93 -31 -233 -59v-261h267v-90h-267v-283h253v-89h-592v89h245v283h-283z" />
<glyph unicode="&#x259;" d="M32 455q126 69 239.5 177.5t171.5 210.5h95q79 -117 196 -218t237 -158q-36 -38 -62 -83q-118 68 -233.5 169.5t-180.5 196.5q-61 -95 -170.5 -196.5t-233.5 -173.5q-19 35 -59 75zM79 33h118v359h91v-359h169v535h98v-224h277v-84h-277v-227h368v-84h-844v84z" />
<glyph unicode="&#x25a;" d="M22 454q74 69 140 171t108 212l87 -29q-45 -108 -98 -198v-688h-88v554q-41 -58 -98 -117q-22 53 -51 95zM296 -11q171 76 217 237h-157v87h173q5 44 5 102v43h-232v86h232v143h-167v86h523v-229h68v-86h-68v-281h-91v49h-192q-47 -207 -248 -309q-26 41 -63 72zM621 313 h178v145h-173v-43q0 -58 -5 -102zM626 544h173v143h-173v-143z" />
<glyph unicode="&#x25b;" d="M19 444q71 70 134 174t104 216l86 -26q-35 -93 -83 -184v-702h-90v554q-52 -74 -102 -127q-15 43 -49 95zM314 -39v87h131q22 108 56 318h-142v87h155q22 152 31 222h-186v88h560v-88h-279q-12 -98 -32 -222h263v-405h94v-87h-651zM540 48h237v318h-182 q-33 -201 -55 -318z" />
<glyph unicode="&#x25c;" d="M19 452q73 69 138 171.5t106 213.5l86 -27q-38 -98 -89 -189v-699h-91v556q-53 -73 -99 -119q-21 48 -51 93zM291 0q158 41 276 116q-100 100 -161 240l73 22h-144v85h255v142h-267v86h267v144h94v-144h275v-86h-275v-142h158l17 4l59 -32q-63 -189 -206 -320 q117 -79 263 -113q-38 -35 -61 -84q-157 43 -278 136q-122 -87 -287 -135q-23 48 -58 81zM490 378q53 -119 150 -207q103 87 157 207h-307z" />
<glyph unicode="&#x25d;" d="M31 448q71 71 134 175t103 215l89 -27q-39 -104 -96 -208v-682h-93v535q-36 -50 -86 -104q-19 50 -51 96zM302 -18q226 177 259 480h-244v91h250q1 15 1 44v239h94v-239q0 -29 -1 -44h285v-91h-273q82 -340 289 -459q-39 -30 -70 -81q-171 112 -262 385 q-63 -237 -251 -387q-23 27 -77 62zM725 773l70 40q78 -96 118 -171l-76 -46q-37 76 -112 177z" />
<glyph unicode="&#x25e;" d="M36 444q74 71 140.5 175t108.5 216l90 -27q-37 -96 -100 -207v-678h-93v536q-46 -62 -92 -108q-23 57 -54 93zM307 552l226 23q-11 116 -13 252h98q-1 -116 10 -244l303 31l7 -86l-301 -31q16 -129 42 -224q90 94 142 201l90 -33q-77 -147 -203 -266q60 -161 129 -161 q19 1 29.5 41.5t15.5 135.5q32 -32 81 -51q-12 -128 -40.5 -174t-92.5 -46q-119 0 -198 189q-118 -91 -260 -154q-27 46 -63 82q162 61 290 163q-39 130 -57 287l-227 -22zM668 776l61 50q111 -83 164 -134l-63 -58q-42 44 -162 142z" />
<glyph unicode="&#x25f;" d="M22 442q79 70 149 173.5t114 217.5l92 -29q-44 -109 -106 -212v-668h-92v535q-46 -60 -102 -113q-25 57 -55 96zM274 112q77 60 148 165t118 224h-225v91h267v232h92v-232h275v-91h-227q46 -115 114 -218.5t141 -163.5q-44 -34 -70 -75q-129 122 -233 365v-488h-92v463 q-103 -223 -239 -346q-22 34 -69 74z" />
<glyph unicode="&#x260;" d="M36 494q125 57 238 153.5t171 190.5h96q78 -108 193 -195.5t235 -134.5q-27 -29 -59 -84q-94 45 -177 104v-78h-468v72q-88 -63 -174 -104q-19 40 -55 76zM93 259v87h821v-87h-458q-70 -141 -106 -206q128 5 357 14q-63 71 -116 119l80 43q68 -57 132.5 -129t99.5 -128 l-85 -53q-16 28 -44 65q-297 -15 -662 -30l-12 91l148 5q55 104 93 209h-248zM284 536h438q-147 104 -225 212q-73 -107 -213 -212z" />
<glyph unicode="&#x261;" d="M22 454q74 69 140 171t108 212l87 -28q-39 -97 -98 -199v-686h-88v552q-48 -64 -98 -116q-20 46 -51 94zM309 53q44 3 104 6q57 140 102 322h-197v90h645v-90h-342q-53 -172 -112 -315q157 12 304 23q-46 83 -94 153l82 35q57 -79 105 -165.5t67 -150.5l-89 -40 q-12 44 -31 84q-276 -26 -527 -46zM391 676v91h519v-91h-519z" />
<glyph unicode="&#x262;" d="M34 408q77 74 138.5 186.5t97.5 241.5l89 -21q-37 -125 -97 -243v-653h-92v500q-37 -51 -79 -94q-32 55 -57 83zM369 -77v737h159q37 104 51 179l108 -18q-25 -73 -62 -161h261v-730h-96v39h-328v-46h-93zM462 62h328v212h-328v-212zM462 365h328v207h-328v-207z" />
<glyph unicode="&#x263;" d="M22 454q74 69 140 171t108 212l87 -28q-39 -97 -98 -199v-686h-88v552q-48 -64 -98 -116q-20 46 -51 94zM310 194v86h274v157h-234v86h234v304h94v-304h242v-86h-242v-157h284v-86h-284v-272h-94v272h-274zM356 759l78 30q65 -112 89 -208l-85 -34q-20 91 -82 212z M738 579q61 114 92 218l94 -34q-64 -138 -110 -214z" />
<glyph unicode="&#x264;" d="M22 454q74 69 140 171t108 212l87 -28q-39 -97 -98 -199v-686h-88v552q-48 -64 -98 -116q-20 46 -51 94zM270 522q90 53 173.5 140.5t128.5 169.5h88q60 -90 146 -172.5t171 -128.5q-23 -27 -55 -84q-55 35 -114 87v-62h-365v65q-58 -52 -122 -93q-18 39 -51 78zM327 286 v85h573v-260q0 -67 -43 -85q-37 -15 -161 -15q-5 36 -29 87q85 -3 121 -1q12 1 16 4t4 12v173h-202v-365h-92v365h-187zM463 555h321q-103 93 -165 185q-62 -96 -156 -185z" />
<glyph unicode="&#x265;" d="M19 450q70 69 133 172t104 213l87 -26q-40 -106 -99 -211v-675h-88v537q-42 -57 -86 -104q-20 48 -51 94zM328 146v537h255v152h92v-152h265v-529h-92v43h-173v-275h-92v275h-168v-51h-87zM415 281h168v119h-168v-119zM415 481h168v117h-168v-117zM675 281h173v119h-173 v-119zM675 481h173v117h-173v-117z" />
<glyph unicode="&#x266;" d="M22 449q69 71 131.5 174t101.5 212l85 -26q-37 -100 -97 -211v-676h-89v535q-34 -47 -83 -102q-6 17 -22 47.5t-27 46.5zM337 535v81h430v-81h-430zM349 703v84h576v-749q0 -80 -49 -100q-38 -17 -184 -17q-7 46 -32 95q47 -3 146 -3q14 1 20 6.5t6 19.5v664h-483z M369 52v397h346v-328h-260v-69h-86zM455 200h174v170h-174v-170z" />
<glyph unicode="&#x267;" d="M19 450q70 69 133 172t104 213l87 -26q-40 -106 -99 -211v-675h-88v537q-42 -57 -86 -104q-20 48 -51 94zM280 171q29 9 103 34l-6 577l91 1l6 -546q23 8 49 17.5t58 21.5t49 18l18 -81q-250 -103 -329 -133zM390 -5q105 33 179 83.5t121.5 114t76 158t41 197.5t16.5 250 l94 -3q-8 -204 -33 -345.5t-78 -243.5q127 -150 169 -219l-73 -67q-34 62 -146 206q-103 -136 -307 -212q-23 46 -60 81zM528 680l79 33q92 -137 119 -232l-83 -38q-31 103 -115 237z" />
<glyph unicode="&#x268;" d="M28 444q124 150 196 396l80 -24q-32 -102 -73 -194v-701h-84v539q-36 -60 -74 -107q-12 43 -45 91zM245 -22q70 89 97.5 227.5t32.5 348.5h-89v82h90q1 63 1 196h82q0 -133 -1 -196h163v-42q-7 -335 -15.5 -458t-28.5 -153q-22 -34 -61 -41q-32 -5 -95 -2q-2 47 -23 84 q33 -3 76 -3q19 0 29 17q14 21 21.5 131.5t13.5 384.5h-82q-7 -231 -37.5 -384.5t-107.5 -253.5q-10 16 -29.5 34.5t-36.5 27.5zM659 -51v776h269v-768h-83v82h-106v-90h-80zM739 121h106v521h-106v-521z" />
<glyph unicode="&#x269;" d="M20 450q70 70 133 172.5t104 212.5l86 -27q-41 -105 -103 -215v-671h-89v534q-36 -52 -81 -98q-24 55 -50 92zM355 -79v860h561v-852h-92v52h-380v-60h-89zM444 71h141v270h-141v-270zM444 430h141v261h-141v-261zM676 71h148v270h-148v-270zM676 430h148v261h-148v-261z " />
<glyph unicode="&#x26a;" d="M28 450q71 68 135.5 171t106.5 214l90 -29q-45 -113 -101 -209v-674h-92v532q-37 -50 -87 -102q-22 55 -52 97zM314 -41v86h649v-86h-649zM392 160v611h493v-611h-493zM488 247h297v177h-297v-177zM488 510h297v175h-297v-175z" />
<glyph unicode="&#x26b;" d="M22 457q74 69 140 170t108 210l87 -28q-40 -101 -98 -200v-685h-88v552q-51 -67 -98 -114q-18 43 -51 95zM315 -34v88h336q31 92 63 222.5t49 236.5l100 -17q-57 -261 -122 -442h223v-88h-649zM337 563v88h247v176h94v-176h263v-88h-604zM413 491l84 15q62 -225 76 -393 l-92 -20q-11 180 -68 398z" />
<glyph unicode="&#x26c;" d="M19 450q70 69 133 172t104 213l87 -26q-40 -106 -99 -211v-675h-88v537q-42 -57 -86 -104q-20 48 -51 94zM299 162l66 10v572l63 -20q275 34 416 84l71 -71q-88 -27 -188 -46q1 -100 9 -193h222v-84h-213q20 -161 56 -263.5t73 -102.5q25 0 31 136q28 -29 73 -49 q-10 -104 -34.5 -141t-77.5 -37q-55 0 -98.5 61.5t-70.5 161t-44 234.5h-197v-228q66 10 208 34l4 -84q-45 -8 -169.5 -30t-179.5 -31zM331 27h412v-83h-412v83zM456 498h188q-7 76 -10 176q-86 -13 -178 -24v-152z" />
<glyph unicode="&#x26d;" d="M22 454q74 69 140 171t108 212l87 -28q-39 -97 -98 -199v-686h-88v552q-48 -64 -98 -116q-20 46 -51 94zM320 43h278v227h-221v88h221v198h-254v89h316q-78 66 -189 130l61 66q146 -79 222 -147l-44 -49h237v-89h-255v-198h226v-88h-226v-227h270v-89h-642v89z" />
<glyph unicode="&#x26e;" d="M22 454q74 69 140 171t108 212l87 -28q-39 -97 -98 -199v-516q145 155 218 459h-169v88h188q16 83 31 189l95 -11q-14 -96 -30 -178h370v-88h-389q-21 -90 -48 -171h414v-86h-190v-256h211v-88h-538v88h235v256h-152v29q-73 -191 -179 -310q-31 36 -67 67v-158h-88v552 q-48 -64 -98 -116q-20 46 -51 94z" />
<glyph unicode="&#x26f;" d="M22 455q74 69 140 171t108 211l87 -27q-39 -99 -98 -199v-688h-88v554q-42 -58 -98 -116q-22 55 -51 94zM274 185q153 123 233 371h-197v90h222q23 85 38 189l96 -15q-17 -96 -37 -174h333v-90h-358q-34 -107 -71 -181h387v-441h-94v50h-276v-59h-90v325 q-59 -83 -126 -138q-21 32 -60 73zM550 71h276v218h-276v-218z" />
<glyph unicode="&#x270;" d="M29 449q132 145 212 385l87 -25q-28 -86 -84 -202v-684h-89v530q-38 -55 -74 -98q-23 56 -52 94zM262 145q78 64 147.5 176t115.5 239h-219v88h268v186h91v-186h286v-88h-234q44 -123 113 -234t145 -175q-42 -31 -71 -74q-140 139 -239 412v-307h148v-84h-148v-171h-91 v171h-149v84h149v301q-100 -269 -246 -409q-22 35 -66 71z" />
<glyph unicode="&#x271;" d="M38 459q67 69 126.5 170t97.5 209l87 -26q-33 -94 -86 -194v-696h-92v546q-34 -50 -83 -104q-15 41 -50 95zM346 658v89h615v-89h-67v-619q0 -44 -12 -67t-41 -34q-48 -19 -200 -17q-7 47 -32 95q48 -2 164 -2q16 1 22 6t6 20v618h-455zM368 115v417h319v-349h-231v-68 h-88zM456 263h145v188h-145v-188z" />
<glyph unicode="&#x272;" d="M36 511q124 56 236.5 146.5t172.5 179.5h93q80 -100 195.5 -185t232.5 -130q-32 -35 -60 -84q-78 39 -153 89v-73h-207v-111h360v-88h-360v-228q0 -38 -10.5 -58.5t-37.5 -31.5q-44 -18 -163 -16q-9 44 -37 89q28 -1 128 -1q22 1 22 19v227h-344v88h344v111h-209v66 q-74 -49 -145 -85q-22 40 -58 76zM41 19q62 35 120.5 84.5t95.5 101.5l87 -30q-43 -61 -106 -119.5t-126 -100.5q-27 33 -71 64zM266 538h470q-159 110 -240 212q-82 -106 -230 -212zM640 162l76 49q152 -113 226 -200l-81 -56q-33 42 -96 101t-125 106z" />
<glyph unicode="&#x273;" d="M36 449q71 70 134 173t104 213l89 -28q-42 -108 -99 -209v-675h-94v528q-37 -52 -82 -98q-22 57 -52 96zM306 448q65 68 122.5 169.5t93.5 210.5l89 -24q-29 -79 -52 -129h402v-89h-296v-127h272v-85h-272v-133h286v-87h-286v-232h-95v664h-56q-68 -125 -136 -201 q-37 40 -72 63z" />
<glyph unicode="&#x274;" d="M37 449q141 148 223 386l87 -27q-37 -105 -94 -210v-676h-92v525q-38 -52 -74 -91q-19 52 -50 93zM299 -44v90h287v146h-228v88h228v102h94v-102h233v-88h-233v-146h278v-90h-659zM330 416v88h256v126h-209v87h209v122h94v-122h215v-87h-215v-126h260v-88h-610z" />
<glyph unicode="&#x275;" d="M22 454q74 69 140 171t108 212l87 -28q-39 -97 -98 -199v-686h-88v552q-48 -64 -98 -116q-20 46 -51 94zM299 -19q145 91 164 293h-155v89h159v180h-133v88h157q-21 76 -82 173l80 32q69 -101 88 -171l-78 -34h269l-69 29q58 95 88 181l97 -34q-67 -119 -109 -176h168 v-88h-135v-180h157v-89h-157v-352h-92v352h-161q-25 -243 -192 -361q-26 41 -64 68zM559 363h157v180h-157v-180z" />
<glyph unicode="&#x276;" d="M19 444q71 70 134 174t104 216l86 -26q-35 -93 -83 -184v-702h-90v554q-52 -74 -102 -127q-15 43 -49 95zM286 -7q177 50 287 155q-82 104 -133 244l84 23q39 -110 110 -199q67 91 96 208l96 -21q-45 -148 -129 -254q114 -106 275 -152q-38 -34 -61 -82q-163 53 -277 166 q-117 -109 -300 -164q-18 42 -48 76zM288 397q55 37 104.5 90.5t80.5 111.5l89 -28q-36 -66 -90 -129t-111 -107q-31 35 -73 62zM323 620v87h267v132h93v-132h278v-87h-638zM704 559l72 43q55 -47 109 -105t82 -100l-77 -50q-25 42 -78 101.5t-108 110.5z" />
<glyph unicode="&#x277;" d="M23 458q74 69 140 171.5t108 212.5l87 -29q-46 -111 -99 -201v-695h-88v561q-48 -65 -97 -114q-22 55 -51 94zM289 -4q125 30 197 90q-82 67 -134 157l76 24q41 -68 112 -120q35 57 45 136h-232v281h238v86h-263v85h263v99h92v-99h276v-85h-276v-86h247v-281h-253 q-14 -113 -61 -183q143 -74 355 -96q-33 -37 -55 -84q-212 31 -354 114q-79 -74 -216 -115q-24 45 -57 77zM438 360h153v127h-153v-127zM683 360h158v127h-158v-96v-31z" />
<glyph unicode="&#x278;" d="M25 451q69 70 130.5 172.5t100.5 213.5l86 -27q-35 -95 -94 -206v-683h-88v541q-37 -52 -84 -104q-24 56 -51 93zM270 -22q75 54 99.5 123t24.5 154v107h86v-110q0 -105 -30 -190.5t-118 -149.5q-21 35 -62 66zM364 413v376h515v-376h-515zM453 498h333v207h-333v-207z M573 -40v397h84v-397h-84zM752 45v318h87v-323q0 -30 4 -34q5 -5 13 -5h19q12 0 16 5q6 5 9 28q2 19 4 104q23 -21 64 -35q-2 -94 -11 -121q-7 -31 -28 -44q-19 -12 -51 -12h-47q-40 0 -58 21q-12 11 -16.5 31t-4.5 67z" />
<glyph unicode="&#x279;" d="M21 443q62 72 116.5 176.5t89.5 216.5l86 -24q-32 -100 -81 -202v-688h-85v532q-37 -59 -79 -109q-21 53 -47 98zM244 302q104 126 146 408h-79v82h356v-66h83v-574h-83v558h-187q-18 -94 -26 -127h117l14 3l54 -16q-54 -474 -297 -650q-10 17 -28 39t-31 32 q119 81 189 241q-41 46 -110 97q-27 -51 -63 -93q-22 35 -55 66zM397 403q68 -48 107 -84q27 83 42 183h-114q-14 -47 -35 -99zM694 12q38 -2 125 -2q13 1 18 5.5t5 16.5v790h86v-790q0 -40 -10 -61.5t-33 -32.5q-36 -17 -162 -17q-8 47 -29 91z" />
<glyph unicode="&#x27a;" d="M23 450q70 69 133 172t104 213l87 -27q-45 -115 -102 -215v-671h-88v534q-42 -57 -83 -100q-20 48 -51 94zM306 439v85h279v108h-219v85h219v118h95v-118h228v-85h-228v-108h280v-85h-139v-97h131v-85h-131v-232q0 -39 -10 -58.5t-36 -29.5q-37 -15 -169 -15 q-7 44 -30 88q38 -2 79.5 -2.5t49.5 0.5q13 1 17.5 5t4.5 14v230h-409v85h409v97h-421zM387 198l79 41q87 -97 123 -171l-85 -46q-32 76 -117 176z" />
<glyph unicode="&#x27b;" d="M24 452q70 70 133 172.5t104 212.5l87 -28q-42 -109 -99 -208v-679h-91v536q-40 -55 -83 -101q-19 47 -51 95zM302 -17q111 78 180 199l88 -28q-74 -131 -194 -230q-29 29 -74 59zM315 230v91h144v225h-120v89h120v194h91v-194h172v196h91v-196h136v-89h-136v-225h146 v-91h-644zM550 321h172v225h-172v-225zM703 139l75 41q115 -114 172 -209l-78 -50q-56 103 -169 218z" />
<glyph unicode="&#x27c;" d="M18 457q72 68 137 169.5t106 210.5l87 -28q-43 -107 -98 -202v-292q179 96 291 262h-252v88h285v162h94v-162h273v-88h-256q20 -123 52 -223q93 72 153 139l69 -66q-127 -104 -194 -148q81 -192 214 -269q-40 -34 -65 -79q-122 77 -194 225t-111 361q-45 -64 -106 -126 v-323q88 18 210 46l9 -83q-83 -21 -238 -57.5t-158 -37.5l-28 90q45 8 117 23v261q-56 -45 -107 -76q-36 51 -58 73v-383h-89v546q-43 -58 -92 -108q-31 65 -51 95z" />
<glyph unicode="&#x27d;" d="M30 452q67 69 126.5 172t97.5 213l86 -26q-37 -104 -93 -208v-685h-90v538q-31 -45 -78 -99q-16 47 -49 95zM276 -8q236 91 288 290h-260v85h275q4 48 4 106v144h-247v85h247v126h95v-126h254v-85h-254v-145q0 -61 -5 -105h278v-85h-266q83 -215 285 -283 q-38 -34 -63 -79q-183 75 -275 276q-74 -181 -292 -279q-28 46 -64 75zM365 565l77 26q55 -100 69 -172l-82 -29q-16 80 -64 175zM736 415q48 91 74 176l90 -32q-76 -142 -96 -171z" />
<glyph unicode="&#x27e;" d="M22 461q142 146 224 376l84 -27q-37 -103 -93 -205v-683h-87v544q-46 -61 -79 -96q-15 38 -49 91zM317 657v84h631v-84h-183v-146h176v-566h-90v56h-437v-61h-86v571h168v146h-179zM414 82h90v346h-90v-346zM583 82h94v346h-94v-346zM583 511h94v146h-94v-146zM756 82h95 v346h-95v-346z" />
<glyph unicode="&#x27f;" d="M26 450q65 70 123 172.5t95 213.5l88 -25q-37 -105 -88 -204v-439q135 160 135 470v149h520v-317h-149q38 -95 97.5 -173.5t131.5 -122.5q-42 -35 -67 -77q-82 57 -146.5 154.5t-105.5 218.5h-203q-30 -238 -153 -370q-23 23 -60 45v-223h-88v535q-28 -41 -78 -101 q-21 53 -52 94zM421 113l53 62q79 -36 164.5 -86t133.5 -89l-58 -71q-46 40 -130.5 93t-162.5 91zM465 552h341v153h-338v-68q0 -40 -3 -85zM468 333l58 58q146 -92 200 -149l-61 -64q-29 32 -86 76.5t-111 78.5z" />
<glyph unicode="&#x280;" d="M19 450q70 69 133 172t104 213l87 -26q-40 -106 -99 -211v-675h-88v537q-42 -57 -86 -104q-20 48 -51 94zM281 535q110 113 172 305l90 -23q-16 -45 -38 -95h441v-81h-480q-37 -65 -48 -81h470v-41q-4 -140 -5 -168h87v-81h-91q-3 -87 -7 -132h78v-79h-86 q-10 -74 -27 -95q-22 -33 -68 -39q-31 -6 -121 -2q-2 43 -23 77q44 -5 100 -5q23 0 34 16q9 12 15 48h-332l-7 -45l-89 7q18 90 38 249h-100v81h110q14 115 23 207q-28 -44 -56 -76q-29 24 -80 53zM454 138h122q9 67 14 132h-118q-9 -69 -18 -132zM482 351h115q6 88 9 129 h-109q-7 -63 -15 -129zM659 138h125q2 18 8 132h-119q-13 -122 -14 -132zM679 351h116q2 42 4 129h-110q-7 -97 -10 -129z" />
<glyph unicode="&#x281;" d="M19 450q70 69 133 172t104 213l87 -26q-40 -106 -99 -211v-675h-88v537q-42 -57 -86 -104q-20 48 -51 94zM295 -12q223 64 270 189h-266v82h282v111h-129q-34 -60 -73 -103q-32 23 -78 46q83 82 129 216h-121v83h429v103h-333v79h426v-182h123v-83h-456l25 -6 q-14 -40 -30 -74h409v-79h-228v-111h282v-82h-267q84 -141 282 -182q-37 -35 -58 -79q-184 48 -278 196q-71 -123 -280 -192q-27 43 -60 68z" />
<glyph unicode="&#x282;" d="M19 450q70 69 133 172t104 213l87 -26q-40 -106 -99 -211v-675h-88v537q-42 -57 -86 -104q-20 48 -51 94zM303 -2q138 19 246 64q-72 55 -119 127l61 22h-101v35h-76v170h633v-170h-74q-50 -108 -153 -184q107 -43 252 -62q-26 -26 -56 -79q-167 27 -282 88 q-119 -62 -287 -91q-15 44 -44 80zM368 469v72h426v60h-394v68h394v59h-415v72h506v-331h-517zM398 284h408l16 4l37 -17v73h-461v-60zM516 211q44 -62 117 -106q76 46 119 106h-236z" />
<glyph unicode="&#x283;" d="M22 454q74 69 140 171t108 212l87 -28q-39 -97 -98 -199v-686h-88v552q-48 -64 -98 -116q-20 46 -51 94zM367 -79v403h205q15 61 24 119h-195v349h505v-349h-206q-32 -103 -38 -119h283v-397h-93v36h-396v-42h-89zM456 48h396v192h-396v-192zM489 526h324v182h-324v-182z " />
<glyph unicode="&#x284;" d="M35 449q64 70 121 173t94 213l88 -26q-34 -100 -94 -218v-669h-88v521q-40 -55 -69 -87q-19 52 -52 93zM272 -6q112 25 185 69q-83 56 -133 131l81 28q41 -58 119 -103q44 49 59 124h-228v386h237v74h-258v81h609v-81h-259v-74h230v-386h-240q-16 -93 -69 -161 q140 -55 366 -69q-30 -30 -56 -86q-228 20 -376 90q-77 -59 -210 -99q-23 45 -57 76zM441 313h150q1 15 1 47v43h-151v-90zM441 469h151v90h-151v-90zM683 313h140v90h-139v-44q0 -31 -1 -46zM684 469h139v90h-139v-90z" />
<glyph unicode="&#x285;" d="M17 446q68 70 128 173.5t99 214.5l86 -26q-35 -96 -83 -190v-697h-90v545q-46 -67 -90 -115q-22 57 -50 95zM288 8q88 88 134 190l85 -26q-62 -122 -149 -211q-29 25 -70 47zM294 335q128 3 178 4q26 23 51 48q-77 77 -194 147l54 60q19 -11 61 -37q35 44 84 119 q-88 -9 -175 -15q-6 37 -25 74q350 31 520 81l63 -74q-103 -29 -271 -52l6 -3q-101 -127 -142 -172q51 -38 80 -65q96 103 161 195l86 -39q-118 -144 -245 -264q158 4 228 7q-28 42 -66 88l75 33q112 -127 154 -228l-81 -37q-15 35 -33 65q-32 -1 -97.5 -4t-98.5 -5v-339 h-93v335q-47 -2 -136.5 -5.5t-129.5 -5.5zM739 165l75 36q100 -112 140 -194l-80 -42q-35 85 -135 200z" />
<glyph unicode="&#x286;" d="M21 442q62 71 116 176t89 218l87 -25q-32 -96 -75 -188v-702h-91v533q-36 -58 -80 -111q-17 48 -46 99zM254 -26q116 112 141 385l89 -9q-7 -67 -20 -132q40 -111 126 -154v384h-208v346h508v-346h-207v-139h224v-87h-224v-186q45 -6 95 -6h50h81h56q-21 -37 -29 -87 h-165q-122 0 -203 34t-135 125q-39 -111 -106 -183q-24 25 -73 55zM470 530h327v182h-327v-182z" />
<glyph unicode="&#x287;" d="M21 440q62 72 116 177t89 218l87 -25q-16 -48 -34 -91q199 46 299 95l68 -71q-63 -27 -130 -46v-162h144q-7 130 -7 292h91q-3 -139 4 -292h193v-81h-189q9 -124 20 -196q46 73 77 155l83 -22q-57 -139 -140 -247q32 -136 76 -136q25 0 31 155q32 -33 68 -49 q-10 -113 -33 -154t-77 -41q-85 0 -133 145q-58 -61 -130 -111q-20 28 -60 66q90 56 165 141q-24 117 -35 294h-148v-136l122 31l10 -84q-44 -11 -132 -35v-204q0 -70 -40 -87q-34 -17 -148 -17q-8 46 -28 86q78 -3 110 -1q19 1 19 20v179l-142 -37l-22 90q85 19 164 38v157 h-160v81h160v138q-49 -12 -133 -28q-4 22 -23 60q-13 -36 -38 -90v-694h-88v531q-37 -59 -80 -110q-18 52 -46 98zM783 773l69 29q68 -104 95 -183l-73 -33q-23 76 -91 187z" />
<glyph unicode="&#x288;" d="M19 450q70 69 133 172t104 213l87 -26q-40 -106 -99 -211v-675h-88v537q-42 -57 -86 -104q-20 48 -51 94zM282 1q155 24 271 82q-54 46 -94 101q-52 -41 -102 -69q-39 42 -68 62q82 39 152.5 100t111.5 130l83 -28q-21 -34 -47 -68h203l17 4l58 -29q-51 -118 -159 -204 q115 -58 265 -81q-30 -29 -57 -82q-168 34 -288 110q-124 -71 -300 -107q-19 49 -46 79zM286 401q96 23 135 64t50 114l-160 -8l-6 89l118 3q54 85 93 179l102 -26q-52 -87 -96 -150q23 1 114 4t142 5q-46 50 -68 72l75 42q131 -125 183 -213l-81 -47q-18 33 -47 69l-102 -5 v-121q0 -16 5 -20.5t25 -4.5h79q16 0 21 11.5t7 55.5q26 -20 75 -30q-7 -65 -27 -87.5t-66 -22.5h-101q-63 0 -83 19.5t-20 77.5v117l-95 -5q-14 -102 -61.5 -161t-161.5 -92q-14 38 -49 71zM521 237q40 -57 110 -108q68 48 111 110h-220z" />
<glyph unicode="&#x289;" d="M19 450q70 69 133 172t104 213l87 -26q-40 -106 -99 -211v-675h-88v537q-42 -57 -86 -104q-20 48 -51 94zM276 318q89 54 172.5 142t125.5 170h90q59 -88 144 -169.5t167 -125.5q-29 -37 -55 -84q-30 19 -60 42v-368h-92v37h-280v-42h-88v372q-37 -29 -74 -53 q-14 32 -50 79zM297 610q113 84 179 211l91 -28q-76 -142 -192 -243q-37 35 -78 60zM422 311h416q-137 111 -216 228q-75 -122 -200 -228zM488 46h280v182h-280v-182zM678 783l74 44q135 -126 194 -219l-79 -51q-27 45 -81 109t-108 117z" />
<glyph unicode="&#x28a;" d="M26 453q73 69 138 171t106 212l87 -28q-41 -102 -98 -203v-682h-88v547q-45 -61 -93 -111q-23 57 -52 94zM282 36q72 37 141 100.5t118 137.5h-227v84h276v109h-206v326h517v-326h-218v-109h270v-84h-220q46 -73 112.5 -137.5t134.5 -102.5q-44 -40 -65 -74 q-62 41 -123 107t-109 142v-289h-93v284q-108 -161 -244 -242q-28 43 -64 74zM471 550h337v161h-337v-161z" />
<glyph unicode="&#x28b;" d="M22 454q74 69 140 171t108 212l87 -28q-39 -97 -98 -199v-686h-88v552q-48 -64 -98 -116q-20 46 -51 94zM320 580v77h641v-77h-641zM388 -78v316h511v-313h-93v40h-329v-43h-89zM400 303v74h485v-74h-485zM400 442v75h488v-75h-488zM414 721v75h456v-75h-456zM477 40h329 v125h-329v-125z" />
<glyph unicode="&#x28c;" d="M33 450q67 70 127.5 172.5t98.5 211.5l87 -26q-38 -106 -102 -223v-663h-88v523q-42 -58 -72 -89q-6 17 -22.5 47.5t-28.5 46.5zM271 -5q118 25 182.5 68t94.5 108h-241v83h266q6 31 12 92h-244v82h582v-82h-249q-3 -43 -11 -92h293v-83h-254q79 -137 268 -177 q-37 -34 -58 -75q-195 54 -282 218q-36 -79 -108.5 -132t-200.5 -85q-15 38 -50 75zM372 509v283h516v-283h-516zM460 590h335v121h-335v-121z" />
<glyph unicode="&#x28d;" d="M20 439q132 155 206 395l86 -24q-34 -99 -77 -195v-693h-88v530q-42 -66 -80 -111q-17 49 -47 98zM308 86v632h81v-133q115 102 171 255l85 -21q-16 -42 -39 -85h342v-75h-78q-47 -90 -124 -160q102 -55 234 -78q-34 -40 -51 -76q-137 31 -250 103q-99 -68 -241 -111 q-15 28 -49 66v-317h-81zM389 411q128 31 221 88q-52 44 -92 98q-33 -41 -74 -79q-19 18 -55 44v-151zM415 -1q337 49 457 184l80 -33q-136 -161 -489 -224q-20 43 -48 73zM457 270q161 45 236 117l70 -29q-88 -88 -255 -142q-26 34 -51 54zM468 145q100 23 186.5 61.5 t133.5 87.5l69 -28q-106 -117 -343 -181q-22 36 -46 60zM562 658q43 -64 112 -114q61 50 99 115h-210z" />
<glyph unicode="&#x28e;" d="M19 450q70 69 133 172t104 213l87 -26q-40 -106 -99 -211v-675h-88v537q-42 -57 -86 -104q-20 48 -51 94zM279 232q53 11 198 46q5 42 5 105v4h-163v85h163v122h-170v86h170v145h91v-442q0 -79 -7.5 -139.5t-29 -124.5t-65 -116t-109.5 -90q-28 42 -63 69q126 72 163 212 q-65 -22 -152 -48zM676 -78v905h92v-147h185v-86h-185v-122h178v-85h-178v-131h194v-86h-194v-248h-92z" />
<glyph unicode="&#x28f;" d="M19 450q70 69 133 172t104 213l87 -26q-40 -106 -99 -211v-675h-88v537q-42 -57 -86 -104q-20 48 -51 94zM253 216q165 60 273 159h-241v79h292v74h-230v75h230v68h-246v78h246v81h94v-81h269v-78h-269v-68h246v-75h-246v-74h288v-79h-266q19 -75 52 -144q81 54 139 107 l64 -65q-86 -65 -165 -110q76 -116 188 -163q-39 -33 -61 -79q-210 103 -292 429q-45 -48 -101 -89v-208q179 37 182 37l8 -80q-269 -60 -361 -78l-28 84q38 6 110 20v166q-65 -38 -117 -61q-29 46 -58 75z" />
<glyph unicode="&#x290;" d="M19 450q70 69 133 172t104 213l87 -26q-40 -106 -99 -211v-675h-88v537q-42 -57 -86 -104q-20 48 -51 94zM261 270q103 51 172 143h-145v73h189q14 27 28 65h-155v69h177q5 20 13 60h-210v72h222q2 17 5 46.5t4 38.5h85q-7 -64 -10 -85h297v-72h-309q-3 -20 -13 -60h299 v-69h-168q11 -27 31 -65h187v-73h-139q70 -90 157 -134q-31 -23 -60 -70q-48 28 -93 71v-56h-159v-73h233v-74h-233v-155h-87v155h-223v74h223v73h-154v59q-45 -42 -108 -76q-17 31 -56 63zM437 294h142v84h87v-84h145q-50 53 -89 119h-191q-39 -67 -94 -119zM568 486h117 q-17 39 -25 65h-68q-11 -35 -24 -65z" />
<glyph unicode="&#x291;" d="M20 461q72 68 137 168t106 208l86 -28q-15 -37 -40 -91h190q23 51 43 118l91 -18q-13 -47 -35 -100h356v-84h-163q73 -131 188 -196q-36 -28 -60 -69q-30 20 -45 32v-301h-215v-52q0 -29 8.5 -38t38.5 -9h133q25 0 33.5 21t11.5 88q34 -25 77 -32q-8 -89 -32 -121 t-83 -32h-151q-72 0 -97 25.5t-25 96.5v53h-126v-53h-84v349q-21 -18 -52 -38q-29 43 -63 72q125 75 206 204h-157v60q-22 -44 -51 -94v-678h-88v547q-47 -60 -88 -101q-20 48 -50 93zM447 173h126v93h-126v-93zM447 334h126v86h-126v-86zM462 492h111v86h86v-86h127 q-50 64 -88 142h-140q-41 -77 -96 -142zM659 173h132v93h-132v-93zM659 334h132v86h-132v-86z" />
<glyph unicode="&#x292;" d="M35 549q124 51 237 132.5t174 161.5h90q81 -90 197 -165.5t234 -117.5q-33 -37 -56 -81q-118 51 -236 132v-40h-355v36q-113 -80 -233 -133q-19 41 -52 75zM48 -10q47 41 79 91.5t46 105.5t19 100t5 97v139h600v-287h-518q-33 -199 -158 -310q-35 42 -73 64zM279 -78v267 h555v-266h-94v28h-371v-29h-90zM288 300h419v52h-416q-2 -34 -3 -52zM291 410h416v50h-416v-50zM362 638h275q-89 66 -141 124q-53 -63 -134 -124zM369 22h371v98h-371v-98z" />
<glyph unicode="&#x293;" d="M20 448q64 71 120 174t91 213l86 -25q-36 -105 -79 -192v-698h-89v540q-49 -72 -83 -110q-12 40 -46 98zM342 -78v861h585v-852h-88v50h-412v-59h-85zM427 63h412v639h-412v-639zM463 498v69h134v108h74v-108h139v-69h-139v-100h106v-266h-280v266h100v100h-134zM566 199 h139v132h-139v-132z" />
<glyph unicode="&#x294;" d="M19 450q70 69 133 172t104 213l87 -26q-40 -106 -99 -211v-675h-88v537q-42 -57 -86 -104q-20 48 -51 94zM300 386v87h166q-9 61 -47 154l80 20q40 -76 53 -154l-75 -20h303l-71 15q33 74 54 159l94 -19q-55 -135 -66 -155h173v-87h-664zM338 648v84h250v107h95v-107h260 v-84h-605zM387 -79v381h509v-376h-95v39h-323v-44h-91zM478 52h323v166h-323v-166z" />
<glyph unicode="&#x295;" d="M21 442q62 72 116.5 176.5t89.5 216.5l86 -24l-9 -27h350v-76h-165q-34 -99 -69 -181l134 9q-23 50 -44 90l66 23q71 -117 93 -215l-72 -27q-2 13 -15 55q-214 -20 -298 -27l-8 83q28 2 63 3q28 76 55 187h-93v68q-33 -92 -69 -167v-687h-85v531q-37 -59 -79 -109 q-23 58 -47 98zM268 47q69 9 161 23v163h-132v81h132v110h87v-110h126v-81h-126v-150q57 8 148 23l6 -78q-223 -39 -388 -65zM676 159v553h81v-553h-81zM724 10q23 -1 102 -1q10 0 14 4t4 15v794h83v-794q0 -70 -38 -90q-36 -18 -136 -18q-8 48 -29 90z" />
<glyph unicode="&#x296;" d="M22 454q74 69 140 171t108 212l87 -28q-39 -97 -98 -199v-686h-88v552q-48 -64 -98 -116q-20 46 -51 94zM297 481v84h292v93h-216v81h216v93h91v-93h225v-81h-225v-93h285v-84h-104q-39 -76 -65 -123h155v-83h-271v-96h250v-82h-250v-175h-91v175h-245v82h245v96h-277v83 h159q-15 54 -47 116l25 7h-152zM514 481q36 -67 47 -117l-19 -6h165l-3 1q28 52 54 122h-244z" />
<glyph unicode="&#x297;" d="M18 439q134 155 208 395l86 -24q-32 -100 -77 -194v-694h-88v532q-37 -60 -82 -113q-21 61 -47 98zM305 81v642h81v-642h-81zM384 -15q201 66 239 196h-208v80h219v109h-90q-34 -61 -68 -97q-36 29 -72 48q73 76 117 207h-107v79h343v109h-281v77h367v-186h101v-79h-371 l35 -8q-11 -35 -27 -73h353v-77h-209v-109h240v-80h-227q52 -139 238 -186q-29 -24 -54 -75q-166 48 -235 183q-66 -116 -243 -184q-29 42 -60 66z" />
<glyph unicode="&#x298;" d="M19 450q70 69 133 172t104 213l87 -26q-40 -106 -99 -211v-675h-88v537q-42 -57 -86 -104q-20 48 -51 94zM292 435v85h165v118h-126v80h126v112h90v-112h163v112h92v-112h132v-80h-132v-118h163v-85h-673zM392 -82v448h492v-444h-93v37h-310v-41h-89zM481 35h310v93h-310 v-93zM481 199h310v89h-310v-89zM547 520h163v118h-163v-118z" />
<glyph unicode="&#x299;" d="M21 442q62 72 116.5 176.5t89.5 216.5l86 -24q-32 -100 -81 -202v-687h-85v531q-37 -59 -79 -109q-23 58 -47 98zM234 -17q117 169 117 507v101h-81v82h142v157h86v-157h129v-82h-193v-113h159q71 128 102 362l85 -15q-15 -96 -34 -171h211v-80h-40q-25 -241 -90 -393 q61 -120 147 -183q-36 -34 -61 -76q-77 63 -132 168q-61 -102 -156 -172q-20 40 -53 73q106 73 166 195q-42 112 -66 257q-13 -27 -35 -61q-11 14 -35 38q-7 -234 -16.5 -333.5t-28.5 -124.5q-20 -30 -58 -35q-26 -5 -89 -3q-4 49 -23 83q31 -3 70 -3q18 0 27 14 q24 32 35 381h-87q-16 -315 -137 -482q-8 14 -28.5 36t-32.5 30zM722 571q22 -160 60 -277q34 112 52 280h-111z" />
<glyph unicode="&#x29a;" d="M19 450q70 69 133 172t104 213l87 -26q-40 -106 -99 -211v-675h-88v537q-42 -57 -86 -104q-20 48 -51 94zM341 -78v615h86v-486h530v-81h-530v-48h-86zM359 662v80h264q2 25 7 97l92 -5q-2 -32 -8 -92h237v-80h-245q-1 -8 -10 -72h205v-473h-397v473h104q5 40 8 72h-257z M590 185h222v70h-222v-70zM590 320h222v68h-222v-68zM590 454h222v68h-222v-68z" />
<glyph unicode="&#x29b;" d="M19 450q70 69 133 172t104 213l87 -26q-40 -106 -99 -211v-675h-88v537q-42 -57 -86 -104q-20 48 -51 94zM246 250q108 60 180 159h-135v75h181q22 44 39 88h-119v42q-11 -13 -34 -36q-37 34 -67 51q83 70 129 174l79 -22q-29 -66 -80 -134h116q25 91 38 193l91 -10 q-16 -102 -37 -183h214q-36 51 -96 117l68 39q97 -99 144 -180l-73 -43q-9 17 -23 38v-46h-115q18 -54 35 -88h179v-75h-138q67 -101 150 -146q-39 -35 -59 -73q-62 40 -112 102v-3q-3 -151 -23 -175q-18 -22 -53 -24q-28 -4 -97 -1q-2 37 -18 66q32 -4 72 -4q18 0 25 8 q7 10 10 83h-195v-195q0 -25 12 -32t54 -7h186q33 0 43.5 16.5t13.5 76.5q29 -22 81 -32q-9 -84 -35.5 -112.5t-95.5 -28.5h-201q-85 0 -115 24t-30 93v233q-50 -53 -120 -98q-30 38 -69 70zM471 318h311q-32 44 -55 91h-194q-30 -52 -62 -91zM571 484h123q-15 39 -30 88 h-59q-16 -48 -34 -88z" />
<glyph unicode="&#x29c;" d="M19 450q70 69 133 172t104 213l87 -26q-40 -106 -99 -211v-675h-88v537q-42 -57 -86 -104q-20 48 -51 94zM260 535q91 50 176 132t130 159h89q60 -84 146.5 -159t172.5 -117q-27 -34 -53 -83q-62 35 -130 90v-72h-347v69q-68 -57 -136 -96q-22 47 -48 77zM336 -79v490 h572v-397q0 -60 -32 -78q-26 -14 -111 -14q-5 39 -25 81q30 -1 69 -1q12 0 12 13v122h-91v-204h-69v204h-88v-204h-69v204h-83v-216h-85zM421 217h83v114h-83v-114zM458 566h322q-105 86 -166 173q-58 -89 -156 -173zM573 217h88v114h-88v-114zM730 217h91v114h-91v-114z " />
<glyph unicode="&#x29d;" d="M19 450q70 69 133 172t104 213l87 -26q-40 -106 -99 -211v-675h-88v537q-42 -57 -86 -104q-20 48 -51 94zM285 419q136 42 236 134h-208v79h271v75q-98 -10 -210 -13q-5 31 -23 72q305 12 488 55l63 -68q-90 -22 -228 -37v-84h278v-79h-209q91 -81 224 -127 q-34 -27 -61 -69q-132 55 -232 159v-143h-68l25 -6q-2 -4 -14.5 -25.5t-19.5 -33.5h365v-80h-119q-34 -88 -98 -149q127 -49 201 -91l-62 -70q-80 48 -219 102q-117 -67 -335 -100q-10 37 -43 79q173 16 276 60q-53 18 -102 33l-13 -19l-83 29q31 44 82 126h-149v80h196 q9 16 25 44.5t20 36.5l45 -11v131q-101 -103 -242 -158q-26 42 -57 68zM504 158q60 -16 151 -46q60 46 86 116h-193q-38 -61 -44 -70z" />
<glyph unicode="&#x29e;" d="M16 455q70 69 132 170t101 210l88 -26q-39 -101 -89 -194v-692h-89v549q-45 -63 -91 -111q-24 56 -52 94zM285 -18q61 26 118.5 66t92.5 80l78 -45q-82 -97 -229 -166q-28 37 -60 65zM295 140v85h668v-85h-668zM399 288v504h480v-504h-480zM488 360h299v75h-299v-75z M488 503h299v76h-299v-76zM488 646h299v75h-299v-75zM696 75l74 47q132 -87 203 -153l-79 -53q-67 68 -198 159z" />
<glyph unicode="&#x29f;" d="M19 450q70 69 133 172t104 213l87 -26q-40 -106 -99 -211v-675h-88v537q-42 -57 -86 -104q-20 48 -51 94zM275 576q88 45 170.5 118t126.5 143h88q61 -78 145 -146t168 -106q-21 -23 -55 -82q-48 25 -104 67v-55h-150v-72h239v-258h-221q86 -142 283 -188 q-33 -29 -57 -78q-190 55 -286 210q-71 -136 -279 -210q-25 44 -59 71q208 64 264 195h-204v258h228v72h-143v51q-41 -31 -104 -67q-22 45 -50 77zM428 259h140q4 29 4 65v46h-144v-111zM465 594h317q-102 81 -162 159q-59 -81 -155 -159zM661 259h153v111h-150v-47 q0 -33 -3 -64z" />
<glyph unicode="&#x2a0;" d="M20 461q72 68 137 168t106 208l86 -28q-42 -107 -103 -209v-678h-88v547q-47 -60 -88 -101q-20 48 -50 93zM299 546v74h196q8 26 19 74h-145v73h161q11 57 14 72l93 -9q-10 -48 -13 -63h241v-147h97v-74h-663zM303 22v71h115v79h-85v69h306v50h-262v213h512v-213h-159 v-50h209v-69h-209v-79h230v-71h-230v-100h-91v100h-336zM465 359h332v77h-332v-77zM507 93h132v79h-132v-79zM588 620h187v74h-168q-11 -48 -19 -74z" />
<glyph unicode="&#x2a1;" d="M21 440q132 155 206 395l86 -24q-35 -106 -78 -197v-692h-88v530q-43 -67 -80 -110q-18 52 -46 98zM247 12q113 152 113 464v174h556v-232h-472q-2 -42 -3 -64h496v-345q0 -56 -28 -74q-27 -15 -95 -15q-5 41 -27 79q43 -2 56 0q7 0 9 2t2 9v101h-78v-185h-66v185h-77 v-185h-65v185h-74v-191h-77v272q-32 -146 -101 -238q-10 13 -32.5 31.5t-36.5 26.5zM322 710v77h636v-77h-636zM445 489h381v90h-381v-90zM494 183h74v98h-74v-98zM633 183h77v98h-77v-98zM776 183h78v98h-78v-98z" />
<glyph unicode="&#x2a2;" d="M19 450q70 69 133 172t104 213l87 -26q-40 -106 -99 -211v-675h-88v537q-42 -57 -86 -104q-20 48 -51 94zM302 187v181h663v-179h-86v106h-495v-108h-82zM322 667v80h263v89h93v-89h276v-80h-632zM392 417v203h490v-203h-490zM426 164v75h420v-75h-168v-148q0 -36 -9 -55 t-36 -28q-35 -13 -163 -13q-4 32 -27 85q36 -2 75 -2.5t48 0.5q11 1 15 4t4 12v145h-159zM480 480h309v77h-309v-77z" />
<glyph unicode="&#x2a3;" d="M22 462q122 144 188 373l83 -24q-16 -47 -18 -53h129l14 5l58 -17q-43 -115 -108 -263h58l15 2l49 -9q-17 -221 -75 -358q47 -54 114.5 -75.5t163.5 -21.5q229 0 277 1q-21 -33 -31 -85h-250q-108 0 -184 22.5t-130 79.5q-41 -67 -101 -115q-26 45 -51 67v-68h-83v545 q-41 -65 -74 -103q-17 50 -44 97zM223 -6q58 44 98 120q-44 81 -72 206l72 21q16 -79 40 -135q31 91 45 208h-69l-20 -44l-77 18q55 116 127 294h-94v69q-22 -62 -50 -124v-633zM450 554v69h202v63h-136v69h136v77h84v-77h174v-132h55v-69h-55v-133h-174v-64h183v-69h-183 v-65h210v-70h-210v-104h-84v104h-178v70h178v65h-151v69h151v64h-136v69h136v64h-202zM736 490h94v64h-94v-64zM736 623h94v63h-94v-63z" />
<glyph unicode="&#x2a4;" d="M19 450q70 69 133 172t104 213l87 -26q-40 -106 -99 -211v-675h-88v537q-42 -57 -86 -104q-20 48 -51 94zM263 7q68 69 92 223l79 -21q-27 -173 -97 -245zM359 348v440h550v-440h-312q106 -64 155 -112l-63 -59q-56 59 -177 133l43 38h-196zM447 424h143v109h-143v-109z M447 605h143v108h-143v-108zM480 35v213h88v-212q0 -19 6.5 -24.5t29.5 -5.5h100q22 0 28 18t9 90q28 -23 79 -34q-7 -92 -29 -124t-77 -32h-122q-67 0 -89.5 23t-22.5 88zM674 424h144v109h-144v-109zM674 605h144v108h-144v-108zM770 206l76 35q99 -134 129 -234l-81 -40 q-30 101 -124 239z" />
<glyph unicode="&#x2a5;" d="M21 440q132 155 206 395l86 -24q-35 -106 -78 -197v-692h-88v530q-43 -67 -80 -110q-18 52 -46 98zM261 -22q34 30 67.5 79.5t52.5 93.5l78 -40q-59 -113 -131 -185q-29 28 -67 52zM328 164v616h287v-616h-287zM406 239h127v109h-127v-109zM406 419h127v107h-127v-107z M406 598h127v107h-127v-107zM494 115l67 36q63 -94 88 -162l-71 -43q-20 63 -84 169zM682 147v587h82v-587h-82zM720 10q49 -2 107 -2q19 1 19 20v797h85v-796q0 -71 -39 -90q-34 -18 -145 -18q-6 47 -27 89z" />
<glyph unicode="&#x2a6;" d="M22 454q74 69 140 171t108 212l87 -28q-39 -97 -98 -199v-686h-88v552q-48 -64 -98 -116q-20 46 -51 94zM294 -21q133 50 205 122l94 -32q-81 -87 -217 -152q-39 37 -82 62zM376 119v489h202v231h94v-79h268v-80h-268v-72h223v-489h-519zM466 189h335v72h-335v-72z M466 328h335v71h-335v-71zM466 467h335v69h-335v-69zM685 57l81 46q127 -75 196 -133l-85 -52q-74 68 -192 139z" />
<glyph unicode="&#x2a7;" d="M29 450q68 71 129 173.5t99 211.5l89 -26q-43 -115 -102 -220v-668h-88v528q-36 -50 -75 -94q-20 51 -52 95zM325 -79v428h265v70h-217v375h526v-375h-228v-70h268v-337q0 -34 -9 -52t-33 -27q-34 -13 -155 -13q-7 43 -27 77q27 -1 118 -1q11 1 15 4t4 13v257h-181v-112 l75 7q-7 18 -30 61l56 19q57 -99 80 -185l-59 -22q-4 17 -19 60q-186 -26 -320 -41l-18 80q57 4 154 14v119h-177v-349h-88zM459 491h131v82h-131v-82zM459 641h131v81h-131v-81zM671 491h138v82h-138v-82zM671 641h138v81h-138v-81z" />
<glyph unicode="&#x2a8;" d="M16 455q69 69 130 170t100 210l88 -26q-40 -107 -99 -214v-407q192 138 314 387h-232v76h267q38 90 66 189l87 -19q-31 -100 -59 -170h168q-15 -110 -28 -174h80q-19 -135 -26 -175h85q-1 -24 -3 -34q-11 -153 -24 -223.5t-34 -93.5q-23 -24 -67 -29q-39 -5 -117 0 q-2 43 -23 77q44 -5 102 -5q24 0 33 10q27 29 42 224h-449q-63 -68 -137 -122q-13 15 -45 44v-227h-88v534q-37 -50 -80 -96q-17 46 -51 94zM280 -14q63 64 90 188l71 -24q-32 -144 -93 -205zM373 807l74 25q52 -80 72 -146l-80 -30q-17 66 -66 151zM480 146l69 9 q28 -91 28 -169l-72 -12q0 79 -25 172zM481 302h303q6 27 19 101h-251q-42 -64 -71 -101zM596 156l62 19q43 -82 55 -138l-66 -22q-13 68 -51 141zM596 477h136q13 62 18 98h-105q-24 -50 -49 -98zM704 179l54 25q55 -65 69 -110l-57 -28q-15 47 -66 113z" />
<glyph unicode="&#x2a9;" d="M19 450q70 69 133 172t104 213l87 -26q-40 -106 -99 -211v-675h-88v537q-42 -57 -86 -104q-20 48 -51 94zM293 -13q61 20 102 49t64.5 68.5t34.5 80.5t17 99h-198v74h271v97h92v-97h283v-74h-359q-3 -36 -9 -69h288q-1 -23 -3 -35q-15 -194 -50 -231q-22 -23 -64 -26 q-37 -4 -121 -1q-4 43 -23 77q53 -6 102 -6q22 0 32 10q20 18 32 138h-211q-26 -79 -79.5 -133.5t-148.5 -89.5q-21 45 -52 69zM316 401v155h160q-8 45 -40 108l24 4h-117v76h241v92h92v-92h256v-76h-88q-32 -71 -55 -112h159v-155h-90v81h-456v-81h-86zM525 668 q34 -63 42 -108l-20 -4h158q24 54 43 112h-223z" />
<glyph unicode="&#x2aa;" d="M22 451q62 70 117 171.5t91 211.5l86 -25q-36 -104 -78 -190v-699h-89v540q-43 -66 -80 -107q-20 55 -47 98zM262 555q110 107 159 272l77 -11q-5 -18 -25 -70h97l13 3l51 -18l-2 -8h166v101h78v-101h70v-71h-70v-139h81v-75h-81v-112h-78v112h-210v75h66v139h-38v3 q-70 -243 -263 -347q-22 39 -49 62q89 41 153 130q-35 35 -81 70q-27 -37 -54 -64q-23 27 -60 49zM277 11q69 29 137.5 81t116.5 112h-229v81h275v105h91v-105h286v-81h-237q46 -58 113 -108t135 -79q-36 -30 -64 -76q-130 68 -233 200v-220h-91v218q-103 -126 -240 -198 q-20 32 -60 70zM416 630q39 -27 82 -64q28 52 44 110h-101q-21 -39 -25 -46zM725 513h73v139h-73v-139z" />
<glyph unicode="&#x2ab;" d="M35 570q123 45 237 120t175 149h89q82 -83 198 -152t233 -108q-24 -24 -55 -79q-74 30 -157 75q-6 -20 -24 -58q101 -52 153 -94l-52 -55q-51 44 -137 93q-39 -52 -96 -90q-30 30 -57 48v-244h402v-82h-402v-171h-91v171h-397v82h397v470h91v-222q104 62 137 171l68 -14 q-159 89 -251 182q-78 -84 -210 -164l60 -13q-16 -40 -32 -64q85 -48 126 -89l-44 -53q-35 38 -119 92q-49 -59 -124 -102q-34 37 -54 52q123 61 170 166q-83 -50 -183 -92q-19 39 -51 75zM94 232q126 66 171 176l70 -16q-12 -30 -28 -55q89 -51 132 -91l-52 -52 q-41 41 -118 90q-51 -60 -119 -100q-24 26 -56 48zM544 232q108 62 144 167l76 -15q-8 -23 -23 -52q110 -60 156 -102l-53 -52q-55 48 -139 98q-43 -55 -101 -94q-29 31 -60 50z" />
<glyph unicode="&#x2ac;" d="M21 440q132 155 206 395l86 -24q-35 -106 -78 -197v-692h-88v530q-43 -67 -80 -110q-18 52 -46 98zM248 -22q78 119 78 373v215h634v-82h-549v-134q0 -289 -95 -430q-33 38 -68 58zM314 671v82h152v79h86v-79h169v79h88v-79h147v-82h-147v-74h-88v74h-169v-74h-86v74 h-152zM461 -78v500h475v-417q0 -55 -31 -71q-28 -13 -118 -13q-6 40 -22 71q60 -2 77 0q14 1 14 14v75h-125v-155h-74v155h-118v-159h-78zM539 143h118v73h-118v-73zM539 278h118v74h-118v-74zM731 143h125v73h-125v-73zM731 278h125v74h-125v-74z" />
<glyph unicode="&#x2ad;" d="M19 450q70 69 133 172t104 213l87 -26q-40 -106 -99 -211v-675h-88v537q-42 -57 -86 -104q-20 48 -51 94zM252 335q58 47 108.5 115.5t80.5 142.5h-73v207h85v-128h142v160h92v-160h151v128h90v-207h-483l84 -24q-22 -51 -45 -90h155q25 60 36 109l96 -22 q-35 -73 -43 -87h215v-73h-220v-75h191v-69h-191v-77h191v-69h-191v-78h231v-74h-473v-40h-89v421q-37 -45 -70 -74q-40 42 -70 64zM481 38h153v78h-153v-78zM481 185h153v77h-153v-77zM481 331h153v75h-153v-75z" />
<glyph unicode="&#x2ae;" d="M21 440q132 155 206 395l86 -24q-35 -106 -78 -197v-692h-88v530q-43 -67 -80 -110q-18 52 -46 98zM237 -10q86 158 86 491v267h274v84h92v-84h266v-69h-243v-52h192v-102h58v-60h-58v-108h-192v-39h214v-319q0 -51 -29 -66q-24 -11 -107 -11q-4 27 -21 67q28 -1 62 -1 q13 0 13 12v46h-132v-121h-82v121h-120v-124h-80v396h200v39h-175v58h175v50h-213v60h213v45h-175v57h175v52h-224v-198q0 -364 -101 -545q-11 12 -33 29.5t-35 24.5zM510 104h120v51h-120v-51zM510 212h120v48h-120v-48zM712 104h132v51h-132v-51zM712 212h132v48h-132v-48 zM712 415h112v50h-112v-50zM712 525h112v45h-112v-45z" />
<glyph unicode="&#x2af;" d="M19 461q70 68 133 168.5t104 208.5l85 -26q-35 -94 -92 -197v-692h-90v551q-49 -66 -90 -107q-14 39 -50 94zM294 -15q143 42 215 99l89 -33q-87 -76 -231 -130q-37 40 -73 64zM310 517v63h276v45h-209v59h209v42h-233v61h233v52h94v-52h243v-61h-243v-42h219v-59h-219 v-45h275v-63h-645zM385 96v378h508v-378h-508zM475 157h325v52h-325v-52zM475 261h325v52h-325v-52zM475 363h325v51h-325v-51zM686 51l83 39q124 -69 190 -126l-84 -50q-68 65 -189 137z" />
<glyph unicode="&#x2b0;" d="M19 450q70 69 133 172t104 213l87 -26q-40 -106 -99 -211v-675h-88v537q-42 -57 -86 -104q-20 48 -51 94zM276 123q109 63 176 149h-156v69h669v-69h-423q-24 -34 -38 -51h433q-1 -23 -3 -34q-23 -202 -61 -240q-21 -21 -58 -24q-26 -3 -93 -1q-4 46 -20 71q33 -3 77 -3 q21 0 29 9q25 25 42 156h-67q-65 -147 -187 -241q-26 26 -62 50q106 70 165 191h-86q-39 -66 -97 -124.5t-121 -99.5q-37 37 -58 53q118 67 190 171h-85q-56 -53 -110 -88q-23 29 -56 56zM290 588q101 100 158 252l83 -23q-14 -35 -27 -61h438v-69h-474q-18 -32 -28 -47h430 v-258h-451v226q-27 -40 -59 -75q-35 35 -70 55zM503 437h279v50h-279v-50zM503 537h279v49h-279v-49z" />
<glyph unicode="&#x2b1;" d="M20 444q119 148 188 390l83 -23q-33 -104 -67 -184v-707h-84v539q-34 -60 -76 -113q-16 51 -44 98zM293 190v546h83v-232q54 54 90 101l59 -57v96h135q2 8 16 72h-196v79h478v-79h-186q0 -2 -25 -72h179v-527h-401v74q-7 -64 -25.5 -89.5t-56.5 -25.5h-65q-51 0 -68 23.5 t-17 90.5zM376 190q0 -24 2.5 -30t13.5 -6h43q12 0 15.5 26.5t5.5 114.5q26 -20 69 -34v281q-84 -82 -149 -133v-219zM417 -22q53 21 108.5 56.5t84.5 67.5l77 -47q-38 -39 -96 -76.5t-113 -60.5q-19 24 -61 60zM607 188h235v84h-235v-84zM607 339h235v84h-235v-84zM607 490 h235v83h-235v-83zM752 52l69 45q100 -69 153 -127l-71 -51q-57 64 -151 133z" />
<glyph unicode="&#x2b2;" d="M19 450q70 69 133 172t104 213l87 -26q-40 -106 -99 -211v-675h-88v537q-42 -57 -86 -104q-20 48 -51 94zM318 8h275v63h-215v67h215v57h-236v70h236v48h-222v207h222v42h-137v121h-125v70h125v86h87v-86h193v86h90v-86h128v-70h-128v-121h-142v-42h232v-207h-232v-48 h242v-70h-242v-57h220v-67h-220v-63h276v-70h-642v70zM457 376h136v81h-136v-81zM543 624h193v59h-193v-59zM684 376h140v81h-140v-81z" />
<glyph unicode="&#x2b3;" d="M24 445q57 72 106 175t79 214l83 -22q-13 -41 -16 -50q229 22 331 47l48 -67q-73 -17 -150 -25v-59h152v-47h60v224h80v-224h154q-1 -30 -1 -40q-7 -333 -15 -453t-27 -149q-22 -32 -62 -39q-42 -5 -98 -2q-4 48 -23 81q54 -3 82 -3q19 0 29 16q14 20 21.5 129.5 t12.5 378.5h-73v-24q0 -83 -5.5 -152.5t-21 -150.5t-48.5 -154.5t-82 -131.5q-29 29 -67 49q3 3 8.5 9.5t7.5 9.5q-238 -27 -314 -35l-13 78q15 1 164 13v74h-141v69h141v57h-139v292h139v55h-150v70h150v50q-41 -4 -135 -11q-5 28 -17 58q-27 -79 -49 -129v-706h-84v537 q-34 -61 -74 -110q-11 41 -43 98zM350 300h82v61h-82v-61zM350 416h82v58h-82v-58zM497 300h87v61h-87v-61zM497 416h87v58h-87v-58zM505 48q43 4 131 12q81 158 81 445v25h-64v58h-148v-55h144v-292h-144v-57h146v-69h-146v-67z" />
<glyph unicode="&#x2b4;" d="M21 440q132 155 206 395l86 -24q-35 -106 -78 -197v-692h-88v530q-43 -67 -80 -110q-18 52 -46 98zM258 600q69 48 122.5 111.5t86.5 126.5l89 -16q-12 -22 -27 -45h176l16 5l56 -40q-28 -49 -68 -100h213v-226h-192q17 -69 42 -128q76 57 118 101l65 -55 q-76 -66 -152 -113q67 -129 165 -186q-38 -32 -60 -73q-181 118 -257 454h-22q-24 -19 -60 -43q58 -49 92.5 -113.5t41 -123t-6.5 -108t-43 -73.5q-39 -33 -99 -34q-48 0 -75 2q-2 48 -21 79q40 -4 78 -4q37 0 55 18q37 28 29 107q-137 -110 -300 -173q-22 40 -50 68 q86 27 179.5 78t152.5 105q-13 30 -25 49q-112 -81 -246 -133q-17 34 -44 61q145 43 254 122q-17 18 -35 35q-83 -46 -174 -79q-22 32 -53 63q131 37 233 97h-175v140l-11 -9q-26 31 -68 53zM422 480h158v97h-158v-97zM428 642h180q27 31 48 66h-174q-26 -33 -54 -66z M665 480h168v97h-168v-97z" />
<glyph unicode="&#x2b5;" d="M19 455q62 69 117 170t90 209l85 -25q-30 -91 -76 -187v-702h-88v545q-39 -60 -81 -108q-20 55 -47 98zM272 454q107 50 182 141h-151v69h198q15 26 27 54q-113 -6 -163 -7q-6 34 -22 65q318 11 482 47l66 -60q-98 -22 -267 -38q-8 -21 -26 -61h353v-69h-159 q83 -95 186 -140q-35 -29 -60 -67q-49 27 -104 75v-106h-371v106q-48 -42 -111 -77q-19 29 -60 68zM328 -78v392h600v-301q0 -34 -9 -52t-32 -26q-32 -14 -156 -14q-6 38 -25 77q26 -1 114 -1q20 1 20 17v228h-423v-320h-89zM484 -31v228h286v-187h-212v-41h-74zM520 542 h217q-19 23 -39 53h-139q-15 -24 -39 -53zM527 414h198v71h-198v-71zM558 68h138v71h-138v-71z" />
<glyph unicode="&#x2b6;" d="M19 450q70 69 133 172t104 213l87 -26q-40 -106 -99 -211v-675h-88v537q-42 -57 -86 -104q-20 48 -51 94zM296 -12q201 49 260 147h-252v77h278q2 28 2 42v23h-218v69h218v61h-249v69h131q-13 47 -40 96l8 2h-123v78h209v179h76v-179h71v179h77v-179h211v-78h-114 q-38 -70 -54 -98h140v-69h-251v-61h222v-69h-222v-24q0 -13 -2 -41h287v-77h-260q84 -107 270 -138q-35 -31 -58 -80q-187 43 -280 174q-74 -112 -280 -173q-27 44 -57 70zM354 789l69 22q47 -73 59 -124l-71 -25q-14 53 -57 127zM516 574q31 -59 38 -94l-14 -4h173l-11 3 q24 45 42 95h-228zM781 682q37 65 61 134l81 -26q-66 -113 -78 -130z" />
</font>
</defs>
</svg>
